<?xml version="1.0" standalone="no"?>
<!DOCTYPE svg PUBLIC "-//W3C//DTD SVG 1.1//EN" "http://www.w3.org/Graphics/SVG/1.1/DTD/svg11.dtd" >
<svg xmlns="http://www.w3.org/2000/svg" xmlns:xlink="http://www.w3.org/1999/xlink" version="1.1">
<metadata>
Created by FontForge 20190801 at Thu Mar 29 13:00:53 2018
 By Jimmy Wärting
Copyright (c) 2018 by Connary Fagen. All rights reserved.
</metadata>
<defs>
<font id="QuincyCF-Regular" horiz-adv-x="564" >
  <font-face 
    font-family="Quincy CF"
    font-weight="400"
    font-stretch="normal"
    units-per-em="1000"
    panose-1="0 0 5 0 0 0 0 0 0 0"
    ascent="800"
    descent="-200"
    x-height="451"
    cap-height="621"
    bbox="-229.8 -288 995 895"
    underline-thickness="50"
    underline-position="-100"
    unicode-range="U+0020-FB02"
  />
<missing-glyph horiz-adv-x="515" 
d="M422 800v-1030h-326v1030h326zM343 731h-170v-34h67v-38h-68v-34h171v34h-68v38h68v34zM275 598h-103v-107h171v35h-68v72zM240 563v-37h-34v37h34zM343 463h-171v-34h68v-38h-68v-34h103v72h68v34zM343 401h-34v-68h-137v-35h171v103zM343 276h-103v-58h35v24h34v-49
h-103v83h-34v-117h171v117zM343 98h-171v-117h171v117zM309 64v-49h-103v49h103zM343 -43h-171v-34h72l-72 -48v-34h171v34h-105l72 48h33v34z" />
    <glyph glyph-name="fi" unicode="fi" horiz-adv-x="576" 
d="M20 0v20q36 5 50 16t14 38v329q0 21 -22 21h-42v19q34 4 49 11t15 23v13q0 87 52.5 134.5t131.5 47.5q71 0 111 -27t40 -62q0 -20 -13 -29.5t-29 -9.5q-20 0 -32 16.5t-17 36t-23.5 36t-51.5 16.5q-48 0 -68.5 -36.5t-20.5 -107.5v-28q0 -26 20 -26h111v-27h-111
q-20 0 -20 -21v-329q0 -27 14.5 -38t53.5 -16v-20h-212zM343 0v20q36 5 50 16t14 38v283q0 35 -12.5 48t-52.5 9v19l110 25q35 8 35 -29v-355q0 -27 14 -38t50 -16v-20h-208z" />
    <glyph glyph-name="fl" unicode="fl" horiz-adv-x="545" 
d="M455 -5q-34 0 -51.5 17t-17.5 59v411q0 80 -31.5 128.5t-97.5 48.5q-53 0 -73 -35.5t-20 -108.5v-41q0 -23 20 -23h108v-27h-108q-20 0 -20 -21v-329q0 -27 14.5 -38t53.5 -16v-20h-212v20q36 5 50 16t14 38v329q0 21 -22 21h-42v19q34 4 49 11t15 23v23q0 88 54.5 135
t139.5 47q84 0 136 -45.5t52 -145.5v-418q0 -53 64 -34v-21q-36 -23 -75 -23z" />
    <glyph glyph-name="f_f" unicode="ff" horiz-adv-x="648" 
d="M539 672q60 0 94.5 -27t34.5 -62q0 -20 -13 -29.5t-30 -9.5q-20 0 -30.5 16.5t-13.5 36t-16.5 36t-40.5 16.5q-43 0 -57.5 -35t-14.5 -109v-28q0 -26 19 -26h109v-27h-109q-19 0 -19 -21v-329q0 -27 14.5 -38t52.5 -16v-20h-211v20q36 5 50 16t14 38v329q0 21 -22 21
h-166q-20 0 -20 -21v-329q0 -27 14.5 -38t53.5 -16v-20h-212v20q36 5 50 16t14 38v329q0 21 -22 21h-42v19q34 4 49 11t15 23v23q0 88 52.5 135t132.5 47q93 0 138 -71q46 61 132 61zM349 451q23 8 23 26v2q0 70 -30.5 125t-91.5 55q-48 0 -67 -36t-19 -108v-41
q0 -23 20 -23h165z" />
    <glyph glyph-name=".notdef" horiz-adv-x="515" 
d="M422 800v-1030h-326v1030h326zM343 731h-170v-34h67v-38h-68v-34h171v34h-68v38h68v34zM275 598h-103v-107h171v35h-68v72zM240 563v-37h-34v37h34zM343 463h-171v-34h68v-38h-68v-34h103v72h68v34zM343 401h-34v-68h-137v-35h171v103zM343 276h-103v-58h35v24h34v-49
h-103v83h-34v-117h171v117zM343 98h-171v-117h171v117zM309 64v-49h-103v49h103zM343 -43h-171v-34h72l-72 -48v-34h171v34h-105l72 48h33v34z" />
    <glyph glyph-name=".null" horiz-adv-x="0" 
 />
    <glyph glyph-name="nonmarkingreturn" horiz-adv-x="333" 
 />
    <glyph glyph-name="space" unicode=" " horiz-adv-x="180" 
 />
    <glyph glyph-name="exclam" unicode="!" horiz-adv-x="206" 
d="M89 183q-2 96 -23 218t-21 162q0 35 15 54.5t43 19.5q27 0 42.5 -20t15.5 -54q0 -40 -21.5 -162t-23.5 -218h-27zM103 -6q-22 0 -38 16t-16 39t16 39t38 16t38 -16.5t16 -38.5t-16 -38.5t-38 -16.5z" />
    <glyph glyph-name="quotedbl" unicode="&#x22;" horiz-adv-x="260" 
d="M59 453q2 -19 14 -19q11 0 14 19l22 163q3 19 -7 31.5t-29 12.5t-29 -12t-8 -32zM173 453q3 -19 14 -19q12 0 15 19l22 163q2 20 -8 32t-29 12t-28.5 -12t-7.5 -32z" />
    <glyph glyph-name="numbersign" unicode="#" horiz-adv-x="521" 
d="M496 441h-115l-61 -240h107v-21h-113l-54 -210h-23l54 210h-134l-54 -210h-23l54 210h-109v21h115l61 240h-107v21h113l54 210h23l-54 -210h134l54 210h23l-54 -210h109v-21zM297 201l61 240h-134l-61 -240h134z" />
    <glyph glyph-name="dollar" unicode="$" horiz-adv-x="464" 
d="M429 212q0 -70 -54 -107t-135 -42v-63h-20v62h-5q-88 0 -162 43q-18 46 -16.5 87t20.5 41q10 0 13 -10q19 -56 58.5 -90.5t91.5 -40.5v212q-3 1 -8 2.5t-7 2.5q-82 28 -126 67t-44 102t49.5 104t135.5 43v64h20v-64q80 -3 143 -40q18 -46 17 -87.5t-20 -41.5
q-10 0 -14 11q-18 52 -51 84.5t-75 42.5v-215q96 -33 131 -59q57 -43 58 -108zM107 504q0 -45 28.5 -71t84.5 -47v211q-5 1 -16 1q-50 0 -73.5 -27t-23.5 -67zM247 90q49 1 77.5 25t28.5 70t-28.5 69.5t-84.5 42.5v-207h7z" />
    <glyph glyph-name="percent" unicode="%" horiz-adv-x="634" 
d="M510 621h32l-404 -621h-77l432 597q-33 -26 -73 -31.5t-64.5 0.5t-69.5 20q20 -31 20 -71q0 -63 -47 -111t-107 -48q-48 0 -75 33t-27 80q0 63 47 111t107 48q46 0 91 -11.5t70.5 -20.5t63 -5t81.5 30zM173 380q33 0 49.5 35t16.5 88q0 100 -56 100q-33 0 -49.5 -35
t-16.5 -88q0 -100 56 -100zM482 262q48 0 75 -33t27 -81q0 -63 -47 -111t-107 -48q-48 0 -75 33t-27 80q0 63 47 111.5t107 48.5zM451 14q33 0 49.5 35t16.5 88q0 100 -56 100q-33 0 -49.5 -35t-16.5 -88q0 -100 56 -100z" />
    <glyph glyph-name="ampersand" unicode="&#x26;" horiz-adv-x="741" 
d="M319 -15q-117 0 -198 54.5t-81 144.5q0 75 58 125t112 50q-45 12 -76 50t-31 86q0 61 50 101.5t132 40.5q69 0 116 -29.5t47 -74.5q0 -22 -11.5 -35t-29.5 -13t-30.5 12.5t-12.5 35.5q0 35 -24.5 56t-57.5 21q-45 0 -69 -26.5t-24 -73.5q0 -57 34 -103t95 -63l-10 -25
q-78 15 -126 -27.5t-48 -111.5q0 -78 55 -123t136 -45q87 0 142.5 51.5t55.5 121.5q0 40 -20.5 64.5t-54.5 24.5q-38 0 -53.5 -24.5t4.5 -46.5h-24q-22 18 -22 47q0 5 1 10t4 10.5t5 9t7.5 9l8 8t10.5 8.5t10.5 8t12 8.5t12.5 8.5l110 75q45 30 65 54.5t20 59.5
q0 40 -29.5 59t-75.5 2l-9 19q39 22 79 22q46 0 81.5 -28.5t35.5 -79.5q0 -58 -51 -97t-203 -118q79 1 119.5 -34t41.5 -87q1 -81 -85.5 -136.5t-203.5 -55.5z" />
    <glyph glyph-name="quotesingle" unicode="'" horiz-adv-x="145" 
d="M59 453q2 -19 14 -19q11 0 14 19l22 163q3 19 -7 31.5t-29 12.5t-29 -12t-8 -32z" />
    <glyph glyph-name="parenleft" unicode="(" horiz-adv-x="309" 
d="M130 296q-2 -138 36.5 -255t109.5 -189q5 -5 6 -9t-2 -6.5t-9 -2.5h-9q-11 0 -19 7q-89 80 -143.5 199.5t-54.5 255.5t54.5 255.5t143.5 199.5q8 7 19 7h7q10 0 13.5 -4t-1.5 -9q-74 -72 -113.5 -190.5t-37.5 -258.5z" />
    <glyph glyph-name="parenright" unicode=")" horiz-adv-x="309" 
d="M179 296q2 140 -37.5 258.5t-113.5 190.5q-5 5 -1.5 9t13.5 4h7q11 0 19 -7q89 -80 143.5 -199.5t54.5 -255.5t-54.5 -255.5t-143.5 -199.5q-8 -7 -19 -7h-9q-9 0 -10.5 5t5.5 13q71 72 109.5 189t36.5 255z" />
    <glyph glyph-name="asterisk" unicode="*" horiz-adv-x="329" 
d="M154 520q2 -6 6 -8.5t7.5 0t5.5 8.5l31 78q-4 34 -40 39q-36 -5 -40 -39zM139 508l-55 67q-32 14 -54 -14q-14 -34 13 -54l80 -18q11 -2 17 5t-1 14zM190 508q-7 -7 -1 -14t17 -5l80 18q27 21 13 54q-23 27 -54 14zM124 473l-81 -17q-27 -21 -13 -55q22 -28 54 -14l54 67
q7 7 1.5 14t-15.5 5zM205 473q-10 2 -15.5 -5t1.5 -14l54 -67q31 -13 54 14q13 33 -13 55zM154 444l-30 -78q4 -34 40 -39q36 5 40 39l-30 78q-4 10 -10 10t-10 -10z" />
    <glyph glyph-name="plus" unicode="+" horiz-adv-x="470" 
d="M420 265v-27h-171v-172h-27v172h-172v27h172v172h27v-172h171z" />
    <glyph glyph-name="comma" unicode="," horiz-adv-x="175" 
d="M74 -95l-13 14q15 13 25.5 31.5t10.5 30.5q0 17 -16 17q-22 0 -36.5 15t-14.5 37q0 24 16.5 39t39.5 15q29 0 44 -21t15 -53q0 -35 -19.5 -69.5t-51.5 -55.5z" />
    <glyph glyph-name="hyphen" unicode="-" horiz-adv-x="370" 
d="M50 275h270v-26h-270v26z" />
    <glyph glyph-name="period" unicode="." horiz-adv-x="189" 
d="M94 -6q-22 0 -38 16.5t-16 38.5t16 38.5t38 16.5t38.5 -16t16.5 -39t-16.5 -39t-38.5 -16z" />
    <glyph glyph-name="slash" unicode="/" horiz-adv-x="379" 
d="M35 0l267 641h42l-267 -641h-42z" />
    <glyph glyph-name="zero" unicode="0" 
d="M282 -10q-118 0 -182.5 94.5t-64.5 229.5q0 134 64.5 228.5t182.5 94.5t182.5 -94.5t64.5 -228.5q0 -135 -64.5 -229.5t-182.5 -94.5zM282 17q73 0 111 77.5t38 219.5t-38 219t-111 77q-74 0 -112 -77t-38 -219q0 -143 38 -220t112 -77z" />
    <glyph glyph-name="one" unicode="1" horiz-adv-x="313" 
d="M30 0v20q51 5 69 16t18 38v429q0 33 -8.5 42.5t-33.5 5.5l-41 -7v19l133 62q30 13 30 -16v-535q0 -27 18 -38t68 -16v-20h-253z" />
    <glyph glyph-name="two" unicode="2" horiz-adv-x="534" 
d="M40 0q0 52 26.5 100.5t66 83.5t85.5 72.5t85.5 69.5t66 73t26.5 83q0 52 -32 90.5t-92 38.5q-55 0 -89 -35.5t-34 -85.5q0 -22 7.5 -39.5t7.5 -27.5q0 -23 -13.5 -33t-31.5 -10q-27 0 -44 24.5t-17 61.5q0 68 55.5 119.5t161.5 51.5q101 0 156 -47t55 -125q0 -55 -32 -99
t-82.5 -76t-104 -61.5t-104.5 -70t-76 -86.5h261q57 0 83 15t43 58h20l-16 -82q-9 -47 3 -63h-441z" />
    <glyph glyph-name="three" unicode="3" horiz-adv-x="548" 
d="M257 -10q-95 0 -158.5 49t-63.5 127q0 62 49 62q22 0 28.5 -9.5t12 -42t15.5 -58.5q40 -101 126 -101q66 0 108 52.5t42 128.5q0 65 -34 98.5t-85 33.5q-31 0 -81 -19l-11 26q95 32 131 59t36 85q0 57 -30.5 93.5t-85.5 36.5q-51 0 -78 -33.5t-27 -87.5q0 -57 -42 -57
q-25 0 -37.5 15.5t-12.5 40.5q0 58 54 103t154 45q94 0 143 -39t49 -101q0 -94 -128 -138q36 4 75.5 -11.5t70.5 -55.5t31 -96q0 -89 -72.5 -147.5t-178.5 -58.5z" />
    <glyph glyph-name="four" unicode="4" horiz-adv-x="549" 
d="M509 167h-101v-93q0 -27 16.5 -38t60.5 -16v-20h-233v20q43 5 59.5 16t16.5 38v93h-286l-17 50l299 420l84 -16v-387h101v-67zM93 234h235v366l-245 -343q-7 -11 -4 -17t14 -6z" />
    <glyph glyph-name="five" unicode="5" horiz-adv-x="544" 
d="M260 -10q-94 0 -159.5 49.5t-65.5 126.5q0 62 48 62q17 0 25.5 -8t10.5 -19t7 -36t14 -47q39 -101 129 -101q64 0 106 49t42 125q0 81 -47 140t-129 59q-92 0 -138 -68h-21l24 299h286l70 14l-11 -92h-327l-15 -181q27 28 72 45.5t94 17.5q90 0 162 -56t72 -156
q0 -96 -70.5 -159.5t-178.5 -63.5z" />
    <glyph glyph-name="six" unicode="6" horiz-adv-x="519" 
d="M265 -10q-62 0 -108.5 25t-72 67.5t-37.5 93t-12 108.5q0 54 9 103.5t29.5 95.5t50.5 80t75.5 54t100.5 20q72 0 111 -33l-13 -19q-40 21 -77 21q-54 0 -94 -28t-61.5 -74t-31 -95t-9.5 -101q11 29 60.5 59.5t110.5 30.5q82 0 137.5 -56t55.5 -139q0 -88 -60.5 -150.5
t-163.5 -62.5zM274 17q63 0 94.5 52t31.5 121q0 74 -35.5 120.5t-97.5 46.5q-57 0 -99.5 -40.5t-42.5 -99.5q0 -81 41 -140.5t108 -59.5z" />
    <glyph glyph-name="seven" unicode="7" horiz-adv-x="498" 
d="M95 0l312 543h-215q-55 0 -84.5 -11.5t-47.5 -51.5h-25l45 149l74 -8h319l-314 -621h-64z" />
    <glyph glyph-name="eight" unicode="8" horiz-adv-x="540" 
d="M377 350q60 -25 94 -67.5t34 -99.5q0 -81 -70 -137t-176 -56q-104 0 -164 52.5t-60 129.5q0 51 29 95t86 73q-79 49 -79 136q0 70 57.5 115.5t145.5 45.5q87 0 137.5 -44t50.5 -107q0 -82 -85 -136zM269 611q-63 0 -91.5 -32t-28.5 -78q0 -87 116 -119l73 -19
q59 49 59 124q0 52 -31.5 88t-96.5 36zM265 17q74 0 112.5 46t38.5 105q0 48 -30 77t-97 46l-70 19q-17 4 -35 12q-76 -51 -76 -138q0 -69 41.5 -118t115.5 -49z" />
    <glyph glyph-name="nine" unicode="9" horiz-adv-x="519" 
d="M254 637q62 0 108.5 -25t72 -67.5t37.5 -93t12 -108.5q0 -68 -15 -129t-45.5 -112.5t-83 -81.5t-121.5 -30q-72 0 -110 33l12 19q40 -21 77 -21q54 0 94.5 28t61.5 74.5t31 95.5t10 101q-12 -30 -61.5 -60.5t-110.5 -30.5q-82 0 -137.5 56t-55.5 140q0 87 61 149.5
t163 62.5zM246 611q-63 0 -94.5 -52.5t-31.5 -121.5q0 -74 35.5 -120.5t96.5 -46.5q58 0 100 40.5t42 99.5q0 81 -40.5 141t-107.5 60z" />
    <glyph glyph-name="colon" unicode=":" horiz-adv-x="190" 
d="M94 327q-22 0 -38 16t-16 39q0 22 16 38t38 16t38.5 -16t16.5 -38q0 -23 -16 -39t-39 -16zM95 -6q-22 0 -38 16.5t-16 38.5t16 38.5t38 16.5q23 0 39 -16t16 -39t-16 -39t-39 -16z" />
    <glyph glyph-name="semicolon" unicode=";" horiz-adv-x="175" 
d="M87 326q-23 0 -39 16t-16 39q0 22 16.5 38t38.5 16t38 -16t16 -38q0 -23 -16 -39t-38 -16zM74 -95l-13 14q15 13 25.5 31.5t10.5 30.5q0 17 -16 17q-22 0 -36.5 15t-14.5 37q0 24 16.5 39t39.5 15q29 0 44 -21t15 -53q0 -35 -19.5 -69.5t-51.5 -55.5z" />
    <glyph glyph-name="less" unicode="&#x3c;" horiz-adv-x="469" 
d="M50 268l369 175v-33l-331 -159l331 -159v-33l-369 175v34z" />
    <glyph glyph-name="equal" unicode="=" horiz-adv-x="470" 
d="M50 355h370v-27h-370v27zM50 175h370v-27h-370v27z" />
    <glyph glyph-name="greater" unicode="&#x3e;" horiz-adv-x="469" 
d="M419 268v-34l-369 -175v33l331 159l-331 159v33z" />
    <glyph glyph-name="question" unicode="?" horiz-adv-x="457" 
d="M35 474q0 -37 17.5 -61t43.5 -24q19 0 34 13t15 29q0 14 -10 39.5t-10 40.5q0 38 23 66t71 28q49 0 79.5 -29t30.5 -79q0 -32 -13.5 -59t-32.5 -49.5t-37 -49t-29 -68.5t-7 -97h33q3 42 17.5 75.5t34.5 54t42.5 41.5t41 38t31 44t12.5 60q0 68 -49 109t-135 41
q-91 0 -147 -46t-56 -117zM227 -6q-23 0 -39 16t-16 39t16 39t39 16q22 0 38 -16.5t16 -38.5t-16 -38.5t-38 -16.5z" />
    <glyph glyph-name="at" unicode="@" horiz-adv-x="707" 
d="M455 -72q-47 -11 -95 -11q-137 0 -233.5 94.5t-96.5 237.5q0 142 95.5 236.5t228.5 94.5q135 0 229 -90t94 -233q0 -90 -40.5 -142.5t-102.5 -52.5q-70 0 -91 80q-17 -30 -55 -55t-86 -25q-43 0 -74.5 23t-31.5 72q0 48 46 78.5t168 49.5q24 4 24 21q0 106 -75 106
q-38 0 -52.5 -11.5t-14.5 -40.5q0 -47 -38 -47q-36 0 -36 35q0 39 49.5 63t108.5 24q125 0 125 -134v-166q0 -21 9.5 -36.5t30.5 -15.5t35.5 15t20.5 39.5t8.5 45t2.5 41.5q0 139 -69 236.5t-185 97.5q-117 0 -185 -82t-68 -208q0 -128 76 -228.5t191 -100.5q55 0 83 7z
M336 98q40 0 69 29t29 69v37q0 16 -5.5 24t-20.5 6q-78 -10 -108 -38t-30 -59t17 -49.5t49 -18.5z" />
    <glyph glyph-name="A" unicode="A" horiz-adv-x="713" 
d="M599 119q24 -56 40.5 -74.5t53.5 -23.5v-21h-225v21q44 7 52 22.5t-7 44.5l-30 70q-17 31 -57 31h-194q-45 0 -61 -38l6 14l-31 -72q-25 -61 64 -72v-21h-190v21q35 7 54 22.5t35 50.5l193 451q20 46 20 76l57 6zM430 220q10 0 15 7t0 19l17 -39l-124 289q-11 23 -20 -1
l-110 -258q-1 -8 4 -12.5t14 -4.5h204zM210 245q0 -1 -1 -1z" />
    <glyph glyph-name="B" unicode="B" horiz-adv-x="615" 
d="M30 0v21q33 6 46.5 15.5t13.5 35.5v479q0 24 -13 33.5t-47 16.5v20h290q108 0 167 -36.5t59 -107.5q0 -112 -147 -146q88 -14 134.5 -55t46.5 -107q0 -75 -57 -122t-149 -47q-13 0 -86.5 3.5t-143 3.5t-114.5 -7zM243 348h74q137 0 137 125q0 121 -135 121h-76
q-32 0 -47 -9t-15 -34v-160q0 -25 14.5 -34t47.5 -9zM217 30h125q146 0 146 136q0 78 -54.5 116t-187.5 38q-34 0 -49.5 -9t-15.5 -34v-203q0 -44 36 -44z" />
    <glyph glyph-name="C" unicode="C" horiz-adv-x="640" 
d="M354 -10q-131 0 -227.5 87.5t-96.5 232.5q0 100 49 176t124.5 113.5t162.5 37.5q101 0 166.5 -50.5t65.5 -109.5q0 -27 -15.5 -44t-42.5 -17q-24 0 -39 16t-15 46q0 46 -38 86.5t-110 40.5q-96 0 -155 -65.5t-59 -178.5q0 -138 82.5 -223.5t204.5 -85.5q102 0 180 87
l14 -12q-27 -49 -91.5 -93t-159.5 -44z" />
    <glyph glyph-name="D" unicode="D" horiz-adv-x="641" 
d="M30 0v21q33 6 46.5 15.5t13.5 35.5v479q0 24 -13 33.5t-47 16.5v20h234q68 0 125.5 -15.5t106.5 -49t77 -95t28 -145.5q0 -80 -26 -141.5t-71.5 -98.5t-103 -55.5t-124.5 -18.5q-19 0 -70.5 2.5t-72.5 2.5q-44 0 -103 -7zM269 28q84 0 139 41t76.5 103t21.5 144
q0 60 -12.5 108.5t-40 87.5t-75.5 60.5t-113 21.5h-22q-32 0 -47 -9t-15 -34v-479q0 -44 88 -44z" />
    <glyph glyph-name="E" unicode="E" 
d="M30 0v21q33 6 46.5 15.5t13.5 35.5v477q0 26 -13 35.5t-47 16.5v20h454q14 0 15 -12q6 -52 20 -109h-19q-18 46 -48.5 67.5t-80.5 21.5h-128q-32 0 -47 -9t-15 -34v-171q0 -25 15 -34t47 -9h99q43 0 59 16t23 54h16v-173h-16q-7 37 -23 54t-59 17h-99q-32 0 -47 -9
t-15 -34v-181q0 -26 19.5 -35t74.5 -8l115 1q50 1 73 13.5t37 36.5l24 37h20q-23 -44 -30 -107q-2 -14 -16 -14h-468z" />
    <glyph glyph-name="F" unicode="F" horiz-adv-x="539" 
d="M30 0v21q33 6 46.5 15.5t13.5 35.5v477q0 26 -13 35.5t-47 16.5v20h454q14 0 15 -12q6 -52 20 -109h-19q-18 46 -48.5 67.5t-80.5 21.5h-128q-32 0 -47 -9t-15 -34v-171q0 -25 15 -34t47 -9h99q43 0 59 14.5t23 45.5h16v-153h-16q-7 31 -23.5 46t-58.5 15h-99
q-32 0 -47 -9t-15 -34v-185q0 -26 15 -35.5t56 -15.5v-21h-222z" />
    <glyph glyph-name="G" unicode="G" horiz-adv-x="663" 
d="M353 -10q-131 0 -227 88t-96 232q0 100 49 176t124.5 113.5t162.5 37.5q104 0 169 -49.5t65 -105.5q0 -26 -15.5 -42.5t-41.5 -16.5q-24 0 -39 13.5t-15 36.5q0 50 -38.5 91t-115.5 41q-94 0 -152.5 -66t-58.5 -180q0 -138 85.5 -233.5t208.5 -95.5q83 0 83 62v119
q0 33 -15 42t-72 14v17l234 1v-18q-42 -5 -52.5 -14t-10.5 -42v-211q-21 17 -46.5 19t-48.5 -5.5t-61.5 -15.5t-75.5 -8z" />
    <glyph glyph-name="H" unicode="H" horiz-adv-x="691" 
d="M661 601q-34 -7 -47 -16.5t-13 -35.5v-477q0 -26 13.5 -35.5t46.5 -15.5v-21h-212v21q34 6 47.5 15.5t13.5 35.5v186q0 34 -35 34h-259q-35 0 -35 -34v-186q0 -26 13.5 -35.5t47.5 -15.5v-21h-212v21q33 6 46.5 15.5t13.5 35.5v477q0 26 -13 35.5t-47 16.5v20h212v-20
q-34 -7 -47.5 -16.5t-13.5 -35.5v-191q0 -34 36 -34h257q36 0 36 34v191q0 26 -13.5 35.5t-47.5 16.5v20h212v-20z" />
    <glyph glyph-name="I" unicode="I" horiz-adv-x="272" 
d="M30 0v21q33 6 46.5 15.5t13.5 35.5v477q0 26 -13 35.5t-47 16.5v20h212v-20q-34 -7 -47.5 -16.5t-13.5 -35.5v-477q0 -26 13.5 -35.5t47.5 -15.5v-21h-212z" />
    <glyph glyph-name="J" unicode="J" horiz-adv-x="326" 
d="M99 -10q-58 0 -88.5 24.5t-30.5 58.5q0 24 12 38t35 14q43 0 43 -49q0 -23 9.5 -42t28.5 -19q17 0 26.5 18.5t9.5 47.5v468q0 26 -14.5 36t-55.5 16v20h222v-20q-34 -7 -47.5 -16.5t-13.5 -35.5v-417q0 -72 -35.5 -107t-100.5 -35z" />
    <glyph glyph-name="K" unicode="K" horiz-adv-x="642" 
d="M502 103q27 -33 50.5 -51t36 -22.5t33.5 -8.5v-21h-224v21q17 1 27.5 6t10.5 17.5t-15 30.5l-158 188q-24 30 -53 1l-10 -9q-18 -18 -19 -43v-140q0 -26 13.5 -35.5t47.5 -15.5v-21h-212v21q33 6 46.5 15.5t13.5 35.5v477q0 26 -13 35.5t-47 16.5v20h212v-20
q-34 -7 -47.5 -16.5t-13.5 -35.5v-275l258 264q21 20 17.5 34t-15.5 20.5t-30 8.5v20h188v-20q-63 -5 -126 -67l-158 -162q-8 -9 -8 -19t4 -16t14 -18z" />
    <glyph glyph-name="L" unicode="L" 
d="M30 0v21q33 6 46.5 15.5t13.5 35.5v477q0 26 -13 35.5t-47 16.5v20h212v-20q-34 -7 -47.5 -16.5t-13.5 -35.5v-477q0 -49 57 -48l156 8q75 4 110 62l17 30h23l-21 -63q-12 -35 -10 -61h-483z" />
    <glyph glyph-name="M" unicode="M" horiz-adv-x="820" 
d="M790 601q-34 -7 -47 -16.5t-13 -35.5v-477q0 -26 13.5 -35.5t46.5 -15.5v-21h-211v21q33 6 46.5 15.5t13.5 35.5v475l-235 -483h-30l-247 481v-473q0 -26 13 -35.5t46 -15.5v-21h-156v21q33 6 46.5 15.5t13.5 35.5v477q0 26 -13 35.5t-47 16.5v20h155l233 -455l221 455
h151v-20z" />
    <glyph glyph-name="N" unicode="N" horiz-adv-x="652" 
d="M466 621h156v-20q-34 -7 -47.5 -16.5t-13.5 -35.5v-549h-35l-399 523v-451q0 -26 13 -35.5t45 -15.5v-21h-155v21q33 6 46.5 15.5t13.5 35.5v477q0 26 -13 35.5t-47 16.5v20h131l364 -477v405q0 26 -13 35.5t-46 16.5v20z" />
    <glyph glyph-name="O" unicode="O" horiz-adv-x="701" 
d="M345 -10q-135 0 -225 90.5t-90 227.5q0 140 94 234.5t232 94.5q135 0 225 -90.5t90 -226.5q0 -141 -94 -235.5t-232 -94.5zM368 22q84 0 143.5 64.5t59.5 197.5q0 140 -69.5 230.5t-168.5 90.5q-84 0 -143.5 -64t-59.5 -196q0 -142 69.5 -232.5t168.5 -90.5z" />
    <glyph glyph-name="P" unicode="P" horiz-adv-x="582" 
d="M30 0v21q33 6 46.5 15.5t13.5 35.5v477q0 26 -13 35.5t-47 16.5v20h271q123 0 189.5 -49t66.5 -140q0 -92 -67 -143.5t-189 -51.5h-65q-30 0 -42.5 -12.5t-12.5 -40.5v-112q0 -26 15 -35.5t56 -15.5v-21h-222zM236 268h65q159 0 159 162q0 160 -159 160h-81q-19 0 -29 -9
t-10 -33v-227q0 -28 12.5 -40.5t42.5 -12.5z" />
    <glyph glyph-name="Q" unicode="Q" horiz-adv-x="701" 
d="M601 -2q21 0 31.5 -13.5t10.5 -35.5q0 -44 -39.5 -74t-93.5 -30q-65 0 -120 42l-140 107q-54 38 -83.5 28t-29.5 -59q0 -19 -12.5 -31.5t-30.5 -12.5q-19 0 -31.5 12t-12.5 35q0 32 26 57.5t68 35.5q-114 93 -114 249q0 140 94 234.5t232 94.5q135 0 225 -90.5t90 -226.5
q0 -138 -91.5 -232t-225.5 -98l102 -77q43 -32 65.5 -34.5t29 15.5t6.5 60q0 17 11.5 30.5t32.5 13.5zM333 605q-84 0 -143.5 -64t-59.5 -196q0 -142 69.5 -232.5t168.5 -90.5q84 0 143.5 64.5t59.5 197.5q0 140 -69.5 230.5t-168.5 90.5z" />
    <glyph glyph-name="R" unicode="R" horiz-adv-x="615" 
d="M30 0v21q33 6 46.5 15.5t13.5 35.5v477q0 26 -13 35.5t-47 16.5v20h272q116 0 176 -44t60 -124q0 -118 -140 -154q-3 -1 -4.5 -3t0 -3.5t4.5 -2.5q79 -22 106 -120q26 -86 44 -117.5t47 -31.5v-21h-27q-69 0 -103 37.5t-58 121.5q-20 67 -55 94.5t-98 27.5q-43 0 -58 -12
t-15 -41v-156q0 -26 15 -35.5t56 -15.5v-21h-222zM236 313h72q137 0 137 138q0 139 -140 139h-85q-19 0 -29 -9t-10 -33v-182q0 -28 12.5 -40.5t42.5 -12.5z" />
    <glyph glyph-name="S" unicode="S" horiz-adv-x="523" 
d="M242 -10q-105 0 -186 49q-21 53 -19.5 100.5t23.5 47.5q12 0 15 -12q25 -73 78.5 -113.5t124.5 -39.5q56 1 89 28t33 81q0 41 -25 69.5t-48 38.5t-80 28q-11 4 -17 6q-94 32 -144.5 77t-50.5 118q0 75 59.5 122t163.5 47q99 0 177 -46q21 -53 19.5 -100.5t-23.5 -47.5
q-11 0 -16 12q-24 72 -74 111.5t-112 39.5q-57 0 -84.5 -31.5t-27.5 -76.5q0 -56 37 -86t110 -55q103 -36 136 -56q88 -51 88 -138t-71.5 -130t-174.5 -43z" />
    <glyph glyph-name="T" unicode="T" horiz-adv-x="592" 
d="M170 0v21q48 6 64.5 15t16.5 36v469q0 28 -14.5 38t-67.5 10q-52 0 -76 -19.5t-45 -78.5h-23l16 133l57 -3h396l57 3l16 -133h-23q-20 59 -44.5 78.5t-76.5 19.5q-53 0 -67 -10t-14 -38v-469q0 -27 16.5 -36t63.5 -15v-21h-252z" />
    <glyph glyph-name="U" unicode="U" horiz-adv-x="654" 
d="M329 -10q-110 0 -177 66t-67 196v297q0 26 -13 35.5t-47 16.5v20h212v-20q-34 -7 -47.5 -16.5t-13.5 -35.5v-278q0 -119 45.5 -178.5t127.5 -59.5q79 0 130.5 54.5t51.5 177.5v284q0 25 -14.5 35t-49.5 17v20h162v-20q-34 -7 -48 -16.5t-14 -35.5v-291q0 -129 -62 -198.5
t-176 -69.5z" />
    <glyph glyph-name="V" unicode="V" horiz-adv-x="713" 
d="M331 0l-217 502q-24 57 -40.5 75t-53.5 23v21h225v-20q-44 -8 -52.5 -23.5t7.5 -44.5l175 -408q11 -23 20 1l171 402q26 61 -63 73v20h190v-20q-36 -8 -55 -23t-34 -50l-193 -451q-20 -47 -20 -77h-60z" />
    <glyph glyph-name="W" unicode="W" horiz-adv-x="1015" 
d="M310 0l-196 502q-21 55 -39 74t-55 24v21h220v-20q-44 -8 -51.5 -23t6.5 -45l155 -402q10 -24 20 0l98 254q19 51 -6 117q-22 56 -39.5 74.5t-54.5 23.5v21h219v-20q-44 -8 -51.5 -23t7.5 -45l154 -402q10 -24 20 0l152 397q12 32 -3.5 49.5t-59.5 23.5v20h189v-20
q-37 -8 -56 -23t-33 -50l-174 -451q-19 -52 -19 -77h-56l-151 390l-121 -313q-20 -54 -20 -77h-55z" />
    <glyph glyph-name="X" unicode="X" horiz-adv-x="675" 
d="M537 119q41 -56 62.5 -75t55.5 -23v-21h-221v21q33 4 39.5 15t-14.5 43l-139 190q-142 -177 -142 -221q0 -24 36 -27v-21h-194v21q39 3 85 41.5t143 162.5l54 68l-154 210q-42 57 -62.5 76t-54.5 22v20h221v-20q-34 -4 -40.5 -15.5t15.5 -43.5l134 -183q141 177 134 219
q-3 20 -36 23v20h194v-20q-38 -3 -82.5 -41.5t-142.5 -163.5l-49 -62z" />
    <glyph glyph-name="Y" unicode="Y" horiz-adv-x="636" 
d="M193 0v21q47 6 63.5 15t16.5 36v170q0 23 -21 57l-131 207q-30 47 -52.5 66.5t-53.5 28.5v20h222v-20q-39 -8 -44.5 -24.5t15.5 -47.5l130 -206q7 -9 14 0l123 202q19 27 14.5 43.5t-17 23t-35.5 9.5v20h184v-20q-35 -4 -58 -21.5t-52 -63.5l-133 -213q-14 -23 -14 -61
v-170q0 -27 16.5 -36t63.5 -15v-21h-251z" />
    <glyph glyph-name="Z" unicode="Z" horiz-adv-x="573" 
d="M15 0l415 595l-211 -1q-71 0 -102 -23.5t-50 -74.5h-23l20 125h489l-417 -595l244 2q64 1 94.5 23t55.5 70h23l-26 -121h-512z" />
    <glyph glyph-name="bracketleft" unicode="[" horiz-adv-x="260" 
d="M117 715v-837l97 -19q21 -3 21 -16v-9l-190 9v907l190 9v-9q0 -12 -21 -16z" />
    <glyph glyph-name="backslash" unicode="\" horiz-adv-x="379" 
d="M344 0h-42l-267 641h42z" />
    <glyph glyph-name="bracketright" unicode="]" horiz-adv-x="260" 
d="M143 715l-97 19q-21 4 -21 16v9l190 -9v-907l-190 -9v9q0 13 21 16l97 19v837z" />
    <glyph glyph-name="asciicircum" unicode="^" horiz-adv-x="424" 
d="M203 675q11 13 18 0l147 -197q8 -11 6 -19t-11 -8h-14q-9 0 -26 20l-111 121l-110 -122q-17 -19 -26 -19h-15q-8 0 -10.5 8t5.5 19z" />
    <glyph glyph-name="underscore" unicode="_" horiz-adv-x="612" 
d="M50 -20h512v-22h-512v22z" />
    <glyph glyph-name="grave" unicode="`" horiz-adv-x="287" 
d="M233 557l-99 105q-35 37 -62 8q-12 -10 -6.5 -29.5t30.5 -34.5l117 -71q22 -13 29 -3q6 11 -9 25z" />
    <glyph glyph-name="a" unicode="a" horiz-adv-x="489" 
d="M160 -6q-55 0 -92.5 27.5t-37.5 82.5q0 63 63.5 103.5t222.5 58.5q23 2 23 27v21q0 55 -28 87.5t-85 32.5q-79 0 -79 -74q0 -52 -44 -52q-19 0 -29.5 12t-10.5 32q0 49 60.5 78.5t138.5 29.5q85 0 121 -39.5t36 -124.5v-224q0 -52 50 -40v-19q-27 -18 -62 -18
q-67 0 -68 72q0 4 -2.5 6t-6 0t-6.5 -6q-27 -34 -71.5 -53.5t-92.5 -19.5zM210 40q51 0 90 32t39 74v60q0 20 -8 28.5t-32 5.5q-182 -22 -182 -112q0 -37 24 -62.5t69 -25.5z" />
    <glyph glyph-name="b" unicode="b" horiz-adv-x="541" 
d="M88 -6q-13 0 -13 14v547q0 35 -12.5 48t-52.5 9v19l110 24q35 8 35 -28v-218q0 -8 5.5 -10t13.5 6q16 20 55.5 37.5t84.5 17.5q84 0 140.5 -62t56.5 -163q0 -112 -63.5 -176.5t-152.5 -64.5q-36 0 -69.5 12t-55.5 24.5t-31 12.5q-14 0 -28 -24.5t-23 -24.5zM300 21
q61 0 95 47t34 126q0 90 -44 150.5t-114 60.5q-45 0 -80.5 -26t-35.5 -85v-126q0 -71 45 -109t100 -38z" />
    <glyph glyph-name="c" unicode="c" horiz-adv-x="483" 
d="M266 -6q-97 0 -166.5 64t-69.5 166q0 107 73 171.5t174 64.5q73 0 118.5 -37t45.5 -82q0 -20 -12 -33t-32 -13q-19 0 -32 11t-13 33q0 39 -24.5 68t-74.5 29q-63 0 -102 -47.5t-39 -126.5q0 -97 56.5 -155t140.5 -58q77 0 123 56l16 -13q-19 -35 -66.5 -66.5
t-115.5 -31.5z" />
    <glyph glyph-name="d" unicode="d" horiz-adv-x="546" 
d="M466 73q0 -53 65 -34v-21q-36 -23 -75 -23q-35 0 -52.5 17t-17.5 59v1q-64 -78 -158 -78q-84 0 -141 62.5t-57 163.5q0 111 64 175.5t154 64.5q25 0 50.5 -5.5t39.5 -11t26 -8.5t17 2.5t5 21.5v96q0 35 -12.5 48t-52.5 9v19l110 24q35 8 35 -28v-554zM273 49
q44 0 78.5 24.5t34.5 78.5v142q0 67 -45 103t-102 36q-59 0 -93 -47.5t-34 -126.5q0 -91 44.5 -150.5t116.5 -59.5z" />
    <glyph glyph-name="e" unicode="e" horiz-adv-x="476" 
d="M426 105l17 -13q-19 -35 -67 -66.5t-115 -31.5q-97 0 -164 64t-67 168q0 107 69 170.5t165 63.5q78 0 127.5 -42t49.5 -105q0 -46 -41 -63.5t-141 -19.5l-117 -2q-26 0 -21 -37q18 -66 67.5 -104t116.5 -38q77 0 121 56zM248 436q-59 0 -93.5 -38t-40.5 -105
q-1 -25 6 -33.5t24 -8.5l88 2q70 1 98.5 17.5t28.5 52.5q0 51 -29 82t-82 31z" />
    <glyph glyph-name="f" unicode="f" horiz-adv-x="360" 
d="M252 672q59 0 93.5 -27t34.5 -62q0 -20 -13 -29.5t-30 -9.5q-20 0 -30.5 16.5t-13 36t-16 36t-40.5 16.5q-43 0 -58 -35t-15 -109v-28q0 -26 20 -26h109v-27h-109q-20 0 -20 -21v-329q0 -27 14.5 -38t53.5 -16v-20h-212v20q36 5 50 16t14 38v329q0 21 -22 21h-42v19
q34 4 49 11t15 23v13q0 88 47.5 135t120.5 47z" />
    <glyph glyph-name="g" unicode="g" horiz-adv-x="507" 
d="M147 159q-39 0 -39 -29q0 -26 46 -33l160 -28q77 -13 114 -35t37 -65q0 -69 -80 -114t-180 -45q-83 0 -136.5 33t-53.5 90q0 62 73 95q14 7 14 8.5t-6 2.5q-27 5 -43.5 24t-16.5 45q0 54 81 69q-72 41 -72 127q0 70 49 113t135 43q113 0 161 -70q3 68 57 68q21 0 33 -10
t12 -27q0 -20 -15.5 -29t-33.5 -3q-18 7 -23.5 -9t-5.5 -73q0 -71 -48 -113.5t-130 -42.5q-20 0 -48 4t-41 4zM213 438q-44 0 -63.5 -31.5t-19.5 -77.5q0 -69 31.5 -112.5t83.5 -43.5q44 0 64 32t20 77q0 69 -31.5 112.5t-84.5 43.5zM199 19q-48 8 -76.5 -14t-28.5 -60
q0 -47 42 -77.5t111 -30.5q59 0 100 28.5t41 79.5q0 23 -20 36t-65 21z" />
    <glyph glyph-name="h" unicode="h" horiz-adv-x="544" 
d="M474 72q0 -52 50 -40v-19q-31 -18 -64 -18q-66 0 -66 68v213q0 57 -31 94.5t-82 37.5q-53 0 -87 -38t-34 -94v-202q0 -27 14 -38t51 -16v-20h-209v20q36 5 50 16t14 38v481q0 35 -12.5 48t-52.5 9v19l110 24q35 8 35 -28v-199q0 -45 15 -42l8 5l9 9q10 10 16 15.5t20 15
t27 15t32.5 10t40.5 4.5q62 0 104 -40.5t42 -122.5v-225z" />
    <glyph glyph-name="i" unicode="i" horiz-adv-x="260" 
d="M121 568q-20 0 -35 15.5t-15 35.5t15 35t35 15t35 -15t15 -35t-15 -35.5t-35 -15.5zM26 0v20q36 5 50 16t14 38v283q0 35 -12.5 48t-52.5 9v19l110 25q35 8 35 -29v-355q0 -27 14 -38t51 -16v-20h-209z" />
    <glyph glyph-name="j" unicode="j" horiz-adv-x="229" 
d="M114 568q-20 0 -35 15.5t-15 35.5t15 35t35 15t35 -15t15 -35t-15 -35.5t-35 -15.5zM36 -200q-38 0 -66 16t-28 46q0 18 10.5 29t29.5 11q14 0 25 -11.5t17.5 -25t15.5 -25t20 -11.5t17.5 15t6.5 37v476q0 35 -12.5 48t-52.5 9v19l110 25q35 8 35 -29v-491
q0 -65 -35 -101.5t-93 -36.5z" />
    <glyph glyph-name="k" unicode="k" horiz-adv-x="509" 
d="M429 68q15 -20 27.5 -30t20.5 -12t32 -6v-20h-187v20q28 4 31.5 12t-11.5 29l-119 166q-9 11 -26 -3q-37 -33 -37 -61v-89q0 -27 14 -38t51 -16v-20h-209v20q36 5 50 16t14 38v481q0 35 -12.5 48t-52.5 9v19l110 24q35 8 35 -28v-364q0 -14 8 -18.5t18 3.5l156 142
q9 9 9.5 17.5t-11.5 15t-34 8.5v20h160v-20q-13 -1 -23 -3.5t-19.5 -8t-13 -7.5t-15.5 -12.5t-15 -13.5l-110 -98z" />
    <glyph glyph-name="l" unicode="l" horiz-adv-x="235" 
d="M145 -5q-35 0 -52.5 17t-17.5 59v484q0 35 -12.5 48t-52.5 9v19l110 24q35 8 35 -28v-554q0 -53 65 -34v-21q-36 -23 -75 -23z" />
    <glyph glyph-name="m" unicode="m" horiz-adv-x="824" 
d="M754 73q0 -53 50 -39v-21q-33 -18 -64 -18q-66 0 -66 68v213q0 60 -26.5 97t-76.5 37q-48 0 -78.5 -38.5t-30.5 -95.5v-202q0 -27 14 -38t50 -16v-20h-208v20q36 5 50 16t14 38v202q0 60 -26 97t-77 37q-48 0 -78.5 -38.5t-30.5 -95.5v-202q0 -27 14 -38t51 -16v-20h-209
v20q36 5 50 16t14 38v281q0 36 -12.5 49t-52.5 9v20l110 25q35 8 35 -30q0 -45 15 -42l8 5q1 1 6 7t9 10t11.5 11t14.5 12t18 11t21.5 9.5t24.5 6t28 2.5q70 0 107 -53q12 -19 20.5 -22.5t19.5 5.5l12 12t21 18.5t26.5 18t38 16t44.5 5.5q61 0 100 -40t39 -123v-224z" />
    <glyph glyph-name="n" unicode="n" horiz-adv-x="554" 
d="M470 -5q-66 0 -66 68v213q0 60 -29.5 97t-83.5 37q-53 0 -87 -38.5t-34 -95.5v-202q0 -27 14 -38t51 -16v-20h-209v20q36 5 50 16t14 38v283q0 35 -12.5 48t-52.5 9v19l110 25q35 8 35 -30q0 -45 15 -42l8 5q64 69 145 69q62 0 104 -40.5t42 -122.5v-225q0 -52 50 -40
v-19q-31 -18 -64 -18z" />
    <glyph glyph-name="o" unicode="o" horiz-adv-x="527" 
d="M262 -6q-95 0 -163.5 64t-68.5 168q0 105 69 169.5t166 64.5q96 0 164 -63.5t68 -167.5q0 -105 -69 -170t-166 -65zM286 21q57 0 92 44.5t35 129.5q0 98 -49 168t-123 70q-57 0 -92 -44t-35 -130q0 -98 49.5 -168t122.5 -70z" />
    <glyph glyph-name="p" unicode="p" horiz-adv-x="556" 
d="M329 460q84 0 140.5 -62t56.5 -163q0 -112 -63.5 -176.5t-152.5 -64.5q-27 0 -53 6.5t-40.5 13.5t-26 11t-16 -0.5t-4.5 -21.5v-119q0 -27 14 -38.5t51 -15.5v-20h-209v20q36 4 50 15.5t14 38.5v473q0 35 -12.5 48t-52.5 9v19l110 25q35 8 35 -29v-20q0 -8 5.5 -10
t13.5 6q16 20 55 37.5t85 17.5zM316 21q60 0 94 47t34 126q0 90 -44 150.5t-112 60.5q-47 0 -82.5 -26t-35.5 -85v-126q0 -71 45 -109t101 -38z" />
    <glyph glyph-name="q" unicode="q" horiz-adv-x="530" 
d="M322 -190v20q36 4 50 15.5t14 38.5v161q0 7 -5 9t-13 -6q-18 -20 -55 -37t-83 -17q-86 0 -143 61.5t-57 162.5q0 112 64 177t155 65q47 0 97 -24.5t56 -24.5q14 0 28 24t23 24q13 0 13 -14v-561q0 -27 14 -38.5t50 -15.5v-20h-208zM272 49q44 0 79 26t35 85v131
q0 69 -44.5 105.5t-100.5 36.5q-60 0 -94.5 -47.5t-34.5 -126.5q0 -91 44 -150.5t116 -59.5z" />
    <glyph glyph-name="r" unicode="r" horiz-adv-x="430" 
d="M26 0v20q36 5 50 16t14 38v283q0 35 -12.5 48t-52.5 9v19l110 25q35 8 35 -30q0 -39 10 -39q5 0 11 6q65 65 132 65q51 0 71.5 -25.5t20.5 -54.5q0 -22 -13 -35.5t-33 -13.5q-19 0 -30.5 10.5t-11.5 24.5q0 20 -13.5 34t-37.5 14q-44 0 -75 -42.5t-31 -110.5v-187
q0 -27 14.5 -38t52.5 -16v-20h-211z" />
    <glyph glyph-name="s" unicode="s" horiz-adv-x="417" 
d="M195 -6q-69 0 -119.5 29.5t-50.5 83.5q0 48 39 48q17 0 27.5 -10.5t10.5 -22.5q0 -51 35 -77.5t81 -26.5q45 0 68.5 21t23.5 59q0 17 -8 31t-17 22.5t-30 18t-31.5 13t-37.5 11.5q-30 9 -52.5 19.5t-46 26.5t-36.5 39.5t-13 53.5q0 57 47.5 92t124.5 35q68 0 116.5 -27.5
t48.5 -74.5q0 -45 -43 -45q-34 0 -34 35q0 38 -30 63t-72 25q-80 0 -80 -71q0 -41 25.5 -60.5t80.5 -37.5q91 -29 122 -52q47 -35 48 -88q0 -59 -56 -96t-141 -37z" />
    <glyph glyph-name="t" unicode="t" horiz-adv-x="300" 
d="M194 -5q-115 0 -115 134v274q0 21 -22 21h-42v19q51 9 79 35t38 77h27v-78q0 -26 20 -26h90v-27h-90q-20 0 -20 -21v-286q0 -90 59 -90q31 0 51 15l11 -19q-33 -28 -86 -28z" />
    <glyph glyph-name="u" unicode="u" horiz-adv-x="559" 
d="M236 -6q-62 0 -104 40.5t-42 121.5v201q0 35 -12.5 48t-52.5 9v19l110 25q35 8 35 -29v-252q0 -60 30 -97t84 -37q52 0 86 39t34 95v180q0 35 -12.5 48t-52.5 9v19l110 25q35 8 35 -29v-357q0 -52 50 -40v-19q-27 -18 -63 -18q-61 0 -69 60q-2 13 -10 13q-3 0 -11 -8
q-17 -17 -26 -25.5t-44.5 -24.5t-74.5 -16z" />
    <glyph glyph-name="v" unicode="v" horiz-adv-x="518" 
d="M226 0l-136 338q-19 48 -33.5 64.5t-46.5 28.5v20h199v-20q-41 -12 -46.5 -28t13.5 -65l94 -230q4 -12 10 -12t11 12l50 126q33 83 39 123.5t-5 52.5t-45 21v20h178v-20q-44 -12 -62 -29t-37 -64l-136 -338h-47z" />
    <glyph glyph-name="w" unicode="w" horiz-adv-x="754" 
d="M223 0l-133 338q-18 48 -32.5 64.5t-47.5 28.5v20h197v-20q-41 -12 -46.5 -28t14.5 -65l89 -230q5 -12 11.5 -12t11.5 12l37 104q29 84 5 145q-12 31 -27.5 46.5t-46.5 27.5v20h196v-20q-40 -12 -45.5 -28t13.5 -65l90 -230q5 -12 12 -12t11 12l44 126q24 66 33.5 101.5
t6 55.5t-13.5 26.5t-36 13.5v20h178v-20q-44 -12 -61.5 -29t-36.5 -64l-133 -338h-46l-100 254l-99 -254h-45z" />
    <glyph glyph-name="x" unicode="x" horiz-adv-x="495" 
d="M480 431q-46 -12 -71.5 -31t-68.5 -74l-62 -80l96 -135q31 -43 53 -62t53 -29v-20h-201v20q27 7 34 18.5t0.5 26.5t-28.5 46l-53 75q-35 -47 -53 -76t-20.5 -47.5t6.5 -27.5t31 -15v-20h-181v20q46 12 72 31.5t69 73.5l62 81l-95 134q-30 42 -52.5 61.5t-54.5 29.5v20
h201v-20q-27 -7 -34 -18t-0.5 -26.5t29.5 -46.5l52 -74q47 61 63 94.5t8.5 48t-36.5 22.5v20h181v-20z" />
    <glyph glyph-name="y" unicode="y" horiz-adv-x="523" 
d="M119 -198q-37 0 -58.5 17t-21.5 44q0 22 14.5 35.5t36.5 13.5q19 0 28 -11.5t10 -25.5t6.5 -25.5t19.5 -11.5q31 0 60 76q23 57 -4 129l-120 295q-19 48 -33.5 64.5t-46.5 28.5v20h199v-20q-41 -12 -46.5 -28t14.5 -65l96 -235q5 -9 11 -9t10 9l51 131q33 83 39.5 123.5
t-4.5 52.5t-44 21v20h177v-20q-43 -12 -61 -29t-37 -64l-168 -415q-26 -63 -51.5 -92t-76.5 -29z" />
    <glyph glyph-name="z" unicode="z" horiz-adv-x="441" 
d="M15 0l295 421h-164q-36 0 -56 -19t-34 -60h-20l18 109h372l-294 -420h168q35 0 55.5 19.5t33.5 58.5h21l-18 -109h-377z" />
    <glyph glyph-name="braceleft" unicode="{" horiz-adv-x="264" 
d="M181 43q0 -78 12.5 -121.5t45.5 -60.5l-13 -27q-48 19 -75 53.5t-34.5 69.5t-7.5 86v181q0 22 -12 32.5t-52 28.5v21q40 18 52 28.5t12 32.5v181q0 51 7.5 86t34.5 69.5t75 53.5l13 -27q-33 -17 -45.5 -60.5t-12.5 -121.5v-187q0 -40 -72 -64v-3q36 -12 54 -26t18 -37
v-188z" />
    <glyph glyph-name="bar" unicode="|" horiz-adv-x="227" 
d="M100 800h27v-1015h-27v1015z" />
    <glyph glyph-name="braceright" unicode="}" horiz-adv-x="264" 
d="M84 43v188q0 23 18 37t53 26v3q-71 24 -71 64v187q0 77 -13 121t-46 61l13 27q48 -19 75 -53.5t34.5 -69.5t7.5 -86v-181q0 -22 12 -32.5t52 -28.5v-21q-40 -18 -52 -28.5t-12 -32.5v-181q0 -51 -7.5 -86t-34.5 -69.5t-75 -53.5l-13 27q33 17 46 61t13 121z" />
    <glyph glyph-name="asciitilde" unicode="~" horiz-adv-x="487" 
d="M437 300h-24q0 -25 -14 -38.5t-34 -13.5q-22 0 -91.5 35.5t-116.5 35.5q-46 0 -76.5 -31t-30.5 -88h24q0 25 14 38.5t34 13.5q21 0 90.5 -35.5t117.5 -35.5q47 0 77 31t30 88z" />
    <glyph glyph-name="exclamdown" unicode="&#xa1;" horiz-adv-x="206" 
d="M103 456q22 0 38 -16.5t16 -38.5t-16 -38t-38 -16q-23 0 -38.5 15.5t-15.5 38.5t16 39t38 16zM89 267h27q2 -96 23.5 -218t21.5 -162q0 -34 -15.5 -54t-42.5 -20q-28 0 -43 19.5t-15 54.5q0 40 21 162t23 218z" />
    <glyph glyph-name="cent" unicode="&#xa2;" horiz-adv-x="483" 
d="M432 105l16 -13q-19 -35 -66.5 -66.5t-115.5 -31.5q-40 0 -77 12l-18 -67h-21l20 74q-63 26 -101.5 81t-38.5 130q0 107 73 171.5t174 64.5h15l16 59h21l-17 -62q58 -9 93.5 -43t35.5 -73q0 -20 -12 -33t-32 -13q-19 0 -32 11t-13 33q0 61 -49 86l-95 -349
q45 -27 101 -27q77 0 123 56zM112 262q0 -114 78 -174l94 344q-12 4 -31 4q-63 0 -102 -47.5t-39 -126.5z" />
    <glyph glyph-name="sterling" unicode="&#xa3;" horiz-adv-x="535" 
d="M479 63q-9 -47 3 -63h-442v56q53 31 78 58t25 64q0 17 -7 43h-96v20h89q-7 19 -30.5 65t-36.5 84t-13 75q0 78 59 125t160 47q105 0 156 -51.5t51 -119.5q0 -37 -16.5 -61.5t-43.5 -24.5q-18 0 -31.5 10t-13.5 33q0 10 7.5 27.5t7.5 39.5q0 49 -32.5 85t-86.5 36
q-60 0 -91.5 -37.5t-31.5 -88.5q0 -48 37.5 -128.5t43.5 -115.5h178v-20h-176v-7q0 -53 -31 -82.5t-92 -59.5h246q57 0 83 15t43 58h20z" />
    <glyph glyph-name="currency" unicode="&#xa4;" horiz-adv-x="540" 
d="M476 228q0 -75 -47 -133l61 -61l-28 -28l-62 60q-57 -47 -130 -47q-75 0 -131 47l-60 -60l-29 28l61 60q-48 58 -48 134t47 132l-60 58l29 30l59 -60q56 48 132 48q74 0 132 -48l60 60l28 -30l-60 -59q46 -57 46 -131zM269 58q68 0 117.5 50.5t49.5 119.5
q0 70 -49.5 119.5t-117.5 49.5q-70 0 -117.5 -49.5t-47.5 -119.5t47.5 -120t117.5 -50z" />
    <glyph glyph-name="yen" unicode="&#xa5;" horiz-adv-x="636" 
d="M437 621h184v-20q-35 -4 -58 -21.5t-52 -63.5l-133 -213q-7 -11 -10 -25h154v-19h-157q-1 -5 -1 -17v-44h158v-20h-158v-106q0 -27 16.5 -36t63.5 -15v-21h-251v21q47 6 63.5 15t16.5 36v106h-157v20h157v44q0 7 -2 17h-155v19h148q-4 9 -12 21l-131 207
q-30 47 -52.5 66.5t-53.5 28.5v20h222v-20q-39 -8 -44.5 -24.5t15.5 -47.5l130 -206q7 -9 14 0l123 202q19 27 14.5 43.5t-17 23t-35.5 9.5v20z" />
    <glyph glyph-name="brokenbar" unicode="&#xa6;" horiz-adv-x="227" 
d="M100 451v349h27v-349h-27zM100 -215v349h27v-349h-27z" />
    <glyph glyph-name="section" unicode="&#xa7;" horiz-adv-x="485" 
d="M359 87q88 -48 88 -130q0 -79 -65 -118t-158 -39q-97 0 -170 45q-19 47 -17.5 90.5t21.5 43.5q10 0 14 -11q24 -66 72.5 -103t111.5 -36q51 1 80.5 25.5t29.5 73.5q0 14 -2 25.5t-8.5 21.5t-11 17.5t-16.5 15t-17.5 11.5t-22.5 11t-23 9t-26.5 9t-25.5 9
q-85 30 -131.5 70.5t-46.5 106.5q0 84 85 116q-82 51 -82 134q0 68 54 110.5t149 42.5q92 0 159 -42q19 -47 18 -90.5t-21 -43.5q-11 0 -13 11q-22 66 -68 101.5t-102 35.5q-52 0 -77 -28.5t-25 -69.5q0 -51 34 -78.5t100 -49.5q99 -34 134 -57q70 -45 70 -119
q0 -87 -91 -120zM110 261q0 -51 33 -77.5t101 -50.5q73 -26 89 -33q36 25 36 78q0 28 -10.5 49t-33 35t-43 22t-54.5 19q-9 3 -13 4q-44 15 -73 31q-32 -26 -32 -77z" />
    <glyph glyph-name="dieresis" unicode="&#xa8;" horiz-adv-x="384" 
d="M100 568q-20 0 -35 15.5t-15 35.5t15 35t35 15t35 -15t15 -35t-15 -35.5t-35 -15.5zM284 568q-20 0 -35 15.5t-15 35.5t15 35t35 15t35 -15t15 -35t-15 -35.5t-35 -15.5z" />
    <glyph glyph-name="copyright" unicode="&#xa9;" horiz-adv-x="720" 
d="M360 -10q-141 0 -235.5 92.5t-94.5 231.5q0 138 94.5 230.5t235.5 92.5t235.5 -92.5t94.5 -230.5q0 -139 -94.5 -231.5t-235.5 -92.5zM360 17q129 0 215.5 85t86.5 212q0 126 -86.5 211.5t-215.5 85.5t-215 -85.5t-86 -211.5q0 -127 86 -212t215 -85zM369 123
q-80 0 -137 49.5t-57 135.5q0 89 59 138t139 49q62 0 104 -30.5t42 -69.5q0 -20 -11 -34.5t-35 -14.5q-22 0 -34.5 14t-12.5 31q0 79 -65 79q-43 0 -67.5 -33.5t-24.5 -93.5q0 -75 42.5 -121t106.5 -46q52 0 85 41l17 -13q-15 -30 -53.5 -55.5t-97.5 -25.5z" />
    <glyph glyph-name="ordfeminine" unicode="&#xaa;" horiz-adv-x="358" 
d="M129 334q-39 -1 -62.5 16.5t-23.5 52.5q0 39 37.5 62t145.5 38v14q0 85 -63 85q-16 0 -25.5 -2.5t-13 -9t-4.5 -11t-1 -14.5q0 -20 -6 -29.5t-26 -9.5q-28 0 -28 26q0 30 34.5 49t82.5 19q105 0 105 -102v-125q0 -18 9 -25t23 0v-19q-30 -12 -59.5 2t-27.5 47
q-10 -24 -37 -43.5t-60 -20.5zM143 363q31 0 57 27t26 57v38q-41 -6 -68 -16t-38.5 -22t-15 -21.5t-3.5 -21.5q0 -19 11.5 -30t30.5 -11zM54 243v27h249v-27h-249z" />
    <glyph glyph-name="guillemotleft" unicode="&#xab;" horiz-adv-x="398" 
d="M50 297l138 121l14 -11l-78 -110l78 -111l-14 -11zM196 297l138 121l14 -11l-78 -110l78 -111l-14 -11z" />
    <glyph glyph-name="logicalnot" unicode="&#xac;" horiz-adv-x="527" 
d="M477 369v-226h-27v199h-400v27h427z" />
    <glyph glyph-name="uni00AD" unicode="&#xad;" horiz-adv-x="370" 
d="M50 275h270v-26h-270v26z" />
    <glyph glyph-name="registered" unicode="&#xae;" horiz-adv-x="720" 
d="M360 -10q-141 0 -235.5 92.5t-94.5 231.5q0 138 94.5 230.5t235.5 92.5t235.5 -92.5t94.5 -230.5q0 -139 -94.5 -231.5t-235.5 -92.5zM360 17q129 0 215.5 85t86.5 212q0 126 -86.5 211.5t-215.5 85.5t-215 -85.5t-86 -211.5q0 -127 86 -212t215 -85zM497 222
q7 -26 11.5 -39t15 -26.5t23.5 -13.5v-18h-32q-42 0 -63.5 23t-40.5 80q-20 60 -73 60q-29 0 -39.5 -7.5t-10.5 -24.5v-76q0 -31 40 -37v-18h-149v18q39 6 39 37v267q0 31 -39 37v18h191q68 0 108 -27t40 -76q0 -70 -93 -94q-3 -1 -3 -3.5t3 -3.5q54 -13 72 -76zM367 315
q78 0 78 83q0 77 -70 77h-60q-27 0 -27 -28v-100q0 -17 7.5 -24.5t26.5 -7.5h45z" />
    <glyph glyph-name="macron" unicode="&#xaf;" horiz-adv-x="439" 
d="M58 610q0 14 16 14h291q16 0 16 -14v-9q0 -14 -16 -14h-291q-16 0 -16 14v9z" />
    <glyph glyph-name="degree" unicode="&#xb0;" horiz-adv-x="276" 
d="M138 427q-46 0 -77 30.5t-31 74.5t30.5 74.5t77.5 30.5t77.5 -30.5t30.5 -74.5t-31 -74.5t-77 -30.5zM138 457q30 0 51 21.5t21 53.5t-21 53.5t-51 21.5t-51 -21t-21 -54t21 -54t51 -21z" />
    <glyph glyph-name="plusminus" unicode="&#xb1;" horiz-adv-x="470" 
d="M249 366h171v-27h-171v-172h-27v172h-172v27h172v172h27v-172zM50 0v27h370v-27h-370z" />
    <glyph glyph-name="uni00B2" unicode="&#xb2;" horiz-adv-x="290" 
d="M40 387q7 32 24 57.5t32 37.5t38 26q15 9 23.5 15.5t15.5 17.5t7 24q0 20 -10.5 33.5t-28.5 13.5q-32 0 -39 -28q-2 -11 0.5 -22t1.5 -16q-10 -22 -33.5 -15t-23.5 23q-2 37 24 62t72 25q45 0 69 -20.5t24 -55.5q0 -11 -4 -21t-8 -16.5t-14 -14.5t-14.5 -11t-18.5 -11
t-16 -9l-6 -3q-58 -34 -64 -52h104q16 0 21 8l9 13h25l-10 -47q-3 -14 -21 -14h-179z" />
    <glyph glyph-name="uni00B3" unicode="&#xb3;" horiz-adv-x="278" 
d="M137 383q-45 0 -73.5 24t-28.5 55q0 24 25 24q15 0 21 -5.5t8 -20t3 -17.5q6 -19 16 -26t30 -7q18 0 31.5 15t13.5 40q0 35 -22.5 42.5t-48.5 -7.5l-10 24l24 11q41 15 41 44q0 35 -32 35q-27 0 -37 -21t-4 -42l-35 6q-12 5 -12 14q-1 31 23 51t64 20q38 0 61.5 -19.5
t23.5 -41.5q0 -27 -22 -43q17 -8 29 -25t12 -41q0 -37 -29.5 -63t-71.5 -26z" />
    <glyph glyph-name="acute" unicode="&#xb4;" horiz-adv-x="281" 
d="M61 557q-14 -14 -8 -25q6 -9 29 3l117 71q25 15 30.5 34.5t-6.5 29.5q-28 30 -63 -8z" />
    <glyph glyph-name="paragraph" unicode="&#xb6;" horiz-adv-x="737" 
d="M707 601q-34 -7 -47 -16.5t-13 -35.5v-570q0 -26 13 -35.5t47 -16.5v-20h-414v20q34 7 47.5 16.5t13.5 35.5v185q0 28 -12.5 40.5t-42.5 12.5h-39q-108 0 -169 56t-61 149t60.5 146t169.5 53h447v-20zM556 -21v570q0 52 -56 52q-55 0 -55 -52v-570q0 -52 55 -52
q56 0 56 52z" />
    <glyph glyph-name="periodcentered" unicode="&#xb7;" horiz-adv-x="209" 
d="M104 243q-22 0 -38 16t-16 39q0 22 16 38t38 16t38.5 -16t16.5 -38q0 -23 -16 -39t-39 -16z" />
    <glyph glyph-name="cedilla" unicode="&#xb8;" horiz-adv-x="248" 
d="M120 -208q-49 0 -77 18.5t-28 44.5q0 24 19.5 32t38.5 -9q0 -66 44 -66q27 0 43.5 21t16.5 49q0 23 -13 38t-35 15q-12 0 -26.5 -5t-19.5 -5q-11 0 -14 7.5t3 18.5l24 49h53l-23 -48q39 10 73 -11.5t34 -60.5q0 -40 -33.5 -64t-79.5 -24z" />
    <glyph glyph-name="uni00B9" unicode="&#xb9;" horiz-adv-x="171" 
d="M32 392v21q29 2 29 18v168l-31 -10v26l56 25q24 10 26 -15v-194q0 -16 29 -18v-21h-109z" />
    <glyph glyph-name="ordmasculine" unicode="&#xba;" horiz-adv-x="356" 
d="M178 335q-56 0 -95.5 39t-39.5 103q0 65 39.5 103.5t95.5 39.5q57 1 96.5 -38.5t39.5 -104.5q0 -64 -39.5 -103t-96.5 -39zM191 355q30 0 48.5 26.5t18.5 76.5q0 59 -27 100.5t-64 41.5q-30 0 -49 -27.5t-19 -78.5q0 -57 27 -98t65 -41zM54 243v27h249v-27h-249z" />
    <glyph glyph-name="guillemotright" unicode="&#xbb;" horiz-adv-x="398" 
d="M202 297l-139 -122l-13 11l78 111l-78 110l13 11zM348 297l-139 -122l-13 11l78 111l-78 110l13 11z" />
    <glyph glyph-name="onequarter" unicode="&#xbc;" horiz-adv-x="581" 
d="M61 431v168l-31 -10v26l56 25q24 10 26 -15v-194q0 -16 29 -18v-21h-109v21q29 2 29 18zM447 636h54l-432 -641h-54zM541 66h-35v-31q0 -18 25 -18v-23h-101v23q24 0 24 18v31h-103v30l119 149q9 11 22.5 7t13.5 -16v-140h35v-30zM396 96h58v74z" />
    <glyph glyph-name="onehalf" unicode="&#xbd;" horiz-adv-x="615" 
d="M32 392v21q29 2 29 18v168l-31 -10v26l56 25q24 10 26 -15v-194q0 -16 29 -18v-21h-109zM15 -5l432 641h54l-432 -641h-54zM366 -6q7 32 24 57.5t32 37.5t38 26q15 9 23.5 15.5t15.5 17.5t7 24q0 20 -10.5 33.5t-28.5 13.5q-32 0 -39 -28q-2 -11 0.5 -22t1.5 -16
q-10 -22 -33.5 -15t-23.5 23q-2 37 24 62t72 25q45 0 69 -20.5t24 -55.5q0 -11 -4 -21t-8 -16.5t-14 -14.5t-14.5 -11t-18.5 -11t-16 -9l-6 -3q-58 -34 -64 -52h104q16 0 21 8l9 13h25l-10 -47q-3 -14 -21 -14h-179z" />
    <glyph glyph-name="threequarters" unicode="&#xbe;" horiz-adv-x="701" 
d="M238 472q0 -37 -29.5 -63t-71.5 -26q-45 0 -73.5 24t-28.5 55q0 24 25 24q15 0 21 -5.5t8 -20t3 -17.5q6 -19 16 -26t30 -7q18 0 31.5 15t13.5 40q0 35 -22.5 42.5t-48.5 -7.5l-10 24l24 11q41 15 41 44q0 35 -32 35q-27 0 -37 -21t-4 -42l-35 6q-12 5 -12 14
q-1 31 23 51t64 20q38 0 61.5 -19.5t23.5 -41.5q0 -27 -22 -43q17 -8 29 -25t12 -41zM562 636h54l-432 -641h-54zM661 66h-35v-31q0 -18 25 -18v-23h-101v23q24 0 24 18v31h-103v30l120 149q9 11 22 7t13 -16v-140h35v-30zM516 96h58v74z" />
    <glyph glyph-name="questiondown" unicode="&#xbf;" horiz-adv-x="457" 
d="M231 559q22 0 38 -16.5t16 -38.5t-16 -38t-38 -16q-23 0 -39 16t-16 38t16 38.5t39 16.5zM422 80q0 36 -17.5 60t-42.5 24q-20 0 -35 -13t-15 -29q0 -14 10.5 -39.5t10.5 -40.5q0 -38 -23.5 -66t-70.5 -28q-49 0 -80 29t-31 79q0 32 13.5 59.5t32.5 50t37 48.5t29 68.5
t7 96.5h-33q-4 -49 -23.5 -86.5t-45 -61t-51 -45t-42.5 -51.5t-17 -69q0 -68 49.5 -109t135.5 -41q91 0 146.5 46t55.5 118z" />
    <glyph glyph-name="Agrave" unicode="&#xc0;" horiz-adv-x="713" 
d="M246 776q-25 15 -30.5 34.5t6.5 29.5q27 29 62 -8l99 -105q15 -14 9 -25q-7 -10 -29 3zM599 119q24 -56 40.5 -74.5t53.5 -23.5v-21h-225v21q44 7 52 22.5t-7 44.5l-30 70q-17 31 -57 31h-194q-45 0 -61 -38l6 14l-31 -72q-25 -61 64 -72v-21h-190v21q35 7 54 22.5
t35 50.5l193 451q20 46 20 76l57 6zM430 220q10 0 15 7t0 19l17 -39l-124 289q-11 23 -20 -1l-110 -258q-1 -8 4 -12.5t14 -4.5h204zM210 245q0 -1 -1 -1z" />
    <glyph glyph-name="Aacute" unicode="&#xc1;" horiz-adv-x="713" 
d="M347 705q-23 -12 -29 -3q-6 11 8 25l99 105q35 38 63 8q12 -10 6.5 -29.5t-30.5 -34.5zM599 119q24 -56 40.5 -74.5t53.5 -23.5v-21h-225v21q44 7 52 22.5t-7 44.5l-30 70q-17 31 -57 31h-194q-45 0 -61 -38l6 14l-31 -72q-25 -61 64 -72v-21h-190v21q35 7 54 22.5
t35 50.5l193 451q20 46 20 76l57 6zM430 220q10 0 15 7t0 19l17 -39l-124 289q-11 23 -20 -1l-110 -258q-1 -8 4 -12.5t14 -4.5h204zM210 245q0 -1 -1 -1z" />
    <glyph glyph-name="Acircumflex" unicode="&#xc2;" horiz-adv-x="713" 
d="M347 784l-111 -78l-11 14l122 138l121 -138l-11 -14zM599 119q24 -56 40.5 -74.5t53.5 -23.5v-21h-225v21q44 7 52 22.5t-7 44.5l-30 70q-17 31 -57 31h-194q-45 0 -61 -38l6 14l-31 -72q-25 -61 64 -72v-21h-190v21q35 7 54 22.5t35 50.5l193 451q20 46 20 76l57 6z
M430 220q10 0 15 7t0 19l17 -39l-124 289q-11 23 -20 -1l-110 -258q-1 -8 4 -12.5t14 -4.5h204zM210 245q0 -1 -1 -1z" />
    <glyph glyph-name="Atilde" unicode="&#xc3;" horiz-adv-x="713" 
d="M237 783q-17 0 -29.5 -12t-12.5 -34h-22q0 50 27.5 77.5t68.5 27.5q42 0 104.5 -31.5t82.5 -31.5q18 0 30 12.5t12 33.5h22q0 -50 -27.5 -77.5t-68.5 -27.5q-43 0 -105.5 31.5t-81.5 31.5zM599 119q24 -56 40.5 -74.5t53.5 -23.5v-21h-225v21q44 7 52 22.5t-7 44.5
l-30 70q-17 31 -57 31h-194q-45 0 -61 -38l6 14l-31 -72q-25 -61 64 -72v-21h-190v21q35 7 54 22.5t35 50.5l193 451q20 46 20 76l57 6zM430 220q10 0 15 7t0 19l17 -39l-124 289q-11 23 -20 -1l-110 -258q-1 -8 4 -12.5t14 -4.5h204zM210 245q0 -1 -1 -1z" />
    <glyph glyph-name="Adieresis" unicode="&#xc4;" horiz-adv-x="713" 
d="M254 738q-20 0 -35 15.5t-15 35.5t15 35t35 15t35 -15t15 -35t-15 -35.5t-35 -15.5zM438 738q-20 0 -35 15.5t-15 35.5t15 35t35 15t35 -15t15 -35t-15 -35.5t-35 -15.5zM599 119q24 -56 40.5 -74.5t53.5 -23.5v-21h-225v21q44 7 52 22.5t-7 44.5l-30 70q-17 31 -57 31
h-194q-45 0 -61 -38l6 14l-31 -72q-25 -61 64 -72v-21h-190v21q35 7 54 22.5t35 50.5l193 451q20 46 20 76l57 6zM430 220q10 0 15 7t0 19l17 -39l-124 289q-11 23 -20 -1l-110 -258q-1 -8 4 -12.5t14 -4.5h204zM210 245q0 -1 -1 -1z" />
    <glyph glyph-name="Aring" unicode="&#xc5;" horiz-adv-x="713" 
d="M346 721q-38 0 -63 26t-25 61q0 37 25 62t63 25t63.5 -25.5t25.5 -61.5q0 -35 -25.5 -61t-63.5 -26zM346 859q-21 0 -35 -14.5t-14 -36.5q0 -23 14 -37t35 -14t35 14t14 37q0 22 -14 36.5t-35 14.5zM599 119q24 -56 40.5 -74.5t53.5 -23.5v-21h-225v21q44 7 52 22.5
t-7 44.5l-30 70q-17 31 -57 31h-194q-45 0 -61 -38l6 14l-31 -72q-25 -61 64 -72v-21h-190v21q35 7 54 22.5t35 50.5l193 451q20 46 20 76l57 6zM430 220q10 0 15 7t0 19l17 -39l-124 289q-11 23 -20 -1l-110 -258q-1 -8 4 -12.5t14 -4.5h204zM210 245q0 -1 -1 -1z" />
    <glyph glyph-name="AE" unicode="&#xc6;" horiz-adv-x="940" 
d="M901 121h19q-23 -44 -30 -107q-2 -14 -16 -14h-467v21q33 6 46.5 15.5t13.5 35.5v115h-216q-38 0 -50 -21l-43 -68q-39 -65 53 -77v-21h-191v21q35 7 56.5 24t44.5 55l271 428q12 18 17.5 34.5t5.5 26t-5 11.5q-1 1 -3 1h1h-1v20h453q15 0 16 -12q6 -51 19 -109h-19
q-18 46 -48 67.5t-80 21.5h-128q-33 0 -47.5 -9t-14.5 -34v-171q0 -25 14.5 -34t47.5 -9h98q43 0 59.5 16.5t23.5 53.5h15v-173h-15q-7 37 -23.5 54t-59.5 17h-98q-33 0 -47.5 -9t-14.5 -34v-181q0 -26 19 -35t75 -8l114 1q51 1 74 13.5t37 36.5zM271 219h196v330
q0 29 -18 39q9 -17 -21 -63l-181 -288q-6 -9 2.5 -13.5t21.5 -4.5z" />
    <glyph glyph-name="Ccedilla" unicode="&#xc7;" horiz-adv-x="640" 
d="M354 -10h-2l-18 -38q39 10 73 -11.5t34 -60.5q0 -40 -33.5 -64t-79.5 -24q-49 0 -77 18.5t-28 44.5q0 24 19.5 32t38.5 -9q0 -66 44 -66q27 0 43.5 21t16.5 49q0 23 -13 38t-35 15q-12 0 -26.5 -5t-19.5 -5q-11 0 -14 7.5t3 18.5l21 43q-115 17 -193 102t-78 214
q0 100 49 176t124.5 113.5t162.5 37.5q101 0 166.5 -50.5t65.5 -109.5q0 -27 -15.5 -44t-42.5 -17q-24 0 -39 16t-15 46q0 46 -38 86.5t-110 40.5q-96 0 -155 -65.5t-59 -178.5q0 -138 82.5 -223.5t204.5 -85.5q102 0 180 87l14 -12q-27 -49 -91.5 -93t-159.5 -44z" />
    <glyph glyph-name="Egrave" unicode="&#xc8;" 
d="M320 727l-99 105q-35 37 -62 8q-12 -10 -6.5 -29.5t30.5 -34.5l117 -71q22 -13 29 -3q6 11 -9 25zM30 0v21q33 6 46.5 15.5t13.5 35.5v477q0 26 -13 35.5t-47 16.5v20h454q14 0 15 -12q6 -52 20 -109h-19q-18 46 -48.5 67.5t-80.5 21.5h-128q-32 0 -47 -9t-15 -34v-171
q0 -25 15 -34t47 -9h99q43 0 59 16t23 54h16v-173h-16q-7 37 -23 54t-59 17h-99q-32 0 -47 -9t-15 -34v-181q0 -26 19.5 -35t74.5 -8l115 1q50 1 73 13.5t37 36.5l24 37h20q-23 -44 -30 -107q-2 -14 -16 -14h-468z" />
    <glyph glyph-name="Eacute" unicode="&#xc9;" 
d="M263 727q-14 -14 -8 -25q6 -9 29 3l117 71q25 15 30.5 34.5t-6.5 29.5q-28 30 -63 -8zM30 0v21q33 6 46.5 15.5t13.5 35.5v477q0 26 -13 35.5t-47 16.5v20h454q14 0 15 -12q6 -52 20 -109h-19q-18 46 -48.5 67.5t-80.5 21.5h-128q-32 0 -47 -9t-15 -34v-171q0 -25 15 -34
t47 -9h99q43 0 59 16t23 54h16v-173h-16q-7 37 -23 54t-59 17h-99q-32 0 -47 -9t-15 -34v-181q0 -26 19.5 -35t74.5 -8l115 1q50 1 73 13.5t37 36.5l24 37h20q-23 -44 -30 -107q-2 -14 -16 -14h-468z" />
    <glyph glyph-name="Ecircumflex" unicode="&#xca;" 
d="M284 858l121 -138l-11 -14l-110 78l-111 -78l-11 14zM30 0v21q33 6 46.5 15.5t13.5 35.5v477q0 26 -13 35.5t-47 16.5v20h454q14 0 15 -12q6 -52 20 -109h-19q-18 46 -48.5 67.5t-80.5 21.5h-128q-32 0 -47 -9t-15 -34v-171q0 -25 15 -34t47 -9h99q43 0 59 16t23 54h16
v-173h-16q-7 37 -23 54t-59 17h-99q-32 0 -47 -9t-15 -34v-181q0 -26 19.5 -35t74.5 -8l115 1q50 1 73 13.5t37 36.5l24 37h20q-23 -44 -30 -107q-2 -14 -16 -14h-468z" />
    <glyph glyph-name="Edieresis" unicode="&#xcb;" 
d="M192 738q-20 0 -35 15.5t-15 35.5t15 35t35 15t35 -15t15 -35t-15 -35.5t-35 -15.5zM376 738q-20 0 -35 15.5t-15 35.5t15 35t35 15t35 -15t15 -35t-15 -35.5t-35 -15.5zM30 0v21q33 6 46.5 15.5t13.5 35.5v477q0 26 -13 35.5t-47 16.5v20h454q14 0 15 -12q6 -52 20 -109
h-19q-18 46 -48.5 67.5t-80.5 21.5h-128q-32 0 -47 -9t-15 -34v-171q0 -25 15 -34t47 -9h99q43 0 59 16t23 54h16v-173h-16q-7 37 -23 54t-59 17h-99q-32 0 -47 -9t-15 -34v-181q0 -26 19.5 -35t74.5 -8l115 1q50 1 73 13.5t37 36.5l24 37h20q-23 -44 -30 -107
q-2 -14 -16 -14h-468z" />
    <glyph glyph-name="Igrave" unicode="&#xcc;" horiz-adv-x="272" 
d="M171 727l-99 105q-35 37 -62 8q-12 -10 -7 -29.5t31 -34.5l117 -71q22 -13 29 -3q6 11 -9 25zM30 0v21q33 6 46.5 15.5t13.5 35.5v477q0 26 -13 35.5t-47 16.5v20h212v-20q-34 -7 -47.5 -16.5t-13.5 -35.5v-477q0 -26 13.5 -35.5t47.5 -15.5v-21h-212z" />
    <glyph glyph-name="Iacute" unicode="&#xcd;" horiz-adv-x="272" 
d="M114 727q-14 -14 -8 -25q6 -9 29 3l117 71q25 15 30.5 34.5t-6.5 29.5q-28 30 -63 -8zM30 0v21q33 6 46.5 15.5t13.5 35.5v477q0 26 -13 35.5t-47 16.5v20h212v-20q-34 -7 -47.5 -16.5t-13.5 -35.5v-477q0 -26 13.5 -35.5t47.5 -15.5v-21h-212z" />
    <glyph glyph-name="Icircumflex" unicode="&#xce;" horiz-adv-x="272" 
d="M135 858l121 -138l-11 -14l-110 78l-111 -78l-11 14zM30 0v21q33 6 46.5 15.5t13.5 35.5v477q0 26 -13 35.5t-47 16.5v20h212v-20q-34 -7 -47.5 -16.5t-13.5 -35.5v-477q0 -26 13.5 -35.5t47.5 -15.5v-21h-212z" />
    <glyph glyph-name="Idieresis" unicode="&#xcf;" horiz-adv-x="272" 
d="M43 738q-20 0 -35 15.5t-15 35.5t15 35t35 15t35 -15t15 -35t-15 -35.5t-35 -15.5zM227 738q-20 0 -35 15.5t-15 35.5t15 35t35 15t35 -15t15 -35t-15 -35.5t-35 -15.5zM30 0v21q33 6 46.5 15.5t13.5 35.5v477q0 26 -13 35.5t-47 16.5v20h212v-20q-34 -7 -47.5 -16.5
t-13.5 -35.5v-477q0 -26 13.5 -35.5t47.5 -15.5v-21h-212z" />
    <glyph glyph-name="Eth" unicode="&#xd0;" horiz-adv-x="641" 
d="M264 621q68 0 125.5 -15.5t106.5 -49t77 -95t28 -145.5q0 -80 -26 -141.5t-71.5 -98.5t-103 -55.5t-124.5 -18.5q-19 0 -70.5 2.5t-72.5 2.5q-44 0 -103 -7v21q33 6 46.5 15.5t13.5 35.5v227h-59v23h59v229q0 24 -13 33.5t-47 16.5v20h234zM269 28q84 0 139 41t76.5 103
t21.5 144q0 60 -12.5 108.5t-40 87.5t-75.5 60.5t-113 21.5h-22q-32 0 -47 -9t-15 -34v-229h123v-23h-123v-227q0 -44 88 -44z" />
    <glyph glyph-name="Ntilde" unicode="&#xd1;" horiz-adv-x="652" 
d="M216 783q-17 0 -29.5 -12t-12.5 -34h-22q0 50 27.5 77.5t68.5 27.5q42 0 104.5 -31.5t82.5 -31.5q17 0 29.5 12.5t12.5 33.5h22q0 -50 -27.5 -77.5t-68.5 -27.5q-43 0 -105.5 31.5t-81.5 31.5zM466 621h156v-20q-34 -7 -47.5 -16.5t-13.5 -35.5v-549h-35l-399 523v-451
q0 -26 13 -35.5t45 -15.5v-21h-155v21q33 6 46.5 15.5t13.5 35.5v477q0 26 -13 35.5t-47 16.5v20h131l364 -477v405q0 26 -13 35.5t-46 16.5v20z" />
    <glyph glyph-name="Ograve" unicode="&#xd2;" horiz-adv-x="701" 
d="M377 727l-99 105q-35 37 -62 8q-12 -10 -6.5 -29.5t30.5 -34.5l117 -71q22 -13 29 -3q6 11 -9 25zM345 -10q-135 0 -225 90.5t-90 227.5q0 140 94 234.5t232 94.5q135 0 225 -90.5t90 -226.5q0 -141 -94 -235.5t-232 -94.5zM368 22q84 0 143.5 64.5t59.5 197.5
q0 140 -69.5 230.5t-168.5 90.5q-84 0 -143.5 -64t-59.5 -196q0 -142 69.5 -232.5t168.5 -90.5z" />
    <glyph glyph-name="Oacute" unicode="&#xd3;" horiz-adv-x="701" 
d="M320 727q-14 -14 -8 -25q6 -9 29 3l117 71q25 15 30.5 34.5t-6.5 29.5q-28 30 -63 -8zM345 -10q-135 0 -225 90.5t-90 227.5q0 140 94 234.5t232 94.5q135 0 225 -90.5t90 -226.5q0 -141 -94 -235.5t-232 -94.5zM368 22q84 0 143.5 64.5t59.5 197.5q0 140 -69.5 230.5
t-168.5 90.5q-84 0 -143.5 -64t-59.5 -196q0 -142 69.5 -232.5t168.5 -90.5z" />
    <glyph glyph-name="Ocircumflex" unicode="&#xd4;" horiz-adv-x="701" 
d="M341 858l121 -138l-11 -14l-110 78l-111 -78l-11 14zM345 -10q-135 0 -225 90.5t-90 227.5q0 140 94 234.5t232 94.5q135 0 225 -90.5t90 -226.5q0 -141 -94 -235.5t-232 -94.5zM368 22q84 0 143.5 64.5t59.5 197.5q0 140 -69.5 230.5t-168.5 90.5q-84 0 -143.5 -64
t-59.5 -196q0 -142 69.5 -232.5t168.5 -90.5z" />
    <glyph glyph-name="Otilde" unicode="&#xd5;" horiz-adv-x="701" 
d="M418 720q-43 0 -105.5 31.5t-81.5 31.5q-17 0 -29.5 -12t-12.5 -34h-22q0 50 27.5 77.5t68.5 27.5q42 0 104.5 -31.5t82.5 -31.5q18 0 30 12.5t12 33.5h22q0 -50 -27.5 -77.5t-68.5 -27.5zM345 -10q-135 0 -225 90.5t-90 227.5q0 140 94 234.5t232 94.5q135 0 225 -90.5
t90 -226.5q0 -141 -94 -235.5t-232 -94.5zM368 22q84 0 143.5 64.5t59.5 197.5q0 140 -69.5 230.5t-168.5 90.5q-84 0 -143.5 -64t-59.5 -196q0 -142 69.5 -232.5t168.5 -90.5z" />
    <glyph glyph-name="Odieresis" unicode="&#xd6;" horiz-adv-x="701" 
d="M249 738q-20 0 -35 15.5t-15 35.5t15 35t35 15t35 -15t15 -35t-15 -35.5t-35 -15.5zM433 738q-20 0 -35 15.5t-15 35.5t15 35t35 15t35 -15t15 -35t-15 -35.5t-35 -15.5zM345 -10q-135 0 -225 90.5t-90 227.5q0 140 94 234.5t232 94.5q135 0 225 -90.5t90 -226.5
q0 -141 -94 -235.5t-232 -94.5zM368 22q84 0 143.5 64.5t59.5 197.5q0 140 -69.5 230.5t-168.5 90.5q-84 0 -143.5 -64t-59.5 -196q0 -142 69.5 -232.5t168.5 -90.5z" />
    <glyph glyph-name="multiply" unicode="&#xd7;" horiz-adv-x="381" 
d="M331 374l-122 -122l121 -122l-18 -19l-122 122l-121 -121l-19 18l122 122l-122 121l18 19l122 -122l122 122z" />
    <glyph glyph-name="Oslash" unicode="&#xd8;" horiz-adv-x="701" 
d="M568 559q103 -92 103 -239q0 -141 -94 -235.5t-232 -94.5q-111 0 -194 64l-41 -50l-14 11l41 50q-107 92 -107 243q0 140 94 234.5t232 94.5q113 0 198 -67l38 46l14 -11zM130 345q0 -129 59 -217l316 382q-70 95 -172 95q-84 0 -143.5 -64t-59.5 -196zM368 22
q84 0 143.5 64.5t59.5 197.5q0 123 -56 211l-315 -382q67 -91 168 -91z" />
    <glyph glyph-name="Ugrave" unicode="&#xd9;" horiz-adv-x="654" 
d="M379 727l-99 105q-35 37 -62 8q-12 -10 -6.5 -29.5t30.5 -34.5l117 -71q22 -13 29 -3q6 11 -9 25zM329 -10q-110 0 -177 66t-67 196v297q0 26 -13 35.5t-47 16.5v20h212v-20q-34 -7 -47.5 -16.5t-13.5 -35.5v-278q0 -119 45.5 -178.5t127.5 -59.5q79 0 130.5 54.5
t51.5 177.5v284q0 25 -14.5 35t-49.5 17v20h162v-20q-34 -7 -48 -16.5t-14 -35.5v-291q0 -129 -62 -198.5t-176 -69.5z" />
    <glyph glyph-name="Uacute" unicode="&#xda;" horiz-adv-x="654" 
d="M322 727q-14 -14 -8 -25q6 -9 29 3l117 71q25 15 30.5 34.5t-6.5 29.5q-28 30 -63 -8zM329 -10q-110 0 -177 66t-67 196v297q0 26 -13 35.5t-47 16.5v20h212v-20q-34 -7 -47.5 -16.5t-13.5 -35.5v-278q0 -119 45.5 -178.5t127.5 -59.5q79 0 130.5 54.5t51.5 177.5v284
q0 25 -14.5 35t-49.5 17v20h162v-20q-34 -7 -48 -16.5t-14 -35.5v-291q0 -129 -62 -198.5t-176 -69.5z" />
    <glyph glyph-name="Ucircumflex" unicode="&#xdb;" horiz-adv-x="654" 
d="M343 858l121 -138l-11 -14l-110 78l-111 -78l-11 14zM329 -10q-110 0 -177 66t-67 196v297q0 26 -13 35.5t-47 16.5v20h212v-20q-34 -7 -47.5 -16.5t-13.5 -35.5v-278q0 -119 45.5 -178.5t127.5 -59.5q79 0 130.5 54.5t51.5 177.5v284q0 25 -14.5 35t-49.5 17v20h162v-20
q-34 -7 -48 -16.5t-14 -35.5v-291q0 -129 -62 -198.5t-176 -69.5z" />
    <glyph glyph-name="Udieresis" unicode="&#xdc;" horiz-adv-x="654" 
d="M251 738q-20 0 -35 15.5t-15 35.5t15 35t35 15t35 -15t15 -35t-15 -35.5t-35 -15.5zM435 738q-20 0 -35 15.5t-15 35.5t15 35t35 15t35 -15t15 -35t-15 -35.5t-35 -15.5zM329 -10q-110 0 -177 66t-67 196v297q0 26 -13 35.5t-47 16.5v20h212v-20q-34 -7 -47.5 -16.5
t-13.5 -35.5v-278q0 -119 45.5 -178.5t127.5 -59.5q79 0 130.5 54.5t51.5 177.5v284q0 25 -14.5 35t-49.5 17v20h162v-20q-34 -7 -48 -16.5t-14 -35.5v-291q0 -129 -62 -198.5t-176 -69.5z" />
    <glyph glyph-name="Yacute" unicode="&#xdd;" horiz-adv-x="636" 
d="M298 727q-14 -14 -8 -25q6 -9 29 3l117 71q25 15 30.5 34.5t-6.5 29.5q-28 30 -63 -8zM193 0v21q47 6 63.5 15t16.5 36v170q0 23 -21 57l-131 207q-30 47 -52.5 66.5t-53.5 28.5v20h222v-20q-39 -8 -44.5 -24.5t15.5 -47.5l130 -206q7 -9 14 0l123 202q19 27 14.5 43.5
t-17 23t-35.5 9.5v20h184v-20q-35 -4 -58 -21.5t-52 -63.5l-133 -213q-14 -23 -14 -61v-170q0 -27 16.5 -36t63.5 -15v-21h-251z" />
    <glyph glyph-name="Thorn" unicode="&#xde;" horiz-adv-x="583" 
d="M301 505q122 0 189.5 -52t67.5 -142q0 -89 -67.5 -141t-189.5 -52h-65q-29 0 -41.5 -11.5t-13.5 -37.5q1 -24 14.5 -33t46.5 -15v-21h-212v21q33 6 46.5 15.5t13.5 35.5v477q0 26 -13 35.5t-47 16.5v20h212v-20q-22 -5 -33 -8.5t-19 -13.5t-9 -26q1 -48 55 -48h65z
M301 149q159 0 159 162t-159 162h-65q-30 0 -42.5 -12.5t-12.5 -40.5v-218q0 -28 12.5 -40.5t42.5 -12.5h65z" />
    <glyph glyph-name="germandbls" unicode="&#xdf;" horiz-adv-x="549" 
d="M356 342q66 -7 112 -49.5t46 -111.5q0 -82 -70.5 -132t-191.5 -50v28q174 4 174 155q0 64 -37.5 103t-136.5 39v27q55 0 95.5 31.5t40.5 101.5q0 51 -27.5 89t-95.5 38q-101 0 -101 -155v-385q0 -42 -17 -59t-52 -17q-39 0 -75 23v21q64 -19 64 34v384q0 82 57 131
t146 49q87 0 135 -44.5t48 -108.5q0 -100 -114 -142z" />
    <glyph glyph-name="agrave" unicode="&#xe0;" horiz-adv-x="489" 
d="M277 557l-99 105q-35 37 -62 8q-12 -10 -6.5 -29.5t30.5 -34.5l117 -71q22 -13 29 -3q6 11 -9 25zM160 -6q-55 0 -92.5 27.5t-37.5 82.5q0 63 63.5 103.5t222.5 58.5q23 2 23 27v21q0 55 -28 87.5t-85 32.5q-79 0 -79 -74q0 -52 -44 -52q-19 0 -29.5 12t-10.5 32
q0 49 60.5 78.5t138.5 29.5q85 0 121 -39.5t36 -124.5v-224q0 -52 50 -40v-19q-27 -18 -62 -18q-67 0 -68 72q0 4 -2.5 6t-6 0t-6.5 -6q-27 -34 -71.5 -53.5t-92.5 -19.5zM210 40q51 0 90 32t39 74v60q0 20 -8 28.5t-32 5.5q-182 -22 -182 -112q0 -37 24 -62.5t69 -25.5z
" />
    <glyph glyph-name="aacute" unicode="&#xe1;" horiz-adv-x="489" 
d="M220 557q-14 -14 -8 -25q6 -9 29 3l117 71q25 15 30.5 34.5t-6.5 29.5q-28 30 -63 -8zM160 -6q-55 0 -92.5 27.5t-37.5 82.5q0 63 63.5 103.5t222.5 58.5q23 2 23 27v21q0 55 -28 87.5t-85 32.5q-79 0 -79 -74q0 -52 -44 -52q-19 0 -29.5 12t-10.5 32q0 49 60.5 78.5
t138.5 29.5q85 0 121 -39.5t36 -124.5v-224q0 -52 50 -40v-19q-27 -18 -62 -18q-67 0 -68 72q0 4 -2.5 6t-6 0t-6.5 -6q-27 -34 -71.5 -53.5t-92.5 -19.5zM210 40q51 0 90 32t39 74v60q0 20 -8 28.5t-32 5.5q-182 -22 -182 -112q0 -37 24 -62.5t69 -25.5z" />
    <glyph glyph-name="acircumflex" unicode="&#xe2;" horiz-adv-x="489" 
d="M241 688l121 -138l-11 -14l-110 78l-111 -78l-11 14zM160 -6q-55 0 -92.5 27.5t-37.5 82.5q0 63 63.5 103.5t222.5 58.5q23 2 23 27v21q0 55 -28 87.5t-85 32.5q-79 0 -79 -74q0 -52 -44 -52q-19 0 -29.5 12t-10.5 32q0 49 60.5 78.5t138.5 29.5q85 0 121 -39.5
t36 -124.5v-224q0 -52 50 -40v-19q-27 -18 -62 -18q-67 0 -68 72q0 4 -2.5 6t-6 0t-6.5 -6q-27 -34 -71.5 -53.5t-92.5 -19.5zM210 40q51 0 90 32t39 74v60q0 20 -8 28.5t-32 5.5q-182 -22 -182 -112q0 -37 24 -62.5t69 -25.5z" />
    <glyph glyph-name="atilde" unicode="&#xe3;" horiz-adv-x="489" 
d="M318 550q-43 0 -105.5 31.5t-81.5 31.5q-17 0 -29.5 -12t-12.5 -34h-22q0 50 27.5 77.5t68.5 27.5q42 0 104.5 -31.5t82.5 -31.5q18 0 30 12.5t12 33.5h22q0 -50 -27.5 -77.5t-68.5 -27.5zM160 -6q-55 0 -92.5 27.5t-37.5 82.5q0 63 63.5 103.5t222.5 58.5q23 2 23 27v21
q0 55 -28 87.5t-85 32.5q-79 0 -79 -74q0 -52 -44 -52q-19 0 -29.5 12t-10.5 32q0 49 60.5 78.5t138.5 29.5q85 0 121 -39.5t36 -124.5v-224q0 -52 50 -40v-19q-27 -18 -62 -18q-67 0 -68 72q0 4 -2.5 6t-6 0t-6.5 -6q-27 -34 -71.5 -53.5t-92.5 -19.5zM210 40q51 0 90 32
t39 74v60q0 20 -8 28.5t-32 5.5q-182 -22 -182 -112q0 -37 24 -62.5t69 -25.5z" />
    <glyph glyph-name="adieresis" unicode="&#xe4;" horiz-adv-x="489" 
d="M148 568q-20 0 -35 15.5t-15 35.5t15 35t35 15t35 -15t15 -35t-15 -35.5t-35 -15.5zM332 568q-20 0 -35 15.5t-15 35.5t15 35t35 15t35 -15t15 -35t-15 -35.5t-35 -15.5zM160 -6q-55 0 -92.5 27.5t-37.5 82.5q0 63 63.5 103.5t222.5 58.5q23 2 23 27v21q0 55 -28 87.5
t-85 32.5q-79 0 -79 -74q0 -52 -44 -52q-19 0 -29.5 12t-10.5 32q0 49 60.5 78.5t138.5 29.5q85 0 121 -39.5t36 -124.5v-224q0 -52 50 -40v-19q-27 -18 -62 -18q-67 0 -68 72q0 4 -2.5 6t-6 0t-6.5 -6q-27 -34 -71.5 -53.5t-92.5 -19.5zM210 40q51 0 90 32t39 74v60
q0 20 -8 28.5t-32 5.5q-182 -22 -182 -112q0 -37 24 -62.5t69 -25.5z" />
    <glyph glyph-name="aring" unicode="&#xe5;" horiz-adv-x="489" 
d="M240 551q-38 0 -63 26t-25 61q0 37 25 62t63 25t63.5 -25.5t25.5 -61.5q0 -35 -25.5 -61t-63.5 -26zM240 587q21 0 35 14t14 37q0 22 -14 36.5t-35 14.5t-35 -14.5t-14 -36.5q0 -23 14 -37t35 -14zM160 -6q-55 0 -92.5 27.5t-37.5 82.5q0 63 63.5 103.5t222.5 58.5
q23 2 23 27v21q0 55 -28 87.5t-85 32.5q-79 0 -79 -74q0 -52 -44 -52q-19 0 -29.5 12t-10.5 32q0 49 60.5 78.5t138.5 29.5q85 0 121 -39.5t36 -124.5v-224q0 -52 50 -40v-19q-27 -18 -62 -18q-67 0 -68 72q0 4 -2.5 6t-6 0t-6.5 -6q-27 -34 -71.5 -53.5t-92.5 -19.5z
M210 40q51 0 90 32t39 74v60q0 20 -8 28.5t-32 5.5q-182 -22 -182 -112q0 -37 24 -62.5t69 -25.5z" />
    <glyph glyph-name="ae" unicode="&#xe6;" horiz-adv-x="785" 
d="M735 105l17 -13q-19 -35 -67 -66.5t-115 -31.5q-108 0 -175 76q-6 5 -12 9t-11 5t-9.5 1.5t-8.5 -1t-7 -2t-6.5 -3.5t-5 -4.5l-4.5 -4.5l-3 -3q-29 -34 -74 -53.5t-94 -19.5q-55 0 -92.5 27.5t-37.5 82.5q0 63 63.5 103.5t222.5 58.5q23 2 23 27v21q0 55 -28 87.5
t-85 32.5q-79 0 -79 -74q0 -52 -44 -52q-19 0 -29.5 12t-10.5 32q0 49 60.5 78.5t138.5 29.5q108 0 138 -71q69 71 173 71q78 0 127.5 -42t49.5 -105q0 -46 -41 -63.5t-141 -19.5l-117 -2q-26 0 -21 -37q18 -66 67.5 -104t116.5 -38q77 0 121 56zM557 436q-59 0 -93.5 -38
t-40.5 -105q-1 -25 6 -33.5t24 -8.5l88 2q70 1 98.5 17.5t28.5 52.5q0 51 -29 82t-82 31zM339 146v60q0 20 -8 28.5t-32 5.5q-182 -22 -182 -114q0 -35 24 -59t67 -24q54 0 92.5 30.5t38.5 72.5z" />
    <glyph glyph-name="ccedilla" unicode="&#xe7;" horiz-adv-x="483" 
d="M448 92q-17 -31 -58 -61t-99 -36l-21 -43q39 10 73 -11.5t34 -60.5q0 -40 -33.5 -64t-79.5 -24q-49 0 -77 18.5t-28 44.5q0 24 19.5 32t38.5 -9q0 -66 44 -66q27 0 43.5 21t16.5 49q0 23 -13 38t-35 15q-12 0 -26.5 -5t-19.5 -5q-11 0 -14 7.5t3 18.5l22 45
q-88 9 -148 71.5t-60 156.5q0 107 73 171.5t174 64.5q73 0 118.5 -37t45.5 -82q0 -20 -12 -33t-32 -13q-19 0 -32 11t-13 33q0 39 -24.5 68t-74.5 29q-63 0 -102 -47.5t-39 -126.5q0 -97 56.5 -155t140.5 -58q77 0 123 56z" />
    <glyph glyph-name="egrave" unicode="&#xe8;" horiz-adv-x="476" 
d="M139 606q-25 15 -30.5 34.5t6.5 29.5q27 29 62 -8l99 -105q15 -14 9 -25q-7 -10 -29 3zM426 105l17 -13q-19 -35 -67 -66.5t-115 -31.5q-97 0 -164 64t-67 168q0 107 69 170.5t165 63.5q78 0 127.5 -42t49.5 -105q0 -46 -41 -63.5t-141 -19.5l-117 -2q-26 0 -21 -37
q18 -66 67.5 -104t116.5 -38q77 0 121 56zM248 436q-59 0 -93.5 -38t-40.5 -105q-1 -25 6 -33.5t24 -8.5l88 2q70 1 98.5 17.5t28.5 52.5q0 51 -29 82t-82 31z" />
    <glyph glyph-name="eacute" unicode="&#xe9;" horiz-adv-x="476" 
d="M239 535q-23 -12 -29 -3q-6 11 8 25l99 105q35 38 63 8q12 -10 6.5 -29.5t-30.5 -34.5zM426 105l17 -13q-19 -35 -67 -66.5t-115 -31.5q-97 0 -164 64t-67 168q0 107 69 170.5t165 63.5q78 0 127.5 -42t49.5 -105q0 -46 -41 -63.5t-141 -19.5l-117 -2q-26 0 -21 -37
q18 -66 67.5 -104t116.5 -38q77 0 121 56zM248 436q-59 0 -93.5 -38t-40.5 -105q-1 -25 6 -33.5t24 -8.5l88 2q70 1 98.5 17.5t28.5 52.5q0 51 -29 82t-82 31z" />
    <glyph glyph-name="ecircumflex" unicode="&#xea;" horiz-adv-x="476" 
d="M239 614l-111 -78l-11 14l122 138l121 -138l-11 -14zM426 105l17 -13q-19 -35 -67 -66.5t-115 -31.5q-97 0 -164 64t-67 168q0 107 69 170.5t165 63.5q78 0 127.5 -42t49.5 -105q0 -46 -41 -63.5t-141 -19.5l-117 -2q-26 0 -21 -37q18 -66 67.5 -104t116.5 -38
q77 0 121 56zM248 436q-59 0 -93.5 -38t-40.5 -105q-1 -25 6 -33.5t24 -8.5l88 2q70 1 98.5 17.5t28.5 52.5q0 51 -29 82t-82 31z" />
    <glyph glyph-name="edieresis" unicode="&#xeb;" horiz-adv-x="476" 
d="M147 568q-20 0 -35 15.5t-15 35.5t15 35t35 15t35 -15t15 -35t-15 -35.5t-35 -15.5zM331 568q-20 0 -35 15.5t-15 35.5t15 35t35 15t35 -15t15 -35t-15 -35.5t-35 -15.5zM426 105l17 -13q-19 -35 -67 -66.5t-115 -31.5q-97 0 -164 64t-67 168q0 107 69 170.5t165 63.5
q78 0 127.5 -42t49.5 -105q0 -46 -41 -63.5t-141 -19.5l-117 -2q-26 0 -21 -37q18 -66 67.5 -104t116.5 -38q77 0 121 56zM248 436q-59 0 -93.5 -38t-40.5 -105q-1 -25 6 -33.5t24 -8.5l88 2q70 1 98.5 17.5t28.5 52.5q0 51 -29 82t-82 31z" />
    <glyph glyph-name="igrave" unicode="&#xec;" horiz-adv-x="260" 
d="M156 557l-99 105q-34 37 -63 8q-12 -10 -6.5 -29.5t31.5 -34.5l117 -71q22 -13 29 -3q6 11 -9 25zM26 0v20q36 5 50 16t14 38v283q0 35 -12.5 48t-52.5 9v19l110 25q35 8 35 -29v-355q0 -27 14 -38t51 -16v-20h-209z" />
    <glyph glyph-name="iacute" unicode="&#xed;" horiz-adv-x="260" 
d="M99 557q-14 -14 -8 -25q6 -9 29 3l117 71q25 15 30.5 34.5t-6.5 29.5q-28 30 -63 -8zM26 0v20q36 5 50 16t14 38v283q0 35 -12.5 48t-52.5 9v19l110 25q35 8 35 -29v-355q0 -27 14 -38t51 -16v-20h-209z" />
    <glyph glyph-name="icircumflex" unicode="&#xee;" horiz-adv-x="260" 
d="M119 688l121 -138l-11 -14l-110 78l-111 -78l-11 14zM26 0v20q36 5 50 16t14 38v283q0 35 -12.5 48t-52.5 9v19l110 25q35 8 35 -29v-355q0 -27 14 -38t51 -16v-20h-209z" />
    <glyph glyph-name="idieresis" unicode="&#xef;" horiz-adv-x="260" 
d="M27 568q-20 0 -35 15.5t-15 35.5t15 35t35 15t35 -15t15 -35t-15 -35.5t-35 -15.5zM211 568q-20 0 -35 15.5t-15 35.5t15 35t35 15t35 -15t15 -35t-15 -35.5t-35 -15.5zM26 0v20q36 5 50 16t14 38v283q0 35 -12.5 48t-52.5 9v19l110 25q35 8 35 -29v-355q0 -27 14 -38
t51 -16v-20h-209z" />
    <glyph glyph-name="eth" unicode="&#xf0;" horiz-adv-x="546" 
d="M466 73q0 -53 65 -34v-21q-36 -23 -75 -23q-35 0 -52.5 17t-17.5 59v1q-64 -78 -158 -78q-84 0 -141 61.5t-57 162.5q0 112 64 177t154 65q25 0 50.5 -5.5t39.5 -11t26 -8.5t17 2.5t5 21.5v30q0 24 -5 47l-110 -31l-5 17l110 31q-25 66 -114 68v21q126 0 173 -73l88 25
l5 -17l-85 -24q23 -48 23 -118v-362zM273 49q44 0 78.5 24.5t34.5 78.5v142q0 67 -45 103t-102 36q-59 0 -93 -47.5t-34 -126.5q0 -91 44.5 -150.5t116.5 -59.5z" />
    <glyph glyph-name="ntilde" unicode="&#xf1;" horiz-adv-x="554" 
d="M356 550q-43 0 -105.5 31.5t-81.5 31.5q-17 0 -29.5 -12t-12.5 -34h-22q0 50 27.5 77.5t68.5 27.5q42 0 104.5 -31.5t82.5 -31.5q18 0 30 12.5t12 33.5h22q0 -50 -27.5 -77.5t-68.5 -27.5zM470 -5q-66 0 -66 68v213q0 60 -29.5 97t-83.5 37q-53 0 -87 -38.5t-34 -95.5
v-202q0 -27 14 -38t51 -16v-20h-209v20q36 5 50 16t14 38v283q0 35 -12.5 48t-52.5 9v19l110 25q35 8 35 -30q0 -45 15 -42l8 5q64 69 145 69q62 0 104 -40.5t42 -122.5v-225q0 -52 50 -40v-19q-31 -18 -64 -18z" />
    <glyph glyph-name="ograve" unicode="&#xf2;" horiz-adv-x="527" 
d="M301 557l-99 105q-35 37 -62 8q-12 -10 -6.5 -29.5t30.5 -34.5l117 -71q22 -13 29 -3q6 11 -9 25zM262 -6q-95 0 -163.5 64t-68.5 168q0 105 69 169.5t166 64.5q96 0 164 -63.5t68 -167.5q0 -105 -69 -170t-166 -65zM286 21q57 0 92 44.5t35 129.5q0 98 -49 168t-123 70
q-57 0 -92 -44t-35 -130q0 -98 49.5 -168t122.5 -70z" />
    <glyph glyph-name="oacute" unicode="&#xf3;" horiz-adv-x="527" 
d="M243 557q-14 -14 -8 -25q6 -9 29 3l117 71q25 15 30.5 34.5t-6.5 29.5q-28 30 -63 -8zM262 -6q-95 0 -163.5 64t-68.5 168q0 105 69 169.5t166 64.5q96 0 164 -63.5t68 -167.5q0 -105 -69 -170t-166 -65zM286 21q57 0 92 44.5t35 129.5q0 98 -49 168t-123 70
q-57 0 -92 -44t-35 -130q0 -98 49.5 -168t122.5 -70z" />
    <glyph glyph-name="ocircumflex" unicode="&#xf4;" horiz-adv-x="527" 
d="M264 688l121 -138l-11 -14l-110 78l-111 -78l-11 14zM262 -6q-95 0 -163.5 64t-68.5 168q0 105 69 169.5t166 64.5q96 0 164 -63.5t68 -167.5q0 -105 -69 -170t-166 -65zM286 21q57 0 92 44.5t35 129.5q0 98 -49 168t-123 70q-57 0 -92 -44t-35 -130q0 -98 49.5 -168
t122.5 -70z" />
    <glyph glyph-name="otilde" unicode="&#xf5;" horiz-adv-x="527" 
d="M342 550q-43 0 -105.5 31.5t-81.5 31.5q-17 0 -29.5 -12t-12.5 -34h-22q0 50 27.5 77.5t68.5 27.5q42 0 104.5 -31.5t82.5 -31.5q18 0 30 12.5t12 33.5h22q0 -50 -27.5 -77.5t-68.5 -27.5zM262 -6q-95 0 -163.5 64t-68.5 168q0 105 69 169.5t166 64.5q96 0 164 -63.5
t68 -167.5q0 -105 -69 -170t-166 -65zM286 21q57 0 92 44.5t35 129.5q0 98 -49 168t-123 70q-57 0 -92 -44t-35 -130q0 -98 49.5 -168t122.5 -70z" />
    <glyph glyph-name="odieresis" unicode="&#xf6;" horiz-adv-x="527" 
d="M172 568q-20 0 -35 15.5t-15 35.5t15 35t35 15t35 -15t15 -35t-15 -35.5t-35 -15.5zM356 568q-20 0 -35 15.5t-15 35.5t15 35t35 15t35 -15t15 -35t-15 -35.5t-35 -15.5zM262 -6q-95 0 -163.5 64t-68.5 168q0 105 69 169.5t166 64.5q96 0 164 -63.5t68 -167.5
q0 -105 -69 -170t-166 -65zM286 21q57 0 92 44.5t35 129.5q0 98 -49 168t-123 70q-57 0 -92 -44t-35 -130q0 -98 49.5 -168t122.5 -70z" />
    <glyph glyph-name="divide" unicode="&#xf7;" horiz-adv-x="470" 
d="M235 362q-17 0 -29.5 13t-12.5 30t12.5 29.5t29.5 12.5t29.5 -12.5t12.5 -29.5t-12.5 -30t-29.5 -13zM50 265h370v-27h-370v27zM235 56q-17 0 -29.5 13t-12.5 30t12.5 29.5t29.5 12.5t29.5 -12.5t12.5 -29.5t-12.5 -30t-29.5 -13z" />
    <glyph glyph-name="oslash" unicode="&#xf8;" horiz-adv-x="527" 
d="M422 403q75 -65 75 -174q0 -105 -69 -170t-166 -65q-80 0 -142 45l-29 -35l-14 11l29 35q-76 68 -76 176q0 105 69 169.5t166 64.5q81 0 143 -45l30 36l14 -11zM114 259q0 -88 39 -152l212 255q-50 71 -124 71q-57 0 -92 -44t-35 -130zM286 21q57 0 92 44.5t35 129.5
t-38 152l-212 -256q50 -70 123 -70z" />
    <glyph glyph-name="ugrave" unicode="&#xf9;" horiz-adv-x="559" 
d="M336 557l-99 105q-35 38 -63 8q-12 -10 -6.5 -29.5t30.5 -34.5l118 -71q22 -13 29 -3q5 11 -9 25zM236 -6q-62 0 -104 40.5t-42 121.5v201q0 35 -12.5 48t-52.5 9v19l110 25q35 8 35 -29v-252q0 -60 30 -97t84 -37q52 0 86 39t34 95v180q0 35 -12.5 48t-52.5 9v19l110 25
q35 8 35 -29v-357q0 -52 50 -40v-19q-27 -18 -63 -18q-61 0 -69 60q-2 13 -10 13q-3 0 -11 -8q-17 -17 -26 -25.5t-44.5 -24.5t-74.5 -16z" />
    <glyph glyph-name="uacute" unicode="&#xfa;" horiz-adv-x="559" 
d="M240 557q-14 -14 -8 -25q6 -9 29 3l117 71q25 15 30.5 34.5t-6.5 29.5q-28 30 -63 -8zM236 -6q-62 0 -104 40.5t-42 121.5v201q0 35 -12.5 48t-52.5 9v19l110 25q35 8 35 -29v-252q0 -60 30 -97t84 -37q52 0 86 39t34 95v180q0 35 -12.5 48t-52.5 9v19l110 25
q35 8 35 -29v-357q0 -52 50 -40v-19q-27 -18 -63 -18q-61 0 -69 60q-2 13 -10 13q-3 0 -11 -8q-17 -17 -26 -25.5t-44.5 -24.5t-74.5 -16z" />
    <glyph glyph-name="ucircumflex" unicode="&#xfb;" horiz-adv-x="559" 
d="M258 688l121 -138l-11 -14l-110 78l-111 -78l-11 14zM236 -6q-62 0 -104 40.5t-42 121.5v201q0 35 -12.5 48t-52.5 9v19l110 25q35 8 35 -29v-252q0 -60 30 -97t84 -37q52 0 86 39t34 95v180q0 35 -12.5 48t-52.5 9v19l110 25q35 8 35 -29v-357q0 -52 50 -40v-19
q-27 -18 -63 -18q-61 0 -69 60q-2 13 -10 13q-3 0 -11 -8q-17 -17 -26 -25.5t-44.5 -24.5t-74.5 -16z" />
    <glyph glyph-name="udieresis" unicode="&#xfc;" horiz-adv-x="559" 
d="M157 568q-19 0 -34 15.5t-15 35.5t14.5 35t34.5 15t35 -15t15 -35t-15 -35.5t-35 -15.5zM341 568q-20 0 -35 15.5t-15 35.5t15 35t35 15t35 -15t15 -35t-15 -35.5t-35 -15.5zM236 -6q-62 0 -104 40.5t-42 121.5v201q0 35 -12.5 48t-52.5 9v19l110 25q35 8 35 -29v-252
q0 -60 30 -97t84 -37q52 0 86 39t34 95v180q0 35 -12.5 48t-52.5 9v19l110 25q35 8 35 -29v-357q0 -52 50 -40v-19q-27 -18 -63 -18q-61 0 -69 60q-2 13 -10 13q-3 0 -11 -8q-17 -17 -26 -25.5t-44.5 -24.5t-74.5 -16z" />
    <glyph glyph-name="yacute" unicode="&#xfd;" horiz-adv-x="523" 
d="M243 557q-14 -14 -8 -25q6 -9 29 3l117 71q25 15 30.5 34.5t-6.5 29.5q-28 30 -63 -8zM119 -198q-37 0 -58.5 17t-21.5 44q0 22 14.5 35.5t36.5 13.5q19 0 28 -11.5t10 -25.5t6.5 -25.5t19.5 -11.5q31 0 60 76q23 57 -4 129l-120 295q-19 48 -33.5 64.5t-46.5 28.5v20
h199v-20q-41 -12 -46.5 -28t14.5 -65l96 -235q5 -9 11 -9t10 9l51 131q33 83 39.5 123.5t-4.5 52.5t-44 21v20h177v-20q-43 -12 -61 -29t-37 -64l-168 -415q-26 -63 -51.5 -92t-76.5 -29z" />
    <glyph glyph-name="thorn" unicode="&#xfe;" horiz-adv-x="541" 
d="M11 -190v20q36 4 50 15.5t14 38.5v671q0 35 -12.5 48t-52.5 9v19l110 24q35 8 35 -28v-218q0 -8 5.5 -10t13.5 6q16 20 55 37.5t85 17.5q84 0 140.5 -62t56.5 -163q0 -112 -63.5 -176.5t-152.5 -64.5q-27 0 -53 6.5t-40.5 13.5t-26 11t-16 -0.5t-4.5 -21.5v-119
q0 -27 14 -38.5t51 -15.5v-20h-209zM301 21q60 0 94 47t34 126q0 90 -44 150.5t-112 60.5q-47 0 -82.5 -26t-35.5 -85v-126q0 -71 45 -109t101 -38z" />
    <glyph glyph-name="ydieresis" unicode="&#xff;" horiz-adv-x="523" 
d="M172 568q-20 0 -35 15.5t-15 35.5t15 35t35 15t35 -15t15 -35t-15 -35.5t-35 -15.5zM356 568q-20 0 -35 15.5t-15 35.5t15 35t35 15t35 -15t15 -35t-15 -35.5t-35 -15.5zM119 -198q-37 0 -58.5 17t-21.5 44q0 22 14.5 35.5t36.5 13.5q19 0 28 -11.5t10 -25.5t6.5 -25.5
t19.5 -11.5q31 0 60 76q23 57 -4 129l-120 295q-19 48 -33.5 64.5t-46.5 28.5v20h199v-20q-41 -12 -46.5 -28t14.5 -65l96 -235q5 -9 11 -9t10 9l51 131q33 83 39.5 123.5t-4.5 52.5t-44 21v20h177v-20q-43 -12 -61 -29t-37 -64l-168 -415q-26 -63 -51.5 -92t-76.5 -29z" />
    <glyph glyph-name="Amacron" unicode="&#x100;" horiz-adv-x="713" 
d="M212 757q-16 0 -16 14v9q0 14 16 14h291q16 0 16 -14v-9q0 -14 -16 -14h-291zM599 119q24 -56 40.5 -74.5t53.5 -23.5v-21h-225v21q44 7 52 22.5t-7 44.5l-30 70q-17 31 -57 31h-194q-45 0 -61 -38l6 14l-31 -72q-25 -61 64 -72v-21h-190v21q35 7 54 22.5t35 50.5
l193 451q20 46 20 76l57 6zM430 220q10 0 15 7t0 19l17 -39l-124 289q-11 23 -20 -1l-110 -258q-1 -8 4 -12.5t14 -4.5h204zM210 245q0 -1 -1 -1z" />
    <glyph glyph-name="amacron" unicode="&#x101;" horiz-adv-x="489" 
d="M90 610q0 14 16 14h291q16 0 16 -14v-9q0 -14 -16 -14h-291q-16 0 -16 14v9zM160 -6q-55 0 -92.5 27.5t-37.5 82.5q0 63 63.5 103.5t222.5 58.5q23 2 23 27v21q0 55 -28 87.5t-85 32.5q-79 0 -79 -74q0 -52 -44 -52q-19 0 -29.5 12t-10.5 32q0 49 60.5 78.5t138.5 29.5
q85 0 121 -39.5t36 -124.5v-224q0 -52 50 -40v-19q-27 -18 -62 -18q-67 0 -68 72q0 4 -2.5 6t-6 0t-6.5 -6q-27 -34 -71.5 -53.5t-92.5 -19.5zM210 40q51 0 90 32t39 74v60q0 20 -8 28.5t-32 5.5q-182 -22 -182 -112q0 -37 24 -62.5t69 -25.5z" />
    <glyph glyph-name="Abreve" unicode="&#x102;" horiz-adv-x="713" 
d="M346 731q-61 0 -96 34t-35 85q0 11 8 11h11q8 0 10 -8q5 -26 32.5 -45.5t69.5 -19.5t69.5 19.5t33.5 45.5q2 8 10 8h11q8 0 8 -11q0 -51 -35.5 -85t-96.5 -34zM599 119q24 -56 40.5 -74.5t53.5 -23.5v-21h-225v21q44 7 52 22.5t-7 44.5l-30 70q-17 31 -57 31h-194
q-45 0 -61 -38l6 14l-31 -72q-25 -61 64 -72v-21h-190v21q35 7 54 22.5t35 50.5l193 451q20 46 20 76l57 6zM430 220q10 0 15 7t0 19l17 -39l-124 289q-11 23 -20 -1l-110 -258q-1 -8 4 -12.5t14 -4.5h204zM210 245q0 -1 -1 -1z" />
    <glyph glyph-name="abreve" unicode="&#x103;" horiz-adv-x="489" 
d="M240 561q-61 0 -96 34t-35 85q0 11 8 11h11q8 0 10 -8q5 -26 32.5 -45.5t69.5 -19.5t69.5 19.5t33.5 45.5q2 8 10 8h11q8 0 8 -11q0 -51 -35.5 -85t-96.5 -34zM160 -6q-55 0 -92.5 27.5t-37.5 82.5q0 63 63.5 103.5t222.5 58.5q23 2 23 27v21q0 55 -28 87.5t-85 32.5
q-79 0 -79 -74q0 -52 -44 -52q-19 0 -29.5 12t-10.5 32q0 49 60.5 78.5t138.5 29.5q85 0 121 -39.5t36 -124.5v-224q0 -52 50 -40v-19q-27 -18 -62 -18q-67 0 -68 72q0 4 -2.5 6t-6 0t-6.5 -6q-27 -34 -71.5 -53.5t-92.5 -19.5zM210 40q51 0 90 32t39 74v60q0 20 -8 28.5
t-32 5.5q-182 -22 -182 -112q0 -37 24 -62.5t69 -25.5z" />
    <glyph glyph-name="Aogonek" unicode="&#x104;" horiz-adv-x="713" 
d="M598 0q-74 -50 -74 -112q0 -24 16.5 -38.5t37.5 -14.5q56 0 80 54h25q-36 -95 -127 -95q-41 0 -73.5 22t-32.5 62q0 42 32.5 73.5t76.5 48.5h-91v21q44 7 52 22.5t-7 44.5l-30 70q-17 31 -57 31h-194q-45 0 -61 -38l6 14l-31 -72q-25 -61 64 -72v-21h-190v21
q35 7 54 22.5t35 50.5l193 451q20 46 20 76l57 6l220 -508q24 -56 40.5 -74.5t53.5 -23.5v-21h-95zM430 220q10 0 15 7t0 19l17 -39l-124 289q-11 23 -20 -1l-110 -258q-1 -8 4 -12.5t14 -4.5h204zM210 245q0 -1 -1 -1z" />
    <glyph glyph-name="aogonek" unicode="&#x105;" horiz-adv-x="489" 
d="M430 -3q-102 -31 -102 -99q0 -25 14.5 -39t36.5 -14q42 0 66 57h22q-10 -35 -39.5 -66.5t-80.5 -31.5q-38 0 -65.5 19.5t-27.5 58.5q0 42 32.5 73t84.5 48q-31 16 -32 64q0 4 -2.5 6t-6 0t-6.5 -6q-27 -34 -71.5 -53.5t-92.5 -19.5q-55 0 -92.5 27.5t-37.5 82.5
q0 63 63.5 103.5t222.5 58.5q23 2 23 27v21q0 55 -28 87.5t-85 32.5q-79 0 -79 -74q0 -52 -44 -52q-19 0 -29.5 12t-10.5 32q0 49 60.5 78.5t138.5 29.5q85 0 121 -39.5t36 -124.5v-224q0 -52 50 -40v-19q-15 -11 -39 -16zM339 146v60q0 20 -8 28.5t-32 5.5
q-182 -22 -182 -112q0 -37 24 -62.5t69 -25.5q51 0 90 32t39 74z" />
    <glyph glyph-name="Cacute" unicode="&#x106;" horiz-adv-x="640" 
d="M318 727q-14 -14 -8 -25q6 -9 29 3l117 71q25 15 30.5 34.5t-6.5 29.5q-28 30 -63 -8zM354 -10q-131 0 -227.5 87.5t-96.5 232.5q0 100 49 176t124.5 113.5t162.5 37.5q101 0 166.5 -50.5t65.5 -109.5q0 -27 -15.5 -44t-42.5 -17q-24 0 -39 16t-15 46q0 46 -38 86.5
t-110 40.5q-96 0 -155 -65.5t-59 -178.5q0 -138 82.5 -223.5t204.5 -85.5q102 0 180 87l14 -12q-27 -49 -91.5 -93t-159.5 -44z" />
    <glyph glyph-name="cacute" unicode="&#x107;" horiz-adv-x="483" 
d="M247 557q-14 -14 -8 -25q6 -9 29 3l117 71q25 15 30.5 34.5t-6.5 29.5q-28 30 -63 -8zM266 -6q-97 0 -166.5 64t-69.5 166q0 107 73 171.5t174 64.5q73 0 118.5 -37t45.5 -82q0 -20 -12 -33t-32 -13q-19 0 -32 11t-13 33q0 39 -24.5 68t-74.5 29q-63 0 -102 -47.5
t-39 -126.5q0 -97 56.5 -155t140.5 -58q77 0 123 56l16 -13q-19 -35 -66.5 -66.5t-115.5 -31.5z" />
    <glyph glyph-name="Cdotaccent" unicode="&#x10a;" horiz-adv-x="640" 
d="M339 738q-20 0 -35 15.5t-15 35.5t15 35t35 15t35 -15t15 -35t-15 -35.5t-35 -15.5zM354 -10q-131 0 -227.5 87.5t-96.5 232.5q0 100 49 176t124.5 113.5t162.5 37.5q101 0 166.5 -50.5t65.5 -109.5q0 -27 -15.5 -44t-42.5 -17q-24 0 -39 16t-15 46q0 46 -38 86.5
t-110 40.5q-96 0 -155 -65.5t-59 -178.5q0 -138 82.5 -223.5t204.5 -85.5q102 0 180 87l14 -12q-27 -49 -91.5 -93t-159.5 -44z" />
    <glyph glyph-name="cdotaccent" unicode="&#x10b;" horiz-adv-x="483" 
d="M267 568q-20 0 -35 15.5t-15 35.5t15 35t35 15t35 -15t15 -35t-15 -35.5t-35 -15.5zM266 -6q-97 0 -166.5 64t-69.5 166q0 107 73 171.5t174 64.5q73 0 118.5 -37t45.5 -82q0 -20 -12 -33t-32 -13q-19 0 -32 11t-13 33q0 39 -24.5 68t-74.5 29q-63 0 -102 -47.5
t-39 -126.5q0 -97 56.5 -155t140.5 -58q77 0 123 56l16 -13q-19 -35 -66.5 -66.5t-115.5 -31.5z" />
    <glyph glyph-name="Ccaron" unicode="&#x10c;" horiz-adv-x="640" 
d="M339 704l-122 138l11 13l111 -78l110 78l11 -13zM354 -10q-131 0 -227.5 87.5t-96.5 232.5q0 100 49 176t124.5 113.5t162.5 37.5q101 0 166.5 -50.5t65.5 -109.5q0 -27 -15.5 -44t-42.5 -17q-24 0 -39 16t-15 46q0 46 -38 86.5t-110 40.5q-96 0 -155 -65.5t-59 -178.5
q0 -138 82.5 -223.5t204.5 -85.5q102 0 180 87l14 -12q-27 -49 -91.5 -93t-159.5 -44z" />
    <glyph glyph-name="ccaron" unicode="&#x10d;" horiz-adv-x="483" 
d="M267 534l-122 138l11 13l111 -78l110 78l11 -13zM266 -6q-97 0 -166.5 64t-69.5 166q0 107 73 171.5t174 64.5q73 0 118.5 -37t45.5 -82q0 -20 -12 -33t-32 -13q-19 0 -32 11t-13 33q0 39 -24.5 68t-74.5 29q-63 0 -102 -47.5t-39 -126.5q0 -97 56.5 -155t140.5 -58
q77 0 123 56l16 -13q-19 -35 -66.5 -66.5t-115.5 -31.5z" />
    <glyph glyph-name="Dcaron" unicode="&#x10e;" horiz-adv-x="641" 
d="M316 704l-122 138l11 13l111 -78l110 78l11 -13zM30 0v21q33 6 46.5 15.5t13.5 35.5v479q0 24 -13 33.5t-47 16.5v20h234q68 0 125.5 -15.5t106.5 -49t77 -95t28 -145.5q0 -80 -26 -141.5t-71.5 -98.5t-103 -55.5t-124.5 -18.5q-19 0 -70.5 2.5t-72.5 2.5q-44 0 -103 -7z
M269 28q84 0 139 41t76.5 103t21.5 144q0 60 -12.5 108.5t-40 87.5t-75.5 60.5t-113 21.5h-22q-32 0 -47 -9t-15 -34v-479q0 -44 88 -44z" />
    <glyph glyph-name="dcaron" unicode="&#x10f;" horiz-adv-x="569" 
d="M541 660q20 0 30.5 -13t2.5 -38l-33 -107q-7 -18 -19 -18q-7 0 -12.5 5.5t-5.5 12.5l4 119q2 39 33 39zM466 73q0 -53 65 -34v-21q-36 -23 -75 -23q-35 0 -52.5 17t-17.5 59v1q-64 -78 -158 -78q-84 0 -141 62.5t-57 163.5q0 111 64 175.5t154 64.5q25 0 50.5 -5.5
t39.5 -11t26 -8.5t17 2.5t5 21.5v96q0 35 -12.5 48t-52.5 9v19l110 24q35 8 35 -28v-554zM273 49q44 0 78.5 24.5t34.5 78.5v142q0 67 -45 103t-102 36q-59 0 -93 -47.5t-34 -126.5q0 -91 44.5 -150.5t116.5 -59.5z" />
    <glyph glyph-name="Dcroat" unicode="&#x110;" horiz-adv-x="641" 
d="M264 621q68 0 125.5 -15.5t106.5 -49t77 -95t28 -145.5q0 -80 -26 -141.5t-71.5 -98.5t-103 -55.5t-124.5 -18.5q-19 0 -70.5 2.5t-72.5 2.5q-44 0 -103 -7v21q33 6 46.5 15.5t13.5 35.5v227h-59v23h59v229q0 24 -13 33.5t-47 16.5v20h234zM269 28q84 0 139 41t76.5 103
t21.5 144q0 60 -12.5 108.5t-40 87.5t-75.5 60.5t-113 21.5h-22q-32 0 -47 -9t-15 -34v-229h123v-23h-123v-227q0 -44 88 -44z" />
    <glyph glyph-name="dcroat" unicode="&#x111;" horiz-adv-x="546" 
d="M531 509h-65v-436q0 -53 65 -34v-21q-36 -23 -75 -23q-35 0 -52.5 17t-17.5 59v1q-64 -78 -158 -78q-84 0 -141 62.5t-57 163.5q0 111 64 175.5t154 64.5q25 0 50.5 -5.5t39.5 -11t26 -8.5t17 2.5t5 21.5v50h-128v23h128v23q0 35 -12.5 48t-52.5 9v19l110 24q35 8 35 -28
v-95h65v-23zM273 49q44 0 78.5 24.5t34.5 78.5v142q0 67 -45 103t-102 36q-59 0 -93 -47.5t-34 -126.5q0 -91 44.5 -150.5t116.5 -59.5z" />
    <glyph glyph-name="Emacron" unicode="&#x112;" 
d="M133 780q0 14 16 14h291q16 0 16 -14v-9q0 -14 -16 -14h-291q-16 0 -16 14v9zM30 0v21q33 6 46.5 15.5t13.5 35.5v477q0 26 -13 35.5t-47 16.5v20h454q14 0 15 -12q6 -52 20 -109h-19q-18 46 -48.5 67.5t-80.5 21.5h-128q-32 0 -47 -9t-15 -34v-171q0 -25 15 -34t47 -9
h99q43 0 59 16t23 54h16v-173h-16q-7 37 -23 54t-59 17h-99q-32 0 -47 -9t-15 -34v-181q0 -26 19.5 -35t74.5 -8l115 1q50 1 73 13.5t37 36.5l24 37h20q-23 -44 -30 -107q-2 -14 -16 -14h-468z" />
    <glyph glyph-name="emacron" unicode="&#x113;" horiz-adv-x="476" 
d="M105 587q-16 0 -16 14v9q0 14 16 14h291q16 0 16 -14v-9q0 -14 -16 -14h-291zM426 105l17 -13q-19 -35 -67 -66.5t-115 -31.5q-97 0 -164 64t-67 168q0 107 69 170.5t165 63.5q78 0 127.5 -42t49.5 -105q0 -46 -41 -63.5t-141 -19.5l-117 -2q-26 0 -21 -37
q18 -66 67.5 -104t116.5 -38q77 0 121 56zM248 436q-59 0 -93.5 -38t-40.5 -105q-1 -25 6 -33.5t24 -8.5l88 2q70 1 98.5 17.5t28.5 52.5q0 51 -29 82t-82 31z" />
    <glyph glyph-name="Edotaccent" unicode="&#x116;" 
d="M284 738q-20 0 -35 15.5t-15 35.5t15 35t35 15t35 -15t15 -35t-15 -35.5t-35 -15.5zM30 0v21q33 6 46.5 15.5t13.5 35.5v477q0 26 -13 35.5t-47 16.5v20h454q14 0 15 -12q6 -52 20 -109h-19q-18 46 -48.5 67.5t-80.5 21.5h-128q-32 0 -47 -9t-15 -34v-171q0 -25 15 -34
t47 -9h99q43 0 59 16t23 54h16v-173h-16q-7 37 -23 54t-59 17h-99q-32 0 -47 -9t-15 -34v-181q0 -26 19.5 -35t74.5 -8l115 1q50 1 73 13.5t37 36.5l24 37h20q-23 -44 -30 -107q-2 -14 -16 -14h-468z" />
    <glyph glyph-name="edotaccent" unicode="&#x117;" horiz-adv-x="476" 
d="M239 568q-20 0 -35 15.5t-15 35.5t15 35t35 15t35 -15t15 -35t-15 -35.5t-35 -15.5zM426 105l17 -13q-19 -35 -67 -66.5t-115 -31.5q-97 0 -164 64t-67 168q0 107 69 170.5t165 63.5q78 0 127.5 -42t49.5 -105q0 -46 -41 -63.5t-141 -19.5l-117 -2q-26 0 -21 -37
q18 -66 67.5 -104t116.5 -38q77 0 121 56zM248 436q-59 0 -93.5 -38t-40.5 -105q-1 -25 6 -33.5t24 -8.5l88 2q70 1 98.5 17.5t28.5 52.5q0 51 -29 82t-82 31z" />
    <glyph glyph-name="Eogonek" unicode="&#x118;" 
d="M524 121h20q-23 -44 -30 -107q-2 -14 -16 -14h-84q-74 -50 -74 -112q0 -24 16.5 -38.5t37.5 -14.5q56 0 80 54h25q-36 -95 -127 -95q-41 0 -73.5 22t-32.5 62q0 42 32.5 73.5t76.5 48.5h-345v21q33 6 46.5 15.5t13.5 35.5v477q0 26 -13 35.5t-47 16.5v20h454q14 0 15 -12
q6 -52 20 -109h-19q-18 46 -48.5 67.5t-80.5 21.5h-128q-32 0 -47 -9t-15 -34v-171q0 -25 15 -34t47 -9h99q43 0 59 16t23 54h16v-173h-16q-7 37 -23 54t-59 17h-99q-32 0 -47 -9t-15 -34v-181q0 -26 19.5 -35t74.5 -8l115 1q50 1 73 13.5t37 36.5z" />
    <glyph glyph-name="eogonek" unicode="&#x119;" horiz-adv-x="476" 
d="M337 7q-96 -50 -96 -108q0 -27 14 -40.5t36 -13.5q47 0 71 57h26q-8 -21 -20.5 -40.5t-41.5 -38.5t-66 -19t-65 20t-28 62q0 62 87 108q-94 2 -159 66t-65 166q0 107 69 170.5t165 63.5q78 0 127.5 -42t49.5 -105q0 -46 -41 -63.5t-141 -19.5l-117 -2q-26 0 -21 -37
q18 -66 67.5 -104t116.5 -38q77 0 121 56l17 -13q-13 -23 -40.5 -47t-65.5 -38zM248 436q-59 0 -93.5 -38t-40.5 -105q-1 -25 6 -33.5t24 -8.5l88 2q70 1 98.5 17.5t28.5 52.5q0 51 -29 82t-82 31z" />
    <glyph glyph-name="Ecaron" unicode="&#x11a;" 
d="M284 704l-122 138l11 13l111 -78l110 78l11 -13zM30 0v21q33 6 46.5 15.5t13.5 35.5v477q0 26 -13 35.5t-47 16.5v20h454q14 0 15 -12q6 -52 20 -109h-19q-18 46 -48.5 67.5t-80.5 21.5h-128q-32 0 -47 -9t-15 -34v-171q0 -25 15 -34t47 -9h99q43 0 59 16t23 54h16v-173
h-16q-7 37 -23 54t-59 17h-99q-32 0 -47 -9t-15 -34v-181q0 -26 19.5 -35t74.5 -8l115 1q50 1 73 13.5t37 36.5l24 37h20q-23 -44 -30 -107q-2 -14 -16 -14h-468z" />
    <glyph glyph-name="ecaron" unicode="&#x11b;" horiz-adv-x="476" 
d="M360 672l-121 -138l-122 138l11 13l111 -78l110 78zM426 105l17 -13q-19 -35 -67 -66.5t-115 -31.5q-97 0 -164 64t-67 168q0 107 69 170.5t165 63.5q78 0 127.5 -42t49.5 -105q0 -46 -41 -63.5t-141 -19.5l-117 -2q-26 0 -21 -37q18 -66 67.5 -104t116.5 -38
q77 0 121 56zM248 436q-59 0 -93.5 -38t-40.5 -105q-1 -25 6 -33.5t24 -8.5l88 2q70 1 98.5 17.5t28.5 52.5q0 51 -29 82t-82 31z" />
    <glyph glyph-name="Gbreve" unicode="&#x11e;" horiz-adv-x="663" 
d="M331 731q-61 0 -96 34t-35 85q0 11 8 11h11q8 0 10 -8q5 -26 32.5 -45.5t69.5 -19.5t69.5 19.5t33.5 45.5q2 8 10 8h11q8 0 8 -11q0 -51 -35.5 -85t-96.5 -34zM353 -10q-131 0 -227 88t-96 232q0 100 49 176t124.5 113.5t162.5 37.5q104 0 169 -49.5t65 -105.5
q0 -26 -15.5 -42.5t-41.5 -16.5q-24 0 -39 13.5t-15 36.5q0 50 -38.5 91t-115.5 41q-94 0 -152.5 -66t-58.5 -180q0 -138 85.5 -233.5t208.5 -95.5q83 0 83 62v119q0 33 -15 42t-72 14v17l234 1v-18q-42 -5 -52.5 -14t-10.5 -42v-211q-21 17 -46.5 19t-48.5 -5.5
t-61.5 -15.5t-75.5 -8z" />
    <glyph glyph-name="gbreve" unicode="&#x11f;" horiz-adv-x="507" 
d="M252 561q-61 0 -96 34t-35 85q0 11 8 11h11q8 0 10 -8q5 -26 32.5 -45.5t69.5 -19.5t69.5 19.5t33.5 45.5q2 8 10 8h11q8 0 8 -11q0 -51 -35.5 -85t-96.5 -34zM147 159q-39 0 -39 -29q0 -26 46 -33l160 -28q77 -13 114 -35t37 -65q0 -69 -80 -114t-180 -45
q-83 0 -136.5 33t-53.5 90q0 62 73 95q14 7 14 8.5t-6 2.5q-27 5 -43.5 24t-16.5 45q0 54 81 69q-72 41 -72 127q0 70 49 113t135 43q113 0 161 -70q3 68 57 68q21 0 33 -10t12 -27q0 -20 -15.5 -29t-33.5 -3q-18 7 -23.5 -9t-5.5 -73q0 -71 -48 -113.5t-130 -42.5
q-20 0 -48 4t-41 4zM213 438q-44 0 -63.5 -31.5t-19.5 -77.5q0 -69 31.5 -112.5t83.5 -43.5q44 0 64 32t20 77q0 69 -31.5 112.5t-84.5 43.5zM199 19q-48 8 -76.5 -14t-28.5 -60q0 -47 42 -77.5t111 -30.5q59 0 100 28.5t41 79.5q0 23 -20 36t-65 21z" />
    <glyph glyph-name="Gdotaccent" unicode="&#x120;" horiz-adv-x="663" 
d="M332 738q-20 0 -35 15.5t-15 35.5t15 35t35 15t35 -15t15 -35t-15 -35.5t-35 -15.5zM353 -10q-131 0 -227 88t-96 232q0 100 49 176t124.5 113.5t162.5 37.5q104 0 169 -49.5t65 -105.5q0 -26 -15.5 -42.5t-41.5 -16.5q-24 0 -39 13.5t-15 36.5q0 50 -38.5 91t-115.5 41
q-94 0 -152.5 -66t-58.5 -180q0 -138 85.5 -233.5t208.5 -95.5q83 0 83 62v119q0 33 -15 42t-72 14v17l234 1v-18q-42 -5 -52.5 -14t-10.5 -42v-211q-21 17 -46.5 19t-48.5 -5.5t-61.5 -15.5t-75.5 -8z" />
    <glyph glyph-name="gdotaccent" unicode="&#x121;" horiz-adv-x="507" 
d="M253 568q-20 0 -35 15.5t-15 35.5t15 35t35 15t35 -15t15 -35t-15 -35.5t-35 -15.5zM147 159q-39 0 -39 -29q0 -26 46 -33l160 -28q77 -13 114 -35t37 -65q0 -69 -80 -114t-180 -45q-83 0 -136.5 33t-53.5 90q0 62 73 95q14 7 14 8.5t-6 2.5q-27 5 -43.5 24t-16.5 45
q0 54 81 69q-72 41 -72 127q0 70 49 113t135 43q113 0 161 -70q3 68 57 68q21 0 33 -10t12 -27q0 -20 -15.5 -29t-33.5 -3q-18 7 -23.5 -9t-5.5 -73q0 -71 -48 -113.5t-130 -42.5q-20 0 -48 4t-41 4zM213 438q-44 0 -63.5 -31.5t-19.5 -77.5q0 -69 31.5 -112.5t83.5 -43.5
q44 0 64 32t20 77q0 69 -31.5 112.5t-84.5 43.5zM199 19q-48 8 -76.5 -14t-28.5 -60q0 -47 42 -77.5t111 -30.5q59 0 100 28.5t41 79.5q0 23 -20 36t-65 21z" />
    <glyph glyph-name="uni0122" unicode="&#x122;" horiz-adv-x="663" 
d="M353 -10q-131 0 -227 88t-96 232q0 100 49 176t124.5 113.5t162.5 37.5q104 0 169 -49.5t65 -105.5q0 -26 -15.5 -42.5t-41.5 -16.5q-24 0 -39 13.5t-15 36.5q0 50 -38.5 91t-115.5 41q-94 0 -152.5 -66t-58.5 -180q0 -138 85.5 -233.5t208.5 -95.5q83 0 83 62v119
q0 33 -15 42t-72 14v17l234 1v-18q-42 -5 -52.5 -14t-10.5 -42v-211q-21 17 -46.5 19t-48.5 -5.5t-61.5 -15.5t-75.5 -8zM321 -288l-13 14q15 13 25.5 31.5t10.5 30.5q0 17 -16 17q-22 0 -36.5 14.5t-14.5 37.5q0 24 16.5 38.5t39.5 14.5q29 0 44 -21t15 -52
q0 -35 -19.5 -69.5t-51.5 -55.5z" />
    <glyph glyph-name="uni0123" unicode="&#x123;" horiz-adv-x="507" 
d="M258 543q-29 0 -44.5 21t-15.5 52q0 36 19.5 70t52.5 56l13 -15q-15 -12 -25.5 -30.5t-10.5 -30.5q0 -18 16 -18q22 0 36.5 -14.5t14.5 -37.5q0 -24 -16.5 -38.5t-39.5 -14.5zM147 159q-39 0 -39 -29q0 -26 46 -33l160 -28q77 -13 114 -35t37 -65q0 -69 -80 -114
t-180 -45q-83 0 -136.5 33t-53.5 90q0 62 73 95q14 7 14 8.5t-6 2.5q-27 5 -43.5 24t-16.5 45q0 54 81 69q-72 41 -72 127q0 70 49 113t135 43q113 0 161 -70q3 68 57 68q21 0 33 -10t12 -27q0 -20 -15.5 -29t-33.5 -3q-18 7 -23.5 -9t-5.5 -73q0 -71 -48 -113.5t-130 -42.5
q-20 0 -48 4t-41 4zM213 438q-44 0 -63.5 -31.5t-19.5 -77.5q0 -69 31.5 -112.5t83.5 -43.5q44 0 64 32t20 77q0 69 -31.5 112.5t-84.5 43.5zM199 19q-48 8 -76.5 -14t-28.5 -60q0 -47 42 -77.5t111 -30.5q59 0 100 28.5t41 79.5q0 23 -20 36t-65 21z" />
    <glyph glyph-name="Hbar" unicode="&#x126;" horiz-adv-x="691" 
d="M661 601q-34 -7 -47 -16.5t-13 -35.5v-477q0 -26 13.5 -35.5t46.5 -15.5v-21h-212v21q34 6 47.5 15.5t13.5 35.5v186q0 34 -35 34h-259q-35 0 -35 -34v-186q0 -26 13.5 -35.5t47.5 -15.5v-21h-212v21q33 6 46.5 15.5t13.5 35.5v477q0 26 -13 35.5t-47 16.5v20h212v-20
q-34 -7 -47.5 -16.5t-13.5 -35.5v-67q0 -35 36 -35h257q36 0 36 35v67q0 26 -13.5 35.5t-47.5 16.5v20h212v-20zM510 358v24q0 34 -35 34h-259q-35 0 -35 -34v-24q0 -34 36 -34h257q36 0 36 34z" />
    <glyph glyph-name="hbar" unicode="&#x127;" horiz-adv-x="544" 
d="M474 72q0 -52 50 -40v-19q-31 -18 -64 -18q-66 0 -66 68v213q0 57 -31 94.5t-82 37.5q-53 0 -87 -38t-34 -94v-202q0 -27 14 -38t51 -16v-20h-209v20q36 5 50 16t14 38v441h-65v27h65v13q0 35 -12.5 48t-52.5 9v19l110 24q35 8 35 -28v-85h183v-27h-183v-87q0 -45 15 -42
l8 5l9 9q10 10 16 15.5t20 15t27 15t32.5 10t40.5 4.5q62 0 104 -40.5t42 -122.5v-225z" />
    <glyph glyph-name="Imacron" unicode="&#x12a;" horiz-adv-x="272" 
d="M-16 780q0 14 16 14h291q16 0 16 -14v-9q0 -14 -16 -14h-291q-16 0 -16 14v9zM30 0v21q33 6 46.5 15.5t13.5 35.5v477q0 26 -13 35.5t-47 16.5v20h212v-20q-34 -7 -47.5 -16.5t-13.5 -35.5v-477q0 -26 13.5 -35.5t47.5 -15.5v-21h-212z" />
    <glyph glyph-name="imacron" unicode="&#x12b;" horiz-adv-x="260" 
d="M-31 610q0 14 16 14h291q16 0 16 -14v-9q0 -14 -16 -14h-291q-16 0 -16 14v9zM26 0v20q36 5 50 16t14 38v283q0 35 -12.5 48t-52.5 9v19l110 25q35 8 35 -29v-355q0 -27 14 -38t51 -16v-20h-209z" />
    <glyph glyph-name="Iogonek" unicode="&#x12e;" horiz-adv-x="272" 
d="M242 601q-34 -7 -47.5 -16.5t-13.5 -35.5v-477q0 -26 13.5 -35.5t47.5 -15.5v-21h-88q-74 -50 -74 -112q0 -24 16.5 -38.5t37.5 -14.5q56 0 80 54h25q-36 -95 -127 -95q-41 0 -73.5 22t-32.5 62q0 42 32.5 73.5t76.5 48.5h-85v21q33 6 46.5 15.5t13.5 35.5v477
q0 26 -13 35.5t-47 16.5v20h212v-20z" />
    <glyph glyph-name="iogonek" unicode="&#x12f;" horiz-adv-x="260" 
d="M119 568q-20 0 -35 15.5t-15 35.5t15 35t35 15t35 -15t15 -35t-15 -35.5t-35 -15.5zM139 0q-74 -50 -74 -112q0 -24 16.5 -38.5t37.5 -14.5q56 0 80 54h25q-36 -95 -127 -95q-41 0 -73.5 22t-32.5 62q0 42 32.5 73.5t76.5 48.5h-74v20q36 5 50 16t14 38v283
q0 35 -12.5 48t-52.5 9v19l110 25q35 8 35 -29v-355q0 -27 14 -38t51 -16v-20h-96z" />
    <glyph glyph-name="Idotaccent" unicode="&#x130;" horiz-adv-x="272" 
d="M135 738q-20 0 -35 15.5t-15 35.5t15 35t35 15t35 -15t15 -35t-15 -35.5t-35 -15.5zM30 0v21q33 6 46.5 15.5t13.5 35.5v477q0 26 -13 35.5t-47 16.5v20h212v-20q-34 -7 -47.5 -16.5t-13.5 -35.5v-477q0 -26 13.5 -35.5t47.5 -15.5v-21h-212z" />
    <glyph glyph-name="dotlessi" unicode="&#x131;" horiz-adv-x="260" 
d="M26 0v20q36 5 50 16t14 38v283q0 35 -12.5 48t-52.5 9v19l110 25q35 8 35 -29v-355q0 -27 14 -38t51 -16v-20h-209z" />
    <glyph glyph-name="IJ" unicode="&#x132;" horiz-adv-x="622" 
d="M30 0v21q33 6 46.5 15.5t13.5 35.5v477q0 26 -13 35.5t-47 16.5v20h212v-20q-34 -7 -47.5 -16.5t-13.5 -35.5v-477q0 -26 13.5 -35.5t47.5 -15.5v-21h-212zM396 -10q-58 0 -88.5 24.5t-30.5 58.5q0 24 12 38t35 14q43 0 43 -49q0 -23 9.5 -42t28.5 -19q17 0 26.5 18.5
t9.5 47.5v468q0 26 -14.5 36t-55.5 16v20h222v-20q-34 -7 -47.5 -16.5t-13.5 -35.5v-417q0 -72 -35.5 -107t-100.5 -35z" />
    <glyph glyph-name="ij" unicode="&#x133;" horiz-adv-x="488" 
d="M121 568q-20 0 -35 15.5t-15 35.5t15 35t35 15t35 -15t15 -35t-15 -35.5t-35 -15.5zM374 568q-20 0 -35 15.5t-15 35.5t15 35t35 15t35 -15t15 -35t-15 -35.5t-35 -15.5zM26 0v20q36 5 50 16t14 38v283q0 35 -12.5 48t-52.5 9v19l110 25q35 8 35 -29v-355q0 -27 14 -38
t51 -16v-20h-209zM296 -200q-38 0 -65.5 16t-27.5 46q0 40 39 40q14 0 25 -11.5t17.5 -25t15.5 -25t20 -11.5t17.5 15t6.5 37v476q0 35 -12.5 48t-52.5 9v19l110 25q35 8 35 -29v-491q0 -65 -35 -101.5t-93 -36.5z" />
    <glyph glyph-name="uni0136" unicode="&#x136;" horiz-adv-x="642" 
d="M502 103q27 -33 50.5 -51t36 -22.5t33.5 -8.5v-21h-224v21q17 1 27.5 6t10.5 17.5t-15 30.5l-158 188q-24 30 -53 1l-10 -9q-18 -18 -19 -43v-140q0 -26 13.5 -35.5t47.5 -15.5v-21h-212v21q33 6 46.5 15.5t13.5 35.5v477q0 26 -13 35.5t-47 16.5v20h212v-20
q-34 -7 -47.5 -16.5t-13.5 -35.5v-275l258 264q21 20 17.5 34t-15.5 20.5t-30 8.5v20h188v-20q-63 -5 -126 -67l-158 -162q-8 -9 -8 -19t4 -16t14 -18zM323 -90q29 0 44 -21t15 -52q0 -35 -19.5 -69.5t-51.5 -55.5l-13 14q15 13 25.5 31.5t10.5 30.5q0 17 -16 17
q-22 0 -36.5 14.5t-14.5 37.5q0 24 16.5 38.5t39.5 14.5z" />
    <glyph glyph-name="uni0137" unicode="&#x137;" horiz-adv-x="509" 
d="M429 68q15 -20 27.5 -30t20.5 -12t32 -6v-20h-187v20q28 4 31.5 12t-11.5 29l-119 166q-9 11 -26 -3q-37 -33 -37 -61v-89q0 -27 14 -38t51 -16v-20h-209v20q36 5 50 16t14 38v481q0 35 -12.5 48t-52.5 9v19l110 24q35 8 35 -28v-364q0 -14 8 -18.5t18 3.5l156 142
q9 9 9.5 17.5t-11.5 15t-34 8.5v20h160v-20q-13 -1 -23 -3.5t-19.5 -8t-13 -7.5t-15.5 -12.5t-15 -13.5l-110 -98zM271 -90q29 0 44 -21t15 -52q0 -35 -19.5 -69.5t-51.5 -55.5l-13 14q15 13 25.5 31.5t10.5 30.5q0 17 -16 17q-22 0 -36.5 14.5t-14.5 37.5q0 24 16.5 38.5
t39.5 14.5z" />
    <glyph glyph-name="Lacute" unicode="&#x139;" 
d="M118 727q-14 -14 -8 -25q6 -9 29 3l117 71q25 15 30.5 34.5t-6.5 29.5q-28 30 -63 -8zM30 0v21q33 6 46.5 15.5t13.5 35.5v477q0 26 -13 35.5t-47 16.5v20h212v-20q-34 -7 -47.5 -16.5t-13.5 -35.5v-477q0 -49 57 -48l156 8q75 4 110 62l17 30h23l-21 -63
q-12 -35 -10 -61h-483z" />
    <glyph glyph-name="lacute" unicode="&#x13a;" horiz-adv-x="235" 
d="M89 727q-14 -14 -8 -25q6 -9 29 3l117 71q25 15 30.5 34.5t-6.5 29.5q-28 30 -63 -8zM145 -5q-35 0 -52.5 17t-17.5 59v484q0 35 -12.5 48t-52.5 9v19l110 24q35 8 35 -28v-554q0 -53 65 -34v-21q-36 -23 -75 -23z" />
    <glyph glyph-name="uni013B" unicode="&#x13b;" 
d="M30 0v21q33 6 46.5 15.5t13.5 35.5v477q0 26 -13 35.5t-47 16.5v20h212v-20q-34 -7 -47.5 -16.5t-13.5 -35.5v-477q0 -49 57 -48l156 8q75 4 110 62l17 30h23l-21 -63q-12 -35 -10 -61h-483zM297 -288l-13 14q15 13 25.5 31.5t10.5 30.5q0 17 -16 17q-22 0 -36.5 14.5
t-14.5 37.5q0 24 16.5 38.5t39.5 14.5q29 0 44 -21t15 -52q0 -35 -19.5 -69.5t-51.5 -55.5z" />
    <glyph glyph-name="uni013C" unicode="&#x13c;" horiz-adv-x="235" 
d="M145 -5q-35 0 -52.5 17t-17.5 59v484q0 35 -12.5 48t-52.5 9v19l110 24q35 8 35 -28v-554q0 -53 65 -34v-21q-36 -23 -75 -23zM141 -288l-13 14q15 13 25.5 31.5t10.5 30.5q0 17 -16 17q-22 0 -36.5 14.5t-14.5 37.5q0 24 16.5 38.5t39.5 14.5q29 0 44 -21t15 -52
q0 -35 -19.5 -69.5t-51.5 -55.5z" />
    <glyph glyph-name="Lcaron" unicode="&#x13d;" 
d="M344 432l-13 15q15 12 25.5 30.5t10.5 30.5q0 17 -16 17q-22 0 -36.5 15t-14.5 37q0 25 16.5 39.5t39.5 14.5q29 0 44.5 -21t15.5 -52q0 -36 -20 -70.5t-52 -55.5zM30 0v21q33 6 46.5 15.5t13.5 35.5v477q0 26 -13 35.5t-47 16.5v20h212v-20q-34 -7 -47.5 -16.5
t-13.5 -35.5v-477q0 -49 57 -48l156 8q75 4 110 62l17 30h23l-21 -63q-12 -35 -10 -61h-483z" />
    <glyph glyph-name="lcaron" unicode="&#x13e;" horiz-adv-x="259" 
d="M212 484q-7 0 -12.5 5.5t-5.5 12.5v119q0 17 10 28t27 11q20 0 30.5 -13t2.5 -38l-33 -107q-5 -18 -19 -18zM145 -5q-35 0 -52.5 17t-17.5 59v484q0 35 -12.5 48t-52.5 9v19l110 24q35 8 35 -28v-554q0 -53 65 -34v-21q-36 -23 -75 -23z" />
    <glyph glyph-name="Ldot" unicode="&#x13f;" 
d="M30 0v21q33 6 46.5 15.5t13.5 35.5v477q0 26 -13 35.5t-47 16.5v20h212v-20q-34 -7 -47.5 -16.5t-13.5 -35.5v-477q0 -49 57 -48l156 8q75 4 110 62l17 30h23l-21 -63q-12 -35 -10 -61h-483zM338 284q-23 0 -39 16t-16 39q0 22 16.5 38t38.5 16t38 -16t16 -38
q0 -23 -16 -39t-38 -16z" />
    <glyph glyph-name="ldot" unicode="&#x140;" horiz-adv-x="291" 
d="M145 -5q-35 0 -52.5 17t-17.5 59v484q0 35 -12.5 48t-52.5 9v19l110 24q35 8 35 -28v-554q0 -53 65 -34v-21q-36 -23 -75 -23zM267 296q-22 0 -38 16t-16 39t16 39t38 16t38 -16.5t16 -38.5t-16 -38.5t-38 -16.5z" />
    <glyph glyph-name="Lslash" unicode="&#x141;" horiz-adv-x="570" 
d="M550 124l-21 -63q-12 -35 -10 -61h-483v21q34 6 47.5 15.5t13.5 35.5v209l-67 -37v26l67 37v242q0 26 -13.5 35.5t-47.5 16.5v20h212v-20q-34 -7 -47 -16.5t-13 -35.5v-191l91 50v-27l-91 -50v-259q0 -49 56 -48l156 8q77 4 110 62l18 30h22z" />
    <glyph glyph-name="lslash" unicode="&#x142;" horiz-adv-x="234" 
d="M219 371l-64 -39v-259q0 -53 64 -34v-21q-36 -23 -75 -23q-34 0 -51.5 17t-17.5 59v212l-65 -39v26l65 40v245q0 35 -12.5 48t-52.5 9v19l110 24q35 8 35 -28v-268l64 39v-27z" />
    <glyph glyph-name="Nacute" unicode="&#x143;" horiz-adv-x="652" 
d="M325 705q-23 -12 -29 -3q-6 11 8 25l99 105q35 38 63 8q12 -10 6.5 -29.5t-30.5 -34.5zM466 621h156v-20q-34 -7 -47.5 -16.5t-13.5 -35.5v-549h-35l-399 523v-451q0 -26 13 -35.5t45 -15.5v-21h-155v21q33 6 46.5 15.5t13.5 35.5v477q0 26 -13 35.5t-47 16.5v20h131
l364 -477v405q0 26 -13 35.5t-46 16.5v20z" />
    <glyph glyph-name="nacute" unicode="&#x144;" horiz-adv-x="554" 
d="M258 557q-14 -14 -8 -25q6 -9 29 3l117 71q25 15 30.5 34.5t-6.5 29.5q-28 30 -63 -8zM470 -5q-66 0 -66 68v213q0 60 -29.5 97t-83.5 37q-53 0 -87 -38.5t-34 -95.5v-202q0 -27 14 -38t51 -16v-20h-209v20q36 5 50 16t14 38v283q0 35 -12.5 48t-52.5 9v19l110 25
q35 8 35 -30q0 -45 15 -42l8 5q64 69 145 69q62 0 104 -40.5t42 -122.5v-225q0 -52 50 -40v-19q-31 -18 -64 -18z" />
    <glyph glyph-name="uni0145" unicode="&#x145;" horiz-adv-x="652" 
d="M466 621h156v-20q-34 -7 -47.5 -16.5t-13.5 -35.5v-549h-35l-399 523v-451q0 -26 13 -35.5t45 -15.5v-21h-155v21q33 6 46.5 15.5t13.5 35.5v477q0 26 -13 35.5t-47 16.5v20h131l364 -477v405q0 26 -13 35.5t-46 16.5v20zM326 -90q29 0 44 -21t15 -52q0 -35 -19.5 -69.5
t-51.5 -55.5l-13 14q15 13 25.5 31.5t10.5 30.5q0 17 -16 17q-22 0 -36.5 14.5t-14.5 37.5q0 24 16.5 38.5t39.5 14.5z" />
    <glyph glyph-name="uni0146" unicode="&#x146;" horiz-adv-x="554" 
d="M470 -5q-66 0 -66 68v213q0 60 -29.5 97t-83.5 37q-53 0 -87 -38.5t-34 -95.5v-202q0 -27 14 -38t51 -16v-20h-209v20q36 5 50 16t14 38v283q0 35 -12.5 48t-52.5 9v19l110 25q35 8 35 -30q0 -45 15 -42l8 5q64 69 145 69q62 0 104 -40.5t42 -122.5v-225q0 -52 50 -40
v-19q-31 -18 -64 -18zM268 -288l-13 14q15 13 25.5 31.5t10.5 30.5q0 17 -16 17q-22 0 -36.5 14.5t-14.5 37.5q0 24 16.5 38.5t39.5 14.5q29 0 44 -21t15 -52q0 -35 -19.5 -69.5t-51.5 -55.5z" />
    <glyph glyph-name="Ncaron" unicode="&#x147;" horiz-adv-x="652" 
d="M446 842l-121 -138l-122 138l11 13l111 -78l110 78zM466 621h156v-20q-34 -7 -47.5 -16.5t-13.5 -35.5v-549h-35l-399 523v-451q0 -26 13 -35.5t45 -15.5v-21h-155v21q33 6 46.5 15.5t13.5 35.5v477q0 26 -13 35.5t-47 16.5v20h131l364 -477v405q0 26 -13 35.5t-46 16.5
v20z" />
    <glyph glyph-name="ncaron" unicode="&#x148;" horiz-adv-x="554" 
d="M278 534l-122 138l11 13l111 -78l110 78l11 -13zM470 -5q-66 0 -66 68v213q0 60 -29.5 97t-83.5 37q-53 0 -87 -38.5t-34 -95.5v-202q0 -27 14 -38t51 -16v-20h-209v20q36 5 50 16t14 38v283q0 35 -12.5 48t-52.5 9v19l110 25q35 8 35 -30q0 -45 15 -42l8 5q64 69 145 69
q62 0 104 -40.5t42 -122.5v-225q0 -52 50 -40v-19q-31 -18 -64 -18z" />
    <glyph glyph-name="Eng" unicode="&#x14a;" horiz-adv-x="652" 
d="M466 621h156v-20q-34 -7 -47.5 -16.5t-13.5 -35.5v-563q0 -142 -139 -142q-51 0 -80 25t-29 55q0 52 49 52q41 0 41 -46q0 -19 9 -35.5t27 -16.5q34 0 34 57v134l-346 454v-451q0 -26 13 -35.5t45 -15.5v-21h-155v21q33 6 46.5 15.5t13.5 35.5v477q0 26 -13 35.5
t-47 16.5v20h131l364 -477v405q0 26 -13 35.5t-46 16.5v20z" />
    <glyph glyph-name="eng" unicode="&#x14b;" horiz-adv-x="549" 
d="M357 -192q-39 0 -66.5 15.5t-27.5 45.5q0 40 39 40q14 0 25 -11.5t17.5 -24.5t15.5 -24.5t20 -11.5q24 0 24 52v387q0 60 -29.5 97t-83.5 37q-53 0 -87 -38.5t-34 -95.5v-202q0 -27 14 -38t51 -16v-20h-209v20q36 5 50 16t14 38v283q0 35 -12.5 48t-52.5 9v19l110 25
q35 8 35 -30q0 -45 15 -42l8 5q64 69 145 69q62 0 104 -40.5t42 -122.5v-352q0 -64 -34.5 -100.5t-92.5 -36.5z" />
    <glyph glyph-name="Omacron" unicode="&#x14c;" horiz-adv-x="701" 
d="M190 780q0 14 16 14h291q16 0 16 -14v-9q0 -14 -16 -14h-291q-16 0 -16 14v9zM345 -10q-135 0 -225 90.5t-90 227.5q0 140 94 234.5t232 94.5q135 0 225 -90.5t90 -226.5q0 -141 -94 -235.5t-232 -94.5zM368 22q84 0 143.5 64.5t59.5 197.5q0 140 -69.5 230.5
t-168.5 90.5q-84 0 -143.5 -64t-59.5 -196q0 -142 69.5 -232.5t168.5 -90.5z" />
    <glyph glyph-name="omacron" unicode="&#x14d;" horiz-adv-x="527" 
d="M114 610q0 14 16 14h291q16 0 16 -14v-9q0 -14 -16 -14h-291q-16 0 -16 14v9zM262 -6q-95 0 -163.5 64t-68.5 168q0 105 69 169.5t166 64.5q96 0 164 -63.5t68 -167.5q0 -105 -69 -170t-166 -65zM286 21q57 0 92 44.5t35 129.5q0 98 -49 168t-123 70q-57 0 -92 -44
t-35 -130q0 -98 49.5 -168t122.5 -70z" />
    <glyph glyph-name="Ohungarumlaut" unicode="&#x150;" horiz-adv-x="701" 
d="M242 727q-14 -14 -9 -25q7 -10 29 3l118 71q25 15 30.5 34.5t-6.5 29.5q-28 30 -63 -8zM414 727q-14 -14 -9 -25q7 -10 29 3l118 71q25 15 30.5 34.5t-6.5 29.5q-28 30 -63 -8zM345 -10q-135 0 -225 90.5t-90 227.5q0 140 94 234.5t232 94.5q135 0 225 -90.5t90 -226.5
q0 -141 -94 -235.5t-232 -94.5zM368 22q84 0 143.5 64.5t59.5 197.5q0 140 -69.5 230.5t-168.5 90.5q-84 0 -143.5 -64t-59.5 -196q0 -142 69.5 -232.5t168.5 -90.5z" />
    <glyph glyph-name="ohungarumlaut" unicode="&#x151;" horiz-adv-x="527" 
d="M165 557q-14 -14 -9 -25q7 -10 29 3l118 71q25 15 30.5 34.5t-6.5 29.5q-28 30 -63 -8zM337 557q-14 -14 -9 -25q7 -10 29 3l118 71q25 15 30.5 34.5t-6.5 29.5q-28 30 -63 -8zM262 -6q-95 0 -163.5 64t-68.5 168q0 105 69 169.5t166 64.5q96 0 164 -63.5t68 -167.5
q0 -105 -69 -170t-166 -65zM286 21q57 0 92 44.5t35 129.5q0 98 -49 168t-123 70q-57 0 -92 -44t-35 -130q0 -98 49.5 -168t122.5 -70z" />
    <glyph glyph-name="OE" unicode="&#x152;" horiz-adv-x="963" 
d="M923 121h20q-23 -44 -30 -107q-2 -14 -16 -14h-468q-45 -10 -84 -10q-135 0 -225 90.5t-90 227.5q0 140 94 234.5t232 94.5q57 0 105 -16h422q14 0 15 -12q6 -52 20 -109h-19q-18 46 -48.5 67.5t-80.5 21.5h-128q-32 0 -47 -9t-15 -34v-171q0 -25 15 -34t47 -9h99
q43 0 59 16t23 54h16v-173h-16q-7 37 -23 54t-59 17h-99q-32 0 -47 -9t-15 -34v-181q0 -26 19.5 -35t74.5 -8l115 1q50 1 73 13.5t37 36.5zM130 345q0 -142 69.5 -232.5t168.5 -90.5q67 0 120 36q1 4 1 14v467q-68 66 -156 66q-84 0 -143.5 -64t-59.5 -196z" />
    <glyph glyph-name="oe" unicode="&#x153;" horiz-adv-x="860" 
d="M809 106l17 -13q-19 -35 -67 -66.5t-115 -31.5q-59 0 -109 24.5t-81 69.5q-32 -45 -83 -70t-109 -25q-95 0 -163.5 64t-68.5 168q0 105 69 169.5t166 64.5q57 0 107.5 -24.5t82.5 -68.5q33 45 83.5 69.5t108.5 24.5q78 0 128 -42.5t50 -104.5q0 -46 -41.5 -63.5
t-140.5 -19.5l-118 -2q-26 0 -21 -37q18 -66 67.5 -104t117.5 -38q77 0 120 56zM631 437q-58 0 -92 -36.5t-42 -101.5l1 2q-3 -30 4.5 -39.5t25.5 -9.5l88 2q70 1 98.5 17.5t28.5 52.5q0 51 -29.5 82t-82.5 31zM286 21q57 0 92 44.5t35 129.5q0 98 -49 168t-123 70
q-57 0 -92 -44t-35 -130q0 -98 49.5 -168t122.5 -70z" />
    <glyph glyph-name="Racute" unicode="&#x154;" horiz-adv-x="615" 
d="M281 727q-14 -14 -8 -25q6 -9 29 3l117 71q25 15 30.5 34.5t-6.5 29.5q-28 30 -63 -8zM30 0v21q33 6 46.5 15.5t13.5 35.5v477q0 26 -13 35.5t-47 16.5v20h272q116 0 176 -44t60 -124q0 -118 -140 -154q-3 -1 -4.5 -3t0 -3.5t4.5 -2.5q79 -22 106 -120q26 -86 44 -117.5
t47 -31.5v-21h-27q-69 0 -103 37.5t-58 121.5q-20 67 -55 94.5t-98 27.5q-43 0 -58 -12t-15 -41v-156q0 -26 15 -35.5t56 -15.5v-21h-222zM236 313h72q137 0 137 138q0 139 -140 139h-85q-19 0 -29 -9t-10 -33v-182q0 -28 12.5 -40.5t42.5 -12.5z" />
    <glyph glyph-name="racute" unicode="&#x155;" horiz-adv-x="430" 
d="M173 557q-14 -14 -8 -25q6 -9 29 3l117 71q25 15 30.5 34.5t-6.5 29.5q-28 30 -63 -8zM26 0v20q36 5 50 16t14 38v283q0 35 -12.5 48t-52.5 9v19l110 25q35 8 35 -30q0 -39 10 -39q5 0 11 6q65 65 132 65q51 0 71.5 -25.5t20.5 -54.5q0 -22 -13 -35.5t-33 -13.5
q-19 0 -30.5 10.5t-11.5 24.5q0 20 -13.5 34t-37.5 14q-44 0 -75 -42.5t-31 -110.5v-187q0 -27 14.5 -38t52.5 -16v-20h-211z" />
    <glyph glyph-name="uni0156" unicode="&#x156;" horiz-adv-x="615" 
d="M30 0v21q33 6 46.5 15.5t13.5 35.5v477q0 26 -13 35.5t-47 16.5v20h272q116 0 176 -44t60 -124q0 -118 -140 -154q-3 -1 -4.5 -3t0 -3.5t4.5 -2.5q79 -22 106 -120q26 -86 44 -117.5t47 -31.5v-21h-27q-69 0 -103 37.5t-58 121.5q-20 67 -55 94.5t-98 27.5q-43 0 -58 -12
t-15 -41v-156q0 -26 15 -35.5t56 -15.5v-21h-222zM236 313h72q137 0 137 138q0 139 -140 139h-85q-19 0 -29 -9t-10 -33v-182q0 -28 12.5 -40.5t42.5 -12.5zM315 -288l-13 14q15 13 25.5 31.5t10.5 30.5q0 17 -16 17q-22 0 -36.5 14.5t-14.5 37.5q0 24 16.5 38.5t39.5 14.5
q29 0 44 -21t15 -52q0 -35 -19.5 -69.5t-51.5 -55.5z" />
    <glyph glyph-name="uni0157" unicode="&#x157;" horiz-adv-x="430" 
d="M26 0v20q36 5 50 16t14 38v283q0 35 -12.5 48t-52.5 9v19l110 25q35 8 35 -30q0 -39 10 -39q5 0 11 6q65 65 132 65q51 0 71.5 -25.5t20.5 -54.5q0 -22 -13 -35.5t-33 -13.5q-19 0 -30.5 10.5t-11.5 24.5q0 20 -13.5 34t-37.5 14q-44 0 -75 -42.5t-31 -110.5v-187
q0 -27 14.5 -38t52.5 -16v-20h-211zM127 -288l-13 14q15 13 25.5 31.5t10.5 30.5q0 17 -16 17q-22 0 -36.5 14.5t-14.5 37.5q0 24 16.5 38.5t39.5 14.5q29 0 44 -21t15 -52q0 -35 -19.5 -69.5t-51.5 -55.5z" />
    <glyph glyph-name="Rcaron" unicode="&#x158;" horiz-adv-x="615" 
d="M302 704l-122 138l11 13l111 -78l110 78l11 -13zM30 0v21q33 6 46.5 15.5t13.5 35.5v477q0 26 -13 35.5t-47 16.5v20h272q116 0 176 -44t60 -124q0 -118 -140 -154q-3 -1 -4.5 -3t0 -3.5t4.5 -2.5q79 -22 106 -120q26 -86 44 -117.5t47 -31.5v-21h-27q-69 0 -103 37.5
t-58 121.5q-20 67 -55 94.5t-98 27.5q-43 0 -58 -12t-15 -41v-156q0 -26 15 -35.5t56 -15.5v-21h-222zM236 313h72q137 0 137 138q0 139 -140 139h-85q-19 0 -29 -9t-10 -33v-182q0 -28 12.5 -40.5t42.5 -12.5z" />
    <glyph glyph-name="rcaron" unicode="&#x159;" horiz-adv-x="430" 
d="M191 534l-122 138l11 13l111 -78l110 78l11 -13zM26 0v20q36 5 50 16t14 38v283q0 35 -12.5 48t-52.5 9v19l110 25q35 8 35 -30q0 -39 10 -39q5 0 11 6q65 65 132 65q51 0 71.5 -25.5t20.5 -54.5q0 -22 -13 -35.5t-33 -13.5q-19 0 -30.5 10.5t-11.5 24.5q0 20 -13.5 34
t-37.5 14q-44 0 -75 -42.5t-31 -110.5v-187q0 -27 14.5 -38t52.5 -16v-20h-211z" />
    <glyph glyph-name="Sacute" unicode="&#x15a;" horiz-adv-x="523" 
d="M227 727q-14 -14 -8 -25q6 -9 29 3l117 71q25 15 30.5 34.5t-6.5 29.5q-28 30 -63 -8zM242 -10q-105 0 -186 49q-21 53 -19.5 100.5t23.5 47.5q12 0 15 -12q25 -73 78.5 -113.5t124.5 -39.5q56 1 89 28t33 81q0 41 -25 69.5t-48 38.5t-80 28q-11 4 -17 6
q-94 32 -144.5 77t-50.5 118q0 75 59.5 122t163.5 47q99 0 177 -46q21 -53 19.5 -100.5t-23.5 -47.5q-11 0 -16 12q-24 72 -74 111.5t-112 39.5q-57 0 -84.5 -31.5t-27.5 -76.5q0 -56 37 -86t110 -55q103 -36 136 -56q88 -51 88 -138t-71.5 -130t-174.5 -43z" />
    <glyph glyph-name="sacute" unicode="&#x15b;" horiz-adv-x="417" 
d="M185 557q-14 -14 -8 -25q6 -9 29 3l117 71q25 15 30.5 34.5t-6.5 29.5q-28 30 -63 -8zM195 -6q-69 0 -119.5 29.5t-50.5 83.5q0 48 39 48q17 0 27.5 -10.5t10.5 -22.5q0 -51 35 -77.5t81 -26.5q45 0 68.5 21t23.5 59q0 17 -8 31t-17 22.5t-30 18t-31.5 13t-37.5 11.5
q-30 9 -52.5 19.5t-46 26.5t-36.5 39.5t-13 53.5q0 57 47.5 92t124.5 35q68 0 116.5 -27.5t48.5 -74.5q0 -45 -43 -45q-34 0 -34 35q0 38 -30 63t-72 25q-80 0 -80 -71q0 -41 25.5 -60.5t80.5 -37.5q91 -29 122 -52q47 -35 48 -88q0 -59 -56 -96t-141 -37z" />
    <glyph glyph-name="Scedilla" unicode="&#x15e;" horiz-adv-x="523" 
d="M488 163q0 -77 -57 -119.5t-145 -51.5l-19 -40q39 10 73 -11.5t34 -60.5q0 -40 -33.5 -64t-79.5 -24q-49 0 -77 18.5t-28 44.5q0 24 19 32t39 -9q0 -66 44 -66q27 0 43.5 21t16.5 49q0 23 -13 38t-35 15q-12 0 -26.5 -5t-19.5 -5q-11 0 -14 7.5t3 18.5l19 39
q-100 3 -176 49q-21 53 -19.5 100.5t23.5 47.5q12 0 15 -12q25 -73 78.5 -113.5t124.5 -39.5q56 1 89 28t33 81q0 41 -25 69.5t-48 38.5t-80 28q-11 4 -17 6q-94 32 -144.5 77t-50.5 118q0 75 59.5 122t163.5 47q99 0 177 -46q21 -53 19.5 -100.5t-23.5 -47.5q-11 0 -16 12
q-24 72 -74 111.5t-112 39.5q-57 0 -84.5 -31.5t-27.5 -76.5q0 -56 37 -86t110 -55q103 -36 136 -56q88 -51 88 -138z" />
    <glyph glyph-name="scedilla" unicode="&#x15f;" horiz-adv-x="417" 
d="M392 127q0 -52 -44 -87.5t-116 -43.5l-21 -44q39 10 73 -11.5t34 -60.5q0 -40 -33.5 -64t-79.5 -24q-49 0 -77 18.5t-28 44.5q0 24 19 32t39 -9q0 -66 44 -66q27 0 43.5 21t16.5 49q0 23 -13 38t-35 15q-12 0 -26.5 -5t-19.5 -5q-11 0 -14 7.5t3 18.5l21 43
q-64 4 -108.5 33t-44.5 80q0 48 39 48q17 0 27.5 -10.5t10.5 -22.5q0 -51 35 -77.5t81 -26.5q45 0 68.5 21t23.5 59q0 17 -8 31t-17 22.5t-30 18t-31.5 13t-37.5 11.5q-30 9 -52.5 19.5t-46 26.5t-36.5 39.5t-13 53.5q0 57 47.5 92t124.5 35q68 0 116.5 -27.5t48.5 -74.5
q0 -45 -43 -45q-34 0 -34 35q0 38 -30 63t-72 25q-80 0 -80 -71q0 -41 25.5 -60.5t80.5 -37.5q91 -29 122 -52q47 -35 48 -88z" />
    <glyph glyph-name="Scaron" unicode="&#x160;" horiz-adv-x="523" 
d="M248 704l-122 138l11 13l111 -78l110 78l11 -13zM242 -10q-105 0 -186 49q-21 53 -19.5 100.5t23.5 47.5q12 0 15 -12q25 -73 78.5 -113.5t124.5 -39.5q56 1 89 28t33 81q0 41 -25 69.5t-48 38.5t-80 28q-11 4 -17 6q-94 32 -144.5 77t-50.5 118q0 75 59.5 122t163.5 47
q99 0 177 -46q21 -53 19.5 -100.5t-23.5 -47.5q-11 0 -16 12q-24 72 -74 111.5t-112 39.5q-57 0 -84.5 -31.5t-27.5 -76.5q0 -56 37 -86t110 -55q103 -36 136 -56q88 -51 88 -138t-71.5 -130t-174.5 -43z" />
    <glyph glyph-name="scaron" unicode="&#x161;" horiz-adv-x="417" 
d="M206 534l-122 138l11 13l111 -78l110 78l11 -13zM195 -6q-69 0 -119.5 29.5t-50.5 83.5q0 48 39 48q17 0 27.5 -10.5t10.5 -22.5q0 -51 35 -77.5t81 -26.5q45 0 68.5 21t23.5 59q0 17 -8 31t-17 22.5t-30 18t-31.5 13t-37.5 11.5q-30 9 -52.5 19.5t-46 26.5t-36.5 39.5
t-13 53.5q0 57 47.5 92t124.5 35q68 0 116.5 -27.5t48.5 -74.5q0 -45 -43 -45q-34 0 -34 35q0 38 -30 63t-72 25q-80 0 -80 -71q0 -41 25.5 -60.5t80.5 -37.5q91 -29 122 -52q47 -35 48 -88q0 -59 -56 -96t-141 -37z" />
    <glyph glyph-name="uni0162" unicode="&#x162;" horiz-adv-x="592" 
d="M551 624l16 -133h-23q-20 59 -44.5 78.5t-76.5 19.5q-53 0 -67 -10t-14 -38v-469q0 -27 16.5 -36t63.5 -15v-21h-97l-23 -48q39 10 73 -11.5t34 -60.5q0 -40 -33.5 -64t-79.5 -24q-49 0 -77 18.5t-28 44.5q0 24 19.5 32t38.5 -9q0 -66 44 -66q27 0 43.5 21t16.5 49
q0 23 -13 38t-35 15q-12 0 -26.5 -5t-19.5 -5q-11 0 -14 7.5t3 18.5l24 49h-102v21q48 6 64.5 15t16.5 36v469q0 28 -14.5 38t-67.5 10q-52 0 -76 -19.5t-45 -78.5h-23l16 133l57 -3h396z" />
    <glyph glyph-name="uni0163" unicode="&#x163;" horiz-adv-x="300" 
d="M179 -48q39 10 73 -11.5t34 -60.5q0 -40 -33.5 -64t-79.5 -24q-49 0 -77 18.5t-28 44.5q0 24 19 32t39 -9q0 -66 44 -66q27 0 43.5 21t16.5 49q0 23 -13 38t-35 15q-12 0 -26.5 -5t-19.5 -5q-11 0 -14 7.5t3 18.5l24 49h5q-75 21 -75 129v274q0 21 -22 21h-42v19
q51 9 79 35t38 77h27v-78q0 -26 20 -26h90v-27h-90q-20 0 -20 -21v-286q0 -90 59 -90q31 0 51 15l11 -19q-32 -27 -80 -28z" />
    <glyph glyph-name="Tcaron" unicode="&#x164;" horiz-adv-x="592" 
d="M297 704l-122 138l11 13l111 -78l110 78l11 -13zM170 0v21q48 6 64.5 15t16.5 36v469q0 28 -14.5 38t-67.5 10q-52 0 -76 -19.5t-45 -78.5h-23l16 133l57 -3h396l57 3l16 -133h-23q-20 59 -44.5 78.5t-76.5 19.5q-53 0 -67 -10t-14 -38v-469q0 -27 16.5 -36t63.5 -15v-21
h-252z" />
    <glyph glyph-name="tcaron" unicode="&#x165;" horiz-adv-x="316" 
d="M226 494q-16 0 -18 18l3 119q2 39 33 39q20 0 29.5 -13t2.5 -38l-31 -107q-5 -18 -19 -18zM194 -5q-115 0 -115 134v274q0 21 -22 21h-42v19q51 9 79 35t38 77h27v-78q0 -26 20 -26h90v-27h-90q-20 0 -20 -21v-286q0 -90 59 -90q31 0 51 15l11 -19q-33 -28 -86 -28z" />
    <glyph glyph-name="Tbar" unicode="&#x166;" horiz-adv-x="592" 
d="M551 624l16 -133h-23q-20 59 -44.5 78.5t-76.5 19.5q-53 0 -67 -10t-14 -38v-130h111l1 -31h-112v-308q0 -27 16.5 -36t63.5 -15v-21h-252v21q48 6 64.5 15t16.5 36v308h-113l1 31h112v130q0 28 -14.5 38t-67.5 10q-52 0 -76 -19.5t-45 -78.5h-23l16 133l57 -3h396z" />
    <glyph glyph-name="tbar" unicode="&#x167;" horiz-adv-x="300" 
d="M269 42l11 -19q-33 -28 -86 -28q-115 0 -115 134v196h-64v28h64v50q0 21 -22 21h-42v19q51 9 79 35t38 77h27v-78q0 -26 20 -26h90v-27h-90q-20 0 -20 -21v-50h110v-28h-110v-208q0 -90 59 -90q31 0 51 15z" />
    <glyph glyph-name="Umacron" unicode="&#x16a;" horiz-adv-x="654" 
d="M192 780q0 14 16 14h291q16 0 16 -14v-9q0 -14 -16 -14h-291q-16 0 -16 14v9zM329 -10q-110 0 -177 66t-67 196v297q0 26 -13 35.5t-47 16.5v20h212v-20q-34 -7 -47.5 -16.5t-13.5 -35.5v-278q0 -119 45.5 -178.5t127.5 -59.5q79 0 130.5 54.5t51.5 177.5v284
q0 25 -14.5 35t-49.5 17v20h162v-20q-34 -7 -48 -16.5t-14 -35.5v-291q0 -129 -62 -198.5t-176 -69.5z" />
    <glyph glyph-name="umacron" unicode="&#x16b;" horiz-adv-x="559" 
d="M114 610q0 14 16 14h291q16 0 16 -14v-9q0 -14 -16 -14h-291q-16 0 -16 14v9zM236 -6q-62 0 -104 40.5t-42 121.5v201q0 35 -12.5 48t-52.5 9v19l110 25q35 8 35 -29v-252q0 -60 30 -97t84 -37q52 0 86 39t34 95v180q0 35 -12.5 48t-52.5 9v19l110 25q35 8 35 -29v-357
q0 -52 50 -40v-19q-27 -18 -63 -18q-61 0 -69 60q-2 13 -10 13q-3 0 -11 -8q-17 -17 -26 -25.5t-44.5 -24.5t-74.5 -16z" />
    <glyph glyph-name="ubreve" unicode="&#x16d;" horiz-adv-x="559" 
d="M260 561q-61 0 -96 34t-35 85q0 11 8 11h11q8 0 10 -8q5 -26 32.5 -45.5t69.5 -19.5t69.5 19.5t33.5 45.5q2 8 10 8h11q8 0 8 -11q0 -51 -35.5 -85t-96.5 -34zM236 -6q-62 0 -104 40.5t-42 121.5v201q0 35 -12.5 48t-52.5 9v19l110 25q35 8 35 -29v-252q0 -60 30 -97
t84 -37q52 0 86 39t34 95v180q0 35 -12.5 48t-52.5 9v19l110 25q35 8 35 -29v-357q0 -52 50 -40v-19q-27 -18 -63 -18q-61 0 -69 60q-2 13 -10 13q-3 0 -11 -8q-17 -17 -26 -25.5t-44.5 -24.5t-74.5 -16z" />
    <glyph glyph-name="Uring" unicode="&#x16e;" horiz-adv-x="654" 
d="M342 721q-38 0 -63 26t-25 61q0 37 25 62t63 25t63.5 -25.5t25.5 -61.5q0 -35 -25.5 -61t-63.5 -26zM342 757q21 0 35 14t14 37q0 22 -14 36.5t-35 14.5t-35 -14.5t-14 -36.5q0 -23 14 -37t35 -14zM329 -10q-110 0 -177 66t-67 196v297q0 26 -13 35.5t-47 16.5v20h212
v-20q-34 -7 -47.5 -16.5t-13.5 -35.5v-278q0 -119 45.5 -178.5t127.5 -59.5q79 0 130.5 54.5t51.5 177.5v284q0 25 -14.5 35t-49.5 17v20h162v-20q-34 -7 -48 -16.5t-14 -35.5v-291q0 -129 -62 -198.5t-176 -69.5z" />
    <glyph glyph-name="uring" unicode="&#x16f;" horiz-adv-x="559" 
d="M217 551q-38 0 -63 26t-25 61q0 37 25 62t63 25q39 0 64 -25.5t25 -61.5q0 -35 -25.5 -61t-63.5 -26zM217 587q21 0 35 14t14 37q0 22 -14 36.5t-35 14.5t-35 -14.5t-14 -36.5q0 -23 14 -37t35 -14zM236 -6q-62 0 -104 40.5t-42 121.5v201q0 35 -12.5 48t-52.5 9v19
l110 25q35 8 35 -29v-252q0 -60 30 -97t84 -37q52 0 86 39t34 95v180q0 35 -12.5 48t-52.5 9v19l110 25q35 8 35 -29v-357q0 -52 50 -40v-19q-27 -18 -63 -18q-61 0 -69 60q-2 13 -10 13q-3 0 -11 -8q-17 -17 -26 -25.5t-44.5 -24.5t-74.5 -16z" />
    <glyph glyph-name="Uhungarumlaut" unicode="&#x170;" horiz-adv-x="654" 
d="M244 727q-14 -14 -9 -25q7 -10 29 3l118 71q25 15 30.5 34.5t-6.5 29.5q-28 30 -63 -8zM416 727q-14 -14 -9 -25q7 -10 29 3l118 71q25 15 30.5 34.5t-6.5 29.5q-28 30 -63 -8zM329 -10q-110 0 -177 66t-67 196v297q0 26 -13 35.5t-47 16.5v20h212v-20
q-34 -7 -47.5 -16.5t-13.5 -35.5v-278q0 -119 45.5 -178.5t127.5 -59.5q79 0 130.5 54.5t51.5 177.5v284q0 25 -14.5 35t-49.5 17v20h162v-20q-34 -7 -48 -16.5t-14 -35.5v-291q0 -129 -62 -198.5t-176 -69.5z" />
    <glyph glyph-name="uhungarumlaut" unicode="&#x171;" horiz-adv-x="559" 
d="M115 557q-15 -14 -9 -25q7 -10 29 3l117 71q25 15 30.5 34.5t-6.5 29.5q-27 29 -62 -8zM287 557q-15 -14 -9 -25q7 -10 29 3l117 71q25 15 30.5 34.5t-6.5 29.5q-27 29 -62 -8zM236 -6q-62 0 -104 40.5t-42 121.5v201q0 35 -12.5 48t-52.5 9v19l110 25q35 8 35 -29v-252
q0 -60 30 -97t84 -37q52 0 86 39t34 95v180q0 35 -12.5 48t-52.5 9v19l110 25q35 8 35 -29v-357q0 -52 50 -40v-19q-27 -18 -63 -18q-61 0 -69 60q-2 13 -10 13q-3 0 -11 -8q-17 -17 -26 -25.5t-44.5 -24.5t-74.5 -16z" />
    <glyph glyph-name="Uogonek" unicode="&#x172;" horiz-adv-x="654" 
d="M467 621h162v-20q-34 -7 -48 -16.5t-14 -35.5v-291q0 -210 -156 -257h1q-76 -49 -76 -113q0 -24 16.5 -38.5t37.5 -14.5q56 0 80 54h25q-36 -95 -127 -95q-41 0 -73.5 22t-32.5 62q0 68 88 113q-7 -1 -21 -1q-110 0 -177 66t-67 196v297q0 26 -13 35.5t-47 16.5v20h212
v-20q-34 -7 -47.5 -16.5t-13.5 -35.5v-278q0 -119 45.5 -178.5t127.5 -59.5q79 0 130.5 54.5t51.5 177.5v284q0 25 -14.5 35t-49.5 17v20z" />
    <glyph glyph-name="uogonek" unicode="&#x173;" horiz-adv-x="559" 
d="M491 -3q-128 -35 -128 -97q0 -27 14 -41t37 -14q44 0 70 57h26q-13 -34 -45 -66t-80 -32q-40 0 -68 20t-28 63t39 74t104 44q-26 14 -30 50q-2 13 -10 13q-3 0 -11 -8q-17 -17 -26 -25.5t-44.5 -24.5t-74.5 -16q-62 0 -104 40.5t-42 121.5v201q0 35 -12.5 48t-52.5 9v19
l110 25q35 8 35 -29v-252q0 -60 30 -97t84 -37q52 0 86 39t34 95v180q0 35 -12.5 48t-52.5 9v19l110 25q35 8 35 -29v-357q0 -52 50 -40v-19q-21 -13 -43 -16z" />
    <glyph glyph-name="Wcircumflex" unicode="&#x174;" horiz-adv-x="1015" 
d="M506 858l121 -138l-11 -14l-110 78l-111 -78l-11 14zM310 0l-196 502q-21 55 -39 74t-55 24v21h220v-20q-44 -8 -51.5 -23t6.5 -45l155 -402q10 -24 20 0l98 254q19 51 -6 117q-22 56 -39.5 74.5t-54.5 23.5v21h219v-20q-44 -8 -51.5 -23t7.5 -45l154 -402q10 -24 20 0
l152 397q12 32 -3.5 49.5t-59.5 23.5v20h189v-20q-37 -8 -56 -23t-33 -50l-174 -451q-19 -52 -19 -77h-56l-151 390l-121 -313q-20 -54 -20 -77h-55z" />
    <glyph glyph-name="wcircumflex" unicode="&#x175;" horiz-adv-x="754" 
d="M334 688l121 -138l-11 -14l-110 78l-111 -78l-11 14zM223 0l-133 338q-18 48 -32.5 64.5t-47.5 28.5v20h197v-20q-41 -12 -46.5 -28t14.5 -65l89 -230q5 -12 11.5 -12t11.5 12l37 104q29 84 5 145q-12 31 -27.5 46.5t-46.5 27.5v20h196v-20q-40 -12 -45.5 -28t13.5 -65
l90 -230q5 -12 12 -12t11 12l44 126q24 66 33.5 101.5t6 55.5t-13.5 26.5t-36 13.5v20h178v-20q-44 -12 -61.5 -29t-36.5 -64l-133 -338h-46l-100 254l-99 -254h-45z" />
    <glyph glyph-name="Ycircumflex" unicode="&#x176;" horiz-adv-x="636" 
d="M319 858l121 -138l-11 -14l-110 78l-111 -78l-11 14zM193 0v21q47 6 63.5 15t16.5 36v170q0 23 -21 57l-131 207q-30 47 -52.5 66.5t-53.5 28.5v20h222v-20q-39 -8 -44.5 -24.5t15.5 -47.5l130 -206q7 -9 14 0l123 202q19 27 14.5 43.5t-17 23t-35.5 9.5v20h184v-20
q-35 -4 -58 -21.5t-52 -63.5l-133 -213q-14 -23 -14 -61v-170q0 -27 16.5 -36t63.5 -15v-21h-251z" />
    <glyph glyph-name="ycircumflex" unicode="&#x177;" horiz-adv-x="523" 
d="M264 688l121 -138l-11 -14l-110 78l-111 -78l-11 14zM119 -198q-37 0 -58.5 17t-21.5 44q0 22 14.5 35.5t36.5 13.5q19 0 28 -11.5t10 -25.5t6.5 -25.5t19.5 -11.5q31 0 60 76q23 57 -4 129l-120 295q-19 48 -33.5 64.5t-46.5 28.5v20h199v-20q-41 -12 -46.5 -28
t14.5 -65l96 -235q5 -9 11 -9t10 9l51 131q33 83 39.5 123.5t-4.5 52.5t-44 21v20h177v-20q-43 -12 -61 -29t-37 -64l-168 -415q-26 -63 -51.5 -92t-76.5 -29z" />
    <glyph glyph-name="Ydieresis" unicode="&#x178;" horiz-adv-x="636" 
d="M227 738q-20 0 -35 15.5t-15 35.5t15 35t35 15t35 -15t15 -35t-15 -35.5t-35 -15.5zM411 738q-20 0 -35 15.5t-15 35.5t15 35t35 15t35 -15t15 -35t-15 -35.5t-35 -15.5zM193 0v21q47 6 63.5 15t16.5 36v170q0 23 -21 57l-131 207q-30 47 -52.5 66.5t-53.5 28.5v20h222
v-20q-39 -8 -44.5 -24.5t15.5 -47.5l130 -206q7 -9 14 0l123 202q19 27 14.5 43.5t-17 23t-35.5 9.5v20h184v-20q-35 -4 -58 -21.5t-52 -63.5l-133 -213q-14 -23 -14 -61v-170q0 -27 16.5 -36t63.5 -15v-21h-251z" />
    <glyph glyph-name="Zacute" unicode="&#x179;" horiz-adv-x="573" 
d="M273 727q-14 -14 -8 -25q6 -9 29 3l117 71q25 15 30.5 34.5t-6.5 29.5q-28 30 -63 -8zM15 0l415 595l-211 -1q-71 0 -102 -23.5t-50 -74.5h-23l20 125h489l-417 -595l244 2q64 1 94.5 23t55.5 70h23l-26 -121h-512z" />
    <glyph glyph-name="zacute" unicode="&#x17a;" horiz-adv-x="441" 
d="M201 557q-14 -14 -8 -25q6 -9 29 3l117 71q25 15 30.5 34.5t-6.5 29.5q-28 30 -63 -8zM15 0l295 421h-164q-36 0 -56 -19t-34 -60h-20l18 109h372l-294 -420h168q35 0 55.5 19.5t33.5 58.5h21l-18 -109h-377z" />
    <glyph glyph-name="Zdotaccent" unicode="&#x17b;" horiz-adv-x="573" 
d="M294 738q-20 0 -35 15.5t-15 35.5t15 35t35 15t35 -15t15 -35t-15 -35.5t-35 -15.5zM15 0l415 595l-211 -1q-71 0 -102 -23.5t-50 -74.5h-23l20 125h489l-417 -595l244 2q64 1 94.5 23t55.5 70h23l-26 -121h-512z" />
    <glyph glyph-name="zdotaccent" unicode="&#x17c;" horiz-adv-x="441" 
d="M222 568q-20 0 -35 15.5t-15 35.5t15 35t35 15t35 -15t15 -35t-15 -35.5t-35 -15.5zM15 0l295 421h-164q-36 0 -56 -19t-34 -60h-20l18 109h372l-294 -420h168q35 0 55.5 19.5t33.5 58.5h21l-18 -109h-377z" />
    <glyph glyph-name="Zcaron" unicode="&#x17d;" horiz-adv-x="573" 
d="M294 704l-122 138l11 13l111 -78l110 78l11 -13zM15 0l415 595l-211 -1q-71 0 -102 -23.5t-50 -74.5h-23l20 125h489l-417 -595l244 2q64 1 94.5 23t55.5 70h23l-26 -121h-512z" />
    <glyph glyph-name="zcaron" unicode="&#x17e;" horiz-adv-x="441" 
d="M222 534l-122 138l11 13l111 -78l110 78l11 -13zM15 0l295 421h-164q-36 0 -56 -19t-34 -60h-20l18 109h372l-294 -420h168q35 0 55.5 19.5t33.5 58.5h21l-18 -109h-377z" />
    <glyph glyph-name="florin" unicode="&#x192;" horiz-adv-x="402" 
d="M293 672q60 0 94.5 -27t34.5 -62q0 -20 -13 -29.5t-30 -9.5q-20 0 -30.5 16.5t-13.5 36t-16.5 36t-40.5 16.5q-43 0 -57.5 -35t-14.5 -109v-28q0 -26 19 -26h109v-27h-109q-19 0 -19 -21v-435q0 -88 -47 -135.5t-121 -47.5q-59 0 -93.5 27t-34.5 62q0 21 13 30.5t30 9.5
q20 0 30.5 -16.5t13 -36.5t16 -36.5t40.5 -16.5q43 0 58 35t15 109v451q0 21 -22 21h-42v19q34 4 49 11t15 23v13q0 88 47 135t120 47z" />
    <glyph glyph-name="uni0218" unicode="&#x218;" horiz-adv-x="523" 
d="M242 -10q-105 0 -186 49q-21 53 -19.5 100.5t23.5 47.5q12 0 15 -12q25 -73 78.5 -113.5t124.5 -39.5q56 1 89 28t33 81q0 41 -25 69.5t-48 38.5t-80 28q-11 4 -17 6q-94 32 -144.5 77t-50.5 118q0 75 59.5 122t163.5 47q99 0 177 -46q21 -53 19.5 -100.5t-23.5 -47.5
q-11 0 -16 12q-24 72 -74 111.5t-112 39.5q-57 0 -84.5 -31.5t-27.5 -76.5q0 -56 37 -86t110 -55q103 -36 136 -56q88 -51 88 -138t-71.5 -130t-174.5 -43zM251 -288l-13 14q15 13 25.5 31.5t10.5 30.5q0 17 -16 17q-22 0 -36.5 14.5t-14.5 37.5q0 24 16.5 38.5t39.5 14.5
q29 0 44 -21t15 -52q0 -35 -19.5 -69.5t-51.5 -55.5z" />
    <glyph glyph-name="uni0219" unicode="&#x219;" horiz-adv-x="417" 
d="M195 -6q-69 0 -119.5 29.5t-50.5 83.5q0 48 39 48q17 0 27.5 -10.5t10.5 -22.5q0 -51 35 -77.5t81 -26.5q45 0 68.5 21t23.5 59q0 17 -8 31t-17 22.5t-30 18t-31.5 13t-37.5 11.5q-30 9 -52.5 19.5t-46 26.5t-36.5 39.5t-13 53.5q0 57 47.5 92t124.5 35q68 0 116.5 -27.5
t48.5 -74.5q0 -45 -43 -45q-34 0 -34 35q0 38 -30 63t-72 25q-80 0 -80 -71q0 -41 25.5 -60.5t80.5 -37.5q91 -29 122 -52q47 -35 48 -88q0 -59 -56 -96t-141 -37zM195 -288l-13 14q15 13 25.5 31.5t10.5 30.5q0 17 -16 17q-22 0 -36.5 14.5t-14.5 37.5q0 24 16.5 38.5
t39.5 14.5q29 0 44 -21t15 -52q0 -35 -19.5 -69.5t-51.5 -55.5z" />
    <glyph glyph-name="uni021A" unicode="&#x21a;" horiz-adv-x="592" 
d="M170 0v21q48 6 64.5 15t16.5 36v469q0 28 -14.5 38t-67.5 10q-52 0 -76 -19.5t-45 -78.5h-23l16 133l57 -3h396l57 3l16 -133h-23q-20 59 -44.5 78.5t-76.5 19.5q-53 0 -67 -10t-14 -38v-469q0 -27 16.5 -36t63.5 -15v-21h-252zM286 -288l-13 14q15 13 25.5 31.5
t10.5 30.5q0 17 -16 17q-22 0 -36.5 14.5t-14.5 37.5q0 24 16.5 38.5t39.5 14.5q29 0 44 -21t15 -52q0 -35 -19.5 -69.5t-51.5 -55.5z" />
    <glyph glyph-name="uni021B" unicode="&#x21b;" horiz-adv-x="300" 
d="M194 -5q-115 0 -115 134v274q0 21 -22 21h-42v19q51 9 79 35t38 77h27v-78q0 -26 20 -26h90v-27h-90q-20 0 -20 -21v-286q0 -90 59 -90q31 0 51 15l11 -19q-33 -28 -86 -28zM163 -288l-13 14q15 13 25.5 31.5t10.5 30.5q0 17 -16 17q-22 0 -36.5 14.5t-14.5 37.5
q0 24 16.5 38.5t39.5 14.5q29 0 44 -21t15 -52q0 -35 -19.5 -69.5t-51.5 -55.5z" />
    <glyph glyph-name="uni0237" unicode="&#x237;" horiz-adv-x="229" 
d="M36 -192q-39 0 -66.5 15.5t-27.5 45.5q0 18 10.5 29t29.5 11q14 0 25 -11.5t17.5 -24.5t15.5 -24.5t20 -11.5q24 0 24 52v468q0 35 -12.5 48t-52.5 9v19l110 25q35 8 35 -29v-484q0 -64 -34.5 -100.5t-93.5 -36.5z" />
    <glyph glyph-name="circumflex" unicode="&#x2c6;" horiz-adv-x="273" 
d="M137 688l121 -138l-11 -14l-110 78l-111 -78l-11 14z" />
    <glyph glyph-name="caron" unicode="&#x2c7;" horiz-adv-x="273" 
d="M137 534l-122 138l11 13l111 -78l110 78l11 -13z" />
    <glyph glyph-name="breve" unicode="&#x2d8;" horiz-adv-x="363" 
d="M181 561q-61 0 -96 34t-35 85q0 11 8 11h11q8 0 10 -8q5 -26 32.5 -45.5t69.5 -19.5t69.5 19.5t33.5 45.5q2 8 10 8h11q8 0 8 -11q0 -51 -35.5 -85t-96.5 -34z" />
    <glyph glyph-name="dotaccent" unicode="&#x2d9;" horiz-adv-x="200" 
d="M100 568q-20 0 -35 15.5t-15 35.5t15 35t35 15t35 -15t15 -35t-15 -35.5t-35 -15.5z" />
    <glyph glyph-name="ring" unicode="&#x2da;" horiz-adv-x="277" 
d="M138 551q-38 0 -63 26t-25 61q0 37 25 62t63 25t63.5 -25.5t25.5 -61.5q0 -35 -25.5 -61t-63.5 -26zM138 587q21 0 35 14t14 37q0 22 -14 36.5t-35 14.5t-35 -14.5t-14 -36.5q0 -23 14 -37t35 -14z" />
    <glyph glyph-name="ogonek" unicode="&#x2db;" horiz-adv-x="309" 
d="M269 -95q-36 -95 -127 -95q-41 0 -73.5 22t-32.5 62q0 43 33.5 74t77.5 49h39q-76 -49 -76 -113q0 -24 16.5 -38.5t37.5 -14.5q56 0 80 54h25z" />
    <glyph glyph-name="tilde" unicode="&#x2dc;" horiz-adv-x="447" 
d="M301 550q-43 0 -105.5 31.5t-81.5 31.5q-17 0 -29.5 -12t-12.5 -34h-22q0 50 27.5 77.5t68.5 27.5q42 0 104.5 -31.5t82.5 -31.5q17 0 29.5 12.5t12.5 33.5h22q0 -50 -27.5 -77.5t-68.5 -27.5z" />
    <glyph glyph-name="hungarumlaut" unicode="&#x2dd;" horiz-adv-x="459" 
d="M55 557q-14 -14 -9 -25q7 -10 29 3l118 71q25 15 30.5 34.5t-6.5 29.5q-28 30 -63 -8zM227 557q-14 -14 -9 -25q7 -10 29 3l118 71q25 15 30.5 34.5t-6.5 29.5q-28 30 -63 -8z" />
    <glyph glyph-name="acutecomb" unicode="&#x301;" horiz-adv-x="0" 
d="M-220 557q-14 -14 -8 -25q6 -9 29 3l117 71q25 15 30.5 34.5t-6.5 29.5q-28 30 -63 -8z" />
    <glyph glyph-name="uni0326" unicode="&#x326;" horiz-adv-x="0" 
d="M-121 -288l-13 14q15 13 25.5 31.5t10.5 30.5q0 17 -16 17q-22 0 -36.5 14.5t-14.5 37.5q0 24 16.5 38.5t39.5 14.5q29 0 44 -21t15 -52q0 -35 -19.5 -69.5t-51.5 -55.5z" />
    <glyph glyph-name="uni0394" unicode="&#x394;" horiz-adv-x="594" 
d="M20 0l280 634l274 -634h-554zM91 72h361l-176 426z" />
    <glyph glyph-name="uni03A9" unicode="&#x3a9;" horiz-adv-x="679" 
d="M613 115h26l-21 -92q-6 -23 -30 -23h-172v118q55 5 87 66.5t32 168.5q0 113 -54 178t-141 65t-141.5 -65t-54.5 -178q0 -107 32 -168.5t88 -66.5v-118h-172q-25 0 -30 23l-22 92h27l17 -27q23 -38 69 -41l68 -3q9 -1 11.5 6.5t0.5 26.5q-78 21 -133 97.5t-55 168.5
q0 116 86 205t209 89t209 -89t86 -205q0 -87 -56 -165.5t-134 -100.5q-2 -19 1 -26.5t13 -6.5l55 3q34 1 52 10.5t30 30.5z" />
    <glyph glyph-name="uni03BC" unicode="&#x3bc;" horiz-adv-x="559" 
d="M484 72q0 -52 50 -40v-19q-27 -18 -63 -18q-61 0 -69 60q-2 13 -10 13q-3 0 -11 -8q-17 -17 -26 -25.5t-44.5 -24.5t-74.5 -16q-67 0 -107 43q2 -46 11.5 -79.5t20 -47t18 -24.5t6.5 -19q-6 -46 -41 -63q-30 -15 -46 13q-8 14 -8 38v502q0 35 -12.5 48t-52.5 9v19l110 25
q35 8 35 -29v-252q0 -60 30 -97t84 -37q52 0 86 39t34 95v180q0 35 -12.5 48t-52.5 9v19l110 25q35 8 35 -29v-357z" />
    <glyph glyph-name="pi" unicode="&#x3c0;" horiz-adv-x="719" 
d="M628 96q27 -14 16 -55q-11 -34 -50 -46.5t-88 7.5q-71 31 -71 128v259h-137v-273q0 -56 -32.5 -89t-73.5 -33q-38 0 -66 10l-13 31q40 -9 71.5 14t31.5 69v271h-57q-24 0 -35.5 -22t-2.5 -59l-36 8q-12 33 -12 58q0 34 22 55.5t57 21.5h465v-62h-73q-15 0 -21.5 -7
t-6.5 -24v-276q0 -39 24 -49q8 -3 15 8t13.5 28.5t8.5 20.5q18 23 51 6z" />
    <glyph glyph-name="uni0400" unicode="&#x400;" 
d="M320 727l-99 105q-35 37 -62 8q-12 -10 -6.5 -29.5t30.5 -34.5l117 -71q22 -13 29 -3q6 11 -9 25zM30 0v21q33 6 46.5 15.5t13.5 35.5v477q0 26 -13 35.5t-47 16.5v20h454q14 0 15 -12q6 -52 20 -109h-19q-18 46 -48.5 67.5t-80.5 21.5h-128q-32 0 -47 -9t-15 -34v-171
q0 -25 15 -34t47 -9h99q43 0 59 16t23 54h16v-173h-16q-7 37 -23 54t-59 17h-99q-32 0 -47 -9t-15 -34v-181q0 -26 19.5 -35t74.5 -8l115 1q50 1 73 13.5t37 36.5l24 37h20q-23 -44 -30 -107q-2 -14 -16 -14h-468z" />
    <glyph glyph-name="uni0401" unicode="&#x401;" 
d="M192 738q-20 0 -35 15.5t-15 35.5t15 35t35 15t35 -15t15 -35t-15 -35.5t-35 -15.5zM376 738q-20 0 -35 15.5t-15 35.5t15 35t35 15t35 -15t15 -35t-15 -35.5t-35 -15.5zM30 0v21q33 6 46.5 15.5t13.5 35.5v477q0 26 -13 35.5t-47 16.5v20h454q14 0 15 -12q6 -52 20 -109
h-19q-18 46 -48.5 67.5t-80.5 21.5h-128q-32 0 -47 -9t-15 -34v-171q0 -25 15 -34t47 -9h99q43 0 59 16t23 54h16v-173h-16q-7 37 -23 54t-59 17h-99q-32 0 -47 -9t-15 -34v-181q0 -26 19.5 -35t74.5 -8l115 1q50 1 73 13.5t37 36.5l24 37h20q-23 -44 -30 -107
q-2 -14 -16 -14h-468z" />
    <glyph glyph-name="uni0403" unicode="&#x403;" horiz-adv-x="529" 
d="M228 727q-14 -14 -8 -25q6 -9 29 3l117 71q25 15 30.5 34.5t-6.5 29.5q-28 30 -63 -8zM30 0v21q33 6 46.5 15.5t13.5 35.5v477q0 26 -13 35.5t-47 16.5v20h443l31 -112h-23q-26 53 -42.5 69t-50.5 16h-146q-32 0 -46.5 -9.5t-14.5 -35.5v-477q0 -26 15 -35.5t56 -15.5
v-21h-222z" />
    <glyph glyph-name="uni0404" unicode="&#x404;" horiz-adv-x="640" 
d="M591 139l14 -12q-27 -49 -91.5 -93t-159.5 -44q-131 0 -227.5 87.5t-96.5 232.5q0 100 49 176t124.5 113.5t162.5 37.5q101 0 166.5 -50.5t65.5 -109.5q0 -27 -15.5 -44t-42.5 -17q-24 0 -39 16t-15 46q0 46 -38 86.5t-110 40.5q-94 0 -152.5 -62.5t-61.5 -170.5
q2 -50 34 -50h224v-31h-217q-35 0 -24 -43q30 -91 103 -143.5t167 -52.5q102 0 180 87z" />
    <glyph glyph-name="uni0405" unicode="&#x405;" horiz-adv-x="523" 
d="M242 -10q-105 0 -186 49q-21 53 -19.5 100.5t23.5 47.5q12 0 15 -12q25 -73 78.5 -113.5t124.5 -39.5q56 1 89 28t33 81q0 41 -25 69.5t-48 38.5t-80 28q-11 4 -17 6q-94 32 -144.5 77t-50.5 118q0 75 59.5 122t163.5 47q99 0 177 -46q21 -53 19.5 -100.5t-23.5 -47.5
q-11 0 -16 12q-24 72 -74 111.5t-112 39.5q-57 0 -84.5 -31.5t-27.5 -76.5q0 -56 37 -86t110 -55q103 -36 136 -56q88 -51 88 -138t-71.5 -130t-174.5 -43z" />
    <glyph glyph-name="uni0406" unicode="&#x406;" horiz-adv-x="272" 
d="M30 0v21q33 6 46.5 15.5t13.5 35.5v477q0 26 -13 35.5t-47 16.5v20h212v-20q-34 -7 -47.5 -16.5t-13.5 -35.5v-477q0 -26 13.5 -35.5t47.5 -15.5v-21h-212z" />
    <glyph glyph-name="uni0407" unicode="&#x407;" horiz-adv-x="272" 
d="M43 738q-20 0 -35 15.5t-15 35.5t15 35t35 15t35 -15t15 -35t-15 -35.5t-35 -15.5zM227 738q-20 0 -35 15.5t-15 35.5t15 35t35 15t35 -15t15 -35t-15 -35.5t-35 -15.5zM30 0v21q33 6 46.5 15.5t13.5 35.5v477q0 26 -13 35.5t-47 16.5v20h212v-20q-34 -7 -47.5 -16.5
t-13.5 -35.5v-477q0 -26 13.5 -35.5t47.5 -15.5v-21h-212z" />
    <glyph glyph-name="uni0408" unicode="&#x408;" horiz-adv-x="326" 
d="M99 -10q-58 0 -88.5 24.5t-30.5 58.5q0 24 12 38t35 14q43 0 43 -49q0 -23 9.5 -42t28.5 -19q17 0 26.5 18.5t9.5 47.5v468q0 26 -14.5 36t-55.5 16v20h222v-20q-34 -7 -47.5 -16.5t-13.5 -35.5v-417q0 -72 -35.5 -107t-100.5 -35z" />
    <glyph glyph-name="uni040D" unicode="&#x40d;" horiz-adv-x="668" 
d="M232 776q-25 15 -30.5 34.5t6.5 29.5q27 29 62 -8l99 -105q15 -14 9 -25q-7 -10 -29 3zM638 601q-34 -7 -47.5 -16.5t-13.5 -35.5v-477q0 -26 13.5 -35.5t47.5 -15.5v-21h-212v21q33 6 46.5 15.5t13.5 35.5v398l-305 -356v-42q0 -26 13.5 -35.5t47.5 -15.5v-21h-212v21
q33 6 46.5 15.5t13.5 35.5v477q0 26 -13 35.5t-47 16.5v20h212v-20q-34 -7 -47.5 -16.5t-13.5 -35.5v-393l305 358v35q0 26 -13 35.5t-47 16.5v20h212v-20z" />
    <glyph glyph-name="uni040E" unicode="&#x40e;" horiz-adv-x="646" 
d="M340 731q-61 0 -96 34t-35 85q0 11 8 11h11q8 0 10 -8q5 -26 32.5 -45.5t69.5 -19.5t69.5 19.5t33.5 45.5q2 8 10 8h11q8 0 8 -11q0 -51 -35.5 -85t-96.5 -34zM452 621h179v-20q-32 -4 -48.5 -19t-32.5 -47l-186 -371q-51 -101 -90 -140t-94 -39q-42 0 -69 19t-27 50
q0 23 13.5 36.5t37.5 13.5q18 0 28 -11.5t12.5 -25.5t10 -25.5t22.5 -11.5q46 0 100 102l-202 378q-28 53 -42.5 69t-48.5 22v20h216v-20q-68 -5 -33 -70l159 -301l152 305q14 30 -2 47t-55 19v20z" />
    <glyph glyph-name="uni0410" unicode="&#x410;" horiz-adv-x="713" 
d="M599 119q24 -56 40.5 -74.5t53.5 -23.5v-21h-225v21q44 7 52 22.5t-7 44.5l-30 70q-17 31 -57 31h-194q-45 0 -61 -38l6 14l-31 -72q-25 -61 64 -72v-21h-190v21q35 7 54 22.5t35 50.5l193 451q20 46 20 76l57 6zM430 220q10 0 15 7t0 19l17 -39l-124 289q-11 23 -20 -1
l-110 -258q-1 -8 4 -12.5t14 -4.5h204zM210 245q0 -1 -1 -1z" />
    <glyph glyph-name="uni0411" unicode="&#x411;" horiz-adv-x="592" 
d="M301 385q122 0 189 -52t67 -144q0 -91 -66.5 -140t-189.5 -49h-271v21q33 6 46.5 15.5t13.5 35.5v477q0 26 -13 35.5t-47 16.5v20h443l31 -112h-23q-26 53 -42.5 69t-50.5 16h-146q-32 0 -46.5 -9.5t-14.5 -35.5v-111q0 -28 12.5 -40.5t42.5 -12.5h65zM301 31
q159 0 159 160q0 162 -159 162h-65q-30 0 -42.5 -12.5t-12.5 -40.5v-227q0 -7 2 -17q3 -14 15 -21q8 -4 22 -4h81z" />
    <glyph glyph-name="uni0412" unicode="&#x412;" horiz-adv-x="615" 
d="M30 0v21q33 6 46.5 15.5t13.5 35.5v479q0 24 -13 33.5t-47 16.5v20h290q108 0 167 -36.5t59 -107.5q0 -112 -147 -146q88 -14 134.5 -55t46.5 -107q0 -75 -57 -122t-149 -47q-13 0 -86.5 3.5t-143 3.5t-114.5 -7zM243 348h74q137 0 137 125q0 121 -135 121h-76
q-32 0 -47 -9t-15 -34v-160q0 -25 14.5 -34t47.5 -9zM217 30h125q146 0 146 136q0 78 -54.5 116t-187.5 38q-34 0 -49.5 -9t-15.5 -34v-203q0 -44 36 -44z" />
    <glyph glyph-name="uni0413" unicode="&#x413;" horiz-adv-x="529" 
d="M30 0v21q33 6 46.5 15.5t13.5 35.5v477q0 26 -13 35.5t-47 16.5v20h443l31 -112h-23q-26 53 -42.5 69t-50.5 16h-146q-32 0 -46.5 -9.5t-14.5 -35.5v-477q0 -26 15 -35.5t56 -15.5v-21h-222z" />
    <glyph glyph-name="uni0414" unicode="&#x414;" horiz-adv-x="690" 
d="M25 -115v137q0 10 10 11q83 12 114.5 145t31.5 370q0 29 -17 40t-62 13v20h554v-20q-40 -2 -59.5 -13.5t-19.5 -39.5v-476q0 -23 16 -31t57 -8q12 0 10 -10l-24 -138h-21q0 34 -4 52t-13 32.5t-32.5 20t-55 8t-88.5 2.5h-164q-129 0 -170.5 -23.5t-41.5 -91.5h-21zM97 33
h331q30 0 44 8.5t14 31.5v475q0 27 -13 34t-45 7h-164q-51 0 -51 -41q0 -464 -116 -515z" />
    <glyph glyph-name="uni0415" unicode="&#x415;" 
d="M30 0v21q33 6 46.5 15.5t13.5 35.5v477q0 26 -13 35.5t-47 16.5v20h454q14 0 15 -12q6 -52 20 -109h-19q-18 46 -48.5 67.5t-80.5 21.5h-128q-32 0 -47 -9t-15 -34v-171q0 -25 15 -34t47 -9h99q43 0 59 16t23 54h16v-173h-16q-7 37 -23 54t-59 17h-99q-32 0 -47 -9
t-15 -34v-181q0 -26 19.5 -35t74.5 -8l115 1q50 1 73 13.5t37 36.5l24 37h20q-23 -44 -30 -107q-2 -14 -16 -14h-468z" />
    <glyph glyph-name="uni0416" unicode="&#x416;" horiz-adv-x="964" 
d="M824 103q25 -32 49 -50.5t37 -23t34 -8.5v-21h-224v21q27 1 35 13t-12 41l-144 177q-37 46 -68 46h-4v-226q0 -26 13.5 -35.5t47.5 -15.5v-21h-212v21q33 6 46.5 15.5t13.5 35.5v226h-3q-31 0 -68 -46l-144 -177q-20 -29 -12 -41t35 -13v-21h-224v21q21 4 34 8.5t37 23
t49 50.5l168 214q9 12 12.5 18t3.5 16.5t-7 20.5l-145 181q-10 15 -21 13t-18 -10.5t-20.5 -17.5t-28.5 -9q-20 0 -34.5 14t-14.5 35q0 22 16 36t46 14q17 0 30.5 -4t25 -14t18.5 -17t19 -24t18 -24l140 -172q36 -46 85 -46h3v222q0 26 -13 35.5t-47 16.5v20h212v-20
q-34 -7 -47.5 -16.5t-13.5 -35.5v-222h4q49 0 85 46l139 172q6 7 18 24t19 24t18.5 17t25 14t30.5 4q31 0 47 -14t16 -36q0 -21 -14.5 -35t-34.5 -14q-15 0 -29 9t-20.5 17.5t-17.5 10.5t-21 -13l-145 -181q-17 -22 9 -55z" />
    <glyph glyph-name="uni0417" unicode="&#x417;" horiz-adv-x="554" 
d="M263 -12q-96 0 -162 49.5t-66 126.5q0 62 49 62q22 0 29 -9.5t12.5 -42t15.5 -58.5q39 -101 129 -101q66 0 109 53t43 129q0 65 -34 99t-85 34q-29 0 -81 -19l-10 26q43 14 62.5 21.5t47 21.5t39.5 27.5t21 34.5t9 49q0 50 -27 82t-85 32q-62 0 -112 -39t-74 -111
q-4 -12 -16 -12q-22 0 -23 47.5t19 100.5q78 46 182 46q102 0 160 -42t58 -103q0 -91 -135 -133q58 7 117 -37.5t59 -126.5q0 -89 -72 -148t-179 -59z" />
    <glyph glyph-name="uni0418" unicode="&#x418;" horiz-adv-x="668" 
d="M638 601q-34 -7 -47.5 -16.5t-13.5 -35.5v-477q0 -26 13.5 -35.5t47.5 -15.5v-21h-212v21q33 6 46.5 15.5t13.5 35.5v398l-305 -356v-42q0 -26 13.5 -35.5t47.5 -15.5v-21h-212v21q33 6 46.5 15.5t13.5 35.5v477q0 26 -13 35.5t-47 16.5v20h212v-20q-34 -7 -47.5 -16.5
t-13.5 -35.5v-393l305 358v35q0 26 -13 35.5t-47 16.5v20h212v-20z" />
    <glyph glyph-name="uni0419" unicode="&#x419;" horiz-adv-x="668" 
d="M331 731q-61 0 -96 34t-35 85q0 11 8 11h11q8 0 10 -8q5 -26 32.5 -45.5t69.5 -19.5t69.5 19.5t33.5 45.5q2 8 10 8h11q8 0 8 -11q0 -51 -35.5 -85t-96.5 -34zM638 601q-34 -7 -47.5 -16.5t-13.5 -35.5v-477q0 -26 13.5 -35.5t47.5 -15.5v-21h-212v21q33 6 46.5 15.5
t13.5 35.5v398l-305 -356v-42q0 -26 13.5 -35.5t47.5 -15.5v-21h-212v21q33 6 46.5 15.5t13.5 35.5v477q0 26 -13 35.5t-47 16.5v20h212v-20q-34 -7 -47.5 -16.5t-13.5 -35.5v-393l305 358v35q0 26 -13 35.5t-47 16.5v20h212v-20z" />
    <glyph glyph-name="uni041A" unicode="&#x41a;" horiz-adv-x="618" 
d="M478 103q25 -32 49 -50.5t37 -23t34 -8.5v-21h-224v21q27 1 35 13t-12 41l-144 177q-37 46 -68 46h-4v-226q0 -26 13.5 -35.5t47.5 -15.5v-21h-212v21q33 6 46.5 15.5t13.5 35.5v477q0 26 -13 35.5t-47 16.5v20h212v-20q-34 -7 -47.5 -16.5t-13.5 -35.5v-222h4
q49 0 85 46l139 172q6 7 18 24t19 24t18.5 17t25 14t30.5 4q31 0 47 -14t16 -36q0 -21 -14.5 -35t-34.5 -14q-15 0 -29 9t-20.5 17.5t-17.5 10.5t-21 -13l-145 -181q-17 -22 9 -55z" />
    <glyph glyph-name="uni041B" unicode="&#x41b;" horiz-adv-x="706" 
d="M105 -11q-39 0 -64.5 17.5t-25.5 49.5q0 22 13 36t36 14q21 0 27.5 -13t4.5 -28.5t3.5 -28.5t24.5 -13q73 0 73 175v351q0 26 -17 35.5t-60 16.5v20h556v-20q-34 -7 -47 -16.5t-13 -35.5v-477q0 -26 13.5 -35.5t46.5 -15.5v-21h-211v21q33 6 46.5 15.5t13.5 35.5v477
q0 26 -13 33t-47 7h-178q-19 0 -29 -2t-17.5 -11t-7.5 -27v-329v-9q0 -28 -0.5 -44.5t-3.5 -47t-11.5 -49.5t-22 -39.5t-36.5 -31t-54 -10.5z" />
    <glyph glyph-name="uni041C" unicode="&#x41c;" horiz-adv-x="820" 
d="M790 601q-34 -7 -47 -16.5t-13 -35.5v-477q0 -26 13.5 -35.5t46.5 -15.5v-21h-211v21q33 6 46.5 15.5t13.5 35.5v475l-235 -483h-30l-247 481v-473q0 -26 13 -35.5t46 -15.5v-21h-156v21q33 6 46.5 15.5t13.5 35.5v477q0 26 -13 35.5t-47 16.5v20h155l233 -455l221 455
h151v-20z" />
    <glyph glyph-name="uni041D" unicode="&#x41d;" horiz-adv-x="691" 
d="M661 601q-34 -7 -47 -16.5t-13 -35.5v-477q0 -26 13.5 -35.5t46.5 -15.5v-21h-212v21q34 6 47.5 15.5t13.5 35.5v186q0 34 -35 34h-259q-35 0 -35 -34v-186q0 -26 13.5 -35.5t47.5 -15.5v-21h-212v21q33 6 46.5 15.5t13.5 35.5v477q0 26 -13 35.5t-47 16.5v20h212v-20
q-34 -7 -47.5 -16.5t-13.5 -35.5v-191q0 -34 36 -34h257q36 0 36 34v191q0 26 -13.5 35.5t-47.5 16.5v20h212v-20z" />
    <glyph glyph-name="uni041E" unicode="&#x41e;" horiz-adv-x="701" 
d="M345 -10q-135 0 -225 90.5t-90 227.5q0 140 94 234.5t232 94.5q135 0 225 -90.5t90 -226.5q0 -141 -94 -235.5t-232 -94.5zM368 22q84 0 143.5 64.5t59.5 197.5q0 140 -69.5 230.5t-168.5 90.5q-84 0 -143.5 -64t-59.5 -196q0 -142 69.5 -232.5t168.5 -90.5z" />
    <glyph glyph-name="uni041F" unicode="&#x41f;" horiz-adv-x="691" 
d="M661 601q-34 -7 -47 -16.5t-13 -35.5v-477q0 -26 13.5 -35.5t46.5 -15.5v-21h-212v21q34 6 47.5 15.5t13.5 35.5v477q0 27 -18 38q-6 3 -17 3h-259q-11 0 -17 -3q-18 -11 -18 -38v-477q0 -26 13.5 -35.5t47.5 -15.5v-21h-212v21q33 6 46.5 15.5t13.5 35.5v477
q0 26 -13 35.5t-47 16.5v20h631v-20z" />
    <glyph glyph-name="uni0420" unicode="&#x420;" horiz-adv-x="582" 
d="M30 0v21q33 6 46.5 15.5t13.5 35.5v477q0 26 -13 35.5t-47 16.5v20h271q123 0 189.5 -49t66.5 -140q0 -92 -67 -143.5t-189 -51.5h-65q-30 0 -42.5 -12.5t-12.5 -40.5v-112q0 -26 15 -35.5t56 -15.5v-21h-222zM236 268h65q159 0 159 162q0 160 -159 160h-81q-19 0 -29 -9
t-10 -33v-227q0 -28 12.5 -40.5t42.5 -12.5z" />
    <glyph glyph-name="uni0421" unicode="&#x421;" horiz-adv-x="640" 
d="M354 -10q-131 0 -227.5 87.5t-96.5 232.5q0 100 49 176t124.5 113.5t162.5 37.5q101 0 166.5 -50.5t65.5 -109.5q0 -27 -15.5 -44t-42.5 -17q-24 0 -39 16t-15 46q0 46 -38 86.5t-110 40.5q-96 0 -155 -65.5t-59 -178.5q0 -138 82.5 -223.5t204.5 -85.5q102 0 180 87
l14 -12q-27 -49 -91.5 -93t-159.5 -44z" />
    <glyph glyph-name="uni0422" unicode="&#x422;" horiz-adv-x="592" 
d="M170 0v21q48 6 64.5 15t16.5 36v469q0 28 -14.5 38t-67.5 10q-52 0 -76 -19.5t-45 -78.5h-23l16 133l57 -3h396l57 3l16 -133h-23q-20 59 -44.5 78.5t-76.5 19.5q-53 0 -67 -10t-14 -38v-469q0 -27 16.5 -36t63.5 -15v-21h-252z" />
    <glyph glyph-name="uni0423" unicode="&#x423;" horiz-adv-x="646" 
d="M452 621h179v-20q-32 -4 -48.5 -19t-32.5 -47l-186 -371q-51 -101 -90 -140t-94 -39q-42 0 -69 19t-27 50q0 23 13.5 36.5t37.5 13.5q18 0 28 -11.5t12.5 -25.5t10 -25.5t22.5 -11.5q46 0 100 102l-202 378q-28 53 -42.5 69t-48.5 22v20h216v-20q-68 -5 -33 -70l159 -301
l152 305q14 30 -2 47t-55 19v20z" />
    <glyph glyph-name="uni0424" unicode="&#x424;" horiz-adv-x="740" 
d="M264 0v21q34 6 47.5 16t13.5 37q0 29 -12 42t-43 13h-22q-103 0 -160.5 47.5t-57.5 134.5t57.5 134.5t160.5 47.5h22q31 0 43 12.5t12 41.5q0 27 -13.5 37t-47.5 17v20h212v-20q-34 -7 -47 -17t-13 -37q0 -29 12 -41.5t43 -12.5h21q103 0 160.5 -47.5t57.5 -134.5
t-57.5 -134.5t-160.5 -47.5h-21q-31 0 -43 -13t-12 -42q0 -27 13 -37t47 -16v-21h-212zM248 160h22q30 0 42.5 12.5t12.5 40.5v196q0 28 -12.5 40.5t-42.5 12.5h-22q-119 0 -119 -151t119 -151zM471 160h21q119 0 119 151t-119 151h-21q-30 0 -42.5 -12.5t-12.5 -40.5v-196
q0 -28 12.5 -40.5t42.5 -12.5z" />
    <glyph glyph-name="uni0425" unicode="&#x425;" horiz-adv-x="675" 
d="M537 119q41 -56 62.5 -75t55.5 -23v-21h-221v21q33 4 39.5 15t-14.5 43l-139 190q-142 -177 -142 -221q0 -24 36 -27v-21h-194v21q39 3 85 41.5t143 162.5l54 68l-154 210q-42 57 -62.5 76t-54.5 22v20h221v-20q-34 -4 -40.5 -15.5t15.5 -43.5l134 -183q141 177 134 219
q-3 20 -36 23v20h194v-20q-38 -3 -82.5 -41.5t-142.5 -163.5l-49 -62z" />
    <glyph glyph-name="uni0426" unicode="&#x426;" horiz-adv-x="709" 
d="M674 33q12 0 10 -10l-24 -138h-21q0 42 -4.5 62t-26 33.5t-55.5 16.5t-103 3h-420v21q33 6 46.5 15.5t13.5 35.5v477q0 26 -13 35.5t-47 16.5v20h212v-20q-34 -7 -47.5 -16.5t-13.5 -35.5v-477q0 -24 14 -31.5t46 -7.5h211q30 0 44 7.5t14 31.5v477q0 26 -13.5 35.5
t-47.5 16.5v20h212v-20q-34 -7 -47 -16.5t-13 -35.5v-477q0 -23 16 -31t57 -8z" />
    <glyph glyph-name="uni0427" unicode="&#x427;" horiz-adv-x="668" 
d="M426 0v21q33 6 46.5 15.5t13.5 35.5v122q0 37 -17 37q-6 0 -12 -7q-19 -23 -69.5 -43.5t-112.5 -20.5q-75 0 -128.5 43.5t-53.5 135.5v210q0 25 -14.5 35t-48.5 17v20h222v-20q-38 -7 -53 -16.5t-15 -35.5v-190q0 -63 38.5 -102t118.5 -39q65 0 105 40t40 97v194
q0 26 -13 35.5t-47 16.5v20h212v-20q-34 -7 -47.5 -16.5t-13.5 -35.5v-477q0 -26 13.5 -35.5t47.5 -15.5v-21h-212z" />
    <glyph glyph-name="uni0428" unicode="&#x428;" horiz-adv-x="868" 
d="M838 601q-34 -7 -47.5 -16.5t-13.5 -35.5v-477q0 -26 13.5 -35.5t47.5 -15.5v-21h-808v21q33 6 46.5 15.5t13.5 35.5v477q0 26 -13 35.5t-47 16.5v20h212v-20q-34 -7 -47.5 -16.5t-13.5 -35.5v-477q0 -23 16 -31t59 -8h75q30 0 43.5 7.5t13.5 31.5v477q0 26 -13 35.5
t-47 16.5v20h212v-20q-34 -7 -47.5 -16.5t-13.5 -35.5v-477q0 -23 16 -31t59 -8h75q30 0 43.5 7.5t13.5 31.5v477q0 26 -13 35.5t-47 16.5v20h212v-20z" />
    <glyph glyph-name="uni0429" unicode="&#x429;" horiz-adv-x="887" 
d="M852 33q12 0 10 -10l-24 -138h-21q0 42 -4.5 62t-26 33.5t-55.5 16.5t-103 3h-597v21q34 6 47.5 15.5t13.5 35.5v477q0 26 -13.5 35.5t-47.5 16.5v20h212v-20q-34 -7 -47 -16.5t-13 -35.5v-477q0 -23 16 -31t59 -8h74q30 0 44 7.5t14 31.5v477q0 26 -13.5 35.5
t-47.5 16.5v20h212v-20q-34 -7 -47 -16.5t-13 -35.5v-477q0 -23 16 -31t59 -8h74q30 0 44 7.5t14 31.5v477q0 26 -13.5 35.5t-47.5 16.5v20h212v-20q-34 -7 -47 -16.5t-13 -35.5v-477q0 -23 16 -31t57 -8z" />
    <glyph glyph-name="uni042A" unicode="&#x42a;" horiz-adv-x="677" 
d="M396 385q122 0 189 -52t67 -144q0 -91 -66.5 -140t-189.5 -49h-271v21q33 6 46.5 15.5t13.5 35.5v477q0 45 -52 45q-35 0 -52 -16.5t-43 -68.5h-23l31 112h290v-20q-34 -7 -47 -16.5t-13 -35.5v-111q0 -28 12.5 -40.5t42.5 -12.5h65zM396 31q158 0 158 160
q0 162 -158 162h-65q-30 0 -42.5 -12.5t-12.5 -40.5v-227q0 -24 9.5 -33t29.5 -9h81z" />
    <glyph glyph-name="uni042B" unicode="&#x42b;" horiz-adv-x="837" 
d="M301 385q122 0 189 -52t67 -144q0 -91 -66.5 -140t-189.5 -49h-271v21q33 6 46.5 15.5t13.5 35.5v477q0 26 -13 35.5t-47 16.5v20h212v-20q-34 -7 -47.5 -16.5t-13.5 -35.5v-111q0 -28 12.5 -40.5t42.5 -12.5h65zM807 601q-34 -7 -47 -16.5t-13 -35.5v-477
q0 -26 13.5 -35.5t46.5 -15.5v-21h-212v21q34 6 47.5 15.5t13.5 35.5v477q0 26 -13.5 35.5t-47.5 16.5v20h212v-20zM301 31q159 0 159 160q0 162 -159 162h-65q-30 0 -42.5 -12.5t-12.5 -40.5v-227q0 -12 3 -21q1 -3 6 -11q9 -10 30 -10h81z" />
    <glyph glyph-name="uni042C" unicode="&#x42c;" horiz-adv-x="580" 
d="M301 385q122 0 189 -52t67 -144q0 -91 -66.5 -140t-189.5 -49h-271v21q33 6 46.5 15.5t13.5 35.5v477q0 26 -13 35.5t-47 16.5v20h212v-20q-34 -7 -47.5 -16.5t-13.5 -35.5v-111q0 -28 12.5 -40.5t42.5 -12.5h65zM301 31q159 0 159 160q0 162 -159 162h-65
q-30 0 -42.5 -12.5t-12.5 -40.5v-227q0 -12 3 -21q1 -3 6 -11q9 -10 30 -10h81z" />
    <glyph glyph-name="uni042D" unicode="&#x42d;" horiz-adv-x="641" 
d="M275 637q135 0 235 -89t100 -238q0 -145 -96 -232.5t-227 -87.5q-96 0 -160.5 44t-91.5 93l14 12q78 -87 180 -87q94 0 166.5 52t103.5 142q11 45 -23 45h-217v31h224q32 0 34 50q-3 108 -62 170.5t-152 62.5q-72 0 -110.5 -40.5t-38.5 -86.5q0 -30 -15 -46t-38 -16
q-27 0 -42.5 17t-15.5 44q0 59 65 109.5t167 50.5z" />
    <glyph glyph-name="uni042E" unicode="&#x42e;" horiz-adv-x="975" 
d="M630 637q135 0 225 -90.5t90 -226.5q0 -141 -94 -235.5t-232 -94.5q-131 0 -220.5 86.5t-94.5 218.5h-123v-223q0 -26 13.5 -35.5t47.5 -15.5v-21h-212v21q33 6 46.5 15.5t13.5 35.5v477q0 26 -13 35.5t-47 16.5v20h212v-20q-34 -7 -47.5 -16.5t-13.5 -35.5v-223h123
q7 133 100 222t226 89zM642 22q84 0 143.5 64.5t59.5 197.5q0 140 -69.5 230.5t-168.5 90.5q-84 0 -143.5 -64t-59.5 -196q0 -142 69.5 -232.5t168.5 -90.5z" />
    <glyph glyph-name="uni042F" unicode="&#x42f;" horiz-adv-x="615" 
d="M585 0h-221v21q40 6 55 15.5t15 35.5v156q0 29 -15 41t-58 12q-63 0 -98 -27.5t-55 -94.5q-24 -84 -58 -121.5t-103 -37.5h-26v21q28 0 46 31.5t44 117.5q27 98 106 120q3 1 4.5 2.5t0 3.5t-4.5 3q-139 36 -139 154q0 80 60 124t175 44h272v-20q-34 -7 -47 -16.5
t-13 -35.5v-477q0 -26 13.5 -35.5t46.5 -15.5v-21zM379 313q30 0 42.5 12.5t12.5 40.5v182q0 25 -9.5 33.5t-29.5 8.5h-85q-140 0 -140 -139q0 -138 137 -138h72z" />
    <glyph glyph-name="uni0430" unicode="&#x430;" horiz-adv-x="489" 
d="M160 -6q-55 0 -92.5 27.5t-37.5 82.5q0 63 63.5 103.5t222.5 58.5q23 2 23 27v21q0 55 -28 87.5t-85 32.5q-79 0 -79 -74q0 -52 -44 -52q-19 0 -29.5 12t-10.5 32q0 49 60.5 78.5t138.5 29.5q85 0 121 -39.5t36 -124.5v-224q0 -52 50 -40v-19q-27 -18 -62 -18
q-67 0 -68 72q0 4 -2.5 6t-6 0t-6.5 -6q-27 -34 -71.5 -53.5t-92.5 -19.5zM210 40q51 0 90 32t39 74v60q0 20 -8 28.5t-32 5.5q-182 -22 -182 -112q0 -37 24 -62.5t69 -25.5z" />
    <glyph glyph-name="uni0431" unicode="&#x431;" horiz-adv-x="509" 
d="M256 -6q-38 0 -74 14.5t-72 48t-58 99.5t-22 158q-1 155 60 231t189 76h58q38 0 53 3.5t26 15.5h19q0 -61 -33 -79t-119 -18h-53q-73 0 -115 -32t-42 -87q0 -49 35 -49q11 0 28.5 13.5t35.5 29t50.5 29t69.5 13.5q83 0 135 -60t52 -165q0 -114 -62.5 -177.5t-160.5 -63.5
zM264 21q59 0 96 48t37 127q0 88 -44.5 147.5t-110.5 59.5q-56 0 -89 -46t-33 -125q0 -89 41 -150t103 -61z" />
    <glyph glyph-name="uni0432" unicode="&#x432;" horiz-adv-x="465" 
d="M30 0v19q32 5 43 14.5t11 36.5v316q0 24 -12.5 33.5t-41.5 12.5v19h212q80 0 127.5 -26.5t47.5 -79.5q0 -76 -104 -99q58 -10 92.5 -41.5t34.5 -76.5q0 -128 -189 -128q-49 0 -86.5 2t-40.5 2q-50 0 -94 -4zM189 259h56q43 0 66.5 21t23.5 59q0 39 -23.5 60.5t-66.5 21.5
h-56q-25 0 -25 -25v-112q0 -25 25 -25zM196 31h52q55 0 83.5 24.5t28.5 69.5q0 104 -156 104h-15q-25 0 -25 -25v-133q0 -21 7 -30.5t25 -9.5z" />
    <glyph glyph-name="uni0433" unicode="&#x433;" horiz-adv-x="437" 
d="M30 0v19q32 5 43 14.5t11 37.5v315q0 24 -12.5 33.5t-41.5 12.5v19h365l18 -105h-19q-17 44 -39.5 59.5t-78.5 15.5h-87q-25 0 -25 -26v-324q0 -28 11 -37.5t43 -14.5v-19h-188z" />
    <glyph glyph-name="uni0434" unicode="&#x434;" horiz-adv-x="578" 
d="M20 -110v130q0 10 10 11q141 20 141 362q0 36 -79 39v19h464v-19q-79 -3 -79 -38v-320q0 -25 16.5 -34.5t55.5 -9.5q13 0 11 -12l-24 -128h-19q0 76 -24 93t-127 17h-161q-106 0 -136 -20.5t-30 -89.5h-19zM97 30h242q29 0 43.5 9.5t14.5 34.5v317q0 16 -8 23t-28 7h-129
q-18 0 -24.5 -6t-6.5 -22q0 -139 -26.5 -236.5t-77.5 -126.5z" />
    <glyph glyph-name="uni0435" unicode="&#x435;" horiz-adv-x="476" 
d="M426 105l17 -13q-19 -35 -67 -66.5t-115 -31.5q-97 0 -164 64t-67 168q0 107 69 170.5t165 63.5q78 0 127.5 -42t49.5 -105q0 -46 -41 -63.5t-141 -19.5l-117 -2q-26 0 -21 -37q18 -66 67.5 -104t116.5 -38q77 0 121 56zM248 436q-59 0 -93.5 -38t-40.5 -105
q-1 -25 6 -33.5t24 -8.5l88 2q70 1 98.5 17.5t28.5 52.5q0 51 -29 82t-82 31z" />
    <glyph glyph-name="uni0436" unicode="&#x436;" horiz-adv-x="767" 
d="M653 88q59 -62 94 -69v-19h-177v19q42 9 17 36l-122 132q-12 14 -31 14h-10v-130q0 -28 11 -37.5t43 -14.5v-19h-188v19q32 5 43 14.5t11 37.5v130h-10q-20 0 -32 -14l-122 -132q-25 -27 17 -36v-19h-177v19q35 7 94 69l137 146q16 18 0 38l-107 123q-10 12 -17.5 12.5
t-12.5 -6t-15.5 -13t-23.5 -6.5q-16 0 -28 9.5t-12 27.5q0 17 13 27.5t36 10.5q25 0 43.5 -13.5t41.5 -40.5l110 -129q25 -30 54 -30h11v136q0 28 -11 37.5t-43 14.5v19h188v-19q-32 -5 -43 -14.5t-11 -37.5v-136h10q29 0 54 30l110 129q23 27 41.5 40.5t44.5 13.5
q23 0 36 -10.5t13 -27.5t-12.5 -27t-28.5 -10q-13 0 -23.5 6.5t-15.5 13t-12.5 6t-17.5 -12.5l-106 -123q-18 -20 0 -38z" />
    <glyph glyph-name="uni0437" unicode="&#x437;" horiz-adv-x="432" 
d="M206 -8q-81 0 -128.5 40t-47.5 98q0 19 9.5 29.5t26.5 10.5q18 0 24.5 -8t11 -32.5t10.5 -39.5q11 -30 37.5 -51t66.5 -21q49 0 78 34t29 84q0 43 -22.5 67t-57.5 24q-17 0 -56 -16l-9 22q64 24 89.5 52.5t25.5 77.5q0 71 -72 71q-92 0 -119 -101q-1 -3 -2.5 -8.5
t-2 -7.5t-2.5 -5t-3.5 -4t-4 -2t-6.5 -1q-24 0 -24 39.5t14 76.5q75 39 152 39q70 0 107 -30t37 -75q0 -32 -20 -58.5t-51 -39.5q47 -3 79 -31t32 -77q0 -68 -59 -112.5t-142 -44.5z" />
    <glyph glyph-name="uni0438" unicode="&#x438;" horiz-adv-x="568" 
d="M538 432q-33 -5 -44 -14.5t-11 -37.5v-309q0 -28 11 -37.5t44 -14.5v-19h-189v19q32 5 43 14.5t11 37.5v261l-239 -245v-16q0 -28 11 -37.5t43 -14.5v-19h-188v19q32 5 43 14.5t11 37.5v309q0 28 -11 37.5t-43 14.5v19h188v-19q-32 -5 -43 -14.5t-11 -37.5v-261l239 245
v16q0 28 -11 37.5t-43 14.5v19h189v-19z" />
    <glyph glyph-name="uni0439" unicode="&#x439;" horiz-adv-x="568" 
d="M284 561q-61 0 -96 34t-35 85q0 11 8 11h11q8 0 10 -8q5 -26 32.5 -45.5t69.5 -19.5t69.5 19.5t33.5 45.5q2 8 10 8h11q8 0 8 -11q0 -51 -35.5 -85t-96.5 -34zM538 432q-33 -5 -44 -14.5t-11 -37.5v-309q0 -28 11 -37.5t44 -14.5v-19h-189v19q32 5 43 14.5t11 37.5v261
l-239 -245v-16q0 -28 11 -37.5t43 -14.5v-19h-188v19q32 5 43 14.5t11 37.5v309q0 28 -11 37.5t-43 14.5v19h188v-19q-32 -5 -43 -14.5t-11 -37.5v-261l239 245v16q0 28 -11 37.5t-43 14.5v19h189v-19z" />
    <glyph glyph-name="uni043A" unicode="&#x43a;" horiz-adv-x="503" 
d="M394 88q57 -62 94 -69v-19h-177v19q41 9 16 36l-122 132q-12 14 -31 14h-10v-130q0 -28 11 -37.5t43 -14.5v-19h-188v19q32 5 43 14.5t11 37.5v309q0 28 -11 37.5t-43 14.5v19h188v-19q-32 -5 -43 -14.5t-11 -37.5v-136h11q29 0 54 30l110 129q23 28 41 41t44 13
q23 0 36 -10.5t13 -27.5t-12.5 -27t-27.5 -10q-16 0 -29.5 11t-18.5 14t-22 -12l-106 -123q-16 -20 0 -38z" />
    <glyph glyph-name="uni043B" unicode="&#x43b;" horiz-adv-x="588" 
d="M107 -11q-39 0 -63 16.5t-24 47.5q0 23 13.5 36t33.5 13t27.5 -13t6 -28t5 -28t25.5 -13q14 0 24.5 7t17 22t10.5 31t6 41t2.5 44t0.5 48v167q0 27 -17.5 37t-63.5 15v19h447v-19q-33 -5 -44 -14.5t-11 -37.5v-309q0 -28 11 -37.5t44 -14.5v-19h-189v19q32 5 43 14.5
t11 37.5v309q0 27 -10.5 34t-43.5 7h-94q-33 0 -43.5 -7t-10.5 -34v-159q0 -47 -1.5 -75t-7.5 -61.5t-17.5 -52t-33.5 -31t-54 -12.5z" />
    <glyph glyph-name="uni043C" unicode="&#x43c;" horiz-adv-x="623" 
d="M593 432q-32 -5 -43 -14.5t-11 -37.5v-309q0 -28 11 -37.5t43 -14.5v-19h-188v19q32 5 43 14.5t11 37.5v314l-162 -348h-21l-164 343v-309q0 -28 10.5 -37.5t42.5 -14.5v-19h-135v19q32 5 43 14.5t11 37.5v309q0 28 -11 37.5t-43 14.5v19h131l151 -317l147 317h134v-19z
" />
    <glyph glyph-name="uni043D" unicode="&#x43d;" horiz-adv-x="583" 
d="M553 432q-33 -5 -44 -14.5t-11 -37.5v-309q0 -28 11 -37.5t44 -14.5v-19h-189v19q32 5 43 14.5t11 37.5v138h-254v-138q0 -28 11 -37.5t43 -14.5v-19h-188v19q32 5 43 14.5t11 37.5v309q0 28 -11 37.5t-43 14.5v19h188v-19q-32 -5 -43 -14.5t-11 -37.5v-141h254v141
q0 28 -11 37.5t-43 14.5v19h189v-19z" />
    <glyph glyph-name="uni043E" unicode="&#x43e;" horiz-adv-x="527" 
d="M262 -6q-95 0 -163.5 64t-68.5 168q0 105 69 169.5t166 64.5q96 0 164 -63.5t68 -167.5q0 -105 -69 -170t-166 -65zM286 21q57 0 92 44.5t35 129.5q0 98 -49 168t-123 70q-57 0 -92 -44t-35 -130q0 -98 49.5 -168t122.5 -70z" />
    <glyph glyph-name="uni043F" unicode="&#x43f;" horiz-adv-x="588" 
d="M30 0v19q32 5 43 14.5t11 37.5v309q0 28 -11 37.5t-43 14.5v19h528v-19q-33 -5 -44 -14.5t-11 -37.5v-309q0 -28 11 -37.5t44 -14.5v-19h-189v19q32 5 43 14.5t11 37.5v309q0 27 -10.5 34t-43.5 7h-151q-33 0 -43.5 -7t-10.5 -34v-309q0 -28 11 -37.5t43 -14.5v-19h-188z
" />
    <glyph glyph-name="uni0440" unicode="&#x440;" horiz-adv-x="556" 
d="M329 460q84 0 140.5 -62t56.5 -163q0 -112 -63.5 -176.5t-152.5 -64.5q-27 0 -53 6.5t-40.5 13.5t-26 11t-16 -0.5t-4.5 -21.5v-119q0 -27 14 -38.5t51 -15.5v-20h-209v20q36 4 50 15.5t14 38.5v473q0 35 -12.5 48t-52.5 9v19l110 25q35 8 35 -29v-20q0 -8 5.5 -10
t13.5 6q16 20 55 37.5t85 17.5zM316 21q60 0 94 47t34 126q0 90 -44 150.5t-112 60.5q-47 0 -82.5 -26t-35.5 -85v-126q0 -71 45 -109t101 -38z" />
    <glyph glyph-name="uni0441" unicode="&#x441;" horiz-adv-x="483" 
d="M266 -6q-97 0 -166.5 64t-69.5 166q0 107 73 171.5t174 64.5q73 0 118.5 -37t45.5 -82q0 -20 -12 -33t-32 -13q-19 0 -32 11t-13 33q0 39 -24.5 68t-74.5 29q-63 0 -102 -47.5t-39 -126.5q0 -97 56.5 -155t140.5 -58q77 0 123 56l16 -13q-19 -35 -66.5 -66.5
t-115.5 -31.5z" />
    <glyph glyph-name="uni0442" unicode="&#x442;" horiz-adv-x="455" 
d="M129 0v19q36 5 47.5 14.5t11.5 37.5v311q0 25 -13 32t-48 7q-40 0 -56 -14.5t-32 -59.5h-19l12 104h392l11 -104h-19q-16 46 -31.5 60t-54.5 14q-36 0 -49 -7t-13 -32v-311q0 -28 11.5 -37.5t47.5 -14.5v-19h-198z" />
    <glyph glyph-name="uni0443" unicode="&#x443;" horiz-adv-x="523" 
d="M119 -198q-37 0 -58.5 17t-21.5 44q0 22 14.5 35.5t36.5 13.5q19 0 28 -11.5t10 -25.5t6.5 -25.5t19.5 -11.5q31 0 60 76q23 57 -4 129l-120 295q-19 48 -33.5 64.5t-46.5 28.5v20h199v-20q-41 -12 -46.5 -28t14.5 -65l96 -235q5 -9 11 -9t10 9l51 131q33 83 39.5 123.5
t-4.5 52.5t-44 21v20h177v-20q-43 -12 -61 -29t-37 -64l-168 -415q-26 -63 -51.5 -92t-76.5 -29z" />
    <glyph glyph-name="uni0444" unicode="&#x444;" horiz-adv-x="852" 
d="M625 460q84 0 140.5 -62t56.5 -163q0 -112 -63.5 -176.5t-152.5 -64.5q-27 0 -53 6.5t-40.5 13.5t-26 11t-16 -0.5t-4.5 -21.5v-119q0 -27 14 -38.5t51 -15.5v-20h-209v20q36 4 50 15.5t14 38.5v189q-64 -79 -158 -79q-84 0 -141 61.5t-57 162.5q0 112 64 177t154 65
q25 0 50.5 -5.5t39.5 -11t26 -8.5t17 2.5t5 21.5v95q0 36 -12.5 49t-52.5 9v19l110 24q35 8 35 -28v-218q0 -8 5.5 -10t13.5 6q16 20 55 37.5t85 17.5zM273 49q44 0 78.5 24.5t34.5 78.5v142q0 67 -45 103t-102 36q-59 0 -93 -47.5t-34 -126.5q0 -91 44.5 -150.5
t116.5 -59.5zM612 21q60 0 94 47t34 126q0 90 -44 150.5t-112 60.5q-47 0 -82.5 -26t-35.5 -85v-126q0 -71 45 -109t101 -38z" />
    <glyph glyph-name="uni0445" unicode="&#x445;" horiz-adv-x="495" 
d="M480 431q-46 -12 -71.5 -31t-68.5 -74l-62 -80l96 -135q31 -43 53 -62t53 -29v-20h-201v20q27 7 34 18.5t0.5 26.5t-28.5 46l-53 75q-35 -47 -53 -76t-20.5 -47.5t6.5 -27.5t31 -15v-20h-181v20q46 12 72 31.5t69 73.5l62 81l-95 134q-30 42 -52.5 61.5t-54.5 29.5v20
h201v-20q-27 -7 -34 -18t-0.5 -26.5t29.5 -46.5l52 -74q47 61 63 94.5t8.5 48t-36.5 22.5v20h181v-20z" />
    <glyph glyph-name="uni0446" unicode="&#x446;" horiz-adv-x="604" 
d="M543 -110q0 77 -27 93.5t-147 16.5h-339v19q32 5 43 14.5t11 37.5v309q0 28 -11 37.5t-43 14.5v19h188v-19q-32 -5 -43 -14.5t-11 -37.5v-309q0 -26 10.5 -33.5t43.5 -7.5h151q21 0 30.5 1.5t16.5 9t7 22.5v317q0 28 -11 37.5t-43 14.5v19h189v-19q-33 -5 -44 -14.5
t-11 -37.5v-318q0 -16 7 -23t17 -8t36 -1h11q14 0 12 -12l-24 -128h-19z" />
    <glyph glyph-name="uni0447" unicode="&#x447;" horiz-adv-x="555" 
d="M525 429q-32 -5 -43 -14.5t-11 -36.5v-305q0 -27 11 -36.5t43 -14.5v-22h-190v22q32 5 43 14.5t11 36.5v106q0 16 -6 15q-3 0 -31 -25q-64 -55 -135 -55q-62 0 -102.5 41.5t-40.5 139.5v83q0 27 -11 36.5t-43 14.5v22h191v-22q-32 -5 -43 -14.5t-11 -36.5v-83
q0 -59 27.5 -97.5t76.5 -38.5q51 0 89.5 39t38.5 94v86q0 27 -11 36.5t-43 14.5v22h190v-22z" />
    <glyph glyph-name="uni0448" unicode="&#x448;" horiz-adv-x="740" 
d="M30 0v19q32 5 43 14.5t11 37.5v309q0 28 -11 37.5t-43 14.5v19h188v-19q-32 -5 -43 -14.5t-11 -37.5v-309q0 -26 10.5 -33.5t43.5 -7.5h58q33 0 43.5 7.5t10.5 33.5v309q0 28 -11 37.5t-43 14.5v19h188v-19q-32 -5 -43 -14.5t-11 -37.5v-309q0 -26 10.5 -33.5t43.5 -7.5
h58q33 0 43.5 7.5t10.5 33.5v309q0 28 -11 37.5t-43 14.5v19h188v-19q-32 -5 -43 -14.5t-11 -37.5v-309q0 -28 11 -37.5t43 -14.5v-19h-680z" />
    <glyph glyph-name="uni0449" unicode="&#x449;" horiz-adv-x="757" 
d="M727 30q13 0 12 -12l-24 -128h-19q0 77 -27 93.5t-147 16.5h-492v19q32 5 43 14.5t11 37.5v309q0 28 -11 37.5t-43 14.5v19h188v-19q-32 -5 -43 -14.5t-11 -37.5v-309q0 -26 10.5 -33.5t43.5 -7.5h58q33 0 43.5 7.5t10.5 33.5v309q0 28 -11 37.5t-43 14.5v19h188v-19
q-32 -5 -43 -14.5t-11 -37.5v-309q0 -26 10.5 -33.5t43.5 -7.5h58q33 0 43.5 7.5t10.5 33.5v309q0 28 -11 37.5t-43 14.5v19h188v-19q-32 -5 -43 -14.5t-11 -37.5v-309q0 -21 6 -32q9 -9 65 -9z" />
    <glyph glyph-name="uni044A" unicode="&#x44a;" horiz-adv-x="544" 
d="M305 320q97 0 155.5 -42.5t58.5 -118.5t-58.5 -117.5t-155.5 -41.5h-206v19q32 5 43 14.5t11 37.5v309v6q-1 19 -11 27t-34 8q-27 0 -44 -12t-30 -42h-19l13 84h259v-19q-32 -5 -43 -14.5t-11 -37.5v-40q0 -8 6 -14t14 -6h52zM304 29q67 0 97 36t30 94t-29.5 94.5
t-96.5 36.5h-52q-8 0 -14 -6t-6 -14v-199q0 -26 13.5 -34t57.5 -8z" />
    <glyph glyph-name="uni044B" unicode="&#x44b;" horiz-adv-x="698" 
d="M30 0v19q32 5 43 14.5t11 37.5v309q0 28 -11 37.5t-43 14.5v19h188v-19q-32 -5 -43 -14.5t-11 -37.5v-40q0 -8 6 -14t14 -6h52q97 0 155.5 -42.5t58.5 -118.5t-58.5 -117.5t-155.5 -41.5h-206zM479 0v19q32 5 43 14.5t11 37.5v309q0 28 -11 37.5t-43 14.5v19h189v-19
q-33 -5 -44 -14.5t-11 -37.5v-309q0 -28 11 -37.5t44 -14.5v-19h-189zM235 29q67 0 97.5 36.5t30.5 93.5q0 58 -30 94.5t-97 36.5h-52q-8 0 -14 -6t-6 -14v-199q0 -26 13.5 -34t57.5 -8z" />
    <glyph glyph-name="uni044C" unicode="&#x44c;" horiz-adv-x="473" 
d="M30 0v19q32 5 43 14.5t11 37.5v309q0 28 -11 37.5t-43 14.5v19h188v-19q-32 -5 -43 -14.5t-11 -37.5v-40q0 -8 6 -14t14 -6h52q97 0 155.5 -42.5t58.5 -118.5t-58.5 -117.5t-155.5 -41.5h-206zM235 29q67 0 97.5 36.5t30.5 93.5q0 58 -30 94.5t-97 36.5h-52q-8 0 -14 -6
t-6 -14v-199q0 -26 13.5 -34t57.5 -8z" />
    <glyph glyph-name="uni044D" unicode="&#x44d;" horiz-adv-x="483" 
d="M207 460q101 0 173.5 -64.5t72.5 -171.5q0 -102 -69.5 -166t-166.5 -64q-68 0 -115.5 31.5t-66.5 66.5l16 13q47 -56 123 -56q73 0 126.5 45t66.5 122h-153v26h156q1 7 1 20q0 79 -38.5 126.5t-102.5 47.5q-49 0 -74 -29t-25 -68q0 -22 -13 -33t-32 -11q-20 0 -32 13
t-12 33q0 45 46 82t119 37z" />
    <glyph glyph-name="uni044E" unicode="&#x44e;" horiz-adv-x="755" 
d="M493 460q96 0 164 -63.5t68 -167.5q0 -105 -69 -170t-166 -65q-93 0 -160.5 60.5t-71.5 160.5h-94v-144q0 -28 11 -37.5t43 -14.5v-19h-188v19q32 5 43 14.5t11 37.5v309q0 28 -11 37.5t-43 14.5v19h188v-19q-32 -5 -43 -14.5t-11 -37.5v-138h94q6 98 74 158t161 60z
M514 21q57 0 92 44.5t35 129.5q0 98 -49.5 168t-122.5 70q-57 0 -92 -44t-35 -130q0 -98 49.5 -168t122.5 -70z" />
    <glyph glyph-name="uni044F" unicode="&#x44f;" horiz-adv-x="502" 
d="M472 432q-32 -5 -43 -14.5t-11 -37.5v-309q0 -28 11 -37.5t43 -14.5v-19h-188v19q32 5 43 14.5t11 37.5v127h-77q-38 0 -54 -17.5t-29 -65.5q-15 -58 -46.5 -86.5t-96.5 -28.5h-20v19q54 10 77 100q8 37 27 59t62 28q-59 8 -92.5 40t-33.5 77q0 57 43 92.5t119 35.5h255
v-19zM243 228h95v152q0 27 -10.5 34t-43.5 7h-46q-97 0 -97 -98q0 -95 102 -95z" />
    <glyph glyph-name="uni0450" unicode="&#x450;" horiz-adv-x="476" 
d="M139 606q-25 15 -30.5 34.5t6.5 29.5q27 29 62 -8l99 -105q15 -14 9 -25q-7 -10 -29 3zM426 105l17 -13q-19 -35 -67 -66.5t-115 -31.5q-97 0 -164 64t-67 168q0 107 69 170.5t165 63.5q78 0 127.5 -42t49.5 -105q0 -46 -41 -63.5t-141 -19.5l-117 -2q-26 0 -21 -37
q18 -66 67.5 -104t116.5 -38q77 0 121 56zM248 436q-59 0 -93.5 -38t-40.5 -105q-1 -25 6 -33.5t24 -8.5l88 2q70 1 98.5 17.5t28.5 52.5q0 51 -29 82t-82 31z" />
    <glyph glyph-name="uni0451" unicode="&#x451;" horiz-adv-x="476" 
d="M147 568q-20 0 -35 15.5t-15 35.5t15 35t35 15t35 -15t15 -35t-15 -35.5t-35 -15.5zM331 568q-20 0 -35 15.5t-15 35.5t15 35t35 15t35 -15t15 -35t-15 -35.5t-35 -15.5zM426 105l17 -13q-19 -35 -67 -66.5t-115 -31.5q-97 0 -164 64t-67 168q0 107 69 170.5t165 63.5
q78 0 127.5 -42t49.5 -105q0 -46 -41 -63.5t-141 -19.5l-117 -2q-26 0 -21 -37q18 -66 67.5 -104t116.5 -38q77 0 121 56zM248 436q-59 0 -93.5 -38t-40.5 -105q-1 -25 6 -33.5t24 -8.5l88 2q70 1 98.5 17.5t28.5 52.5q0 51 -29 82t-82 31z" />
    <glyph glyph-name="uni0453" unicode="&#x453;" horiz-adv-x="437" 
d="M186 557q-14 -14 -8 -25q6 -9 29 3l117 71q25 15 30.5 34.5t-6.5 29.5q-28 30 -63 -8zM30 0v19q32 5 43 14.5t11 37.5v315q0 24 -12.5 33.5t-41.5 12.5v19h365l18 -105h-19q-17 44 -39.5 59.5t-78.5 15.5h-87q-25 0 -25 -26v-324q0 -28 11 -37.5t43 -14.5v-19h-188z" />
    <glyph glyph-name="uni0454" unicode="&#x454;" horiz-adv-x="483" 
d="M432 105l16 -13q-19 -35 -66.5 -66.5t-115.5 -31.5q-97 0 -166.5 64t-69.5 166q0 107 73 171.5t174 64.5q73 0 118.5 -37t45.5 -82q0 -20 -12 -33t-32 -13q-19 0 -32 11t-13 33q0 39 -24.5 68t-74.5 29q-63 0 -102 -47.5t-39 -126.5q0 -13 1 -20h156v-26h-153
q13 -77 66.5 -122t126.5 -45q77 0 123 56z" />
    <glyph glyph-name="uni0455" unicode="&#x455;" horiz-adv-x="417" 
d="M195 -6q-69 0 -119.5 29.5t-50.5 83.5q0 48 39 48q17 0 27.5 -10.5t10.5 -22.5q0 -51 35 -77.5t81 -26.5q45 0 68.5 21t23.5 59q0 17 -8 31t-17 22.5t-30 18t-31.5 13t-37.5 11.5q-30 9 -52.5 19.5t-46 26.5t-36.5 39.5t-13 53.5q0 57 47.5 92t124.5 35q68 0 116.5 -27.5
t48.5 -74.5q0 -45 -43 -45q-34 0 -34 35q0 38 -30 63t-72 25q-80 0 -80 -71q0 -41 25.5 -60.5t80.5 -37.5q91 -29 122 -52q47 -35 48 -88q0 -59 -56 -96t-141 -37z" />
    <glyph glyph-name="uni0456" unicode="&#x456;" horiz-adv-x="260" 
d="M121 568q-20 0 -35 15.5t-15 35.5t15 35t35 15t35 -15t15 -35t-15 -35.5t-35 -15.5zM26 0v20q36 5 50 16t14 38v283q0 35 -12.5 48t-52.5 9v19l110 25q35 8 35 -29v-355q0 -27 14 -38t51 -16v-20h-209z" />
    <glyph glyph-name="uni0457" unicode="&#x457;" horiz-adv-x="260" 
d="M27 568q-20 0 -35 15.5t-15 35.5t15 35t35 15t35 -15t15 -35t-15 -35.5t-35 -15.5zM211 568q-20 0 -35 15.5t-15 35.5t15 35t35 15t35 -15t15 -35t-15 -35.5t-35 -15.5zM26 0v20q36 5 50 16t14 38v283q0 35 -12.5 48t-52.5 9v19l110 25q35 8 35 -29v-355q0 -27 14 -38
t51 -16v-20h-209z" />
    <glyph glyph-name="uni0458" unicode="&#x458;" horiz-adv-x="229" 
d="M114 568q-20 0 -35 15.5t-15 35.5t15 35t35 15t35 -15t15 -35t-15 -35.5t-35 -15.5zM36 -200q-38 0 -66 16t-28 46q0 18 10.5 29t29.5 11q14 0 25 -11.5t17.5 -25t15.5 -25t20 -11.5t17.5 15t6.5 37v476q0 35 -12.5 48t-52.5 9v19l110 25q35 8 35 -29v-491
q0 -65 -35 -101.5t-93 -36.5z" />
    <glyph glyph-name="uni045E" unicode="&#x45e;" horiz-adv-x="523" 
d="M263 561q-61 0 -96 34t-35 85q0 11 8 11h11q8 0 10 -8q5 -26 32.5 -45.5t69.5 -19.5t69.5 19.5t33.5 45.5q2 8 10 8h11q8 0 8 -11q0 -51 -35.5 -85t-96.5 -34zM119 -198q-37 0 -58.5 17t-21.5 44q0 22 14.5 35.5t36.5 13.5q19 0 28 -11.5t10 -25.5t6.5 -25.5t19.5 -11.5
q31 0 60 76q23 57 -4 129l-120 295q-19 48 -33.5 64.5t-46.5 28.5v20h199v-20q-41 -12 -46.5 -28t14.5 -65l96 -235q5 -9 11 -9t10 9l51 131q33 83 39.5 123.5t-4.5 52.5t-44 21v20h177v-20q-43 -12 -61 -29t-37 -64l-168 -415q-26 -63 -51.5 -92t-76.5 -29z" />
    <glyph glyph-name="uni0490" unicode="&#x490;" horiz-adv-x="519" 
d="M30 0v21q33 6 46.5 15.5t13.5 35.5v477q0 26 -13 35.5t-47 16.5v20h338q32 0 52.5 7t27.5 13.5t23 24.5h23l-21 -72h-231q-32 0 -46.5 -9.5t-14.5 -35.5v-477q0 -26 15 -35.5t56 -15.5v-21h-222z" />
    <glyph glyph-name="uni0491" unicode="&#x491;" horiz-adv-x="428" 
d="M30 0v19q32 5 43 14.5t11 37.5v315q0 24 -12.5 33.5t-41.5 12.5v19h246q56 0 78 11.5t35 42.5h19l-13 -84h-206q-25 0 -25 -26v-324q0 -28 11 -37.5t43 -14.5v-19h-188z" />
    <glyph glyph-name="uni04E8" unicode="&#x4e8;" horiz-adv-x="701" 
d="M356 637q135 0 225 -90.5t90 -226.5q0 -141 -94 -235.5t-232 -94.5q-135 0 -225 90.5t-90 227.5q0 140 94 234.5t232 94.5zM333 605q-84 0 -143.5 -64t-59.5 -196v-16h439q-12 123 -79 199.5t-157 76.5zM368 22q84 0 143.5 64.5t59.5 197.5v14h-439q12 -123 79 -199.5
t157 -76.5z" />
    <glyph glyph-name="uni04E9" unicode="&#x4e9;" horiz-adv-x="527" 
d="M265 460q96 0 164 -63.5t68 -167.5q0 -105 -69 -170t-166 -65q-95 0 -163.5 64t-68.5 168q0 105 69 169.5t166 64.5zM241 433q-57 0 -92 -44t-35 -130q0 -13 1 -19h295q-12 83 -58 138t-111 55zM286 21q57 0 92 44.5t35 129.5q0 13 -1 20h-295q11 -83 57.5 -138.5
t111.5 -55.5z" />
    <glyph glyph-name="Wgrave" unicode="&#x1e80;" horiz-adv-x="1015" 
d="M542 727l-99 105q-35 37 -62 8q-12 -10 -6.5 -29.5t30.5 -34.5l117 -71q22 -13 29 -3q6 11 -9 25zM310 0l-196 502q-21 55 -39 74t-55 24v21h220v-20q-44 -8 -51.5 -23t6.5 -45l155 -402q10 -24 20 0l98 254q19 51 -6 117q-22 56 -39.5 74.5t-54.5 23.5v21h219v-20
q-44 -8 -51.5 -23t7.5 -45l154 -402q10 -24 20 0l152 397q12 32 -3.5 49.5t-59.5 23.5v20h189v-20q-37 -8 -56 -23t-33 -50l-174 -451q-19 -52 -19 -77h-56l-151 390l-121 -313q-20 -54 -20 -77h-55z" />
    <glyph glyph-name="wgrave" unicode="&#x1e81;" horiz-adv-x="754" 
d="M460 557l-99 105q-35 38 -63 8q-12 -10 -6.5 -29.5t31.5 -34.5l117 -71q22 -13 29 -3q6 11 -9 25zM223 0l-133 338q-18 48 -32.5 64.5t-47.5 28.5v20h197v-20q-41 -12 -46.5 -28t14.5 -65l89 -230q5 -12 11.5 -12t11.5 12l37 104q29 84 5 145q-12 31 -27.5 46.5
t-46.5 27.5v20h196v-20q-40 -12 -45.5 -28t13.5 -65l90 -230q5 -12 12 -12t11 12l44 126q24 66 33.5 101.5t6 55.5t-13.5 26.5t-36 13.5v20h178v-20q-44 -12 -61.5 -29t-36.5 -64l-133 -338h-46l-100 254l-99 -254h-45z" />
    <glyph glyph-name="Wacute" unicode="&#x1e82;" horiz-adv-x="1015" 
d="M485 727q-14 -14 -8 -25q6 -9 29 3l117 71q25 15 30.5 34.5t-6.5 29.5q-28 30 -63 -8zM310 0l-196 502q-21 55 -39 74t-55 24v21h220v-20q-44 -8 -51.5 -23t6.5 -45l155 -402q10 -24 20 0l98 254q19 51 -6 117q-22 56 -39.5 74.5t-54.5 23.5v21h219v-20q-44 -8 -51.5 -23
t7.5 -45l154 -402q10 -24 20 0l152 397q12 32 -3.5 49.5t-59.5 23.5v20h189v-20q-37 -8 -56 -23t-33 -50l-174 -451q-19 -52 -19 -77h-56l-151 390l-121 -313q-20 -54 -20 -77h-55z" />
    <glyph glyph-name="wacute" unicode="&#x1e83;" horiz-adv-x="754" 
d="M365 557q-15 -14 -9 -25q7 -10 29 3l117 71q25 15 30.5 34.5t-6.5 29.5q-27 29 -62 -8zM223 0l-133 338q-18 48 -32.5 64.5t-47.5 28.5v20h197v-20q-41 -12 -46.5 -28t14.5 -65l89 -230q5 -12 11.5 -12t11.5 12l37 104q29 84 5 145q-12 31 -27.5 46.5t-46.5 27.5v20h196
v-20q-40 -12 -45.5 -28t13.5 -65l90 -230q5 -12 12 -12t11 12l44 126q24 66 33.5 101.5t6 55.5t-13.5 26.5t-36 13.5v20h178v-20q-44 -12 -61.5 -29t-36.5 -64l-133 -338h-46l-100 254l-99 -254h-45z" />
    <glyph glyph-name="Wdieresis" unicode="&#x1e84;" horiz-adv-x="1015" 
d="M413 738q-20 0 -35 15.5t-15 35.5t15 35t35 15t35 -15t15 -35t-15 -35.5t-35 -15.5zM597 738q-20 0 -35 15.5t-15 35.5t15 35t35 15t35 -15t15 -35t-15 -35.5t-35 -15.5zM310 0l-196 502q-21 55 -39 74t-55 24v21h220v-20q-44 -8 -51.5 -23t6.5 -45l155 -402q10 -24 20 0
l98 254q19 51 -6 117q-22 56 -39.5 74.5t-54.5 23.5v21h219v-20q-44 -8 -51.5 -23t7.5 -45l154 -402q10 -24 20 0l152 397q12 32 -3.5 49.5t-59.5 23.5v20h189v-20q-37 -8 -56 -23t-33 -50l-174 -451q-19 -52 -19 -77h-56l-151 390l-121 -313q-20 -54 -20 -77h-55z" />
    <glyph glyph-name="wdieresis" unicode="&#x1e85;" horiz-adv-x="754" 
d="M282 568q-20 0 -35 15.5t-15 35.5t15 35t35 15t35 -15t15 -35t-15 -35.5t-35 -15.5zM465 568q-19 0 -34 15.5t-15 35.5t14.5 35t34.5 15t35 -15t15 -35t-15 -35.5t-35 -15.5zM223 0l-133 338q-18 48 -32.5 64.5t-47.5 28.5v20h197v-20q-41 -12 -46.5 -28t14.5 -65
l89 -230q5 -12 11.5 -12t11.5 12l37 104q29 84 5 145q-12 31 -27.5 46.5t-46.5 27.5v20h196v-20q-40 -12 -45.5 -28t13.5 -65l90 -230q5 -12 12 -12t11 12l44 126q24 66 33.5 101.5t6 55.5t-13.5 26.5t-36 13.5v20h178v-20q-44 -12 -61.5 -29t-36.5 -64l-133 -338h-46
l-100 254l-99 -254h-45z" />
    <glyph glyph-name="uni1EBC" unicode="&#x1ebc;" 
d="M361 720q-43 0 -105.5 31.5t-81.5 31.5q-17 0 -29.5 -12t-12.5 -34h-22q0 50 27.5 77.5t68.5 27.5q42 0 104.5 -31.5t82.5 -31.5q17 0 29.5 12.5t12.5 33.5h22q0 -50 -27.5 -77.5t-68.5 -27.5zM30 0v21q33 6 46.5 15.5t13.5 35.5v477q0 26 -13 35.5t-47 16.5v20h454
q14 0 15 -12q6 -52 20 -109h-19q-18 46 -48.5 67.5t-80.5 21.5h-128q-32 0 -47 -9t-15 -34v-171q0 -25 15 -34t47 -9h99q43 0 59 16t23 54h16v-173h-16q-7 37 -23 54t-59 17h-99q-32 0 -47 -9t-15 -34v-181q0 -26 19.5 -35t74.5 -8l115 1q50 1 73 13.5t37 36.5l24 37h20
q-23 -44 -30 -107q-2 -14 -16 -14h-468z" />
    <glyph glyph-name="uni1EBD" unicode="&#x1ebd;" horiz-adv-x="476" 
d="M130 613q-17 0 -29.5 -12t-12.5 -34h-22q0 50 27.5 77.5t68.5 27.5q42 0 104.5 -31.5t82.5 -31.5q17 0 29.5 12.5t12.5 33.5h22q0 -50 -27.5 -77.5t-68.5 -27.5q-43 0 -105.5 31.5t-81.5 31.5zM426 105l17 -13q-19 -35 -67 -66.5t-115 -31.5q-97 0 -164 64t-67 168
q0 107 69 170.5t165 63.5q78 0 127.5 -42t49.5 -105q0 -46 -41 -63.5t-141 -19.5l-117 -2q-26 0 -21 -37q18 -66 67.5 -104t116.5 -38q77 0 121 56zM248 436q-59 0 -93.5 -38t-40.5 -105q-1 -25 6 -33.5t24 -8.5l88 2q70 1 98.5 17.5t28.5 52.5q0 51 -29 82t-82 31z" />
    <glyph glyph-name="Ygrave" unicode="&#x1ef2;" horiz-adv-x="636" 
d="M356 727l-99 105q-35 37 -62 8q-12 -10 -6.5 -29.5t30.5 -34.5l117 -71q22 -13 29 -3q6 11 -9 25zM193 0v21q47 6 63.5 15t16.5 36v170q0 23 -21 57l-131 207q-30 47 -52.5 66.5t-53.5 28.5v20h222v-20q-39 -8 -44.5 -24.5t15.5 -47.5l130 -206q7 -9 14 0l123 202
q19 27 14.5 43.5t-17 23t-35.5 9.5v20h184v-20q-35 -4 -58 -21.5t-52 -63.5l-133 -213q-14 -23 -14 -61v-170q0 -27 16.5 -36t63.5 -15v-21h-251z" />
    <glyph glyph-name="ygrave" unicode="&#x1ef3;" horiz-adv-x="523" 
d="M301 557l-99 105q-35 37 -62 8q-12 -10 -6.5 -29.5t30.5 -34.5l117 -71q22 -13 29 -3q6 11 -9 25zM119 -198q-37 0 -58.5 17t-21.5 44q0 22 14.5 35.5t36.5 13.5q19 0 28 -11.5t10 -25.5t6.5 -25.5t19.5 -11.5q31 0 60 76q23 57 -4 129l-120 295q-19 48 -33.5 64.5
t-46.5 28.5v20h199v-20q-41 -12 -46.5 -28t14.5 -65l96 -235q5 -9 11 -9t10 9l51 131q33 83 39.5 123.5t-4.5 52.5t-44 21v20h177v-20q-43 -12 -61 -29t-37 -64l-168 -415q-26 -63 -51.5 -92t-76.5 -29z" />
    <glyph glyph-name="endash" unicode="&#x2013;" horiz-adv-x="682" 
d="M50 275h582v-26h-582v26z" />
    <glyph glyph-name="emdash" unicode="&#x2014;" horiz-adv-x="919" 
d="M50 275h819v-26h-819v26z" />
    <glyph glyph-name="uni2015" unicode="&#x2015;" horiz-adv-x="919" 
d="M50 275h819v-26h-819v26z" />
    <glyph glyph-name="quoteleft" unicode="&#x2018;" horiz-adv-x="175" 
d="M102 638l12 -14q-15 -12 -25 -31t-10 -31q0 -17 15 -17q22 0 36.5 -14.5t14.5 -37.5q0 -24 -16 -38.5t-39 -14.5q-29 0 -44.5 21t-15.5 52q0 35 20 69.5t52 55.5z" />
    <glyph glyph-name="quoteright" unicode="&#x2019;" horiz-adv-x="175" 
d="M74 438l-13 15q15 12 25.5 30.5t10.5 30.5q0 18 -16 18q-22 0 -36.5 14.5t-14.5 37.5q0 24 16.5 38.5t39.5 14.5q29 0 44 -21t15 -52q0 -36 -19.5 -70t-51.5 -56z" />
    <glyph glyph-name="quotesinglbase" unicode="&#x201a;" horiz-adv-x="175" 
d="M74 -95l-13 14q15 13 25.5 31.5t10.5 30.5q0 17 -16 17q-22 0 -36.5 15t-14.5 37q0 24 16.5 39t39.5 15q29 0 44 -21t15 -53q0 -35 -19.5 -69.5t-51.5 -55.5z" />
    <glyph glyph-name="quotedblleft" unicode="&#x201c;" horiz-adv-x="326" 
d="M102 637l12 -14q-15 -13 -25 -31.5t-10 -30.5q0 -17 15 -17q22 0 36.5 -15t14.5 -37q0 -24 -16 -39t-39 -15q-29 0 -44.5 21.5t-15.5 52.5q0 35 20 69.5t52 55.5zM253 637l12 -14q-15 -13 -25.5 -32t-10.5 -30q0 -17 16 -17q22 0 36.5 -15t14.5 -37q0 -24 -16 -39
t-39 -15q-29 0 -44.5 21.5t-15.5 52.5q0 36 19.5 70t52.5 55z" />
    <glyph glyph-name="quotedblright" unicode="&#x201d;" horiz-adv-x="326" 
d="M74 438l-13 15q15 12 25.5 30.5t10.5 30.5q0 18 -16 18q-22 0 -36.5 14.5t-14.5 37.5q0 24 16.5 38.5t39.5 14.5q29 0 44 -21t15 -52q0 -36 -19.5 -70t-51.5 -56zM224 438l-12 15q15 12 25.5 30.5t10.5 30.5q0 18 -16 18q-22 0 -36.5 14.5t-14.5 37.5q0 24 16 38.5
t39 14.5q29 0 44.5 -21t15.5 -52q0 -36 -19.5 -70t-52.5 -56z" />
    <glyph glyph-name="quotedblbase" unicode="&#x201e;" horiz-adv-x="323" 
d="M74 -95l-13 14q15 13 25.5 31.5t10.5 30.5q0 17 -16 17q-22 0 -36.5 15t-14.5 37q0 24 16.5 39t39.5 15q29 0 44 -21t15 -53q0 -35 -19.5 -69.5t-51.5 -55.5zM222 -95l-13 14q15 13 25.5 31.5t10.5 30.5q0 17 -16 17q-22 0 -36.5 15t-14.5 37q0 24 16.5 39t39.5 15
q29 0 44 -21t15 -53q0 -35 -19.5 -69.5t-51.5 -55.5z" />
    <glyph glyph-name="dagger" unicode="&#x2020;" horiz-adv-x="472" 
d="M367 507q22 0 38.5 -17t16.5 -39t-16.5 -38.5t-38.5 -16.5q-11 0 -46.5 19.5t-66.5 19.5l2 -42l50 -50l-63 -208h-14l-63 208l50 50l2 42q-32 0 -67 -19.5t-46 -19.5q-22 0 -38.5 16.5t-16.5 38.5t16.5 39t38.5 17q10 0 46.5 -20t68.5 -19q2 30 -18.5 65.5t-20.5 46.5
q0 22 16.5 39t38.5 17t38.5 -17t16.5 -39q0 -11 -20.5 -46.5t-18.5 -65.5q32 -1 68.5 19t46.5 20z" />
    <glyph glyph-name="daggerdbl" unicode="&#x2021;" horiz-adv-x="472" 
d="M367 207q22 0 38.5 -17t16.5 -39t-16.5 -38.5t-38.5 -16.5q-10 0 -47.5 21t-69.5 20q-1 -30 20 -67t21 -48q0 -22 -16.5 -39t-38.5 -17t-38.5 17t-16.5 39q0 11 21 48t20 67q-32 1 -69.5 -20t-47.5 -21q-22 0 -38.5 16.5t-16.5 38.5t16.5 39t38.5 17q10 0 47.5 -21
t69.5 -20v38l-55 98l55 96v39q-32 1 -69.5 -20t-47.5 -21q-22 0 -38.5 16.5t-16.5 38.5t16.5 39t38.5 17q10 0 47.5 -21t69.5 -20q1 30 -20 66.5t-21 47.5q0 22 16.5 39t38.5 17t38.5 -17t16.5 -39q0 -11 -21 -47.5t-20 -66.5q32 -1 69.5 20t47.5 21q22 0 38.5 -17t16.5 -39
t-16.5 -38.5t-38.5 -16.5q-10 0 -47.5 21t-69.5 20v-39l54 -97l-54 -97v-38q32 -1 69.5 20t47.5 21z" />
    <glyph glyph-name="bullet" unicode="&#x2022;" horiz-adv-x="289" 
d="M144 209q-34 0 -59 24.5t-25 59.5t25 60t59 25t59.5 -25t25.5 -60q0 -34 -25 -59t-60 -25z" />
    <glyph glyph-name="ellipsis" unicode="&#x2026;" horiz-adv-x="529" 
d="M94 -6q-22 0 -38 16.5t-16 38.5t16 38.5t38 16.5t38.5 -16t16.5 -39t-16.5 -39t-38.5 -16zM264 -6q-22 0 -38 16.5t-16 38.5t16 38.5t38 16.5t38.5 -16t16.5 -39t-16.5 -39t-38.5 -16zM434 -6q-22 0 -38 16.5t-16 38.5t16 38.5t38 16.5t38.5 -16t16.5 -39t-16.5 -39
t-38.5 -16z" />
    <glyph glyph-name="perthousand" unicode="&#x2030;" horiz-adv-x="925" 
d="M510 621h32l-404 -621h-77l432 597q-33 -26 -73 -31.5t-64.5 0.5t-69.5 20q20 -31 20 -71q0 -63 -47 -111t-107 -48q-48 0 -75 33t-27 80q0 63 47 111t107 48q46 0 91 -11.5t70.5 -20.5t63 -5t81.5 30zM173 380q33 0 49.5 35t16.5 88q0 100 -56 100q-33 0 -49.5 -35
t-16.5 -88q0 -100 56 -100zM482 262q48 0 75 -33t27 -81q0 -63 -47 -111t-107 -48q-48 0 -75 33t-27 80q0 63 47 111.5t107 48.5zM773 262q48 0 75 -33t27 -81q0 -63 -47 -111t-107 -48q-48 0 -75 33t-27 80q0 63 47 111.5t107 48.5zM451 14q33 0 49.5 35t16.5 88
q0 100 -56 100q-33 0 -49.5 -35t-16.5 -88q0 -100 56 -100zM742 14q33 0 49.5 35t16.5 88q0 100 -56 100q-33 0 -49.5 -35t-16.5 -88q0 -100 56 -100z" />
    <glyph glyph-name="guilsinglleft" unicode="&#x2039;" horiz-adv-x="252" 
d="M50 297l138 121l14 -11l-78 -110l78 -111l-14 -11z" />
    <glyph glyph-name="guilsinglright" unicode="&#x203a;" horiz-adv-x="252" 
d="M202 297l-139 -122l-13 11l78 111l-78 110l13 11z" />
    <glyph glyph-name="fraction" unicode="&#x2044;" horiz-adv-x="155" 
d="M-156 -5l432 641h54l-432 -641h-54z" />
    <glyph glyph-name="Euro" unicode="&#x20ac;" horiz-adv-x="700" 
d="M651 139l14 -12q-27 -49 -91.5 -93t-159.5 -44q-118 0 -209 71t-111 192h-64v19h62q-2 24 -2 38q0 15 1 23h-61v20h62q15 130 111.5 207t221.5 77q102 0 167.5 -50.5t65.5 -109.5q0 -27 -16 -44t-43 -17q-23 0 -38 16t-15 46q0 46 -38.5 86.5t-109.5 40.5
q-96 0 -155.5 -66t-59.5 -178v-8h253v-20h-252q1 -28 10 -61h242v-19h-237q29 -93 102.5 -147t169.5 -54q102 0 180 87z" />
    <glyph glyph-name="trademark" unicode="&#x2122;" horiz-adv-x="594" 
d="M38 621h218l8 -61h-16q-13 29 -27 35q-8 3 -18 3q-28 0 -28 -26v-125q0 -20 8.5 -27.5t27.5 -9.5v-16h-127v16q19 2 27.5 9.5t8.5 27.5v125q0 26 -28 26q-14 0 -24 -7t-13 -12.5t-9 -18.5h-16zM564 605q-17 -2 -21.5 -10.5t-4.5 -30.5v-113q0 -22 4.5 -30.5t21.5 -10.5
v-16h-108v16q16 2 21.5 10.5t5.5 30.5v105l-66 -138h-14l-66 128v-95q0 -21 5.5 -30t21.5 -11v-16h-79v16q17 2 22 10.5t5 30.5v113q0 22 -5.5 30.5t-21.5 10.5v16h72l69 -132l63 132h75v-16z" />
    <glyph glyph-name="oneeighth" unicode="&#x215b;" horiz-adv-x="595" 
d="M32 392v21q29 2 29 18v168l-31 -10v26l56 25q24 10 26 -15v-194q0 -16 29 -18v-21h-109zM15 -5l432 641h54l-432 -641h-54zM459 -11q-42 0 -70 24t-28 56q0 38 43 62q-29 19 -29 50q0 25 22.5 44t61.5 19q37 0 61 -18.5t24 -43.5q0 -30 -30 -49q47 -21 47 -69
q0 -28 -30.5 -51.5t-71.5 -23.5zM475 142q9 -3 17.5 11t8.5 28q0 37 -41 37q-17 0 -25.5 -11t-8.5 -25q0 -28 28 -35zM459 16q45 0 45 49q0 19 -9 28.5t-33 15.5l-25 6q-9 2 -19.5 -12.5t-10.5 -34.5q0 -23 13 -37.5t39 -14.5z" />
    <glyph glyph-name="threeeighths" unicode="&#x215c;" horiz-adv-x="728" 
d="M137 383q-45 0 -73.5 24t-28.5 55q0 24 25 24q15 0 21 -5.5t8 -20t3 -17.5q6 -19 16 -26t30 -7q18 0 31.5 15t13.5 40q0 35 -22.5 42.5t-48.5 -7.5l-10 24l24 11q41 15 41 44q0 35 -32 35q-27 0 -37 -21t-4 -42l-35 6q-12 5 -12 14q-1 31 23 51t64 20q38 0 61.5 -19.5
t23.5 -41.5q0 -27 -22 -43q17 -8 29 -25t12 -41q0 -37 -29.5 -63t-71.5 -26zM137 -5l432 641h54l-432 -641h-54zM586 -11q-41 0 -69.5 24t-28.5 56q0 38 43 62q-29 19 -29 50q0 25 22.5 44t61.5 19q37 0 61 -18.5t24 -43.5q0 -30 -30 -49q47 -21 47 -69q0 -28 -30.5 -51.5
t-71.5 -23.5zM602 142q9 -3 17.5 11t8.5 28q0 17 -8.5 27t-32.5 10q-17 0 -25 -10.5t-8 -25.5q0 -29 27 -35zM586 16q45 0 45 49q0 19 -9 28.5t-33 15.5l-25 6q-9 2 -19.5 -12.5t-10.5 -34.5q0 -23 13 -37.5t39 -14.5z" />
    <glyph glyph-name="fiveeighths" unicode="&#x215d;" horiz-adv-x="711" 
d="M135 389q-45 0 -71.5 20.5t-28.5 57.5q-1 11 6 17.5t19 6.5q11 0 17.5 -4.5t8 -9t3 -14.5t2.5 -14q9 -34 44 -34q20 0 33 15t13 40q0 31 -14.5 48.5t-39.5 17.5q-23 0 -50 -19h-28l10 125h132l7 5h21l-3 -38l-12 -10h-116l-3 -44q27 11 55 11q37 0 67.5 -23t30.5 -62
q0 -42 -29 -67t-74 -25zM125 -5l432 641h54l-432 -641h-54zM574 -11q-42 0 -70 24t-28 56q0 38 43 62q-29 19 -29 50q0 25 22.5 44t61.5 19q37 0 61 -18.5t24 -43.5q0 -30 -30 -49q47 -21 47 -69q0 -28 -30.5 -51.5t-71.5 -23.5zM590 142q9 -3 17.5 11t8.5 28q0 37 -41 37
q-17 0 -25.5 -11t-8.5 -25q0 -28 28 -35zM574 16q45 0 45 49q0 19 -9 28.5t-33 15.5l-25 6q-9 2 -19.5 -12.5t-10.5 -34.5q0 -23 13 -37.5t39 -14.5z" />
    <glyph glyph-name="seveneighths" unicode="&#x215e;" horiz-adv-x="676" 
d="M96 390q-12 0 -16.5 7.5t0.5 16.5l98 183h-111l-6 -17h-26l11 46q3 14 21 14h168l-125 -250h-14zM100 -5l432 641h54l-432 -641h-54zM549 -11q-42 0 -70 24t-28 56q0 38 43 62q-29 19 -29 50q0 25 22.5 44t61.5 19q37 0 61 -18.5t24 -43.5q0 -30 -30 -49q47 -21 47 -69
q0 -28 -30.5 -51.5t-71.5 -23.5zM565 142q9 -3 17.5 11t8.5 28q0 37 -41 37q-17 0 -25.5 -11t-8.5 -25q0 -28 28 -35zM549 16q45 0 45 49q0 19 -9 28.5t-33 15.5l-25 6q-9 2 -19.5 -12.5t-10.5 -34.5q0 -23 13 -37.5t39 -14.5z" />
    <glyph glyph-name="partialdiff" unicode="&#x2202;" horiz-adv-x="519" 
d="M259 -10q-102 0 -163 62.5t-61 150.5q0 83 55.5 139t137.5 56q61 0 110.5 -30.5t61.5 -59.5q0 52 -10 101t-31 95t-61.5 74t-94.5 28q-37 0 -77 -21l-12 19q38 33 110 33q69 0 121.5 -30t83 -81.5t45.5 -112.5t15 -129q0 -58 -12 -108.5t-37.5 -93t-72 -67.5t-108.5 -25z
M251 17q67 0 107.5 59.5t40.5 140.5q0 59 -42 99.5t-100 40.5q-61 0 -96.5 -46.5t-35.5 -120.5q0 -69 31.5 -121t94.5 -52z" />
    <glyph glyph-name="emptyset" unicode="&#x2205;" horiz-adv-x="537" 
d="M427 403q75 -65 75 -174q0 -105 -69 -170t-166 -65q-80 0 -142 45l-29 -35l-14 11l29 35q-76 68 -76 176q0 105 69 169.5t166 64.5q81 0 143 -45l30 36l14 -11zM119 259q0 -88 39 -152l212 255q-50 71 -124 71q-57 0 -92 -44t-35 -130zM291 21q57 0 92 44.5t35 129.5
t-38 152l-212 -256q50 -70 123 -70z" />
    <glyph glyph-name="product" unicode="&#x220f;" horiz-adv-x="558" 
d="M508 800v-1000h-27v974h-404v-974h-27v1000h458z" />
    <glyph glyph-name="summation" unicode="&#x2211;" horiz-adv-x="530" 
d="M480 800v-26h-395l316 -475l-316 -473h395v-26h-430v26l316 474l-316 474v26h430z" />
    <glyph glyph-name="minus" unicode="&#x2212;" horiz-adv-x="470" 
d="M50 265h370v-27h-370v27z" />
    <glyph glyph-name="radical" unicode="&#x221a;" horiz-adv-x="703" 
d="M248 -200l-139 332q-19 44 -36.5 64.5t-52.5 33.5v21l120 -2l137 -334l310 885h96v-21q-44 -12 -62.5 -32t-35.5 -65l-315 -882h-22z" />
    <glyph glyph-name="infinity" unicode="&#x221e;" horiz-adv-x="687" 
d="M207 67q-68 0 -112.5 53t-44.5 146q0 89 40.5 139t101.5 50q81 0 141 -92q54 92 147 92q69 0 113 -53t44 -146q0 -89 -40.5 -139t-101.5 -50q-81 0 -140 93q-56 -93 -148 -93zM179 152q81 0 114 92l29 79q-48 65 -126 65q-47 0 -82.5 -28.5t-35.5 -91.5q0 -60 29.5 -88
t71.5 -28zM491 135q47 0 82.5 28.5t35.5 91.5q0 60 -29.5 88t-71.5 28q-35 0 -66 -22.5t-48 -69.5l-28 -80q47 -64 125 -64z" />
    <glyph glyph-name="integral" unicode="&#x222b;" horiz-adv-x="402" 
d="M293 672q60 0 94.5 -27t34.5 -62q0 -20 -13 -29.5t-30 -9.5q-20 0 -30.5 16.5t-13.5 36t-16.5 36t-40.5 16.5q-43 0 -57.5 -35t-14.5 -109v-537q0 -88 -47 -135.5t-121 -47.5q-59 0 -93.5 27t-34.5 62q0 21 13 30.5t30 9.5q20 0 30.5 -16.5t13 -36.5t16 -36.5t40.5 -16.5
q43 0 58 35t15 109v538q0 88 47 135t120 47z" />
    <glyph glyph-name="approxequal" unicode="&#x2248;" horiz-adv-x="519" 
d="M469 389h-26q0 -25 -15 -38.5t-37 -13.5q-24 0 -99 35.5t-126 35.5q-50 0 -83 -31t-33 -88h26q0 25 15 38.5t37 13.5q23 0 98 -35.5t127 -35.5q50 0 83 31t33 88zM469 219h-26q0 -25 -15 -38.5t-37 -13.5q-24 0 -99 35.5t-126 35.5q-50 0 -83 -31t-33 -88h26
q0 25 15 38.5t37 13.5q23 0 98 -35.5t127 -35.5q50 0 83 31t33 88z" />
    <glyph glyph-name="notequal" unicode="&#x2260;" horiz-adv-x="470" 
d="M420 328h-130l-64 -153h194v-27h-205l-62 -149h-29l62 149h-136v27h147l64 153h-211v27h223l58 140h29l-58 -140h118v-27z" />
    <glyph glyph-name="lessequal" unicode="&#x2264;" horiz-adv-x="469" 
d="M50 328l369 175v-33l-331 -159l331 -160v-33l-369 176v34zM419 27v-27h-370v27h370z" />
    <glyph glyph-name="greaterequal" unicode="&#x2265;" horiz-adv-x="469" 
d="M419 328v-34l-369 -176v33l331 160l-331 159v33zM50 27h370v-27h-370v27z" />
    <glyph glyph-name="lozenge" unicode="&#x25ca;" horiz-adv-x="412" 
d="M377 310l-142 -310h-58l-142 310l142 311h58zM326 310l-120 273l-120 -273l120 -273z" />
    <glyph glyph-name="i.loclTRK" horiz-adv-x="260" 
d="M121 568q-20 0 -35 15.5t-15 35.5t15 35t35 15t35 -15t15 -35t-15 -35.5t-35 -15.5zM26 0v20q36 5 50 16t14 38v283q0 35 -12.5 48t-52.5 9v19l110 25q35 8 35 -29v-355q0 -27 14 -38t51 -16v-20h-209z" />
    <glyph glyph-name="f_b" horiz-adv-x="852" 
d="M625 460q84 0 140.5 -62t56.5 -163q0 -112 -63.5 -176.5t-152.5 -64.5q-37 0 -70 12t-55 24.5t-31 12.5q-14 0 -28 -24.5t-23 -24.5q-13 0 -13 14v474q0 80 -31.5 128.5t-97.5 48.5q-53 0 -73 -35.5t-20 -108.5v-41q0 -23 20 -23h108v-27h-108q-20 0 -20 -21v-329
q0 -27 14.5 -38t53.5 -16v-20h-212v20q36 5 50 16t14 38v329q0 21 -22 21h-42v19q34 4 49 11t15 23v23q0 88 54.5 135t139.5 47q84 0 136 -45.5t52 -145.5v-82q0 -8 5 -10t13 6q17 20 56 37.5t85 17.5zM610 21q61 0 95.5 47t34.5 126q0 90 -44 150.5t-114 60.5
q-46 0 -81 -26t-35 -85v-126q0 -71 44.5 -109t99.5 -38z" />
    <glyph glyph-name="f_h" horiz-adv-x="849" 
d="M780 72q0 -52 49 -40v-19q-31 -18 -64 -18q-65 0 -65 68v213q0 57 -31.5 94.5t-82.5 37.5q-53 0 -86.5 -38t-33.5 -94v-202q0 -27 14 -38t50 -16v-20h-208v20q36 5 50 16t14 38v408q0 80 -31.5 128.5t-97.5 48.5q-53 0 -73 -35.5t-20 -108.5v-41q0 -23 20 -23h108v-27
h-108q-20 0 -20 -21v-329q0 -27 14.5 -38t53.5 -16v-20h-212v20q36 5 50 16t14 38v329q0 21 -22 21h-42v19q34 4 49 11t15 23v23q0 88 54.5 135t139.5 47q84 0 136 -45.5t52 -145.5v-63q0 -47 15 -42q4 1 8 5l7 7l9.5 9.5t12.5 11t16.5 12.5t19 11t23 9.5t26 6t30.5 2.5
q63 0 105 -40.5t42 -122.5v-225z" />
    <glyph glyph-name="f_j" horiz-adv-x="552" 
d="M20 0v20q36 5 50 16t14 38v329q0 21 -22 21h-42v19q34 4 49 11t15 23v13q0 87 52.5 134.5t131.5 47.5q71 0 111 -27t40 -62q0 -20 -13 -29.5t-29 -9.5q-20 0 -32 16.5t-17 36t-23.5 36t-51.5 16.5q-48 0 -68.5 -36.5t-20.5 -107.5v-28q0 -26 20 -26h111v-27h-111
q-20 0 -20 -21v-329q0 -27 14.5 -38t53.5 -16v-20h-212zM360 -192q-39 0 -66.5 15.5t-27.5 45.5q0 40 39 40q14 0 25 -11.5t17.5 -24.5t15.5 -24.5t20 -11.5q24 0 24 52v468q0 35 -12.5 48t-52.5 9v19l110 25q35 8 35 -29v-484q0 -64 -34.5 -100.5t-92.5 -36.5z" />
    <glyph glyph-name="f_k" horiz-adv-x="814" 
d="M734 68q21 -29 34.5 -36t45.5 -12v-20h-187v20q28 4 31.5 12t-11.5 29l-118 166q-9 11 -26 -3q-37 -31 -37 -61v-89q0 -27 14 -38t50 -16v-20h-208v20q36 5 50 16t14 38v408q0 80 -31.5 128.5t-97.5 48.5q-53 0 -73 -35.5t-20 -108.5v-41q0 -23 20 -23h108v-27h-108
q-20 0 -20 -21v-329q0 -27 14.5 -38t53.5 -16v-20h-212v20q36 5 50 16t14 38v329q0 21 -22 21h-42v19q34 4 49 11t15 23v23q0 88 54.5 135t139.5 47q84 0 136 -45.5t52 -145.5v-228q0 -14 8 -18.5t17 3.5l157 142q9 9 9 17.5t-12 15t-34 8.5v20h161v-20q-11 -1 -20.5 -3.5
t-15 -4.5t-14 -7.5t-11 -7.5t-12.5 -11t-13 -11l-110 -98z" />
    <glyph glyph-name="zero.osf" horiz-adv-x="527" 
d="M262 -6q-95 0 -163.5 64t-68.5 168q0 105 69 169.5t166 64.5q96 0 164 -63.5t68 -167.5q0 -105 -69 -170t-166 -65zM286 21q57 0 92 44.5t35 129.5q0 98 -49 168t-123 70q-57 0 -92 -44t-35 -130q0 -98 49.5 -168t122.5 -70z" />
    <glyph glyph-name="one.osf" horiz-adv-x="300" 
d="M37 0v20q43 5 59.5 16t16.5 38v274q0 25 -8.5 33t-32.5 4l-42 -8v20l134 59q29 13 29 -16v-366q0 -27 16.5 -38t60.5 -16v-20h-233z" />
    <glyph glyph-name="two.osf" horiz-adv-x="493" 
d="M40 0q191 148 251.5 210t60.5 119q0 43 -27.5 74t-76.5 31q-57 0 -84.5 -30t-27.5 -68q0 -18 7 -34.5t7 -26.5q0 -23 -13.5 -33.5t-32.5 -10.5q-27 0 -42.5 22t-15.5 54q0 59 52 106t154 47q93 0 141.5 -38t48.5 -94q0 -47 -36.5 -91.5t-79.5 -71t-96.5 -57t-69.5 -43.5
l156 4q51 2 72.5 10.5t43.5 40.5h21l-7 -26q-16 -65 -8 -94h-398z" />
    <glyph glyph-name="three.osf" horiz-adv-x="548" 
d="M257 -187q-94 0 -158 49t-64 126q0 63 49 63q22 0 28.5 -9.5t12 -42t15.5 -58.5q40 -102 126 -102q66 0 108 53t42 129q0 65 -34 98.5t-85 33.5q-31 0 -81 -19l-11 26q95 32 131 59t36 85q0 57 -30.5 93.5t-85.5 36.5q-51 0 -78 -33.5t-27 -87.5q0 -57 -42 -57
q-25 0 -37.5 15.5t-12.5 40.5q0 58 54 103t154 45q94 0 143 -39t49 -101q0 -94 -128 -138q36 4 75.5 -11.5t70.5 -55.5t31 -96q0 -89 -72.5 -147.5t-178.5 -58.5z" />
    <glyph glyph-name="four.osf" horiz-adv-x="549" 
d="M509 0h-101v-93q0 -27 17 -38.5t60 -15.5v-20h-233v20q43 4 59.5 15.5t16.5 38.5v93h-286l-17 50l299 420l84 -16v-387h101v-67zM93 67h235v366l-245 -343q-7 -10 -4 -16.5t14 -6.5z" />
    <glyph glyph-name="five.osf" horiz-adv-x="544" 
d="M260 -180q-94 0 -159.5 49t-65.5 126q0 63 48 63q17 0 25.5 -8t10.5 -19t7 -36t14 -47q39 -102 129 -102q64 0 106 49.5t42 125.5q0 81 -47 140t-129 59q-92 0 -138 -68h-21l24 299h286l70 14l-11 -92h-327l-15 -181q27 28 72 45.5t94 17.5q90 0 162 -56t72 -156
q0 -96 -70.5 -159.5t-178.5 -63.5z" />
    <glyph glyph-name="six.osf" horiz-adv-x="519" 
d="M265 -10q-62 0 -108.5 25t-72 67.5t-37.5 93t-12 108.5q0 54 9 103.5t29.5 95.5t50.5 80t75.5 54t100.5 20q72 0 111 -33l-13 -19q-40 21 -77 21q-54 0 -94 -28t-61.5 -74t-31 -95t-9.5 -101q11 29 60.5 59.5t110.5 30.5q82 0 137.5 -56t55.5 -139q0 -88 -60.5 -150.5
t-163.5 -62.5zM274 17q63 0 94.5 52t31.5 121q0 74 -35.5 120.5t-97.5 46.5q-57 0 -99.5 -40.5t-42.5 -99.5q0 -81 41 -140.5t108 -59.5z" />
    <glyph glyph-name="seven.osf" horiz-adv-x="498" 
d="M95 -170l312 543h-215q-55 0 -84.5 -11.5t-47.5 -51.5h-25l45 149l74 -8h319l-314 -621h-64z" />
    <glyph glyph-name="eight.osf" horiz-adv-x="540" 
d="M377 350q60 -25 94 -67.5t34 -99.5q0 -81 -70 -137t-176 -56q-104 0 -164 52.5t-60 129.5q0 51 29 95t86 73q-79 49 -79 136q0 70 57.5 115.5t145.5 45.5q87 0 137.5 -44t50.5 -107q0 -82 -85 -136zM269 611q-63 0 -91.5 -32t-28.5 -78q0 -87 116 -119l73 -19
q59 49 59 124q0 52 -31.5 88t-96.5 36zM265 17q74 0 112.5 46t38.5 105q0 48 -30 77t-97 46l-70 19q-17 4 -35 12q-76 -51 -76 -138q0 -69 41.5 -118t115.5 -49z" />
    <glyph glyph-name="nine.osf" horiz-adv-x="519" 
d="M254 458q62 0 108.5 -25t72 -67.5t37.5 -93t12 -108.5q0 -68 -15 -129t-45.5 -112.5t-83 -81.5t-121.5 -30q-72 0 -110 33l12 19q40 -21 77 -21q54 0 94.5 28t61.5 74.5t31 95.5t10 101q-12 -30 -61.5 -60.5t-110.5 -30.5q-82 0 -137.5 56t-55.5 140q0 87 61 149.5
t163 62.5zM246 432q-63 0 -94.5 -52.5t-31.5 -121.5q0 -74 35.5 -120.5t96.5 -46.5q58 0 100 40.5t42 99.5q0 81 -40.5 141t-107.5 60z" />
    <glyph glyph-name="zero.tf" horiz-adv-x="600" 
d="M305 -10q-118 0 -182.5 94.5t-64.5 229.5q0 134 64.5 228.5t182.5 94.5t182 -94.5t64 -228.5q0 -135 -64 -229.5t-182 -94.5zM305 17q73 0 110.5 77t37.5 220q0 142 -37.5 219t-110.5 77q-74 0 -112 -77t-38 -219q0 -143 38 -220t112 -77z" />
    <glyph glyph-name="one.tf" horiz-adv-x="600" 
d="M175 0v20q51 5 69 16t18 38v429q0 33 -8.5 42.5t-33.5 5.5l-41 -7v19l133 62q30 13 30 -16v-535q0 -27 18 -38t69 -16v-20h-254z" />
    <glyph glyph-name="two.tf" horiz-adv-x="600" 
d="M73 0q0 52 26.5 100.5t66 83.5t85.5 72.5t85.5 69.5t66 73t26.5 83q0 52 -32 90.5t-92 38.5q-55 0 -89 -35.5t-34 -85.5q0 -22 7.5 -39.5t7.5 -27.5q0 -23 -13.5 -33t-31.5 -10q-27 0 -44 24.5t-17 61.5q0 68 55.5 119.5t161.5 51.5q101 0 156 -47t55 -125q0 -55 -32 -99
t-82.5 -76t-104 -61.5t-104.5 -70t-76 -86.5h261q57 0 83 15t43 58h20l-16 -82q-9 -47 3 -63h-441z" />
    <glyph glyph-name="three.tf" horiz-adv-x="600" 
d="M281 -10q-95 0 -158.5 49t-63.5 127q0 62 49 62q22 0 28.5 -9.5t12 -42t15.5 -58.5q40 -101 126 -101q66 0 108 52.5t42 128.5q0 65 -34 98.5t-86 33.5q-29 0 -81 -19l-10 26q95 32 131 59t36 85q0 57 -30.5 93.5t-85.5 36.5q-51 0 -78 -33.5t-27 -87.5q0 -57 -42 -57
q-50 0 -50 56q0 58 54 103t153 45q94 0 143.5 -39t49.5 -101q0 -94 -128 -138q35 4 74.5 -11.5t70.5 -55.5t31 -96q0 -89 -72 -147.5t-178 -58.5z" />
    <glyph glyph-name="four.tf" horiz-adv-x="600" 
d="M542 167h-101v-93q0 -27 16.5 -38t60.5 -16v-20h-233v20q43 5 59.5 16t16.5 38v93h-286l-17 50l299 420l84 -16v-387h101v-67zM126 234h235v366l-245 -343q-7 -11 -4 -17t14 -6z" />
    <glyph glyph-name="five.tf" horiz-adv-x="600" 
d="M279 -10q-94 0 -159.5 49.5t-65.5 126.5q0 62 48 62q17 0 25.5 -8t10.5 -19t7 -36t14 -47q39 -101 129 -101q64 0 106 49t42 125q0 81 -47 140t-129 59q-92 0 -138 -68h-21l24 299h286l70 14l-11 -92h-327l-15 -181q27 28 72 46t94 18q90 0 162 -56t72 -157
q0 -96 -70.5 -159.5t-178.5 -63.5z" />
    <glyph glyph-name="six.tf" horiz-adv-x="600" 
d="M303 -10q-62 0 -108.5 25t-72 67.5t-37.5 93t-12 108.5q0 68 15 129t45.5 112.5t83 81.5t121.5 30q72 0 110 -33l-12 -19q-40 21 -77 21q-54 0 -94.5 -28t-61.5 -74t-31 -95t-10 -101q12 29 61.5 59.5t110.5 30.5q82 0 137.5 -56t55.5 -139q0 -88 -61 -150.5t-163 -62.5z
M311 17q63 0 94.5 52t31.5 121q0 74 -35.5 120.5t-96.5 46.5q-58 0 -100 -40.5t-42 -99.5q0 -81 40.5 -140.5t107.5 -59.5z" />
    <glyph glyph-name="seven.tf" horiz-adv-x="600" 
d="M139 0l312 543h-215q-55 0 -84.5 -11.5t-47.5 -51.5h-25l45 149l74 -8h319l-314 -621h-64z" />
    <glyph glyph-name="eight.tf" horiz-adv-x="600" 
d="M407 350q60 -25 94 -67.5t34 -99.5q0 -81 -70 -137t-176 -56q-104 0 -164 52.5t-60 129.5q0 51 29 95t86 73q-79 49 -79 136q0 70 57.5 115.5t145.5 45.5q87 0 137.5 -44t50.5 -107q0 -82 -85 -136zM299 611q-63 0 -91.5 -32t-28.5 -78q0 -87 116 -119l73 -19
q59 49 59 124q0 52 -31.5 88t-96.5 36zM295 17q74 0 112.5 46t38.5 105q0 48 -30 77t-97 46l-70 19q-17 4 -35 12q-76 -51 -76 -138q0 -69 41.5 -118t115.5 -49z" />
    <glyph glyph-name="nine.tf" horiz-adv-x="600" 
d="M297 634q62 0 108.5 -25t72 -67.5t37.5 -93t12 -108.5q0 -54 -9.5 -103.5t-29.5 -95.5t-50.5 -80t-75.5 -54t-101 -20q-71 0 -110 33l13 19q39 -21 77 -21q54 0 94 28t61 74.5t31 95.5t10 101q-11 -30 -61 -60.5t-111 -30.5q-82 0 -137.5 56t-55.5 140q0 87 61 149.5
t164 62.5zM288 608q-63 0 -94.5 -52.5t-31.5 -121.5q0 -74 35.5 -120.5t96.5 -46.5q58 0 100.5 40.5t42.5 99.5q0 81 -41 141t-108 60z" />
    <glyph glyph-name="zero.dnom" horiz-adv-x="264" 
d="M133 -11q-48 0 -73 37t-25 90t25 90.5t73 37.5q47 0 71.5 -37.5t24.5 -90.5t-24.5 -90t-71.5 -37zM133 25q47 0 47 91q0 93 -47 93q-48 0 -48 -93q0 -91 48 -91z" />
    <glyph glyph-name="one.dnom" horiz-adv-x="171" 
d="M32 -6v21q29 2 29 18v168l-31 -10v26l56 25q24 10 26 -15v-194q0 -16 29 -18v-21h-109z" />
    <glyph glyph-name="two.dnom" horiz-adv-x="290" 
d="M40 -6q7 32 24 57.5t32 37.5t38 26q15 9 23.5 15.5t15.5 17.5t7 24q0 20 -10.5 33.5t-28.5 13.5q-32 0 -39 -28q-2 -11 0.5 -22t1.5 -16q-10 -22 -33.5 -15t-23.5 23q-2 37 24 62t72 25q45 0 69 -20.5t24 -55.5q0 -11 -4 -21t-8 -16.5t-14 -14.5t-14.5 -11t-18.5 -11
t-16 -9q-57 -32 -67 -48q-2 -4 -3 -7h104q16 0 21 8l9 13h25l-10 -47q-3 -14 -21 -14h-179z" />
    <glyph glyph-name="three.dnom" horiz-adv-x="278" 
d="M137 -11q-45 0 -73.5 24t-28.5 55q0 24 25 24q15 0 21 -5.5t8 -20t3 -17.5q6 -19 16 -26t30 -7q18 0 31.5 15t13.5 40q0 35 -22.5 42.5t-48.5 -7.5l-10 24l24 11q41 15 41 44q0 35 -32 35q-27 0 -37 -21t-4 -42l-35 6q-12 5 -12 14q-1 31 23 51t64 20q38 0 61.5 -19.5
t23.5 -41.5q0 -27 -22 -43q17 -8 29 -25t12 -41q0 -37 -29.5 -63t-71.5 -26z" />
    <glyph glyph-name="four.dnom" horiz-adv-x="255" 
d="M215 66h-35v-31q0 -18 25 -18v-23h-101v23q24 0 24 18v31h-103v30l119 149q9 11 22.5 7t13.5 -16v-140h35v-30zM70 96h58v74z" />
    <glyph glyph-name="five.dnom" horiz-adv-x="273" 
d="M135 -11q-45 0 -71.5 20.5t-28.5 57.5q-1 11 6 17.5t19 6.5q11 0 17.5 -4.5t8 -9t3 -14.5t2.5 -14q9 -34 44 -34q20 0 33 15t13 40q0 31 -14.5 48.5t-39.5 17.5q-23 0 -50 -19h-28l10 125h132l7 5h21l-3 -38l-12 -10h-116l-3 -44q27 11 55 11q37 0 67.5 -23t30.5 -62
q0 -42 -29 -67t-74 -25z" />
    <glyph glyph-name="six.dnom" horiz-adv-x="255" 
d="M133 -11q-50 0 -74 35t-24 83q0 52 28.5 96.5t78.5 44.5q31 0 53 -15q8 -6 0 -20q-7 -6 -12 -4.5t-17.5 6.5t-21.5 5q-46 0 -53 -78q24 13 47 13q38 0 62.5 -22t24.5 -59q0 -32 -25.5 -58.5t-66.5 -26.5zM133 18q40 0 40 58q0 51 -37 51q-17 0 -32 -8.5t-15 -13.5
q-3 -87 44 -87z" />
    <glyph glyph-name="seven.dnom" horiz-adv-x="260" 
d="M96 -8q-12 0 -16.5 7.5t0.5 16.5l98 183h-111l-6 -17h-26l11 46q3 14 21 14h168l-125 -250h-14z" />
    <glyph glyph-name="eight.dnom" horiz-adv-x="270" 
d="M133 -11q-42 0 -70 24t-28 56q0 38 43 62q-29 19 -29 50q0 25 22.5 44t61.5 19q37 0 61 -18.5t24 -43.5q0 -30 -30 -49q47 -21 47 -69q0 -28 -30.5 -51.5t-71.5 -23.5zM149 142q9 -3 17.5 11t8.5 28q0 37 -41 37q-17 0 -25.5 -11t-8.5 -25q0 -28 28 -35zM133 16
q45 0 45 49q0 19 -9 28.5t-33 15.5l-25 6q-9 2 -19.5 -12.5t-10.5 -34.5q0 -23 13 -37.5t39 -14.5z" />
    <glyph glyph-name="nine.dnom" horiz-adv-x="255" 
d="M123 248q50 0 73.5 -34.5t23.5 -83.5q0 -52 -28 -96.5t-78 -44.5q-31 0 -53 15q-6 4 -6 7.5t5 12.5q7 6 12 4.5t18 -6.5t22 -5q45 0 52 78q-22 -12 -47 -12q-38 0 -62.5 21.5t-24.5 58.5q0 33 25.5 59t67.5 26zM123 219q-40 0 -40 -58q0 -51 37 -51q17 0 31.5 8t14.5 14
q1 42 -10.5 64.5t-32.5 22.5z" />
    <glyph glyph-name="zero.numr" horiz-adv-x="264" 
d="M133 388q-48 0 -73 37t-25 90t25 90.5t73 37.5q47 0 71.5 -37.5t24.5 -90.5t-24.5 -90t-71.5 -37zM133 424q47 0 47 91q0 93 -47 93q-48 0 -48 -93q0 -91 48 -91z" />
    <glyph glyph-name="one.numr" horiz-adv-x="171" 
d="M32 392v21q29 2 29 18v168l-31 -10v26l56 25q24 10 26 -15v-194q0 -16 29 -18v-21h-109z" />
    <glyph glyph-name="two.numr" horiz-adv-x="290" 
d="M40 387q7 32 24 57.5t32 37.5t38 26q15 9 23.5 15.5t15.5 17.5t7 24q0 20 -10.5 33.5t-28.5 13.5q-32 0 -39 -28q-2 -11 0.5 -22t1.5 -16q-10 -22 -33.5 -15t-23.5 23q-2 37 24 62t72 25q45 0 69 -20.5t24 -55.5q0 -11 -4 -21t-8 -16.5t-14 -14.5t-14.5 -11t-18.5 -11
t-16 -9l-6 -3q-58 -34 -64 -52h104q16 0 21 8l9 13h25l-10 -47q-3 -14 -21 -14h-179z" />
    <glyph glyph-name="three.numr" horiz-adv-x="278" 
d="M137 383q-45 0 -73.5 24t-28.5 55q0 24 25 24q15 0 21 -5.5t8 -20t3 -17.5q6 -19 16 -26t30 -7q18 0 31.5 15t13.5 40q0 35 -22.5 42.5t-48.5 -7.5l-10 24l24 11q41 15 41 44q0 35 -32 35q-27 0 -37 -21t-4 -42l-35 6q-12 5 -12 14q-1 31 23 51t64 20q38 0 61.5 -19.5
t23.5 -41.5q0 -27 -22 -43q17 -8 29 -25t12 -41q0 -37 -29.5 -63t-71.5 -26z" />
    <glyph glyph-name="four.numr" horiz-adv-x="255" 
d="M215 457h-35v-31q0 -18 25 -18v-23h-101v23q24 0 24 18v31h-103v30l119 149q9 11 22.5 7t13.5 -16v-140h35v-30zM70 487h58v74z" />
    <glyph glyph-name="five.numr" horiz-adv-x="273" 
d="M135 389q-45 0 -71.5 20.5t-28.5 57.5q-1 11 6 17.5t19 6.5q11 0 17.5 -4.5t8 -9t3 -14.5t2.5 -14q9 -34 44 -34q20 0 33 15t13 40q0 31 -14.5 48.5t-39.5 17.5q-23 0 -50 -19h-28l10 125h132l7 5h21l-3 -38l-12 -10h-116l-3 -44q27 11 55 11q37 0 67.5 -23t30.5 -62
q0 -42 -29 -67t-74 -25z" />
    <glyph glyph-name="six.numr" horiz-adv-x="255" 
d="M133 382q-50 0 -74 35t-24 83q0 52 28.5 96.5t78.5 44.5q31 0 53 -15q8 -6 0 -20q-7 -6 -12 -4.5t-17.5 6.5t-21.5 5q-46 0 -53 -78q24 13 47 13q38 0 62.5 -22t24.5 -59q0 -32 -25.5 -58.5t-66.5 -26.5zM133 411q40 0 40 58q0 51 -37 51q-17 0 -32 -8.5t-15 -13.5
q-3 -87 44 -87z" />
    <glyph glyph-name="seven.numr" horiz-adv-x="260" 
d="M96 390q-12 0 -16.5 7.5t0.5 16.5l98 183h-111l-6 -17h-26l11 46q3 14 21 14h168l-125 -250h-14z" />
    <glyph glyph-name="eight.numr" horiz-adv-x="270" 
d="M133 387q-42 0 -70 24t-28 56q0 38 43 62q-29 19 -29 50q0 25 22.5 44t61.5 19q37 0 61 -18.5t24 -43.5q0 -30 -30 -49q47 -21 47 -69q0 -28 -30.5 -51.5t-71.5 -23.5zM149 540q9 -3 17.5 11t8.5 28q0 37 -41 37q-17 0 -25.5 -11t-8.5 -25q0 -28 28 -35zM133 414
q45 0 45 49q0 19 -9 28.5t-33 15.5l-25 6q-9 2 -19.5 -12.5t-10.5 -34.5q0 -23 13 -37.5t39 -14.5z" />
    <glyph glyph-name="nine.numr" horiz-adv-x="255" 
d="M123 642q50 0 73.5 -34.5t23.5 -83.5q0 -52 -28 -96.5t-78 -44.5q-31 0 -53 15q-6 4 -6 7.5t5 12.5q7 6 12 4.5t18 -6.5t22 -5q45 0 52 78q-22 -12 -47 -12q-38 0 -62.5 21.5t-24.5 58.5q0 33 25.5 59t67.5 26zM123 613q-40 0 -40 -58q0 -51 37 -51q17 0 31.5 8t14.5 14
q1 42 -10.5 64.5t-32.5 22.5z" />
    </font>
</defs>
</svg>
