<?xml version="1.0" standalone="no"?>
<!DOCTYPE svg PUBLIC "-//W3C//DTD SVG 1.1//EN" "http://www.w3.org/Graphics/SVG/1.1/DTD/svg11.dtd" >
<svg xmlns="http://www.w3.org/2000/svg" xmlns:xlink="http://www.w3.org/1999/xlink" version="1.1">
<metadata>
Created by FontForge 20190801 at Thu Mar 29 13:00:52 2018
 By Jimmy Wärting
Copyright (c) 2018 by Connary Fagen. All rights reserved.
</metadata>
<defs>
<font id="QuincyCF-Thin" horiz-adv-x="473" >
  <font-face 
    font-family="Quincy CF Thin"
    font-weight="100"
    font-stretch="normal"
    units-per-em="1000"
    panose-1="0 0 2 0 0 0 0 0 0 0"
    ascent="800"
    descent="-200"
    x-height="451"
    cap-height="621"
    bbox="-217 -276 983 888"
    underline-thickness="50"
    underline-position="-100"
    unicode-range="U+0020-FB02"
  />
<missing-glyph horiz-adv-x="515" 
d="M422 800v-1030h-326v1030h326zM343 731h-170v-34h67v-38h-68v-34h171v34h-68v38h68v34zM275 598h-103v-107h171v35h-68v72zM240 563v-37h-34v37h34zM343 463h-171v-34h68v-38h-68v-34h103v72h68v34zM343 401h-34v-68h-137v-35h171v103zM343 276h-103v-58h35v24h34v-49
h-103v83h-34v-117h171v117zM343 98h-171v-117h171v117zM309 64v-49h-103v49h103zM343 -43h-171v-34h72l-72 -48v-34h171v34h-105l72 48h33v34z" />
    <glyph glyph-name="fi" unicode="fi" horiz-adv-x="542" 
d="M18 0v13q36 5 50 15.5t14 34.5v350q0 18 -19 18h-43v14q62 8 62 31v17q0 87 50 133t124 46q69 0 104 -26t35 -57q0 -32 -35 -32q-16 0 -26 15.5t-15.5 34t-25.5 34t-53 15.5q-52 0 -75 -39.5t-23 -118.5v-22q0 -25 16 -25h122v-20h-122q-16 0 -16 -18v-350
q0 -24 14.5 -34.5t53.5 -15.5v-13h-192zM328 0v13q36 5 50 15.5t14 34.5v300q0 37 -11.5 50t-54.5 9v12l95 24q14 4 22.5 -3t8.5 -23v-369q0 -24 14 -34.5t51 -15.5v-13h-189z" />
    <glyph glyph-name="fl" unicode="fl" horiz-adv-x="508" 
d="M428 -5q-31 0 -45.5 15t-14.5 57v419q0 84 -32 132t-98 48q-55 0 -75.5 -38t-20.5 -120v-41q0 -6 1 -9.5t2.5 -5t3.5 -1.5h5h4h113v-20h-113q-16 0 -16 -18v-350q0 -24 14.5 -34.5t53.5 -15.5v-13h-192v13q36 5 50 15.5t14 34.5v350q0 18 -19 18h-43v14q62 8 62 31v28
q0 87 49.5 132.5t127.5 45.5q169 0 169 -187v-430q0 -54 65 -35v-14q-33 -21 -65 -21z" />
    <glyph glyph-name="f_f" unicode="ff" horiz-adv-x="604" 
d="M507 672q58 0 87.5 -26t29.5 -57q0 -32 -35 -32q-16 0 -24.5 15.5t-11.5 34t-18 34t-43 15.5q-48 0 -64.5 -37.5t-16.5 -120.5v-22q0 -25 16 -25h113v-20h-113q-16 0 -16 -18v-350q0 -24 14.5 -34.5t53.5 -15.5v-13h-192v13q36 5 50 15.5t14 34.5v350q0 18 -19 18h-174
q-16 0 -16 -18v-350q0 -24 14.5 -34.5t53.5 -15.5v-13h-192v13q36 5 50 15.5t14 34.5v350q0 18 -19 18h-43v14q62 8 62 31v28q0 87 47.5 132.5t118.5 45.5q90 0 130 -78q41 68 129 68zM158 451h163q30 7 30 25q0 75 -31 132.5t-92 57.5q-49 0 -67.5 -38t-18.5 -120v-41
q0 -6 1 -9.5t2.5 -5t3.5 -1.5h5h4z" />
    <glyph glyph-name=".notdef" horiz-adv-x="515" 
d="M422 800v-1030h-326v1030h326zM343 731h-170v-34h67v-38h-68v-34h171v34h-68v38h68v34zM275 598h-103v-107h171v35h-68v72zM240 563v-37h-34v37h34zM343 463h-171v-34h68v-38h-68v-34h103v72h68v34zM343 401h-34v-68h-137v-35h171v103zM343 276h-103v-58h35v24h34v-49
h-103v83h-34v-117h171v117zM343 98h-171v-117h171v117zM309 64v-49h-103v49h103zM343 -43h-171v-34h72l-72 -48v-34h171v34h-105l72 48h33v34z" />
    <glyph glyph-name=".null" horiz-adv-x="0" 
 />
    <glyph glyph-name="nonmarkingreturn" horiz-adv-x="333" 
 />
    <glyph glyph-name="space" unicode=" " horiz-adv-x="180" 
 />
    <glyph glyph-name="exclam" unicode="!" horiz-adv-x="189" 
d="M87 174q-2 100 -22 226t-20 166q0 71 50 71q49 0 49 -71q0 -40 -20 -166t-22 -226h-15zM95 -6q-19 0 -33.5 14t-14.5 34t14.5 34t33.5 14t33 -14.5t14 -33.5t-14 -33.5t-33 -14.5z" />
    <glyph glyph-name="quotedbl" unicode="&#x22;" horiz-adv-x="223" 
d="M60 450q2 -16 4 -16q3 0 5 16l23 177q2 13 -6 23t-22 10t-21.5 -10t-6.5 -23zM154 450q2 -16 4 -16q3 0 5 16l24 177q1 13 -7 23t-22 10t-21.5 -10t-6.5 -23z" />
    <glyph glyph-name="numbersign" unicode="#" horiz-adv-x="512" 
d="M487 446h-113l-64 -249h108v-12h-112l-55 -215h-14l55 215h-143l-55 -215h-14l55 215h-110v12h114l64 249h-109v12h112l55 214h14l-55 -214h143l55 214h14l-55 -214h110v-12zM296 197l64 249h-143l-64 -249h143z" />
    <glyph glyph-name="dollar" unicode="$" horiz-adv-x="447" 
d="M412 209q0 -67 -51.5 -103.5t-131.5 -42.5v-63h-16v62h-11q-79 0 -150 42q-11 29 -14.5 58t0.5 46.5t13 17.5t11 -6q18 -58 57.5 -93.5t93.5 -41.5v230l-9 3q-84 29 -126.5 66t-42.5 99q0 59 46.5 99t131.5 43v64h16v-64q72 -1 137 -39q11 -29 14.5 -58t-0.5 -46.5
t-13 -17.5t-11 6q-18 54 -51 87.5t-76 43.5v-233q93 -32 126 -55q56 -41 57 -104zM92 501q0 -49 31 -77t90 -50v230q-6 1 -19 1q-53 0 -77.5 -29.5t-24.5 -74.5zM239 84q51 1 82.5 26t31.5 76q0 28 -9 48.5t-29 34.5t-37.5 22t-48.5 18v-225h10z" />
    <glyph glyph-name="percent" unicode="%" horiz-adv-x="609" 
d="M500 621h22l-399 -621h-64l429 604q-27 -20 -54.5 -29t-61.5 -4.5t-49.5 8t-54.5 15.5q26 -31 26 -77q0 -59 -46.5 -107t-102.5 -48q-43 0 -69 33t-26 78q0 59 46 107t101 48q47 0 91.5 -11.5t69 -20.5t61.5 -5t81 30zM168 381q35 0 51.5 35t16.5 88q0 105 -60 105
q-35 0 -51.5 -35t-16.5 -88q0 -105 60 -105zM463 255q44 0 70 -33t26 -78q0 -59 -46 -107t-102 -48q-43 0 -69 33t-26 78q0 59 46 107t101 48zM434 8q34 0 50.5 35t16.5 88q0 105 -60 105q-35 0 -51.5 -35t-16.5 -88q0 -105 61 -105z" />
    <glyph glyph-name="ampersand" unicode="&#x26;" horiz-adv-x="721" 
d="M309 -15q-113 0 -191 54t-78 142q0 74 60.5 125.5t115.5 51.5q-48 14 -80.5 53t-32.5 87q0 58 46 98.5t124 40.5q66 0 113.5 -30t47.5 -73q0 -19 -9 -30t-25 -11q-15 0 -25 11t-10 32q0 37 -28 57.5t-62 20.5q-49 0 -75.5 -26.5t-26.5 -76.5q0 -62 38.5 -107.5
t102.5 -63.5l-8 -20q-85 15 -138 -29.5t-53 -115.5q0 -82 59.5 -125t140.5 -43q88 0 149.5 52.5t61.5 126.5q0 40 -22 63.5t-55 23.5q-40 0 -56 -24t4 -46h-19q-22 18 -22 47q0 7 1.5 13t7 13t8.5 11t12.5 11.5t13 10t16 11.5t15.5 11l110 78q40 28 58 53t18 61q0 43 -32 62
t-80 1l-6 15q45 20 72 20q44 0 77.5 -28t33.5 -78q0 -54 -48.5 -93t-209.5 -127q81 5 124 -30.5t44 -89.5q1 -79 -84.5 -134.5t-197.5 -55.5z" />
    <glyph glyph-name="quotesingle" unicode="'" horiz-adv-x="128" 
d="M60 450q2 -16 4 -16q3 0 5 16l23 177q2 13 -6 23t-22 10t-21.5 -10t-6.5 -23z" />
    <glyph glyph-name="parenleft" unicode="(" horiz-adv-x="293" 
d="M253 758h2h-1h-1zM260 -148q8 -7 6 -12.5t-11 -5.5q-11 0 -19 7q-83 83 -137 203t-54 252t54 252t137 203q8 7 18 7q9 0 12.5 -4t-1.5 -9q-77 -71 -116.5 -188.5t-37.5 -260.5q-2 -141 36 -257t113 -187z" />
    <glyph glyph-name="parenright" unicode=")" horiz-adv-x="293" 
d="M38 758h2h-1h-1zM57 751q83 -83 137 -203t54 -252t-54 -252t-137 -203q-8 -7 -19 -7q-9 0 -11 5.5t6 12.5q75 71 113 187t36 257q2 143 -37.5 260.5t-116.5 188.5q-5 5 -1.5 9t12.5 4q10 0 18 -7z" />
    <glyph glyph-name="asterisk" unicode="*" horiz-adv-x="329" 
d="M154 520q2 -6 6 -8.5t7.5 0t5.5 8.5l31 78q-4 34 -40 39q-36 -5 -40 -39zM139 508l-55 67q-32 14 -54 -14q-14 -34 13 -54l80 -18q11 -2 17 5t-1 14zM190 508q-7 -7 -1 -14t17 -5l80 18q27 21 13 54q-23 27 -54 14zM124 473l-81 -17q-27 -21 -13 -55q22 -28 54 -14l54 67
q7 7 1.5 14t-15.5 5zM205 473q-10 2 -15.5 -5t1.5 -14l54 -67q31 -13 54 14q13 33 -13 55zM154 444l-30 -78q4 -34 40 -39q36 5 40 39l-30 78q-4 10 -10 10t-10 -10z" />
    <glyph glyph-name="plus" unicode="+" horiz-adv-x="470" 
d="M420 262v-21h-174v-175h-21v175h-175v21h175v175h21v-175h174z" />
    <glyph glyph-name="comma" unicode="," horiz-adv-x="158" 
d="M67 -83l-8 10q11 10 20.5 27.5t9.5 28.5q0 18 -15 18q-19 0 -31.5 12t-12.5 32q0 21 14 33t33 12q25 0 38 -19t13 -45q0 -29 -15.5 -60t-45.5 -49z" />
    <glyph glyph-name="hyphen" unicode="-" horiz-adv-x="370" 
d="M50 268h270v-6h-270v6z" />
    <glyph glyph-name="period" unicode="." horiz-adv-x="175" 
d="M87 -6q-19 0 -33 14.5t-14 33.5t14 33.5t33 14.5t33.5 -14t14.5 -34t-14.5 -34t-33.5 -14z" />
    <glyph glyph-name="slash" unicode="/" horiz-adv-x="363" 
d="M35 0l267 641h26l-267 -641h-26z" />
    <glyph glyph-name="zero" unicode="0" horiz-adv-x="542" 
d="M271 -10q-115 0 -175.5 95t-60.5 229q0 133 60.5 228t175.5 95q79 0 134 -48t78.5 -119t23.5 -156q0 -86 -23.5 -157t-78.5 -119t-134 -48zM271 7q74 0 115 77.5t41 229.5q0 153 -41 229.5t-115 76.5q-75 0 -115.5 -76.5t-40.5 -229.5t40.5 -230t115.5 -77z" />
    <glyph glyph-name="one" unicode="1" horiz-adv-x="291" 
d="M30 0v13q49 5 67 15t18 35v451q0 35 -8.5 44.5t-33.5 5.5l-40 -7v12l119 56q17 5 20 1.5t3 -17.5v-546q0 -25 18 -35t68 -15v-13h-231z" />
    <glyph glyph-name="two" unicode="2" horiz-adv-x="518" 
d="M40 0q0 59 37.5 113t90.5 95.5t106 81.5t90.5 88.5t37.5 99.5q0 56 -35 97.5t-100 41.5q-60 0 -97.5 -38.5t-37.5 -90.5q0 -25 8 -40.5t8 -23.5q0 -38 -36 -38q-23 0 -37 23.5t-14 57.5q0 65 51 117.5t156 52.5q99 0 150.5 -47.5t51.5 -123.5q0 -55 -32 -100t-82.5 -78.5
t-103 -64.5t-102.5 -74t-73 -91h274q50 0 72 15t42 60h13l-15 -70q-10 -47 2 -63h-425z" />
    <glyph glyph-name="three" unicode="3" horiz-adv-x="529" 
d="M246 -10q-90 0 -150.5 50t-60.5 127q0 58 42 58q18 0 22 -8t9.5 -40t18.5 -64q39 -103 129 -103q69 0 114 54.5t45 135.5q0 67 -36 100t-89 33q-31 0 -86 -19l-9 22q34 11 45 15t37 13.5t34 15.5t23.5 17t20.5 22t10 26t5 34q0 59 -32 98.5t-89 39.5q-52 0 -82.5 -35.5
t-30.5 -91.5q0 -27 -6 -40.5t-28 -13.5q-45 0 -45 52q0 59 53.5 104t147.5 45q90 0 137 -39t47 -100q0 -30 -12.5 -54.5t-34.5 -41.5t-42 -27t-46 -20q36 5 77 -10.5t73 -56t32 -96.5q0 -86 -69.5 -144t-173.5 -58z" />
    <glyph glyph-name="four" unicode="4" horiz-adv-x="533" 
d="M493 167h-99v-104q0 -24 16.5 -34.5t59.5 -15.5v-13h-211v13q42 5 58.5 15.5t16.5 34.5v104h-294l-15 43l302 427l67 -16v-399h99v-55zM76 222h258v391l-265 -373q-13 -18 7 -18z" />
    <glyph glyph-name="five" unicode="5" horiz-adv-x="531" 
d="M253 -10q-91 0 -154.5 50.5t-63.5 126.5q0 32 10 44.5t31 12.5q17 0 21.5 -7.5t11.5 -40t19 -63.5q40 -103 137 -103q68 0 113.5 52t45.5 127q0 82 -50.5 143t-137.5 61q-92 0 -139 -65h-17l24 291h283l66 14l-9 -76h-327l-16 -199q24 28 69.5 46.5t95.5 18.5
q89 0 159.5 -57.5t70.5 -154.5q0 -92 -69 -156.5t-174 -64.5z" />
    <glyph glyph-name="six" unicode="6" horiz-adv-x="502" 
d="M255 -10q-62 0 -107 25.5t-68.5 69.5t-34 92t-10.5 103q0 67 14 127.5t42.5 113.5t80.5 84.5t121 31.5q66 0 102 -31l-9 -14q-36 20 -72 20q-56 0 -98.5 -31t-65 -80.5t-33 -101.5t-10.5 -105q9 33 61.5 67t115.5 34q82 0 135 -57.5t53 -136.5q0 -83 -57.5 -147
t-159.5 -64zM265 10q65 0 99.5 54.5t34.5 127.5q0 74 -37.5 121t-101.5 47q-60 0 -106 -40t-46 -102q0 -85 44 -146.5t113 -61.5z" />
    <glyph glyph-name="seven" unicode="7" horiz-adv-x="481" 
d="M87 0l316 559h-230q-31 0 -48.5 -2.5t-37.5 -17.5t-30 -45h-22l38 135l71 -8h312l-313 -621h-56z" />
    <glyph glyph-name="eight" unicode="8" horiz-adv-x="520" 
d="M362 351q59 -24 91 -67.5t32 -98.5q0 -79 -68.5 -137t-170.5 -58q-100 0 -155.5 52.5t-55.5 127.5q0 53 31 99.5t89 74.5q-43 24 -64 61t-21 75q0 66 53.5 111.5t141.5 45.5q87 0 132.5 -44.5t45.5 -105.5q0 -79 -81 -136zM257 617q-67 0 -97.5 -33t-30.5 -82
q0 -91 124 -122l68 -16q8 -2 14 -4q57 54 57 129q0 57 -34.5 92.5t-100.5 35.5zM253 10q77 0 119 49.5t42 116.5q0 53 -32.5 83.5t-101.5 46.5l-64 15q-17 4 -34 11q-88 -55 -88 -151q0 -73 42 -122t117 -49z" />
    <glyph glyph-name="nine" unicode="9" horiz-adv-x="502" 
d="M247 637q62 0 107 -25.5t68.5 -69t34 -92t10.5 -103.5q0 -68 -14 -128t-42.5 -113t-80 -84.5t-121.5 -31.5q-66 0 -102 31l10 14q37 -20 72 -20q56 0 98.5 31t65 80.5t33 101.5t10.5 105q-10 -33 -62.5 -67t-115.5 -34q-82 0 -135 57.5t-53 136.5q0 83 58 147t159 64z
M238 617q-66 0 -100.5 -54.5t-34.5 -127.5t38 -120.5t101 -47.5q59 0 106 40t47 102q0 86 -44 147t-113 61z" />
    <glyph glyph-name="colon" unicode=":" horiz-adv-x="176" 
d="M87 333q-19 0 -33 14t-14 34q0 19 14 33.5t33 14.5t33.5 -14.5t14.5 -33.5q0 -20 -14 -34t-34 -14zM88 -6q-19 0 -33 14.5t-14 33.5t14 33.5t33 14.5q20 0 34 -14t14 -34t-14 -34t-34 -14z" />
    <glyph glyph-name="semicolon" unicode=";" horiz-adv-x="158" 
d="M78 332q-20 0 -34 14t-14 34t14 34t34 14q19 0 33 -14t14 -34t-13.5 -34t-33.5 -14zM67 -83l-8 10q11 10 20.5 27.5t9.5 28.5q0 18 -15 18q-19 0 -31.5 12t-12.5 32q0 21 14 33t33 12q25 0 38 -19t13 -45q0 -29 -15.5 -60t-45.5 -49z" />
    <glyph glyph-name="less" unicode="&#x3c;" horiz-adv-x="466" 
d="M50 263l366 181v-28l-330 -165l330 -165v-28l-366 181v24z" />
    <glyph glyph-name="equal" unicode="=" horiz-adv-x="470" 
d="M50 352h370v-21h-370v21zM50 172h370v-21h-370v21z" />
    <glyph glyph-name="greater" unicode="&#x3e;" horiz-adv-x="466" 
d="M416 263v-24l-366 -181v28l329 165l-329 165v28z" />
    <glyph glyph-name="question" unicode="?" horiz-adv-x="442" 
d="M35 477q0 -32 14.5 -54t37.5 -22q16 0 29 11.5t13 24.5q0 14 -8 37.5t-8 35.5q0 41 22.5 72t74.5 31q51 0 83 -30.5t32 -83.5q0 -34 -13 -62t-31 -51t-36 -50t-29 -70.5t-8 -99.5h25q4 54 23.5 94.5t44 64.5t49 46t41 51.5t16.5 67.5q0 66 -46 106.5t-130 40.5
q-87 0 -141.5 -44.5t-54.5 -115.5zM220 -6q-19 0 -33 14.5t-14 33.5t14 33.5t33 14.5q20 0 34 -14t14 -34t-14 -34t-34 -14z" />
    <glyph glyph-name="at" unicode="@" horiz-adv-x="686" 
d="M433 -75q-37 -8 -80 -8q-132 0 -227.5 94t-95.5 238q0 143 93.5 237t219.5 94q130 0 221.5 -89.5t91.5 -234.5q0 -88 -39 -140.5t-96 -52.5q-66 0 -82 86q-17 -32 -57.5 -59t-89.5 -27q-41 0 -70.5 22t-29.5 71t47 79.5t174 51.5q21 2 21 17q0 112 -82 112
q-46 0 -61.5 -8.5t-15.5 -39.5q0 -26 -6.5 -36.5t-23.5 -10.5q-30 0 -30 29q0 37 47 60t103 23q119 0 119 -132v-166q0 -59 45 -59q24 0 40.5 16t23.5 41t9.5 45.5t2.5 39.5q0 146 -70.5 246t-191.5 100t-190 -84t-69 -212t79 -231.5t193 -103.5q55 0 75 5zM322 92
q47 0 79.5 34t32.5 77v36q0 17 -5 25t-19 7q-161 -20 -161 -107q0 -32 19 -52t54 -20z" />
    <glyph glyph-name="A" unicode="A" horiz-adv-x="706" 
d="M594 103q21 -52 37.5 -68t54.5 -20v-15h-203v14q45 8 53 21t-6 41l-189 450q-7 13 -11.5 12.5t-9.5 -14.5l-121 -286q-1 -8 4 -12.5t14 -4.5h225q11 0 16 7t0 19l35 -86q-17 36 -59 36h-208q-40 0 -57 -30l-37 -86q-12 -31 3.5 -46t57.5 -21v-14h-173v14q35 7 52 19.5
t31 43.5l202 479q18 41 18 65l49 5zM201 245v1v-1z" />
    <glyph glyph-name="B" unicode="B" horiz-adv-x="590" 
d="M30 0v14q18 4 25.5 6t16.5 7t11.5 13t2.5 21v501q0 13 -2.5 20.5t-12 12t-16 6.5t-25.5 6v14h284q97 0 152 -37t55 -106q0 -113 -146 -149q86 -14 133 -55t47 -107q0 -72 -54 -119.5t-141 -47.5q-12 0 -84 3t-139 3t-107 -6zM216 344h87q151 0 151 132q0 61 -34 92.5
t-110 31.5h-94q-34 0 -48 -7t-14 -31v-180q0 -24 14 -31t48 -7zM188 23h150q150 0 150 139q0 81 -58.5 120.5t-205.5 39.5q-39 0 -54.5 -7t-15.5 -31v-215q0 -46 34 -46z" />
    <glyph glyph-name="C" unicode="C" horiz-adv-x="631" 
d="M348 -10q-128 0 -223 88t-95 232q0 100 48.5 176t122.5 113.5t158 37.5q96 0 161 -51t65 -106q0 -24 -13.5 -37.5t-35.5 -13.5q-17 0 -29.5 13t-12.5 41q0 43 -43 84t-119 41q-105 0 -170 -66.5t-65 -179.5q0 -140 85.5 -229.5t216.5 -89.5q60 0 102.5 22.5t84.5 69.5
l10 -8q-27 -49 -91 -93t-157 -44z" />
    <glyph glyph-name="D" unicode="D" horiz-adv-x="614" 
d="M30 0v14q18 4 25.5 6t16.5 7t11.5 13t2.5 21v501q0 13 -2.5 20.5t-12 12t-16 6.5t-25.5 6v14h212q49 0 93.5 -8t89 -29.5t77 -55t52.5 -88t20 -124.5q0 -149 -86.5 -231.5t-237.5 -82.5q-18 0 -64 2t-65 2q-42 0 -91 -6zM250 21q70 0 121 23.5t79 66t41 93t13 112.5
q0 59 -12.5 106.5t-40.5 89.5t-81.5 65t-128.5 23h-25q-34 0 -48 -7t-14 -31v-501q0 -40 96 -40z" />
    <glyph glyph-name="E" unicode="E" horiz-adv-x="547" 
d="M30 0v14q18 4 25.5 6t16.5 7t11.5 13t2.5 21v499q0 13 -2.5 21t-11.5 13t-16.5 7t-25.5 6v14h438q15 0 16 -13q5 -42 19 -102h-17q-16 46 -47 67.5t-83 21.5h-140q-34 0 -48 -7t-14 -31v-189q0 -24 14 -31t48 -7h115q39 0 54 16.5t22 52.5h14v-167h-14q-7 37 -22 54
t-54 17h-115q-34 0 -48 -7t-14 -31v-200q0 -25 21 -32.5t85 -5.5l117 1q51 1 73.5 13.5t35.5 35.5l24 38h17q-23 -45 -30 -101q-2 -14 -16 -14h-451z" />
    <glyph glyph-name="F" unicode="F" horiz-adv-x="523" 
d="M30 0v14q18 4 25.5 6t16.5 7t11.5 13t2.5 21v499q0 13 -2.5 21t-11.5 13t-16.5 7t-25.5 6v14h438q15 0 16 -13q5 -42 19 -102h-17q-16 46 -47 67.5t-83 21.5h-140q-34 0 -48 -7t-14 -31v-189q0 -24 14 -31t48 -7h115q38 0 53.5 15t22.5 44h14v-147h-14q-7 30 -22.5 45.5
t-53.5 15.5h-115q-34 0 -48 -7t-14 -31v-204q0 -18 8 -27t19 -12t39 -8v-14h-190z" />
    <glyph glyph-name="G" unicode="G" horiz-adv-x="649" 
d="M349 -10q-129 0 -224 88t-95 232q0 100 48.5 176t122.5 113.5t158 37.5q99 0 163.5 -49.5t64.5 -102.5q0 -23 -13.5 -37t-34.5 -14q-18 0 -30.5 10.5t-12.5 30.5q0 50 -43 91.5t-126 41.5q-102 0 -166 -67.5t-64 -183.5q0 -139 90 -235t225 -96q44 0 69 14t25 54v122
q0 31 -14.5 39.5t-72.5 13.5v13l215 1v-14q-43 -5 -53 -13.5t-10 -39.5v-216q-19 17 -42.5 18.5t-45.5 -5.5t-60 -15t-74 -8z" />
    <glyph glyph-name="H" unicode="H" horiz-adv-x="668" 
d="M638 607q-18 -4 -25.5 -6t-16.5 -7t-11.5 -13t-2.5 -21v-499q0 -13 2.5 -21t11.5 -13t16.5 -7t25.5 -6v-14h-181v14q18 4 25.5 6t16.5 7t11.5 13t2.5 21v202q0 19 -7 27t-23 8h-298q-31 0 -31 -35v-202q0 -13 3 -21t12 -13t16 -7t25 -6v-14h-180v14q18 4 25.5 6t16.5 7
t11.5 13t2.5 21v499q0 13 -2.5 21t-11.5 13t-16.5 7t-25.5 6v14h180v-14q-18 -4 -25 -6t-16 -7t-12 -13t-3 -21v-205q0 -35 32 -35h296q17 0 24 8t7 27v205q0 13 -2.5 21t-11.5 13t-16.5 7t-25.5 6v14h181v-14z" />
    <glyph glyph-name="I" unicode="I" horiz-adv-x="240" 
d="M30 0v14q18 4 25.5 6t16.5 7t11.5 13t2.5 21v499q0 13 -2.5 21t-11.5 13t-16.5 7t-25.5 6v14h180v-14q-18 -4 -25 -6t-16 -7t-12 -13t-3 -21v-499q0 -13 3 -21t12 -13t16 -7t25 -6v-14h-180z" />
    <glyph glyph-name="J" unicode="J" horiz-adv-x="277" 
d="M81 -10q-53 0 -77 22t-24 50q0 44 37 44q36 0 36 -40q0 -19 7.5 -38t25.5 -19t27 19t9 46v486q0 18 -7.5 27t-18.5 12t-39 8v14h190v-14q-18 -4 -25.5 -6t-16.5 -7t-11.5 -13t-2.5 -21v-439q0 -66 -25.5 -98.5t-84.5 -32.5z" />
    <glyph glyph-name="K" unicode="K" horiz-adv-x="604" 
d="M472 91q9 -11 18 -20.5t17 -16.5t14 -12.5t13.5 -9.5t11 -6.5t11 -4.5t9.5 -3t9.5 -2.5t8.5 -1.5v-14h-187v14q25 -1 33.5 10.5t-12.5 38.5l-189 218q-17 18 -47 -11l-8 -7q-19 -17 -20 -42v-160q0 -13 3 -21t12 -13t16 -7t25 -6v-14h-180v14q18 4 25.5 6t16.5 7t11.5 13
t2.5 21v499q0 13 -2.5 21t-11.5 13t-16.5 7t-25.5 6v14h180v-14q-18 -4 -25 -6t-16 -7t-12 -13t-3 -21v-287l267 271q15 15 18 27.5t-4.5 19.5t-17 11t-20.5 5v14h168v-14q-28 -3 -54 -15.5t-65 -51.5l-178 -182q-3 -4 -4.5 -7t-1 -7t1 -6.5t4 -7t4.5 -6t5.5 -6l5.5 -5.5z
" />
    <glyph glyph-name="L" unicode="L" horiz-adv-x="542" 
d="M30 0v14q18 4 25.5 6t16.5 7t11.5 13t2.5 21v499q0 13 -2.5 21t-11.5 13t-16.5 7t-25.5 6v14h180v-14q-18 -4 -25 -6t-16 -7t-12 -13t-3 -21v-499q0 -45 48 -44l182 9q71 3 105 61l15 28h18l-22 -65q-11 -30 -10 -50h-460z" />
    <glyph glyph-name="M" unicode="M" horiz-adv-x="795" 
d="M765 607q-18 -4 -25 -6t-16 -7t-12 -13t-3 -21v-499q0 -13 3 -21t12 -13t16 -7t25 -6v-14h-180v14q18 4 25 6t16 7t12 13t3 21v510l-246 -504h-25l-259 502v-508q0 -17 7 -26.5t15.5 -12.5t30.5 -8v-14h-134v14q18 4 25.5 6t16.5 7t11.5 13t2.5 21v499q0 13 -2.5 21
t-11.5 13t-16.5 7t-25.5 6v14h130l246 -479l235 479h124v-14z" />
    <glyph glyph-name="N" unicode="N" horiz-adv-x="625" 
d="M460 621h135v-14q-18 -4 -25 -6t-16 -7t-12 -13t-3 -21v-560h-25l-403 554v-493q0 -13 2.5 -21t11 -13t15 -7t23.5 -6v-14h-133v14q18 4 25.5 6t16.5 7t11.5 13t2.5 21v499q0 13 -2.5 21t-11.5 13t-16.5 7t-25.5 6v14h114l370 -509v448q0 17 -7 26.5t-15.5 12.5t-31.5 8
v14z" />
    <glyph glyph-name="O" unicode="O" horiz-adv-x="693" 
d="M342 -10q-136 0 -224 92t-88 226q0 137 92 233t229 96t224.5 -92t87.5 -226q0 -137 -92 -233t-229 -96zM361 15q93 0 160 68t67 208q0 142 -75 232t-182 90q-92 0 -159 -68t-67 -207q0 -143 74.5 -233t181.5 -90z" />
    <glyph glyph-name="P" unicode="P" horiz-adv-x="558" 
d="M30 0v14q18 4 25.5 6t16.5 7t11.5 13t2.5 21v499q0 13 -2.5 21t-11.5 13t-16.5 7t-25.5 6v14h257q117 0 181.5 -48t64.5 -138q0 -91 -65 -141.5t-181 -50.5h-78q-30 0 -42.5 -12.5t-12.5 -40.5v-129q0 -18 8 -27t19 -12t39 -8v-14h-190zM209 265h78q167 0 167 168
q0 166 -167 166h-96q-19 0 -28 -7t-9 -32v-242q0 -28 12.5 -40.5t42.5 -12.5z" />
    <glyph glyph-name="Q" unicode="Q" horiz-adv-x="693" 
d="M588 -13q33 0 33 -41q0 -40 -36.5 -68.5t-83.5 -28.5q-55 0 -104 35l-150 110q-61 42 -94.5 32.5t-33.5 -66.5q0 -16 -10.5 -27t-25.5 -11q-14 0 -25 9.5t-11 30.5q0 31 27 59t73 34q-55 44 -86 110t-31 143q0 137 92 233t229 96t224.5 -92t87.5 -226q0 -137 -92 -233
t-229 -96h-8l115 -80q62 -43 81.5 -34.5t19.5 75.5q0 14 10 25t28 11zM105 338q0 -143 74.5 -233t181.5 -90q93 0 160 68t67 208q0 142 -75 232t-182 90q-92 0 -159 -68t-67 -207z" />
    <glyph glyph-name="R" unicode="R" horiz-adv-x="583" 
d="M30 0v14q18 4 25.5 6t16.5 7t11.5 13t2.5 21v499q0 13 -2.5 21t-11.5 13t-16.5 7t-25.5 6v14h245q116 0 173.5 -43.5t57.5 -123.5q0 -61 -32.5 -97t-100.5 -57q-11 -5 0 -8q42 -12 66.5 -46t32.5 -70q28 -97 46.5 -129.5t44.5 -32.5v-14h-12q-63 0 -94.5 38t-49.5 115
q-19 73 -60 103.5t-113 30.5q-48 0 -64 -12t-16 -41v-173q0 -18 8 -27t19 -12t39 -8v-14h-190zM209 309h86q142 0 142 142q0 71 -35.5 109.5t-117.5 38.5h-93q-19 0 -28 -7t-9 -32v-198q0 -28 12.5 -40.5t42.5 -12.5z" />
    <glyph glyph-name="S" unicode="S" horiz-adv-x="503" 
d="M227 -10q-56 0 -93 11t-80 36q-13 33 -17 67t0.5 54.5t15.5 20.5t13 -7q23 -75 77 -116.5t127 -40.5q58 1 94 30t36 88q0 19 -4.5 35t-9 27t-18.5 22.5t-20.5 17.5t-27.5 15t-27.5 11.5t-33 11.5t-31.5 11q-96 33 -144.5 76t-48.5 114q0 70 56.5 116.5t160.5 46.5
q86 0 163 -44q13 -33 17 -67t-0.5 -54.5t-15.5 -20.5q-10 0 -13 7q-24 75 -73.5 115.5t-112.5 40.5q-60 0 -88.5 -34t-28.5 -85q0 -59 37.5 -91t110.5 -59q7 -3 31 -11t34 -12t32 -13t33 -16t28 -18t26 -22t18.5 -25.5t13.5 -31.5t4 -37q0 -83 -69 -126t-172 -43z" />
    <glyph glyph-name="T" unicode="T" horiz-adv-x="567" 
d="M173 0v14q34 5 47 8t21 12t8 27v492q0 15 -4 22.5t-23.5 13.5t-58.5 6q-53 0 -77 -18t-44 -75h-17l14 122l57 -3h375l57 3l14 -122h-17q-20 57 -44 75t-77 18q-56 0 -71 -10t-15 -32v-492q0 -18 8 -27t21 -12t47 -8v-14h-221z" />
    <glyph glyph-name="U" unicode="U" horiz-adv-x="626" 
d="M314 -10q-104 0 -168.5 65t-64.5 190v315q0 13 -2.5 21t-11.5 13t-16.5 7t-25.5 6v14h180v-14q-18 -4 -25 -6t-16 -7t-12 -13t-3 -21v-293q0 -122 47 -184t133 -62q38 0 70 11.5t60 37.5t44 75t16 116v299q0 13 -3 21t-14 13t-17 7t-26 6v14h142v-14q-18 -4 -24.5 -6
t-16 -7t-12.5 -13t-3 -21v-300q0 -132 -61 -201t-170 -69z" />
    <glyph glyph-name="V" unicode="V" horiz-adv-x="706" 
d="M332 0l-220 518q-21 52 -37.5 68t-54.5 20v15h203v-14q-45 -8 -52.5 -21t6.5 -41l189 -450q7 -13 11.5 -12.5t9.5 14.5l187 444q13 30 -2.5 45.5t-58.5 20.5v14h173v-14q-35 -7 -52 -19.5t-31 -43.5l-202 -479q-17 -40 -17 -65h-52z" />
    <glyph glyph-name="W" unicode="W" horiz-adv-x="1003" 
d="M311 0l-197 518q-20 51 -37.5 67.5t-56.5 20.5v15h198v-14q-45 -8 -52 -20t7 -42l169 -445q10 -24 20 0l114 298q5 12 6 25t-2 26t-5.5 21.5t-7.5 20t-6 13.5q-24 60 -41.5 79t-58.5 23v15h199v-14q-45 -8 -52 -20t7 -42l168 -445q10 -24 20 0l168 441q11 30 -4.5 45.5
t-57.5 20.5v14h174v-14q-36 -7 -53.5 -19t-30.5 -44l-184 -479q-16 -44 -16 -65h-47l-150 398l-128 -333q-16 -44 -16 -65h-47z" />
    <glyph glyph-name="X" unicode="X" horiz-adv-x="661" 
d="M527 112q51 -68 66 -80q18 -15 48 -18v-14h-189v14q23 3 31 6.5t7 15t-18 33.5l-154 208q-145 -185 -152 -231q-4 -27 30 -31q3 -1 6 -1v-14h-182v14q37 3 78 38.5t139 160.5l67 84l-157 213q-51 68 -64 78q-18 16 -49 19v14h189v-14q-22 -3 -30.5 -6.5t-7.5 -15
t18 -33.5l148 -201q142 183 143 228q-1 25 -37 28v14h183v-14q-36 -3 -75.5 -37.5t-138.5 -160.5l-60 -78z" />
    <glyph glyph-name="Y" unicode="Y" horiz-adv-x="619" 
d="M199 0v14q33 5 46 8t21.5 12t8.5 27v189q0 6 -2 12.5t-4 10t-7 12t-8 13.5l-136 218q-28 45 -49 62t-54 29v14h195v-14q-39 -10 -43.5 -25.5t14.5 -42.5l140 -223q7 -9 14 0l129 217q14 22 16 36.5t-7 22t-18 10.5t-26 5v14h175v-14q-38 -4 -60 -18.5t-52 -64.5
l-136 -223q-13 -19 -13 -51v-189q0 -18 8.5 -27t21.5 -12t46 -8v-14h-220z" />
    <glyph glyph-name="Z" unicode="Z" horiz-adv-x="554" 
d="M15 0l425 603l-223 -1q-77 0 -108.5 -23.5t-46.5 -72.5h-17l13 115h476l-427 -602l259 2q64 1 96.5 21.5t54.5 61.5h17l-19 -104h-500z" />
    <glyph glyph-name="bracketleft" unicode="[" horiz-adv-x="241" 
d="M216 763v-4h-1q1 1 1 4zM195 747l-97 -19v-863l97 -19q18 -4 20 -12l-170 6v913l170 6q-2 -8 -20 -12zM216 -166v-4q0 3 -1 4h1z" />
    <glyph glyph-name="backslash" unicode="\" horiz-adv-x="363" 
d="M328 0h-26l-267 641h26z" />
    <glyph glyph-name="bracketright" unicode="]" horiz-adv-x="241" 
d="M25 759v4q0 -3 1 -4h-1zM196 753v-913l-170 -6q2 8 20 12l97 19v863l-97 19q-18 4 -20 12zM25 -170v4h1q-1 -1 -1 -4z" />
    <glyph glyph-name="asciicircum" unicode="^" horiz-adv-x="419" 
d="M205 672q6 6 9 0l150 -201q4 -6 5 -10.5t-0.5 -7t-4.5 -2.5h-16q-4 0 -22 19l-116 131l-117 -133q-17 -17 -21 -17h-16q-4 0 -5.5 2.5t-0.5 7t5 10.5z" />
    <glyph glyph-name="underscore" unicode="_" horiz-adv-x="612" 
d="M50 -20h512v-3h-512v3z" />
    <glyph glyph-name="grave" unicode="`" horiz-adv-x="276" 
d="M229 549l-102 103q-29 29 -49 4q-3 -4 -4.5 -9t-1 -12t7 -15.5t18.5 -15.5l115 -70q24 -13 27 -5q0 10 -11 20z" />
    <glyph glyph-name="a" unicode="a" 
d="M158 -6q-54 0 -91 27.5t-37 82.5q0 30 13 54t45 46.5t92 38.5t147 25q17 0 17 21v26q0 54 -32 89.5t-95 35.5q-87 0 -87 -76q0 -48 -34 -48q-32 0 -32 39q0 47 57.5 76t129.5 29q83 0 118 -39t35 -117v-241q0 -54 49 -40v-12q-24 -16 -51 -16q-59 0 -60 74q1 5 -3 5
q-4 -1 -9 -6q-30 -36 -76.5 -55t-95.5 -19zM203 29q55 0 98 33t43 73v75q0 21 -7.5 30t-32.5 6q-115 -15 -160 -45t-45 -74q0 -39 27.5 -68.5t76.5 -29.5z" />
    <glyph glyph-name="b" unicode="b" horiz-adv-x="522" 
d="M86 -6q-10 0 -10 11v558q0 36 -11.5 48.5t-54.5 8.5v12l95 24q14 4 22.5 -3t8.5 -23v-228q0 -3 1.5 -5.5t5.5 -2t9 6.5q17 20 58 39.5t87 19.5q83 0 139 -63t56 -161q0 -112 -63 -177t-153 -65q-36 0 -68 12t-52.5 23.5t-28.5 11.5q-13 0 -23 -23.5t-18 -23.5zM288 13
q67 0 105.5 50t38.5 133q0 93 -49 155t-124 62q-47 0 -85 -24.5t-38 -78.5v-144q0 -72 47 -112.5t105 -40.5z" />
    <glyph glyph-name="c" unicode="c" 
d="M259 -6q-94 0 -161.5 65t-67.5 164q0 106 70.5 171.5t172.5 65.5q70 0 113 -36.5t43 -79.5q0 -16 -10.5 -27t-27.5 -11q-36 0 -36 37q0 40 -29 70t-81 30q-68 0 -112 -50.5t-44 -133.5q0 -98 59.5 -157.5t146.5 -59.5q81 0 131 58l12 -10q-20 -34 -66.5 -65t-112.5 -31z
" />
    <glyph glyph-name="d" unicode="d" horiz-adv-x="527" 
d="M447 65q0 -54 65 -35v-14q-33 -21 -65 -21q-31 0 -45.5 15t-14.5 57v7q-69 -80 -161 -80q-84 0 -140 63.5t-56 163.5q0 110 63 174.5t154 64.5q24 0 49 -5t40 -10t27.5 -8t18 1t5.5 17v108q0 36 -11.5 48.5t-54.5 8.5v12l95 24q14 4 22.5 -3t8.5 -23v-565zM266 42
q48 0 84.5 23.5t36.5 76.5v170q0 61 -48 95t-109 34q-65 0 -102.5 -50.5t-37.5 -135.5q0 -95 48 -154t128 -59z" />
    <glyph glyph-name="e" unicode="e" horiz-adv-x="462" 
d="M419 100l12 -10q-20 -34 -65.5 -65t-109.5 -31q-96 0 -161 65t-65 168q0 104 66.5 168.5t160.5 64.5q76 0 123 -43t47 -104q0 -41 -41.5 -58t-145.5 -19l-121 -2q-14 1 -19 -5.5t-6 -20.5q14 -75 69 -120.5t130 -45.5q81 0 126 58zM240 443q-65 0 -103 -40.5t-45 -114.5
q0 -23 6.5 -29.5t21.5 -6.5l105 2q74 1 104.5 17.5t30.5 51.5q0 56 -31 88t-89 32z" />
    <glyph glyph-name="f" unicode="f" horiz-adv-x="335" 
d="M239 672q58 0 87 -26t29 -57q0 -32 -35 -32q-16 0 -24.5 15.5t-11.5 34t-18 34t-42 15.5q-49 0 -65.5 -37.5t-16.5 -120.5v-22q0 -25 16 -25h113v-20h-113q-16 0 -16 -18v-350q0 -24 14.5 -34.5t53.5 -15.5v-13h-192v13q36 5 50 15.5t14 34.5v350q0 18 -19 18h-43v14
q62 8 62 31v17q0 88 44 133.5t113 45.5z" />
    <glyph glyph-name="g" unicode="g" horiz-adv-x="492" 
d="M130 165q-40 0 -40 -31q0 -28 40 -33l177 -30q75 -12 109.5 -33.5t34.5 -65.5q0 -68 -78 -111.5t-173 -43.5q-81 0 -133 34t-52 91q0 66 78 101q9 4 4 4q-27 5 -45 24t-18 45q0 50 77 66q-68 41 -68 124q0 70 49 112t130 42q113 0 159 -74q2 72 56 72q19 0 29.5 -9.5
t10.5 -21.5q0 -19 -15 -27t-31 -1q-9 2 -15 2t-9 -12t-4.5 -29t-1.5 -50q0 -72 -48 -113t-127 -41q-22 0 -51.5 4.5t-44.5 4.5zM206 445q-48 0 -70 -32.5t-22 -79.5q0 -75 34.5 -118.5t89.5 -43.5q47 0 69.5 33t22.5 79q0 76 -34 119t-90 43zM185 33q-47 7 -77.5 -14.5
t-30.5 -61.5q0 -51 45 -84t118 -33q61 0 106 31t45 88q0 40 -80 54z" />
    <glyph glyph-name="h" unicode="h" horiz-adv-x="523" 
d="M454 63q0 -54 49 -40v-12q-32 -16 -54 -16q-27 0 -41 13.5t-14 47.5v228q0 57 -35 97t-89 40q-55 0 -92 -40.5t-37 -96.5v-221q0 -24 14 -34.5t51 -15.5v-13h-189v13q36 5 50 15.5t14 34.5v500q0 36 -11.5 48.5t-54.5 8.5v12l95 24q14 4 22.5 -3t8.5 -23v-201
q0 -46 11 -46q4 0 9 5q1 0 8 8t14 14.5t20.5 16t27.5 16t34.5 11t41.5 4.5q62 0 104.5 -40.5t42.5 -114.5v-240z" />
    <glyph glyph-name="i" unicode="i" horiz-adv-x="241" 
d="M112 588q-15 0 -27 13t-12 29q0 14 12 26.5t27 12.5q16 0 28 -12.5t12 -26.5q0 -17 -12 -29.5t-28 -12.5zM27 0v13q36 5 50 15.5t14 34.5v300q0 37 -11.5 50t-54.5 9v12l95 24q14 4 22.5 -3t8.5 -23v-369q0 -24 14 -34.5t51 -15.5v-13h-189z" />
    <glyph glyph-name="j" unicode="j" horiz-adv-x="203" 
d="M99 588q-15 0 -27 13t-12 29q0 14 12 26.5t27 12.5t27.5 -12.5t12.5 -26.5q0 -17 -12 -29.5t-28 -12.5zM29 -199q-34 0 -57 14t-23 39q0 33 33 33q9 0 20.5 -16.5t25 -32.5t27.5 -16q23 0 23 52v489q0 37 -11.5 50t-54.5 9v12l95 24q14 4 22.5 -3t8.5 -23v-502
q0 -60 -28.5 -94.5t-80.5 -34.5z" />
    <glyph glyph-name="k" unicode="k" horiz-adv-x="481" 
d="M406 59q8 -11 15 -18.5t11.5 -12t11.5 -7.5t10 -3.5t13 -2t14 -2.5v-13h-158v13q30 5 33 10.5t-12 28.5l-141 192q-4 4 -23 -12q-39 -30 -39 -61v-108q0 -24 14 -34.5t51 -15.5v-13h-189v13q36 5 50 15.5t14 34.5v500q0 36 -11.5 48.5t-54.5 8.5v12l95 24q14 4 22.5 -3
t8.5 -23v-376q0 -12 6.5 -15t14.5 3l173 159q30 28 -36 37v13h138v-13q-16 -2 -27.5 -6.5t-15.5 -7.5t-15 -13t-16 -14l-124 -112z" />
    <glyph glyph-name="l" unicode="l" horiz-adv-x="216" 
d="M136 -5q-31 0 -45.5 15t-14.5 57v496q0 36 -11.5 48.5t-54.5 8.5v12l95 24q14 4 22.5 -3t8.5 -23v-565q0 -54 65 -35v-14q-33 -21 -65 -21z" />
    <glyph glyph-name="m" unicode="m" horiz-adv-x="802" 
d="M733 65q0 -54 49 -40v-14q-32 -16 -54 -16q-27 0 -41 13.5t-14 47.5v228q0 61 -29.5 100t-84.5 39q-50 0 -83.5 -41t-33.5 -98v-221q0 -24 14 -34.5t51 -15.5v-13h-189v13q36 5 50 15.5t14 34.5v221q0 61 -29.5 100t-84.5 39q-50 0 -83.5 -41t-33.5 -98v-221
q0 -24 14 -34.5t51 -15.5v-13h-189v13q36 5 50 15.5t14 34.5v298q0 37 -11.5 50t-54.5 10v13l95 24q14 4 22.5 -3.5t8.5 -25.5q0 -46 11 -46q4 0 9 5l3 4q4 5 7.5 8.5l9.5 9.5t12 11t14.5 11t18 10t20 8t23.5 6t26 2q72 0 111 -57q13 -17 20.5 -20t18.5 6q1 0 7.5 8t17.5 18
t26.5 20.5t38.5 17.5t49 7q60 0 99.5 -40t39.5 -115v-238z" />
    <glyph glyph-name="n" unicode="n" horiz-adv-x="533" 
d="M459 -5q-27 0 -41 13.5t-14 47.5v228q0 61 -32.5 100t-91.5 39q-55 0 -92 -41t-37 -98v-221q0 -24 14 -34.5t51 -15.5v-13h-189v13q36 5 50 15.5t14 34.5v300q0 37 -11.5 50t-54.5 9v12l95 24q14 4 22.5 -3.5t8.5 -25.5q0 -46 11 -46q4 0 9 5q62 70 146 70
q62 0 104.5 -40.5t42.5 -114.5v-240q0 -54 49 -40v-12q-32 -16 -54 -16z" />
    <glyph glyph-name="o" unicode="o" horiz-adv-x="520" 
d="M258 -6q-94 0 -161 64t-67 166t68.5 169t164.5 67q94 0 160.5 -64t66.5 -166t-68 -169t-164 -67zM284 15q65 0 104.5 46.5t39.5 136.5q0 100 -55 170.5t-137 70.5q-64 0 -104 -46.5t-40 -136.5q0 -99 55 -170t137 -71z" />
    <glyph glyph-name="p" unicode="p" horiz-adv-x="537" 
d="M312 460q83 0 139 -63t56 -161q0 -112 -63 -177t-153 -65q-28 0 -54 7t-40.5 14t-26 11.5t-15.5 -0.5t-4 -22v-131q0 -25 14 -35t51 -15v-13h-189v13q36 5 50 15t14 35v490q0 37 -11.5 50t-54.5 9v12l95 24q14 4 22.5 -3t8.5 -23v-30q0 -3 1.5 -5.5t5.5 -2t9 6.5
q17 21 57.5 40t87.5 19zM305 13q66 0 104 50t38 133q0 93 -48.5 155t-122.5 62q-48 0 -86.5 -24.5t-38.5 -78.5v-144q0 -72 47.5 -112.5t106.5 -40.5z" />
    <glyph glyph-name="q" unicode="q" horiz-adv-x="511" 
d="M322 -190v13q36 5 50 15t14 35v178q0 3 -1.5 5.5t-5.5 2t-9 -6.5q-17 -21 -55 -39.5t-86 -18.5q-86 0 -142.5 62t-56.5 161q0 112 64 177.5t156 65.5q34 0 65.5 -12t51.5 -24t28 -12q13 0 23 23.5t18 23.5q10 0 10 -11v-575q0 -25 14 -35t51 -15v-13h-189zM265 42
q46 0 83.5 24t37.5 77v164q0 64 -47 99t-107 35q-66 0 -104 -50.5t-38 -135.5q0 -95 48 -154t127 -59z" />
    <glyph glyph-name="r" unicode="r" horiz-adv-x="404" 
d="M27 0v13q36 5 50 15.5t14 34.5v300q0 37 -11.5 50t-54.5 9v12l95 24q14 4 22.5 -3.5t8.5 -25.5q0 -42 9 -42q3 0 9 6l9 9q10 10 20.5 18t26 17.5t36.5 15t43 5.5q85 0 85 -73q0 -16 -10.5 -27.5t-26.5 -11.5q-15 0 -24 8.5t-9 19.5q0 19 -14.5 33.5t-40.5 14.5
q-48 0 -80.5 -43t-32.5 -111v-205q0 -24 14.5 -34.5t51.5 -15.5v-13h-190z" />
    <glyph glyph-name="s" unicode="s" horiz-adv-x="405" 
d="M186 -6q-64 0 -112.5 28.5t-48.5 82.5q0 45 34 45q12 0 21.5 -9t9.5 -18q0 -56 36.5 -84t85.5 -28q101 0 101 85q0 19 -9.5 35t-19 25t-34 20t-33 14t-38.5 12q-61 19 -100.5 49.5t-39.5 84.5q0 55 44 89.5t120 34.5q69 0 114.5 -27.5t45.5 -73.5q0 -18 -10 -30.5
t-28 -12.5q-29 0 -29 34q0 39 -33.5 66t-75.5 27q-45 0 -65.5 -19.5t-20.5 -58.5q0 -24 7.5 -41.5t26 -29.5t34 -19t46.5 -18q33 -11 46 -15.5t41.5 -18t41.5 -25.5t24.5 -32.5t11.5 -44.5q0 -53 -54.5 -90t-139.5 -37z" />
    <glyph glyph-name="t" unicode="t" horiz-adv-x="278" 
d="M181 -5q-104 0 -104 125v293q0 18 -19 18h-43v14q44 10 70 34.5t35 73.5h17v-77q0 -25 16 -25h92v-20h-92q-16 0 -16 -18v-300q0 -94 64 -94q33 0 50 14l7 -12q-24 -26 -77 -26z" />
    <glyph glyph-name="u" unicode="u" horiz-adv-x="538" 
d="M237 -6q-61 0 -103.5 40.5t-42.5 114.5v214q0 37 -11.5 50t-54.5 9v12l95 24q14 4 22.5 -3t8.5 -23v-264q0 -62 33 -100.5t91 -38.5q55 0 92 41t37 98v195q0 37 -11.5 50t-54.5 9v12l95 24q14 4 22.5 -3t8.5 -23v-369q0 -54 49 -40v-12q-24 -16 -53 -16q-23 0 -41 13.5
t-21 44.5q0 12 -8 12q-4 0 -11 -7l-6 -6t-11 -10l-15 -12.5t-20 -13t-24.5 -11t-30.5 -8.5t-35 -3z" />
    <glyph glyph-name="v" unicode="v" horiz-adv-x="501" 
d="M229 0l-140 341q-21 53 -34 68.5t-45 28.5v13h180v-13q-42 -13 -47.5 -28.5t14.5 -68.5l99 -240q9 -21 18 0l53 132q35 88 42.5 130t-3 53.5t-43.5 21.5v13h168v-13q-44 -13 -62 -30.5t-37 -66.5l-140 -341h-23z" />
    <glyph glyph-name="w" unicode="w" horiz-adv-x="726" 
d="M229 0l-140 341q-21 53 -34 68.5t-45 28.5v13h178v-13q-42 -13 -47.5 -28.5t15.5 -68.5l98 -240q12 -23 20 0l38 100q32 91 4 158q-15 34 -29.5 50t-49.5 29v13h177v-13q-41 -13 -46.5 -28.5t14.5 -68.5l99 -240q11 -22 19 0l49 132q34 92 41.5 132t-1.5 51.5t-42 21.5
v13h169v-13q-43 -13 -60.5 -30t-38.5 -67l-140 -341h-22l-103 250l-101 -250h-22z" />
    <glyph glyph-name="x" unicode="x" horiz-adv-x="488" 
d="M473 438q-48 -12 -71.5 -30t-70.5 -79l-62 -86l97 -139q30 -42 52.5 -61.5t54.5 -29.5v-13h-188v13q27 7 34.5 18.5t1.5 27t-28 45.5l-62 88q-47 -65 -63 -102t-8.5 -53t36.5 -24v-13h-181v13q47 12 71.5 31t70.5 79l63 86l-96 138q-30 42 -52.5 61.5t-54.5 29.5v13h188
v-13q-27 -8 -35 -18.5t-2 -26.5t28 -46l61 -87q48 65 64 102t8.5 52.5t-37.5 23.5v13h181v-13z" />
    <glyph glyph-name="y" unicode="y" horiz-adv-x="509" 
d="M107 -198q-32 0 -49.5 15t-17.5 39q0 21 14 33t32 12q16 0 24 -10.5t8.5 -22.5t5.5 -22.5t18 -10.5q31 0 67 91q11 28 11.5 57t-3 42t-11.5 34l-117 282q-21 53 -34 68.5t-45 28.5v13h180v-13q-42 -13 -48 -28.5t16 -68.5l103 -248q3 -6 8 -6t8 6l56 140
q27 68 38.5 105.5t7.5 58t-13.5 27t-35.5 14.5v13h169v-13q-44 -13 -62 -30.5t-38 -66.5l-175 -426q-28 -65 -44 -83q-27 -30 -73 -30z" />
    <glyph glyph-name="z" unicode="z" horiz-adv-x="432" 
d="M15 0l307 427h-181q-35 0 -56 -18.5t-36 -58.5h-13l18 101h363l-307 -427h183q35 0 56 18.5t36 58.5h13l-18 -101h-365z" />
    <glyph glyph-name="braceleft" unicode="{" horiz-adv-x="252" 
d="M162 43q0 -148 65 -182l-1 -27q-48 19 -75 53.5t-34.5 69.5t-7.5 86v184q0 22 -12 32.5t-52 28.5v15q40 18 52 28.5t12 32.5v184q0 51 7.5 86t34.5 69.5t75 53.5l1 -27q-65 -34 -65 -182v-206q0 -13 -14 -21.5t-43 -20.5q-5 -2 -8 -3v-3q52 -21 61 -32q4 -6 4 -13v-206z
" />
    <glyph glyph-name="bar" unicode="|" horiz-adv-x="220" 
d="M100 800h20v-1015h-20v1015z" />
    <glyph glyph-name="braceright" unicode="}" horiz-adv-x="252" 
d="M90 43v206q0 13 14 21.5t43 20.5q2 1 4 1.5t4 1.5v3q-52 21 -61 32q-4 7 -4 13v206q0 148 -65 182l1 27q48 -19 75 -53.5t34.5 -69.5t7.5 -86v-184q0 -22 12 -32.5t52 -28.5v-15q-40 -18 -52 -28.5t-12 -32.5v-184q0 -51 -7.5 -86t-34.5 -69.5t-75 -53.5l-1 27
q65 34 65 182z" />
    <glyph glyph-name="asciitilde" unicode="~" horiz-adv-x="477" 
d="M427 300h-19q0 -25 -13.5 -39.5t-33.5 -14.5q-21 0 -91.5 35.5t-117.5 35.5q-42 0 -72 -30.5t-30 -86.5h19q0 27 13.5 40.5t33.5 13.5t90 -35.5t119 -35.5q42 0 72 30.5t30 86.5z" />
    <glyph glyph-name="exclamdown" unicode="&#xa1;" horiz-adv-x="189" 
d="M95 456q19 0 33 -14.5t14 -33.5t-14 -33.5t-33 -14.5t-33.5 14t-14.5 34t14.5 34t33.5 14zM87 276h15q2 -100 22 -226t20 -166q0 -71 -49 -71q-50 0 -50 71q0 40 20 166t22 226z" />
    <glyph glyph-name="cent" unicode="&#xa2;" 
d="M426 100l12 -10q-20 -34 -66.5 -65t-112.5 -31q-41 0 -77 13l-18 -68h-18l20 74q-61 26 -98.5 82t-37.5 128q0 106 70.5 171.5t172.5 65.5h15l16 59h18l-17 -61q57 -9 90.5 -43t33.5 -71q0 -16 -10.5 -27t-27.5 -11q-36 0 -36 37q0 27 -15 51.5t-42 37.5l-100 -367
q44 -23 97 -23q81 0 131 58zM89 259q0 -126 94 -185l99 364q-18 5 -37 5q-68 0 -112 -50.5t-44 -133.5z" />
    <glyph glyph-name="sterling" unicode="&#xa3;" horiz-adv-x="523" 
d="M467 63q-9 -47 3 -63h-432v47q57 34 83 61.5t26 67.5q0 20 -6 41h-101v16h95q-8 23 -31.5 68t-38 85.5t-14.5 79.5q0 77 56 124t157 47q55 0 95 -16t60.5 -43t29.5 -54.5t9 -56.5q0 -34 -13.5 -57.5t-36.5 -23.5q-36 0 -36 38q0 8 8 23.5t8 40.5q0 52 -35 90.5t-94 38.5
q-65 0 -99.5 -39.5t-34.5 -94.5q0 -51 38 -132.5t44 -117.5h187v-16h-185q1 -5 1 -15q0 -29 -9 -51t-29.5 -39t-38 -27.5t-49.5 -26.5h271q51 0 73 15t41 60h14z" />
    <glyph glyph-name="currency" unicode="&#xa4;" horiz-adv-x="523" 
d="M467 228q0 -79 -51 -138l57 -56l-20 -20l-57 56q-57 -51 -134 -51q-78 0 -136 50l-56 -55l-20 20l56 55q-51 59 -51 139q0 76 50 136l-55 54l20 21l55 -55q58 52 137 52q76 0 136 -52l55 55l20 -21l-56 -55q50 -58 50 -135zM260 46q73 0 126 54t53 128q0 76 -52.5 129
t-126.5 53q-76 0 -127 -53t-51 -129q0 -75 51 -128.5t127 -53.5z" />
    <glyph glyph-name="yen" unicode="&#xa5;" horiz-adv-x="619" 
d="M429 621h175v-14q-38 -4 -60 -18.5t-52 -64.5l-136 -223q-6 -9 -9 -20h166v-16h-169q-1 -5 -1 -15v-46h170v-16h-170v-127q0 -18 8.5 -27t21.5 -12t46 -8v-14h-220v14q33 5 46 8t21.5 12t8.5 27v127h-168v16h168v46q0 5 -2 15h-166v16h157l-10 17l-136 218q-28 45 -49 62
t-54 29v14h195v-14q-39 -10 -43.5 -25.5t14.5 -42.5l140 -223q7 -9 14 0l129 217q14 22 16 36.5t-7 22t-18 10.5t-26 5v14z" />
    <glyph glyph-name="brokenbar" unicode="&#xa6;" horiz-adv-x="220" 
d="M100 451v349h20v-349h-20zM100 -215v349h20v-349h-20z" />
    <glyph glyph-name="section" unicode="&#xa7;" horiz-adv-x="468" 
d="M334 83q96 -47 96 -129q0 -76 -63.5 -115t-155.5 -39q-52 0 -86 10.5t-73 33.5q-11 29 -14.5 59.5t1 49.5t14.5 19q8 0 11 -7q24 -68 71.5 -106t113.5 -37q53 2 85 28t32 80q0 17 -4 31.5t-8.5 24.5t-16 20t-18.5 15.5t-24 13t-25.5 10.5t-29.5 10.5t-29 10.5
q-87 32 -131.5 70.5t-44.5 102.5q0 86 92 116q-88 51 -88 134q0 64 51.5 106t147.5 42q81 0 145 -41q12 -29 16 -59.5t0 -49.5t-14 -19t-10 7q-22 68 -67.5 105t-102.5 37q-55 0 -81 -31t-26 -77q0 -54 34.5 -83.5t101.5 -52.5q6 -2 28 -10t30.5 -11.5t29 -11.5t30 -14.5
t25 -16.5t23.5 -20t17 -23t12.5 -28.5t3.5 -33.5q0 -90 -99 -121zM94 259q0 -54 34 -82.5t102 -53.5q68 -24 91 -35q49 28 49 92q0 14 -2.5 26t-5.5 21t-11 18t-12.5 14.5t-16.5 13t-17.5 10.5t-21.5 9t-21 8t-23.5 8t-23.5 8q-47 18 -78 34q-43 -28 -43 -91z" />
    <glyph glyph-name="dieresis" unicode="&#xa8;" horiz-adv-x="347" 
d="M89 588q-15 0 -27 13t-12 29q0 14 12 26.5t27 12.5t27.5 -12.5t12.5 -26.5q0 -17 -12 -29.5t-28 -12.5zM257 588q-15 0 -27 13t-12 29q0 14 12 26.5t27 12.5t27.5 -12.5t12.5 -26.5q0 -17 -12 -29.5t-28 -12.5z" />
    <glyph glyph-name="copyright" unicode="&#xa9;" horiz-adv-x="720" 
d="M360 -10q-141 0 -235.5 92.5t-94.5 231.5q0 138 94.5 230.5t235.5 92.5t235.5 -92.5t94.5 -230.5q0 -139 -94.5 -231.5t-235.5 -92.5zM360 13q131 0 218 86t87 215q0 128 -87 214t-218 86q-130 0 -217.5 -86t-87.5 -214t87.5 -214.5t217.5 -86.5zM367 123q-80 0 -136 49
t-56 135q0 89 58.5 138.5t137.5 49.5q62 0 104 -30.5t42 -69.5q0 -47 -45 -47q-20 0 -32.5 13.5t-12.5 29.5q0 83 -68 83q-44 0 -70.5 -34t-26.5 -96q0 -77 45 -123.5t110 -46.5q54 0 87 41l14 -11q-15 -30 -53.5 -55.5t-97.5 -25.5z" />
    <glyph glyph-name="ordfeminine" unicode="&#xaa;" horiz-adv-x="358" 
d="M128 337q-36 -1 -57.5 16.5t-21.5 49.5q0 39 37 61t146 37v16q0 87 -71 87q-9 0 -16 -0.5t-12 -2t-8.5 -2.5t-6 -4.5t-4 -4.5t-2 -5.5t-0.5 -5.5v-6.5v-6.5v-4q0 -12 -0.5 -17.5t-6 -10.5t-16.5 -5q-24 0 -24 21q0 30 29.5 48t75.5 18q104 0 104 -98v-132q0 -15 10 -21.5
t22 -0.5v-12q-30 -10 -57.5 7t-19.5 48q-8 -24 -37.5 -46.5t-63.5 -23.5zM140 359q33 0 62.5 29.5t29.5 59.5v40q-45 -6 -74.5 -16.5t-42.5 -23t-17 -22.5t-4 -22q0 -20 12.5 -32.5t33.5 -12.5zM54 250v20h249v-20h-249z" />
    <glyph glyph-name="guillemotleft" unicode="&#xab;" horiz-adv-x="366" 
d="M50 308l126 110l9 -6l-74 -104l74 -104l-9 -6zM181 308l126 110l9 -6l-74 -104l74 -104l-9 -6z" />
    <glyph glyph-name="logicalnot" unicode="&#xac;" horiz-adv-x="520" 
d="M470 362v-219h-20v199h-400v20h420z" />
    <glyph glyph-name="uni00AD" unicode="&#xad;" horiz-adv-x="370" 
d="M50 268h270v-6h-270v6z" />
    <glyph glyph-name="registered" unicode="&#xae;" horiz-adv-x="720" 
d="M360 -10q-141 0 -235.5 92.5t-94.5 231.5q0 138 94.5 230.5t235.5 92.5t235.5 -92.5t94.5 -230.5q0 -139 -94.5 -231.5t-235.5 -92.5zM360 13q131 0 218 86t87 215q0 128 -87 214t-218 86q-130 0 -217.5 -86t-87.5 -214t87.5 -214.5t217.5 -86.5zM495 222q6 -21 9 -30
t9.5 -24t14 -21t17.5 -6v-16h-32q-37 0 -57.5 23t-39.5 80q-10 31 -32 45.5t-44 14.5q-34 0 -45 -7t-11 -25v-78q0 -31 40 -37v-16h-143v16q39 6 39 37v272q0 31 -39 37v15h187q68 0 108 -27t40 -76q0 -70 -93 -94q-3 -1 -3 -3.5t3 -3.5q54 -13 72 -76zM372 313q78 0 78 85
q0 80 -70 80h-69q-27 0 -27 -28v-105q0 -17 7.5 -24.5t26.5 -7.5h54z" />
    <glyph glyph-name="macron" unicode="&#xaf;" horiz-adv-x="439" 
d="M367 612q9 0 11.5 -2.5t2.5 -9.5q0 -11 -14 -11h-295q-14 0 -14 11q0 7 2.5 9.5t11.5 2.5h295zM58 598v4v-2v-2zM381 602v-4v2v2z" />
    <glyph glyph-name="degree" unicode="&#xb0;" horiz-adv-x="259" 
d="M130 442q-44 0 -72 28.5t-28 69.5t28 69t72 28q43 0 71 -28t28 -69t-28 -69.5t-71 -28.5zM130 463q30 0 51.5 21t21.5 56q0 34 -21.5 55t-51.5 21t-52 -21t-22 -55q0 -35 21.5 -56t52.5 -21z" />
    <glyph glyph-name="plusminus" unicode="&#xb1;" horiz-adv-x="470" 
d="M246 363h174v-21h-174v-175h-21v175h-175v21h175v175h21v-175zM50 0v20h370v-20h-370z" />
    <glyph glyph-name="uni00B2" unicode="&#xb2;" horiz-adv-x="287" 
d="M40 387q7 32 23 56.5t30 36t38 25.5q14 8 18.5 11.5t13 11t11.5 16t3 19.5q0 22 -10.5 37t-29.5 15t-28.5 -6.5t-13.5 -24.5q-2 -12 0.5 -22.5t1.5 -15.5q-11 -21 -31.5 -14t-20.5 20q-2 38 23.5 63.5t71.5 25.5q45 0 69 -21t24 -55q0 -13 -4 -23.5t-14 -19.5t-15.5 -13
t-22 -13t-19.5 -11q-77 -43 -82 -61h118q16 0 21 8l9 13h23l-10 -44q-3 -14 -21 -14h-176z" />
    <glyph glyph-name="uni00B3" unicode="&#xb3;" horiz-adv-x="274" 
d="M136 383q-44 0 -72.5 24t-28.5 55q0 23 23 23q15 0 21 -5.5t8 -20t3 -17.5q8 -21 17.5 -28t31.5 -7q17 0 29.5 14.5t13.5 43.5q-1 37 -24.5 45t-48.5 -7l-8 21l24 11q44 16 44 44q0 21 -7.5 29.5t-24.5 8.5q-31 0 -42 -22t-5 -44l-29 6q-12 5 -12 14q-1 31 22.5 51
t61.5 20q36 0 59 -19.5t23 -41.5q0 -24 -19 -43q38 -20 38 -66q0 -37 -30 -63t-68 -26z" />
    <glyph glyph-name="acute" unicode="&#xb4;" horiz-adv-x="268" 
d="M62 549q-11 -10 -11 -20q3 -8 27 5l115 70q12 7 18.5 15.5t7 15.5t-1 12t-4.5 9q-21 25 -50 -4z" />
    <glyph glyph-name="paragraph" unicode="&#xb6;" horiz-adv-x="693" 
d="M663 607q-18 -4 -25.5 -6t-16.5 -7t-11.5 -13t-2.5 -21v-592q0 -13 2.5 -21t11.5 -13t16.5 -7t25.5 -6v-14h-364v14q18 4 25 6t16 7t12 13t3 21v202q0 28 -12.5 40.5t-42.5 12.5h-41q-106 0 -167.5 54.5t-61.5 147.5t61 144.5t168 51.5h404v-14zM539 -32v592q0 47 -58 47
q-30 0 -44 -10.5t-14 -36.5v-592q0 -26 14 -36.5t44 -10.5q58 0 58 47z" />
    <glyph glyph-name="periodcentered" unicode="&#xb7;" horiz-adv-x="195" 
d="M97 249q-19 0 -33 14t-14 34q0 19 14 33.5t33 14.5t33.5 -14.5t14.5 -33.5q0 -20 -14 -34t-34 -14z" />
    <glyph glyph-name="cedilla" unicode="&#xb8;" horiz-adv-x="229" 
d="M113 -196q-48 0 -73 16t-25 40q0 21 15.5 27.5t31.5 -7.5q0 -65 43 -65q29 0 47 21.5t18 50.5q0 23 -14 39t-38 16q-14 0 -28 -5t-19 -5q-15 0 -5 21l23 47h41l-23 -49q37 13 72 -7t35 -59q0 -36 -30 -58.5t-71 -22.5z" />
    <glyph glyph-name="uni00B9" unicode="&#xb9;" horiz-adv-x="164" 
d="M32 392v14q29 2 29 18v181l-31 -10v20l56 25q13 3 15.5 0t3.5 -12v-1.5v-1.5v-201q0 -16 29 -18v-14h-102z" />
    <glyph glyph-name="ordmasculine" unicode="&#xba;" horiz-adv-x="356" 
d="M178 338q-53 0 -91 38t-38 101t37.5 100.5t91.5 38.5t91.5 -37t37.5 -102q0 -63 -37.5 -101t-91.5 -38zM193 353q32 0 51.5 27t19.5 78q0 60 -29 102.5t-70 42.5q-32 0 -52.5 -28.5t-20.5 -81.5q0 -58 30 -99t71 -41zM54 250v20h249v-20h-249z" />
    <glyph glyph-name="guillemotright" unicode="&#xbb;" horiz-adv-x="366" 
d="M185 308l-126 -110l-9 6l75 104l-75 104l9 6zM316 308l-126 -110l-9 6l75 104l-75 104l9 6z" />
    <glyph glyph-name="onequarter" unicode="&#xbc;" horiz-adv-x="557" 
d="M61 424v181l-31 -10v20l56 25q13 3 15.5 0t3.5 -12v-1.5v-1.5v-201q0 -16 29 -18v-14h-102v14q29 2 29 18zM437 636h45l-432 -641h-45zM517 69h-35v-34q0 -18 25 -18v-23h-95v23q24 0 24 18v34h-104v28l117 148q9 11 21 7t12 -16v-139h35v-28zM378 97h58v76z" />
    <glyph glyph-name="onehalf" unicode="&#xbd;" horiz-adv-x="593" 
d="M32 392v14q29 2 29 18v181l-31 -10v20l56 25q13 3 15.5 0t3.5 -12v-1.5v-1.5v-201q0 -16 29 -18v-14h-102zM5 -5l432 641h45l-432 -641h-45zM347 -6q7 32 23 56.5t30 36t38 25.5q14 8 18.5 11.5t13 11t11.5 16t3 19.5q0 22 -10.5 37t-29.5 15t-28.5 -6.5t-13.5 -24.5
q-2 -12 0.5 -22.5t1.5 -15.5q-10 -21 -31 -14t-21 20q-2 38 23.5 63.5t71.5 25.5q45 0 69 -21t24 -55q0 -13 -4 -23.5t-14 -19.5t-15.5 -13t-22 -13t-19.5 -11q-77 -43 -82 -61h118q16 0 21 8l9 13h23l-10 -44q-3 -14 -21 -14h-176z" />
    <glyph glyph-name="threequarters" unicode="&#xbe;" horiz-adv-x="699" 
d="M234 472q0 -37 -30 -63t-68 -26q-44 0 -72.5 24t-28.5 55q0 23 23 23q15 0 21 -5.5t8 -20t3 -17.5q8 -21 17.5 -28t31.5 -7q17 0 29.5 14.5t13.5 43.5q-1 37 -24.5 45t-48.5 -7l-8 21l24 11q44 16 44 44q0 21 -7.5 29.5t-24.5 8.5q-31 0 -42 -22t-5 -44l-29 6
q-12 5 -12 14q-1 31 22.5 51t61.5 20q36 0 59 -19.5t23 -41.5q0 -24 -19 -43q38 -20 38 -66zM562 636h45l-432 -641h-45zM659 69h-35v-34q0 -18 25 -18v-23h-95v23q24 0 24 18v34h-104v28l118 148q9 11 20.5 7t11.5 -16v-139h35v-28zM520 97h58v76z" />
    <glyph glyph-name="questiondown" unicode="&#xbf;" horiz-adv-x="442" 
d="M222 559q19 0 33 -14t14 -34t-14 -34t-33 -14q-20 0 -34 14.5t-14 33.5t14 33.5t34 14.5zM407 76q0 32 -14.5 54t-37.5 22q-16 0 -29 -11.5t-13 -24.5q0 -14 8 -37.5t8 -35.5q0 -41 -22 -72t-75 -31q-50 0 -82.5 30.5t-32.5 83.5q0 34 13 62t31 51t36 50t29 70.5t8 99.5
h-25q-4 -54 -23.5 -94.5t-44 -64.5t-49 -46t-41 -51.5t-16.5 -67.5q0 -66 46 -106.5t130 -40.5q87 0 141.5 44.5t54.5 115.5z" />
    <glyph glyph-name="Agrave" unicode="&#xc0;" horiz-adv-x="706" 
d="M246 774q-12 7 -18.5 15.5t-7 15.5t1 12t4.5 9q20 25 49 -4l102 -103q11 -10 11 -20q-3 -8 -27 5zM594 103q21 -52 37.5 -68t54.5 -20v-15h-203v14q45 8 53 21t-6 41l-189 450q-7 13 -11.5 12.5t-9.5 -14.5l-121 -286q-1 -8 4 -12.5t14 -4.5h225q11 0 16 7t0 19l35 -86
q-17 36 -59 36h-208q-40 0 -57 -30l-37 -86q-12 -31 3.5 -46t57.5 -21v-14h-173v14q35 7 52 19.5t31 43.5l202 479q18 41 18 65l49 5zM201 245v1v-1z" />
    <glyph glyph-name="Aacute" unicode="&#xc1;" horiz-adv-x="706" 
d="M345 704q-24 -13 -27 -5q0 10 11 20l101 103q29 29 50 4q3 -4 4.5 -9t1 -12t-7 -15.5t-18.5 -15.5zM594 103q21 -52 37.5 -68t54.5 -20v-15h-203v14q45 8 53 21t-6 41l-189 450q-7 13 -11.5 12.5t-9.5 -14.5l-121 -286q-1 -8 4 -12.5t14 -4.5h225q11 0 16 7t0 19l35 -86
q-17 36 -59 36h-208q-40 0 -57 -30l-37 -86q-12 -31 3.5 -46t57.5 -21v-14h-173v14q35 7 52 19.5t31 43.5l202 479q18 41 18 65l49 5zM201 245v1v-1z" />
    <glyph glyph-name="Acircumflex" unicode="&#xc2;" horiz-adv-x="706" 
d="M343 779l-104 -75l-6 9l110 127l111 -127l-6 -9zM594 103q21 -52 37.5 -68t54.5 -20v-15h-203v14q45 8 53 21t-6 41l-189 450q-7 13 -11.5 12.5t-9.5 -14.5l-121 -286q-1 -8 4 -12.5t14 -4.5h225q11 0 16 7t0 19l35 -86q-17 36 -59 36h-208q-40 0 -57 -30l-37 -86
q-12 -31 3.5 -46t57.5 -21v-14h-173v14q35 7 52 19.5t31 43.5l202 479q18 41 18 65l49 5zM201 245v1v-1z" />
    <glyph glyph-name="Atilde" unicode="&#xc3;" horiz-adv-x="706" 
d="M238 787q-17 0 -28.5 -12t-11.5 -34h-17q0 47 26 73t63 26q41 0 102 -30t80 -30q16 0 27.5 13t11.5 33h17q0 -47 -26.5 -73t-61.5 -26q-43 0 -104 30t-78 30zM594 103q21 -52 37.5 -68t54.5 -20v-15h-203v14q45 8 53 21t-6 41l-189 450q-7 13 -11.5 12.5t-9.5 -14.5
l-121 -286q-1 -8 4 -12.5t14 -4.5h225q11 0 16 7t0 19l35 -86q-17 36 -59 36h-208q-40 0 -57 -30l-37 -86q-12 -31 3.5 -46t57.5 -21v-14h-173v14q35 7 52 19.5t31 43.5l202 479q18 41 18 65l49 5zM201 245v1v-1z" />
    <glyph glyph-name="Adieresis" unicode="&#xc4;" horiz-adv-x="706" 
d="M259 758q-15 0 -27 13t-12 29q0 14 12 26.5t27 12.5t27.5 -12.5t12.5 -26.5q0 -17 -12 -29.5t-28 -12.5zM427 758q-15 0 -27 13t-12 29q0 14 12 26.5t27 12.5t27.5 -12.5t12.5 -26.5q0 -17 -12 -29.5t-28 -12.5zM594 103q21 -52 37.5 -68t54.5 -20v-15h-203v14
q45 8 53 21t-6 41l-189 450q-7 13 -11.5 12.5t-9.5 -14.5l-121 -286q-1 -8 4 -12.5t14 -4.5h225q11 0 16 7t0 19l35 -86q-17 36 -59 36h-208q-40 0 -57 -30l-37 -86q-12 -31 3.5 -46t57.5 -21v-14h-173v14q35 7 52 19.5t31 43.5l202 479q18 41 18 65l49 5zM201 245v1v-1z
" />
    <glyph glyph-name="Aring" unicode="&#xc5;" horiz-adv-x="706" 
d="M343 727q-36 0 -58.5 24t-22.5 57q0 34 22.5 57t58.5 23q37 0 59.5 -23t22.5 -57q0 -33 -23 -57t-59 -24zM343 862q-21 0 -36 -15t-15 -39t15 -39t36 -15t36.5 15t15.5 39t-15.5 39t-36.5 15zM594 103q21 -52 37.5 -68t54.5 -20v-15h-203v14q45 8 53 21t-6 41l-189 450
q-7 13 -11.5 12.5t-9.5 -14.5l-121 -286q-1 -8 4 -12.5t14 -4.5h225q11 0 16 7t0 19l35 -86q-17 36 -59 36h-208q-40 0 -57 -30l-37 -86q-12 -31 3.5 -46t57.5 -21v-14h-173v14q35 7 52 19.5t31 43.5l202 479q18 41 18 65l49 5zM201 245v1v-1z" />
    <glyph glyph-name="AE" unicode="&#xc6;" horiz-adv-x="925" 
d="M888 115h17q-23 -45 -30 -101q-2 -14 -16 -14h-451v14q18 4 25 6t16 7t12 13t3 21v129h-224q-37 0 -46 -15l-48 -77q-20 -31 -5.5 -54t58.5 -29v-15h-179v15q34 7 55.5 26.5t45.5 58.5l274 432q16 25 21 48t-2 26q-1 0 -3 0.5t-3 0.5h4h-4v14h438q15 0 16 -13
q5 -42 19 -102h-17q-31 89 -130 89h-141q-33 0 -47 -7t-14 -31v-189q0 -24 14 -31t47 -7h116q39 0 54 16.5t22 52.5h14v-167h-14q-7 37 -22 54t-54 17h-116q-33 0 -47 -7t-14 -31v-200q0 -25 21 -32.5t85 -5.5l116 1q36 0 59.5 8.5t32 17t18.5 23.5zM257 215h207v345
q0 28 -20 37q9 -13 -24 -66l-190 -301q-4 -7 5.5 -11t21.5 -4z" />
    <glyph glyph-name="Ccedilla" unicode="&#xc7;" horiz-adv-x="631" 
d="M348 -10h-8l-18 -39q37 13 72 -7t35 -59q0 -36 -30 -58.5t-71 -22.5q-48 0 -73 16t-25 40q0 21 15 27.5t32 -7.5q0 -65 43 -65q29 0 47 21.5t18 50.5q0 23 -14 39t-38 16q-14 0 -28 -5t-19 -5q-16 0 -5 21l20 40q-114 17 -192.5 102t-78.5 215q0 100 48.5 176
t122.5 113.5t158 37.5q96 0 161 -51t65 -106q0 -24 -13.5 -37.5t-35.5 -13.5q-17 0 -29.5 13t-12.5 41q0 43 -43 84t-119 41q-105 0 -170 -66.5t-65 -179.5q0 -140 85.5 -229.5t216.5 -89.5q60 0 102.5 22.5t84.5 69.5l10 -8q-27 -49 -91 -93t-157 -44z" />
    <glyph glyph-name="Egrave" unicode="&#xc8;" horiz-adv-x="547" 
d="M304 719l-102 103q-29 29 -49 4q-3 -4 -4.5 -9t-1 -12t7 -15.5t18.5 -15.5l115 -70q24 -13 27 -5q0 10 -11 20zM30 0v14q18 4 25.5 6t16.5 7t11.5 13t2.5 21v499q0 13 -2.5 21t-11.5 13t-16.5 7t-25.5 6v14h438q15 0 16 -13q5 -42 19 -102h-17q-16 46 -47 67.5t-83 21.5
h-140q-34 0 -48 -7t-14 -31v-189q0 -24 14 -31t48 -7h115q39 0 54 16.5t22 52.5h14v-167h-14q-7 37 -22 54t-54 17h-115q-34 0 -48 -7t-14 -31v-200q0 -25 21 -32.5t85 -5.5l117 1q51 1 73.5 13.5t35.5 35.5l24 38h17q-23 -45 -30 -101q-2 -14 -16 -14h-451z" />
    <glyph glyph-name="Eacute" unicode="&#xc9;" horiz-adv-x="547" 
d="M257 719q-11 -10 -11 -20q3 -8 27 5l115 70q12 7 18.5 15.5t7 15.5t-1 12t-4.5 9q-21 25 -50 -4zM30 0v14q18 4 25.5 6t16.5 7t11.5 13t2.5 21v499q0 13 -2.5 21t-11.5 13t-16.5 7t-25.5 6v14h438q15 0 16 -13q5 -42 19 -102h-17q-16 46 -47 67.5t-83 21.5h-140
q-34 0 -48 -7t-14 -31v-189q0 -24 14 -31t48 -7h115q39 0 54 16.5t22 52.5h14v-167h-14q-7 37 -22 54t-54 17h-115q-34 0 -48 -7t-14 -31v-200q0 -25 21 -32.5t85 -5.5l117 1q51 1 73.5 13.5t35.5 35.5l24 38h17q-23 -45 -30 -101q-2 -14 -16 -14h-451z" />
    <glyph glyph-name="Ecircumflex" unicode="&#xca;" horiz-adv-x="547" 
d="M271 840l111 -127l-6 -9l-105 75l-104 -75l-6 9zM30 0v14q18 4 25.5 6t16.5 7t11.5 13t2.5 21v499q0 13 -2.5 21t-11.5 13t-16.5 7t-25.5 6v14h438q15 0 16 -13q5 -42 19 -102h-17q-16 46 -47 67.5t-83 21.5h-140q-34 0 -48 -7t-14 -31v-189q0 -24 14 -31t48 -7h115
q39 0 54 16.5t22 52.5h14v-167h-14q-7 37 -22 54t-54 17h-115q-34 0 -48 -7t-14 -31v-200q0 -25 21 -32.5t85 -5.5l117 1q51 1 73.5 13.5t35.5 35.5l24 38h17q-23 -45 -30 -101q-2 -14 -16 -14h-451z" />
    <glyph glyph-name="Edieresis" unicode="&#xcb;" horiz-adv-x="547" 
d="M187 758q-15 0 -27 13t-12 29q0 14 12 26.5t27 12.5t27.5 -12.5t12.5 -26.5q0 -17 -12 -29.5t-28 -12.5zM355 758q-15 0 -27 13t-12 29q0 14 12 26.5t27 12.5t27.5 -12.5t12.5 -26.5q0 -17 -12 -29.5t-28 -12.5zM30 0v14q18 4 25.5 6t16.5 7t11.5 13t2.5 21v499
q0 13 -2.5 21t-11.5 13t-16.5 7t-25.5 6v14h438q15 0 16 -13q5 -42 19 -102h-17q-16 46 -47 67.5t-83 21.5h-140q-34 0 -48 -7t-14 -31v-189q0 -24 14 -31t48 -7h115q39 0 54 16.5t22 52.5h14v-167h-14q-7 37 -22 54t-54 17h-115q-34 0 -48 -7t-14 -31v-200q0 -25 21 -32.5
t85 -5.5l117 1q51 1 73.5 13.5t35.5 35.5l24 38h17q-23 -45 -30 -101q-2 -14 -16 -14h-451z" />
    <glyph glyph-name="Igrave" unicode="&#xcc;" horiz-adv-x="240" 
d="M151 719l-102 103q-29 29 -49 4q-3 -4 -4.5 -9t-1 -12t7 -15.5t18.5 -15.5l115 -70q24 -13 27 -5q0 10 -11 20zM30 0v14q18 4 25.5 6t16.5 7t11.5 13t2.5 21v499q0 13 -2.5 21t-11.5 13t-16.5 7t-25.5 6v14h180v-14q-18 -4 -25 -6t-16 -7t-12 -13t-3 -21v-499
q0 -13 3 -21t12 -13t16 -7t25 -6v-14h-180z" />
    <glyph glyph-name="Iacute" unicode="&#xcd;" horiz-adv-x="240" 
d="M103 719q-11 -10 -11 -20q3 -8 27 5l115 70q12 7 18.5 15.5t7 15.5t-1 12t-4.5 9q-21 25 -50 -4zM30 0v14q18 4 25.5 6t16.5 7t11.5 13t2.5 21v499q0 13 -2.5 21t-11.5 13t-16.5 7t-25.5 6v14h180v-14q-18 -4 -25 -6t-16 -7t-12 -13t-3 -21v-499q0 -13 3 -21t12 -13
t16 -7t25 -6v-14h-180z" />
    <glyph glyph-name="Icircumflex" unicode="&#xce;" horiz-adv-x="240" 
d="M118 840l111 -127l-6 -9l-105 75l-104 -75l-6 9zM30 0v14q18 4 25.5 6t16.5 7t11.5 13t2.5 21v499q0 13 -2.5 21t-11.5 13t-16.5 7t-25.5 6v14h180v-14q-18 -4 -25 -6t-16 -7t-12 -13t-3 -21v-499q0 -13 3 -21t12 -13t16 -7t25 -6v-14h-180z" />
    <glyph glyph-name="Idieresis" unicode="&#xcf;" horiz-adv-x="240" 
d="M34 758q-15 0 -27 13t-12 29q0 14 12 26.5t27 12.5q16 0 28 -12.5t12 -26.5q0 -17 -12 -29.5t-28 -12.5zM202 758q-15 0 -27 13t-12 29q0 14 12 26.5t27 12.5q16 0 28 -12.5t12 -26.5q0 -17 -12 -29.5t-28 -12.5zM30 0v14q18 4 25.5 6t16.5 7t11.5 13t2.5 21v499
q0 13 -2.5 21t-11.5 13t-16.5 7t-25.5 6v14h180v-14q-18 -4 -25 -6t-16 -7t-12 -13t-3 -21v-499q0 -13 3 -21t12 -13t16 -7t25 -6v-14h-180z" />
    <glyph glyph-name="Eth" unicode="&#xd0;" horiz-adv-x="614" 
d="M242 621q49 0 93.5 -8t89 -29.5t77 -55t52.5 -88t20 -124.5q0 -149 -86.5 -231.5t-237.5 -82.5q-18 0 -64 2t-65 2q-42 0 -91 -6v14q18 4 25.5 6t16.5 7t11.5 13t2.5 21v241h-55v17h55v243q0 13 -2.5 20.5t-12 12t-16 6.5t-25.5 6v14h212zM250 21q70 0 121 23.5t79 66
t41 93t13 112.5q0 59 -12.5 106.5t-40.5 89.5t-81.5 65t-128.5 23h-25q-34 0 -48 -7t-14 -31v-243h131v-17h-131v-241q0 -40 96 -40z" />
    <glyph glyph-name="Ntilde" unicode="&#xd1;" horiz-adv-x="625" 
d="M205 787q-17 0 -28.5 -12t-11.5 -34h-17q0 47 26 73t63 26q41 0 102 -30t80 -30q16 0 27.5 13t11.5 33h17q0 -47 -26.5 -73t-61.5 -26q-43 0 -104 30t-78 30zM460 621h135v-14q-18 -4 -25 -6t-16 -7t-12 -13t-3 -21v-560h-25l-403 554v-493q0 -13 2.5 -21t11 -13t15 -7
t23.5 -6v-14h-133v14q18 4 25.5 6t16.5 7t11.5 13t2.5 21v499q0 13 -2.5 21t-11.5 13t-16.5 7t-25.5 6v14h114l370 -509v448q0 17 -7 26.5t-15.5 12.5t-31.5 8v14z" />
    <glyph glyph-name="Ograve" unicode="&#xd2;" horiz-adv-x="693" 
d="M369 719l-102 103q-29 29 -49 4q-3 -4 -4.5 -9t-1 -12t7 -15.5t18.5 -15.5l115 -70q24 -13 27 -5q0 10 -11 20zM342 -10q-136 0 -224 92t-88 226q0 137 92 233t229 96t224.5 -92t87.5 -226q0 -137 -92 -233t-229 -96zM361 15q93 0 160 68t67 208q0 142 -75 232t-182 90
q-92 0 -159 -68t-67 -207q0 -143 74.5 -233t181.5 -90z" />
    <glyph glyph-name="Oacute" unicode="&#xd3;" horiz-adv-x="693" 
d="M321 719q-11 -10 -11 -20q3 -8 27 5l115 70q12 7 18.5 15.5t7 15.5t-1 12t-4.5 9q-21 25 -50 -4zM342 -10q-136 0 -224 92t-88 226q0 137 92 233t229 96t224.5 -92t87.5 -226q0 -137 -92 -233t-229 -96zM361 15q93 0 160 68t67 208q0 142 -75 232t-182 90q-92 0 -159 -68
t-67 -207q0 -143 74.5 -233t181.5 -90z" />
    <glyph glyph-name="Ocircumflex" unicode="&#xd4;" horiz-adv-x="693" 
d="M336 840l111 -127l-6 -9l-105 75l-104 -75l-6 9zM342 -10q-136 0 -224 92t-88 226q0 137 92 233t229 96t224.5 -92t87.5 -226q0 -137 -92 -233t-229 -96zM361 15q93 0 160 68t67 208q0 142 -75 232t-182 90q-92 0 -159 -68t-67 -207q0 -143 74.5 -233t181.5 -90z" />
    <glyph glyph-name="Otilde" unicode="&#xd5;" horiz-adv-x="693" 
d="M412 727q-43 0 -104 30t-78 30t-28.5 -12t-11.5 -34h-17q0 47 26 73t63 26q41 0 102 -30t80 -30q16 0 27.5 13t11.5 33h17q0 -47 -26.5 -73t-61.5 -26zM342 -10q-136 0 -224 92t-88 226q0 137 92 233t229 96t224.5 -92t87.5 -226q0 -137 -92 -233t-229 -96zM361 15
q93 0 160 68t67 208q0 142 -75 232t-182 90q-92 0 -159 -68t-67 -207q0 -143 74.5 -233t181.5 -90z" />
    <glyph glyph-name="Odieresis" unicode="&#xd6;" horiz-adv-x="693" 
d="M251 758q-15 0 -27 13t-12 29q0 14 12 26.5t27 12.5t27.5 -12.5t12.5 -26.5q0 -17 -12 -29.5t-28 -12.5zM419 758q-15 0 -27 13t-12 29q0 14 12 26.5t27 12.5t27.5 -12.5t12.5 -26.5q0 -17 -12 -29.5t-28 -12.5zM342 -10q-136 0 -224 92t-88 226q0 137 92 233t229 96
t224.5 -92t87.5 -226q0 -137 -92 -233t-229 -96zM361 15q93 0 160 68t67 208q0 142 -75 232t-182 90q-92 0 -159 -68t-67 -207q0 -143 74.5 -233t181.5 -90z" />
    <glyph glyph-name="multiply" unicode="&#xd7;" horiz-adv-x="377" 
d="M327 377l-125 -125l123 -124l-13 -15l-124 125l-123 -123l-16 13l124 124l-123 123l13 15l124 -124l124 124z" />
    <glyph glyph-name="Oslash" unicode="&#xd8;" horiz-adv-x="693" 
d="M562 558q101 -92 101 -239q0 -137 -92 -233t-229 -96q-111 0 -195 66l-42 -51l-11 8l42 51q-106 93 -106 244q0 137 92 233t229 96q117 0 200 -70l39 47l11 -8zM105 338q0 -136 70 -227l339 411q-74 91 -183 91q-92 0 -159 -68t-67 -207zM361 15q93 0 160 68t67 208
q0 131 -66 220l-338 -411q72 -85 177 -85z" />
    <glyph glyph-name="Ugrave" unicode="&#xd9;" horiz-adv-x="626" 
d="M361 719l-102 103q-29 29 -49 4q-3 -4 -4.5 -9t-1 -12t7 -15.5t18.5 -15.5l115 -70q24 -13 27 -5q0 10 -11 20zM314 -10q-104 0 -168.5 65t-64.5 190v315q0 13 -2.5 21t-11.5 13t-16.5 7t-25.5 6v14h180v-14q-18 -4 -25 -6t-16 -7t-12 -13t-3 -21v-293q0 -122 47 -184
t133 -62q38 0 70 11.5t60 37.5t44 75t16 116v299q0 13 -3 21t-14 13t-17 7t-26 6v14h142v-14q-18 -4 -24.5 -6t-16 -7t-12.5 -13t-3 -21v-300q0 -132 -61 -201t-170 -69z" />
    <glyph glyph-name="Uacute" unicode="&#xda;" horiz-adv-x="626" 
d="M313 719q-11 -10 -11 -20q3 -8 27 5l115 70q12 7 18.5 15.5t7 15.5t-1 12t-4.5 9q-21 25 -50 -4zM314 -10q-104 0 -168.5 65t-64.5 190v315q0 13 -2.5 21t-11.5 13t-16.5 7t-25.5 6v14h180v-14q-18 -4 -25 -6t-16 -7t-12 -13t-3 -21v-293q0 -122 47 -184t133 -62
q38 0 70 11.5t60 37.5t44 75t16 116v299q0 13 -3 21t-14 13t-17 7t-26 6v14h142v-14q-18 -4 -24.5 -6t-16 -7t-12.5 -13t-3 -21v-300q0 -132 -61 -201t-170 -69z" />
    <glyph glyph-name="Ucircumflex" unicode="&#xdb;" horiz-adv-x="626" 
d="M328 840l111 -127l-6 -9l-105 75l-104 -75l-6 9zM314 -10q-104 0 -168.5 65t-64.5 190v315q0 13 -2.5 21t-11.5 13t-16.5 7t-25.5 6v14h180v-14q-18 -4 -25 -6t-16 -7t-12 -13t-3 -21v-293q0 -122 47 -184t133 -62q38 0 70 11.5t60 37.5t44 75t16 116v299q0 13 -3 21
t-14 13t-17 7t-26 6v14h142v-14q-18 -4 -24.5 -6t-16 -7t-12.5 -13t-3 -21v-300q0 -132 -61 -201t-170 -69z" />
    <glyph glyph-name="Udieresis" unicode="&#xdc;" horiz-adv-x="626" 
d="M243 758q-15 0 -27 13t-12 29q0 14 12 26.5t27 12.5t27.5 -12.5t12.5 -26.5q0 -17 -12 -29.5t-28 -12.5zM411 758q-15 0 -27 13t-12 29q0 14 12 26.5t27 12.5t27.5 -12.5t12.5 -26.5q0 -17 -12 -29.5t-28 -12.5zM314 -10q-104 0 -168.5 65t-64.5 190v315q0 13 -2.5 21
t-11.5 13t-16.5 7t-25.5 6v14h180v-14q-18 -4 -25 -6t-16 -7t-12 -13t-3 -21v-293q0 -122 47 -184t133 -62q38 0 70 11.5t60 37.5t44 75t16 116v299q0 13 -3 21t-14 13t-17 7t-26 6v14h142v-14q-18 -4 -24.5 -6t-16 -7t-12.5 -13t-3 -21v-300q0 -132 -61 -201t-170 -69z" />
    <glyph glyph-name="Yacute" unicode="&#xdd;" horiz-adv-x="619" 
d="M295 719q-11 -10 -11 -20q3 -8 27 5l115 70q12 7 18.5 15.5t7 15.5t-1 12t-4.5 9q-21 25 -50 -4zM199 0v14q33 5 46 8t21.5 12t8.5 27v189q0 6 -2 12.5t-4 10t-7 12t-8 13.5l-136 218q-28 45 -49 62t-54 29v14h195v-14q-39 -10 -43.5 -25.5t14.5 -42.5l140 -223
q7 -9 14 0l129 217q14 22 16 36.5t-7 22t-18 10.5t-26 5v14h175v-14q-38 -4 -60 -18.5t-52 -64.5l-136 -223q-13 -19 -13 -51v-189q0 -18 8.5 -27t21.5 -12t46 -8v-14h-220z" />
    <glyph glyph-name="Thorn" unicode="&#xde;" horiz-adv-x="564" 
d="M287 508q116 0 184 -53t68 -144t-68 -144t-184 -53h-78q-30 0 -42.5 -12.5t-12.5 -40.5q0 -13 3 -21t12 -13t16 -7t25 -6v-14h-180v14q18 4 25.5 6t16.5 7t11.5 13t2.5 21v499q0 13 -2.5 21t-11.5 13t-16.5 7t-25.5 6v14h180v-14q-18 -4 -25 -6t-16 -7t-12 -13t-3 -21
q0 -28 12.5 -40t42.5 -12h78zM287 136q88 0 130.5 48t42.5 127q0 80 -42.5 127.5t-130.5 47.5h-78q-30 0 -42.5 -12.5t-12.5 -40.5v-244q0 -28 12.5 -40.5t42.5 -12.5h78z" />
    <glyph glyph-name="germandbls" unicode="&#xdf;" horiz-adv-x="526" 
d="M330 341q66 -3 113.5 -47t47.5 -113q0 -78 -66.5 -130t-187.5 -52v23q185 1 185 158q0 70 -40.5 108.5t-144.5 38.5v22q27 0 51 5.5t47.5 19.5t37.5 42.5t14 68.5q0 23 -5.5 44t-19.5 42t-42 33.5t-67 12.5q-108 0 -108 -161v-389q0 -42 -14.5 -57t-45.5 -15
q-32 0 -65 21v14q65 -19 65 35v393q0 81 53.5 130t139.5 49t130.5 -44.5t44.5 -107.5q0 -55 -34.5 -91.5t-88.5 -52.5z" />
    <glyph glyph-name="agrave" unicode="&#xe0;" 
d="M266 549l-102 103q-29 29 -49 4q-3 -4 -4.5 -9t-1 -12t7 -15.5t18.5 -15.5l115 -70q24 -13 27 -5q0 10 -11 20zM158 -6q-54 0 -91 27.5t-37 82.5q0 30 13 54t45 46.5t92 38.5t147 25q17 0 17 21v26q0 54 -32 89.5t-95 35.5q-87 0 -87 -76q0 -48 -34 -48q-32 0 -32 39
q0 47 57.5 76t129.5 29q83 0 118 -39t35 -117v-241q0 -54 49 -40v-12q-24 -16 -51 -16q-59 0 -60 74q1 5 -3 5q-4 -1 -9 -6q-30 -36 -76.5 -55t-95.5 -19zM203 29q55 0 98 33t43 73v75q0 21 -7.5 30t-32.5 6q-115 -15 -160 -45t-45 -74q0 -39 27.5 -68.5t76.5 -29.5z" />
    <glyph glyph-name="aacute" unicode="&#xe1;" 
d="M218 549q-11 -10 -11 -20q3 -8 27 5l115 70q12 7 18.5 15.5t7 15.5t-1 12t-4.5 9q-21 25 -50 -4zM158 -6q-54 0 -91 27.5t-37 82.5q0 30 13 54t45 46.5t92 38.5t147 25q17 0 17 21v26q0 54 -32 89.5t-95 35.5q-87 0 -87 -76q0 -48 -34 -48q-32 0 -32 39q0 47 57.5 76
t129.5 29q83 0 118 -39t35 -117v-241q0 -54 49 -40v-12q-24 -16 -51 -16q-59 0 -60 74q1 5 -3 5q-4 -1 -9 -6q-30 -36 -76.5 -55t-95.5 -19zM203 29q55 0 98 33t43 73v75q0 21 -7.5 30t-32.5 6q-115 -15 -160 -45t-45 -74q0 -39 27.5 -68.5t76.5 -29.5z" />
    <glyph glyph-name="acircumflex" unicode="&#xe2;" 
d="M232 670l111 -127l-6 -9l-105 75l-104 -75l-6 9zM158 -6q-54 0 -91 27.5t-37 82.5q0 30 13 54t45 46.5t92 38.5t147 25q17 0 17 21v26q0 54 -32 89.5t-95 35.5q-87 0 -87 -76q0 -48 -34 -48q-32 0 -32 39q0 47 57.5 76t129.5 29q83 0 118 -39t35 -117v-241q0 -54 49 -40
v-12q-24 -16 -51 -16q-59 0 -60 74q1 5 -3 5q-4 -1 -9 -6q-30 -36 -76.5 -55t-95.5 -19zM203 29q55 0 98 33t43 73v75q0 21 -7.5 30t-32.5 6q-115 -15 -160 -45t-45 -74q0 -39 27.5 -68.5t76.5 -29.5z" />
    <glyph glyph-name="atilde" unicode="&#xe3;" 
d="M309 557q-43 0 -104 30t-78 30t-28.5 -12t-11.5 -34h-17q0 47 26 73t63 26q41 0 102 -30t80 -30q16 0 27.5 13t11.5 33h17q0 -47 -26.5 -73t-61.5 -26zM158 -6q-54 0 -91 27.5t-37 82.5q0 30 13 54t45 46.5t92 38.5t147 25q17 0 17 21v26q0 54 -32 89.5t-95 35.5
q-87 0 -87 -76q0 -48 -34 -48q-32 0 -32 39q0 47 57.5 76t129.5 29q83 0 118 -39t35 -117v-241q0 -54 49 -40v-12q-24 -16 -51 -16q-59 0 -60 74q1 5 -3 5q-4 -1 -9 -6q-30 -36 -76.5 -55t-95.5 -19zM203 29q55 0 98 33t43 73v75q0 21 -7.5 30t-32.5 6q-115 -15 -160 -45
t-45 -74q0 -39 27.5 -68.5t76.5 -29.5z" />
    <glyph glyph-name="adieresis" unicode="&#xe4;" 
d="M148 588q-15 0 -27 13t-12 29q0 14 12 26.5t27 12.5q16 0 28 -12.5t12 -26.5q0 -17 -12 -29.5t-28 -12.5zM316 588q-15 0 -27 13t-12 29q0 14 12 26.5t27 12.5q16 0 28 -12.5t12 -26.5q0 -17 -12 -29.5t-28 -12.5zM158 -6q-54 0 -91 27.5t-37 82.5q0 30 13 54t45 46.5
t92 38.5t147 25q17 0 17 21v26q0 54 -32 89.5t-95 35.5q-87 0 -87 -76q0 -48 -34 -48q-32 0 -32 39q0 47 57.5 76t129.5 29q83 0 118 -39t35 -117v-241q0 -54 49 -40v-12q-24 -16 -51 -16q-59 0 -60 74q1 5 -3 5q-4 -1 -9 -6q-30 -36 -76.5 -55t-95.5 -19zM203 29
q55 0 98 33t43 73v75q0 21 -7.5 30t-32.5 6q-115 -15 -160 -45t-45 -74q0 -39 27.5 -68.5t76.5 -29.5z" />
    <glyph glyph-name="aring" unicode="&#xe5;" 
d="M232 557q-36 0 -58.5 24t-22.5 57q0 34 22.5 57t58.5 23q37 0 59.5 -23t22.5 -57q0 -33 -23 -57t-59 -24zM232 584q21 0 36.5 15t15.5 39t-15.5 39t-36.5 15t-36 -15t-15 -39t15 -39t36 -15zM158 -6q-54 0 -91 27.5t-37 82.5q0 30 13 54t45 46.5t92 38.5t147 25
q17 0 17 21v26q0 54 -32 89.5t-95 35.5q-87 0 -87 -76q0 -48 -34 -48q-32 0 -32 39q0 47 57.5 76t129.5 29q83 0 118 -39t35 -117v-241q0 -54 49 -40v-12q-24 -16 -51 -16q-59 0 -60 74q1 5 -3 5q-4 -1 -9 -6q-30 -36 -76.5 -55t-95.5 -19zM203 29q55 0 98 33t43 73v75
q0 21 -7.5 30t-32.5 6q-115 -15 -160 -45t-45 -74q0 -39 27.5 -68.5t76.5 -29.5z" />
    <glyph glyph-name="ae" unicode="&#xe6;" horiz-adv-x="776" 
d="M733 100l12 -10q-20 -34 -65.5 -65t-109.5 -31q-101 0 -168 73q-13 12 -24.5 16.5t-19.5 2t-13 -6t-9 -9.5l-5 -5q-60 -71 -173 -71q-54 0 -91 27.5t-37 82.5q0 30 13 54t45 46t92 38t147 25q17 0 17 22v26q0 54 -32 89.5t-95 35.5q-87 0 -87 -76q0 -48 -34 -48
q-32 0 -32 39q0 47 57.5 76t129.5 29q115 0 143 -83q66 83 177 83q76 0 123 -43t47 -104q0 -41 -41.5 -58t-145.5 -19l-121 -2q-14 1 -19 -5.5t-6 -20.5q14 -75 69 -120.5t130 -45.5q81 0 126 58zM554 443q-65 0 -103 -40.5t-45 -114.5q0 -23 6.5 -29.5t21.5 -6.5l105 2
q74 1 104.5 17.5t30.5 51.5q0 56 -31 88t-89 32zM344 135v76q0 21 -7.5 30t-32.5 6q-116 -16 -161 -47t-45 -79q0 -37 26.5 -63.5t74.5 -26.5q57 0 101 31t44 73z" />
    <glyph glyph-name="ccedilla" unicode="&#xe7;" 
d="M438 90q-18 -31 -61 -61t-103 -34l-20 -44q37 13 72 -7t35 -59q0 -36 -30 -58.5t-71 -22.5q-48 0 -73 16t-25 40q0 21 15 27.5t32 -7.5q0 -65 43 -65q29 0 47 21.5t18 50.5q0 23 -14 39t-38 16q-14 0 -28 -5t-19 -5q-16 0 -5 21l21 42q-86 9 -145 72.5t-59 155.5
q0 106 70.5 171.5t172.5 65.5q70 0 113 -36.5t43 -79.5q0 -16 -10.5 -27t-27.5 -11q-36 0 -36 37q0 40 -29 70t-81 30q-68 0 -112 -50.5t-44 -133.5q0 -98 59.5 -157.5t146.5 -59.5q81 0 131 58z" />
    <glyph glyph-name="egrave" unicode="&#xe8;" horiz-adv-x="462" 
d="M134 604q-12 7 -18.5 15.5t-7 15.5t1 12t4.5 9q20 25 49 -4l102 -103q11 -10 11 -20q-3 -8 -27 5zM419 100l12 -10q-20 -34 -65.5 -65t-109.5 -31q-96 0 -161 65t-65 168q0 104 66.5 168.5t160.5 64.5q76 0 123 -43t47 -104q0 -41 -41.5 -58t-145.5 -19l-121 -2
q-14 1 -19 -5.5t-6 -20.5q14 -75 69 -120.5t130 -45.5q81 0 126 58zM240 443q-65 0 -103 -40.5t-45 -114.5q0 -23 6.5 -29.5t21.5 -6.5l105 2q74 1 104.5 17.5t30.5 51.5q0 56 -31 88t-89 32z" />
    <glyph glyph-name="eacute" unicode="&#xe9;" horiz-adv-x="462" 
d="M233 534q-24 -13 -27 -5q0 10 11 20l101 103q29 29 50 4q3 -4 4.5 -9t1 -12t-7 -15.5t-18.5 -15.5zM419 100l12 -10q-20 -34 -65.5 -65t-109.5 -31q-96 0 -161 65t-65 168q0 104 66.5 168.5t160.5 64.5q76 0 123 -43t47 -104q0 -41 -41.5 -58t-145.5 -19l-121 -2
q-14 1 -19 -5.5t-6 -20.5q14 -75 69 -120.5t130 -45.5q81 0 126 58zM240 443q-65 0 -103 -40.5t-45 -114.5q0 -23 6.5 -29.5t21.5 -6.5l105 2q74 1 104.5 17.5t30.5 51.5q0 56 -31 88t-89 32z" />
    <glyph glyph-name="ecircumflex" unicode="&#xea;" horiz-adv-x="462" 
d="M232 609l-104 -75l-6 9l110 127l111 -127l-6 -9zM419 100l12 -10q-20 -34 -65.5 -65t-109.5 -31q-96 0 -161 65t-65 168q0 104 66.5 168.5t160.5 64.5q76 0 123 -43t47 -104q0 -41 -41.5 -58t-145.5 -19l-121 -2q-14 1 -19 -5.5t-6 -20.5q14 -75 69 -120.5t130 -45.5
q81 0 126 58zM240 443q-65 0 -103 -40.5t-45 -114.5q0 -23 6.5 -29.5t21.5 -6.5l105 2q74 1 104.5 17.5t30.5 51.5q0 56 -31 88t-89 32z" />
    <glyph glyph-name="edieresis" unicode="&#xeb;" horiz-adv-x="462" 
d="M148 588q-15 0 -27 13t-12 29q0 14 12 26.5t27 12.5q16 0 28 -12.5t12 -26.5q0 -17 -12 -29.5t-28 -12.5zM316 588q-15 0 -27 13t-12 29q0 14 12 26.5t27 12.5q16 0 28 -12.5t12 -26.5q0 -17 -12 -29.5t-28 -12.5zM419 100l12 -10q-20 -34 -65.5 -65t-109.5 -31
q-96 0 -161 65t-65 168q0 104 66.5 168.5t160.5 64.5q76 0 123 -43t47 -104q0 -41 -41.5 -58t-145.5 -19l-121 -2q-14 1 -19 -5.5t-6 -20.5q14 -75 69 -120.5t130 -45.5q81 0 126 58zM240 443q-65 0 -103 -40.5t-45 -114.5q0 -23 6.5 -29.5t21.5 -6.5l105 2q74 1 104.5 17.5
t30.5 51.5q0 56 -31 88t-89 32z" />
    <glyph glyph-name="igrave" unicode="&#xec;" horiz-adv-x="241" 
d="M142 549l-102 103q-29 29 -49 4q-3 -4 -4.5 -9t-1 -12t7 -15.5t18.5 -15.5l115 -70q24 -13 27 -5q0 10 -11 20zM27 0v13q36 5 50 15.5t14 34.5v300q0 37 -11.5 50t-54.5 9v12l95 24q14 4 22.5 -3t8.5 -23v-369q0 -24 14 -34.5t51 -15.5v-13h-189z" />
    <glyph glyph-name="iacute" unicode="&#xed;" horiz-adv-x="241" 
d="M94 549q-11 -10 -11 -20q3 -8 27 5l115 70q12 7 18.5 15.5t7 15.5t-1 12t-4.5 9q-21 25 -50 -4zM27 0v13q36 5 50 15.5t14 34.5v300q0 37 -11.5 50t-54.5 9v12l95 24q14 4 22.5 -3t8.5 -23v-369q0 -24 14 -34.5t51 -15.5v-13h-189z" />
    <glyph glyph-name="icircumflex" unicode="&#xee;" horiz-adv-x="241" 
d="M109 670l111 -127l-6 -9l-105 75l-104 -75l-6 9zM27 0v13q36 5 50 15.5t14 34.5v300q0 37 -11.5 50t-54.5 9v12l95 24q14 4 22.5 -3t8.5 -23v-369q0 -24 14 -34.5t51 -15.5v-13h-189z" />
    <glyph glyph-name="idieresis" unicode="&#xef;" horiz-adv-x="241" 
d="M24 588q-15 0 -27 13t-12 29q0 14 12 26.5t27 12.5q16 0 28 -12.5t12 -26.5q0 -17 -12 -29.5t-28 -12.5zM192 588q-15 0 -27 13t-12 29q0 14 12 26.5t27 12.5q16 0 28 -12.5t12 -26.5q0 -17 -12 -29.5t-28 -12.5zM27 0v13q36 5 50 15.5t14 34.5v300q0 37 -11.5 50
t-54.5 9v12l95 24q14 4 22.5 -3t8.5 -23v-369q0 -24 14 -34.5t51 -15.5v-13h-189z" />
    <glyph glyph-name="eth" unicode="&#xf0;" horiz-adv-x="527" 
d="M447 65q0 -54 65 -35v-14q-33 -21 -65 -21q-31 0 -45.5 15t-14.5 57v7q-69 -80 -161 -80q-84 0 -140 62.5t-56 160.5q0 113 63 178t154 65q24 0 49 -5t40 -10t27.5 -8t18 1t5.5 17v28q0 31 -7 59l-120 -34l-3 12l119 33q-23 63 -103 68v14q98 0 144 -70l97 27l3 -12
l-93 -26q23 -44 23 -106v-383zM266 42q48 0 84.5 23.5t36.5 76.5v170q0 61 -48 95t-109 34q-65 0 -102.5 -50.5t-37.5 -135.5q0 -95 48 -154t128 -59z" />
    <glyph glyph-name="ntilde" unicode="&#xf1;" horiz-adv-x="533" 
d="M343 557q-43 0 -104 30t-78 30t-28.5 -12t-11.5 -34h-17q0 47 26 73t63 26q41 0 102 -30t80 -30q16 0 27.5 13t11.5 33h17q0 -47 -26.5 -73t-61.5 -26zM459 -5q-27 0 -41 13.5t-14 47.5v228q0 61 -32.5 100t-91.5 39q-55 0 -92 -41t-37 -98v-221q0 -24 14 -34.5t51 -15.5
v-13h-189v13q36 5 50 15.5t14 34.5v300q0 37 -11.5 50t-54.5 9v12l95 24q14 4 22.5 -3.5t8.5 -25.5q0 -46 11 -46q4 0 9 5q62 70 146 70q62 0 104.5 -40.5t42.5 -114.5v-240q0 -54 49 -40v-12q-32 -16 -54 -16z" />
    <glyph glyph-name="ograve" unicode="&#xf2;" horiz-adv-x="520" 
d="M293 549l-102 103q-29 29 -49 4q-3 -4 -4.5 -9t-1 -12t7 -15.5t18.5 -15.5l115 -70q24 -13 27 -5q0 10 -11 20zM258 -6q-94 0 -161 64t-67 166t68.5 169t164.5 67q94 0 160.5 -64t66.5 -166t-68 -169t-164 -67zM284 15q65 0 104.5 46.5t39.5 136.5q0 100 -55 170.5
t-137 70.5q-64 0 -104 -46.5t-40 -136.5q0 -99 55 -170t137 -71z" />
    <glyph glyph-name="oacute" unicode="&#xf3;" horiz-adv-x="520" 
d="M245 549q-11 -10 -11 -20q3 -8 27 5l115 70q12 7 18.5 15.5t7 15.5t-1 12t-4.5 9q-21 25 -50 -4zM258 -6q-94 0 -161 64t-67 166t68.5 169t164.5 67q94 0 160.5 -64t66.5 -166t-68 -169t-164 -67zM284 15q65 0 104.5 46.5t39.5 136.5q0 100 -55 170.5t-137 70.5
q-64 0 -104 -46.5t-40 -136.5q0 -99 55 -170t137 -71z" />
    <glyph glyph-name="ocircumflex" unicode="&#xf4;" horiz-adv-x="520" 
d="M260 670l111 -127l-6 -9l-105 75l-104 -75l-6 9zM258 -6q-94 0 -161 64t-67 166t68.5 169t164.5 67q94 0 160.5 -64t66.5 -166t-68 -169t-164 -67zM284 15q65 0 104.5 46.5t39.5 136.5q0 100 -55 170.5t-137 70.5q-64 0 -104 -46.5t-40 -136.5q0 -99 55 -170t137 -71z
" />
    <glyph glyph-name="otilde" unicode="&#xf5;" horiz-adv-x="520" 
d="M336 557q-43 0 -104 30t-78 30t-28.5 -12t-11.5 -34h-17q0 47 26 73t63 26q41 0 102 -30t80 -30q16 0 27.5 13t11.5 33h17q0 -47 -26.5 -73t-61.5 -26zM258 -6q-94 0 -161 64t-67 166t68.5 169t164.5 67q94 0 160.5 -64t66.5 -166t-68 -169t-164 -67zM284 15
q65 0 104.5 46.5t39.5 136.5q0 100 -55 170.5t-137 70.5q-64 0 -104 -46.5t-40 -136.5q0 -99 55 -170t137 -71z" />
    <glyph glyph-name="odieresis" unicode="&#xf6;" horiz-adv-x="520" 
d="M175 588q-15 0 -27 13t-12 29q0 14 12 26.5t27 12.5t27.5 -12.5t12.5 -26.5q0 -17 -12 -29.5t-28 -12.5zM343 588q-15 0 -27 13t-12 29q0 14 12 26.5t27 12.5t27.5 -12.5t12.5 -26.5q0 -17 -12 -29.5t-28 -12.5zM258 -6q-94 0 -161 64t-67 166t68.5 169t164.5 67
q94 0 160.5 -64t66.5 -166t-68 -169t-164 -67zM284 15q65 0 104.5 46.5t39.5 136.5q0 100 -55 170.5t-137 70.5q-64 0 -104 -46.5t-40 -136.5q0 -99 55 -170t137 -71z" />
    <glyph glyph-name="divide" unicode="&#xf7;" horiz-adv-x="470" 
d="M234 370q-13 0 -23 10.5t-10 24.5t10 24.5t23 10.5q14 0 24.5 -11t10.5 -24q0 -14 -10.5 -24.5t-24.5 -10.5zM50 262h370v-21h-370v21zM234 64q-13 0 -23 10.5t-10 24.5t10 24.5t23 10.5q14 0 24.5 -11t10.5 -24q0 -14 -10.5 -24.5t-24.5 -10.5z" />
    <glyph glyph-name="oslash" unicode="&#xf8;" horiz-adv-x="520" 
d="M415 404q75 -67 75 -174q0 -102 -68 -169t-164 -67q-79 0 -142 47l-30 -36l-11 8l31 37q-76 66 -76 174q0 102 68.5 169t164.5 67q80 0 141 -47l32 38l12 -8zM92 256q0 -94 49 -162l230 278q-56 67 -135 67q-64 0 -104 -46.5t-40 -136.5zM284 15q65 0 104.5 46.5
t39.5 136.5q0 94 -49 162l-229 -278q56 -67 134 -67z" />
    <glyph glyph-name="ugrave" unicode="&#xf9;" horiz-adv-x="538" 
d="M323 549l-102 103q-29 29 -49 4q-4 -5 -5.5 -12t3.5 -18.5t21 -21.5l116 -70q24 -13 26 -5t-10 20zM237 -6q-61 0 -103.5 40.5t-42.5 114.5v214q0 37 -11.5 50t-54.5 9v12l95 24q14 4 22.5 -3t8.5 -23v-264q0 -62 33 -100.5t91 -38.5q55 0 92 41t37 98v195q0 37 -11.5 50
t-54.5 9v12l95 24q14 4 22.5 -3t8.5 -23v-369q0 -54 49 -40v-12q-24 -16 -53 -16q-23 0 -41 13.5t-21 44.5q0 12 -8 12q-4 0 -11 -7l-6 -6t-11 -10l-15 -12.5t-20 -13t-24.5 -11t-30.5 -8.5t-35 -3z" />
    <glyph glyph-name="uacute" unicode="&#xfa;" horiz-adv-x="538" 
d="M228 549q-12 -12 -10 -20t26 5l116 70q38 23 20 52q-23 23 -50 -4zM237 -6q-61 0 -103.5 40.5t-42.5 114.5v214q0 37 -11.5 50t-54.5 9v12l95 24q14 4 22.5 -3t8.5 -23v-264q0 -62 33 -100.5t91 -38.5q55 0 92 41t37 98v195q0 37 -11.5 50t-54.5 9v12l95 24q14 4 22.5 -3
t8.5 -23v-369q0 -54 49 -40v-12q-24 -16 -53 -16q-23 0 -41 13.5t-21 44.5q0 12 -8 12q-4 0 -11 -7l-6 -6t-11 -10l-15 -12.5t-20 -13t-24.5 -11t-30.5 -8.5t-35 -3z" />
    <glyph glyph-name="ucircumflex" unicode="&#xfb;" horiz-adv-x="538" 
d="M242 670l110 -127l-6 -9l-104 75l-104 -75l-6 9zM237 -6q-61 0 -103.5 40.5t-42.5 114.5v214q0 37 -11.5 50t-54.5 9v12l95 24q14 4 22.5 -3t8.5 -23v-264q0 -62 33 -100.5t91 -38.5q55 0 92 41t37 98v195q0 37 -11.5 50t-54.5 9v12l95 24q14 4 22.5 -3t8.5 -23v-369
q0 -54 49 -40v-12q-24 -16 -53 -16q-23 0 -41 13.5t-21 44.5q0 12 -8 12q-4 0 -11 -7l-6 -6t-11 -10l-15 -12.5t-20 -13t-24.5 -11t-30.5 -8.5t-35 -3z" />
    <glyph glyph-name="udieresis" unicode="&#xfc;" horiz-adv-x="538" 
d="M158 588q-15 0 -27 13t-12 29q0 14 12 26.5t27 12.5q16 0 28 -12.5t12 -26.5q0 -17 -12 -29.5t-28 -12.5zM326 588q-15 0 -27 13t-12 29q0 14 12 26.5t27 12.5q16 0 28 -12.5t12 -26.5q0 -17 -12 -29.5t-28 -12.5zM237 -6q-61 0 -103.5 40.5t-42.5 114.5v214
q0 37 -11.5 50t-54.5 9v12l95 24q14 4 22.5 -3t8.5 -23v-264q0 -62 33 -100.5t91 -38.5q55 0 92 41t37 98v195q0 37 -11.5 50t-54.5 9v12l95 24q14 4 22.5 -3t8.5 -23v-369q0 -54 49 -40v-12q-24 -16 -53 -16q-23 0 -41 13.5t-21 44.5q0 12 -8 12q-4 0 -11 -7l-6 -6t-11 -10
l-15 -12.5t-20 -13t-24.5 -11t-30.5 -8.5t-35 -3z" />
    <glyph glyph-name="yacute" unicode="&#xfd;" horiz-adv-x="509" 
d="M242 549q-11 -10 -11 -20q3 -8 27 5l115 70q12 7 18.5 15.5t7 15.5t-1 12t-4.5 9q-21 25 -50 -4zM107 -198q-32 0 -49.5 15t-17.5 39q0 21 14 33t32 12q16 0 24 -10.5t8.5 -22.5t5.5 -22.5t18 -10.5q31 0 67 91q11 28 11.5 57t-3 42t-11.5 34l-117 282q-21 53 -34 68.5
t-45 28.5v13h180v-13q-42 -13 -48 -28.5t16 -68.5l103 -248q3 -6 8 -6t8 6l56 140q27 68 38.5 105.5t7.5 58t-13.5 27t-35.5 14.5v13h169v-13q-44 -13 -62 -30.5t-38 -66.5l-175 -426q-28 -65 -44 -83q-27 -30 -73 -30z" />
    <glyph glyph-name="thorn" unicode="&#xfe;" horiz-adv-x="522" 
d="M12 -190v13q36 5 50 15t14 35v690q0 36 -11.5 48.5t-54.5 8.5v12l95 24q14 4 22.5 -3t8.5 -23v-228q0 -3 1.5 -5.5t5.5 -2t9 6.5q17 21 57.5 40t87.5 19q83 0 139 -63t56 -161q0 -112 -63 -177t-153 -65q-28 0 -54 7t-40.5 14t-26 11.5t-15.5 -0.5t-4 -22v-131
q0 -25 14 -35t51 -15v-13h-189zM290 13q66 0 104 50t38 133q0 93 -48.5 155t-122.5 62q-48 0 -86.5 -24.5t-38.5 -78.5v-144q0 -72 47.5 -112.5t106.5 -40.5z" />
    <glyph glyph-name="ydieresis" unicode="&#xff;" horiz-adv-x="509" 
d="M173 588q-15 0 -27 13t-12 29q0 14 12 26.5t27 12.5t27.5 -12.5t12.5 -26.5q0 -17 -12 -29.5t-28 -12.5zM341 588q-15 0 -27 13t-12 29q0 14 12 26.5t27 12.5t27.5 -12.5t12.5 -26.5q0 -17 -12 -29.5t-28 -12.5zM107 -198q-32 0 -49.5 15t-17.5 39q0 21 14 33t32 12
q16 0 24 -10.5t8.5 -22.5t5.5 -22.5t18 -10.5q31 0 67 91q11 28 11.5 57t-3 42t-11.5 34l-117 282q-21 53 -34 68.5t-45 28.5v13h180v-13q-42 -13 -48 -28.5t16 -68.5l103 -248q3 -6 8 -6t8 6l56 140q27 68 38.5 105.5t7.5 58t-13.5 27t-35.5 14.5v13h169v-13
q-44 -13 -62 -30.5t-38 -66.5l-175 -426q-28 -65 -44 -83q-27 -30 -73 -30z" />
    <glyph glyph-name="Amacron" unicode="&#x100;" horiz-adv-x="706" 
d="M208 759q-14 0 -14 11q0 7 2.5 9.5t11.5 2.5h295q9 0 11.5 -2.5t2.5 -9.5q0 -11 -14 -11h-295zM194 772v-2v-2v4zM517 772v-4v2v2zM594 103q21 -52 37.5 -68t54.5 -20v-15h-203v14q45 8 53 21t-6 41l-189 450q-7 13 -11.5 12.5t-9.5 -14.5l-121 -286q-1 -8 4 -12.5
t14 -4.5h225q11 0 16 7t0 19l35 -86q-17 36 -59 36h-208q-40 0 -57 -30l-37 -86q-12 -31 3.5 -46t57.5 -21v-14h-173v14q35 7 52 19.5t31 43.5l202 479q18 41 18 65l49 5zM201 245v1v-1z" />
    <glyph glyph-name="amacron" unicode="&#x101;" 
d="M97 589q-14 0 -14 11q0 7 2.5 9.5t11.5 2.5h295q9 0 11.5 -2.5t2.5 -9.5q0 -11 -14 -11h-295zM83 602v-2v-2v4zM406 602v-4v2v2zM404 63q0 -54 49 -40v-12q-24 -16 -51 -16q-59 0 -60 74q1 5 -3 5q-4 -1 -9 -6q-30 -36 -76.5 -55t-95.5 -19q-54 0 -91 27.5t-37 82.5
q0 30 13 54t45 46.5t92 38.5t147 25q17 0 17 21v26q0 54 -32 89.5t-95 35.5q-87 0 -87 -76q0 -48 -34 -48q-32 0 -32 39q0 47 57.5 76t129.5 29q83 0 118 -39t35 -117v-241zM344 135v75q0 21 -7.5 30t-32.5 6q-115 -15 -160 -45t-45 -74q0 -39 27.5 -68.5t76.5 -29.5
q55 0 98 33t43 73z" />
    <glyph glyph-name="Abreve" unicode="&#x102;" horiz-adv-x="706" 
d="M343 739q-61 0 -92.5 32.5t-31.5 78.5q0 11 7 11h3q10 0 10 -7q5 -26 34 -47t70 -21q42 0 71 21t34 47q0 7 10 7h3q7 0 7 -11q0 -46 -32 -78.5t-93 -32.5zM594 103q21 -52 37.5 -68t54.5 -20v-15h-203v14q45 8 53 21t-6 41l-189 450q-7 13 -11.5 12.5t-9.5 -14.5
l-121 -286q-1 -8 4 -12.5t14 -4.5h225q11 0 16 7t0 19l35 -86q-17 36 -59 36h-208q-40 0 -57 -30l-37 -86q-12 -31 3.5 -46t57.5 -21v-14h-173v14q35 7 52 19.5t31 43.5l202 479q18 41 18 65l49 5zM201 245v1v-1z" />
    <glyph glyph-name="abreve" unicode="&#x103;" 
d="M232 569q-61 0 -92.5 32.5t-31.5 78.5q0 11 7 11h3q10 0 10 -7q5 -26 34 -47t70 -21q42 0 71 21t34 47q0 7 10 7h3q7 0 7 -11q0 -46 -32 -78.5t-93 -32.5zM158 -6q-54 0 -91 27.5t-37 82.5q0 30 13 54t45 46.5t92 38.5t147 25q17 0 17 21v26q0 54 -32 89.5t-95 35.5
q-87 0 -87 -76q0 -48 -34 -48q-32 0 -32 39q0 47 57.5 76t129.5 29q83 0 118 -39t35 -117v-241q0 -54 49 -40v-12q-24 -16 -51 -16q-59 0 -60 74q1 5 -3 5q-4 -1 -9 -6q-30 -36 -76.5 -55t-95.5 -19zM203 29q55 0 98 33t43 73v75q0 21 -7.5 30t-32.5 6q-115 -15 -160 -45
t-45 -74q0 -39 27.5 -68.5t76.5 -29.5z" />
    <glyph glyph-name="Aogonek" unicode="&#x104;" horiz-adv-x="706" 
d="M596 0q-68 -47 -68 -111q0 -24 17 -37.5t37 -13.5q58 0 85 53h15q-36 -85 -109 -85q-36 0 -67 21.5t-31 55.5q0 66 93 117h-85v14q45 8 53 21t-6 41l-189 450q-7 13 -11.5 12.5t-9.5 -14.5l-121 -286q-1 -8 4 -12.5t14 -4.5h225q11 0 16 7t0 19l35 -86q-17 36 -59 36
h-208q-40 0 -57 -30l-37 -86q-12 -31 3.5 -46t57.5 -21v-14h-173v14q35 7 52 19.5t31 43.5l202 479q18 41 18 65l49 5l222 -523q21 -52 37.5 -68t54.5 -20v-15h-90zM201 245v1v-1z" />
    <glyph glyph-name="aogonek" unicode="&#x105;" 
d="M438 -98h17q-10 -31 -37.5 -59.5t-66.5 -28.5q-33 0 -57 19t-24 53q0 37 28.5 67.5t74.5 47.5q-30 13 -31 68q1 5 -3 5q-4 -1 -9 -6q-30 -36 -76.5 -55t-95.5 -19q-54 0 -91 27.5t-37 82.5q0 30 13 54t45 46.5t92 38.5t147 25q17 0 17 21v26q0 54 -32 89.5t-95 35.5
q-87 0 -87 -76q0 -48 -34 -48q-32 0 -32 39q0 47 57.5 76t129.5 29q83 0 118 -39t35 -117v-241q0 -54 49 -40v-12q-14 -9 -31 -14q-99 -31 -99 -100q0 -24 14.5 -37.5t35.5 -13.5q42 0 65 56zM344 135v75q0 21 -7.5 30t-32.5 6q-115 -15 -160 -45t-45 -74q0 -39 27.5 -68.5
t76.5 -29.5q55 0 98 33t43 73z" />
    <glyph glyph-name="Cacute" unicode="&#x106;" horiz-adv-x="631" 
d="M319 719q-11 -10 -11 -20q3 -8 27 5l115 70q12 7 18.5 15.5t7 15.5t-1 12t-4.5 9q-21 25 -50 -4zM348 -10q-128 0 -223 88t-95 232q0 100 48.5 176t122.5 113.5t158 37.5q96 0 161 -51t65 -106q0 -24 -13.5 -37.5t-35.5 -13.5q-17 0 -29.5 13t-12.5 41q0 43 -43 84
t-119 41q-105 0 -170 -66.5t-65 -179.5q0 -140 85.5 -229.5t216.5 -89.5q60 0 102.5 22.5t84.5 69.5l10 -8q-27 -49 -91 -93t-157 -44z" />
    <glyph glyph-name="cacute" unicode="&#x107;" 
d="M246 549q-11 -10 -11 -20q3 -8 27 5l115 70q12 7 18.5 15.5t7 15.5t-1 12t-4.5 9q-21 25 -50 -4zM259 -6q-94 0 -161.5 65t-67.5 164q0 106 70.5 171.5t172.5 65.5q70 0 113 -36.5t43 -79.5q0 -16 -10.5 -27t-27.5 -11q-36 0 -36 37q0 40 -29 70t-81 30q-68 0 -112 -50.5
t-44 -133.5q0 -98 59.5 -157.5t146.5 -59.5q81 0 131 58l12 -10q-20 -34 -66.5 -65t-112.5 -31z" />
    <glyph glyph-name="Cdotaccent" unicode="&#x10a;" horiz-adv-x="631" 
d="M334 758q-15 0 -27 13t-12 29q0 14 12 26.5t27 12.5q16 0 28 -12.5t12 -26.5q0 -17 -12 -29.5t-28 -12.5zM348 -10q-128 0 -223 88t-95 232q0 100 48.5 176t122.5 113.5t158 37.5q96 0 161 -51t65 -106q0 -24 -13.5 -37.5t-35.5 -13.5q-17 0 -29.5 13t-12.5 41
q0 43 -43 84t-119 41q-105 0 -170 -66.5t-65 -179.5q0 -140 85.5 -229.5t216.5 -89.5q60 0 102.5 22.5t84.5 69.5l10 -8q-27 -49 -91 -93t-157 -44z" />
    <glyph glyph-name="cdotaccent" unicode="&#x10b;" 
d="M261 588q-15 0 -27 13t-12 29q0 14 12 26.5t27 12.5t27.5 -12.5t12.5 -26.5q0 -17 -12 -29.5t-28 -12.5zM259 -6q-94 0 -161.5 65t-67.5 164q0 106 70.5 171.5t172.5 65.5q70 0 113 -36.5t43 -79.5q0 -16 -10.5 -27t-27.5 -11q-36 0 -36 37q0 40 -29 70t-81 30
q-68 0 -112 -50.5t-44 -133.5q0 -98 59.5 -157.5t146.5 -59.5q81 0 131 58l12 -10q-20 -34 -66.5 -65t-112.5 -31z" />
    <glyph glyph-name="Ccaron" unicode="&#x10c;" horiz-adv-x="631" 
d="M334 712l-110 127l6 9l104 -75l105 75l6 -9zM348 -10q-128 0 -223 88t-95 232q0 100 48.5 176t122.5 113.5t158 37.5q96 0 161 -51t65 -106q0 -24 -13.5 -37.5t-35.5 -13.5q-17 0 -29.5 13t-12.5 41q0 43 -43 84t-119 41q-105 0 -170 -66.5t-65 -179.5
q0 -140 85.5 -229.5t216.5 -89.5q60 0 102.5 22.5t84.5 69.5l10 -8q-27 -49 -91 -93t-157 -44z" />
    <glyph glyph-name="ccaron" unicode="&#x10d;" 
d="M261 542l-110 127l6 9l104 -75l105 75l6 -9zM259 -6q-94 0 -161.5 65t-67.5 164q0 106 70.5 171.5t172.5 65.5q70 0 113 -36.5t43 -79.5q0 -16 -10.5 -27t-27.5 -11q-36 0 -36 37q0 40 -29 70t-81 30q-68 0 -112 -50.5t-44 -133.5q0 -98 59.5 -157.5t146.5 -59.5
q81 0 131 58l12 -10q-20 -34 -66.5 -65t-112.5 -31z" />
    <glyph glyph-name="Dcaron" unicode="&#x10e;" horiz-adv-x="614" 
d="M310 712l-110 127l6 9l104 -75l105 75l6 -9zM30 0v14q18 4 25.5 6t16.5 7t11.5 13t2.5 21v501q0 13 -2.5 20.5t-12 12t-16 6.5t-25.5 6v14h212q49 0 93.5 -8t89 -29.5t77 -55t52.5 -88t20 -124.5q0 -149 -86.5 -231.5t-237.5 -82.5q-18 0 -64 2t-65 2q-42 0 -91 -6z
M250 21q70 0 121 23.5t79 66t41 93t13 112.5q0 59 -12.5 106.5t-40.5 89.5t-81.5 65t-128.5 23h-25q-34 0 -48 -7t-14 -31v-501q0 -40 96 -40z" />
    <glyph glyph-name="dcaron" unicode="&#x10f;" horiz-adv-x="540" 
d="M514 660q17 0 26.5 -10.5t1.5 -32.5l-35 -117q-5 -13 -10 -13q-4 0 -8.5 4t-4.5 8l6 131q1 10 2.5 15t7 10t14.5 5zM447 65q0 -54 65 -35v-14q-33 -21 -65 -21q-31 0 -45.5 15t-14.5 57v7q-69 -80 -161 -80q-84 0 -140 63.5t-56 163.5q0 110 63 174.5t154 64.5
q24 0 49 -5t40 -10t27.5 -8t18 1t5.5 17v108q0 36 -11.5 48.5t-54.5 8.5v12l95 24q14 4 22.5 -3t8.5 -23v-565zM266 42q48 0 84.5 23.5t36.5 76.5v170q0 61 -48 95t-109 34q-65 0 -102.5 -50.5t-37.5 -135.5q0 -95 48 -154t128 -59z" />
    <glyph glyph-name="Dcroat" unicode="&#x110;" horiz-adv-x="614" 
d="M242 621q49 0 93.5 -8t89 -29.5t77 -55t52.5 -88t20 -124.5q0 -149 -86.5 -231.5t-237.5 -82.5q-18 0 -64 2t-65 2q-42 0 -91 -6v14q18 4 25.5 6t16.5 7t11.5 13t2.5 21v241h-55v17h55v243q0 13 -2.5 20.5t-12 12t-16 6.5t-25.5 6v14h212zM250 21q70 0 121 23.5t79 66
t41 93t13 112.5q0 59 -12.5 106.5t-40.5 89.5t-81.5 65t-128.5 23h-25q-34 0 -48 -7t-14 -31v-243h131v-17h-131v-241q0 -40 96 -40z" />
    <glyph glyph-name="dcroat" unicode="&#x111;" horiz-adv-x="527" 
d="M512 512h-65v-447q0 -54 65 -35v-14q-33 -21 -65 -21q-31 0 -45.5 15t-14.5 57v7q-69 -80 -161 -80q-84 0 -140 63.5t-56 163.5q0 110 63 174.5t154 64.5q24 0 49 -5t40 -10t27.5 -8t18 1t5.5 17v57h-129v17h129v34q0 36 -11.5 48.5t-54.5 8.5v12l95 24q14 4 22.5 -3
t8.5 -23v-101h65v-17zM266 42q48 0 84.5 23.5t36.5 76.5v170q0 61 -48 95t-109 34q-65 0 -102.5 -50.5t-37.5 -135.5q0 -95 48 -154t128 -59z" />
    <glyph glyph-name="Emacron" unicode="&#x112;" horiz-adv-x="547" 
d="M135 759q-14 0 -14 11q0 7 2.5 9.5t11.5 2.5h295q9 0 11.5 -2.5t2.5 -9.5q0 -11 -14 -11h-295zM121 772v-2v-2v4zM444 772v-4v2v2zM510 115h17q-23 -45 -30 -101q-2 -14 -16 -14h-451v14q18 4 25.5 6t16.5 7t11.5 13t2.5 21v499q0 13 -2.5 21t-11.5 13t-16.5 7t-25.5 6
v14h438q15 0 16 -13q5 -42 19 -102h-17q-16 46 -47 67.5t-83 21.5h-140q-34 0 -48 -7t-14 -31v-189q0 -24 14 -31t48 -7h115q39 0 54 16.5t22 52.5h14v-167h-14q-7 37 -22 54t-54 17h-115q-34 0 -48 -7t-14 -31v-200q0 -25 21 -32.5t85 -5.5l117 1q51 1 73.5 13.5t35.5 35.5
z" />
    <glyph glyph-name="emacron" unicode="&#x113;" horiz-adv-x="462" 
d="M96 589q-14 0 -14 11q0 7 2.5 9.5t11.5 2.5h295q9 0 11.5 -2.5t2.5 -9.5q0 -11 -14 -11h-295zM82 602v-2v-2v4zM405 602v-4v2v2zM419 100l12 -10q-20 -34 -65.5 -65t-109.5 -31q-96 0 -161 65t-65 168q0 104 66.5 168.5t160.5 64.5q76 0 123 -43t47 -104q0 -41 -41.5 -58
t-145.5 -19l-121 -2q-14 1 -19 -5.5t-6 -20.5q14 -75 69 -120.5t130 -45.5q81 0 126 58zM240 443q-65 0 -103 -40.5t-45 -114.5q0 -23 6.5 -29.5t21.5 -6.5l105 2q74 1 104.5 17.5t30.5 51.5q0 56 -31 88t-89 32z" />
    <glyph glyph-name="Edotaccent" unicode="&#x116;" horiz-adv-x="547" 
d="M271 758q-15 0 -27 13t-12 29q0 14 12 26.5t27 12.5t27.5 -12.5t12.5 -26.5q0 -17 -12 -29.5t-28 -12.5zM30 0v14q18 4 25.5 6t16.5 7t11.5 13t2.5 21v499q0 13 -2.5 21t-11.5 13t-16.5 7t-25.5 6v14h438q15 0 16 -13q5 -42 19 -102h-17q-16 46 -47 67.5t-83 21.5h-140
q-34 0 -48 -7t-14 -31v-189q0 -24 14 -31t48 -7h115q39 0 54 16.5t22 52.5h14v-167h-14q-7 37 -22 54t-54 17h-115q-34 0 -48 -7t-14 -31v-200q0 -25 21 -32.5t85 -5.5l117 1q51 1 73.5 13.5t35.5 35.5l24 38h17q-23 -45 -30 -101q-2 -14 -16 -14h-451z" />
    <glyph glyph-name="edotaccent" unicode="&#x117;" horiz-adv-x="462" 
d="M232 588q-15 0 -27 13t-12 29q0 14 12 26.5t27 12.5q16 0 28 -12.5t12 -26.5q0 -17 -12 -29.5t-28 -12.5zM419 100l12 -10q-20 -34 -65.5 -65t-109.5 -31q-96 0 -161 65t-65 168q0 104 66.5 168.5t160.5 64.5q76 0 123 -43t47 -104q0 -41 -41.5 -58t-145.5 -19l-121 -2
q-14 1 -19 -5.5t-6 -20.5q14 -75 69 -120.5t130 -45.5q81 0 126 58zM240 443q-65 0 -103 -40.5t-45 -114.5q0 -23 6.5 -29.5t21.5 -6.5l105 2q74 1 104.5 17.5t30.5 51.5q0 56 -31 88t-89 32z" />
    <glyph glyph-name="Eogonek" unicode="&#x118;" horiz-adv-x="547" 
d="M510 115h17q-23 -45 -30 -101q-2 -14 -16 -14h-82q-68 -47 -68 -111q0 -24 17 -37.5t37 -13.5q58 0 85 53h15q-36 -85 -109 -85q-36 0 -67 21.5t-31 55.5q0 66 93 117h-341v14q18 4 25.5 6t16.5 7t11.5 13t2.5 21v499q0 13 -2.5 21t-11.5 13t-16.5 7t-25.5 6v14h438
q15 0 16 -13q5 -42 19 -102h-17q-16 46 -47 67.5t-83 21.5h-140q-34 0 -48 -7t-14 -31v-189q0 -24 14 -31t48 -7h115q39 0 54 16.5t22 52.5h14v-167h-14q-7 37 -22 54t-54 17h-115q-34 0 -48 -7t-14 -31v-200q0 -25 21 -32.5t85 -5.5l117 1q51 1 73.5 13.5t35.5 35.5z" />
    <glyph glyph-name="eogonek" unicode="&#x119;" horiz-adv-x="462" 
d="M320 4q-92 -54 -92 -108q0 -51 48 -51t77 56h18q-15 -32 -44 -60t-71 -28q-31 0 -56 18t-25 57q0 60 84 106h-3q-96 0 -161 65t-65 168q0 104 66.5 168.5t160.5 64.5q76 0 123 -43t47 -104q0 -41 -41.5 -58t-145.5 -19l-121 -2q-14 1 -19 -5.5t-6 -20.5q14 -75 69 -120.5
t130 -45.5q81 0 126 58l12 -10q-13 -23 -42 -48t-69 -38zM240 443q-65 0 -103 -40.5t-45 -114.5q0 -23 6.5 -29.5t21.5 -6.5l105 2q74 1 104.5 17.5t30.5 51.5q0 56 -31 88t-89 32z" />
    <glyph glyph-name="Ecaron" unicode="&#x11a;" horiz-adv-x="547" 
d="M271 712l-110 127l6 9l104 -75l105 75l6 -9zM30 0v14q18 4 25.5 6t16.5 7t11.5 13t2.5 21v499q0 13 -2.5 21t-11.5 13t-16.5 7t-25.5 6v14h438q15 0 16 -13q5 -42 19 -102h-17q-16 46 -47 67.5t-83 21.5h-140q-34 0 -48 -7t-14 -31v-189q0 -24 14 -31t48 -7h115
q39 0 54 16.5t22 52.5h14v-167h-14q-7 37 -22 54t-54 17h-115q-34 0 -48 -7t-14 -31v-200q0 -25 21 -32.5t85 -5.5l117 1q51 1 73.5 13.5t35.5 35.5l24 38h17q-23 -45 -30 -101q-2 -14 -16 -14h-451z" />
    <glyph glyph-name="ecaron" unicode="&#x11b;" horiz-adv-x="462" 
d="M343 669l-111 -127l-110 127l6 9l104 -75l105 75zM419 100l12 -10q-20 -34 -65.5 -65t-109.5 -31q-96 0 -161 65t-65 168q0 104 66.5 168.5t160.5 64.5q76 0 123 -43t47 -104q0 -41 -41.5 -58t-145.5 -19l-121 -2q-14 1 -19 -5.5t-6 -20.5q14 -75 69 -120.5t130 -45.5
q81 0 126 58zM240 443q-65 0 -103 -40.5t-45 -114.5q0 -23 6.5 -29.5t21.5 -6.5l105 2q74 1 104.5 17.5t30.5 51.5q0 56 -31 88t-89 32z" />
    <glyph glyph-name="Gbreve" unicode="&#x11e;" horiz-adv-x="649" 
d="M324 739q-61 0 -92.5 32.5t-31.5 78.5q0 11 7 11h3q10 0 10 -7q5 -26 34 -47t70 -21q42 0 71 21t34 47q0 7 10 7h3q7 0 7 -11q0 -46 -32 -78.5t-93 -32.5zM349 -10q-129 0 -224 88t-95 232q0 100 48.5 176t122.5 113.5t158 37.5q99 0 163.5 -49.5t64.5 -102.5
q0 -23 -13.5 -37t-34.5 -14q-18 0 -30.5 10.5t-12.5 30.5q0 50 -43 91.5t-126 41.5q-102 0 -166 -67.5t-64 -183.5q0 -139 90 -235t225 -96q44 0 69 14t25 54v122q0 31 -14.5 39.5t-72.5 13.5v13l215 1v-14q-43 -5 -53 -13.5t-10 -39.5v-216q-19 17 -42.5 18.5t-45.5 -5.5
t-60 -15t-74 -8z" />
    <glyph glyph-name="gbreve" unicode="&#x11f;" horiz-adv-x="492" 
d="M251 569q-61 0 -92.5 32.5t-31.5 78.5q0 11 7 11h3q10 0 10 -7q5 -26 34 -47t70 -21q42 0 71 21t34 47q0 7 10 7h3q7 0 7 -11q0 -46 -32 -78.5t-93 -32.5zM130 165q-40 0 -40 -31q0 -28 40 -33l177 -30q75 -12 109.5 -33.5t34.5 -65.5q0 -68 -78 -111.5t-173 -43.5
q-81 0 -133 34t-52 91q0 66 78 101q9 4 4 4q-27 5 -45 24t-18 45q0 50 77 66q-68 41 -68 124q0 70 49 112t130 42q113 0 159 -74q2 72 56 72q19 0 29.5 -9.5t10.5 -21.5q0 -19 -15 -27t-31 -1q-9 2 -15 2t-9 -12t-4.5 -29t-1.5 -50q0 -72 -48 -113t-127 -41q-22 0 -51.5 4.5
t-44.5 4.5zM206 445q-48 0 -70 -32.5t-22 -79.5q0 -75 34.5 -118.5t89.5 -43.5q47 0 69.5 33t22.5 79q0 76 -34 119t-90 43zM185 33q-47 7 -77.5 -14.5t-30.5 -61.5q0 -51 45 -84t118 -33q61 0 106 31t45 88q0 40 -80 54z" />
    <glyph glyph-name="Gdotaccent" unicode="&#x120;" horiz-adv-x="649" 
d="M324 758q-15 0 -27 13t-12 29q0 14 12 26.5t27 12.5q16 0 28 -12.5t12 -26.5q0 -17 -12 -29.5t-28 -12.5zM349 -10q-129 0 -224 88t-95 232q0 100 48.5 176t122.5 113.5t158 37.5q99 0 163.5 -49.5t64.5 -102.5q0 -23 -13.5 -37t-34.5 -14q-18 0 -30.5 10.5t-12.5 30.5
q0 50 -43 91.5t-126 41.5q-102 0 -166 -67.5t-64 -183.5q0 -139 90 -235t225 -96q44 0 69 14t25 54v122q0 31 -14.5 39.5t-72.5 13.5v13l215 1v-14q-43 -5 -53 -13.5t-10 -39.5v-216q-19 17 -42.5 18.5t-45.5 -5.5t-60 -15t-74 -8z" />
    <glyph glyph-name="gdotaccent" unicode="&#x121;" horiz-adv-x="492" 
d="M251 588q-15 0 -27 13t-12 29q0 14 12 26.5t27 12.5t27.5 -12.5t12.5 -26.5q0 -17 -12 -29.5t-28 -12.5zM130 165q-40 0 -40 -31q0 -28 40 -33l177 -30q75 -12 109.5 -33.5t34.5 -65.5q0 -68 -78 -111.5t-173 -43.5q-81 0 -133 34t-52 91q0 66 78 101q9 4 4 4
q-27 5 -45 24t-18 45q0 50 77 66q-68 41 -68 124q0 70 49 112t130 42q113 0 159 -74q2 72 56 72q19 0 29.5 -9.5t10.5 -21.5q0 -19 -15 -27t-31 -1q-9 2 -15 2t-9 -12t-4.5 -29t-1.5 -50q0 -72 -48 -113t-127 -41q-22 0 -51.5 4.5t-44.5 4.5zM206 445q-48 0 -70 -32.5
t-22 -79.5q0 -75 34.5 -118.5t89.5 -43.5q47 0 69.5 33t22.5 79q0 76 -34 119t-90 43zM185 33q-47 7 -77.5 -14.5t-30.5 -61.5q0 -51 45 -84t118 -33q61 0 106 31t45 88q0 40 -80 54z" />
    <glyph glyph-name="uni0122" unicode="&#x122;" horiz-adv-x="649" 
d="M349 -10q-129 0 -224 88t-95 232q0 100 48.5 176t122.5 113.5t158 37.5q99 0 163.5 -49.5t64.5 -102.5q0 -23 -13.5 -37t-34.5 -14q-18 0 -30.5 10.5t-12.5 30.5q0 50 -43 91.5t-126 41.5q-102 0 -166 -67.5t-64 -183.5q0 -139 90 -235t225 -96q44 0 69 14t25 54v122
q0 31 -14.5 39.5t-72.5 13.5v13l215 1v-14q-43 -5 -53 -13.5t-10 -39.5v-216q-19 17 -42.5 18.5t-45.5 -5.5t-60 -15t-74 -8zM317 -276l-8 10q11 10 20.5 27.5t9.5 28.5q0 17 -15 17q-18 0 -31 12.5t-13 32.5q0 21 14 33t33 12q25 0 38 -19t13 -45q0 -29 -15.5 -60
t-45.5 -49z" />
    <glyph glyph-name="uni0123" unicode="&#x123;" horiz-adv-x="492" 
d="M251 557q-25 0 -38.5 19t-13.5 45q0 29 16 60t45 49l9 -10q-11 -10 -20.5 -27.5t-9.5 -28.5q0 -18 15 -18q18 0 30.5 -12t12.5 -32q0 -21 -14 -33t-32 -12zM130 165q-40 0 -40 -31q0 -28 40 -33l177 -30q75 -12 109.5 -33.5t34.5 -65.5q0 -68 -78 -111.5t-173 -43.5
q-81 0 -133 34t-52 91q0 66 78 101q9 4 4 4q-27 5 -45 24t-18 45q0 50 77 66q-68 41 -68 124q0 70 49 112t130 42q113 0 159 -74q2 72 56 72q19 0 29.5 -9.5t10.5 -21.5q0 -19 -15 -27t-31 -1q-9 2 -15 2t-9 -12t-4.5 -29t-1.5 -50q0 -72 -48 -113t-127 -41q-22 0 -51.5 4.5
t-44.5 4.5zM206 445q-48 0 -70 -32.5t-22 -79.5q0 -75 34.5 -118.5t89.5 -43.5q47 0 69.5 33t22.5 79q0 76 -34 119t-90 43zM185 33q-47 7 -77.5 -14.5t-30.5 -61.5q0 -51 45 -84t118 -33q61 0 106 31t45 88q0 40 -80 54z" />
    <glyph glyph-name="Hbar" unicode="&#x126;" horiz-adv-x="668" 
d="M638 607q-18 -4 -25.5 -6t-16.5 -7t-11.5 -13t-2.5 -21v-499q0 -13 2.5 -21t11.5 -13t16.5 -7t25.5 -6v-14h-181v14q18 4 25.5 6t16.5 7t11.5 13t2.5 21v202q0 19 -7 27t-23 8h-298q-31 0 -31 -35v-202q0 -13 3 -21t12 -13t16 -7t25 -6v-14h-180v14q18 4 25.5 6t16.5 7
t11.5 13t2.5 21v499q0 13 -2.5 21t-11.5 13t-16.5 7t-25.5 6v14h180v-14q-18 -4 -25 -6t-16 -7t-12 -13t-3 -21v-87q0 -35 32 -35h296q17 0 24 8t7 27v87q0 13 -2.5 21t-11.5 13t-16.5 7t-25.5 6v14h181v-14zM513 355v26q0 19 -7 27t-23 8h-298q-31 0 -31 -35v-26
q0 -35 32 -35h296q17 0 24 8t7 27z" />
    <glyph glyph-name="hbar" unicode="&#x127;" horiz-adv-x="523" 
d="M454 63q0 -54 49 -40v-12q-32 -16 -54 -16q-27 0 -41 13.5t-14 47.5v228q0 57 -35 97t-89 40q-55 0 -92 -40.5t-37 -96.5v-221q0 -24 14 -34.5t51 -15.5v-13h-189v13q36 5 50 15.5t14 34.5v460h-66v20h66v20q0 36 -11.5 48.5t-54.5 8.5v12l95 24q14 4 22.5 -3t8.5 -23
v-87h193v-20h-193v-94q0 -46 11 -46q4 0 9 5q1 0 8 8t14 14.5t20.5 16t27.5 16t34.5 11t41.5 4.5q62 0 104.5 -40.5t42.5 -114.5v-240z" />
    <glyph glyph-name="Imacron" unicode="&#x12a;" horiz-adv-x="240" 
d="M277 782q9 0 11.5 -2.5t2.5 -9.5q0 -11 -14 -11h-295q-14 0 -14 11q0 7 2.5 9.5t11.5 2.5h295zM-32 768v4v-2v-2zM291 772v-4v2v2zM30 607v14h180v-14q-18 -4 -25 -6t-16 -7t-12 -13t-3 -21v-499q0 -13 3 -21t12 -13t16 -7t25 -6v-14h-180v14q18 4 25.5 6t16.5 7t11.5 13
t2.5 21v499q0 13 -2.5 21t-11.5 13t-16.5 7t-25.5 6z" />
    <glyph glyph-name="imacron" unicode="&#x12b;" horiz-adv-x="241" 
d="M268 612q9 0 11.5 -2.5t2.5 -9.5q0 -11 -14 -11h-295q-14 0 -14 11q0 7 2.5 9.5t11.5 2.5h295zM-41 598v4v-2v-2zM282 602v-4v2v2zM151 63q0 -24 14 -34.5t51 -15.5v-13h-189v13q36 5 50 15.5t14 34.5v300q0 37 -11.5 50t-54.5 9v12l95 24q14 4 22.5 -3t8.5 -23v-369z
" />
    <glyph glyph-name="Iogonek" unicode="&#x12e;" horiz-adv-x="240" 
d="M210 607q-18 -4 -25 -6t-16 -7t-12 -13t-3 -21v-499q0 -13 3 -21t12 -13t16 -7t25 -6v-14h-87q-68 -47 -68 -111q0 -24 17 -37.5t37 -13.5q58 0 85 53h15q-36 -85 -109 -85q-36 0 -67 21.5t-31 55.5q0 66 93 117h-65v14q18 4 25.5 6t16.5 7t11.5 13t2.5 21v499
q0 13 -2.5 21t-11.5 13t-16.5 7t-25.5 6v14h180v-14z" />
    <glyph glyph-name="iogonek" unicode="&#x12f;" horiz-adv-x="241" 
d="M109 588q-15 0 -27 13t-12 29q0 14 12 26.5t27 12.5t27.5 -12.5t12.5 -26.5q0 -17 -12 -29.5t-28 -12.5zM118 0q-68 -47 -68 -111q0 -24 17 -37.5t37 -13.5q58 0 85 53h15q-36 -85 -109 -85q-36 0 -67 21.5t-31 55.5q0 66 93 117h-63v13q36 5 50 15.5t14 34.5v300
q0 37 -11.5 50t-54.5 9v12l95 24q14 4 22.5 -3t8.5 -23v-369q0 -24 14 -34.5t51 -15.5v-13h-98z" />
    <glyph glyph-name="Idotaccent" unicode="&#x130;" horiz-adv-x="240" 
d="M118 758q-15 0 -27 13t-12 29q0 14 12 26.5t27 12.5q16 0 28 -12.5t12 -26.5q0 -17 -12 -29.5t-28 -12.5zM30 0v14q18 4 25.5 6t16.5 7t11.5 13t2.5 21v499q0 13 -2.5 21t-11.5 13t-16.5 7t-25.5 6v14h180v-14q-18 -4 -25 -6t-16 -7t-12 -13t-3 -21v-499q0 -13 3 -21
t12 -13t16 -7t25 -6v-14h-180z" />
    <glyph glyph-name="dotlessi" unicode="&#x131;" horiz-adv-x="241" 
d="M27 0v13q36 5 50 15.5t14 34.5v300q0 37 -11.5 50t-54.5 9v12l95 24q14 4 22.5 -3t8.5 -23v-369q0 -24 14 -34.5t51 -15.5v-13h-189z" />
    <glyph glyph-name="IJ" unicode="&#x132;" horiz-adv-x="542" 
d="M30 0v14q18 4 25.5 6t16.5 7t11.5 13t2.5 21v499q0 13 -2.5 21t-11.5 13t-16.5 7t-25.5 6v14h180v-14q-18 -4 -25 -6t-16 -7t-12 -13t-3 -21v-499q0 -13 3 -21t12 -13t16 -7t25 -6v-14h-180zM346 -10q-53 0 -77 22t-24 50q0 44 37 44q36 0 36 -40q0 -19 7.5 -38t25.5 -19
t27 19t9 46v486q0 18 -7.5 27t-18.5 12t-39 8v14h190v-14q-18 -4 -25.5 -6t-16.5 -7t-11.5 -13t-2.5 -21v-439q0 -66 -25.5 -98.5t-84.5 -32.5z" />
    <glyph glyph-name="ij" unicode="&#x133;" horiz-adv-x="444" 
d="M112 588q-15 0 -27 13t-12 29q0 14 12 26.5t27 12.5q16 0 28 -12.5t12 -26.5q0 -17 -12 -29.5t-28 -12.5zM340 588q-15 0 -27 13t-12 29q0 14 12 26.5t27 12.5q16 0 28 -12.5t12 -26.5q0 -17 -12 -29.5t-28 -12.5zM27 0v13q36 5 50 15.5t14 34.5v300q0 37 -11.5 50
t-54.5 9v12l95 24q14 4 22.5 -3t8.5 -23v-369q0 -24 14 -34.5t51 -15.5v-13h-189zM270 -199q-33 0 -56.5 14.5t-23.5 38.5q0 33 33 33q9 0 20.5 -16.5t25 -32.5t27.5 -16q23 0 23 52v489q0 37 -11.5 50t-54.5 9v12l95 24q14 4 22.5 -3t8.5 -23v-502q0 -60 -28.5 -94.5
t-80.5 -34.5z" />
    <glyph glyph-name="uni0136" unicode="&#x136;" horiz-adv-x="604" 
d="M472 91q9 -11 18 -20.5t17 -16.5t14 -12.5t13.5 -9.5t11 -6.5t11 -4.5t9.5 -3t9.5 -2.5t8.5 -1.5v-14h-187v14q25 -1 33.5 10.5t-12.5 38.5l-189 218q-17 18 -47 -11l-8 -7q-19 -17 -20 -42v-160q0 -13 3 -21t12 -13t16 -7t25 -6v-14h-180v14q18 4 25.5 6t16.5 7t11.5 13
t2.5 21v499q0 13 -2.5 21t-11.5 13t-16.5 7t-25.5 6v14h180v-14q-18 -4 -25 -6t-16 -7t-12 -13t-3 -21v-287l267 271q15 15 18 27.5t-4.5 19.5t-17 11t-20.5 5v14h168v-14q-28 -3 -54 -15.5t-65 -51.5l-178 -182q-3 -4 -4.5 -7t-1 -7t1 -6.5t4 -7t4.5 -6t5.5 -6l5.5 -5.5z
M302 -103q25 0 38 -19t13 -45q0 -29 -15.5 -60t-45.5 -49l-8 10q11 10 20.5 27.5t9.5 28.5q0 17 -15 17q-18 0 -31 12.5t-13 32.5q0 21 14 33t33 12z" />
    <glyph glyph-name="uni0137" unicode="&#x137;" horiz-adv-x="481" 
d="M406 59q8 -11 15 -18.5t11.5 -12t11.5 -7.5t10 -3.5t13 -2t14 -2.5v-13h-158v13q30 5 33 10.5t-12 28.5l-141 192q-4 4 -23 -12q-39 -30 -39 -61v-108q0 -24 14 -34.5t51 -15.5v-13h-189v13q36 5 50 15.5t14 34.5v500q0 36 -11.5 48.5t-54.5 8.5v12l95 24q14 4 22.5 -3
t8.5 -23v-376q0 -12 6.5 -15t14.5 3l173 159q30 28 -36 37v13h138v-13q-16 -2 -27.5 -6.5t-15.5 -7.5t-15 -13t-16 -14l-124 -112zM260 -103q25 0 38 -19t13 -45q0 -29 -15.5 -60t-45.5 -49l-8 10q11 10 20.5 27.5t9.5 28.5q0 17 -15 17q-18 0 -31 12.5t-13 32.5q0 21 14 33
t33 12z" />
    <glyph glyph-name="Lacute" unicode="&#x139;" horiz-adv-x="542" 
d="M107 719q-11 -10 -11 -20q3 -8 27 5l115 70q12 7 18.5 15.5t7 15.5t-1 12t-4.5 9q-21 25 -50 -4zM30 0v14q18 4 25.5 6t16.5 7t11.5 13t2.5 21v499q0 13 -2.5 21t-11.5 13t-16.5 7t-25.5 6v14h180v-14q-18 -4 -25 -6t-16 -7t-12 -13t-3 -21v-499q0 -45 48 -44l182 9
q71 3 105 61l15 28h18l-22 -65q-11 -30 -10 -50h-460z" />
    <glyph glyph-name="lacute" unicode="&#x13a;" horiz-adv-x="216" 
d="M85 719q-11 -10 -11 -20q3 -8 27 5l115 70q12 7 18.5 15.5t7 15.5t-1 12t-4.5 9q-21 25 -50 -4zM136 -5q-31 0 -45.5 15t-14.5 57v496q0 36 -11.5 48.5t-54.5 8.5v12l95 24q14 4 22.5 -3t8.5 -23v-565q0 -54 65 -35v-14q-33 -21 -65 -21z" />
    <glyph glyph-name="uni013B" unicode="&#x13b;" horiz-adv-x="542" 
d="M30 0v14q18 4 25.5 6t16.5 7t11.5 13t2.5 21v499q0 13 -2.5 21t-11.5 13t-16.5 7t-25.5 6v14h180v-14q-18 -4 -25 -6t-16 -7t-12 -13t-3 -21v-499q0 -45 48 -44l182 9q71 3 105 61l15 28h18l-22 -65q-11 -30 -10 -50h-460zM299 -276l-8 10q11 10 20.5 27.5t9.5 28.5
q0 17 -15 17q-18 0 -31 12.5t-13 32.5q0 21 14 33t33 12q25 0 38 -19t13 -45q0 -29 -15.5 -60t-45.5 -49z" />
    <glyph glyph-name="uni013C" unicode="&#x13c;" horiz-adv-x="216" 
d="M136 -5q-31 0 -45.5 15t-14.5 57v496q0 36 -11.5 48.5t-54.5 8.5v12l95 24q14 4 22.5 -3t8.5 -23v-565q0 -54 65 -35v-14q-33 -21 -65 -21zM141 -276l-8 10q11 10 20.5 27.5t9.5 28.5q0 17 -15 17q-18 0 -31 12.5t-13 32.5q0 21 14 33t33 12q25 0 38 -19t13 -45
q0 -29 -15.5 -60t-45.5 -49z" />
    <glyph glyph-name="Lcaron" unicode="&#x13d;" horiz-adv-x="542" 
d="M311 460l-9 10q11 10 20.5 27.5t9.5 28.5q0 17 -15 17q-18 0 -31 12.5t-13 32.5q0 21 14 33t33 12q25 0 38.5 -19t13.5 -45q0 -29 -16 -60t-45 -49zM30 0v14q18 4 25.5 6t16.5 7t11.5 13t2.5 21v499q0 13 -2.5 21t-11.5 13t-16.5 7t-25.5 6v14h180v-14q-18 -4 -25 -6
t-16 -7t-12 -13t-3 -21v-499q0 -45 48 -44l182 9q71 3 105 61l15 28h18l-22 -65q-11 -30 -10 -50h-460z" />
    <glyph glyph-name="lcaron" unicode="&#x13e;" horiz-adv-x="231" 
d="M188 487q-4 0 -8.5 4t-4.5 8v131q0 12 8 21t21 9q17 0 26.5 -10.5t2.5 -32.5l-35 -117q-5 -13 -10 -13zM136 -5q-31 0 -45.5 15t-14.5 57v496q0 36 -11.5 48.5t-54.5 8.5v12l95 24q14 4 22.5 -3t8.5 -23v-565q0 -54 65 -35v-14q-33 -21 -65 -21z" />
    <glyph glyph-name="Ldot" unicode="&#x13f;" horiz-adv-x="542" 
d="M30 0v14q18 4 25.5 6t16.5 7t11.5 13t2.5 21v499q0 13 -2.5 21t-11.5 13t-16.5 7t-25.5 6v14h180v-14q-18 -4 -25 -6t-16 -7t-12 -13t-3 -21v-499q0 -45 48 -44l182 9q71 3 105 61l15 28h18l-22 -65q-11 -30 -10 -50h-460zM306 290q-19 0 -33 14t-14 34q0 19 14 33.5
t33 14.5q20 0 34 -14t14 -34t-14 -34t-34 -14z" />
    <glyph glyph-name="ldot" unicode="&#x140;" horiz-adv-x="259" 
d="M136 -5q-31 0 -45.5 15t-14.5 57v496q0 36 -11.5 48.5t-54.5 8.5v12l95 24q14 4 22.5 -3t8.5 -23v-565q0 -54 65 -35v-14q-33 -21 -65 -21zM241 301q-19 0 -33 14t-14 34t14 34t33 14t33.5 -14.5t14.5 -33.5t-14.5 -33.5t-33.5 -14.5z" />
    <glyph glyph-name="Lslash" unicode="&#x141;" horiz-adv-x="552" 
d="M532 115l-23 -65q-11 -30 -10 -50h-460v14q18 4 25.5 6t16.5 7t11.5 13t2.5 21v232l-65 -36v19l65 36v248q0 13 -2.5 21t-11.5 13t-16.5 7t-25.5 6v14h181v-14q-18 -4 -25.5 -6t-16.5 -7t-11.5 -13t-2.5 -21v-209l96 53v-20l-96 -53v-270q0 -45 48 -44l181 9q73 4 105 61
l16 28h18z" />
    <glyph glyph-name="lslash" unicode="&#x142;" horiz-adv-x="215" 
d="M200 374l-65 -40v-269q0 -54 65 -35v-14q-33 -21 -65 -21q-31 0 -45.5 15t-14.5 57v230l-65 -40v19l65 40v247q0 36 -11.5 48.5t-54.5 8.5v12l95 24q14 4 22.5 -3t8.5 -23v-276l65 40v-20z" />
    <glyph glyph-name="Nacute" unicode="&#x143;" horiz-adv-x="625" 
d="M312 704q-24 -13 -27 -5q0 10 11 20l101 103q29 29 50 4q3 -4 4.5 -9t1 -12t-7 -15.5t-18.5 -15.5zM460 621h135v-14q-18 -4 -25 -6t-16 -7t-12 -13t-3 -21v-560h-25l-403 554v-493q0 -13 2.5 -21t11 -13t15 -7t23.5 -6v-14h-133v14q18 4 25.5 6t16.5 7t11.5 13t2.5 21
v499q0 13 -2.5 21t-11.5 13t-16.5 7t-25.5 6v14h114l370 -509v448q0 17 -7 26.5t-15.5 12.5t-31.5 8v14z" />
    <glyph glyph-name="nacute" unicode="&#x144;" horiz-adv-x="533" 
d="M252 549q-11 -10 -11 -20q3 -8 27 5l115 70q12 7 18.5 15.5t7 15.5t-1 12t-4.5 9q-21 25 -50 -4zM459 -5q-27 0 -41 13.5t-14 47.5v228q0 61 -32.5 100t-91.5 39q-55 0 -92 -41t-37 -98v-221q0 -24 14 -34.5t51 -15.5v-13h-189v13q36 5 50 15.5t14 34.5v300
q0 37 -11.5 50t-54.5 9v12l95 24q14 4 22.5 -3.5t8.5 -25.5q0 -46 11 -46q4 0 9 5q62 70 146 70q62 0 104.5 -40.5t42.5 -114.5v-240q0 -54 49 -40v-12q-32 -16 -54 -16z" />
    <glyph glyph-name="uni0145" unicode="&#x145;" horiz-adv-x="625" 
d="M460 621h135v-14q-18 -4 -25 -6t-16 -7t-12 -13t-3 -21v-560h-25l-403 554v-493q0 -13 2.5 -21t11 -13t15 -7t23.5 -6v-14h-133v14q18 4 25.5 6t16.5 7t11.5 13t2.5 21v499q0 13 -2.5 21t-11.5 13t-16.5 7t-25.5 6v14h114l370 -509v448q0 17 -7 26.5t-15.5 12.5t-31.5 8
v14zM313 -103q25 0 38 -19t13 -45q0 -29 -15.5 -60t-45.5 -49l-8 10q11 10 20.5 27.5t9.5 28.5q0 17 -15 17q-18 0 -31 12.5t-13 32.5q0 21 14 33t33 12z" />
    <glyph glyph-name="uni0146" unicode="&#x146;" horiz-adv-x="533" 
d="M459 -5q-27 0 -41 13.5t-14 47.5v228q0 61 -32.5 100t-91.5 39q-55 0 -92 -41t-37 -98v-221q0 -24 14 -34.5t51 -15.5v-13h-189v13q36 5 50 15.5t14 34.5v300q0 37 -11.5 50t-54.5 9v12l95 24q14 4 22.5 -3.5t8.5 -25.5q0 -46 11 -46q4 0 9 5q62 70 146 70
q62 0 104.5 -40.5t42.5 -114.5v-240q0 -54 49 -40v-12q-32 -16 -54 -16zM259 -276l-8 10q11 10 20.5 27.5t9.5 28.5q0 17 -15 17q-18 0 -31 12.5t-13 32.5q0 21 14 33t33 12q25 0 38 -19t13 -45q0 -29 -15.5 -60t-45.5 -49z" />
    <glyph glyph-name="Ncaron" unicode="&#x147;" horiz-adv-x="625" 
d="M422 839l-111 -127l-110 127l6 9l104 -75l105 75zM460 621h135v-14q-18 -4 -25 -6t-16 -7t-12 -13t-3 -21v-560h-25l-403 554v-493q0 -13 2.5 -21t11 -13t15 -7t23.5 -6v-14h-133v14q18 4 25.5 6t16.5 7t11.5 13t2.5 21v499q0 13 -2.5 21t-11.5 13t-16.5 7t-25.5 6v14
h114l370 -509v448q0 17 -7 26.5t-15.5 12.5t-31.5 8v14z" />
    <glyph glyph-name="ncaron" unicode="&#x148;" horiz-adv-x="533" 
d="M267 542l-110 127l6 9l104 -75l105 75l6 -9zM459 -5q-27 0 -41 13.5t-14 47.5v228q0 61 -32.5 100t-91.5 39q-55 0 -92 -41t-37 -98v-221q0 -24 14 -34.5t51 -15.5v-13h-189v13q36 5 50 15.5t14 34.5v300q0 37 -11.5 50t-54.5 9v12l95 24q14 4 22.5 -3.5t8.5 -25.5
q0 -46 11 -46q4 0 9 5q62 70 146 70q62 0 104.5 -40.5t42.5 -114.5v-240q0 -54 49 -40v-12q-32 -16 -54 -16z" />
    <glyph glyph-name="Eng" unicode="&#x14a;" horiz-adv-x="625" 
d="M460 621h135v-14q-18 -4 -25 -6t-16 -7t-12 -13t-3 -21v-566q0 -128 -126 -128q-45 0 -67.5 23.5t-22.5 45.5q0 44 41 44q36 0 36 -41q0 -17 10 -34t29 -17q35 0 35 60v108l-363 499v-493q0 -13 2.5 -21t11 -13t15 -7t23.5 -6v-14h-133v14q18 4 25.5 6t16.5 7t11.5 13
t2.5 21v499q0 13 -2.5 21t-11.5 13t-16.5 7t-25.5 6v14h114l370 -509v448q0 17 -7 26.5t-15.5 12.5t-31.5 8v14z" />
    <glyph glyph-name="eng" unicode="&#x14b;" horiz-adv-x="529" 
d="M355 -188q-34 0 -57 14.5t-23 39.5q0 32 33 32q9 0 20.5 -16t25 -32t27.5 -16q23 0 23 52v398q0 61 -32.5 100t-91.5 39q-55 0 -92 -41t-37 -98v-221q0 -24 14 -34.5t51 -15.5v-13h-189v13q36 5 50 15.5t14 34.5v300q0 37 -11.5 50t-54.5 9v12l95 24q14 4 22.5 -3.5
t8.5 -25.5q0 -46 11 -46q4 0 9 5q62 70 146 70q62 0 104.5 -40.5t42.5 -114.5v-361q0 -61 -28.5 -95.5t-80.5 -34.5z" />
    <glyph glyph-name="Omacron" unicode="&#x14c;" horiz-adv-x="693" 
d="M200 759q-14 0 -14 11q0 7 2.5 9.5t11.5 2.5h295q9 0 11.5 -2.5t2.5 -9.5q0 -11 -14 -11h-295zM186 772v-2v-2v4zM509 772v-4v2v2zM351 637q137 0 224.5 -92t87.5 -226q0 -137 -92 -233t-229 -96q-136 0 -224 92t-88 226q0 137 92 233t229 96zM361 15q93 0 160 68t67 208
q0 142 -75 232t-182 90q-92 0 -159 -68t-67 -207q0 -143 74.5 -233t181.5 -90z" />
    <glyph glyph-name="omacron" unicode="&#x14d;" horiz-adv-x="520" 
d="M124 589q-14 0 -14 11q0 7 2.5 9.5t11.5 2.5h295q9 0 11.5 -2.5t2.5 -9.5q0 -11 -14 -11h-295zM110 602v-2v-2v4zM433 602v-4v2v2zM263 460q94 0 160.5 -64t66.5 -166t-68 -169t-164 -67q-94 0 -161 64t-67 166t68.5 169t164.5 67zM284 15q65 0 104.5 46.5t39.5 136.5
q0 100 -55 170.5t-137 70.5q-64 0 -104 -46.5t-40 -136.5q0 -99 55 -170t137 -71z" />
    <glyph glyph-name="Ohungarumlaut" unicode="&#x150;" horiz-adv-x="693" 
d="M250 719q-13 -12 -11 -20q2 -9 26 5l116 70q38 23 20 52q-23 23 -50 -4zM404 719q-11 -10 -11 -20q3 -8 27 5l115 70q12 7 18.5 15.5t7 15.5t-1 12t-4.5 9q-20 25 -49 -4zM342 -10q-136 0 -224 92t-88 226q0 137 92 233t229 96t224.5 -92t87.5 -226q0 -137 -92 -233
t-229 -96zM361 15q93 0 160 68t67 208q0 142 -75 232t-182 90q-92 0 -159 -68t-67 -207q0 -143 74.5 -233t181.5 -90z" />
    <glyph glyph-name="ohungarumlaut" unicode="&#x151;" horiz-adv-x="520" 
d="M174 549q-13 -12 -11 -20q2 -9 26 5l116 70q38 23 20 52q-23 23 -50 -4zM328 549q-11 -10 -11 -20q3 -8 27 5l115 70q12 7 18.5 15.5t7 15.5t-1 12t-4.5 9q-20 25 -49 -4zM258 -6q-94 0 -161 64t-67 166t68.5 169t164.5 67q94 0 160.5 -64t66.5 -166t-68 -169t-164 -67z
M284 15q65 0 104.5 46.5t39.5 136.5q0 100 -55 170.5t-137 70.5q-64 0 -104 -46.5t-40 -136.5q0 -99 55 -170t137 -71z" />
    <glyph glyph-name="OE" unicode="&#x152;" horiz-adv-x="944" 
d="M906 115h18q-23 -45 -30 -101q-2 -14 -16 -14h-451v1q-42 -11 -85 -11q-136 0 -224 92t-88 226q0 137 92 233t229 96q58 0 105 -16h409q15 0 16 -13q7 -52 19 -102h-18q-30 89 -129 89h-141q-33 0 -47 -7t-14 -31v-189q0 -24 14 -31t47 -7h116q39 0 54 16.5t22 52.5h13
v-167h-13q-7 37 -22 54t-54 17h-116q-33 0 -47 -7t-14 -31v-200q0 -25 21 -32.5t85 -5.5l116 1q36 0 59.5 8t32 17t17.5 24zM482 61v499q0 17 -7 26.5t-16 12.5t-32 8v1q-40 5 -96 5q-92 0 -159 -68t-67 -207q0 -143 74.5 -233t181.5 -90q16 0 48 1.5t37 1.5q19 5 27.5 13.5
t8.5 29.5z" />
    <glyph glyph-name="oe" unicode="&#x153;" horiz-adv-x="861" 
d="M817 101l13 -10q-20 -34 -65.5 -65t-109.5 -31q-63 0 -115.5 30t-81.5 83q-30 -53 -83.5 -83.5t-116.5 -30.5q-94 0 -161 64t-67 166t68.5 169t164.5 67q62 0 114.5 -29.5t81.5 -81.5q30 53 82.5 82.5t113.5 29.5q77 0 124 -43t47 -104q0 -41 -41.5 -58t-145.5 -19
l-121 -2q-14 1 -19.5 -6.5t-5.5 -23.5q15 -74 69.5 -118t129.5 -44q82 0 125 58zM639 444q-63 0 -101 -38t-47 -106q-2 -30 4.5 -38.5t23.5 -8.5l105 2q74 1 104.5 17.5t30.5 51.5q0 56 -31 88t-89 32zM284 15q65 0 104.5 46.5t39.5 136.5q0 100 -55 170.5t-137 70.5
q-64 0 -104 -46.5t-40 -136.5q0 -99 55 -170t137 -71z" />
    <glyph glyph-name="Racute" unicode="&#x154;" horiz-adv-x="583" 
d="M270 719q-11 -10 -11 -20q3 -8 27 5l115 70q12 7 18.5 15.5t7 15.5t-1 12t-4.5 9q-21 25 -50 -4zM30 0v14q18 4 25.5 6t16.5 7t11.5 13t2.5 21v499q0 13 -2.5 21t-11.5 13t-16.5 7t-25.5 6v14h245q116 0 173.5 -43.5t57.5 -123.5q0 -61 -32.5 -97t-100.5 -57q-11 -5 0 -8
q42 -12 66.5 -46t32.5 -70q28 -97 46.5 -129.5t44.5 -32.5v-14h-12q-63 0 -94.5 38t-49.5 115q-19 73 -60 103.5t-113 30.5q-48 0 -64 -12t-16 -41v-173q0 -18 8 -27t19 -12t39 -8v-14h-190zM209 309h86q142 0 142 142q0 71 -35.5 109.5t-117.5 38.5h-93q-19 0 -28 -7
t-9 -32v-198q0 -28 12.5 -40.5t42.5 -12.5z" />
    <glyph glyph-name="racute" unicode="&#x155;" horiz-adv-x="404" 
d="M154 549q-11 -10 -11 -20q3 -8 27 5l115 70q12 7 18.5 15.5t7 15.5t-1 12t-4.5 9q-21 25 -50 -4zM27 0v13q36 5 50 15.5t14 34.5v300q0 37 -11.5 50t-54.5 9v12l95 24q14 4 22.5 -3.5t8.5 -25.5q0 -42 9 -42q3 0 9 6l9 9q10 10 20.5 18t26 17.5t36.5 15t43 5.5
q85 0 85 -73q0 -16 -10.5 -27.5t-26.5 -11.5q-15 0 -24 8.5t-9 19.5q0 19 -14.5 33.5t-40.5 14.5q-48 0 -80.5 -43t-32.5 -111v-205q0 -24 14.5 -34.5t51.5 -15.5v-13h-190z" />
    <glyph glyph-name="uni0156" unicode="&#x156;" horiz-adv-x="583" 
d="M30 0v14q18 4 25.5 6t16.5 7t11.5 13t2.5 21v499q0 13 -2.5 21t-11.5 13t-16.5 7t-25.5 6v14h245q116 0 173.5 -43.5t57.5 -123.5q0 -61 -32.5 -97t-100.5 -57q-11 -5 0 -8q42 -12 66.5 -46t32.5 -70q28 -97 46.5 -129.5t44.5 -32.5v-14h-12q-63 0 -94.5 38t-49.5 115
q-19 73 -60 103.5t-113 30.5q-48 0 -64 -12t-16 -41v-173q0 -18 8 -27t19 -12t39 -8v-14h-190zM209 309h86q142 0 142 142q0 71 -35.5 109.5t-117.5 38.5h-93q-19 0 -28 -7t-9 -32v-198q0 -28 12.5 -40.5t42.5 -12.5zM301 -276l-8 10q11 10 20.5 27.5t9.5 28.5q0 17 -15 17
q-18 0 -31 12.5t-13 32.5q0 21 14 33t33 12q25 0 38 -19t13 -45q0 -29 -15.5 -60t-45.5 -49z" />
    <glyph glyph-name="uni0157" unicode="&#x157;" horiz-adv-x="404" 
d="M27 0v13q36 5 50 15.5t14 34.5v300q0 37 -11.5 50t-54.5 9v12l95 24q14 4 22.5 -3.5t8.5 -25.5q0 -42 9 -42q3 0 9 6l9 9q10 10 20.5 18t26 17.5t36.5 15t43 5.5q85 0 85 -73q0 -16 -10.5 -27.5t-26.5 -11.5q-15 0 -24 8.5t-9 19.5q0 19 -14.5 33.5t-40.5 14.5
q-48 0 -80.5 -43t-32.5 -111v-205q0 -24 14.5 -34.5t51.5 -15.5v-13h-190zM115 -276l-8 10q11 10 20.5 27.5t9.5 28.5q0 17 -15 17q-18 0 -31 12.5t-13 32.5q0 21 14 33t33 12q25 0 38 -19t13 -45q0 -29 -15.5 -60t-45.5 -49z" />
    <glyph glyph-name="Rcaron" unicode="&#x158;" horiz-adv-x="583" 
d="M284 712l-110 127l6 9l104 -75l105 75l6 -9zM30 0v14q18 4 25.5 6t16.5 7t11.5 13t2.5 21v499q0 13 -2.5 21t-11.5 13t-16.5 7t-25.5 6v14h245q116 0 173.5 -43.5t57.5 -123.5q0 -61 -32.5 -97t-100.5 -57q-11 -5 0 -8q42 -12 66.5 -46t32.5 -70q28 -97 46.5 -129.5
t44.5 -32.5v-14h-12q-63 0 -94.5 38t-49.5 115q-19 73 -60 103.5t-113 30.5q-48 0 -64 -12t-16 -41v-173q0 -18 8 -27t19 -12t39 -8v-14h-190zM209 309h86q142 0 142 142q0 71 -35.5 109.5t-117.5 38.5h-93q-19 0 -28 -7t-9 -32v-198q0 -28 12.5 -40.5t42.5 -12.5z" />
    <glyph glyph-name="rcaron" unicode="&#x159;" horiz-adv-x="404" 
d="M168 542l-111 127l6 9l105 -75l104 75l6 -9zM27 0v13q36 5 50 15.5t14 34.5v300q0 37 -11.5 50t-54.5 9v12l95 24q14 4 22.5 -3.5t8.5 -25.5q0 -42 9 -42q3 0 9 6l9 9q10 10 20.5 18t26 17.5t36.5 15t43 5.5q85 0 85 -73q0 -16 -10.5 -27.5t-26.5 -11.5q-15 0 -24 8.5
t-9 19.5q0 19 -14.5 33.5t-40.5 14.5q-48 0 -80.5 -43t-32.5 -111v-205q0 -24 14.5 -34.5t51.5 -15.5v-13h-190z" />
    <glyph glyph-name="Sacute" unicode="&#x15a;" horiz-adv-x="503" 
d="M225 719q-11 -10 -11 -20q3 -8 27 5l115 70q12 7 18.5 15.5t7 15.5t-1 12t-4.5 9q-21 25 -50 -4zM227 -10q-56 0 -93 11t-80 36q-13 33 -17 67t0.5 54.5t15.5 20.5t13 -7q23 -75 77 -116.5t127 -40.5q58 1 94 30t36 88q0 19 -4.5 35t-9 27t-18.5 22.5t-20.5 17.5
t-27.5 15t-27.5 11.5t-33 11.5t-31.5 11q-96 33 -144.5 76t-48.5 114q0 70 56.5 116.5t160.5 46.5q86 0 163 -44q13 -33 17 -67t-0.5 -54.5t-15.5 -20.5q-10 0 -13 7q-24 75 -73.5 115.5t-112.5 40.5q-60 0 -88.5 -34t-28.5 -85q0 -59 37.5 -91t110.5 -59q7 -3 31 -11
t34 -12t32 -13t33 -16t28 -18t26 -22t18.5 -25.5t13.5 -31.5t4 -37q0 -83 -69 -126t-172 -43z" />
    <glyph glyph-name="sacute" unicode="&#x15b;" horiz-adv-x="405" 
d="M184 549q-11 -10 -11 -20q3 -8 27 5l115 70q12 7 18.5 15.5t7 15.5t-1 12t-4.5 9q-21 25 -50 -4zM186 -6q-64 0 -112.5 28.5t-48.5 82.5q0 45 34 45q12 0 21.5 -9t9.5 -18q0 -56 36.5 -84t85.5 -28q101 0 101 85q0 19 -9.5 35t-19 25t-34 20t-33 14t-38.5 12
q-61 19 -100.5 49.5t-39.5 84.5q0 55 44 89.5t120 34.5q69 0 114.5 -27.5t45.5 -73.5q0 -18 -10 -30.5t-28 -12.5q-29 0 -29 34q0 39 -33.5 66t-75.5 27q-45 0 -65.5 -19.5t-20.5 -58.5q0 -24 7.5 -41.5t26 -29.5t34 -19t46.5 -18q33 -11 46 -15.5t41.5 -18t41.5 -25.5
t24.5 -32.5t11.5 -44.5q0 -53 -54.5 -90t-139.5 -37z" />
    <glyph glyph-name="Scedilla" unicode="&#x15e;" horiz-adv-x="503" 
d="M468 159q0 -74 -55 -116t-141 -51l-19 -41q37 13 72 -7t35 -59q0 -36 -30 -58.5t-71 -22.5q-48 0 -73 16t-25 40q0 21 15.5 27.5t31.5 -7.5q0 -65 43 -65q29 0 47 21.5t18 50.5q0 23 -14 39t-38 16q-14 0 -28 -5t-19 -5q-15 0 -5 21l18 37h-3q-56 0 -93 11t-80 36
q-13 33 -17 67t0.5 54.5t15.5 20.5t13 -7q23 -75 77 -116.5t127 -40.5q58 1 94 30t36 88q0 19 -4.5 35t-9 27t-18.5 22.5t-20.5 17.5t-27.5 15t-27.5 11.5t-33 11.5t-31.5 11q-96 33 -144.5 76t-48.5 114q0 70 56.5 116.5t160.5 46.5q86 0 163 -44q13 -33 17 -67t-0.5 -54.5
t-15.5 -20.5q-10 0 -13 7q-24 75 -73.5 115.5t-112.5 40.5q-60 0 -88.5 -34t-28.5 -85q0 -59 37.5 -91t110.5 -59q7 -3 31 -11t34 -12t32 -13t33 -16t28 -18t26 -22t18.5 -25.5t13.5 -31.5t4 -37z" />
    <glyph glyph-name="scedilla" unicode="&#x15f;" horiz-adv-x="405" 
d="M380 121q0 -48 -45 -83.5t-118 -42.5l-21 -44q37 13 72 -7t35 -59q0 -36 -30 -58.5t-71 -22.5q-48 0 -73 16t-25 40q0 21 15 27.5t32 -7.5q0 -65 43 -65q29 0 47 21.5t18 50.5q0 23 -14 39t-38 16q-14 0 -28 -5t-19 -5q-16 0 -5 21l20 41q-61 2 -105.5 31t-44.5 80
q0 45 34 45q12 0 21.5 -9t9.5 -18q0 -56 36.5 -84t85.5 -28q101 0 101 85q0 19 -9.5 35t-19 25t-34 20t-33 14t-38.5 12q-61 19 -100.5 49.5t-39.5 84.5q0 55 44 89.5t120 34.5q69 0 114.5 -27.5t45.5 -73.5q0 -18 -10 -30.5t-28 -12.5q-29 0 -29 34q0 39 -33.5 66t-75.5 27
q-45 0 -65.5 -19.5t-20.5 -58.5q0 -24 7.5 -41.5t26 -29.5t34 -19t46.5 -18q33 -11 46 -15.5t41.5 -18t41.5 -25.5t24.5 -32.5t11.5 -44.5z" />
    <glyph glyph-name="Scaron" unicode="&#x160;" horiz-adv-x="503" 
d="M239 712l-110 127l6 9l104 -75l105 75l6 -9zM227 -10q-56 0 -93 11t-80 36q-13 33 -17 67t0.5 54.5t15.5 20.5t13 -7q23 -75 77 -116.5t127 -40.5q58 1 94 30t36 88q0 19 -4.5 35t-9 27t-18.5 22.5t-20.5 17.5t-27.5 15t-27.5 11.5t-33 11.5t-31.5 11q-96 33 -144.5 76
t-48.5 114q0 70 56.5 116.5t160.5 46.5q86 0 163 -44q13 -33 17 -67t-0.5 -54.5t-15.5 -20.5q-10 0 -13 7q-24 75 -73.5 115.5t-112.5 40.5q-60 0 -88.5 -34t-28.5 -85q0 -59 37.5 -91t110.5 -59q7 -3 31 -11t34 -12t32 -13t33 -16t28 -18t26 -22t18.5 -25.5t13.5 -31.5
t4 -37q0 -83 -69 -126t-172 -43z" />
    <glyph glyph-name="scaron" unicode="&#x161;" horiz-adv-x="405" 
d="M198 542l-110 127l6 9l104 -75l105 75l6 -9zM186 -6q-64 0 -112.5 28.5t-48.5 82.5q0 45 34 45q12 0 21.5 -9t9.5 -18q0 -56 36.5 -84t85.5 -28q101 0 101 85q0 19 -9.5 35t-19 25t-34 20t-33 14t-38.5 12q-61 19 -100.5 49.5t-39.5 84.5q0 55 44 89.5t120 34.5
q69 0 114.5 -27.5t45.5 -73.5q0 -18 -10 -30.5t-28 -12.5q-29 0 -29 34q0 39 -33.5 66t-75.5 27q-45 0 -65.5 -19.5t-20.5 -58.5q0 -24 7.5 -41.5t26 -29.5t34 -19t46.5 -18q33 -11 46 -15.5t41.5 -18t41.5 -25.5t24.5 -32.5t11.5 -44.5q0 -53 -54.5 -90t-139.5 -37z" />
    <glyph glyph-name="uni0162" unicode="&#x162;" horiz-adv-x="567" 
d="M528 624l14 -122h-17q-20 57 -44 75t-77 18q-56 0 -71 -10t-15 -32v-492q0 -18 8 -27t21 -12t47 -8v-14h-89l-23 -49q37 13 72 -7t35 -59q0 -36 -30 -58.5t-71 -22.5q-48 0 -73 16t-25 40q0 21 15 27.5t32 -7.5q0 -65 43 -65q29 0 47 21.5t18 50.5q0 23 -14 39t-38 16
q-14 0 -28 -5t-19 -5q-16 0 -5 21l23 47h-91v14q34 5 47 8t21 12t8 27v492q0 15 -4 22.5t-23.5 13.5t-58.5 6q-53 0 -77 -18t-44 -75h-17l14 122l57 -3h375z" />
    <glyph glyph-name="uni0163" unicode="&#x163;" horiz-adv-x="278" 
d="M158 -49q37 13 72 -7t35 -59q0 -36 -30 -58.5t-71 -22.5q-48 0 -73 16t-25 40q0 21 15 27.5t32 -7.5q0 -65 43 -65q29 0 47 21.5t18 50.5q0 23 -14 39t-38 16q-14 0 -28 -5t-19 -5q-16 0 -5 21l23 47h4q-67 21 -67 120v293q0 18 -19 18h-43v14q44 10 70 34.5t35 73.5h17
v-77q0 -25 16 -25h92v-20h-92q-16 0 -16 -18v-300q0 -94 64 -94q33 0 50 14l7 -12q-24 -26 -77 -26h-2z" />
    <glyph glyph-name="Tcaron" unicode="&#x164;" horiz-adv-x="567" 
d="M284 712l-110 127l6 9l104 -75l105 75l6 -9zM173 0v14q34 5 47 8t21 12t8 27v492q0 15 -4 22.5t-23.5 13.5t-58.5 6q-53 0 -77 -18t-44 -75h-17l14 122l57 -3h375l57 3l14 -122h-17q-20 57 -44 75t-77 18q-56 0 -71 -10t-15 -32v-492q0 -18 8 -27t21 -12t47 -8v-14h-221z
" />
    <glyph glyph-name="tcaron" unicode="&#x165;" horiz-adv-x="302" 
d="M206 497q-3 0 -7 4t-5 8l3 131q2 30 22 30q34 0 25 -43l-28 -117q-3 -13 -10 -13zM181 -5q-104 0 -104 125v293q0 18 -19 18h-43v14q44 10 70 34.5t35 73.5h17v-77q0 -25 16 -25h92v-20h-92q-16 0 -16 -18v-300q0 -94 64 -94q33 0 50 14l7 -12q-24 -26 -77 -26z" />
    <glyph glyph-name="Tbar" unicode="&#x166;" horiz-adv-x="567" 
d="M528 624l14 -122h-17q-20 57 -44 75t-77 18q-56 0 -71 -10t-15 -32v-140h113l1 -22h-114v-330q0 -18 8 -27t21 -12t47 -8v-14h-221v14q34 5 47 8t21 12t8 27v330h-115l1 22h114v140q0 15 -4 22.5t-23.5 13.5t-58.5 6q-53 0 -77 -18t-44 -75h-17l14 122l57 -3h375z" />
    <glyph glyph-name="tbar" unicode="&#x167;" horiz-adv-x="278" 
d="M251 33l7 -12q-24 -26 -77 -26q-104 0 -104 125v218h-62v21h62v54q0 18 -19 18h-43v14q44 10 70 34.5t35 73.5h17v-77q0 -25 16 -25h92v-20h-92q-16 0 -16 -18v-54h108v-21h-108v-225q0 -94 64 -94q33 0 50 14z" />
    <glyph glyph-name="Umacron" unicode="&#x16a;" horiz-adv-x="626" 
d="M192 759q-14 0 -14 11q0 7 2.5 9.5t11.5 2.5h295q9 0 11.5 -2.5t2.5 -9.5q0 -11 -14 -11h-295zM178 772v-2v-2v4zM501 772v-4v2v2zM459 621h142v-14q-18 -4 -24.5 -6t-16 -7t-12.5 -13t-3 -21v-300q0 -132 -61 -201t-170 -69q-104 0 -168.5 65t-64.5 190v315
q0 13 -2.5 21t-11.5 13t-16.5 7t-25.5 6v14h180v-14q-18 -4 -25 -6t-16 -7t-12 -13t-3 -21v-293q0 -122 47 -184t133 -62q38 0 70 11.5t60 37.5t44 75t16 116v299q0 13 -3 21t-14 13t-17 7t-26 6v14z" />
    <glyph glyph-name="umacron" unicode="&#x16b;" horiz-adv-x="538" 
d="M116 589q-14 0 -14 11q0 7 2.5 9.5t11.5 2.5h294q15 0 15 -12q0 -11 -15 -11h-294zM102 602v-2v-2v4zM425 602v-4v2v2zM464 63q0 -54 49 -40v-12q-24 -16 -53 -16q-23 0 -41 13.5t-21 44.5q0 12 -8 12q-4 0 -11 -7l-6 -6t-11 -10l-15 -12.5t-20 -13t-24.5 -11t-30.5 -8.5
t-35 -3q-61 0 -103.5 40.5t-42.5 114.5v214q0 37 -11.5 50t-54.5 9v12l95 24q14 4 22.5 -3t8.5 -23v-264q0 -62 33 -100.5t91 -38.5q55 0 92 41t37 98v195q0 37 -11.5 50t-54.5 9v12l95 24q14 4 22.5 -3t8.5 -23v-369z" />
    <glyph glyph-name="ubreve" unicode="&#x16d;" horiz-adv-x="538" 
d="M241 569q-61 0 -92.5 32.5t-31.5 78.5q0 11 7 11h2q10 0 10 -7q5 -26 34.5 -47t70.5 -21t70 21t35 47q0 7 10 7h2q7 0 7 -11q0 -46 -31.5 -78.5t-92.5 -32.5zM237 -6q-61 0 -103.5 40.5t-42.5 114.5v214q0 37 -11.5 50t-54.5 9v12l95 24q14 4 22.5 -3t8.5 -23v-264
q0 -62 33 -100.5t91 -38.5q55 0 92 41t37 98v195q0 37 -11.5 50t-54.5 9v12l95 24q14 4 22.5 -3t8.5 -23v-369q0 -54 49 -40v-12q-24 -16 -53 -16q-23 0 -41 13.5t-21 44.5q0 12 -8 12q-4 0 -11 -7l-6 -6t-11 -10l-15 -12.5t-20 -13t-24.5 -11t-30.5 -8.5t-35 -3z" />
    <glyph glyph-name="Uring" unicode="&#x16e;" horiz-adv-x="626" 
d="M328 727q-36 0 -58.5 24t-22.5 57q0 34 22.5 57t58.5 23q37 0 59.5 -23t22.5 -57q0 -33 -23 -57t-59 -24zM328 754q21 0 36.5 15t15.5 39t-15.5 39t-36.5 15t-36 -15t-15 -39t15 -39t36 -15zM314 -10q-104 0 -168.5 65t-64.5 190v315q0 13 -2.5 21t-11.5 13t-16.5 7
t-25.5 6v14h180v-14q-18 -4 -25 -6t-16 -7t-12 -13t-3 -21v-293q0 -122 47 -184t133 -62q38 0 70 11.5t60 37.5t44 75t16 116v299q0 13 -3 21t-14 13t-17 7t-26 6v14h142v-14q-18 -4 -24.5 -6t-16 -7t-12.5 -13t-3 -21v-300q0 -132 -61 -201t-170 -69z" />
    <glyph glyph-name="uring" unicode="&#x16f;" horiz-adv-x="538" 
d="M198 557q-36 0 -58.5 23.5t-22.5 57.5q0 35 22 57.5t59 22.5q36 0 58.5 -23t22.5 -57q0 -33 -22.5 -57t-58.5 -24zM198 584q21 0 36 15t15 39t-15 39t-36 15t-36.5 -15t-15.5 -39t15.5 -39t36.5 -15zM237 -6q-61 0 -103.5 40.5t-42.5 114.5v214q0 37 -11.5 50t-54.5 9v12
l95 24q14 4 22.5 -3t8.5 -23v-264q0 -62 33 -100.5t91 -38.5q55 0 92 41t37 98v195q0 37 -11.5 50t-54.5 9v12l95 24q14 4 22.5 -3t8.5 -23v-369q0 -54 49 -40v-12q-24 -16 -53 -16q-23 0 -41 13.5t-21 44.5q0 12 -8 12q-4 0 -11 -7l-6 -6t-11 -10l-15 -12.5t-20 -13
t-24.5 -11t-30.5 -8.5t-35 -3z" />
    <glyph glyph-name="Uhungarumlaut" unicode="&#x170;" horiz-adv-x="626" 
d="M242 719q-13 -12 -11 -20q2 -9 26 5l116 70q38 23 20 52q-23 23 -50 -4zM396 719q-11 -10 -11 -20q3 -8 27 5l115 70q12 7 18.5 15.5t7 15.5t-1 12t-4.5 9q-20 25 -49 -4zM314 -10q-104 0 -168.5 65t-64.5 190v315q0 13 -2.5 21t-11.5 13t-16.5 7t-25.5 6v14h180v-14
q-18 -4 -25 -6t-16 -7t-12 -13t-3 -21v-293q0 -122 47 -184t133 -62q38 0 70 11.5t60 37.5t44 75t16 116v299q0 13 -3 21t-14 13t-17 7t-26 6v14h142v-14q-18 -4 -24.5 -6t-16 -7t-12.5 -13t-3 -21v-300q0 -132 -61 -201t-170 -69z" />
    <glyph glyph-name="uhungarumlaut" unicode="&#x171;" horiz-adv-x="538" 
d="M106 549q-11 -10 -11 -20q3 -8 27 5l115 70q40 25 20 52q-23 23 -50 -4zM260 549q-12 -12 -10 -20t26 5l116 70q16 10 21 21.5t3.5 18.5t-5.5 12q-20 25 -49 -4zM237 -6q-61 0 -103.5 40.5t-42.5 114.5v214q0 37 -11.5 50t-54.5 9v12l95 24q14 4 22.5 -3t8.5 -23v-264
q0 -62 33 -100.5t91 -38.5q55 0 92 41t37 98v195q0 37 -11.5 50t-54.5 9v12l95 24q14 4 22.5 -3t8.5 -23v-369q0 -54 49 -40v-12q-24 -16 -53 -16q-23 0 -41 13.5t-21 44.5q0 12 -8 12q-4 0 -11 -7l-6 -6t-11 -10l-15 -12.5t-20 -13t-24.5 -11t-30.5 -8.5t-35 -3z" />
    <glyph glyph-name="Uogonek" unicode="&#x172;" horiz-adv-x="626" 
d="M459 621h142v-14q-18 -4 -24.5 -6t-16 -7t-12.5 -13t-3 -21v-300q0 -105 -39.5 -171t-112.5 -88h1q-69 -47 -69 -112q0 -24 17 -37.5t37 -13.5q58 0 85 53h15q-36 -85 -109 -85q-36 0 -67 21.5t-31 55.5q0 62 80 109q-24 -2 -38 -2q-104 0 -168.5 65t-64.5 190v315
q0 13 -2.5 21t-11.5 13t-16.5 7t-25.5 6v14h180v-14q-18 -4 -25 -6t-16 -7t-12 -13t-3 -21v-293q0 -122 47 -184t133 -62q38 0 70 11.5t60 37.5t44 75t16 116v299q0 13 -3 21t-14 13t-17 7t-26 6v14z" />
    <glyph glyph-name="uogonek" unicode="&#x173;" horiz-adv-x="538" 
d="M479 -3q-130 -41 -130 -100q0 -51 50 -51q20 0 41.5 16t33.5 40h18q-13 -29 -45 -58.5t-64 -29.5q-36 0 -61.5 18t-25.5 57q0 38 35 68t100 44q-29 14 -33 52q0 12 -8 12q-4 0 -11 -7l-6 -6t-11 -10l-15 -12.5t-20 -13t-24.5 -11t-30.5 -8.5t-35 -3q-61 0 -103.5 40.5
t-42.5 114.5v214q0 37 -11.5 50t-54.5 9v12l95 24q14 4 22.5 -3t8.5 -23v-264q0 -62 33 -100.5t91 -38.5q55 0 92 41t37 98v195q0 37 -11.5 50t-54.5 9v12l95 24q14 4 22.5 -3t8.5 -23v-369q0 -54 49 -40v-12q-14 -10 -34 -14z" />
    <glyph glyph-name="Wcircumflex" unicode="&#x174;" horiz-adv-x="1003" 
d="M497 840l111 -127l-6 -9l-105 75l-104 -75l-6 9zM311 0l-197 518q-20 51 -37.5 67.5t-56.5 20.5v15h198v-14q-45 -8 -52 -20t7 -42l169 -445q10 -24 20 0l114 298q5 12 6 25t-2 26t-5.5 21.5t-7.5 20t-6 13.5q-24 60 -41.5 79t-58.5 23v15h199v-14q-45 -8 -52 -20t7 -42
l168 -445q10 -24 20 0l168 441q11 30 -4.5 45.5t-57.5 20.5v14h174v-14q-36 -7 -53.5 -19t-30.5 -44l-184 -479q-16 -44 -16 -65h-47l-150 398l-128 -333q-16 -44 -16 -65h-47z" />
    <glyph glyph-name="wcircumflex" unicode="&#x175;" horiz-adv-x="726" 
d="M328 670l110 -127l-6 -9l-104 75l-104 -75l-6 9zM229 0l-140 341q-21 53 -34 68.5t-45 28.5v13h178v-13q-42 -13 -47.5 -28.5t15.5 -68.5l98 -240q12 -23 20 0l38 100q32 91 4 158q-15 34 -29.5 50t-49.5 29v13h177v-13q-41 -13 -46.5 -28.5t14.5 -68.5l99 -240
q11 -22 19 0l49 132q34 92 41.5 132t-1.5 51.5t-42 21.5v13h169v-13q-43 -13 -60.5 -30t-38.5 -67l-140 -341h-22l-103 250l-101 -250h-22z" />
    <glyph glyph-name="Ycircumflex" unicode="&#x176;" horiz-adv-x="619" 
d="M310 840l111 -127l-6 -9l-105 75l-104 -75l-6 9zM199 0v14q33 5 46 8t21.5 12t8.5 27v189q0 6 -2 12.5t-4 10t-7 12t-8 13.5l-136 218q-28 45 -49 62t-54 29v14h195v-14q-39 -10 -43.5 -25.5t14.5 -42.5l140 -223q7 -9 14 0l129 217q14 22 16 36.5t-7 22t-18 10.5t-26 5
v14h175v-14q-38 -4 -60 -18.5t-52 -64.5l-136 -223q-13 -19 -13 -51v-189q0 -18 8.5 -27t21.5 -12t46 -8v-14h-220z" />
    <glyph glyph-name="ycircumflex" unicode="&#x177;" horiz-adv-x="509" 
d="M257 670l111 -127l-6 -9l-105 75l-104 -75l-6 9zM107 -198q-32 0 -49.5 15t-17.5 39q0 21 14 33t32 12q16 0 24 -10.5t8.5 -22.5t5.5 -22.5t18 -10.5q31 0 67 91q11 28 11.5 57t-3 42t-11.5 34l-117 282q-21 53 -34 68.5t-45 28.5v13h180v-13q-42 -13 -48 -28.5t16 -68.5
l103 -248q3 -6 8 -6t8 6l56 140q27 68 38.5 105.5t7.5 58t-13.5 27t-35.5 14.5v13h169v-13q-44 -13 -62 -30.5t-38 -66.5l-175 -426q-28 -65 -44 -83q-27 -30 -73 -30z" />
    <glyph glyph-name="Ydieresis" unicode="&#x178;" horiz-adv-x="619" 
d="M225 758q-15 0 -27 13t-12 29q0 14 12 26.5t27 12.5t27.5 -12.5t12.5 -26.5q0 -17 -12 -29.5t-28 -12.5zM393 758q-15 0 -27 13t-12 29q0 14 12 26.5t27 12.5t27.5 -12.5t12.5 -26.5q0 -17 -12 -29.5t-28 -12.5zM199 0v14q33 5 46 8t21.5 12t8.5 27v189q0 6 -2 12.5
t-4 10t-7 12t-8 13.5l-136 218q-28 45 -49 62t-54 29v14h195v-14q-39 -10 -43.5 -25.5t14.5 -42.5l140 -223q7 -9 14 0l129 217q14 22 16 36.5t-7 22t-18 10.5t-26 5v14h175v-14q-38 -4 -60 -18.5t-52 -64.5l-136 -223q-13 -19 -13 -51v-189q0 -18 8.5 -27t21.5 -12t46 -8
v-14h-220z" />
    <glyph glyph-name="Zacute" unicode="&#x179;" horiz-adv-x="554" 
d="M267 719q-11 -10 -11 -20q3 -8 27 5l115 70q12 7 18.5 15.5t7 15.5t-1 12t-4.5 9q-21 25 -50 -4zM15 0l425 603l-223 -1q-77 0 -108.5 -23.5t-46.5 -72.5h-17l13 115h476l-427 -602l259 2q64 1 96.5 21.5t54.5 61.5h17l-19 -104h-500z" />
    <glyph glyph-name="zacute" unicode="&#x17a;" horiz-adv-x="432" 
d="M202 549q-11 -10 -11 -20q3 -8 27 5l115 70q12 7 18.5 15.5t7 15.5t-1 12t-4.5 9q-21 25 -50 -4zM15 0l307 427h-181q-35 0 -56 -18.5t-36 -58.5h-13l18 101h363l-307 -427h183q35 0 56 18.5t36 58.5h13l-18 -101h-365z" />
    <glyph glyph-name="Zdotaccent" unicode="&#x17b;" horiz-adv-x="554" 
d="M282 758q-15 0 -27 13t-12 29q0 14 12 26.5t27 12.5q16 0 28 -12.5t12 -26.5q0 -17 -12 -29.5t-28 -12.5zM15 0l425 603l-223 -1q-77 0 -108.5 -23.5t-46.5 -72.5h-17l13 115h476l-427 -602l259 2q64 1 96.5 21.5t54.5 61.5h17l-19 -104h-500z" />
    <glyph glyph-name="zdotaccent" unicode="&#x17c;" horiz-adv-x="432" 
d="M217 588q-15 0 -27 13t-12 29q0 14 12 26.5t27 12.5t27.5 -12.5t12.5 -26.5q0 -17 -12 -29.5t-28 -12.5zM15 0l307 427h-181q-35 0 -56 -18.5t-36 -58.5h-13l18 101h363l-307 -427h183q35 0 56 18.5t36 58.5h13l-18 -101h-365z" />
    <glyph glyph-name="Zcaron" unicode="&#x17d;" horiz-adv-x="554" 
d="M282 712l-110 127l6 9l104 -75l105 75l6 -9zM15 0l425 603l-223 -1q-77 0 -108.5 -23.5t-46.5 -72.5h-17l13 115h476l-427 -602l259 2q64 1 96.5 21.5t54.5 61.5h17l-19 -104h-500z" />
    <glyph glyph-name="zcaron" unicode="&#x17e;" horiz-adv-x="432" 
d="M217 542l-110 127l6 9l104 -75l105 75l6 -9zM15 0l307 427h-181q-35 0 -56 -18.5t-36 -58.5h-13l18 101h363l-307 -427h183q35 0 56 18.5t36 58.5h13l-18 -101h-365z" />
    <glyph glyph-name="florin" unicode="&#x192;" horiz-adv-x="375" 
d="M279 672q58 0 87 -26t29 -57q0 -32 -34 -32q-16 0 -25 15.5t-12 34t-18 34t-42 15.5q-49 0 -65 -37.5t-16 -120.5v-22q0 -25 15 -25h114v-20h-114q-15 0 -15 -18v-448q0 -88 -43.5 -133.5t-113.5 -45.5q-58 0 -87 26t-29 57q0 32 35 32q16 0 24.5 -15.5t11.5 -34t18 -34
t42 -15.5q49 0 65.5 37.5t16.5 120.5v453q0 18 -20 18h-43v14q63 9 63 31v17q0 88 43.5 133.5t112.5 45.5z" />
    <glyph glyph-name="uni0218" unicode="&#x218;" horiz-adv-x="503" 
d="M227 -10q-56 0 -93 11t-80 36q-13 33 -17 67t0.5 54.5t15.5 20.5t13 -7q23 -75 77 -116.5t127 -40.5q58 1 94 30t36 88q0 19 -4.5 35t-9 27t-18.5 22.5t-20.5 17.5t-27.5 15t-27.5 11.5t-33 11.5t-31.5 11q-96 33 -144.5 76t-48.5 114q0 70 56.5 116.5t160.5 46.5
q86 0 163 -44q13 -33 17 -67t-0.5 -54.5t-15.5 -20.5q-10 0 -13 7q-24 75 -73.5 115.5t-112.5 40.5q-60 0 -88.5 -34t-28.5 -85q0 -59 37.5 -91t110.5 -59q7 -3 31 -11t34 -12t32 -13t33 -16t28 -18t26 -22t18.5 -25.5t13.5 -31.5t4 -37q0 -83 -69 -126t-172 -43zM247 -276
l-8 10q11 10 20.5 27.5t9.5 28.5q0 17 -15 17q-18 0 -31 12.5t-13 32.5q0 21 14 33t33 12q25 0 38 -19t13 -45q0 -29 -15.5 -60t-45.5 -49z" />
    <glyph glyph-name="uni0219" unicode="&#x219;" horiz-adv-x="405" 
d="M186 -6q-64 0 -112.5 28.5t-48.5 82.5q0 45 34 45q12 0 21.5 -9t9.5 -18q0 -56 36.5 -84t85.5 -28q101 0 101 85q0 19 -9.5 35t-19 25t-34 20t-33 14t-38.5 12q-61 19 -100.5 49.5t-39.5 84.5q0 55 44 89.5t120 34.5q69 0 114.5 -27.5t45.5 -73.5q0 -18 -10 -30.5
t-28 -12.5q-29 0 -29 34q0 39 -33.5 66t-75.5 27q-45 0 -65.5 -19.5t-20.5 -58.5q0 -24 7.5 -41.5t26 -29.5t34 -19t46.5 -18q33 -11 46 -15.5t41.5 -18t41.5 -25.5t24.5 -32.5t11.5 -44.5q0 -53 -54.5 -90t-139.5 -37zM191 -276l-8 10q11 10 20.5 27.5t9.5 28.5
q0 17 -15 17q-18 0 -31 12.5t-13 32.5q0 21 14 33t33 12q25 0 38 -19t13 -45q0 -29 -15.5 -60t-45.5 -49z" />
    <glyph glyph-name="uni021A" unicode="&#x21a;" horiz-adv-x="567" 
d="M173 0v14q34 5 47 8t21 12t8 27v492q0 15 -4 22.5t-23.5 13.5t-58.5 6q-53 0 -77 -18t-44 -75h-17l14 122l57 -3h375l57 3l14 -122h-17q-20 57 -44 75t-77 18q-56 0 -71 -10t-15 -32v-492q0 -18 8 -27t21 -12t47 -8v-14h-221zM277 -276l-8 10q11 10 20.5 27.5t9.5 28.5
q0 17 -15 17q-18 0 -31 12.5t-13 32.5q0 21 14 33t33 12q25 0 38 -19t13 -45q0 -29 -15.5 -60t-45.5 -49z" />
    <glyph glyph-name="uni021B" unicode="&#x21b;" horiz-adv-x="278" 
d="M181 -5q-104 0 -104 125v293q0 18 -19 18h-43v14q44 10 70 34.5t35 73.5h17v-77q0 -25 16 -25h92v-20h-92q-16 0 -16 -18v-300q0 -94 64 -94q33 0 50 14l7 -12q-24 -26 -77 -26zM152 -276l-8 10q11 10 20.5 27.5t9.5 28.5q0 17 -15 17q-18 0 -31 12.5t-13 32.5
q0 21 14 33t33 12q25 0 38 -19t13 -45q0 -29 -15.5 -60t-45.5 -49z" />
    <glyph glyph-name="uni0237" unicode="&#x237;" horiz-adv-x="203" 
d="M29 -188q-34 0 -57 14.5t-23 39.5q0 32 33 32q9 0 20.5 -16t25 -32t27.5 -16q23 0 23 52v477q0 37 -11.5 50t-54.5 9v12l95 24q14 4 22.5 -3t8.5 -23v-490q0 -61 -28.5 -95.5t-80.5 -34.5z" />
    <glyph glyph-name="circumflex" unicode="&#x2c6;" horiz-adv-x="251" 
d="M125 670l111 -127l-6 -9l-105 75l-104 -75l-6 9z" />
    <glyph glyph-name="caron" unicode="&#x2c7;" horiz-adv-x="251" 
d="M125 542l-110 127l6 9l104 -75l105 75l6 -9z" />
    <glyph glyph-name="breve" unicode="&#x2d8;" horiz-adv-x="349" 
d="M174 569q-61 0 -92.5 32.5t-31.5 78.5q0 11 7 11h3q10 0 10 -7q5 -26 34 -47t70 -21q42 0 71 21t34 47q0 7 10 7h3q7 0 7 -11q0 -46 -32 -78.5t-93 -32.5z" />
    <glyph glyph-name="dotaccent" unicode="&#x2d9;" horiz-adv-x="179" 
d="M89 588q-15 0 -27 13t-12 29q0 14 12 26.5t27 12.5t27.5 -12.5t12.5 -26.5q0 -17 -12 -29.5t-28 -12.5z" />
    <glyph glyph-name="ring" unicode="&#x2da;" horiz-adv-x="263" 
d="M131 557q-36 0 -58.5 24t-22.5 57q0 34 22.5 57t58.5 23q37 0 59.5 -23t22.5 -57q0 -33 -23 -57t-59 -24zM131 584q21 0 36.5 15t15.5 39t-15.5 39t-36.5 15t-36 -15t-15 -39t15 -39t36 -15z" />
    <glyph glyph-name="ogonek" unicode="&#x2db;" horiz-adv-x="282" 
d="M242 -95q-36 -85 -109 -85q-36 0 -67 21.5t-31 55.5q0 67 95 118h27q-69 -47 -69 -112q0 -24 17 -37.5t37 -13.5q58 0 85 53h15z" />
    <glyph glyph-name="tilde" unicode="&#x2dc;" horiz-adv-x="427" 
d="M289 557q-43 0 -104 30t-78 30t-28.5 -12t-11.5 -34h-17q0 47 26 73t63 26q41 0 102 -30t80 -30q16 0 27.5 13t11.5 33h17q0 -47 -26.5 -73t-61.5 -26z" />
    <glyph glyph-name="hungarumlaut" unicode="&#x2dd;" horiz-adv-x="432" 
d="M53 549q-13 -12 -11 -20q2 -9 26 5l116 70q38 23 20 52q-23 23 -50 -4zM207 549q-11 -10 -11 -20q3 -8 27 5l115 70q12 7 18.5 15.5t7 15.5t-1 12t-4.5 9q-20 25 -49 -4z" />
    <glyph glyph-name="acutecomb" unicode="&#x301;" horiz-adv-x="0" 
d="M-206 549q-11 -10 -11 -20q3 -8 27 5l115 70q12 7 18.5 15.5t7 15.5t-1 12t-4.5 9q-21 25 -50 -4z" />
    <glyph glyph-name="uni0326" unicode="&#x326;" horiz-adv-x="0" 
d="M-111 -276l-8 10q11 10 20.5 27.5t9.5 28.5q0 17 -15 17q-18 0 -31 12.5t-13 32.5q0 21 14 33t33 12q25 0 38 -19t13 -45q0 -29 -15.5 -60t-45.5 -49z" />
    <glyph glyph-name="uni0394" unicode="&#x394;" horiz-adv-x="569" 
d="M20 0l273 634l256 -634h-529zM79 60h366l-176 456z" />
    <glyph glyph-name="uni03A9" unicode="&#x3a9;" horiz-adv-x="642" 
d="M577 81l17 27h8l-16 -85q-5 -23 -30 -23h-152v99l5 1q53 8 83.5 74t30.5 179q0 117 -57 186.5t-145 69.5t-145 -69.5t-57 -186.5q0 -114 30.5 -179.5t84.5 -73.5l5 -1v-99h-154q-25 0 -30 23l-15 85h8l17 -27q26 -43 69 -46l75 -3q10 -1 12.5 10t-1.5 33
q-73 18 -127.5 97.5t-54.5 170.5q0 115 84 204.5t199 89.5q114 0 198 -89.5t84 -204.5q0 -86 -55 -168t-126 -101q-6 -21 -4 -32t14 -10l57 3q62 2 88 46z" />
    <glyph glyph-name="uni03BC" unicode="&#x3bc;" horiz-adv-x="538" 
d="M464 63q0 -54 49 -40v-12q-24 -16 -53 -16q-23 0 -41 13.5t-21 44.5q0 12 -8 12q-4 0 -11 -7l-6 -6t-11 -10l-15 -12.5t-20 -13t-24.5 -11t-30.5 -8.5t-35 -3q-79 0 -120 60q0 -52 8.5 -89t18.5 -51.5t17 -26t6 -20.5q-7 -48 -35 -64q-24 -14 -36 16q-5 14 -5 36v508
q0 37 -11.5 50t-54.5 9v12l95 24q14 4 22.5 -3t8.5 -23v-264q0 -62 33 -100.5t91 -38.5q55 0 92 41t37 98v195q0 37 -11.5 50t-54.5 9v12l95 24q14 4 22.5 -3t8.5 -23v-369z" />
    <glyph glyph-name="pi" unicode="&#x3c0;" horiz-adv-x="712" 
d="M619 84q20 -15 13 -43q-11 -34 -44.5 -46.5t-81.5 7.5q-36 17 -50.5 46.5t-14.5 81.5v272h-150v-286q0 -56 -29.5 -89t-69.5 -33q-32 0 -60 10l-13 19q40 -9 71.5 14t31.5 69v296h-63q-20 0 -30.5 -22t-1.5 -59l-36 -5q-12 33 -12 58q0 33 21.5 55t51.5 22h458v-49h-73
q-15 0 -21.5 -7t-6.5 -24v-301q0 -37 24 -47q8 -3 16 10t15 31t8 19q5 8 19.5 8.5t27.5 -7.5z" />
    <glyph glyph-name="uni0400" unicode="&#x400;" horiz-adv-x="547" 
d="M304 719l-102 103q-29 29 -49 4q-3 -4 -4.5 -9t-1 -12t7 -15.5t18.5 -15.5l115 -70q24 -13 27 -5q0 10 -11 20zM30 0v14q18 4 25.5 6t16.5 7t11.5 13t2.5 21v499q0 13 -2.5 21t-11.5 13t-16.5 7t-25.5 6v14h438q15 0 16 -13q5 -42 19 -102h-17q-16 46 -47 67.5t-83 21.5
h-140q-34 0 -48 -7t-14 -31v-189q0 -24 14 -31t48 -7h115q39 0 54 16.5t22 52.5h14v-167h-14q-7 37 -22 54t-54 17h-115q-34 0 -48 -7t-14 -31v-200q0 -25 21 -32.5t85 -5.5l117 1q51 1 73.5 13.5t35.5 35.5l24 38h17q-23 -45 -30 -101q-2 -14 -16 -14h-451z" />
    <glyph glyph-name="uni0401" unicode="&#x401;" horiz-adv-x="547" 
d="M187 758q-15 0 -27 13t-12 29q0 14 12 26.5t27 12.5t27.5 -12.5t12.5 -26.5q0 -17 -12 -29.5t-28 -12.5zM355 758q-15 0 -27 13t-12 29q0 14 12 26.5t27 12.5t27.5 -12.5t12.5 -26.5q0 -17 -12 -29.5t-28 -12.5zM30 0v14q18 4 25.5 6t16.5 7t11.5 13t2.5 21v499
q0 13 -2.5 21t-11.5 13t-16.5 7t-25.5 6v14h438q15 0 16 -13q5 -42 19 -102h-17q-16 46 -47 67.5t-83 21.5h-140q-34 0 -48 -7t-14 -31v-189q0 -24 14 -31t48 -7h115q39 0 54 16.5t22 52.5h14v-167h-14q-7 37 -22 54t-54 17h-115q-34 0 -48 -7t-14 -31v-200q0 -25 21 -32.5
t85 -5.5l117 1q51 1 73.5 13.5t35.5 35.5l24 38h17q-23 -45 -30 -101q-2 -14 -16 -14h-451z" />
    <glyph glyph-name="uni0403" unicode="&#x403;" horiz-adv-x="508" 
d="M208 719q-11 -10 -11 -20q3 -8 27 5l115 70q12 7 18.5 15.5t7 15.5t-1 12t-4.5 9q-21 25 -50 -4zM30 0v14q18 4 25.5 6t16.5 7t11.5 13t2.5 21v499q0 13 -2.5 21t-11.5 13t-16.5 7t-25.5 6v14h422l31 -99h-17q-16 31 -20.5 39.5t-15.5 21t-21.5 15t-29.5 2.5h-169
q-29 0 -42.5 -9t-13.5 -31v-499q0 -18 8 -27t19 -12t39 -8v-14h-190z" />
    <glyph glyph-name="uni0404" unicode="&#x404;" horiz-adv-x="631" 
d="M586 135l10 -8q-27 -49 -91 -93t-157 -44q-128 0 -223 88t-95 232v2l-1 1l1 1q1 99 49.5 174t122 112t157.5 37q96 0 161 -51t65 -106q0 -24 -13.5 -37.5t-35.5 -13.5q-17 0 -29.5 13t-12.5 41q0 43 -43 84t-119 41q-103 0 -167.5 -63.5t-67.5 -172.5q2 -55 33 -55h238
v-22h-232q-33 0 -22 -47q31 -94 107.5 -149.5t177.5 -55.5q60 0 102.5 22.5t84.5 69.5z" />
    <glyph glyph-name="uni0405" unicode="&#x405;" horiz-adv-x="503" 
d="M227 -10q-56 0 -93 11t-80 36q-13 33 -17 67t0.5 54.5t15.5 20.5t13 -7q23 -75 77 -116.5t127 -40.5q58 1 94 30t36 88q0 19 -4.5 35t-9 27t-18.5 22.5t-20.5 17.5t-27.5 15t-27.5 11.5t-33 11.5t-31.5 11q-96 33 -144.5 76t-48.5 114q0 70 56.5 116.5t160.5 46.5
q86 0 163 -44q13 -33 17 -67t-0.5 -54.5t-15.5 -20.5q-10 0 -13 7q-24 75 -73.5 115.5t-112.5 40.5q-60 0 -88.5 -34t-28.5 -85q0 -59 37.5 -91t110.5 -59q7 -3 31 -11t34 -12t32 -13t33 -16t28 -18t26 -22t18.5 -25.5t13.5 -31.5t4 -37q0 -83 -69 -126t-172 -43z" />
    <glyph glyph-name="uni0406" unicode="&#x406;" horiz-adv-x="240" 
d="M30 0v14q18 4 25.5 6t16.5 7t11.5 13t2.5 21v499q0 13 -2.5 21t-11.5 13t-16.5 7t-25.5 6v14h180v-14q-18 -4 -25 -6t-16 -7t-12 -13t-3 -21v-499q0 -13 3 -21t12 -13t16 -7t25 -6v-14h-180z" />
    <glyph glyph-name="uni0407" unicode="&#x407;" horiz-adv-x="240" 
d="M34 758q-15 0 -27 13t-12 29q0 14 12 26.5t27 12.5q16 0 28 -12.5t12 -26.5q0 -17 -12 -29.5t-28 -12.5zM202 758q-15 0 -27 13t-12 29q0 14 12 26.5t27 12.5q16 0 28 -12.5t12 -26.5q0 -17 -12 -29.5t-28 -12.5zM30 0v14q18 4 25.5 6t16.5 7t11.5 13t2.5 21v499
q0 13 -2.5 21t-11.5 13t-16.5 7t-25.5 6v14h180v-14q-18 -4 -25 -6t-16 -7t-12 -13t-3 -21v-499q0 -13 3 -21t12 -13t16 -7t25 -6v-14h-180z" />
    <glyph glyph-name="uni0408" unicode="&#x408;" horiz-adv-x="277" 
d="M81 -10q-53 0 -77 22t-24 50q0 44 37 44q36 0 36 -40q0 -19 7.5 -38t25.5 -19t27 19t9 46v486q0 18 -7.5 27t-18.5 12t-39 8v14h190v-14q-18 -4 -25.5 -6t-16.5 -7t-11.5 -13t-2.5 -21v-439q0 -66 -25.5 -98.5t-84.5 -32.5z" />
    <glyph glyph-name="uni040D" unicode="&#x40d;" horiz-adv-x="636" 
d="M212 774q-12 7 -18.5 15.5t-7 15.5t1 12t4.5 9q20 25 49 -4l102 -103q11 -10 11 -20q-3 -8 -27 5zM606 607q-18 -4 -25 -6t-16 -7t-12 -13t-3 -21v-499q0 -13 3 -21t12 -13t16 -7t25 -6v-14h-180v14q18 4 25.5 6t16.5 7t11.5 13t2.5 21v432l-328 -383v-49q0 -13 3 -21
t12 -13t16 -7t25 -6v-14h-180v14q18 4 25.5 6t16.5 7t11.5 13t2.5 21v499q0 13 -2.5 21t-11.5 13t-16.5 7t-25.5 6v14h180v-14q-18 -4 -25 -6t-16 -7t-12 -13t-3 -21v-414l328 380v34q0 13 -2.5 21t-11.5 13t-16.5 7t-25.5 6v14h180v-14z" />
    <glyph glyph-name="uni040E" unicode="&#x40e;" horiz-adv-x="637" 
d="M334 739q-61 0 -92.5 32.5t-31.5 78.5q0 11 7 11h3q10 0 10 -7q5 -26 34 -47t70 -21q42 0 71 21t34 47q0 7 10 7h3q7 0 7 -11q0 -46 -32 -78.5t-93 -32.5zM455 621h167v-14q-33 -4 -49.5 -16.5t-30.5 -42.5l-190 -384q-52 -103 -87.5 -141t-86.5 -38q-37 0 -60 15.5
t-23 42.5q0 21 12 34t34 13q15 0 24 -10.5t12 -23t10 -23t19 -10.5q50 0 103 116l-206 384q-26 48 -40.5 62.5t-47.5 21.5v14h189v-14q-33 -1 -41.5 -13.5t7.5 -44.5l177 -334l163 333q27 57 -55 59v14z" />
    <glyph glyph-name="uni0410" unicode="&#x410;" horiz-adv-x="706" 
d="M594 103q21 -52 37.5 -68t54.5 -20v-15h-203v14q45 8 53 21t-6 41l-189 450q-7 13 -11.5 12.5t-9.5 -14.5l-121 -286q-1 -8 4 -12.5t14 -4.5h225q11 0 16 7t0 19l35 -86q-17 36 -59 36h-208q-40 0 -57 -30l-37 -86q-12 -31 3.5 -46t57.5 -21v-14h-173v14q35 7 52 19.5
t31 43.5l202 479q18 41 18 65l49 5zM201 245v1v-1z" />
    <glyph glyph-name="uni0411" unicode="&#x411;" horiz-adv-x="568" 
d="M287 378q116 0 181 -50.5t65 -141.5q0 -90 -64.5 -138t-181.5 -48h-257v14q18 4 25.5 6t16.5 7t11.5 13t2.5 21v499q0 13 -2.5 21t-11.5 13t-16.5 7t-25.5 6v14h422l31 -99h-17q-16 31 -20.5 39.5t-15.5 21t-21.5 15t-29.5 2.5h-169q-29 0 -42.5 -9t-13.5 -31v-129
q0 -28 12.5 -40.5t42.5 -12.5h78zM287 22q167 0 167 166q0 168 -167 168h-78q-30 0 -42.5 -12.5t-12.5 -40.5v-242q0 -29 25 -38q4 -1 12 -1h96z" />
    <glyph glyph-name="uni0412" unicode="&#x412;" horiz-adv-x="590" 
d="M30 0v14q18 4 25.5 6t16.5 7t11.5 13t2.5 21v501q0 13 -2.5 20.5t-12 12t-16 6.5t-25.5 6v14h284q97 0 152 -37t55 -106q0 -113 -146 -149q86 -14 133 -55t47 -107q0 -72 -54 -119.5t-141 -47.5q-12 0 -84 3t-139 3t-107 -6zM216 344h87q151 0 151 132q0 61 -34 92.5
t-110 31.5h-94q-34 0 -48 -7t-14 -31v-180q0 -24 14 -31t48 -7zM188 23h150q150 0 150 139q0 81 -58.5 120.5t-205.5 39.5q-39 0 -54.5 -7t-15.5 -31v-215q0 -46 34 -46z" />
    <glyph glyph-name="uni0413" unicode="&#x413;" horiz-adv-x="508" 
d="M30 0v14q18 4 25.5 6t16.5 7t11.5 13t2.5 21v499q0 13 -2.5 21t-11.5 13t-16.5 7t-25.5 6v14h422l31 -99h-17q-16 31 -20.5 39.5t-15.5 21t-21.5 15t-29.5 2.5h-169q-29 0 -42.5 -9t-13.5 -31v-499q0 -18 8 -27t19 -12t39 -8v-14h-190z" />
    <glyph glyph-name="uni0414" unicode="&#x414;" horiz-adv-x="673" 
d="M636 26q2 0 6 -2h1l-25 -139h-15q0 44 -3 62.5t-23 33t-53.5 17t-103.5 2.5h-169q-129 0 -170.5 -23.5t-41.5 -91.5h-14v130q0 10 10 11q43 6 72.5 48t45 117t22 162.5t6.5 203.5q0 28 -17 38.5t-62 11.5v14h536v-14q-39 -1 -59 -12t-20 -37v-498q0 -22 16 -28t61 -6z
M490 61v498q0 25 -13 30.5t-45 5.5h-172q-25 0 -38 -8t-13 -31q0 -214 -29 -360t-92 -170h344q31 0 44.5 6t13.5 29z" />
    <glyph glyph-name="uni0415" unicode="&#x415;" horiz-adv-x="547" 
d="M30 0v14q18 4 25.5 6t16.5 7t11.5 13t2.5 21v499q0 13 -2.5 21t-11.5 13t-16.5 7t-25.5 6v14h438q15 0 16 -13q5 -42 19 -102h-17q-16 46 -47 67.5t-83 21.5h-140q-34 0 -48 -7t-14 -31v-189q0 -24 14 -31t48 -7h115q39 0 54 16.5t22 52.5h14v-167h-14q-7 37 -22 54
t-54 17h-115q-34 0 -48 -7t-14 -31v-200q0 -25 21 -32.5t85 -5.5l117 1q51 1 73.5 13.5t35.5 35.5l24 38h17q-23 -45 -30 -101q-2 -14 -16 -14h-451z" />
    <glyph glyph-name="uni0416" unicode="&#x416;" horiz-adv-x="907" 
d="M776 91q9 -11 17.5 -20.5t16 -16.5t13.5 -12.5t13.5 -9.5t11.5 -6t11.5 -4.5t9.5 -3t9.5 -2.5t8.5 -2v-14h-186v14q24 -1 32.5 10.5t-12.5 38.5l-164 195q-38 43 -67 43h-2v-240q0 -13 2.5 -21t11.5 -13t16.5 -7t25.5 -6v-14h-180v14q23 5 32 8t16 12.5t7 26.5v240h-2
q-16 0 -30 -9t-36 -34l-165 -195q-21 -27 -12.5 -38.5t33.5 -10.5v-14h-187v14q2 0 7.5 1.5t8.5 2t9 2.5t9.5 4t10 5t11.5 7t12 9.5t13.5 12t14.5 15t16 18.5l179 222q1 2 6.5 8t7 8.5t4 7.5t2 9.5t-3.5 8.5l-165 210q-9 14 -19.5 13t-16.5 -8.5t-18 -16t-25 -8.5
q-16 0 -28 11.5t-12 29.5q0 42 50 42q21 0 37 -8t23.5 -16.5t21 -28.5t21.5 -30l149 -185q28 -40 73 -40h1v240q0 17 -7 26.5t-16 12.5t-32 8v14h180v-14q-18 -4 -25.5 -6t-16.5 -7t-11.5 -13t-2.5 -21v-240h1q44 0 74 40l148 185q8 10 21.5 30t21 28.5t23.5 16.5t37 8
q51 0 51 -42q0 -18 -12.5 -29.5t-28.5 -11.5q-13 0 -25 8.5t-18 16t-16.5 8.5t-19.5 -13l-165 -210q-3 -4 -3.5 -8.5t2 -9.5t4 -7.5t7 -8.5t6.5 -8z" />
    <glyph glyph-name="uni0417" unicode="&#x417;" horiz-adv-x="537" 
d="M254 -12q-95 0 -157 50t-62 127q0 58 42 58q18 0 22.5 -8t11 -40t18.5 -64q40 -103 132 -103q68 0 115 55t47 136q0 67 -36 100.5t-89 33.5q-31 0 -86 -19l-9 22q101 33 128 49q57 37 58 109q0 51 -28.5 84.5t-88.5 33.5q-63 0 -112.5 -39.5t-73.5 -114.5q-3 -7 -13 -7
q-11 0 -15.5 20.5t-0.5 54.5t17 67q77 44 167 44q102 0 157.5 -43t55.5 -104q0 -88 -139 -135q59 9 120.5 -36.5t61.5 -127.5q0 -87 -69.5 -145t-173.5 -58z" />
    <glyph glyph-name="uni0418" unicode="&#x418;" horiz-adv-x="636" 
d="M606 607q-18 -4 -25 -6t-16 -7t-12 -13t-3 -21v-499q0 -13 3 -21t12 -13t16 -7t25 -6v-14h-180v14q18 4 25.5 6t16.5 7t11.5 13t2.5 21v432l-328 -383v-49q0 -13 3 -21t12 -13t16 -7t25 -6v-14h-180v14q18 4 25.5 6t16.5 7t11.5 13t2.5 21v499q0 13 -2.5 21t-11.5 13
t-16.5 7t-25.5 6v14h180v-14q-18 -4 -25 -6t-16 -7t-12 -13t-3 -21v-414l328 380v34q0 13 -2.5 21t-11.5 13t-16.5 7t-25.5 6v14h180v-14z" />
    <glyph glyph-name="uni0419" unicode="&#x419;" horiz-adv-x="636" 
d="M310 739q-61 0 -92.5 32.5t-31.5 78.5q0 11 7 11h3q10 0 10 -7q5 -26 34 -47t70 -21q42 0 71 21t34 47q0 7 10 7h3q7 0 7 -11q0 -46 -32 -78.5t-93 -32.5zM606 607q-18 -4 -25 -6t-16 -7t-12 -13t-3 -21v-499q0 -13 3 -21t12 -13t16 -7t25 -6v-14h-180v14q18 4 25.5 6
t16.5 7t11.5 13t2.5 21v432l-328 -383v-49q0 -13 3 -21t12 -13t16 -7t25 -6v-14h-180v14q18 4 25.5 6t16.5 7t11.5 13t2.5 21v499q0 13 -2.5 21t-11.5 13t-16.5 7t-25.5 6v14h180v-14q-18 -4 -25 -6t-16 -7t-12 -13t-3 -21v-414l328 380v34q0 13 -2.5 21t-11.5 13t-16.5 7
t-25.5 6v14h180v-14z" />
    <glyph glyph-name="uni041A" unicode="&#x41a;" horiz-adv-x="574" 
d="M442 91q8 -10 16 -18.5t14.5 -15t13.5 -12t12 -9.5t11.5 -7t10 -5t9.5 -4t9 -2.5t8.5 -2t7.5 -1.5v-14h-187v14q25 -1 33.5 10.5t-12.5 38.5l-165 195q-22 25 -36 34t-30 9h-3v-240q0 -13 3 -21t12 -13t16 -7t25 -6v-14h-180v14q18 4 25.5 6t16.5 7t11.5 13t2.5 21v499
q0 13 -2.5 21t-11.5 13t-16.5 7t-25.5 6v14h180v-14q-18 -4 -25 -6t-16 -7t-12 -13t-3 -21v-240h2q45 0 73 40l148 185q7 9 21.5 30t21.5 29t23.5 16t37.5 8q50 0 50 -42q0 -18 -12 -29.5t-28 -11.5q-13 0 -25.5 8.5t-18.5 16t-16 8.5t-19 -13l-165 -210q-3 -4 -3.5 -8.5
t2 -9.5t4 -7.5t7 -8.5t6.5 -8z" />
    <glyph glyph-name="uni041B" unicode="&#x41b;" horiz-adv-x="684" 
d="M96 -11q-34 0 -57.5 14.5t-23.5 45.5q0 20 11.5 33t33.5 13q20 0 25.5 -12.5t2 -27t2 -27t25.5 -12.5q26 0 44 17t26 44.5t11 51.5t3 50v381q0 23 -16 31.5t-52 14.5q-5 0 -8 1v14h531v-14q-23 -5 -32 -8t-16 -12.5t-7 -26.5v-499q0 -17 7 -26.5t16 -12.5t32 -8v-14h-180
v14q18 4 25.5 6t16.5 7t11.5 13t2.5 21v499q0 17 -7 25t-16 9t-32 1h-203q-18 0 -25.5 -1t-15 -9t-7.5 -25v-359q0 -212 -128 -212z" />
    <glyph glyph-name="uni041C" unicode="&#x41c;" horiz-adv-x="795" 
d="M765 607q-18 -4 -25 -6t-16 -7t-12 -13t-3 -21v-499q0 -13 3 -21t12 -13t16 -7t25 -6v-14h-180v14q18 4 25 6t16 7t12 13t3 21v510l-246 -504h-25l-259 502v-508q0 -17 7 -26.5t15.5 -12.5t30.5 -8v-14h-134v14q18 4 25.5 6t16.5 7t11.5 13t2.5 21v499q0 13 -2.5 21
t-11.5 13t-16.5 7t-25.5 6v14h130l246 -479l235 479h124v-14z" />
    <glyph glyph-name="uni041D" unicode="&#x41d;" horiz-adv-x="668" 
d="M638 607q-18 -4 -25.5 -6t-16.5 -7t-11.5 -13t-2.5 -21v-499q0 -13 2.5 -21t11.5 -13t16.5 -7t25.5 -6v-14h-181v14q18 4 25.5 6t16.5 7t11.5 13t2.5 21v202q0 19 -7 27t-23 8h-298q-31 0 -31 -35v-202q0 -13 3 -21t12 -13t16 -7t25 -6v-14h-180v14q18 4 25.5 6t16.5 7
t11.5 13t2.5 21v499q0 13 -2.5 21t-11.5 13t-16.5 7t-25.5 6v14h180v-14q-18 -4 -25 -6t-16 -7t-12 -13t-3 -21v-205q0 -35 32 -35h296q17 0 24 8t7 27v205q0 13 -2.5 21t-11.5 13t-16.5 7t-25.5 6v14h181v-14z" />
    <glyph glyph-name="uni041E" unicode="&#x41e;" horiz-adv-x="693" 
d="M342 -10q-136 0 -224 92t-88 226q0 137 92 233t229 96t224.5 -92t87.5 -226q0 -137 -92 -233t-229 -96zM361 15q93 0 160 68t67 208q0 142 -75 232t-182 90q-92 0 -159 -68t-67 -207q0 -143 74.5 -233t181.5 -90z" />
    <glyph glyph-name="uni041F" unicode="&#x41f;" horiz-adv-x="668" 
d="M638 607q-18 -4 -25.5 -6t-16.5 -7t-11.5 -13t-2.5 -21v-499q0 -13 2.5 -21t11.5 -13t16.5 -7t25.5 -6v-14h-181v14q18 4 25.5 6t16.5 7t11.5 13t2.5 21v499q0 30 -23 39h-7h-298q-6 0 -8 -1q-23 -9 -23 -38v-499q0 -13 3 -21t12 -13t16 -7t25 -6v-14h-180v14
q18 4 25.5 6t16.5 7t11.5 13t2.5 21v499q0 13 -2.5 21t-11.5 13t-16.5 7t-25.5 6v14h608v-14z" />
    <glyph glyph-name="uni0420" unicode="&#x420;" horiz-adv-x="558" 
d="M30 0v14q18 4 25.5 6t16.5 7t11.5 13t2.5 21v499q0 13 -2.5 21t-11.5 13t-16.5 7t-25.5 6v14h257q117 0 181.5 -48t64.5 -138q0 -91 -65 -141.5t-181 -50.5h-78q-30 0 -42.5 -12.5t-12.5 -40.5v-129q0 -18 8 -27t19 -12t39 -8v-14h-190zM209 265h78q167 0 167 168
q0 166 -167 166h-96q-19 0 -28 -7t-9 -32v-242q0 -28 12.5 -40.5t42.5 -12.5z" />
    <glyph glyph-name="uni0421" unicode="&#x421;" horiz-adv-x="631" 
d="M348 -10q-128 0 -223 88t-95 232q0 100 48.5 176t122.5 113.5t158 37.5q96 0 161 -51t65 -106q0 -24 -13.5 -37.5t-35.5 -13.5q-17 0 -29.5 13t-12.5 41q0 43 -43 84t-119 41q-105 0 -170 -66.5t-65 -179.5q0 -140 85.5 -229.5t216.5 -89.5q60 0 102.5 22.5t84.5 69.5
l10 -8q-27 -49 -91 -93t-157 -44z" />
    <glyph glyph-name="uni0422" unicode="&#x422;" horiz-adv-x="567" 
d="M173 0v14q34 5 47 8t21 12t8 27v492q0 15 -4 22.5t-23.5 13.5t-58.5 6q-53 0 -77 -18t-44 -75h-17l14 122l57 -3h375l57 3l14 -122h-17q-20 57 -44 75t-77 18q-56 0 -71 -10t-15 -32v-492q0 -18 8 -27t21 -12t47 -8v-14h-221z" />
    <glyph glyph-name="uni0423" unicode="&#x423;" horiz-adv-x="637" 
d="M455 621h167v-14q-33 -4 -49.5 -16.5t-30.5 -42.5l-190 -384q-52 -103 -87.5 -141t-86.5 -38q-37 0 -60 15.5t-23 42.5q0 21 12 34t34 13q15 0 24 -10.5t12 -23t10 -23t19 -10.5q50 0 103 116l-206 384q-26 48 -40.5 62.5t-47.5 21.5v14h189v-14q-33 -1 -41.5 -13.5
t7.5 -44.5l177 -334l163 333q27 57 -55 59v14z" />
    <glyph glyph-name="uni0424" unicode="&#x424;" horiz-adv-x="715" 
d="M267 0v14q34 7 45 16t11 38q0 33 -11.5 47t-43.5 14h-22q-103 0 -159.5 47.5t-56.5 134.5t56.5 134.5t159.5 47.5h22q32 0 43.5 14t11.5 46q0 29 -11 38t-45 16v14h181v-14q-33 -7 -44.5 -16t-11.5 -38q0 -32 11.5 -46t43.5 -14h23q102 0 158.5 -47.5t56.5 -134.5
t-56.5 -134.5t-158.5 -47.5h-23q-32 0 -43.5 -14t-11.5 -47q0 -29 11.5 -38t44.5 -16v-14h-181zM246 151h22q30 0 42.5 12.5t12.5 40.5v214q0 28 -12.5 40.5t-42.5 12.5h-22q-128 0 -128 -160t128 -160zM447 151h23q127 0 127 160t-127 160h-23q-30 0 -42.5 -12.5
t-12.5 -40.5v-214q0 -28 12.5 -40.5t42.5 -12.5z" />
    <glyph glyph-name="uni0425" unicode="&#x425;" horiz-adv-x="661" 
d="M527 112q51 -68 66 -80q18 -15 48 -18v-14h-189v14q23 3 31 6.5t7 15t-18 33.5l-154 208q-145 -185 -152 -231q-4 -27 30 -31q3 -1 6 -1v-14h-182v14q37 3 78 38.5t139 160.5l67 84l-157 213q-51 68 -64 78q-18 16 -49 19v14h189v-14q-22 -3 -30.5 -6.5t-7.5 -15
t18 -33.5l148 -201q142 183 143 228q-1 25 -37 28v14h183v-14q-36 -3 -75.5 -37.5t-138.5 -160.5l-60 -78z" />
    <glyph glyph-name="uni0426" unicode="&#x426;" horiz-adv-x="691" 
d="M659 26q2 0 3.5 -0.5t3.5 -1.5h1l-26 -139h-14q0 29 -1 44.5t-7.5 31t-16 21t-31 11t-47.5 6.5t-71 1h-423v14q18 4 25.5 6t16.5 7t11.5 13t2.5 21v499q0 13 -2.5 21t-11.5 13t-16.5 7t-25.5 6v14h180v-14q-18 -4 -25 -6t-16 -7t-12 -13t-3 -21v-499q0 -9 1 -13
q2 -11 10 -16t16 -5.5t26 -0.5h7h241h6q18 0 26 1t15.5 6t9.5 17q1 4 1 11v499q0 13 -2.5 21t-11.5 13t-16.5 7t-25.5 6v14h181v-14q-18 -4 -25.5 -6t-16.5 -7t-11.5 -13t-2.5 -21v-499v-6q1 -19 17 -24t60 -5z" />
    <glyph glyph-name="uni0427" unicode="&#x427;" horiz-adv-x="636" 
d="M426 0v14q18 4 25.5 6t16.5 7t11.5 13t2.5 21v133q0 37 -17 37q-6 0 -12 -7q-19 -22 -70 -41.5t-115 -19.5q-72 0 -125 43t-53 133v221q0 13 -3 21t-14.5 13.5t-17 6.5t-25.5 6v14h196v-14q-29 -5 -39.5 -8t-19.5 -12.5t-9 -26.5v-204q0 -65 39.5 -105.5t126.5 -40.5
q70 0 114 42t44 100v208q0 13 -2.5 21t-11.5 13t-16.5 7t-25.5 6v14h180v-14q-18 -4 -25 -6t-16 -7t-12 -13t-3 -21v-499q0 -13 3 -21t12 -13t16 -7t25 -6v-14h-180z" />
    <glyph glyph-name="uni0428" unicode="&#x428;" horiz-adv-x="811" 
d="M781 607q-18 -4 -25 -6t-16 -7t-12 -13t-3 -21v-499q0 -13 3 -21t12 -13t16 -7t25 -6v-14h-751v14q18 4 25.5 6t16.5 7t11.5 13t2.5 21v499q0 13 -2.5 21t-11.5 13t-16.5 7t-25.5 6v14h180v-14q-18 -4 -25 -6t-16 -7t-12 -13t-3 -21v-499v-8q2 -18 18.5 -22.5t64.5 -4.5
h78h6q17 0 25 1t15 6t9 17q1 3 1 11v499q0 17 -7 26.5t-16 12.5t-32 8v14h180v-14q-18 -4 -25.5 -6t-16.5 -7t-11.5 -13t-2.5 -21v-499v-8q2 -18 18.5 -22.5t63.5 -4.5h79h6q17 0 25 1t15 6t9 17q1 3 1 11v499q0 13 -2.5 21t-11.5 13t-16.5 7t-25.5 6v14h180v-14z" />
    <glyph glyph-name="uni0429" unicode="&#x429;" horiz-adv-x="839" 
d="M807 26q2 0 3.5 -0.5t3.5 -1.5h1l-26 -139h-14q0 29 -1 44.5t-7.5 31t-16 21t-31 11t-47.5 6.5t-71 1h-567v14q18 4 25.5 6t16.5 7t11.5 13t2.5 21v499q0 13 -2.5 21t-11.5 13t-16.5 7t-25.5 6v14h181v-14q-18 -4 -25.5 -6t-16.5 -7t-11.5 -13t-2.5 -21v-499v-8
q2 -18 18.5 -22.5t63.5 -4.5h79h6q17 0 24.5 0.5t15 5.5t9.5 15q1 4 1 14v499q0 13 -3 21t-12 13t-16 7t-25 6v14h180v-14q-18 -4 -25 -6t-16 -7t-12 -13t-3 -21v-499v-8q2 -18 18.5 -22.5t64.5 -4.5h78h9q23 0 33.5 4t12.5 20q1 4 1 11v499q0 13 -2.5 21t-11.5 13t-16.5 7
t-25.5 6v14h181v-14q-18 -4 -25.5 -6t-16.5 -7t-11.5 -13t-2.5 -21v-499v-6q1 -19 17 -24t60 -5z" />
    <glyph glyph-name="uni042A" unicode="&#x42a;" horiz-adv-x="646" 
d="M375 378q116 0 181 -50.5t65 -141.5q0 -90 -64.5 -138t-181.5 -48h-257v14q18 4 25.5 6t16.5 7t11.5 13t2.5 21v499q0 7 -1 13t-3.5 10t-4 7t-6 5t-6 3t-7.5 1.5t-7 0.5h-8h-7q-37 0 -51.5 -14t-40.5 -64h-17l31 99h253v-14q-18 -4 -25.5 -6t-16.5 -7t-11.5 -13t-2.5 -21
v-129q0 -28 12.5 -40.5t42.5 -12.5h77zM375 22q167 0 167 166q0 168 -167 168h-77q-30 0 -42.5 -12.5t-12.5 -40.5v-242q0 -25 9 -32t27 -7h96z" />
    <glyph glyph-name="uni042B" unicode="&#x42b;" horiz-adv-x="799" 
d="M287 378q116 0 181 -50.5t65 -141.5q0 -90 -64.5 -138t-181.5 -48h-257v14q18 4 25.5 6t16.5 7t11.5 13t2.5 21v499q0 13 -2.5 21t-11.5 13t-16.5 7t-25.5 6v14h180v-14q-18 -4 -25 -6t-16 -7t-12 -13t-3 -21v-129q0 -28 12.5 -40.5t42.5 -12.5h78zM769 607
q-18 -4 -25.5 -6t-16.5 -7t-11.5 -13t-2.5 -21v-499q0 -13 2.5 -21t11.5 -13t16.5 -7t25.5 -6v-14h-181v14q18 4 25.5 6t16.5 7t11.5 13t2.5 21v499q0 13 -2.5 21t-11.5 13t-16.5 7t-25.5 6v14h181v-14zM287 22q167 0 167 166q0 168 -167 168h-78q-30 0 -42.5 -12.5
t-12.5 -40.5v-242q0 -29 21 -38q5 -1 16 -1h96z" />
    <glyph glyph-name="uni042C" unicode="&#x42c;" horiz-adv-x="549" 
d="M287 378q116 0 181 -50.5t65 -141.5q0 -90 -64.5 -138t-181.5 -48h-257v14q18 4 25.5 6t16.5 7t11.5 13t2.5 21v499q0 13 -2.5 21t-11.5 13t-16.5 7t-25.5 6v14h180v-14q-18 -4 -25 -6t-16 -7t-12 -13t-3 -21v-129q0 -28 12.5 -40.5t42.5 -12.5h78zM287 22q167 0 167 166
q0 168 -167 168h-78q-30 0 -42.5 -12.5t-12.5 -40.5v-242q0 -29 21 -38q5 -1 16 -1h96z" />
    <glyph glyph-name="uni042D" unicode="&#x42d;" horiz-adv-x="631" 
d="M602 313l-1 -1v-2q0 -144 -95 -232t-223 -88q-93 0 -157 44t-91 93l10 8q42 -47 85 -69.5t103 -22.5q102 0 178.5 56t106.5 152q10 44 -23 44h-232v22h238q31 0 33 55q-3 109 -67.5 172.5t-167.5 63.5q-76 0 -118.5 -41t-42.5 -84q0 -28 -13 -41t-30 -13q-21 0 -35 13.5
t-14 37.5q0 55 65 106t161 51q84 0 157.5 -37t122 -112t49.5 -174z" />
    <glyph glyph-name="uni042E" unicode="&#x42e;" horiz-adv-x="954" 
d="M613 637q136 0 223.5 -92t87.5 -226q0 -137 -92 -233t-229 -96q-135 0 -222 89.5t-89 221.5h-138v-240q0 -13 3 -21t12 -13t16 -7t25 -6v-14h-180v14q18 4 25.5 6t16.5 7t11.5 13t2.5 21v499q0 13 -2.5 21t-11.5 13t-16.5 7t-25.5 6v14h180v-14q-18 -4 -25 -6t-16 -7
t-12 -13t-3 -21v-237h138q6 132 97 223t224 91zM623 15q43 0 81.5 15t71.5 46t53 86.5t20 128.5q0 142 -75 232t-181 90q-92 0 -159 -68t-67 -207q0 -143 74.5 -233t181.5 -90z" />
    <glyph glyph-name="uni042F" unicode="&#x42f;" horiz-adv-x="584" 
d="M553 0h-190v14q29 5 40 8t18.5 12t7.5 27v173q0 29 -16 41t-64 12q-72 0 -113 -30.5t-60 -103.5q-18 -77 -49.5 -115t-93.5 -38h-13v14q27 0 45 32.5t46 129.5q8 36 32.5 70t66.5 46q11 3 0 8q-68 21 -100.5 57t-32.5 97q0 79 57.5 123t173.5 44h245v-14q-18 -4 -25 -6
t-16 -7t-12 -13t-3 -21v-499q0 -13 3 -21t12 -13t16 -7t25 -6v-14zM374 309q30 0 42.5 12.5t12.5 40.5v198q0 25 -9 32t-28 7h-93q-82 0 -117 -38.5t-35 -109.5q0 -142 142 -142h85z" />
    <glyph glyph-name="uni0430" unicode="&#x430;" 
d="M158 -6q-54 0 -91 27.5t-37 82.5q0 30 13 54t45 46.5t92 38.5t147 25q17 0 17 21v26q0 54 -32 89.5t-95 35.5q-87 0 -87 -76q0 -48 -34 -48q-32 0 -32 39q0 47 57.5 76t129.5 29q83 0 118 -39t35 -117v-241q0 -54 49 -40v-12q-24 -16 -51 -16q-59 0 -60 74q1 5 -3 5
q-4 -1 -9 -6q-30 -36 -76.5 -55t-95.5 -19zM203 29q55 0 98 33t43 73v75q0 21 -7.5 30t-32.5 6q-115 -15 -160 -45t-45 -74q0 -39 27.5 -68.5t76.5 -29.5z" />
    <glyph glyph-name="uni0431" unicode="&#x431;" horiz-adv-x="495" 
d="M247 -6q-37 0 -72 15.5t-69 49.5t-55 100.5t-21 156.5q-1 154 57 229.5t183 75.5h65q38 0 53 3.5t26 15.5h11q0 -18 -3.5 -31.5t-7 -22.5t-16.5 -15l-19.5 -9t-29 -4.5t-33 -1.5h-42.5h-53q-70 0 -111.5 -37.5t-41.5 -95.5q0 -48 33 -48q10 0 27 13.5t35 29t50.5 29
t69.5 13.5q83 0 132.5 -59.5t49.5 -164.5q0 -115 -60.5 -178.5t-157.5 -63.5zM254 13q66 0 108.5 51.5t42.5 134.5q0 86 -47.5 148t-119.5 62q-61 0 -97.5 -48.5t-36.5 -130.5q0 -89 41.5 -153t108.5 -64z" />
    <glyph glyph-name="uni0432" unicode="&#x432;" horiz-adv-x="438" 
d="M30 0v12q32 5 43 14t11 37v331q0 24 -12.5 33.5t-41.5 12.5v11h193q72 0 119.5 -26.5t47.5 -78.5q0 -41 -27 -64t-79 -35q58 -10 93.5 -42t35.5 -76q0 -129 -179 -129q-50 0 -85 2t-36 2q-42 0 -83 -4zM169 257h63q43 0 69 21.5t26 61.5q0 41 -26 63.5t-69 22.5h-63
q-25 0 -25 -25v-119q0 -25 25 -25zM176 26h55q61 0 91 26.5t30 70.5q0 108 -168 108h-15q-25 0 -25 -25v-139q0 -23 6.5 -32t25.5 -9z" />
    <glyph glyph-name="uni0433" unicode="&#x433;" horiz-adv-x="417" 
d="M30 0v12q34 5 44 14.5t10 40.5v327q0 24 -12.5 33.5t-41.5 12.5v11h351l15 -99h-11q-14 41 -37.5 57.5t-80.5 16.5h-98q-25 0 -25 -27v-332q0 -30 10.5 -40t44.5 -15v-12h-169z" />
    <glyph glyph-name="uni0434" unicode="&#x434;" horiz-adv-x="551" 
d="M20 -110v125q0 10 10 11q42 6 71.5 42.5t43.5 93.5t20 114t6 123q0 38 -79 41v11h444v-11q-36 -1 -57.5 -12t-21.5 -28v-333q0 -24 16 -33t56 -9q13 0 11 -12l-24 -123h-11q0 75 -24.5 92.5t-114.5 17.5h-173q-102 0 -131.5 -20.5t-29.5 -89.5h-12zM88 25h251
q30 0 44 8.5t14 33.5v330q0 16 -8 22.5t-28 6.5h-136q-18 0 -24.5 -5.5t-6.5 -21.5q0 -140 -27 -242.5t-79 -131.5z" />
    <glyph glyph-name="uni0435" unicode="&#x435;" horiz-adv-x="462" 
d="M419 100l12 -10q-20 -34 -65.5 -65t-109.5 -31q-96 0 -161 65t-65 168q0 104 66.5 168.5t160.5 64.5q76 0 123 -43t47 -104q0 -41 -41.5 -58t-145.5 -19l-121 -2q-14 1 -19 -5.5t-6 -20.5q14 -75 69 -120.5t130 -45.5q81 0 126 58zM240 443q-65 0 -103 -40.5t-45 -114.5
q0 -23 6.5 -29.5t21.5 -6.5l105 2q74 1 104.5 17.5t30.5 51.5q0 56 -31 88t-89 32z" />
    <glyph glyph-name="uni0436" unicode="&#x436;" horiz-adv-x="725" 
d="M613 82q25 -25 36.5 -36t27 -21t28.5 -13v-12h-152v12q40 9 16 34l-135 141q-12 14 -32 14h-10v-134q0 -30 10.5 -40t44.5 -15v-12h-169v12q34 5 44 14.5t10 40.5v134h-10q-20 0 -32 -14l-134 -141q-25 -25 16 -34v-12h-152v12q13 3 28 13.5t26.5 20.5t37.5 36l140 145
q16 16 0 38l-122 142q-10 12 -17.5 13t-12 -5t-14 -13t-21.5 -7t-23 7.5t-11 22.5q0 32 44 32q40 0 79 -51l113 -132q25 -30 56 -30h9v140q0 30 -10 40.5t-44 15.5v11h169v-11q-34 -5 -44.5 -15.5t-10.5 -40.5v-140h10q31 0 56 30l113 132q39 51 79 51q44 0 44 -32
q0 -15 -11 -22.5t-23 -7.5t-22 7t-14.5 13t-11.5 5t-17 -13l-122 -142q-16 -22 0 -38z" />
    <glyph glyph-name="uni0437" unicode="&#x437;" horiz-adv-x="415" 
d="M202 -8q-79 0 -125.5 40.5t-46.5 101.5q0 34 28 34q16 0 21.5 -8.5t9 -32.5t10.5 -41q11 -30 40 -52t72 -22q53 0 83.5 36t30.5 87q0 44 -23.5 70t-60.5 26q-12 0 -56 -17l-7 15q64 23 89 53t25 84q0 74 -77 74q-91 0 -120 -102q-1 -3 -2 -7.5t-1.5 -6.5t-1.5 -5
l-1.5 -4.5t-2 -3t-2.5 -2t-3 -1t-5 -0.5q-13 0 -17 20t0.5 46t12.5 47q71 39 146 39q67 0 99.5 -30.5t32.5 -73.5q0 -33 -19.5 -60t-46.5 -39q47 -6 76.5 -32.5t29.5 -75.5q0 -67 -55 -112t-133 -45z" />
    <glyph glyph-name="uni0438" unicode="&#x438;" horiz-adv-x="549" 
d="M519 440q-35 -5 -45 -15.5t-10 -40.5v-317q0 -31 10 -40.5t45 -14.5v-12h-169v12q34 5 44 15t10 40v281l-260 -269v-12q0 -30 10.5 -40t44.5 -15v-12h-169v12q34 5 44 14.5t10 40.5v317q0 30 -10 40.5t-44 15.5v11h169v-11q-34 -5 -44.5 -15.5t-10.5 -40.5v-279l260 267
v12q0 30 -10 40.5t-44 15.5v11h169v-11z" />
    <glyph glyph-name="uni0439" unicode="&#x439;" horiz-adv-x="549" 
d="M275 569q-61 0 -92.5 32.5t-31.5 78.5q0 11 7 11h3q10 0 10 -7q5 -26 34 -47t70 -21q42 0 71 21t34 47q0 7 10 7h3q7 0 7 -11q0 -46 -32 -78.5t-93 -32.5zM519 440q-35 -5 -45 -15.5t-10 -40.5v-317q0 -31 10 -40.5t45 -14.5v-12h-169v12q34 5 44 15t10 40v281l-260 -269
v-12q0 -30 10.5 -40t44.5 -15v-12h-169v12q34 5 44 14.5t10 40.5v317q0 30 -10 40.5t-44 15.5v11h169v-11q-34 -5 -44.5 -15.5t-10.5 -40.5v-279l260 267v12q0 30 -10 40.5t-44 15.5v11h169v-11z" />
    <glyph glyph-name="uni043A" unicode="&#x43a;" horiz-adv-x="471" 
d="M365 82q25 -25 36.5 -36t26.5 -21t28 -13v-12h-152v12q41 9 16 34l-134 141q-12 14 -32 14h-10v-134q0 -30 10.5 -40t44.5 -15v-12h-169v12q34 5 44 14.5t10 40.5v317q0 30 -10 40.5t-44 15.5v11h169v-11q-34 -5 -44.5 -15.5t-10.5 -40.5v-140h9q32 0 57 30l112 132
q40 51 80 51q44 0 44 -32q0 -15 -11.5 -22.5t-23.5 -7.5t-21.5 7t-14 13t-12 5t-17.5 -13l-121 -142q-17 -21 0 -38z" />
    <glyph glyph-name="uni043B" unicode="&#x43b;" horiz-adv-x="569" 
d="M99 -11q-35 0 -57 14.5t-22 42.5q0 24 14 35t31 11q19 0 25.5 -12.5t4.5 -27t4.5 -27t25.5 -12.5q15 0 26 8t18 24.5t11 32.5t5.5 42t2 42.5t0.5 43.5v178q0 29 -17 40t-62 16v11h430v-11q-35 -5 -45 -15.5t-10 -40.5v-317q0 -31 10 -40.5t45 -14.5v-12h-169v12
q34 5 44 15t10 40v317q0 29 -9.5 35.5t-44.5 6.5h-107q-35 0 -44.5 -6.5t-9.5 -35.5v-164q0 -48 -1.5 -78t-8 -62.5t-18 -50t-32 -29t-50.5 -11.5z" />
    <glyph glyph-name="uni043C" unicode="&#x43c;" horiz-adv-x="596" 
d="M566 440q-34 -5 -44 -15.5t-10 -40.5v-317q0 -31 10 -40.5t44 -14.5v-12h-168v12q34 5 44 15t10 40v335l-173 -365l-174 361v-331q0 -30 10 -40t43 -15v-12h-128v12q34 5 44 14.5t10 40.5v317q0 30 -10 40.5t-44 15.5v11h113l155 -325l154 325h114v-11z" />
    <glyph glyph-name="uni043D" unicode="&#x43d;" horiz-adv-x="564" 
d="M534 440q-35 -5 -45 -15.5t-10 -40.5v-317q0 -31 10 -40.5t45 -14.5v-12h-169v12q34 5 44 15t10 40v145h-275v-145q0 -30 10.5 -40t44.5 -15v-12h-169v12q34 5 44 14.5t10 40.5v317q0 30 -10 40.5t-44 15.5v11h169v-11q-34 -5 -44.5 -15.5t-10.5 -40.5v-147h275v147
q0 30 -10 40.5t-44 15.5v11h169v-11z" />
    <glyph glyph-name="uni043E" unicode="&#x43e;" horiz-adv-x="520" 
d="M258 -6q-94 0 -161 64t-67 166t68.5 169t164.5 67q94 0 160.5 -64t66.5 -166t-68 -169t-164 -67zM284 15q65 0 104.5 46.5t39.5 136.5q0 100 -55 170.5t-137 70.5q-64 0 -104 -46.5t-40 -136.5q0 -99 55 -170t137 -71z" />
    <glyph glyph-name="uni043F" unicode="&#x43f;" horiz-adv-x="569" 
d="M30 0v12q34 5 44 14.5t10 40.5v317q0 30 -10 40.5t-44 15.5v11h509v-11q-35 -5 -45 -15.5t-10 -40.5v-317q0 -31 10 -40.5t45 -14.5v-12h-169v12q34 5 44 15t10 40v317q0 29 -9.5 35.5t-44.5 6.5h-171q-36 0 -45.5 -6.5t-9.5 -35.5v-317q0 -30 10.5 -40t44.5 -15v-12
h-169z" />
    <glyph glyph-name="uni0440" unicode="&#x440;" horiz-adv-x="537" 
d="M312 460q83 0 139 -63t56 -161q0 -112 -63 -177t-153 -65q-28 0 -54 7t-40.5 14t-26 11.5t-15.5 -0.5t-4 -22v-131q0 -25 14 -35t51 -15v-13h-189v13q36 5 50 15t14 35v490q0 37 -11.5 50t-54.5 9v12l95 24q14 4 22.5 -3t8.5 -23v-30q0 -3 1.5 -5.5t5.5 -2t9 6.5
q17 21 57.5 40t87.5 19zM305 13q66 0 104 50t38 133q0 93 -48.5 155t-122.5 62q-48 0 -86.5 -24.5t-38.5 -78.5v-144q0 -72 47.5 -112.5t106.5 -40.5z" />
    <glyph glyph-name="uni0441" unicode="&#x441;" 
d="M259 -6q-94 0 -161.5 65t-67.5 164q0 106 70.5 171.5t172.5 65.5q70 0 113 -36.5t43 -79.5q0 -16 -10.5 -27t-27.5 -11q-36 0 -36 37q0 40 -29 70t-81 30q-68 0 -112 -50.5t-44 -133.5q0 -98 59.5 -157.5t146.5 -59.5q81 0 131 58l12 -10q-20 -34 -66.5 -65t-112.5 -31z
" />
    <glyph glyph-name="uni0442" unicode="&#x442;" horiz-adv-x="430" 
d="M127 0v12q37 5 48 15t11 40v328q0 20 -13 25.5t-50 5.5q-44 0 -59 -14t-32 -59h-12l10 98h370l10 -98h-11q-18 46 -33 59.5t-58 13.5q-36 0 -49 -5.5t-13 -25.5v-328q0 -31 10.5 -40.5t48.5 -14.5v-12h-178z" />
    <glyph glyph-name="uni0443" unicode="&#x443;" horiz-adv-x="509" 
d="M107 -198q-32 0 -49.5 15t-17.5 39q0 21 14 33t32 12q16 0 24 -10.5t8.5 -22.5t5.5 -22.5t18 -10.5q31 0 67 91q11 28 11.5 57t-3 42t-11.5 34l-117 282q-21 53 -34 68.5t-45 28.5v13h180v-13q-42 -13 -48 -28.5t16 -68.5l103 -248q3 -6 8 -6t8 6l56 140
q27 68 38.5 105.5t7.5 58t-13.5 27t-35.5 14.5v13h169v-13q-44 -13 -62 -30.5t-38 -66.5l-175 -426q-28 -65 -44 -83q-27 -30 -73 -30z" />
    <glyph glyph-name="uni0444" unicode="&#x444;" horiz-adv-x="833" 
d="M608 460q83 0 139 -63t56 -161q0 -112 -63 -177t-153 -65q-28 0 -54 7t-40.5 14t-26 11.5t-15.5 -0.5t-4 -22v-131q0 -25 14 -35t51 -15v-13h-189v13q36 5 50 15t14 35v201q-69 -80 -161 -80q-84 0 -140 62.5t-56 160.5q0 113 63 178t154 65q24 0 49 -5t40 -10t27.5 -8
t18 1t5.5 17v106q0 37 -11.5 50t-54.5 9v12l95 24q14 4 22.5 -3t8.5 -23v-228q0 -3 1.5 -5.5t5.5 -2t9 6.5q17 21 57.5 40t87.5 19zM266 42q48 0 84.5 23.5t36.5 76.5v170q0 61 -48 95t-109 34q-65 0 -102.5 -50.5t-37.5 -135.5q0 -95 48 -154t128 -59zM601 13q66 0 104 50
t38 133q0 93 -48.5 155t-122.5 62q-48 0 -86.5 -24.5t-38.5 -78.5v-144q0 -72 47.5 -112.5t106.5 -40.5z" />
    <glyph glyph-name="uni0445" unicode="&#x445;" horiz-adv-x="488" 
d="M473 438q-48 -12 -71.5 -30t-70.5 -79l-62 -86l97 -139q30 -42 52.5 -61.5t54.5 -29.5v-13h-188v13q27 7 34.5 18.5t1.5 27t-28 45.5l-62 88q-47 -65 -63 -102t-8.5 -53t36.5 -24v-13h-181v13q47 12 71.5 31t70.5 79l63 86l-96 138q-30 42 -52.5 61.5t-54.5 29.5v13h188
v-13q-27 -8 -35 -18.5t-2 -26.5t28 -46l61 -87q48 65 64 102t8.5 52.5t-37.5 23.5v13h181v-13z" />
    <glyph glyph-name="uni0446" unicode="&#x446;" horiz-adv-x="578" 
d="M531 -110q0 76 -27.5 93t-136.5 17h-337v12q34 5 44 14.5t10 40.5v317q0 30 -10 40.5t-44 15.5v11h169v-11q-34 -5 -44.5 -15.5t-10.5 -40.5v-317q0 -28 10 -35t45 -7h168q7 0 19 -1t16.5 -0.5t11 2.5t8.5 8.5t2 16.5v333q0 30 -10 40.5t-44 15.5v11h169v-11
q-35 -5 -45 -15.5t-10 -40.5v-334q0 -11 2 -17t8.5 -8t12.5 -2t21 1t26 1q7 0 10.5 -3t2.5 -9l-24 -123h-12z" />
    <glyph glyph-name="uni0447" unicode="&#x447;" horiz-adv-x="535" 
d="M505 429q-32 -5 -43 -14.5t-11 -36.5v-305q0 -27 11 -36.5t43 -14.5v-22h-177v22q32 5 43 14.5t11 36.5v106q0 16 -7 16q-3 -1 -35 -26q-63 -51 -128 -51q-59 0 -98.5 40t-39.5 137v83q0 27 -11 36.5t-43 14.5v22h177v-22q-32 -5 -43 -14.5t-11 -36.5v-83q0 -60 29 -100
t80 -40q52 0 91 43t39 99v81q0 27 -11 36.5t-43 14.5v22h177v-22z" />
    <glyph glyph-name="uni0448" unicode="&#x448;" horiz-adv-x="690" 
d="M30 0v12q34 5 44 14.5t10 40.5v317q0 30 -10 40.5t-44 15.5v11h169v-11q-34 -5 -44.5 -15.5t-10.5 -40.5v-317q0 -28 10 -35t45 -7h61q36 0 45.5 7t9.5 35v317q0 30 -10 40.5t-45 15.5v11h170v-11q-34 -5 -44.5 -15.5t-10.5 -40.5v-317q0 -28 10 -35t45 -7h61
q36 0 45.5 7t9.5 35v317q0 30 -10 40.5t-45 15.5v11h169v-11q-34 -5 -44 -15.5t-10 -40.5v-317q0 -30 10 -40t44 -15v-12h-630z" />
    <glyph glyph-name="uni0449" unicode="&#x449;" horiz-adv-x="700" 
d="M676 25q7 0 10.5 -3t2.5 -9l-24 -123h-11q0 75 -28 92.5t-137 17.5h-459v12q34 5 44 14.5t10 40.5v317q0 30 -10 40.5t-44 15.5v11h169v-11q-34 -5 -44.5 -15.5t-10.5 -40.5v-317q0 -28 10 -35t45 -7h61q36 0 45.5 7t9.5 35v317q0 30 -10 40.5t-45 15.5v11h170v-11
q-34 -5 -44.5 -15.5t-10.5 -40.5v-317q0 -28 10 -35t45 -7h61q36 0 45.5 7t9.5 35v317q0 30 -10 40.5t-45 15.5v11h169v-11q-34 -5 -44 -15.5t-10 -40.5v-317q0 -34 14 -43q8 -1 13 -1t19 1t24 1z" />
    <glyph glyph-name="uni044A" unicode="&#x44a;" horiz-adv-x="513" 
d="M287 313q87 0 144 -41.5t57 -116.5t-57 -115t-144 -40h-194v12q34 5 44 14.5t10 40.5v317v14q-2 15 -11.5 21.5t-33.5 6.5q-28 0 -45.5 -11.5t-29.5 -40.5h-12l11 77h236v-11q-34 -5 -44.5 -15.5t-10.5 -40.5v-51q0 -8 6 -14t14 -6h60zM285 23q69 0 101.5 37.5t32.5 94.5
q0 58 -32 95.5t-101 37.5h-59q-8 0 -14 -6t-6 -14v-201q0 -27 13.5 -35.5t64.5 -8.5z" />
    <glyph glyph-name="uni044B" unicode="&#x44b;" horiz-adv-x="654" 
d="M30 0v12q34 5 44 14.5t10 40.5v317q0 30 -10 40.5t-44 15.5v11h169v-11q-34 -5 -44.5 -15.5t-10.5 -40.5v-51q0 -8 6 -14t14 -6h60q87 0 144 -41.5t57 -116.5t-57 -115t-144 -40h-194zM455 0v12q34 5 44 15t10 40v317q0 30 -10 40.5t-44 15.5v11h169v-11
q-35 -5 -45 -15.5t-10 -40.5v-317q0 -31 10 -40.5t45 -14.5v-12h-169zM222 23q69 0 101.5 37.5t32.5 94.5q0 58 -32 95.5t-101 37.5h-59q-8 0 -14 -6t-6 -14v-201q0 -27 13.5 -35.5t64.5 -8.5z" />
    <glyph glyph-name="uni044C" unicode="&#x44c;" horiz-adv-x="441" 
d="M30 0v12q34 5 44 14.5t10 40.5v317q0 30 -10 40.5t-44 15.5v11h169v-11q-34 -5 -44.5 -15.5t-10.5 -40.5v-51q0 -8 6 -14t14 -6h60q87 0 144 -41.5t57 -116.5t-57 -115t-144 -40h-194zM222 23q69 0 101.5 37.5t32.5 94.5q0 58 -32 95.5t-101 37.5h-59q-8 0 -14 -6t-6 -14
v-201q0 -27 13.5 -35.5t64.5 -8.5z" />
    <glyph glyph-name="uni044D" unicode="&#x44d;" 
d="M200 460q102 0 172.5 -65.5t70.5 -171.5q0 -99 -67.5 -164t-161.5 -65q-66 0 -112.5 31t-66.5 65l12 10q50 -58 131 -58q78 0 134.5 48t68.5 130h-164v21h166q1 6 1 18q0 83 -44 133.5t-112 50.5q-52 0 -81 -30t-29 -70q0 -37 -36 -37q-16 0 -27 11t-11 27q0 43 43 79.5
t113 36.5z" />
    <glyph glyph-name="uni044E" unicode="&#x44e;" horiz-adv-x="735" 
d="M477 460q94 0 161 -64t67 -166t-68.5 -169t-163.5 -67q-94 0 -160.5 63.5t-67.5 163.5h-101v-154q0 -30 10.5 -40t44.5 -15v-12h-169v12q34 5 44 14.5t10 40.5v317q0 30 -10 40.5t-44 15.5v11h169v-11q-34 -5 -44.5 -15.5t-10.5 -40.5v-149h101q4 98 71.5 161.5
t160.5 63.5zM499 15q65 0 104.5 46.5t39.5 136.5q0 99 -55 170t-137 71q-65 0 -104.5 -46.5t-39.5 -136.5q0 -100 55 -170.5t137 -70.5z" />
    <glyph glyph-name="uni044F" unicode="&#x44f;" horiz-adv-x="491" 
d="M461 440q-34 -5 -44.5 -15.5t-10.5 -40.5v-317q0 -30 10.5 -40t44.5 -15v-12h-169v12q34 5 44 14.5t10 40.5v134h-92q-41 0 -58 -18.5t-30 -67.5q-15 -58 -46 -86.5t-94 -28.5h-11v12q25 4 49 32.5t34 72.5q8 40 25.5 61t63.5 28q-57 7 -92.5 40.5t-35.5 77.5
q0 56 39 91.5t114 35.5h249v-11zM246 226h100v158q0 29 -9 35.5t-45 6.5h-62q-99 0 -99 -102q0 -98 115 -98z" />
    <glyph glyph-name="uni0450" unicode="&#x450;" horiz-adv-x="462" 
d="M134 604q-12 7 -18.5 15.5t-7 15.5t1 12t4.5 9q20 25 49 -4l102 -103q11 -10 11 -20q-3 -8 -27 5zM419 100l12 -10q-20 -34 -65.5 -65t-109.5 -31q-96 0 -161 65t-65 168q0 104 66.5 168.5t160.5 64.5q76 0 123 -43t47 -104q0 -41 -41.5 -58t-145.5 -19l-121 -2
q-14 1 -19 -5.5t-6 -20.5q14 -75 69 -120.5t130 -45.5q81 0 126 58zM240 443q-65 0 -103 -40.5t-45 -114.5q0 -23 6.5 -29.5t21.5 -6.5l105 2q74 1 104.5 17.5t30.5 51.5q0 56 -31 88t-89 32z" />
    <glyph glyph-name="uni0451" unicode="&#x451;" horiz-adv-x="462" 
d="M148 588q-15 0 -27 13t-12 29q0 14 12 26.5t27 12.5q16 0 28 -12.5t12 -26.5q0 -17 -12 -29.5t-28 -12.5zM316 588q-15 0 -27 13t-12 29q0 14 12 26.5t27 12.5q16 0 28 -12.5t12 -26.5q0 -17 -12 -29.5t-28 -12.5zM419 100l12 -10q-20 -34 -65.5 -65t-109.5 -31
q-96 0 -161 65t-65 168q0 104 66.5 168.5t160.5 64.5q76 0 123 -43t47 -104q0 -41 -41.5 -58t-145.5 -19l-121 -2q-14 1 -19 -5.5t-6 -20.5q14 -75 69 -120.5t130 -45.5q81 0 126 58zM240 443q-65 0 -103 -40.5t-45 -114.5q0 -23 6.5 -29.5t21.5 -6.5l105 2q74 1 104.5 17.5
t30.5 51.5q0 56 -31 88t-89 32z" />
    <glyph glyph-name="uni0453" unicode="&#x453;" horiz-adv-x="417" 
d="M184 549q-11 -10 -11 -20q3 -8 27 5l115 70q12 7 18.5 15.5t7 15.5t-1 12t-4.5 9q-21 25 -50 -4zM30 0v12q34 5 44 14.5t10 40.5v327q0 24 -12.5 33.5t-41.5 12.5v11h351l15 -99h-11q-14 41 -37.5 57.5t-80.5 16.5h-98q-25 0 -25 -27v-332q0 -30 10.5 -40t44.5 -15v-12
h-169z" />
    <glyph glyph-name="uni0454" unicode="&#x454;" 
d="M426 100l12 -10q-20 -34 -66.5 -65t-112.5 -31q-94 0 -161.5 65t-67.5 164q0 106 70.5 171.5t172.5 65.5q70 0 113 -36.5t43 -79.5q0 -16 -10.5 -27t-27.5 -11q-36 0 -36 37q0 40 -29 70t-81 30q-68 0 -112 -50.5t-44 -133.5q0 -12 1 -18h167v-21h-165q12 -82 68.5 -130
t134.5 -48q81 0 131 58z" />
    <glyph glyph-name="uni0455" unicode="&#x455;" horiz-adv-x="405" 
d="M186 -6q-64 0 -112.5 28.5t-48.5 82.5q0 45 34 45q12 0 21.5 -9t9.5 -18q0 -56 36.5 -84t85.5 -28q101 0 101 85q0 19 -9.5 35t-19 25t-34 20t-33 14t-38.5 12q-61 19 -100.5 49.5t-39.5 84.5q0 55 44 89.5t120 34.5q69 0 114.5 -27.5t45.5 -73.5q0 -18 -10 -30.5
t-28 -12.5q-29 0 -29 34q0 39 -33.5 66t-75.5 27q-45 0 -65.5 -19.5t-20.5 -58.5q0 -24 7.5 -41.5t26 -29.5t34 -19t46.5 -18q33 -11 46 -15.5t41.5 -18t41.5 -25.5t24.5 -32.5t11.5 -44.5q0 -53 -54.5 -90t-139.5 -37z" />
    <glyph glyph-name="uni0456" unicode="&#x456;" horiz-adv-x="241" 
d="M112 588q-15 0 -27 13t-12 29q0 14 12 26.5t27 12.5q16 0 28 -12.5t12 -26.5q0 -17 -12 -29.5t-28 -12.5zM27 0v13q36 5 50 15.5t14 34.5v300q0 37 -11.5 50t-54.5 9v12l95 24q14 4 22.5 -3t8.5 -23v-369q0 -24 14 -34.5t51 -15.5v-13h-189z" />
    <glyph glyph-name="uni0457" unicode="&#x457;" horiz-adv-x="241" 
d="M24 588q-15 0 -27 13t-12 29q0 14 12 26.5t27 12.5q16 0 28 -12.5t12 -26.5q0 -17 -12 -29.5t-28 -12.5zM192 588q-15 0 -27 13t-12 29q0 14 12 26.5t27 12.5q16 0 28 -12.5t12 -26.5q0 -17 -12 -29.5t-28 -12.5zM27 0v13q36 5 50 15.5t14 34.5v300q0 37 -11.5 50
t-54.5 9v12l95 24q14 4 22.5 -3t8.5 -23v-369q0 -24 14 -34.5t51 -15.5v-13h-189z" />
    <glyph glyph-name="uni0458" unicode="&#x458;" horiz-adv-x="203" 
d="M99 588q-15 0 -27 13t-12 29q0 14 12 26.5t27 12.5t27.5 -12.5t12.5 -26.5q0 -17 -12 -29.5t-28 -12.5zM29 -199q-34 0 -57 14t-23 39q0 33 33 33q9 0 20.5 -16.5t25 -32.5t27.5 -16q23 0 23 52v489q0 37 -11.5 50t-54.5 9v12l95 24q14 4 22.5 -3t8.5 -23v-502
q0 -60 -28.5 -94.5t-80.5 -34.5z" />
    <glyph glyph-name="uni045E" unicode="&#x45e;" horiz-adv-x="509" 
d="M257 569q-61 0 -92.5 32.5t-31.5 78.5q0 11 7 11h3q10 0 10 -7q5 -26 34 -47t70 -21q42 0 71 21t34 47q0 7 10 7h3q7 0 7 -11q0 -46 -32 -78.5t-93 -32.5zM107 -198q-32 0 -49.5 15t-17.5 39q0 21 14 33t32 12q16 0 24 -10.5t8.5 -22.5t5.5 -22.5t18 -10.5q31 0 67 91
q11 28 11.5 57t-3 42t-11.5 34l-117 282q-21 53 -34 68.5t-45 28.5v13h180v-13q-42 -13 -48 -28.5t16 -68.5l103 -248q3 -6 8 -6t8 6l56 140q27 68 38.5 105.5t7.5 58t-13.5 27t-35.5 14.5v13h169v-13q-44 -13 -62 -30.5t-38 -66.5l-175 -426q-28 -65 -44 -83
q-27 -30 -73 -30z" />
    <glyph glyph-name="uni0490" unicode="&#x490;" horiz-adv-x="498" 
d="M30 0v14q18 4 25.5 6t16.5 7t11.5 13t2.5 21v499q0 13 -2.5 21t-11.5 13t-16.5 7t-25.5 6v14h329q25 0 43 4.5t23 6.5t18 14l13 13h17l-21 -59h-242q-29 0 -42.5 -9t-13.5 -31v-499q0 -18 8 -27t19 -12t39 -8v-14h-190z" />
    <glyph glyph-name="uni0491" unicode="&#x491;" horiz-adv-x="411" 
d="M30 0v12q34 5 44 14.5t10 40.5v327q0 24 -12.5 33.5t-41.5 12.5v11h237q56 0 79 11.5t34 40.5h11l-10 -77h-212q-25 0 -25 -27v-332q0 -30 10.5 -40t44.5 -15v-12h-169z" />
    <glyph glyph-name="uni04E8" unicode="&#x4e8;" horiz-adv-x="693" 
d="M351 637q137 0 224.5 -92t87.5 -226q0 -137 -92 -233t-229 -96q-136 0 -224 92t-88 226q0 137 92 233t229 96zM331 613q-92 0 -159 -68t-67 -207v-14h482q-10 129 -83 209t-173 80zM361 15q93 0 160 68t67 208v11h-482q10 -129 83 -208t172 -79z" />
    <glyph glyph-name="uni04E9" unicode="&#x4e9;" horiz-adv-x="520" 
d="M263 460q94 0 160.5 -64t66.5 -166t-68 -169t-164 -67q-94 0 -161 64t-67 166t68.5 169t164.5 67zM236 439q-64 0 -104 -46.5t-40 -136.5q0 -13 1 -20h333q-11 87 -63.5 145t-126.5 58zM284 15q65 0 104.5 46.5t39.5 136.5q0 15 -1 22h-333q11 -88 63.5 -146.5
t126.5 -58.5z" />
    <glyph glyph-name="Wgrave" unicode="&#x1e80;" horiz-adv-x="1003" 
d="M531 719l-102 103q-29 29 -49 4q-3 -4 -4.5 -9t-1 -12t7 -15.5t18.5 -15.5l115 -70q24 -13 27 -5q0 10 -11 20zM311 0l-197 518q-20 51 -37.5 67.5t-56.5 20.5v15h198v-14q-45 -8 -52 -20t7 -42l169 -445q10 -24 20 0l114 298q5 12 6 25t-2 26t-5.5 21.5t-7.5 20t-6 13.5
q-24 60 -41.5 79t-58.5 23v15h199v-14q-45 -8 -52 -20t7 -42l168 -445q10 -24 20 0l168 441q11 30 -4.5 45.5t-57.5 20.5v14h174v-14q-36 -7 -53.5 -19t-30.5 -44l-184 -479q-16 -44 -16 -65h-47l-150 398l-128 -333q-16 -44 -16 -65h-47z" />
    <glyph glyph-name="wgrave" unicode="&#x1e81;" horiz-adv-x="726" 
d="M453 549l-102 103q-27 27 -50 4q-18 -29 20 -52l116 -70q24 -13 26 -5t-10 20zM229 0l-140 341q-21 53 -34 68.5t-45 28.5v13h178v-13q-42 -13 -47.5 -28.5t15.5 -68.5l98 -240q12 -23 20 0l38 100q32 91 4 158q-15 34 -29.5 50t-49.5 29v13h177v-13q-41 -13 -46.5 -28.5
t14.5 -68.5l99 -240q11 -22 19 0l49 132q34 92 41.5 132t-1.5 51.5t-42 21.5v13h169v-13q-43 -13 -60.5 -30t-38.5 -67l-140 -341h-22l-103 250l-101 -250h-22z" />
    <glyph glyph-name="Wacute" unicode="&#x1e82;" horiz-adv-x="1003" 
d="M483 719q-11 -10 -11 -20q3 -8 27 5l115 70q12 7 18.5 15.5t7 15.5t-1 12t-4.5 9q-21 25 -50 -4zM311 0l-197 518q-20 51 -37.5 67.5t-56.5 20.5v15h198v-14q-45 -8 -52 -20t7 -42l169 -445q10 -24 20 0l114 298q5 12 6 25t-2 26t-5.5 21.5t-7.5 20t-6 13.5
q-24 60 -41.5 79t-58.5 23v15h199v-14q-45 -8 -52 -20t7 -42l168 -445q10 -24 20 0l168 441q11 30 -4.5 45.5t-57.5 20.5v14h174v-14q-36 -7 -53.5 -19t-30.5 -44l-184 -479q-16 -44 -16 -65h-47l-150 398l-128 -333q-16 -44 -16 -65h-47z" />
    <glyph glyph-name="wacute" unicode="&#x1e83;" horiz-adv-x="726" 
d="M358 549q-12 -12 -10 -20t26 5l116 70q16 10 21 21.5t3.5 18.5t-5.5 12q-20 25 -49 -4zM229 0l-140 341q-21 53 -34 68.5t-45 28.5v13h178v-13q-42 -13 -47.5 -28.5t15.5 -68.5l98 -240q12 -23 20 0l38 100q32 91 4 158q-15 34 -29.5 50t-49.5 29v13h177v-13
q-41 -13 -46.5 -28.5t14.5 -68.5l99 -240q11 -22 19 0l49 132q34 92 41.5 132t-1.5 51.5t-42 21.5v13h169v-13q-43 -13 -60.5 -30t-38.5 -67l-140 -341h-22l-103 250l-101 -250h-22z" />
    <glyph glyph-name="Wdieresis" unicode="&#x1e84;" horiz-adv-x="1003" 
d="M413 758q-15 0 -27 13t-12 29q0 14 12 26.5t27 12.5t27.5 -12.5t12.5 -26.5q0 -17 -12 -29.5t-28 -12.5zM581 758q-15 0 -27 13t-12 29q0 14 12 26.5t27 12.5t27.5 -12.5t12.5 -26.5q0 -17 -12 -29.5t-28 -12.5zM311 0l-197 518q-20 51 -37.5 67.5t-56.5 20.5v15h198v-14
q-45 -8 -52 -20t7 -42l169 -445q10 -24 20 0l114 298q5 12 6 25t-2 26t-5.5 21.5t-7.5 20t-6 13.5q-24 60 -41.5 79t-58.5 23v15h199v-14q-45 -8 -52 -20t7 -42l168 -445q10 -24 20 0l168 441q11 30 -4.5 45.5t-57.5 20.5v14h174v-14q-36 -7 -53.5 -19t-30.5 -44l-184 -479
q-16 -44 -16 -65h-47l-150 398l-128 -333q-16 -44 -16 -65h-47z" />
    <glyph glyph-name="wdieresis" unicode="&#x1e85;" horiz-adv-x="726" 
d="M288 588q-15 0 -27 13t-12 29q0 14 12 26.5t27 12.5q16 0 28 -12.5t12 -26.5q0 -17 -12 -29.5t-28 -12.5zM456 588q-15 0 -27 13t-12 29q0 14 12 26.5t27 12.5q16 0 28 -12.5t12 -26.5q0 -17 -12 -29.5t-28 -12.5zM229 0l-140 341q-21 53 -34 68.5t-45 28.5v13h178v-13
q-42 -13 -47.5 -28.5t15.5 -68.5l98 -240q12 -23 20 0l38 100q32 91 4 158q-15 34 -29.5 50t-49.5 29v13h177v-13q-41 -13 -46.5 -28.5t14.5 -68.5l99 -240q11 -22 19 0l49 132q34 92 41.5 132t-1.5 51.5t-42 21.5v13h169v-13q-43 -13 -60.5 -30t-38.5 -67l-140 -341h-22
l-103 250l-101 -250h-22z" />
    <glyph glyph-name="uni1EBC" unicode="&#x1ebc;" horiz-adv-x="547" 
d="M347 727q-43 0 -104 30t-78 30t-28.5 -12t-11.5 -34h-17q0 47 26 73t63 26q41 0 102 -30t80 -30q16 0 27.5 13t11.5 33h17q0 -47 -26.5 -73t-61.5 -26zM30 0v14q18 4 25.5 6t16.5 7t11.5 13t2.5 21v499q0 13 -2.5 21t-11.5 13t-16.5 7t-25.5 6v14h438q15 0 16 -13
q5 -42 19 -102h-17q-16 46 -47 67.5t-83 21.5h-140q-34 0 -48 -7t-14 -31v-189q0 -24 14 -31t48 -7h115q39 0 54 16.5t22 52.5h14v-167h-14q-7 37 -22 54t-54 17h-115q-34 0 -48 -7t-14 -31v-200q0 -25 21 -32.5t85 -5.5l117 1q51 1 73.5 13.5t35.5 35.5l24 38h17
q-23 -45 -30 -101q-2 -14 -16 -14h-451z" />
    <glyph glyph-name="uni1EBD" unicode="&#x1ebd;" horiz-adv-x="462" 
d="M126 617q-17 0 -28.5 -12t-11.5 -34h-17q0 47 26 73t63 26q41 0 102 -30t80 -30q16 0 27.5 13t11.5 33h17q0 -47 -26.5 -73t-61.5 -26q-43 0 -104 30t-78 30zM419 100l12 -10q-20 -34 -65.5 -65t-109.5 -31q-96 0 -161 65t-65 168q0 104 66.5 168.5t160.5 64.5
q76 0 123 -43t47 -104q0 -41 -41.5 -58t-145.5 -19l-121 -2q-14 1 -19 -5.5t-6 -20.5q14 -75 69 -120.5t130 -45.5q81 0 126 58zM240 443q-65 0 -103 -40.5t-45 -114.5q0 -23 6.5 -29.5t21.5 -6.5l105 2q74 1 104.5 17.5t30.5 51.5q0 56 -31 88t-89 32z" />
    <glyph glyph-name="Ygrave" unicode="&#x1ef2;" horiz-adv-x="619" 
d="M343 719l-102 103q-29 29 -49 4q-3 -4 -4.5 -9t-1 -12t7 -15.5t18.5 -15.5l115 -70q24 -13 27 -5q0 10 -11 20zM199 0v14q33 5 46 8t21.5 12t8.5 27v189q0 6 -2 12.5t-4 10t-7 12t-8 13.5l-136 218q-28 45 -49 62t-54 29v14h195v-14q-39 -10 -43.5 -25.5t14.5 -42.5
l140 -223q7 -9 14 0l129 217q14 22 16 36.5t-7 22t-18 10.5t-26 5v14h175v-14q-38 -4 -60 -18.5t-52 -64.5l-136 -223q-13 -19 -13 -51v-189q0 -18 8.5 -27t21.5 -12t46 -8v-14h-220z" />
    <glyph glyph-name="ygrave" unicode="&#x1ef3;" horiz-adv-x="509" 
d="M290 549l-102 103q-29 29 -49 4q-3 -4 -4.5 -9t-1 -12t7 -15.5t18.5 -15.5l115 -70q24 -13 27 -5q0 10 -11 20zM107 -198q-32 0 -49.5 15t-17.5 39q0 21 14 33t32 12q16 0 24 -10.5t8.5 -22.5t5.5 -22.5t18 -10.5q31 0 67 91q11 28 11.5 57t-3 42t-11.5 34l-117 282
q-21 53 -34 68.5t-45 28.5v13h180v-13q-42 -13 -48 -28.5t16 -68.5l103 -248q3 -6 8 -6t8 6l56 140q27 68 38.5 105.5t7.5 58t-13.5 27t-35.5 14.5v13h169v-13q-44 -13 -62 -30.5t-38 -66.5l-175 -426q-28 -65 -44 -83q-27 -30 -73 -30z" />
    <glyph glyph-name="endash" unicode="&#x2013;" horiz-adv-x="682" 
d="M50 268h582v-6h-582v6z" />
    <glyph glyph-name="emdash" unicode="&#x2014;" horiz-adv-x="919" 
d="M50 268h819v-6h-819v6z" />
    <glyph glyph-name="uni2015" unicode="&#x2015;" horiz-adv-x="919" 
d="M50 268h819v-6h-819v6z" />
    <glyph glyph-name="quoteleft" unicode="&#x2018;" horiz-adv-x="158" 
d="M91 639l9 -11q-11 -10 -20.5 -27.5t-9.5 -27.5q0 -18 15 -18q18 0 30.5 -12.5t12.5 -31.5q0 -21 -14 -33t-32 -12q-25 0 -38.5 19t-13.5 45q0 29 16 60t45 49z" />
    <glyph glyph-name="quoteright" unicode="&#x2019;" horiz-adv-x="158" 
d="M67 464l-8 11q11 10 20.5 27.5t9.5 27.5q0 18 -15 18q-18 0 -31 12.5t-13 31.5q0 21 14 33t33 12q25 0 38 -18.5t13 -45.5q0 -29 -15.5 -60t-45.5 -49z" />
    <glyph glyph-name="quotesinglbase" unicode="&#x201a;" horiz-adv-x="158" 
d="M67 -83l-8 10q11 10 20.5 27.5t9.5 28.5q0 18 -15 18q-19 0 -31.5 12t-12.5 32q0 21 14 33t33 12q25 0 38 -19t13 -45q0 -29 -15.5 -60t-45.5 -49z" />
    <glyph glyph-name="quotedblleft" unicode="&#x201c;" horiz-adv-x="291" 
d="M91 637l9 -11q-11 -10 -20.5 -27.5t-9.5 -27.5q0 -18 15 -18q18 0 30.5 -12.5t12.5 -31.5q0 -21 -14 -33t-32 -12q-25 0 -38.5 19t-13.5 45q0 29 16 60t45 49zM224 637l9 -11q-11 -10 -21 -27.5t-10 -27.5q0 -18 16 -18q18 0 30.5 -12.5t12.5 -31.5q0 -21 -14 -33
t-33 -12q-25 0 -38 18.5t-13 45.5q0 29 15.5 60t45.5 49z" />
    <glyph glyph-name="quotedblright" unicode="&#x201d;" horiz-adv-x="291" 
d="M67 464l-8 11q11 10 20.5 27.5t9.5 27.5q0 18 -15 18q-18 0 -31 12.5t-13 31.5q0 21 14 33t33 12q25 0 38 -18.5t13 -45.5q0 -29 -15.5 -60t-45.5 -49zM200 464l-9 11q11 10 20.5 27.5t9.5 27.5q0 18 -15 18q-18 0 -30.5 12.5t-12.5 31.5q0 21 14 33t32 12q25 0 38.5 -19
t13.5 -45q0 -29 -16 -60t-45 -49z" />
    <glyph glyph-name="quotedblbase" unicode="&#x201e;" horiz-adv-x="286" 
d="M67 -83l-8 10q11 10 20.5 27.5t9.5 28.5q0 18 -15 18q-19 0 -31.5 12t-12.5 32q0 21 14 33t33 12q25 0 38 -19t13 -45q0 -29 -15.5 -60t-45.5 -49zM195 -83l-8 10q11 10 20.5 27.5t9.5 28.5q0 18 -15 18q-19 0 -31.5 12t-12.5 32q0 21 14 33t33 12q25 0 38 -19t13 -45
q0 -29 -15.5 -60t-45.5 -49z" />
    <glyph glyph-name="dagger" unicode="&#x2020;" horiz-adv-x="460" 
d="M361 503q19 0 34 -15.5t15 -36.5q0 -20 -15 -36t-34 -16q-8 0 -45.5 21t-73.5 19l2 -46l50 -51l-61 -204h-6l-61 204l50 51l2 46q-36 2 -73.5 -19t-45.5 -21q-19 0 -34 16t-15 36q0 21 15 36.5t34 15.5q8 0 46 -21t75 -18q4 33 -17.5 70t-21.5 46q0 21 15 36.5t34 15.5
t34 -15.5t15 -36.5q0 -9 -21 -46t-18 -70q37 -3 75.5 18t45.5 21z" />
    <glyph glyph-name="daggerdbl" unicode="&#x2021;" horiz-adv-x="460" 
d="M361 203q19 0 34 -15.5t15 -36.5q0 -20 -15 -36t-34 -16q-10 0 -28 11.5t-43 21.5t-52 8q-2 -32 19.5 -70t21.5 -48q0 -21 -15 -36.5t-34 -15.5t-34 15.5t-15 36.5q0 10 21.5 48t19.5 70q-36 3 -75.5 -19t-47.5 -22q-19 0 -34 16t-15 36q0 21 15 36.5t34 15.5
q8 0 47.5 -22t75.5 -19v43l-54 97l54 95v43q-36 3 -75.5 -19t-47.5 -22q-19 0 -34 16t-15 36q0 21 15 36.5t34 15.5q8 0 47.5 -22t75.5 -19q2 32 -19.5 70t-21.5 48q0 21 15 36.5t34 15.5t34 -15.5t15 -36.5q0 -10 -21.5 -48t-19.5 -70q27 -2 52 8t43 21.5t28 11.5
q19 0 34 -15.5t15 -36.5q0 -20 -15 -36t-34 -16q-10 0 -28 11.5t-43 21.5t-52 8v-43l54 -96l-54 -96v-43q27 -2 52 8t43 21.5t28 11.5z" />
    <glyph glyph-name="bullet" unicode="&#x2022;" horiz-adv-x="245" 
d="M122 232q-25 0 -43.5 18.5t-18.5 43.5t18.5 43.5t43.5 18.5t44 -18.5t19 -43.5t-18.5 -43.5t-44.5 -18.5z" />
    <glyph glyph-name="ellipsis" unicode="&#x2026;" horiz-adv-x="490" 
d="M87 -6q-19 0 -33 14.5t-14 33.5t14 33.5t33 14.5t33.5 -14t14.5 -34t-14.5 -34t-33.5 -14zM245 -6q-19 0 -33 14t-14 34t14 34t33 14t33 -14t14 -34t-14 -34t-33 -14zM402 -6q-19 0 -33 14.5t-14 33.5t14 33.5t33 14.5q20 0 34 -14t14 -34t-14 -34t-34 -14z" />
    <glyph glyph-name="perthousand" unicode="&#x2030;" horiz-adv-x="888" 
d="M500 621h22l-399 -621h-64l429 604q-27 -20 -54.5 -29t-61.5 -4.5t-49.5 8t-54.5 15.5q26 -31 26 -77q0 -59 -46.5 -107t-102.5 -48q-43 0 -69 33t-26 78q0 59 46 107t101 48q47 0 91.5 -11.5t69 -20.5t61.5 -5t81 30zM168 381q35 0 51.5 35t16.5 88q0 105 -60 105
q-35 0 -51.5 -35t-16.5 -88q0 -105 60 -105zM463 255q44 0 70 -33t26 -78q0 -59 -46 -107t-102 -48q-43 0 -69 33t-26 78q0 59 46 107t101 48zM741 255q44 0 70.5 -33t26.5 -78q0 -59 -46.5 -107t-102.5 -48q-43 0 -69 33t-26 78q0 59 46 107t101 48zM434 8q34 0 50.5 35
t16.5 88q0 105 -60 105q-35 0 -51.5 -35t-16.5 -88q0 -105 61 -105zM712 8q35 0 51.5 35t16.5 88q0 105 -60 105q-35 0 -51.5 -35t-16.5 -88q0 -105 60 -105z" />
    <glyph glyph-name="guilsinglleft" unicode="&#x2039;" horiz-adv-x="235" 
d="M50 308l126 110l9 -6l-74 -104l74 -104l-9 -6z" />
    <glyph glyph-name="guilsinglright" unicode="&#x203a;" horiz-adv-x="235" 
d="M185 308l-126 -110l-9 6l75 104l-75 104l9 6z" />
    <glyph glyph-name="fraction" unicode="&#x2044;" horiz-adv-x="143" 
d="M-159 -5l432 641h45l-433 -641h-44z" />
    <glyph glyph-name="Euro" unicode="&#x20ac;" horiz-adv-x="688" 
d="M643 135l10 -8q-27 -49 -91 -93t-157 -44q-115 0 -205.5 72t-108.5 194h-61v16h59q-2 24 -2 38q0 15 1 23h-58v16h59q14 132 109.5 210t217.5 78q96 0 160.5 -51t64.5 -106q0 -24 -13.5 -37.5t-35.5 -13.5q-17 0 -29.5 13.5t-12.5 40.5q0 43 -42.5 84t-118.5 41
q-105 0 -170 -66.5t-65 -179.5v-13h282v-16h-281q3 -36 10 -61h271v-16h-267q29 -97 106 -155t180 -58q60 0 103 22.5t85 69.5z" />
    <glyph glyph-name="trademark" unicode="&#x2122;" horiz-adv-x="578" 
d="M38 621h216l8 -61h-15q-14 29 -27 36q-10 4 -21 4q-28 0 -28 -26v-129q0 -20 8.5 -27.5t27.5 -9.5v-14h-122v14q19 2 27.5 9.5t8.5 27.5v129q0 26 -28 26q-12 0 -20 -3t-14.5 -11.5t-7.5 -11t-7 -14.5h-14zM548 607q-16 -2 -21 -11t-5 -32v-113q0 -23 5 -32t21 -11v-14
h-103v14q16 2 21.5 11.5t5.5 31.5v107l-67 -140h-7l-66 128v-95q0 -21 6 -31t21 -12v-14h-78v14q17 2 22 11.5t5 31.5v113q0 22 -5.5 31.5t-21.5 11.5v14h65l69 -132l63 132h70v-14z" />
    <glyph glyph-name="oneeighth" unicode="&#x215b;" horiz-adv-x="570" 
d="M32 392v14q29 2 29 18v181l-31 -10v20l56 25q13 3 15.5 0t3.5 -12v-1.5v-1.5v-201q0 -16 29 -18v-14h-102zM5 -5l432 641h45l-432 -641h-45zM437 -11q-38 0 -66.5 24.5t-28.5 55.5q0 30 40 62q-26 21 -26 50q0 25 21.5 44t59.5 19q36 0 58.5 -18.5t22.5 -43.5
q0 -28 -26 -49q43 -22 43 -69q0 -26 -30.5 -50.5t-67.5 -24.5zM453 138q9 -3 18 12t9 31q0 19 -8.5 29.5t-33.5 10.5q-17 0 -26 -11.5t-9 -27.5q0 -30 28 -38zM437 13q47 0 47 52q0 21 -9 30.5t-35 16.5l-24 6q-8 2 -21 -13t-13 -37q0 -55 55 -55z" />
    <glyph glyph-name="threeeighths" unicode="&#x215c;" horiz-adv-x="727" 
d="M136 383q-44 0 -72.5 24t-28.5 55q0 23 23 23q15 0 21 -5.5t8 -20t3 -17.5q8 -21 17.5 -28t31.5 -7q17 0 29.5 14.5t13.5 43.5q-1 37 -24.5 45t-48.5 -7l-8 21l24 11q44 16 44 44q0 21 -7.5 29.5t-24.5 8.5q-31 0 -42 -22t-5 -44l-29 6q-12 5 -12 14q-1 31 22.5 51
t61.5 20q36 0 59 -19.5t23 -41.5q0 -24 -19 -43q38 -20 38 -66q0 -37 -30 -63t-68 -26zM140 -5l432 641h44l-432 -641h-44zM589 -11q-38 0 -66.5 24.5t-28.5 55.5q0 30 40 62q-26 21 -26 50q0 25 21.5 44t59.5 19q36 0 58.5 -18.5t22.5 -43.5q0 -28 -26 -49q43 -22 43 -69
q0 -26 -30.5 -50.5t-67.5 -24.5zM605 138q9 -3 18 12t9 31q0 19 -8.5 29.5t-33.5 10.5q-17 0 -26 -11.5t-9 -27.5q0 -30 28 -38zM589 13q47 0 47 52q0 21 -9 30.5t-35 16.5l-24 6q-8 2 -21 -13t-13 -37q0 -55 55 -55z" />
    <glyph glyph-name="fiveeighths" unicode="&#x215d;" horiz-adv-x="704" 
d="M132 389q-43 0 -69 20.5t-28 57.5q-1 10 5.5 16t16.5 6t15.5 -4.5t7 -8.5t2.5 -14.5t2 -13.5q10 -36 48 -36q22 0 35.5 15t13.5 39q0 73 -58 73q-23 0 -49 -22h-25l10 125h131l7 5h19l-3 -35l-12 -10h-120l-3 -47q34 9 55 9q39 0 68.5 -22t29.5 -61q0 -42 -28.5 -67
t-70.5 -25zM122 -5l432 641h45l-432 -641h-45zM571 -11q-38 0 -66.5 24.5t-28.5 55.5q0 30 40 62q-26 21 -26 50q0 25 21.5 44t59.5 19q36 0 58.5 -18.5t22.5 -43.5q0 -28 -26 -49q43 -22 43 -69q0 -26 -30.5 -50.5t-67.5 -24.5zM587 138q9 -3 18 12t9 31q0 19 -8.5 29.5
t-33.5 10.5q-17 0 -26 -11.5t-9 -27.5q0 -30 28 -38zM571 13q47 0 47 52q0 21 -9 30.5t-35 16.5l-24 6q-8 2 -21 -13t-13 -37q0 -55 55 -55z" />
    <glyph glyph-name="seveneighths" unicode="&#x215e;" horiz-adv-x="669" 
d="M95 390q-11 0 -14.5 6.5t0.5 13.5l100 190h-121l-6 -17h-19l10 43q3 14 21 14h165l-125 -250h-11zM97 -5l432 641h45l-432 -641h-45zM546 -11q-38 0 -66.5 24.5t-28.5 55.5q0 30 40 62q-26 21 -26 50q0 25 21.5 44t59.5 19q36 0 58.5 -18.5t22.5 -43.5q0 -28 -26 -49
q43 -22 43 -69q0 -26 -30.5 -50.5t-67.5 -24.5zM562 138q9 -3 18 12t9 31q0 19 -8.5 29.5t-33.5 10.5q-17 0 -26 -11.5t-9 -27.5q0 -30 28 -38zM546 13q47 0 47 52q0 21 -9 30.5t-35 16.5l-24 6q-8 2 -21 -13t-13 -37q0 -55 55 -55z" />
    <glyph glyph-name="partialdiff" unicode="&#x2202;" horiz-adv-x="502" 
d="M252 -10q-101 0 -159 64t-58 147q0 79 53 136.5t135 57.5q64 0 116.5 -34t61.5 -67q0 53 -10.5 105t-33 101.5t-65 80.5t-98.5 31q-37 0 -72 -20l-10 14q36 31 102 31q70 0 121.5 -31.5t80 -84.5t42.5 -113t14 -128q0 -55 -10.5 -103t-34 -92t-68.5 -69.5t-107 -25.5z
M243 10q69 0 113 61.5t44 146.5q0 62 -46.5 102t-106.5 40q-63 0 -101 -47t-38 -121q0 -73 34.5 -127.5t100.5 -54.5z" />
    <glyph glyph-name="emptyset" unicode="&#x2205;" horiz-adv-x="530" 
d="M420 404q75 -67 75 -174q0 -102 -68 -169t-164 -67q-79 0 -142 47l-30 -36l-11 8l31 37q-76 66 -76 174q0 102 68.5 169t164.5 67q80 0 141 -47l32 38l12 -8zM97 256q0 -94 49 -162l230 278q-56 67 -135 67q-64 0 -104 -46.5t-40 -136.5zM289 15q65 0 104.5 46.5
t39.5 136.5q0 94 -49 162l-229 -278q56 -67 134 -67z" />
    <glyph glyph-name="product" unicode="&#x220f;" horiz-adv-x="551" 
d="M501 800v-1000h-20v980h-411v-980h-20v1000h451z" />
    <glyph glyph-name="summation" unicode="&#x2211;" horiz-adv-x="530" 
d="M480 800v-20h-404l316 -481l-316 -479h404v-20h-430v20l316 480l-316 480v20h430z" />
    <glyph glyph-name="minus" unicode="&#x2212;" horiz-adv-x="470" 
d="M50 262h370v-21h-370v21z" />
    <glyph glyph-name="radical" unicode="&#x221a;" horiz-adv-x="671" 
d="M247 -195l-138 325q-21 49 -38.5 71t-50.5 35v15l91 -2l144 -347l310 898h86v-15q-40 -12 -60.5 -34t-34.5 -63z" />
    <glyph glyph-name="infinity" unicode="&#x221e;" horiz-adv-x="675" 
d="M200 78q-67 0 -108.5 49.5t-41.5 141.5q0 89 38.5 137.5t97.5 48.5q82 0 143 -94q53 93 146 93q67 0 108.5 -49.5t41.5 -141.5q0 -89 -38.5 -137.5t-98.5 -48.5q-82 0 -142 94q-53 -93 -146 -93zM176 153q86 0 120 95l27 76q-49 67 -133 67q-47 0 -83 -27.5t-36 -92.5
q0 -61 31 -89.5t74 -28.5zM484 141q47 0 83 27.5t36 92.5q0 61 -30.5 89.5t-73.5 28.5q-37 0 -70 -23t-51 -71l-26 -77q49 -67 132 -67z" />
    <glyph glyph-name="integral" unicode="&#x222b;" horiz-adv-x="375" 
d="M279 672q58 0 87 -26t29 -57q0 -32 -34 -32q-16 0 -25 15.5t-12 34t-18 34t-42 15.5q-49 0 -65 -37.5t-16 -120.5v-533q0 -88 -43.5 -133.5t-113.5 -45.5q-58 0 -87 26t-29 57q0 32 35 32q16 0 24.5 -15.5t11.5 -34t18 -34t42 -15.5q49 0 65.5 37.5t16.5 120.5v533
q0 88 43.5 133.5t112.5 45.5z" />
    <glyph glyph-name="approxequal" unicode="&#x2248;" horiz-adv-x="508" 
d="M458 389h-21q0 -25 -14.5 -39.5t-36.5 -14.5q-23 0 -98.5 35.5t-127.5 35.5q-45 0 -77.5 -30.5t-32.5 -86.5h21q0 27 14.5 40.5t36.5 13.5q21 0 97 -35.5t129 -35.5q45 0 77.5 30.5t32.5 86.5zM458 219h-21q0 -25 -14.5 -39.5t-36.5 -14.5q-23 0 -98.5 35.5t-127.5 35.5
q-45 0 -77.5 -30.5t-32.5 -86.5h21q0 27 14.5 40.5t36.5 13.5q21 0 97 -35.5t129 -35.5q45 0 77.5 30.5t32.5 86.5z" />
    <glyph glyph-name="notequal" unicode="&#x2260;" horiz-adv-x="470" 
d="M420 331h-129l-66 -159h195v-21h-204l-64 -153h-21l64 153h-145v21h154l66 159h-220v21h229l59 142h21l-59 -142h120v-21z" />
    <glyph glyph-name="lessequal" unicode="&#x2264;" horiz-adv-x="466" 
d="M50 316l366 181v-28l-330 -165l330 -165v-28l-366 181v24zM416 20v-20h-370v20h370z" />
    <glyph glyph-name="greaterequal" unicode="&#x2265;" horiz-adv-x="466" 
d="M416 316v-24l-366 -181v28l329 165l-329 165v28zM50 20h370v-20h-370v20z" />
    <glyph glyph-name="lozenge" unicode="&#x25ca;" horiz-adv-x="412" 
d="M377 310l-142 -310h-58l-142 310l142 311h58zM333 310l-127 289l-127 -289l127 -289z" />
    <glyph glyph-name="i.loclTRK" horiz-adv-x="241" 
d="M112 588q-15 0 -27 13t-12 29q0 14 12 26.5t27 12.5q16 0 28 -12.5t12 -26.5q0 -17 -12 -29.5t-28 -12.5zM27 0v13q36 5 50 15.5t14 34.5v300q0 37 -11.5 50t-54.5 9v12l95 24q14 4 22.5 -3t8.5 -23v-369q0 -24 14 -34.5t51 -15.5v-13h-189z" />
    <glyph glyph-name="f_b" horiz-adv-x="814" 
d="M588 460q84 0 140 -63t56 -161q0 -112 -63 -177t-153 -65q-36 0 -68.5 12t-53 23.5t-28.5 11.5q-12 0 -22.5 -23.5t-18.5 -23.5q-9 0 -9 11v481q0 84 -32 132t-98 48q-55 0 -75.5 -38t-20.5 -120v-41q0 -6 1 -9.5t2.5 -5t3.5 -1.5h5h4h113v-20h-113q-16 0 -16 -18v-350
q0 -24 14.5 -34.5t53.5 -15.5v-13h-192v13q36 5 50 15.5t14 34.5v350q0 18 -19 18h-43v14q62 8 62 31v28q0 87 49.5 132.5t127.5 45.5q169 0 169 -187v-93q0 -3 1.5 -5.5t5.5 -2t9 6.5q17 20 58 39.5t86 19.5zM580 13q67 0 105 50t38 133q0 93 -48.5 155t-123.5 62
q-47 0 -85 -24.5t-38 -78.5v-144q0 -72 47 -112.5t105 -40.5z" />
    <glyph glyph-name="f_h" horiz-adv-x="810" 
d="M741 63q0 -54 49 -40v-12q-32 -16 -54 -16q-27 0 -41 13t-14 48v228q0 57 -35 97t-89 40q-55 0 -92 -40.5t-37 -96.5v-221q0 -24 14 -34.5t51 -15.5v-13h-189v13q36 5 50 15.5t14 34.5v423q0 84 -32 132t-98 48q-55 0 -75.5 -38t-20.5 -120v-41q0 -6 1 -9.5t2.5 -5
t3.5 -1.5h5h4h113v-20h-113q-16 0 -16 -18v-350q0 -24 14.5 -34.5t53.5 -15.5v-13h-192v13q36 5 50 15.5t14 34.5v350q0 18 -19 18h-43v14q62 8 62 31v28q0 87 49.5 132.5t127.5 45.5q169 0 169 -187v-66q0 -46 10 -46q4 0 9 5q1 0 10.5 10t20.5 18.5t28 19t40 16.5t48 6
q62 0 104.5 -40.5t42.5 -114.5v-240z" />
    <glyph glyph-name="f_j" horiz-adv-x="517" 
d="M18 0v13q36 5 50 15.5t14 34.5v350q0 18 -19 18h-43v14q62 8 62 31v17q0 87 50 133t124 46q69 0 104 -26t35 -57q0 -32 -35 -32q-16 0 -26 15.5t-15.5 34t-25.5 34t-53 15.5q-52 0 -75 -39.5t-23 -118.5v-22q0 -25 16 -25h122v-20h-122q-16 0 -16 -18v-350
q0 -24 14.5 -34.5t53.5 -15.5v-13h-192zM343 -188q-34 0 -57 14.5t-23 39.5q0 32 33 32q9 0 20.5 -16t25 -32t27.5 -16q23 0 23 52v477q0 37 -11.5 50t-54.5 9v12l95 24q14 4 22.5 -3t8.5 -23v-490q0 -61 -28.5 -95.5t-80.5 -34.5z" />
    <glyph glyph-name="f_k" horiz-adv-x="767" 
d="M692 59q8 -11 15.5 -18.5t11.5 -12t11.5 -7.5t10 -3.5t12.5 -2t14 -2.5v-13h-157v13q29 5 32.5 10.5t-12.5 28.5l-140 192q-5 4 -24 -12q-38 -31 -38 -61v-108q0 -24 14 -34.5t51 -15.5v-13h-189v13q36 5 50 15.5t14 34.5v423q0 84 -32 132t-98 48q-55 0 -75.5 -38
t-20.5 -120v-41q0 -6 1 -9.5t2.5 -5t3.5 -1.5h5h4h113v-20h-113q-16 0 -16 -18v-350q0 -24 14.5 -34.5t53.5 -15.5v-13h-192v13q36 5 50 15.5t14 34.5v350q0 18 -19 18h-43v14q62 8 62 31v28q0 87 49.5 132.5t127.5 45.5q169 0 169 -187v-241q0 -12 6.5 -15t14.5 3l172 159
q30 28 -35 37v13h138v-13q-16 -2 -27.5 -6.5t-16 -7.5t-15 -13t-15.5 -14l-124 -111z" />
    <glyph glyph-name="zero.osf" horiz-adv-x="520" 
d="M258 -6q-94 0 -161 64t-67 166t68.5 169t164.5 67q94 0 160.5 -64t66.5 -166t-68 -169t-164 -67zM284 15q65 0 104.5 46.5t39.5 136.5q0 100 -55 170.5t-137 70.5q-64 0 -104 -46.5t-40 -136.5q0 -99 55 -170t137 -71z" />
    <glyph glyph-name="one.osf" horiz-adv-x="279" 
d="M38 0v13q42 5 58.5 15.5t16.5 34.5v298q0 25 -9 33t-34 4l-40 -8v13l120 53q17 5 20 1.5t3 -17.5v-377q0 -24 16.5 -34.5t59.5 -15.5v-13h-211z" />
    <glyph glyph-name="two.osf" horiz-adv-x="474" 
d="M40 0q188 137 251 202t63 125q0 44 -30.5 78.5t-82.5 34.5q-64 0 -93.5 -34t-29.5 -76q0 -19 7 -33t7 -23q0 -36 -35 -36q-24 0 -37.5 21t-13.5 50q0 56 47 103.5t147 47.5q91 0 139 -37.5t48 -93.5q0 -47 -36 -93t-79 -74t-97 -60.5t-72 -48.5l170 5q48 2 68.5 9
t38.5 34h14l-5 -18q-14 -57 -8 -83h-381z" />
    <glyph glyph-name="three.osf" horiz-adv-x="529" 
d="M246 -187q-90 0 -150.5 50t-60.5 127q0 58 42 58q18 0 22 -8t9.5 -40t18.5 -64q39 -103 129 -103q69 0 114 54.5t45 135.5q0 67 -36 100t-89 33q-31 0 -86 -19l-9 22q34 11 45 15t37 13.5t34 15.5t23.5 17t20.5 22t10 26t5 34q0 59 -32 98.5t-89 39.5q-52 0 -82.5 -35.5
t-30.5 -91.5q0 -27 -6 -40.5t-28 -13.5q-45 0 -45 52q0 59 53.5 104t147.5 45q90 0 137 -39t47 -100q0 -30 -12.5 -54.5t-34.5 -41.5t-42 -27t-46 -20q36 5 77 -10.5t73 -56t32 -96.5q0 -86 -69.5 -144t-173.5 -58z" />
    <glyph glyph-name="four.osf" horiz-adv-x="533" 
d="M493 0h-99v-104q0 -25 16.5 -35t59.5 -15v-13h-211v13q43 5 59 15t16 35v104h-294l-15 43l302 427l67 -16v-399h99v-55zM76 55h258v391l-265 -373q-13 -18 7 -18z" />
    <glyph glyph-name="five.osf" horiz-adv-x="531" 
d="M253 -180q-91 0 -154.5 50.5t-63.5 126.5q0 32 10 44.5t31 12.5q17 0 21.5 -7.5t11.5 -40t19 -63.5q40 -103 137 -103q68 0 113.5 52t45.5 127q0 82 -50.5 143t-137.5 61q-92 0 -139 -65h-17l24 291h283l66 14l-9 -76h-327l-16 -199q24 28 69.5 46.5t95.5 18.5
q89 0 159.5 -57.5t70.5 -154.5q0 -92 -69 -156.5t-174 -64.5z" />
    <glyph glyph-name="six.osf" horiz-adv-x="502" 
d="M255 -10q-62 0 -107 25.5t-68.5 69.5t-34 92t-10.5 103q0 67 14 127.5t42.5 113.5t80.5 84.5t121 31.5q66 0 102 -31l-9 -14q-36 20 -72 20q-56 0 -98.5 -31t-65 -80.5t-33 -101.5t-10.5 -105q9 33 61.5 67t115.5 34q82 0 135 -57.5t53 -136.5q0 -83 -57.5 -147
t-159.5 -64zM265 10q65 0 99.5 54.5t34.5 127.5q0 74 -37.5 121t-101.5 47q-60 0 -106 -40t-46 -102q0 -85 44 -146.5t113 -61.5z" />
    <glyph glyph-name="seven.osf" horiz-adv-x="481" 
d="M87 -170l316 559h-230q-31 0 -48.5 -2.5t-37.5 -17.5t-30 -45h-22l38 135l71 -8h312l-313 -621h-56z" />
    <glyph glyph-name="eight.osf" horiz-adv-x="520" 
d="M362 351q59 -24 91 -67.5t32 -98.5q0 -79 -68.5 -137t-170.5 -58q-100 0 -155.5 52.5t-55.5 127.5q0 53 31 99.5t89 74.5q-43 24 -64 61t-21 75q0 66 53.5 111.5t141.5 45.5q87 0 132.5 -44.5t45.5 -105.5q0 -79 -81 -136zM257 617q-67 0 -97.5 -33t-30.5 -82
q0 -91 124 -122l68 -16q8 -2 14 -4q57 54 57 129q0 57 -34.5 92.5t-100.5 35.5zM253 10q77 0 119 49.5t42 116.5q0 53 -32.5 83.5t-101.5 46.5l-64 15q-17 4 -34 11q-88 -55 -88 -151q0 -73 42 -122t117 -49z" />
    <glyph glyph-name="nine.osf" horiz-adv-x="502" 
d="M247 458q62 0 107 -25.5t68.5 -69t34 -92t10.5 -103.5q0 -68 -14 -128t-42.5 -113t-80 -84.5t-121.5 -31.5q-66 0 -102 31l10 14q35 -20 72 -20q56 0 98.5 31t65 80.5t33 101.5t10.5 105q-10 -33 -62.5 -67t-115.5 -34q-82 0 -135 57.5t-53 136.5q0 83 58 147t159 64z
M238 438q-66 0 -100.5 -54.5t-34.5 -127.5t38 -120.5t101 -47.5q59 0 106 40t47 102q0 86 -44 147t-113 61z" />
    <glyph glyph-name="zero.tf" horiz-adv-x="600" 
d="M308 -10q-115 0 -175.5 95t-60.5 229q0 133 60.5 228t175.5 95q79 0 134 -48t78.5 -119t23.5 -156q0 -86 -23.5 -157t-78.5 -119t-134 -48zM308 7q75 0 115.5 77t40.5 230t-40.5 229.5t-115.5 76.5t-115.5 -76.5t-40.5 -229.5t40.5 -230t115.5 -77z" />
    <glyph glyph-name="one.tf" horiz-adv-x="600" 
d="M186 0v13q49 5 67 15t18 35v451q0 35 -8.5 44.5t-34.5 5.5l-39 -7v12l119 56q17 5 20 1.5t3 -17.5v-546q0 -25 18 -35t68 -15v-13h-231z" />
    <glyph glyph-name="two.tf" horiz-adv-x="600" 
d="M81 0q0 50 26.5 97t67 81t87 71.5t87 69.5t67 73.5t26.5 85.5q0 55 -35 97t-99 42q-60 0 -97.5 -38.5t-37.5 -90.5q0 -25 8 -40.5t8 -23.5q0 -38 -36 -38q-23 0 -37 23.5t-14 57.5q0 29 11 57.5t34 54.5t65 42t97 16q99 0 150.5 -47.5t51.5 -123.5q0 -55 -32 -100
t-82.5 -78.5t-103 -64.5t-102.5 -74t-73 -91h273q51 0 73 15t41 60h14l-15 -70q-10 -47 2 -63h-425z" />
    <glyph glyph-name="three.tf" horiz-adv-x="600" 
d="M279 -10q-90 0 -150.5 50t-60.5 127q0 32 10.5 45t32.5 13q18 0 22 -8t9 -39.5t18 -64.5q39 -103 129 -103q69 0 114 54.5t45 135.5q0 67 -36 100t-89 33q-31 0 -86 -19l-9 22q103 34 131 53q45 31 45 90t-32.5 98.5t-89.5 39.5q-52 0 -82.5 -35.5t-30.5 -91.5
q0 -18 -1.5 -28t-9 -18t-22.5 -8q-46 0 -46 52q0 59 53.5 104t147.5 45q90 0 137.5 -39t47.5 -100q0 -56 -39 -89t-97 -54q36 5 77 -10.5t73 -56t32 -96.5q0 -86 -69.5 -144t-173.5 -58z" />
    <glyph glyph-name="four.tf" horiz-adv-x="600" 
d="M534 167h-100v-104q0 -24 16.5 -34.5t60.5 -15.5v-13h-212v13q42 5 58.5 15.5t16.5 34.5v104h-293l-15 43l302 427l66 -16v-399h100v-55zM117 222h257v391l-265 -373q-13 -18 8 -18z" />
    <glyph glyph-name="five.tf" horiz-adv-x="600" 
d="M275 -9q-92 0 -155 50.5t-63 126.5q0 33 9.5 45t30.5 12q17 0 21.5 -7.5t11.5 -40t19 -63.5q40 -103 137 -103q68 0 113.5 52t45.5 127q0 82 -50 143t-137 61q-92 0 -139 -65h-17l24 291h283l65 14l-9 -76h-326l-17 -199q25 28 70 46.5t95 18.5q89 0 159.5 -57.5
t70.5 -154.5q0 -92 -68.5 -156.5t-173.5 -64.5z" />
    <glyph glyph-name="six.tf" horiz-adv-x="600" 
d="M301 -10q-62 0 -107 25.5t-68.5 69.5t-34 92t-10.5 103q0 67 14 127.5t42.5 113.5t80.5 84.5t122 31.5q65 0 101 -31l-9 -14q-35 20 -72 20q-56 0 -98.5 -31t-65 -80.5t-33 -101.5t-10.5 -105q9 33 61.5 67t116.5 34q82 0 135 -57.5t53 -136.5q0 -83 -58 -147t-160 -64z
M311 10q65 0 99.5 54.5t34.5 127.5q0 74 -37.5 121t-100.5 47q-60 0 -106.5 -40t-46.5 -102q0 -85 44 -146.5t113 -61.5z" />
    <glyph glyph-name="seven.tf" horiz-adv-x="600" 
d="M138 0l316 559h-230q-31 0 -48.5 -2.5t-37.5 -17.5t-30 -45h-21l38 135l71 -8h312l-313 -621h-57z" />
    <glyph glyph-name="eight.tf" horiz-adv-x="600" 
d="M402 351q59 -24 91 -67.5t32 -98.5q0 -79 -68.5 -137t-170.5 -58q-100 0 -155.5 52.5t-55.5 127.5q0 53 31 99.5t89 74.5q-43 24 -64 61t-21 75q0 66 53.5 111.5t141.5 45.5q87 0 132.5 -44.5t45.5 -105.5q0 -79 -81 -136zM297 617q-67 0 -97.5 -33t-30.5 -82
q0 -91 124 -122l68 -16q8 -2 14 -4q57 54 57 129q0 57 -34.5 92.5t-100.5 35.5zM293 10q77 0 119 49.5t42 116.5q0 53 -32.5 83.5t-101.5 46.5l-64 15q-17 4 -34 11q-88 -55 -88 -151q0 -73 42 -122t117 -49z" />
    <glyph glyph-name="nine.tf" horiz-adv-x="600" 
d="M298 634q62 0 107 -25.5t68.5 -69t34 -92t10.5 -103.5q0 -67 -14 -127.5t-42.5 -113.5t-80.5 -84.5t-122 -31.5q-65 0 -101 31l9 14q37 -20 72 -20q56 0 98.5 31t65 80.5t33 101.5t10.5 105q-9 -33 -61.5 -67t-116.5 -34q-82 0 -135 57.5t-53 136.5q0 83 58 147t160 64z
M288 614q-65 0 -99.5 -54.5t-34.5 -127.5q0 -74 37.5 -121t100.5 -47q60 0 106.5 40t46.5 102q0 86 -44 147t-113 61z" />
    <glyph glyph-name="zero.dnom" horiz-adv-x="252" 
d="M126 -11q-47 0 -69 36t-22 91q0 54 22 91t69 37t69 -37t22 -91t-22 -90.5t-69 -36.5zM126 18q47 0 47 98q0 99 -47 99q-48 0 -48 -99q0 -98 48 -98z" />
    <glyph glyph-name="one.dnom" horiz-adv-x="164" 
d="M32 -6v14q29 2 29 18v181l-31 -10v20l56 25q13 3 15.5 0t3.5 -12v-3v-201q0 -16 29 -18v-14h-102z" />
    <glyph glyph-name="two.dnom" horiz-adv-x="287" 
d="M40 -6q7 32 23 56.5t30 36t38 25.5q14 8 18.5 11.5t13 11t11.5 16t3 19.5q0 22 -10.5 37t-29.5 15t-28.5 -6.5t-13.5 -24.5q-2 -12 0.5 -22.5t1.5 -15.5q-11 -21 -31.5 -14t-20.5 20q-2 38 23.5 63.5t71.5 25.5q45 0 69 -21t24 -55q0 -13 -4 -23.5t-14 -19.5t-15.5 -13
t-22 -13t-19.5 -11q-77 -43 -82 -61h118q16 0 21 8l9 13h23l-10 -44q-3 -14 -21 -14h-176z" />
    <glyph glyph-name="three.dnom" horiz-adv-x="274" 
d="M136 -11q-44 0 -72.5 24t-28.5 55q0 23 23 23q15 0 21 -5.5t8 -20t3 -17.5q8 -21 17.5 -28t31.5 -7q17 0 29.5 14.5t13.5 43.5q-1 37 -24.5 45t-48.5 -7l-8 21l24 11q44 16 44 44q0 21 -7.5 29.5t-24.5 8.5q-31 0 -42 -22t-5 -44l-29 6q-12 5 -12 14q-1 31 22.5 51
t61.5 20q36 0 59 -19.5t23 -41.5q0 -24 -19 -43q38 -20 38 -66q0 -37 -30 -63t-68 -26z" />
    <glyph glyph-name="four.dnom" horiz-adv-x="250" 
d="M210 69h-35v-34q0 -18 25 -18v-23h-95v23q24 0 24 18v34h-104v28l117 148q9 11 21 7t12 -16v-139h35v-28zM71 97h58v76z" />
    <glyph glyph-name="five.dnom" horiz-adv-x="266" 
d="M132 -11q-43 0 -69 20.5t-28 57.5q-1 10 5.5 16t16.5 6t15.5 -4.5t7 -8.5t2.5 -14.5t2 -13.5q10 -36 48 -36q22 0 35.5 15t13.5 39q0 73 -58 73q-23 0 -49 -22h-25l10 125h131l7 5h19l-3 -35l-12 -10h-120l-3 -47q34 9 55 9q39 0 68.5 -22t29.5 -61q0 -42 -28.5 -67
t-70.5 -25z" />
    <glyph glyph-name="six.dnom" horiz-adv-x="248" 
d="M129 -11q-48 0 -71 35t-23 81q0 52 27.5 97.5t75.5 45.5q31 0 51 -14q6 -4 6.5 -7t-4.5 -11q-7 -6 -12 -4.5t-17.5 6.5t-21.5 5q-24 0 -38.5 -24t-17.5 -59q24 13 47 13q40 0 63.5 -21t23.5 -58q0 -32 -25 -58.5t-64 -26.5zM129 15q43 0 43 61q0 54 -40 54
q-17 0 -33.5 -9.5t-16.5 -15.5q-1 -43 11.5 -66.5t35.5 -23.5z" />
    <glyph glyph-name="seven.dnom" horiz-adv-x="256" 
d="M95 -8q-11 0 -14.5 6.5t0.5 13.5l100 190h-121l-6 -17h-19l10 43q3 14 21 14h165l-125 -250h-11z" />
    <glyph glyph-name="eight.dnom" horiz-adv-x="263" 
d="M130 -11q-38 0 -66.5 24.5t-28.5 55.5q0 30 40 62q-26 21 -26 50q0 25 21.5 44t59.5 19q36 0 58.5 -18.5t22.5 -43.5q0 -28 -26 -49q43 -22 43 -69q0 -26 -30.5 -50.5t-67.5 -24.5zM146 138q9 -3 18 12t9 31q0 19 -8.5 29.5t-33.5 10.5q-17 0 -26 -11.5t-9 -27.5
q0 -30 28 -38zM130 13q47 0 47 52q0 21 -9 30.5t-35 16.5l-24 6q-8 2 -21 -13t-13 -37q0 -55 55 -55z" />
    <glyph glyph-name="nine.dnom" horiz-adv-x="248" 
d="M120 248q47 0 70 -35t23 -81q0 -52 -27.5 -97.5t-74.5 -45.5q-32 0 -52 14q-4 3 -5 5t-0.5 4t4.5 9q7 6 12 4.5t17.5 -6.5t21.5 -5q23 0 37.5 24t17.5 60q-26 -14 -47 -14q-39 0 -63 21t-24 58q0 32 25 58.5t65 26.5zM120 222q-44 0 -44 -61q0 -54 41 -54q17 0 33 9.5
t16 15.5q1 43 -11 66.5t-35 23.5z" />
    <glyph glyph-name="zero.numr" horiz-adv-x="252" 
d="M126 388q-47 0 -69 36t-22 91q0 54 22 91t69 37t69 -37t22 -91t-22 -90.5t-69 -36.5zM126 417q47 0 47 98q0 99 -47 99q-48 0 -48 -99q0 -98 48 -98z" />
    <glyph glyph-name="one.numr" horiz-adv-x="164" 
d="M32 392v14q29 2 29 18v181l-31 -10v20l56 25q13 3 15.5 0t3.5 -12v-1.5v-1.5v-201q0 -16 29 -18v-14h-102z" />
    <glyph glyph-name="two.numr" horiz-adv-x="287" 
d="M40 387q7 32 23 56.5t30 36t38 25.5q14 8 18.5 11.5t13 11t11.5 16t3 19.5q0 22 -10.5 37t-29.5 15t-28.5 -6.5t-13.5 -24.5q-2 -12 0.5 -22.5t1.5 -15.5q-11 -21 -31.5 -14t-20.5 20q-2 38 23.5 63.5t71.5 25.5q45 0 69 -21t24 -55q0 -13 -4 -23.5t-14 -19.5t-15.5 -13
t-22 -13t-19.5 -11q-77 -43 -82 -61h118q16 0 21 8l9 13h23l-10 -44q-3 -14 -21 -14h-176z" />
    <glyph glyph-name="three.numr" horiz-adv-x="274" 
d="M136 383q-44 0 -72.5 24t-28.5 55q0 23 23 23q15 0 21 -5.5t8 -20t3 -17.5q8 -21 17.5 -28t31.5 -7q17 0 29.5 14.5t13.5 43.5q-1 37 -24.5 45t-48.5 -7l-8 21l24 11q44 16 44 44q0 21 -7.5 29.5t-24.5 8.5q-31 0 -42 -22t-5 -44l-29 6q-12 5 -12 14q-1 31 22.5 51
t61.5 20q36 0 59 -19.5t23 -41.5q0 -24 -19 -43q38 -20 38 -66q0 -37 -30 -63t-68 -26z" />
    <glyph glyph-name="four.numr" horiz-adv-x="250" 
d="M210 460h-35v-34q0 -18 25 -18v-23h-95v23q24 0 24 18v34h-104v28l117 148q9 11 21 7t12 -16v-139h35v-28zM71 488h58v76z" />
    </font>
</defs>
</svg>
