<?xml version="1.0" standalone="no"?>
<!DOCTYPE svg PUBLIC "-//W3C//DTD SVG 1.1//EN" "http://www.w3.org/Graphics/SVG/1.1/DTD/svg11.dtd" >
<svg xmlns="http://www.w3.org/2000/svg" xmlns:xlink="http://www.w3.org/1999/xlink" version="1.1">
<metadata>
Created by FontForge 20190801 at Thu Mar 29 13:00:53 2018
 By Jimmy Wärting
Copyright (c) 2018 by Connary Fagen. All rights reserved.
</metadata>
<defs>
<font id="QuincyCF-Black" horiz-adv-x="325" >
  <font-face 
    font-family="Quincy CF Black"
    font-weight="900"
    font-stretch="normal"
    units-per-em="1000"
    panose-1="0 0 10 0 0 0 0 0 0 0"
    ascent="800"
    descent="-200"
    x-height="451"
    cap-height="621"
    bbox="-278.526 -330 1152 921"
    underline-thickness="50"
    underline-position="-100"
    unicode-range="U+0020-FB02"
  />
<missing-glyph horiz-adv-x="515" 
d="M422 800v-1030h-326v1030h326zM343 731h-170v-34h67v-38h-68v-34h171v34h-68v38h68v34zM275 598h-103v-107h171v35h-68v72zM240 563v-37h-34v37h34zM343 463h-171v-34h68v-38h-68v-34h103v72h68v34zM343 401h-34v-68h-137v-35h171v103zM343 276h-103v-58h35v24h34v-49
h-103v83h-34v-117h171v117zM343 98h-171v-117h171v117zM309 64v-49h-103v49h103zM343 -43h-171v-34h72l-72 -48v-34h171v34h-105l72 48h33v34z" />
    <glyph glyph-name="fi" unicode="fi" horiz-adv-x="697" 
d="M27 0v44q36 2 50 16.5t14 50.5v257q0 18 -6.5 25t-24.5 7h-40v36q71 -4 71 43v-3q0 91 62 143.5t159 52.5q82 0 137.5 -29t55.5 -79q0 -29 -19 -49t-53 -20q-29 0 -45 13.5t-22 32.5t-11 38t-18 32.5t-38 13.5q-58 0 -58 -94v-52q0 -28 32 -28h75v-51h-75
q-17 0 -24.5 -6.5t-7.5 -25.5v-257q0 -36 14.5 -50.5t50.5 -16.5v-44h-279zM396 0v44q36 2 50 16.5t14 50.5v224q0 33 -16.5 43.5t-47.5 7.5v45l163 27q51 7 51 -40v-307q0 -36 14 -50.5t48 -16.5v-44h-276z" />
    <glyph glyph-name="fl" unicode="fl" horiz-adv-x="676" 
d="M551 -5q-48 0 -75 25t-27 67v379q0 67 -31 118t-93 51q-44 0 -64 -27.5t-20 -68.5v-41q0 -18 8.5 -32.5t23.5 -14.5h91v-51h-91q-17 0 -24.5 -6.5t-7.5 -25.5v-257q0 -36 14.5 -50.5t50.5 -16.5v-44h-279v44q36 2 50 16.5t14 50.5v257q0 18 -6.5 25t-24.5 7h-40v36
q71 -4 71 43v5q0 92 71.5 145t183.5 53q36 0 69.5 -5t68 -19.5t59 -37t40.5 -60t16 -85.5v-374q0 -24 14 -32t48 0v-44q-47 -30 -110 -30z" />
    <glyph glyph-name="f_f" unicode="ff" horiz-adv-x="801" 
d="M651 672q67 0 118.5 -29t51.5 -79q0 -29 -19 -49t-53 -20q-29 0 -45 13.5t-20.5 32.5t-7.5 38t-12 32.5t-28 13.5q-42 0 -42 -94v-52q0 -28 33 -28h93v-51h-93q-18 0 -25.5 -6.5t-7.5 -25.5v-257q0 -36 14.5 -50.5t50.5 -16.5v-44h-279v44q36 2 50 16.5t14 50.5v257
q0 18 -7 25t-24 7h-140q-17 0 -24.5 -6.5t-7.5 -25.5v-257q0 -36 14.5 -50.5t50.5 -16.5v-44h-279v44q36 2 50 16.5t14 50.5v257q0 18 -6.5 25t-24.5 7h-40v36q71 -4 71 43v5q0 92 70.5 145t179.5 53q113 0 175 -52q58 42 135 42zM444 479v11q0 52 -28.5 98.5t-88.5 46.5
q-45 0 -65.5 -27.5t-20.5 -68.5v-41q0 -18 8.5 -32.5t23.5 -14.5h162q9 11 9 28z" />
    <glyph glyph-name=".notdef" horiz-adv-x="515" 
d="M422 800v-1030h-326v1030h326zM343 731h-170v-34h67v-38h-68v-34h171v34h-68v38h68v34zM275 598h-103v-107h171v35h-68v72zM240 563v-37h-34v37h34zM343 463h-171v-34h68v-38h-68v-34h103v72h68v34zM343 401h-34v-68h-137v-35h171v103zM343 276h-103v-58h35v24h34v-49
h-103v83h-34v-117h171v117zM343 98h-171v-117h171v117zM309 64v-49h-103v49h103zM343 -43h-171v-34h72l-72 -48v-34h171v34h-105l72 48h33v34z" />
    <glyph glyph-name=".null" horiz-adv-x="0" 
 />
    <glyph glyph-name="nonmarkingreturn" horiz-adv-x="333" 
 />
    <glyph glyph-name="space" unicode=" " horiz-adv-x="180" 
 />
    <glyph glyph-name="exclam" unicode="!" horiz-adv-x="262" 
d="M96 216q-2 83 -26.5 189t-24.5 147q0 38 25 61.5t61 23.5q38 0 62 -23t24 -62q0 -41 -24 -147t-26 -189h-71zM131 -6q-32 0 -55 23.5t-23 55.5t23 55.5t55 23.5t55.5 -23.5t23.5 -55.5t-23.5 -55.5t-55.5 -23.5z" />
    <glyph glyph-name="quotedbl" unicode="&#x22;" horiz-adv-x="391" 
d="M54 464q5 -30 49 -30q42 0 47 30l18 112q14 84 -65 84q-37 0 -55.5 -21t-11.5 -63zM241 464q5 -30 49 -30q42 0 47 30l18 112q14 84 -65 84q-37 0 -55.5 -21t-11.5 -63z" />
    <glyph glyph-name="numbersign" unicode="#" horiz-adv-x="554" 
d="M529 424h-119l-53 -207h103v-54h-117l-50 -193h-56l50 193h-101l-50 -193h-56l50 193h-105v54h119l53 207h-103v54h117l50 194h56l-50 -194h101l50 194h56l-50 -194h105v-54zM301 217l53 207h-101l-53 -207h101z" />
    <glyph glyph-name="dollar" unicode="$" horiz-adv-x="525" 
d="M490 224q0 -43 -19 -75.5t-52 -50t-68 -26t-74 -10.5v-62h-33v62q-54 3 -107.5 17t-79.5 32q-22 47 -19.5 97t38.5 50q9 0 13 -5t10 -21q20 -51 59 -80.5t86 -36.5v151q-6 2 -17 5.5t-16 4.5q-75 22 -125.5 68.5t-50.5 116.5q0 78 60 120.5t149 43.5v64h33v-65
q114 -9 167 -45q22 -47 19.5 -97t-38.5 -50q-9 0 -13 5t-10 20q-33 91 -125 112v-153q1 0 2.5 -0.5t2.5 -0.5q34 -10 57.5 -18t54.5 -24.5t50 -35.5t32.5 -48t13.5 -65zM160 513q0 -32 21 -52t63 -34v146h-4q-41 0 -60.5 -19t-19.5 -41zM277 113q76 1 76 66q0 46 -76 75
v-141z" />
    <glyph glyph-name="percent" unicode="%" horiz-adv-x="722" 
d="M545 621h67l-421 -621h-121l432 565q-25 -20 -54.5 -24.5t-49.5 0t-56 16.5q8 -20 8 -49q0 -76 -49.5 -125t-124.5 -49q-64 0 -95 33t-31 86q0 75 49.5 125t125.5 50q45 0 92 -11.5t75 -20.5t68.5 -5t84.5 30zM191 378q29 0 44 35.5t15 87.5q0 83 -41 83q-29 0 -44 -35.5
t-15 -87.5q0 -83 41 -83zM547 283q64 0 94.5 -33t30.5 -86q0 -76 -49.5 -125.5t-124.5 -49.5q-65 0 -95.5 33t-30.5 87q0 75 50 124.5t125 49.5zM512 33q29 0 44 35.5t15 87.5q0 83 -40 83q-29 0 -44 -35.5t-15 -87.5q0 -83 40 -83z" />
    <glyph glyph-name="ampersand" unicode="&#x26;" horiz-adv-x="811" 
d="M354 -15q-134 0 -224 55t-90 155q0 79 49.5 122.5t101.5 43.5q-40 7 -64 41t-24 79q0 71 63 113.5t158 42.5q80 0 127.5 -29t47.5 -80q0 -32 -20.5 -51.5t-50.5 -19.5q-27 0 -46.5 18t-19.5 47q0 28 -12.5 50t-41.5 22q-33 0 -49 -25.5t-16 -63.5q0 -119 91 -148l-17 -40
q-54 15 -86 -20.5t-32 -98.5q0 -30 7.5 -57.5t25 -53.5t50.5 -41.5t78 -15.5t76.5 15t47 39.5t22 48.5t6.5 50q0 40 -16 66.5t-50 26.5t-46 -25.5t8 -47.5h-42q-27 22 -27 47q0 23 15.5 38.5t50.5 36.5l110 64q7 4 22 13.5t20.5 13t17.5 11.5t16.5 12t13 11t11.5 12t7 12
t5.5 14t1.5 15q0 34 -22.5 49.5t-58.5 5.5l-18 34q38 29 101 29q55 0 97 -31t42 -84q0 -118 -238 -197q134 -22 136 -128q1 -87 -90.5 -141.5t-224.5 -54.5z" />
    <glyph glyph-name="quotesingle" unicode="'" horiz-adv-x="204" 
d="M54 464q5 -30 49 -30q42 0 47 30l18 112q14 84 -65 84q-37 0 -55.5 -21t-11.5 -63z" />
    <glyph glyph-name="parenleft" unicode="(" horiz-adv-x="363" 
d="M195 296q-1 -130 37.5 -247.5t97.5 -196.5q14 -18 -5 -18h-42q-11 0 -19 7q-219 142 -219 455t219 455q8 7 19 7h40q10 0 13.5 -4t-1.5 -9q-62 -79 -101.5 -198t-38.5 -251z" />
    <glyph glyph-name="parenright" unicode=")" horiz-adv-x="363" 
d="M168 296q1 132 -38.5 251.5t-101.5 197.5q-5 5 -1.5 9t13.5 4h40q11 0 19 -7q219 -141 219 -455t-219 -455q-8 -7 -19 -7h-42q-17 0 -5 18q60 78 98 196t37 248z" />
    <glyph glyph-name="asterisk" unicode="*" horiz-adv-x="329" 
d="M154 520q2 -6 6 -8.5t7.5 0t5.5 8.5l31 78q-4 34 -40 39q-36 -5 -40 -39zM139 508l-55 67q-32 14 -54 -14q-14 -34 13 -54l80 -18q11 -2 17 5t-1 14zM190 508q-7 -7 -1 -14t17 -5l80 18q27 21 13 54q-23 27 -54 14zM124 473l-81 -17q-27 -21 -13 -55q22 -28 54 -14l54 67
q7 7 1.5 14t-15.5 5zM205 473q-10 2 -15.5 -5t1.5 -14l54 -67q31 -13 54 14q13 33 -13 55zM154 444l-30 -78q4 -34 40 -39q36 5 40 39l-30 78q-4 10 -10 10t-10 -10z" />
    <glyph glyph-name="plus" unicode="+" horiz-adv-x="470" 
d="M420 276v-49h-160v-161h-49v161h-161v49h161v161h49v-161h160z" />
    <glyph glyph-name="comma" unicode="," horiz-adv-x="234" 
d="M95 -137l-25 28q55 48 55 83q0 15 -18 15q-34 0 -55.5 22.5t-21.5 56.5q0 36 24 60t62 24q43 0 65.5 -29t22.5 -77q0 -107 -109 -183z" />
    <glyph glyph-name="hyphen" unicode="-" horiz-adv-x="370" 
d="M50 296h270v-91h-270v91z" />
    <glyph glyph-name="period" unicode="." horiz-adv-x="237" 
d="M118 -6q-32 0 -55 23.5t-23 55.5t23 55.5t55 23.5t55.5 -23.5t23.5 -55.5t-23.5 -55.5t-55.5 -23.5z" />
    <glyph glyph-name="slash" unicode="/" horiz-adv-x="433" 
d="M35 0l267 641h96l-267 -641h-96z" />
    <glyph glyph-name="zero" unicode="0" horiz-adv-x="638" 
d="M319 -10q-128 0 -206 93.5t-78 230.5q0 136 78 229.5t206 93.5t206 -93.5t78 -229.5q0 -137 -78 -230.5t-206 -93.5zM319 52q125 0 125 262q0 48 -5.5 90t-18 82.5t-38.5 64.5t-63 24t-63 -23.5t-39 -64.5t-18.5 -83t-5.5 -90q0 -262 126 -262z" />
    <glyph glyph-name="one" unicode="1" horiz-adv-x="390" 
d="M30 0v44q53 2 72 16.5t19 50.5v355q0 24 -8.5 34.5t-28.5 6.5l-48 -7v44l184 81q17 7 34 1.5t17 -17.5v-498q0 -36 19 -50.5t70 -16.5v-44h-330z" />
    <glyph glyph-name="two" unicode="2" horiz-adv-x="588" 
d="M40 0q0 52 18.5 98.5t48 82t65 68.5t71 62.5t65 57.5t48 60.5t18.5 65.5q0 37 -21 65.5t-63 28.5q-39 0 -62 -25t-23 -65q0 -15 6.5 -39.5t6.5 -38.5q0 -31 -23.5 -47t-54.5 -16q-42 0 -67.5 27.5t-25.5 75.5q0 81 70.5 128.5t181.5 47.5q106 0 173.5 -45t67.5 -129
q0 -54 -32 -95t-84 -69t-106.5 -52t-110.5 -57t-85 -70h217q81 0 118 14t47 53h44l-17 -124q-8 -47 4 -63h-495z" />
    <glyph glyph-name="three" unicode="3" horiz-adv-x="613" 
d="M294 -10q-109 0 -184 45.5t-75 125.5q0 39 20.5 58.5t52.5 19.5q29 0 45.5 -12t20.5 -26t6.5 -35.5t5.5 -29.5q7 -20 12 -30t18.5 -29.5t35 -29t49.5 -9.5q58 0 87.5 45.5t29.5 107.5q0 57 -27 91t-73 34q-36 0 -63 -19l-15 42q82 28 110.5 60t28.5 86q0 104 -97 104
q-48 0 -63 -26t-15 -73q0 -33 -18.5 -52t-52.5 -19q-32 0 -48.5 21.5t-16.5 50.5q0 55 56 100.5t173 45.5q108 0 164.5 -40t56.5 -105q0 -48 -29.5 -77.5t-71.5 -39.5q57 1 106.5 -41.5t49.5 -121.5q0 -99 -81 -160.5t-198 -61.5z" />
    <glyph glyph-name="four" unicode="4" horiz-adv-x="603" 
d="M563 167h-104v-56q0 -36 17.5 -50.5t61.5 -16.5v-44h-310v44q46 2 63.5 16.5t17.5 50.5v56h-263l-21 76l288 394l146 -16v-343h104v-111zM149 278h160v278l-178 -243q-10 -14 -4.5 -24.5t22.5 -10.5z" />
    <glyph glyph-name="five" unicode="5" horiz-adv-x="590" 
d="M281 -10q-104 0 -175 45.5t-71 125.5q0 39 21 59.5t53 20.5q38 0 53 -16.5t18 -50.5t4 -38q18 -56 40 -76q24 -22 61 -22q49 0 78.5 40.5t29.5 116.5q0 82 -36.5 131.5t-97.5 49.5q-38 0 -76.5 -19t-60.5 -57h-36l24 325h300l82 14l-15 -147h-332l-8 -117q67 57 171 57
q33 0 65.5 -6.5t66 -22.5t58.5 -39.5t41 -61.5t16 -85q0 -109 -76.5 -168t-197.5 -59z" />
    <glyph glyph-name="six" unicode="6" horiz-adv-x="578" 
d="M300 -10q-128 0 -197 83t-68 227q1 148 77.5 242.5t211.5 94.5q92 0 141 -40l-23 -36q-58 26 -95 26q-159 0 -159 -231q2 1 19.5 12t32 18.5t42 15t56.5 7.5q52 0 98 -19.5t79 -67t33 -115.5q0 -103 -70.5 -160t-177.5 -57zM304 38q37 0 60.5 24.5t30.5 54.5t7 66
q0 73 -29 118t-82 45t-79 -40.5t-26 -90.5q0 -69 27.5 -123t90.5 -54z" />
    <glyph glyph-name="seven" unicode="7" horiz-adv-x="557" 
d="M123 0l300 489h-166q-79 0 -114.5 -13t-71.5 -47h-36l66 200l88 -8h343l-319 -621h-90z" />
    <glyph glyph-name="eight" unicode="8" horiz-adv-x="610" 
d="M431 348q66 -27 105 -66.5t39 -105.5q0 -88 -76 -137t-194 -49q-120 0 -195 50t-75 136q0 94 100 149q-62 55 -62 135q0 59 37.5 100.5t88.5 59t108 17.5q88 0 155.5 -41.5t67.5 -114.5q0 -86 -99 -133zM313 589q-51 0 -72.5 -27t-21.5 -63q0 -75 90 -108l45 -16
q61 38 61 105q0 14 -2.5 28t-11 34.5t-31.5 33.5t-57 13zM307 38q63 0 88 34.5t25 69.5q0 31 -20 53.5t-78 43.5l-92 31q-19 6 -35 15q-36 -36 -36 -90q0 -59 37.5 -108t110.5 -49z" />
    <glyph glyph-name="nine" unicode="9" horiz-adv-x="578" 
d="M278 637q128 0 197 -83t68 -227q-1 -148 -77.5 -242.5t-211.5 -94.5q-90 0 -141 40l24 36q58 -26 94 -26q159 0 159 231q-2 -1 -19 -12t-32 -18.5t-42 -15t-56 -7.5q-84 0 -147.5 51t-63.5 151q0 103 70.5 160t177.5 57zM274 589q-37 0 -60.5 -24.5t-30.5 -54.5t-7 -66
q0 -73 29 -118t82 -45t79 40.5t26 90.5q0 69 -27.5 123t-90.5 54z" />
    <glyph glyph-name="colon" unicode=":" horiz-adv-x="238" 
d="M118 305q-32 0 -55 23t-23 56q0 32 23 55t55 23t55.5 -23t23.5 -55q0 -33 -23.5 -56t-55.5 -23zM119 -6q-32 0 -55 23.5t-23 55.5t23 55.5t55 23.5t55.5 -23.5t23.5 -55.5t-23.5 -55.5t-55.5 -23.5z" />
    <glyph glyph-name="semicolon" unicode=";" horiz-adv-x="234" 
d="M117 304q-32 0 -55 23t-23 56q0 32 23 55t55 23t55 -23t23 -55q0 -33 -23 -56t-55 -23zM95 -137l-25 28q55 48 55 83q0 15 -18 15q-34 0 -55.5 22.5t-21.5 56.5q0 36 24 60t62 24q43 0 65.5 -29t22.5 -77q0 -107 -109 -183z" />
    <glyph glyph-name="less" unicode="&#x3c;" horiz-adv-x="480" 
d="M50 286l380 155v-50l-335 -140l335 -140v-50l-380 156v69z" />
    <glyph glyph-name="equal" unicode="=" horiz-adv-x="470" 
d="M50 366h370v-49h-370v49zM50 186h370v-49h-370v49z" />
    <glyph glyph-name="greater" unicode="&#x3e;" horiz-adv-x="480" 
d="M430 286v-69l-380 -156v50l335 140l-335 140v50z" />
    <glyph glyph-name="question" unicode="?" horiz-adv-x="510" 
d="M35 460q0 -55 27 -84t64 -29q29 0 51 18t22 47q0 14 -17.5 44t-17.5 57q0 34 25.5 50t59.5 16q43 0 69.5 -27t26.5 -62q0 -26 -16 -49.5t-37.5 -44t-41.5 -45t-30.5 -63t-2.5 -86.5h61q3 33 24.5 60t50 47t56.5 41.5t47 53.5t19 72q0 74 -60.5 117.5t-155.5 43.5
q-104 0 -164 -50t-60 -127zM248 -6q-32 0 -55 23.5t-23 55.5t23 55.5t55 23.5t55.5 -23.5t23.5 -55.5t-23.5 -55.5t-55.5 -23.5z" />
    <glyph glyph-name="at" unicode="@" horiz-adv-x="779" 
d="M534 -58q-48 -25 -148 -25q-155 0 -255.5 96t-100.5 236q0 139 102.5 235t258.5 96t257 -92t101 -229q0 -95 -45 -148.5t-124 -53.5q-94 0 -121 61q-18 -26 -50.5 -43.5t-71.5 -17.5q-50 0 -87.5 26.5t-37.5 75.5q0 94 184 119q38 7 38 32q0 86 -49 86q-16 0 -24 -20.5
t-8 -43.5q0 -19 -21 -33t-45 -14q-26 0 -42 15t-16 41q0 44 57.5 71t126.5 27q147 0 147 -138v-166q0 -28 23 -28q36 0 36 136q0 118 -63.5 205.5t-164.5 87.5q-104 0 -166.5 -74.5t-62.5 -193.5q0 -126 65 -216.5t183 -90.5q56 0 111 16zM384 117q18 0 34 12.5t16 42.5v39
q0 32 -33 26q-26 -6 -42.5 -25.5t-16.5 -41.5q0 -24 11.5 -38.5t30.5 -14.5z" />
    <glyph glyph-name="A" unicode="A" horiz-adv-x="734" 
d="M617 173q6 -13 16 -35t14 -31t12.5 -23.5t15 -20.5t16.5 -13t23 -10v-40h-298v42q75 10 38 88q-16 33 -59 33h-144q-39 0 -54 -26q-17 -38 0.5 -63t68.5 -32v-42h-246v42q43 8 64.5 33t43.5 75l160 355q29 64 29 116l88 8zM388 218q8 0 12.5 5.5t1.5 15.5l-73 152
q-8 23 -18 1l-69 -153q-3 -10 1.5 -15.5t12.5 -5.5h132zM192 127l1 3l-1 -1v-2z" />
    <glyph glyph-name="B" unicode="B" horiz-adv-x="703" 
d="M30 0v42q76 8 76 67v402q0 60 -76 68v42h309q295 0 295 -149q0 -109 -149 -132q183 -26 183 -162q0 -84 -67.5 -131t-175.5 -47q-21 0 -98.5 5.5t-155 5.5t-141.5 -11zM339 361h26q48 0 68.5 29.5t20.5 71.5q0 53 -27.5 81.5t-77.5 28.5h-10q-64 0 -64 -61v-90
q0 -60 64 -60zM320 54h35q133 0 133 125q0 134 -168 134q-20 0 -32.5 -15.5t-12.5 -44.5v-161q0 -38 45 -38z" />
    <glyph glyph-name="C" unicode="C" horiz-adv-x="673" 
d="M373 -10q-142 0 -242.5 87.5t-100.5 232.5q0 100 50.5 176t131 113.5t175.5 37.5q122 0 189.5 -50t67.5 -119q0 -38 -22.5 -67t-68.5 -29q-44 0 -68.5 26t-24.5 63q0 135 -103 135q-60 0 -101 -64.5t-41 -172.5q0 -130 72.5 -203.5t167.5 -73.5q91 0 154 70l29 -25
q-27 -50 -94 -93.5t-171 -43.5z" />
    <glyph glyph-name="D" unicode="D" horiz-adv-x="737" 
d="M30 0v42q76 8 76 67v402q0 60 -76 68v42h308q182 0 270.5 -75.5t88.5 -229.5q0 -82 -27 -143.5t-64.5 -93t-88 -50.5t-84.5 -23t-68 -4q-19 0 -89 3.5t-104 3.5q-63 0 -142 -9zM337 52q84 0 128.5 73t44.5 191q0 126 -47.5 191t-114.5 65h-9q-64 0 -64 -61v-402
q0 -57 62 -57z" />
    <glyph glyph-name="E" unicode="E" horiz-adv-x="620" 
d="M30 0v42q76 8 76 67v403q0 59 -76 67v42h508q13 0 14 -10q7 -68 21 -133h-25q-28 48 -55 68.5t-69 20.5h-85q-64 0 -64 -61v-105q0 -60 64 -60h40q59 0 78.5 15t25.5 57h22v-198h-22q-6 41 -26 56t-78 15h-40q-64 0 -64 -60v-113q0 -59 53 -61l108 1q79 1 115 52l24 35
h25q-20 -39 -30 -126q-2 -14 -16 -14h-524z" />
    <glyph glyph-name="F" unicode="F" horiz-adv-x="593" 
d="M30 0v42q76 8 76 67v403q0 59 -76 67v42h508q13 0 14 -10q7 -68 21 -133h-25q-28 48 -55 68.5t-69 20.5h-85q-64 0 -64 -61v-105q0 -60 64 -60h40q58 0 78 13.5t26 48.5h22v-178h-22q-7 34 -27 47.5t-77 13.5h-40q-64 0 -64 -60v-117q0 -60 86 -67v-42h-331z" />
    <glyph glyph-name="G" unicode="G" horiz-adv-x="711" 
d="M366 -10q-137 0 -236.5 87.5t-99.5 232.5q0 150 105.5 238.5t256.5 88.5q120 0 187 -50t67 -116q0 -35 -22.5 -61.5t-67.5 -26.5q-43 0 -67 25t-24 58q0 54 -24 92t-78 38q-64 0 -106 -62.5t-42 -165.5q0 -137 71 -229.5t151 -92.5q47 0 47 39v109q0 35 -17.5 48.5
t-69.5 17.5v28l299 1v-29q-38 -5 -50.5 -18t-12.5 -48v-194q-29 18 -61 20t-57.5 -5.5t-68 -16t-80.5 -8.5z" />
    <glyph glyph-name="H" unicode="H" horiz-adv-x="772" 
d="M742 579q-76 -8 -76 -67v-403q0 -59 76 -67v-42h-321v42q75 8 75 67v132q0 32 -47 32h-126q-20 0 -34 -8t-14 -24v-132q0 -59 76 -67v-42h-321v42q76 8 76 67v403q0 59 -76 67v42h321v-42q-76 -8 -76 -67v-143q0 -32 49 -32h124q48 0 48 32v143q0 59 -75 67v42h321v-42z
" />
    <glyph glyph-name="I" unicode="I" horiz-adv-x="381" 
d="M30 0v42q76 8 76 67v403q0 59 -76 67v42h321v-42q-76 -8 -76 -67v-403q0 -59 76 -67v-42h-321z" />
    <glyph glyph-name="J" unicode="J" horiz-adv-x="496" 
d="M162 -10q-76 0 -129 30.5t-53 89.5q0 40 24 61.5t58 21.5q69 0 69 -82q0 -77 51 -77q39 0 39 68v410q0 60 -86 67v42h331v-42q-75 -8 -75 -67v-343q0 -51 -22.5 -88.5t-59 -56t-73 -26.5t-74.5 -8z" />
    <glyph glyph-name="K" unicode="K" horiz-adv-x="775" 
d="M607 147q37 -52 71.5 -75t76.5 -30v-42h-355v42q22 7 32.5 15t13.5 23.5t-14 36.5l-48 83q-54 73 -76 45l-19 -21q-4 -5 -6.5 -10t-3.5 -8.5t-2 -10t-1 -9.5t-0.5 -12.5t-0.5 -13.5v-51q0 -59 76 -67v-42h-321v42q76 8 76 67v403q0 59 -76 67v42h321v-42q-76 -8 -76 -67
v-231l227 235q22 23 9.5 42t-49.5 21v42h255v-42q-36 -2 -81.5 -22.5t-68.5 -44.5l-86 -89q-22 -22 -24 -39.5t17 -45.5z" />
    <glyph glyph-name="L" unicode="L" horiz-adv-x="638" 
d="M30 0v42q76 8 76 67v403q0 59 -76 67v42h321v-42q-76 -8 -76 -67v-403q0 -67 87 -61l67 3q50 2 77.5 17t50.5 50l23 39h38l-14 -59q-14 -56 -10 -98h-564z" />
    <glyph glyph-name="M" unicode="M" horiz-adv-x="908" 
d="M878 579q-76 -8 -76 -67v-403q0 -59 76 -67v-42h-321v42q75 8 75 67v363l-198 -419h-47l-206 414v-358q0 -59 79 -67v-42h-230v42q76 8 76 67v403q0 59 -76 67v42h243l185 -371l174 371h246v-42z" />
    <glyph glyph-name="N" unicode="N" horiz-adv-x="743" 
d="M485 621h228v-42q-75 -8 -75 -67v-512h-68l-389 425v-316q0 -59 78 -67v-42h-229v42q76 8 76 67v403q0 59 -76 67v42h190l342 -372v263q0 59 -77 67v42z" />
    <glyph glyph-name="O" unicode="O" horiz-adv-x="729" 
d="M356 -10q-83 0 -155.5 35t-121.5 109t-49 174q0 152 101 240.5t243 88.5q82 0 154.5 -34.5t121.5 -108.5t49 -172q0 -103 -49 -180t-126 -114.5t-168 -37.5zM392 48q50 0 85 52t35 160q0 135 -50.5 227t-124.5 92q-50 0 -84.5 -51.5t-34.5 -158.5q0 -137 50 -229t124 -92
z" />
    <glyph glyph-name="P" unicode="P" horiz-adv-x="668" 
d="M30 0v42q76 8 76 67v403q0 59 -76 67v42h322q144 0 217.5 -53t73.5 -147q0 -95 -74 -150.5t-217 -55.5h-22q-30 0 -42.5 -12.5t-12.5 -40.5v-53q0 -60 86 -67v-42h-331zM330 279h22q127 0 127 140q0 66 -29 102t-98 36h-29q-48 0 -48 -51v-174q0 -28 12.5 -40.5
t42.5 -12.5z" />
    <glyph glyph-name="Q" unicode="Q" horiz-adv-x="729" 
d="M647 38q33 0 53 -23t20 -57q0 -55 -49.5 -92t-127.5 -37q-104 0 -177 67l-105 98q-22 22 -35.5 17.5t-19.5 -16t-6 -23.5q0 -30 -20 -47t-49 -17q-32 0 -51 21.5t-19 52.5q0 60 75 86q-106 89 -106 240q0 152 101 240.5t243 88.5q82 0 154.5 -34.5t121.5 -108.5t49 -172
q0 -138 -82 -224.5t-206 -103.5l71 -67q23 -21 41 -31t27.5 -8t16 6.5t8.5 19t2.5 21.5t0.5 21v7q0 33 18.5 54t50.5 21zM337 579q-50 0 -84.5 -51.5t-34.5 -158.5q0 -137 50 -229t124 -92q50 0 85 52t35 160q0 135 -50.5 227t-124.5 92z" />
    <glyph glyph-name="R" unicode="R" horiz-adv-x="724" 
d="M30 0v42q76 8 76 67v403q0 59 -76 67v42h366q113 0 182 -44t69 -126q0 -60 -40.5 -103.5t-120.5 -50.5q-5 0 -5 -6.5t5 -7.5q49 -12 76.5 -38t53.5 -94q2 -4 13 -30t18 -39t23 -26.5t34 -13.5v-42h-75q-65 0 -105 18.5t-64 53.5t-53 106q-24 50 -39.5 67t-43.5 17
q-26 0 -37.5 -12.5t-11.5 -40.5v-100q0 -60 86 -67v-42h-331zM330 326h24q63 0 91 38.5t28 86.5q0 43 -24 74.5t-72 31.5h-54q-48 0 -48 -51v-127q0 -28 12.5 -40.5t42.5 -12.5z" />
    <glyph glyph-name="S" unicode="S" horiz-adv-x="593" 
d="M295 -10q-65 0 -134 17t-101 39q-16 38 -21.5 76t5 65.5t37.5 27.5q11 0 15.5 -6t11.5 -23q26 -68 80.5 -102.5t117.5 -35.5q94 -1 94 76q0 41 -41.5 65t-121.5 47q-86 25 -144 78.5t-58 134.5q0 91 69.5 139.5t172.5 48.5q63 0 129.5 -15.5t98.5 -37.5q16 -38 21.5 -76
t-5 -65.5t-37.5 -27.5q-11 0 -15.5 6t-11.5 23q-24 65 -75.5 99.5t-110.5 34.5q-47 0 -70 -22t-23 -47q0 -45 34 -69t106 -44q38 -11 66 -21t63 -28.5t57.5 -40.5t38 -55.5t15.5 -74.5q0 -52 -24.5 -90.5t-65 -58t-83.5 -28.5t-90 -9z" />
    <glyph glyph-name="T" unicode="T" horiz-adv-x="680" 
d="M159 0v42q96 7 96 67v390q0 45 -12.5 56.5t-54.5 11.5q-50 0 -73.5 -24t-47.5 -89h-42l23 170l57 -3h470l57 3l23 -170h-43q-24 65 -47.5 89t-73.5 24q-42 0 -54 -11.5t-12 -56.5v-390q0 -60 95 -67v-42h-361z" />
    <glyph glyph-name="U" unicode="U" horiz-adv-x="752" 
d="M382 -10q-129 0 -205 70t-76 213v239q0 59 -76 67v42h321v-42q-76 -8 -76 -67v-228q0 -212 149 -212q71 0 113.5 51.5t42.5 154.5v234q0 29 -21 46t-59 21v42h232v-42q-38 -4 -59.5 -21t-21.5 -46v-261q0 -120 -67 -190.5t-197 -70.5z" />
    <glyph glyph-name="V" unicode="V" horiz-adv-x="734" 
d="M326 0l-208 448q-6 12 -19 40.5t-17.5 37t-15 23.5t-21 21.5t-25.5 10.5v40h299v-42q-75 -10 -38 -88l124 -261q8 -23 18 -1l115 255q17 38 -0.5 63t-69.5 32v42h246v-42q-42 -8 -63.5 -33t-44.5 -75l-160 -355q-29 -64 -29 -116h-91z" />
    <glyph glyph-name="W" unicode="W" horiz-adv-x="1059" 
d="M305 0l-191 448q-4 9 -11.5 28t-10 25t-9 20t-10 19t-10 13.5t-12 12.5t-14 8t-17.5 7v40h294v-42q-75 -10 -42 -88l106 -253q10 -24 20 0l39 103q4 11 16.5 37t16 38t4 34t-9.5 45q-17 40 -32 59t-43 27v40h294v-42q-75 -10 -42 -88l107 -253q10 -24 20 0l94 246
q32 80 -70 95v42h247v-42q-43 -8 -66 -33.5t-43 -74.5l-139 -355q-30 -79 -30 -116h-86l-156 364l-97 -248q-31 -78 -31 -116h-86z" />
    <glyph glyph-name="X" unicode="X" horiz-adv-x="723" 
d="M572 140q28 -37 63 -66t68 -32v-42h-335v42q38 3 48.5 28t-6.5 44l-88 123q-150 -167 -85 -192q7 -2 16 -3v-42h-233v42q94 8 265 227l8 10l-143 200q-27 37 -63.5 67t-69.5 33v42h335v-42q-38 -3 -48.5 -28t6.5 -44l86 -121q152 167 85 190q-6 2 -15 3v42h233v-42
q-96 -8 -267 -227l-6 -8z" />
    <glyph glyph-name="Y" unicode="Y" horiz-adv-x="697" 
d="M171 0v42q95 7 95 67v107q0 56 -21 85l-113 170q-28 42 -40 58.5t-33 32.5t-44 17v42h313v-42q-35 -3 -44.5 -21.5t15.5 -63.5l95 -147q7 -14 14 0l104 152q20 25 9 50.5t-56 29.5v42h217v-42q-17 -2 -31.5 -9.5t-30 -26t-20.5 -24.5t-21 -29l-122 -183q-21 -31 -21 -91
v-107q0 -60 96 -67v-42h-361z" />
    <glyph glyph-name="Z" unicode="Z" horiz-adv-x="638" 
d="M15 0l380 569l-172 -1q-49 0 -77.5 -24.5t-60.5 -82.5h-43l41 160h535l-379 -569h189q15 0 27 1t23 5t18 6.5t16 12t13 13t12.5 18t11.5 19.5t13 25.5t14 27.5h42l-47 -180h-556z" />
    <glyph glyph-name="bracketleft" unicode="[" 
d="M182 671v-749l97 -19q21 -3 21 -16v-53l-255 18v889l255 18v-53q0 -12 -21 -16z" />
    <glyph glyph-name="backslash" unicode="\" horiz-adv-x="433" 
d="M398 0h-96l-267 641h96z" />
    <glyph glyph-name="bracketright" unicode="]" 
d="M143 671l-97 19q-21 4 -21 16v53l255 -18v-889l-255 -18v53q0 13 21 16l97 19v749z" />
    <glyph glyph-name="asciicircum" unicode="^" horiz-adv-x="442" 
d="M196 686q12 13 27 11.5t22 -11.5l139 -187q12 -17 4.5 -32.5t-27.5 -15.5h-10q-7 0 -14 3t-11 5.5t-10 7.5t-7 6l-88 86l-89 -85q-20 -23 -43 -23h-10q-19 0 -26.5 15.5t5.5 32.5z" />
    <glyph glyph-name="underscore" unicode="_" horiz-adv-x="612" 
d="M50 -20h512v-87h-512v87z" />
    <glyph glyph-name="grave" unicode="`" horiz-adv-x="324" 
d="M249 585l-91 112q-60 73 -108 24q-53 -55 39 -111l124 -73q19 -13 38 6q17 18 -2 42z" />
    <glyph glyph-name="a" unicode="a" horiz-adv-x="543" 
d="M164 -6q-58 0 -96 27.5t-38 82.5q0 62 57.5 97t188.5 58q29 5 37.5 13.5t8.5 33.5v6q0 56 -15 79.5t-48 23.5q-53 0 -53 -71q0 -33 -23.5 -50t-55.5 -17q-33 0 -51 19t-18 45q0 54 72.5 86.5t168.5 32.5q91 0 132 -40.5t41 -154.5v-163q0 -46 51 -37v-45q-30 -25 -98 -25
q-46 0 -70 20t-30 45q-2 11 -7 12.5t-13 -7.5q-58 -71 -141 -71zM231 77q42 0 66.5 29.5t24.5 76.5v7q0 17 -9 23.5t-31 4.5q-56 -3 -79 -31t-23 -57q0 -53 51 -53z" />
    <glyph glyph-name="b" unicode="b" horiz-adv-x="609" 
d="M97 -6q-11 0 -17.5 7t-6.5 18v510q0 33 -16 44t-47 8v45l163 27q50 7 50 -40v-183q0 -9 4 -13t9.5 -2.5t11.5 6.5q43 39 127 39q85 0 144.5 -60t59.5 -167q0 -110 -66 -174.5t-150 -64.5q-38 0 -75 13t-64 26.5t-41 13.5q-18 0 -45 -26.5t-41 -26.5zM339 49q41 0 61 37
t20 101q0 82 -28.5 137t-78.5 55q-38 0 -64 -32.5t-26 -109.5v-60q0 -67 36 -97.5t80 -30.5z" />
    <glyph glyph-name="c" unicode="c" horiz-adv-x="518" 
d="M290 -6q-68 0 -125 23.5t-96 78t-39 130.5q0 58 23.5 104.5t62 74t83 41.5t91.5 14q81 0 137 -39.5t56 -90.5q0 -75 -67 -75q-36 0 -55.5 22t-19.5 46v7q0 14 -0.5 22t-3.5 21.5t-8.5 20.5t-18 12.5t-29.5 5.5q-88 0 -88 -139q0 -92 45.5 -146t121.5 -54q54 0 91 50
l32 -27q-18 -38 -67.5 -70t-125.5 -32z" />
    <glyph glyph-name="d" unicode="d" horiz-adv-x="611" 
d="M534 101q0 -24 14 -32t48 0v-44q-47 -30 -110 -30q-43 0 -69 20t-32 54q-52 -75 -153 -75q-84 0 -143 59t-59 165q0 112 67 177t153 65q29 0 56 -8t39.5 -15.5t22.5 -9.5t13 8.5t3 39.5v54q0 33 -16 44t-47 8v45l163 27q50 7 50 -40v-512zM299 75q34 0 59.5 27t25.5 85
v44q0 86 -35.5 130t-76.5 44t-62 -37t-21 -96q0 -78 31.5 -137.5t78.5 -59.5z" />
    <glyph glyph-name="e" unicode="e" horiz-adv-x="527" 
d="M347 73q62 0 105 50l30 -27q-18 -37 -71 -69.5t-132 -32.5q-103 0 -176 59.5t-73 170.5q0 115 77 175.5t183 60.5q85 0 143.5 -39.5t58.5 -107.5q0 -26 -9.5 -45t-22 -29t-37.5 -16t-43.5 -8t-52.5 -4l-104 -5q-21 -3 -16 -31q36 -102 140 -102zM276 412q-81 0 -85 -128
q3 -35 39 -35l26 -1q56 -1 78.5 18.5t22.5 56.5q0 33 -22.5 61t-58.5 28z" />
    <glyph glyph-name="f" unicode="f" horiz-adv-x="448" 
d="M298 672q67 0 118.5 -29t51.5 -79q0 -29 -19 -49t-53 -20q-29 0 -45 13.5t-20.5 32.5t-7.5 38t-12 32.5t-28 13.5q-42 0 -42 -94v-52q0 -28 32 -28h94v-51h-94q-17 0 -24.5 -6.5t-7.5 -25.5v-257q0 -36 14.5 -50.5t50.5 -16.5v-44h-279v44q36 2 50 16.5t14 50.5v257
q0 18 -6.5 25t-24.5 7h-40v36q71 -4 71 43q1 89 60.5 141t146.5 52z" />
    <glyph glyph-name="g" unicode="g" horiz-adv-x="560" 
d="M487 354q-17 3 -22.5 -7t-4.5 -39v-12q0 -69 -49 -115.5t-140 -46.5q-15 0 -34.5 1.5t-28.5 1.5q-37 0 -37 -23q0 -20 66 -33l101 -19q87 -16 132.5 -38.5t45.5 -65.5q0 -72 -87.5 -120.5t-205.5 -48.5q-90 0 -149 30t-59 84q0 61 78 85q24 8 24 10q1 3 -23 10
q-54 16 -54 69q0 68 96 83q-87 42 -87 137q0 71 51 117t150 46q112 0 169 -59q7 57 63 57q26 0 44.5 -13t18.5 -43q0 -26 -17 -39.5t-41 -8.5zM269 180q20 0 32 8.5t16.5 26.5t5.5 30t1 35q0 47 -21.5 90.5t-63.5 43.5q-24 0 -37 -17.5t-15.5 -36.5t-2.5 -47
q0 -48 20.5 -90.5t64.5 -42.5zM250 -32q-53 9 -76.5 -11t-23.5 -51q0 -34 32.5 -57t85.5 -23t82 20t29 51q0 33 -22 45.5t-85 22.5z" />
    <glyph glyph-name="h" unicode="h" horiz-adv-x="616" 
d="M544 102q0 -46 52 -37v-45q-12 -11 -42 -18t-57 -7q-49 0 -76 25.5t-27 68.5v159q0 114 -76 114q-44 0 -67 -29.5t-23 -84.5v-137q0 -36 14 -50.5t48 -16.5v-44h-276v44q36 2 50 16.5t14 50.5v418q0 33 -16 44t-47 8v45l163 27q50 7 50 -40v-187q0 -16 6 -24.5t14 -8
t14 8.5q54 62 138 62q64 0 104 -39.5t40 -146.5v-176z" />
    <glyph glyph-name="i" unicode="i" 
d="M151 498q-36 0 -61.5 24.5t-25.5 59.5q0 37 25.5 62t61.5 25t60.5 -25t24.5 -62q0 -35 -25 -59.5t-60 -24.5zM24 0v44q36 2 50 16.5t14 50.5v224q0 33 -16 43.5t-47 7.5v45l163 27q50 7 50 -40v-307q0 -36 14 -50.5t48 -16.5v-44h-276z" />
    <glyph glyph-name="j" unicode="j" horiz-adv-x="318" 
d="M167 498q-37 0 -62 24.5t-25 59.5q0 37 25 62t62 25q35 0 60 -25t25 -62q0 -35 -25 -59.5t-60 -24.5zM60 -202q-55 0 -97 21.5t-42 68.5q0 30 17 48t44 18q35 0 54 -16t21.5 -34.5t6.5 -34.5t14 -16q11 0 18 16t7 36v430q0 33 -16 43.5t-47 7.5v45l163 27q50 7 50 -40
v-454q0 -80 -55.5 -123t-137.5 -43z" />
    <glyph glyph-name="k" unicode="k" horiz-adv-x="607" 
d="M510 98q34 -51 97 -54v-44h-290v44q16 1 22 10.5t4 19.5t-8 20l-42 74q-18 27 -25 29q-5 0 -10 -4q-20 -18 -25 -27t-5 -34v-21q0 -36 14 -50.5t48 -16.5v-44h-276v44q36 2 50 16.5t14 50.5v418q0 33 -16 44t-47 8v45l163 27q50 7 50 -40v-317q0 -24 13.5 -33t27.5 4
l99 83q10 10 11 22t-13 23t-39 12v44h242v-44q-37 -2 -66 -16.5t-64 -44.5l-61 -51z" />
    <glyph glyph-name="l" unicode="l" horiz-adv-x="300" 
d="M175 -5q-48 0 -75 25t-27 67v442q0 33 -16 44t-47 8v45l163 27q50 7 50 -40v-512q0 -24 14 -32t48 0v-44q-47 -30 -110 -30z" />
    <glyph glyph-name="m" unicode="m" horiz-adv-x="898" 
d="M826 101q0 -46 52 -37v-44q-12 -11 -42 -18t-57 -7q-49 0 -76 25.5t-27 68.5v159q0 116 -66 116q-78 0 -78 -116v-137q0 -36 14 -50.5t48 -16.5v-44h-276v44q36 2 50 16.5t14 50.5v137q0 116 -66 116q-78 0 -78 -116v-137q0 -36 14 -50.5t48 -16.5v-44h-276v44
q36 2 50 16.5t14 50.5v225q0 33 -16 43.5t-47 7.5v44l163 27q50 7 50 -32q0 -16 6 -24.5t14 -8t14 8.5q17 19 30.5 30.5t39 21.5t56.5 10q77 0 108 -57h1q5 -11 13.5 -12.5t15.5 6.5q55 63 151 63q139 0 139 -186v-177z" />
    <glyph glyph-name="n" unicode="n" horiz-adv-x="626" 
d="M507 -5q-49 0 -76 25.5t-27 68.5v159q0 116 -76 116q-43 0 -66.5 -30t-23.5 -86v-137q0 -36 14 -50.5t48 -16.5v-44h-276v44q36 2 50 16.5t14 50.5v224q0 33 -16 43.5t-47 7.5v45l163 27q50 7 50 -32q0 -16 6 -24.5t14 -8t14 8.5q56 62 138 62q64 0 104 -39.5t40 -146.5
v-176q0 -46 52 -37v-45q-12 -11 -42 -18t-57 -7z" />
    <glyph glyph-name="o" unicode="o" horiz-adv-x="551" 
d="M278 -6q-102 0 -175 61t-73 175q0 113 71.5 171.5t172.5 58.5q102 0 174.5 -61t72.5 -175q0 -113 -71 -171.5t-172 -58.5zM293 40q31 0 49.5 37.5t18.5 106.5q0 94 -29 162t-73 68q-32 0 -50 -37t-18 -107q0 -94 29 -162t73 -68z" />
    <glyph glyph-name="p" unicode="p" horiz-adv-x="624" 
d="M390 460q85 0 144.5 -60t59.5 -167q0 -110 -66.5 -174.5t-152.5 -64.5q-23 0 -47 5.5t-39 11t-27.5 8.5t-18 -1.5t-5.5 -19.5v-77q0 -36 14 -50.5t48 -16.5v-44h-276v44q36 2 50 16.5t14 50.5v414q0 33 -16 43.5t-47 7.5v45l163 27q43 6 49 -28h1q0 -9 4 -13t9.5 -2.5
t11.5 6.5q43 39 127 39zM353 49q41 0 61.5 37t20.5 101q0 82 -28.5 137t-79.5 55q-37 0 -63 -32.5t-26 -109.5v-60q0 -67 36 -97.5t79 -30.5z" />
    <glyph glyph-name="q" unicode="q" horiz-adv-x="598" 
d="M322 -190v44q36 2 50 16.5t14 50.5v102q0 14 -8.5 16t-16.5 -7q-42 -38 -129 -38q-84 0 -143 59.5t-59 166.5q0 110 66 175t148 65q39 0 76.5 -13.5t64.5 -27t41 -13.5q18 0 45.5 26.5t40.5 26.5q11 0 17.5 -7t6.5 -18v-513q0 -36 14 -50.5t48 -16.5v-44h-276zM298 75
q37 0 62.5 32t25.5 109v18q0 84 -36.5 127.5t-78.5 43.5q-41 0 -61.5 -36.5t-20.5 -96.5q0 -78 31 -137.5t78 -59.5z" />
    <glyph glyph-name="r" unicode="r" horiz-adv-x="519" 
d="M24 0v44q36 2 50 16.5t14 50.5v224q0 33 -16 43.5t-47 7.5v45l163 27q50 7 50 -32q0 -16 5 -24t12 -7t13 9q21 26 53.5 43t69.5 17q45 0 79 -28t34 -73q0 -41 -21.5 -62.5t-57.5 -21.5q-30 0 -50 16t-20 45q0 22 -10.5 34t-26.5 12q-34 0 -57 -39t-23 -110v-126
q0 -36 15 -50.5t54 -16.5v-44h-283z" />
    <glyph glyph-name="s" unicode="s" horiz-adv-x="461" 
d="M228 -6q-86 0 -144.5 32t-58.5 88q0 27 15 43t42 16q31 0 46.5 -15.5t15.5 -37.5q0 -37 28.5 -57.5t64.5 -20.5t50 19t14 41q0 25 -19 38t-72 28q-174 51 -174 156q0 63 57 99.5t138 36.5q44 0 84 -10t69.5 -34.5t29.5 -59.5q0 -52 -56 -52q-26 0 -39.5 11.5t-13.5 25.5
q0 71 -79 71q-23 0 -40 -14t-17 -33q0 -42 77 -63q2 -1 22 -6.5t25.5 -7.5t24.5 -8.5t26.5 -10t23 -12t22.5 -15.5l18 -18t15.5 -22t8.5 -25.5t4 -30.5q0 -76 -60 -114t-148 -38z" />
    <glyph glyph-name="t" unicode="t" horiz-adv-x="374" 
d="M240 -5q-80 0 -117 41t-37 126v206q0 18 -7 25t-24 7h-40v36q74 9 109 39t50 87h62v-83q0 -28 32 -28h87v-51h-87q-17 0 -24.5 -6.5t-7.5 -25.5v-235q0 -38 8.5 -58t34.5 -20q33 0 53 17l22 -40q-44 -37 -114 -37z" />
    <glyph glyph-name="u" unicode="u" horiz-adv-x="631" 
d="M234 -6q-66 0 -106 39.5t-40 146.5v155q0 33 -16 43.5t-47 7.5v45l163 27q50 7 50 -40v-208q0 -55 19.5 -85.5t56.5 -30.5q44 0 67 30t23 86v125q0 33 -16 43.5t-47 7.5v45l162 27q51 7 51 -40v-316q0 -46 52 -37v-45q-30 -25 -98 -25q-18 0 -33 4t-23.5 8t-16 13.5
t-10 13.5t-6.5 14l-4 11q-5 20 -14 20q-7 0 -16 -12q-57 -73 -151 -73z" />
    <glyph glyph-name="v" unicode="v" horiz-adv-x="574" 
d="M215 0l-123 327q-13 34 -31.5 51.5t-50.5 28.5v44h264v-44q-37 -10 -41.5 -27.5t11.5 -52.5l74 -193q7 -18 16 -18t16 18l39 102q24 65 26.5 100t-11.5 49t-48 22v44h208v-44q-43 -10 -61.5 -26.5t-32.5 -53.5l-125 -327h-130z" />
    <glyph glyph-name="w" unicode="w" horiz-adv-x="852" 
d="M201 0l-109 327q-10 33 -29.5 51t-52.5 29v44h262v-44q-36 -10 -40.5 -27.5t8.5 -52.5l59 -193q5 -18 16.5 -18t17.5 18l33 115q18 64 9 101q-11 40 -57 57v44h262v-44q-36 -10 -40.5 -27.5t8.5 -52.5l59 -193q5 -18 16.5 -18t17.5 18l29 102q28 102 20.5 131t-56.5 40
v44h208v-44q-45 -10 -65 -27.5t-31 -52.5l-109 -327h-128l-89 270l-91 -270h-128z" />
    <glyph glyph-name="x" unicode="x" horiz-adv-x="521" 
d="M506 407q-69 -20 -136 -90l-58 -63l90 -119q31 -43 51 -60t53 -31v-44h-246v44q34 7 34 23q0 13 -38 65q-1 2 -2 3l-23 30q-34 -37 -49.5 -56.5t-19 -33.5t4.5 -19.5t29 -11.5v-44h-181v44q71 20 136 90l57 62l-90 120q-31 43 -51 60t-53 31v44h247v-44q-13 -3 -21 -6
t-10.5 -9t-2.5 -11t6 -15.5t11 -18t17 -24.5q2 -2 3 -3.5t2 -3.5l24 -32q33 37 49 57t19.5 34t-4.5 20t-29 12v44h181v-44z" />
    <glyph glyph-name="y" unicode="y" horiz-adv-x="574" 
d="M161 -198q-54 0 -89 23.5t-35 61.5q0 26 16 45.5t50 19.5q29 0 43.5 -16.5t16.5 -36t10 -36t25 -16.5q26 0 34 25q16 48 -9 114l-131 341q-13 34 -31.5 51.5t-50.5 28.5v44h264v-44q-37 -10 -42.5 -27.5t10.5 -52.5l75 -189q7 -21 16.5 -21t16.5 21l37 98q34 100 26 130
t-58 41v44h209v-44q-44 -10 -62 -26.5t-33 -53.5l-141 -373q-33 -86 -70.5 -119t-96.5 -33z" />
    <glyph glyph-name="z" unicode="z" horiz-adv-x="474" 
d="M15 0l253 399h-104q-65 0 -84 -85h-44l18 137h405l-253 -399h115q65 0 84 85h44l-18 -137h-416z" />
    <glyph glyph-name="braceleft" unicode="{" horiz-adv-x="308" 
d="M246 43q0 -14 -0.5 -38.5t-0.5 -36t1 -29.5t3 -27.5t6.5 -20.5t11 -18t16.5 -12l-57 -27q-48 19 -75 53.5t-34.5 69.5t-7.5 86v170q0 22 -12 32.5t-52 28.5v43q40 18 52 28.5t12 32.5v170q0 51 7.5 86t34.5 69.5t75 53.5l57 -27q-10 -5 -16.5 -12t-11 -18t-6.5 -20.5
t-3 -27.5t-1 -29.5t0.5 -36t0.5 -38.5v-122q0 -57 -22.5 -87.5t-70.5 -41.5v-3q48 -11 70.5 -41.5t22.5 -87.5v-122z" />
    <glyph glyph-name="bar" unicode="|" horiz-adv-x="248" 
d="M100 800h48v-1015h-48v1015z" />
    <glyph glyph-name="braceright" unicode="}" horiz-adv-x="308" 
d="M62 43v122q0 57 22.5 87.5t70.5 41.5v3q-48 11 -70.5 41.5t-22.5 87.5v122q0 14 0.5 38.5t0.5 36t-1 29.5t-3 27.5t-6.5 20.5t-11 18t-16.5 12l57 27q48 -19 75 -53.5t34.5 -69.5t7.5 -86v-170q0 -22 12 -32.5t52 -28.5v-43q-40 -18 -52 -28.5t-12 -32.5v-170
q0 -51 -7.5 -86t-34.5 -69.5t-75 -53.5l-57 27q10 5 16.5 12t11 18t6.5 20.5t3 27.5t1 29.5t-0.5 36t-0.5 38.5z" />
    <glyph glyph-name="asciitilde" unicode="~" horiz-adv-x="522" 
d="M472 300h-41q0 -45 -50 -45q-25 0 -92 35.5t-114 35.5q-60 0 -92.5 -33t-32.5 -93h42q0 21 14.5 33t34.5 12q25 0 93 -35.5t114 -35.5q60 0 92 33t32 93z" />
    <glyph glyph-name="exclamdown" unicode="&#xa1;" horiz-adv-x="262" 
d="M131 456q32 0 55.5 -23.5t23.5 -55.5t-23.5 -55.5t-55.5 -23.5t-55 23.5t-23 55.5t23 55.5t55 23.5zM96 234h71q2 -83 26 -189t24 -147q0 -39 -24 -62t-62 -23q-36 0 -61 23.5t-25 61.5q0 41 24.5 147t26.5 189z" />
    <glyph glyph-name="cent" unicode="&#xa2;" horiz-adv-x="518" 
d="M360 73q54 0 91 50l32 -27q-18 -38 -67.5 -70t-125.5 -32q-43 0 -80 10l-18 -65h-29l20 73q-69 24 -111 78t-42 136q0 58 23.5 104.5t62 74t83 41.5t91.5 14h15l16 59h29l-17 -62q66 -10 108 -46.5t42 -80.5q0 -75 -67 -75q-36 0 -55.5 22t-19.5 46v10v11.5t-0.5 10.5
t-1.5 11.5t-2.5 10t-4 10.5t-6 8.5t-8.5 7.5l-76 -280q45 -50 118 -50zM193 273q0 -71 28 -121l71 259q-4 1 -11 1q-88 0 -88 -139z" />
    <glyph glyph-name="sterling" unicode="&#xa3;" horiz-adv-x="579" 
d="M521 63q-7 -47 5 -63h-482v86q43 24 63 47.5t20 53.5q0 20 -10 50h-77v32h65q-5 11 -20 44.5t-22 51.5t-14 46t-7 52q0 82 68.5 128t173.5 46q111 0 180.5 -47.5t69.5 -128.5q0 -49 -25.5 -76t-67.5 -27q-30 0 -54 16t-24 47q0 14 6.5 38.5t6.5 39.5q0 40 -25 65t-64 25
q-41 0 -61 -29.5t-20 -67.5t35 -113.5t38 -109.5h151v-32h-152q-11 -72 -107 -117h159q80 0 117 14t47 53h45z" />
    <glyph glyph-name="currency" unicode="&#xa4;" horiz-adv-x="601" 
d="M509 228q0 -64 -36 -117l78 -77l-59 -59l-79 78q-53 -34 -115 -34q-61 0 -111 33l-78 -77l-59 59l77 76q-36 53 -36 118q0 62 35 115l-76 75l59 60l76 -76q53 34 113 34q63 0 117 -35l77 77l59 -60l-77 -76q35 -52 35 -114zM178 228q0 -51 35 -88.5t86 -37.5t87 37.5
t36 88.5t-36 88t-87 37q-50 0 -85.5 -37t-35.5 -88z" />
    <glyph glyph-name="yen" unicode="&#xa5;" horiz-adv-x="697" 
d="M465 621h217v-42q-17 -2 -31.5 -9.5t-30 -26t-20.5 -24.5t-21 -29l-122 -183q-12 -18 -17 -38h112v-32h-116v-21v-40h116v-33h-116v-34q0 -60 96 -67v-42h-361v42q95 7 95 67v34h-120v33h120v40q0 15 -1 21h-119v32h115q-6 17 -16 32l-113 170q-28 42 -40 58.5t-33 32.5
t-44 17v42h313v-42q-35 -3 -44.5 -21.5t15.5 -63.5l95 -147q7 -14 14 0l104 152q20 25 9 50.5t-56 29.5v42z" />
    <glyph glyph-name="brokenbar" unicode="&#xa6;" horiz-adv-x="248" 
d="M100 451v349h48v-349h-48zM100 -215v349h48v-349h-48z" />
    <glyph glyph-name="section" unicode="&#xa7;" horiz-adv-x="541" 
d="M439 103q69 -52 69 -135q0 -47 -22 -81.5t-58.5 -52.5t-75.5 -26t-82 -8q-58 0 -120 15t-92 35q-24 50 -21.5 101.5t39.5 51.5q9 0 13.5 -5t10.5 -21q24 -62 73 -92.5t107 -31.5q86 -1 86 68q0 38 -37.5 60t-111.5 43q-78 22 -130 70.5t-52 122.5q0 78 65 114
q-67 55 -67 136t63 125.5t156 44.5q57 0 117 -14t90 -33q22 -50 19.5 -101.5t-39.5 -51.5q-10 0 -13.5 4t-11.5 20q-21 60 -67.5 91t-99.5 31q-42 0 -63 -19.5t-21 -43.5q0 -40 30.5 -61t96.5 -41q35 -10 59.5 -19t56.5 -26t52 -36.5t34 -50.5t14 -68q0 -82 -67 -115z
M164 270q0 -40 31 -61.5t97 -40.5q39 -11 68 -22q4 11 4 25q0 20 -11 36t-35 28t-45 20t-58 19q-13 3 -47 16q-4 -9 -4 -20z" />
    <glyph glyph-name="dieresis" unicode="&#xa8;" horiz-adv-x="510" 
d="M137 498q-36 0 -61.5 24.5t-25.5 59.5q0 37 25.5 62t61.5 25q35 0 60 -25t25 -62q0 -35 -25 -59.5t-60 -24.5zM375 498q-36 0 -61.5 24.5t-25.5 59.5q0 37 25.5 62t61.5 25t60.5 -25t24.5 -62q0 -35 -25 -59.5t-60 -24.5z" />
    <glyph glyph-name="copyright" unicode="&#xa9;" horiz-adv-x="720" 
d="M360 -10q-141 0 -235.5 92.5t-94.5 231.5q0 138 94.5 230.5t235.5 92.5t235.5 -92.5t94.5 -230.5q0 -139 -94.5 -231.5t-235.5 -92.5zM360 30q122 0 205 81.5t83 202.5t-83 202t-205 81t-205 -81t-83 -202t83 -202.5t205 -81.5zM373 123q-80 0 -139 50.5t-59 136.5
q0 88 61 136.5t141 48.5q64 0 105 -30.5t41 -69.5q0 -24 -12 -40t-36 -16q-27 0 -40.5 15t-13.5 37q0 12 -2.5 23.5t-16 25.5t-37.5 14q-75 0 -75 -113q0 -72 35 -115t95 -43q44 0 78 43l26 -22q-15 -30 -53.5 -55.5t-97.5 -25.5z" />
    <glyph glyph-name="ordfeminine" unicode="&#xaa;" horiz-adv-x="358" 
d="M131 320q-45 -1 -77.5 18.5t-32.5 64.5q0 39 39.5 66t143.5 43v5q0 78 -34 78q-9 0 -19.5 -8.5t-10.5 -23.5q0 -48 -60 -48q-21 0 -32 12.5t-11 28.5q0 34 50.5 55.5t107.5 21.5q56 0 81.5 -27t25.5 -88v-99q0 -29 6 -36.5t31 1.5v-44q-25 -24 -65 -20.5t-57 45.5
q-28 -43 -86 -45zM154 376q50 0 50 66v29q-35 -7 -54.5 -19t-23.5 -22.5t-4 -25.5q0 -28 32 -28zM54 219v51h249v-51h-249z" />
    <glyph glyph-name="guillemotleft" unicode="&#xab;" horiz-adv-x="507" 
d="M50 257l180 161l28 -28l-88 -133l88 -132l-28 -29zM249 257l179 161l29 -28l-89 -133l89 -132l-29 -29z" />
    <glyph glyph-name="logicalnot" unicode="&#xac;" horiz-adv-x="548" 
d="M498 390v-247h-48v199h-400v48h448z" />
    <glyph glyph-name="uni00AD" unicode="&#xad;" horiz-adv-x="370" 
d="M50 296h270v-91h-270v91z" />
    <glyph glyph-name="registered" unicode="&#xae;" horiz-adv-x="720" 
d="M360 -10q-141 0 -235.5 92.5t-94.5 231.5q0 138 94.5 230.5t235.5 92.5t235.5 -92.5t94.5 -230.5q0 -139 -94.5 -231.5t-235.5 -92.5zM360 30q122 0 205 81.5t83 202.5t-83 202t-205 81t-205 -81t-83 -202t83 -202.5t205 -81.5zM501 222q10 -35 20.5 -52.5t29.5 -17.5
v-27h-32q-57 0 -81 22.5t-44 80.5q-12 36 -23.5 48t-39.5 12q-27 0 -27 -32v-67q0 -31 40 -37v-27h-172v27q39 6 39 37v249q0 31 -39 37v27h202q68 0 108 -27t40 -76q0 -70 -93 -94q-3 -1 -3 -3.5t3 -3.5q54 -13 72 -76zM350 324q41 0 59.5 22t18.5 52q0 29 -17 48.5
t-53 19.5h-27q-27 0 -27 -28v-82q0 -17 7.5 -24.5t26.5 -7.5h12z" />
    <glyph glyph-name="macron" unicode="&#xaf;" horiz-adv-x="439" 
d="M58 649q0 19 23 19h277q23 0 23 -19v-50q0 -19 -23 -19h-277q-23 0 -23 19v50z" />
    <glyph glyph-name="degree" unicode="&#xb0;" horiz-adv-x="332" 
d="M166 375q-55 0 -95.5 39t-40.5 92t40.5 92t95.5 39t95.5 -39t40.5 -92t-40.5 -92t-95.5 -39zM166 438q31 0 48 20t17 48q0 27 -17 47.5t-48 20.5t-48 -20.5t-17 -47.5q0 -28 17 -48t48 -20z" />
    <glyph glyph-name="plusminus" unicode="&#xb1;" horiz-adv-x="470" 
d="M260 377h160v-49h-160v-161h-49v161h-161v49h161v161h49v-161zM50 0v48h370v-48h-370z" />
    <glyph glyph-name="uni00B2" unicode="&#xb2;" horiz-adv-x="301" 
d="M40 387q16 77 105 132q46 28 46 55q0 12 -10 19.5t-24 7.5q-29 0 -34 -17q-4 -8 -0.5 -20.5t2.5 -17.5q-11 -24 -42.5 -18t-31.5 30q1 35 27 59t76 24q46 0 69.5 -20t23.5 -56q0 -22 -13.5 -42t-26.5 -29.5t-35 -22.5l-10.5 -6t-7 -4.5t-4.5 -3.5t-2 -3t-1 -3.5t-1 -5
t-2 -7.5h53q16 0 21 8l9 13h34l-10 -58q-3 -14 -21 -14h-190z" />
    <glyph glyph-name="uni00B3" unicode="&#xb3;" horiz-adv-x="294" 
d="M139 383q-49 0 -76.5 23.5t-27.5 55.5q0 11 7.5 18.5t21.5 7.5q15 0 21 -5.5t8 -20t3 -17.5q3 -8 15.5 -16t24.5 -8q23 0 37 15.5t12 28.5q1 27 -17.5 32.5t-44.5 -8.5l-19 35l24 11q32 12 32 44q0 10 -8 17t-24 7q-12 0 -17.5 -17t-0.5 -35l-58 6q-12 5 -12 14
q-1 31 24.5 51t71.5 20q47 0 73 -19t26 -42q0 -31 -36 -43q55 -15 55 -66q0 -39 -30.5 -64t-84.5 -25z" />
    <glyph glyph-name="acute" unicode="&#xb4;" horiz-adv-x="327" 
d="M59 585q-20 -24 -2 -42q19 -19 38 -6l123 73q92 56 40 111q-48 50 -109 -24z" />
    <glyph glyph-name="paragraph" unicode="&#xb6;" horiz-adv-x="893" 
d="M863 579q-76 -8 -76 -67v-496q0 -59 76 -67v-42h-589v42q75 8 75 67v126q0 28 -12.5 40.5t-42.5 12.5h-32q-113 0 -172.5 61t-59.5 155q0 93 59.5 151.5t172.5 58.5h601v-42zM617 16v496q0 29 -14.5 48t-34.5 19t-34.5 -19t-14.5 -48v-496q0 -29 14.5 -48t34.5 -19
t34.5 19t14.5 48z" />
    <glyph glyph-name="periodcentered" unicode="&#xb7;" horiz-adv-x="257" 
d="M128 221q-32 0 -55 23t-23 56q0 32 23 55t55 23t55.5 -23t23.5 -55q0 -33 -23.5 -56t-55.5 -23z" />
    <glyph glyph-name="cedilla" unicode="&#xb8;" horiz-adv-x="313" 
d="M144 -247q-55 0 -92 25.5t-37 58.5q0 36 33.5 49.5t61.5 -17.5q0 -20 11.5 -44t34.5 -24q21 0 31.5 18.5t10.5 44.5q0 47 -32 47q-5 0 -19.5 -3.5t-24.5 -3.5q-20 0 -29 13t-2 30l26 53h97l-20 -43q43 -2 73.5 -28.5t30.5 -66.5q0 -52 -46 -80.5t-108 -28.5z" />
    <glyph glyph-name="uni00B9" unicode="&#xb9;" horiz-adv-x="192" 
d="M32 392v42q29 2 29 18v125l-31 -10v48l56 25q10 4 21 2.5t19 -7t7 -10.5v-173q0 -16 29 -18v-42h-130z" />
    <glyph glyph-name="ordmasculine" unicode="&#xba;" horiz-adv-x="356" 
d="M178 321q-65 0 -111 44t-46 112q0 69 45.5 112t111.5 44t111.5 -43t45.5 -113q0 -68 -45.5 -112t-111.5 -44zM184 364q23 0 37.5 24.5t14.5 69.5q0 54 -19 93.5t-46 39.5q-21 0 -36 -25.5t-15 -69.5q0 -54 18.5 -93t45.5 -39zM54 219v51h249v-51h-249z" />
    <glyph glyph-name="guillemotright" unicode="&#xbb;" horiz-adv-x="507" 
d="M258 257l-179 -161l-29 29l89 132l-89 133l29 28zM457 257l-180 -161l-28 29l88 132l-88 133l28 28z" />
    <glyph glyph-name="onequarter" unicode="&#xbc;" horiz-adv-x="664" 
d="M32 434q29 2 29 18v125l-31 -10v48l56 25q10 4 21 2.5t19 -7t7 -10.5v-173q0 -16 29 -18v-42h-130v42zM479 636h87l-432 -641h-87zM624 55h-35v-20q0 -18 25 -18v-23h-124v23q24 0 24 18v20h-98v39l126 151q9 11 28 7t19 -16v-142h35v-39zM461 94h53v62z" />
    <glyph glyph-name="onehalf" unicode="&#xbd;" horiz-adv-x="692" 
d="M32 392v42q29 2 29 18v125l-31 -10v48l56 25q10 4 21 2.5t19 -7t7 -10.5v-173q0 -16 29 -18v-42h-130zM47 -5l432 641h87l-432 -641h-87zM431 -6q16 77 105 132q46 28 46 55q0 12 -10 19.5t-24 7.5q-29 0 -34 -17q-4 -8 -0.5 -20.5t2.5 -17.5q-10 -24 -42 -18t-32 30
q1 35 27 59t76 24q46 0 69.5 -20t23.5 -56q0 -22 -13.5 -42t-26.5 -29.5t-35 -22.5l-10.5 -6t-7 -4.5t-4.5 -3.5t-2 -3t-1 -3.5t-1 -5t-2 -7.5h53q16 0 21 8l9 13h34l-10 -58q-3 -14 -21 -14h-190z" />
    <glyph glyph-name="threequarters" unicode="&#xbe;" horiz-adv-x="708" 
d="M254 472q0 -39 -30.5 -64t-84.5 -25q-49 0 -76.5 23.5t-27.5 55.5q0 11 7.5 18.5t21.5 7.5q15 0 21 -5.5t8 -20t3 -17.5q3 -8 15.5 -16t24.5 -8q23 0 37 15.5t12 28.5q1 27 -17.5 32.5t-44.5 -8.5l-19 35l24 11q32 12 32 44q0 10 -8 17t-24 7q-12 0 -17.5 -17t-0.5 -35
l-58 6q-12 5 -12 14q-1 31 24.5 51t71.5 20q47 0 73 -19t26 -42q0 -31 -36 -43q55 -15 55 -66zM562 636h87l-432 -641h-87zM668 55h-35v-20q0 -18 25 -18v-23h-124v23q24 0 24 18v20h-98v39l126 151q9 11 28 7t19 -16v-142h35v-39zM506 94h52v62z" />
    <glyph glyph-name="questiondown" unicode="&#xbf;" horiz-adv-x="510" 
d="M261 559q32 0 55 -23.5t23 -55.5t-23 -55.5t-55 -23.5t-55 23.5t-23 55.5t23 55.5t55 23.5zM475 93q0 55 -27.5 84t-64.5 29q-29 0 -51 -18t-22 -47q0 -14 18 -44t18 -57q0 -34 -26 -50t-60 -16q-43 0 -69 27t-26 62q0 26 16 49.5t37 44t41.5 45t31 63t2.5 86.5h-61
q-3 -33 -24.5 -60t-50 -47t-56.5 -41.5t-47 -53.5t-19 -72q0 -74 60 -117.5t155 -43.5q104 0 164.5 50t60.5 127z" />
    <glyph glyph-name="Agrave" unicode="&#xc0;" horiz-adv-x="734" 
d="M248 780q-92 56 -39 111q48 49 108 -24l91 -112q19 -24 2 -42q-19 -19 -38 -6zM617 173q6 -13 16 -35t14 -31t12.5 -23.5t15 -20.5t16.5 -13t23 -10v-40h-298v42q75 10 38 88q-16 33 -59 33h-144q-39 0 -54 -26q-17 -38 0.5 -63t68.5 -32v-42h-246v42q43 8 64.5 33
t43.5 75l160 355q29 64 29 116l88 8zM388 218q8 0 12.5 5.5t1.5 15.5l-73 152q-8 23 -18 1l-69 -153q-3 -10 1.5 -15.5t12.5 -5.5h132zM192 127l1 3l-1 -1v-2z" />
    <glyph glyph-name="Aacute" unicode="&#xc1;" horiz-adv-x="734" 
d="M353 707q-19 -13 -38 6q-18 18 2 42l90 112q61 74 109 24q52 -55 -40 -111zM617 173q6 -13 16 -35t14 -31t12.5 -23.5t15 -20.5t16.5 -13t23 -10v-40h-298v42q75 10 38 88q-16 33 -59 33h-144q-39 0 -54 -26q-17 -38 0.5 -63t68.5 -32v-42h-246v42q43 8 64.5 33t43.5 75
l160 355q29 64 29 116l88 8zM388 218q8 0 12.5 5.5t1.5 15.5l-73 152q-8 23 -18 1l-69 -153q-3 -10 1.5 -15.5t12.5 -5.5h132zM192 127l1 3l-1 -1v-2z" />
    <glyph glyph-name="Acircumflex" unicode="&#xc2;" horiz-adv-x="734" 
d="M355 802l-132 -89l-29 28l161 180l161 -180l-29 -28zM617 173q6 -13 16 -35t14 -31t12.5 -23.5t15 -20.5t16.5 -13t23 -10v-40h-298v42q75 10 38 88q-16 33 -59 33h-144q-39 0 -54 -26q-17 -38 0.5 -63t68.5 -32v-42h-246v42q43 8 64.5 33t43.5 75l160 355q29 64 29 116
l88 8zM388 218q8 0 12.5 5.5t1.5 15.5l-73 152q-8 23 -18 1l-69 -153q-3 -10 1.5 -15.5t12.5 -5.5h132zM192 127l1 3l-1 -1v-2z" />
    <glyph glyph-name="Atilde" unicode="&#xc3;" horiz-adv-x="734" 
d="M237 767q-21 0 -35.5 -12t-14.5 -34h-40q0 61 32 94.5t90 33.5q47 0 114 -36t91 -36q51 0 51 46h39q0 -61 -31 -94t-91 -33q-46 0 -113 35.5t-92 35.5zM617 173q6 -13 16 -35t14 -31t12.5 -23.5t15 -20.5t16.5 -13t23 -10v-40h-298v42q75 10 38 88q-16 33 -59 33h-144
q-39 0 -54 -26q-17 -38 0.5 -63t68.5 -32v-42h-246v42q43 8 64.5 33t43.5 75l160 355q29 64 29 116l88 8zM388 218q8 0 12.5 5.5t1.5 15.5l-73 152q-8 23 -18 1l-69 -153q-3 -10 1.5 -15.5t12.5 -5.5h132zM192 127l1 3l-1 -1v-2z" />
    <glyph glyph-name="Adieresis" unicode="&#xc4;" horiz-adv-x="734" 
d="M237 668q-36 0 -61.5 24.5t-25.5 59.5q0 37 25.5 62t61.5 25q35 0 60 -25t25 -62q0 -35 -25 -59.5t-60 -24.5zM475 668q-36 0 -61.5 24.5t-25.5 59.5q0 37 25.5 62t61.5 25t60.5 -25t24.5 -62q0 -35 -25 -59.5t-60 -24.5zM617 173q6 -13 16 -35t14 -31t12.5 -23.5
t15 -20.5t16.5 -13t23 -10v-40h-298v42q75 10 38 88q-16 33 -59 33h-144q-39 0 -54 -26q-17 -38 0.5 -63t68.5 -32v-42h-246v42q43 8 64.5 33t43.5 75l160 355q29 64 29 116l88 8zM388 218q8 0 12.5 5.5t1.5 15.5l-73 152q-8 23 -18 1l-69 -153q-3 -10 1.5 -15.5t12.5 -5.5
h132zM192 127l1 3l-1 -1v-2z" />
    <glyph glyph-name="Aring" unicode="&#xc5;" horiz-adv-x="734" 
d="M354 702q-46 0 -79 31t-33 75t33.5 76t78.5 32q46 0 79.5 -32t33.5 -76q0 -45 -33.5 -75.5t-79.5 -30.5zM354 850q-19 0 -29.5 -12.5t-10.5 -29.5t10.5 -28.5t29.5 -11.5t30 11.5t11 28.5t-11 29.5t-30 12.5zM617 173q6 -13 16 -35t14 -31t12.5 -23.5t15 -20.5t16.5 -13
t23 -10v-40h-298v42q75 10 38 88q-16 33 -59 33h-144q-39 0 -54 -26q-17 -38 0.5 -63t68.5 -32v-42h-246v42q43 8 64.5 33t43.5 75l160 355q29 64 29 116l88 8zM388 218q8 0 12.5 5.5t1.5 15.5l-73 152q-8 23 -18 1l-69 -153q-3 -10 1.5 -15.5t12.5 -5.5h132zM192 127l1 3
l-1 -1v-2z" />
    <glyph glyph-name="AE" unicode="&#xc6;" horiz-adv-x="993" 
d="M947 140h26q-20 -39 -30 -126q-2 -14 -16 -14h-525v42q76 8 76 67v67h-190q-22 0 -35.5 -8.5t-30.5 -34.5l-22 -35q-11 -17 -13 -27t7 -16t21 -8.5t38 -6.5v-40h-233v40q2 1 14.5 3t14.5 2.5t11.5 3t11.5 4t9.5 5t10.5 7t8.5 9t10.5 12t10 14.5l262 412q26 43 19 67v42
h509q12 0 13 -10q7 -68 22 -133h-26q-28 48 -55 68.5t-69 20.5h-85q-64 0 -64 -61v-105q0 -60 64 -60h40q59 0 78.5 14.5t25.5 57.5h22v-198h-22q-6 41 -25.5 56t-78.5 15h-40q-64 0 -64 -60v-113q0 -59 53 -61l108 1q79 1 115 52zM322 232h156v280q0 17 -7 30
q0 -15 -15 -39l-153 -240q-21 -31 19 -31z" />
    <glyph glyph-name="Ccedilla" unicode="&#xc7;" horiz-adv-x="673" 
d="M455 82q91 0 154 70l29 -25q-25 -47 -87 -89t-157 -47l-16 -34q43 -2 73.5 -28.5t30.5 -66.5q0 -52 -46 -80.5t-108 -28.5q-55 0 -92 25.5t-37 58.5q0 36 33.5 49.5t61.5 -17.5q0 -20 11.5 -44t34.5 -24q21 0 31.5 18.5t10.5 44.5q0 47 -32 47q-5 0 -19.5 -3.5
t-24.5 -3.5q-20 0 -29 13t-2 30l24 50q-117 21 -193 104.5t-76 208.5q0 100 50.5 176t131 113.5t175.5 37.5q122 0 189.5 -50t67.5 -119q0 -38 -22.5 -67t-68.5 -29q-44 0 -68.5 26t-24.5 63q0 135 -103 135q-60 0 -101 -64.5t-41 -172.5q0 -130 72.5 -203.5t167.5 -73.5z
" />
    <glyph glyph-name="Egrave" unicode="&#xc8;" horiz-adv-x="620" 
d="M378 755l-91 112q-60 73 -108 24q-53 -55 39 -111l124 -73q19 -13 38 6q17 18 -2 42zM30 0v42q76 8 76 67v403q0 59 -76 67v42h508q13 0 14 -10q7 -68 21 -133h-25q-28 48 -55 68.5t-69 20.5h-85q-64 0 -64 -61v-105q0 -60 64 -60h40q59 0 78.5 15t25.5 57h22v-198h-22
q-6 41 -26 56t-78 15h-40q-64 0 -64 -60v-113q0 -59 53 -61l108 1q79 1 115 52l24 35h25q-20 -39 -30 -126q-2 -14 -16 -14h-524z" />
    <glyph glyph-name="Eacute" unicode="&#xc9;" horiz-adv-x="620" 
d="M287 755q-20 -24 -2 -42q19 -19 38 -6l123 73q92 56 40 111q-48 50 -109 -24zM30 0v42q76 8 76 67v403q0 59 -76 67v42h508q13 0 14 -10q7 -68 21 -133h-25q-28 48 -55 68.5t-69 20.5h-85q-64 0 -64 -61v-105q0 -60 64 -60h40q59 0 78.5 15t25.5 57h22v-198h-22
q-6 41 -26 56t-78 15h-40q-64 0 -64 -60v-113q0 -59 53 -61l108 1q79 1 115 52l24 35h25q-20 -39 -30 -126q-2 -14 -16 -14h-524z" />
    <glyph glyph-name="Ecircumflex" unicode="&#xca;" horiz-adv-x="620" 
d="M325 921l161 -180l-29 -28l-132 89l-132 -89l-29 28zM30 0v42q76 8 76 67v403q0 59 -76 67v42h508q13 0 14 -10q7 -68 21 -133h-25q-28 48 -55 68.5t-69 20.5h-85q-64 0 -64 -61v-105q0 -60 64 -60h40q59 0 78.5 15t25.5 57h22v-198h-22q-6 41 -26 56t-78 15h-40
q-64 0 -64 -60v-113q0 -59 53 -61l108 1q79 1 115 52l24 35h25q-20 -39 -30 -126q-2 -14 -16 -14h-524z" />
    <glyph glyph-name="Edieresis" unicode="&#xcb;" horiz-adv-x="620" 
d="M207 668q-36 0 -61.5 24.5t-25.5 59.5q0 37 25.5 62t61.5 25q35 0 60 -25t25 -62q0 -35 -25 -59.5t-60 -24.5zM445 668q-36 0 -61.5 24.5t-25.5 59.5q0 37 25.5 62t61.5 25t60.5 -25t24.5 -62q0 -35 -25 -59.5t-60 -24.5zM30 0v42q76 8 76 67v403q0 59 -76 67v42h508
q13 0 14 -10q7 -68 21 -133h-25q-28 48 -55 68.5t-69 20.5h-85q-64 0 -64 -61v-105q0 -60 64 -60h40q59 0 78.5 15t25.5 57h22v-198h-22q-6 41 -26 56t-78 15h-40q-64 0 -64 -60v-113q0 -59 53 -61l108 1q79 1 115 52l24 35h25q-20 -39 -30 -126q-2 -14 -16 -14h-524z" />
    <glyph glyph-name="Igrave" unicode="&#xcc;" horiz-adv-x="381" 
d="M244 755l-91 112q-60 73 -108 24q-53 -55 39 -111l124 -73q19 -13 38 6q17 18 -2 42zM30 0v42q76 8 76 67v403q0 59 -76 67v42h321v-42q-76 -8 -76 -67v-403q0 -59 76 -67v-42h-321z" />
    <glyph glyph-name="Iacute" unicode="&#xcd;" horiz-adv-x="381" 
d="M154 755q-20 -24 -2 -42q19 -19 38 -6l123 73q92 56 40 111q-48 50 -109 -24zM30 0v42q76 8 76 67v403q0 59 -76 67v42h321v-42q-76 -8 -76 -67v-403q0 -59 76 -67v-42h-321z" />
    <glyph glyph-name="Icircumflex" unicode="&#xce;" horiz-adv-x="381" 
d="M192 921l161 -180l-29 -28l-132 89l-132 -89l-29 28zM30 0v42q76 8 76 67v403q0 59 -76 67v42h321v-42q-76 -8 -76 -67v-403q0 -59 76 -67v-42h-321z" />
    <glyph glyph-name="Idieresis" unicode="&#xcf;" horiz-adv-x="381" 
d="M73 668q-36 0 -61.5 24.5t-25.5 59.5q0 37 25.5 62t61.5 25q35 0 60 -25t25 -62q0 -35 -25 -59.5t-60 -24.5zM311 668q-36 0 -61.5 24.5t-25.5 59.5q0 37 25.5 62t61.5 25t60.5 -25t24.5 -62q0 -35 -25 -59.5t-60 -24.5zM30 0v42q76 8 76 67v403q0 59 -76 67v42h321v-42
q-76 -8 -76 -67v-403q0 -59 76 -67v-42h-321z" />
    <glyph glyph-name="Eth" unicode="&#xd0;" horiz-adv-x="737" 
d="M338 621q182 0 270.5 -75.5t88.5 -229.5q0 -82 -27 -143.5t-64.5 -93t-88 -50.5t-84.5 -23t-68 -4q-19 0 -89 3.5t-104 3.5q-63 0 -142 -9v42q76 8 76 67v179h-75v45h75v178q0 60 -76 68v42h308zM337 52q84 0 128.5 73t44.5 191q0 126 -47.5 191t-114.5 65h-9
q-64 0 -64 -61v-178h94v-45h-94v-179q0 -57 62 -57z" />
    <glyph glyph-name="Ntilde" unicode="&#xd1;" horiz-adv-x="743" 
d="M255 767q-21 0 -35.5 -12t-14.5 -34h-40q0 61 32 94.5t90 33.5q47 0 114 -36t91 -36q51 0 51 46h39q0 -61 -31 -94t-91 -33q-46 0 -113 35.5t-92 35.5zM485 621h228v-42q-75 -8 -75 -67v-512h-68l-389 425v-316q0 -59 78 -67v-42h-229v42q76 8 76 67v403q0 59 -76 67v42
h190l342 -372v263q0 59 -77 67v42z" />
    <glyph glyph-name="Ograve" unicode="&#xd2;" horiz-adv-x="729" 
d="M409 755l-91 112q-60 73 -108 24q-53 -55 39 -111l124 -73q19 -13 38 6q17 18 -2 42zM356 -10q-83 0 -155.5 35t-121.5 109t-49 174q0 152 101 240.5t243 88.5q82 0 154.5 -34.5t121.5 -108.5t49 -172q0 -103 -49 -180t-126 -114.5t-168 -37.5zM392 48q50 0 85 52t35 160
q0 135 -50.5 227t-124.5 92q-50 0 -84.5 -51.5t-34.5 -158.5q0 -137 50 -229t124 -92z" />
    <glyph glyph-name="Oacute" unicode="&#xd3;" horiz-adv-x="729" 
d="M318 755q-20 -24 -2 -42q19 -19 38 -6l123 73q92 56 40 111q-48 50 -109 -24zM356 -10q-83 0 -155.5 35t-121.5 109t-49 174q0 152 101 240.5t243 88.5q82 0 154.5 -34.5t121.5 -108.5t49 -172q0 -103 -49 -180t-126 -114.5t-168 -37.5zM392 48q50 0 85 52t35 160
q0 135 -50.5 227t-124.5 92q-50 0 -84.5 -51.5t-34.5 -158.5q0 -137 50 -229t124 -92z" />
    <glyph glyph-name="Ocircumflex" unicode="&#xd4;" horiz-adv-x="729" 
d="M356 921l161 -180l-29 -28l-132 89l-132 -89l-29 28zM356 -10q-83 0 -155.5 35t-121.5 109t-49 174q0 152 101 240.5t243 88.5q82 0 154.5 -34.5t121.5 -108.5t49 -172q0 -103 -49 -180t-126 -114.5t-168 -37.5zM392 48q50 0 85 52t35 160q0 135 -50.5 227t-124.5 92
q-50 0 -84.5 -51.5t-34.5 -158.5q0 -137 50 -229t124 -92z" />
    <glyph glyph-name="Otilde" unicode="&#xd5;" horiz-adv-x="729" 
d="M443 696q-46 0 -113 35.5t-92 35.5q-21 0 -35.5 -12t-14.5 -34h-40q0 61 32 94.5t90 33.5q47 0 114 -36t91 -36q51 0 51 46h39q0 -61 -31 -94t-91 -33zM356 -10q-83 0 -155.5 35t-121.5 109t-49 174q0 152 101 240.5t243 88.5q82 0 154.5 -34.5t121.5 -108.5t49 -172
q0 -103 -49 -180t-126 -114.5t-168 -37.5zM392 48q50 0 85 52t35 160q0 135 -50.5 227t-124.5 92q-50 0 -84.5 -51.5t-34.5 -158.5q0 -137 50 -229t124 -92z" />
    <glyph glyph-name="Odieresis" unicode="&#xd6;" horiz-adv-x="729" 
d="M237 668q-36 0 -61.5 24.5t-25.5 59.5q0 37 25.5 62t61.5 25q35 0 60 -25t25 -62q0 -35 -25 -59.5t-60 -24.5zM475 668q-36 0 -61.5 24.5t-25.5 59.5q0 37 25.5 62t61.5 25t60.5 -25t24.5 -62q0 -35 -25 -59.5t-60 -24.5zM356 -10q-83 0 -155.5 35t-121.5 109t-49 174
q0 152 101 240.5t243 88.5q82 0 154.5 -34.5t121.5 -108.5t49 -172q0 -103 -49 -180t-126 -114.5t-168 -37.5zM392 48q50 0 85 52t35 160q0 135 -50.5 227t-124.5 92q-50 0 -84.5 -51.5t-34.5 -158.5q0 -137 50 -229t124 -92z" />
    <glyph glyph-name="multiply" unicode="&#xd7;" horiz-adv-x="397" 
d="M348 137l-36 -33l-113 113l-114 -114l-33 34l113 114l-115 115l36 33l113 -113l115 115l33 -36l-113 -113z" />
    <glyph glyph-name="Oslash" unicode="&#xd8;" horiz-adv-x="729" 
d="M592 561q107 -90 107 -239q0 -103 -49 -180t-126 -114.5t-168 -37.5q-104 0 -190 55l-38 -46l-23 20l37 44q-112 90 -112 245q0 152 101 240.5t243 88.5q106 0 193 -58l34 41l23 -20zM218 369q0 -100 28 -179l227 275q-52 114 -136 114q-50 0 -84.5 -51.5t-34.5 -158.5z
M392 48q50 0 85 52t35 160q0 92 -26 172l-227 -274q52 -110 133 -110z" />
    <glyph glyph-name="Ugrave" unicode="&#xd9;" horiz-adv-x="752" 
d="M446 755l-91 112q-60 73 -108 24q-53 -55 39 -111l124 -73q19 -13 38 6q17 18 -2 42zM382 -10q-129 0 -205 70t-76 213v239q0 59 -76 67v42h321v-42q-76 -8 -76 -67v-228q0 -212 149 -212q71 0 113.5 51.5t42.5 154.5v234q0 29 -21 46t-59 21v42h232v-42
q-38 -4 -59.5 -21t-21.5 -46v-261q0 -120 -67 -190.5t-197 -70.5z" />
    <glyph glyph-name="Uacute" unicode="&#xda;" horiz-adv-x="752" 
d="M355 755q-20 -24 -2 -42q19 -19 38 -6l123 73q92 56 40 111q-48 50 -109 -24zM382 -10q-129 0 -205 70t-76 213v239q0 59 -76 67v42h321v-42q-76 -8 -76 -67v-228q0 -212 149 -212q71 0 113.5 51.5t42.5 154.5v234q0 29 -21 46t-59 21v42h232v-42q-38 -4 -59.5 -21
t-21.5 -46v-261q0 -120 -67 -190.5t-197 -70.5z" />
    <glyph glyph-name="Ucircumflex" unicode="&#xdb;" horiz-adv-x="752" 
d="M393 921l161 -180l-29 -28l-132 89l-132 -89l-29 28zM382 -10q-129 0 -205 70t-76 213v239q0 59 -76 67v42h321v-42q-76 -8 -76 -67v-228q0 -212 149 -212q71 0 113.5 51.5t42.5 154.5v234q0 29 -21 46t-59 21v42h232v-42q-38 -4 -59.5 -21t-21.5 -46v-261
q0 -120 -67 -190.5t-197 -70.5z" />
    <glyph glyph-name="Udieresis" unicode="&#xdc;" horiz-adv-x="752" 
d="M274 668q-36 0 -61.5 24.5t-25.5 59.5q0 37 25.5 62t61.5 25q35 0 60 -25t25 -62q0 -35 -25 -59.5t-60 -24.5zM512 668q-36 0 -61.5 24.5t-25.5 59.5q0 37 25.5 62t61.5 25t60.5 -25t24.5 -62q0 -35 -25 -59.5t-60 -24.5zM382 -10q-129 0 -205 70t-76 213v239
q0 59 -76 67v42h321v-42q-76 -8 -76 -67v-228q0 -212 149 -212q71 0 113.5 51.5t42.5 154.5v234q0 29 -21 46t-59 21v42h232v-42q-38 -4 -59.5 -21t-21.5 -46v-261q0 -120 -67 -190.5t-197 -70.5z" />
    <glyph glyph-name="Yacute" unicode="&#xdd;" horiz-adv-x="697" 
d="M312 755q-20 -24 -2 -42q19 -19 38 -6l123 73q92 56 40 111q-48 50 -109 -24zM171 0v42q95 7 95 67v107q0 56 -21 85l-113 170q-28 42 -40 58.5t-33 32.5t-44 17v42h313v-42q-35 -3 -44.5 -21.5t15.5 -63.5l95 -147q7 -14 14 0l104 152q20 25 9 50.5t-56 29.5v42h217v-42
q-17 -2 -31.5 -9.5t-30 -26t-20.5 -24.5t-21 -29l-122 -183q-21 -31 -21 -91v-107q0 -60 96 -67v-42h-361z" />
    <glyph glyph-name="Thorn" unicode="&#xde;" horiz-adv-x="648" 
d="M352 491q140 0 205.5 -48t65.5 -132t-65.5 -132t-205.5 -48h-22q-47 0 -54 -36q9 -47 75 -53v-42h-321v42q76 8 76 67v403q0 59 -76 67v42h321v-42q-66 -6 -75 -53q7 -35 54 -35h22zM352 195q67 0 87.5 29t20.5 87t-20.5 87t-87.5 29h-22q-30 0 -42.5 -12.5t-12.5 -40.5
v-126q0 -28 12.5 -40.5t42.5 -12.5h22z" />
    <glyph glyph-name="germandbls" unicode="&#xdf;" horiz-adv-x="630" 
d="M443 345q65 -14 108.5 -54t43.5 -110q0 -66 -43 -108t-105 -58t-142 -16v46q62 5 98 40.5t36 100.5q0 124 -134 124v45q39 0 62 36t23 88q0 46 -20.5 79.5t-62.5 33.5q-46 0 -60.5 -30.5t-14.5 -105.5v-369q0 -42 -27 -67t-75 -25q-63 0 -110 30v44q34 -8 48 0t14 32v351
q0 89 67.5 137t167.5 48q95 0 152 -44t57 -114q0 -86 -83 -134z" />
    <glyph glyph-name="agrave" unicode="&#xe0;" horiz-adv-x="543" 
d="M319 585l-91 112q-60 73 -108 24q-53 -55 39 -111l124 -73q19 -13 38 6q17 18 -2 42zM164 -6q-58 0 -96 27.5t-38 82.5q0 62 57.5 97t188.5 58q29 5 37.5 13.5t8.5 33.5v6q0 56 -15 79.5t-48 23.5q-53 0 -53 -71q0 -33 -23.5 -50t-55.5 -17q-33 0 -51 19t-18 45
q0 54 72.5 86.5t168.5 32.5q91 0 132 -40.5t41 -154.5v-163q0 -46 51 -37v-45q-30 -25 -98 -25q-46 0 -70 20t-30 45q-2 11 -7 12.5t-13 -7.5q-58 -71 -141 -71zM231 77q42 0 66.5 29.5t24.5 76.5v7q0 17 -9 23.5t-31 4.5q-56 -3 -79 -31t-23 -57q0 -53 51 -53z" />
    <glyph glyph-name="aacute" unicode="&#xe1;" horiz-adv-x="543" 
d="M229 585q-20 -24 -2 -42q19 -19 38 -6l123 73q92 56 40 111q-48 50 -109 -24zM164 -6q-58 0 -96 27.5t-38 82.5q0 62 57.5 97t188.5 58q29 5 37.5 13.5t8.5 33.5v6q0 56 -15 79.5t-48 23.5q-53 0 -53 -71q0 -33 -23.5 -50t-55.5 -17q-33 0 -51 19t-18 45q0 54 72.5 86.5
t168.5 32.5q91 0 132 -40.5t41 -154.5v-163q0 -46 51 -37v-45q-30 -25 -98 -25q-46 0 -70 20t-30 45q-2 11 -7 12.5t-13 -7.5q-58 -71 -141 -71zM231 77q42 0 66.5 29.5t24.5 76.5v7q0 17 -9 23.5t-31 4.5q-56 -3 -79 -31t-23 -57q0 -53 51 -53z" />
    <glyph glyph-name="acircumflex" unicode="&#xe2;" horiz-adv-x="543" 
d="M266 751l161 -180l-29 -28l-132 89l-132 -89l-29 28zM164 -6q-58 0 -96 27.5t-38 82.5q0 62 57.5 97t188.5 58q29 5 37.5 13.5t8.5 33.5v6q0 56 -15 79.5t-48 23.5q-53 0 -53 -71q0 -33 -23.5 -50t-55.5 -17q-33 0 -51 19t-18 45q0 54 72.5 86.5t168.5 32.5
q91 0 132 -40.5t41 -154.5v-163q0 -46 51 -37v-45q-30 -25 -98 -25q-46 0 -70 20t-30 45q-2 11 -7 12.5t-13 -7.5q-58 -71 -141 -71zM231 77q42 0 66.5 29.5t24.5 76.5v7q0 17 -9 23.5t-31 4.5q-56 -3 -79 -31t-23 -57q0 -53 51 -53z" />
    <glyph glyph-name="atilde" unicode="&#xe3;" horiz-adv-x="543" 
d="M353 526q-46 0 -113 35.5t-92 35.5q-21 0 -35.5 -12t-14.5 -34h-40q0 61 32 94.5t90 33.5q47 0 114 -36t91 -36q51 0 51 46h39q0 -61 -31 -94t-91 -33zM164 -6q-58 0 -96 27.5t-38 82.5q0 62 57.5 97t188.5 58q29 5 37.5 13.5t8.5 33.5v6q0 56 -15 79.5t-48 23.5
q-53 0 -53 -71q0 -33 -23.5 -50t-55.5 -17q-33 0 -51 19t-18 45q0 54 72.5 86.5t168.5 32.5q91 0 132 -40.5t41 -154.5v-163q0 -46 51 -37v-45q-30 -25 -98 -25q-46 0 -70 20t-30 45q-2 11 -7 12.5t-13 -7.5q-58 -71 -141 -71zM231 77q42 0 66.5 29.5t24.5 76.5v7
q0 17 -9 23.5t-31 4.5q-56 -3 -79 -31t-23 -57q0 -53 51 -53z" />
    <glyph glyph-name="adieresis" unicode="&#xe4;" horiz-adv-x="543" 
d="M148 498q-36 0 -61.5 24.5t-25.5 59.5q0 37 25.5 62t61.5 25q35 0 60 -25t25 -62q0 -35 -25 -59.5t-60 -24.5zM386 498q-36 0 -61.5 24.5t-25.5 59.5q0 37 25.5 62t61.5 25t60.5 -25t24.5 -62q0 -35 -25 -59.5t-60 -24.5zM164 -6q-58 0 -96 27.5t-38 82.5q0 62 57.5 97
t188.5 58q29 5 37.5 13.5t8.5 33.5v6q0 56 -15 79.5t-48 23.5q-53 0 -53 -71q0 -33 -23.5 -50t-55.5 -17q-33 0 -51 19t-18 45q0 54 72.5 86.5t168.5 32.5q91 0 132 -40.5t41 -154.5v-163q0 -46 51 -37v-45q-30 -25 -98 -25q-46 0 -70 20t-30 45q-2 11 -7 12.5t-13 -7.5
q-58 -71 -141 -71zM231 77q42 0 66.5 29.5t24.5 76.5v7q0 17 -9 23.5t-31 4.5q-56 -3 -79 -31t-23 -57q0 -53 51 -53z" />
    <glyph glyph-name="aring" unicode="&#xe5;" horiz-adv-x="543" 
d="M266 532q-46 0 -79 31t-33 75t33.5 76t78.5 32q46 0 79.5 -32t33.5 -76q0 -45 -33.5 -75.5t-79.5 -30.5zM266 598q19 0 30 11.5t11 28.5t-11 29.5t-30 12.5t-29.5 -12.5t-10.5 -29.5t10.5 -28.5t29.5 -11.5zM164 -6q-58 0 -96 27.5t-38 82.5q0 62 57.5 97t188.5 58
q29 5 37.5 13.5t8.5 33.5v6q0 56 -15 79.5t-48 23.5q-53 0 -53 -71q0 -33 -23.5 -50t-55.5 -17q-33 0 -51 19t-18 45q0 54 72.5 86.5t168.5 32.5q91 0 132 -40.5t41 -154.5v-163q0 -46 51 -37v-45q-30 -25 -98 -25q-46 0 -70 20t-30 45q-2 11 -7 12.5t-13 -7.5
q-58 -71 -141 -71zM231 77q42 0 66.5 29.5t24.5 76.5v7q0 17 -9 23.5t-31 4.5q-56 -3 -79 -31t-23 -57q0 -53 51 -53z" />
    <glyph glyph-name="ae" unicode="&#xe6;" horiz-adv-x="818" 
d="M638 73q63 0 106 50l29 -27q-18 -37 -70.5 -69.5t-132.5 -32.5q-129 0 -198 82q-30 27 -53 0q-23 -29 -64 -55.5t-91 -26.5q-58 0 -96 27.5t-38 82.5q0 62 57.5 98t188.5 59q28 4 37 13t9 32v6q0 56 -15 79.5t-48 23.5q-53 0 -53 -71q0 -33 -23.5 -50t-55.5 -17
q-33 0 -51 19t-18 45q0 54 72.5 86.5t168.5 32.5q92 0 125 -42q69 42 158 42q85 0 143 -39t58 -108q0 -26 -9.5 -45t-21.5 -29t-37 -16t-43.5 -8t-52.5 -4l-105 -5q-22 -3 -16 -33q39 -100 140 -100zM568 412q-82 0 -86 -128q3 -35 39 -35l27 -1q55 -1 78 18.5t23 56.5
q0 33 -23 61t-58 28zM322 183v6q0 17 -8.5 23t-31.5 4q-38 -2 -62.5 -18t-31 -30t-6.5 -24q0 -27 16.5 -42t39.5 -15q84 0 84 96z" />
    <glyph glyph-name="ccedilla" unicode="&#xe7;" horiz-adv-x="518" 
d="M360 73q54 0 91 50l32 -27q-15 -30 -50.5 -58t-88.5 -39l-20 -42q43 -2 73.5 -28.5t30.5 -66.5q0 -52 -46 -80.5t-108 -28.5q-55 0 -92 25.5t-37 58.5q0 36 33.5 49.5t61.5 -17.5q0 -20 11.5 -44t34.5 -24q21 0 31.5 18.5t10.5 44.5q0 47 -32 47q-5 0 -19.5 -3.5
t-24.5 -3.5q-20 0 -29 13t-2 30l24 50q-92 12 -153.5 70.5t-61.5 158.5q0 58 23.5 104.5t62 74t83 41.5t91.5 14q81 0 137 -39.5t56 -90.5q0 -75 -67 -75q-36 0 -55.5 22t-19.5 46v7q0 14 -0.5 22t-3.5 21.5t-8.5 20.5t-18 12.5t-29.5 5.5q-88 0 -88 -139q0 -92 45.5 -146
t121.5 -54z" />
    <glyph glyph-name="egrave" unicode="&#xe8;" horiz-adv-x="527" 
d="M153 610q-92 56 -39 111q48 49 108 -24l91 -112q19 -24 2 -42q-19 -19 -38 -6zM347 73q62 0 105 50l30 -27q-18 -37 -71 -69.5t-132 -32.5q-103 0 -176 59.5t-73 170.5q0 115 77 175.5t183 60.5q85 0 143.5 -39.5t58.5 -107.5q0 -26 -9.5 -45t-22 -29t-37.5 -16t-43.5 -8
t-52.5 -4l-104 -5q-21 -3 -16 -31q36 -102 140 -102zM276 412q-81 0 -85 -128q3 -35 39 -35l26 -1q56 -1 78.5 18.5t22.5 56.5q0 33 -22.5 61t-58.5 28z" />
    <glyph glyph-name="eacute" unicode="&#xe9;" horiz-adv-x="527" 
d="M259 537q-19 -13 -38 6q-18 18 2 42l90 112q61 74 109 24q52 -55 -40 -111zM347 73q62 0 105 50l30 -27q-18 -37 -71 -69.5t-132 -32.5q-103 0 -176 59.5t-73 170.5q0 115 77 175.5t183 60.5q85 0 143.5 -39.5t58.5 -107.5q0 -26 -9.5 -45t-22 -29t-37.5 -16t-43.5 -8
t-52.5 -4l-104 -5q-21 -3 -16 -31q36 -102 140 -102zM276 412q-81 0 -85 -128q3 -35 39 -35l26 -1q56 -1 78.5 18.5t22.5 56.5q0 33 -22.5 61t-58.5 28z" />
    <glyph glyph-name="ecircumflex" unicode="&#xea;" horiz-adv-x="527" 
d="M261 632l-132 -89l-29 28l161 180l161 -180l-29 -28zM347 73q62 0 105 50l30 -27q-18 -37 -71 -69.5t-132 -32.5q-103 0 -176 59.5t-73 170.5q0 115 77 175.5t183 60.5q85 0 143.5 -39.5t58.5 -107.5q0 -26 -9.5 -45t-22 -29t-37.5 -16t-43.5 -8t-52.5 -4l-104 -5
q-21 -3 -16 -31q36 -102 140 -102zM276 412q-81 0 -85 -128q3 -35 39 -35l26 -1q56 -1 78.5 18.5t22.5 56.5q0 33 -22.5 61t-58.5 28z" />
    <glyph glyph-name="edieresis" unicode="&#xeb;" horiz-adv-x="527" 
d="M142 498q-36 0 -61.5 24.5t-25.5 59.5q0 37 25.5 62t61.5 25q35 0 60 -25t25 -62q0 -35 -25 -59.5t-60 -24.5zM380 498q-36 0 -61.5 24.5t-25.5 59.5q0 37 25.5 62t61.5 25t60.5 -25t24.5 -62q0 -35 -25 -59.5t-60 -24.5zM347 73q62 0 105 50l30 -27q-18 -37 -71 -69.5
t-132 -32.5q-103 0 -176 59.5t-73 170.5q0 115 77 175.5t183 60.5q85 0 143.5 -39.5t58.5 -107.5q0 -26 -9.5 -45t-22 -29t-37.5 -16t-43.5 -8t-52.5 -4l-104 -5q-21 -3 -16 -31q36 -102 140 -102zM276 412q-81 0 -85 -128q3 -35 39 -35l26 -1q56 -1 78.5 18.5t22.5 56.5
q0 33 -22.5 61t-58.5 28z" />
    <glyph glyph-name="igrave" unicode="&#xec;" 
d="M207 585l-91 112q-60 73 -108 24q-53 -55 39 -111l124 -73q19 -13 38 6q17 18 -2 42zM24 0v44q36 2 50 16.5t14 50.5v224q0 33 -16 43.5t-47 7.5v45l163 27q50 7 50 -40v-307q0 -36 14 -50.5t48 -16.5v-44h-276z" />
    <glyph glyph-name="iacute" unicode="&#xed;" 
d="M116 585q-20 -24 -2 -42q19 -19 38 -6l123 73q92 56 40 111q-48 50 -109 -24zM24 0v44q36 2 50 16.5t14 50.5v224q0 33 -16 43.5t-47 7.5v45l163 27q50 7 50 -40v-307q0 -36 14 -50.5t48 -16.5v-44h-276z" />
    <glyph glyph-name="icircumflex" unicode="&#xee;" 
d="M154 751l161 -180l-29 -28l-132 89l-132 -89l-29 28zM24 0v44q36 2 50 16.5t14 50.5v224q0 33 -16 43.5t-47 7.5v45l163 27q50 7 50 -40v-307q0 -36 14 -50.5t48 -16.5v-44h-276z" />
    <glyph glyph-name="idieresis" unicode="&#xef;" 
d="M36 498q-36 0 -61.5 24.5t-25.5 59.5q0 37 25.5 62t61.5 25q35 0 60 -25t25 -62q0 -35 -25 -59.5t-60 -24.5zM274 498q-36 0 -61.5 24.5t-25.5 59.5q0 37 25.5 62t61.5 25t60.5 -25t24.5 -62q0 -35 -25 -59.5t-60 -24.5zM24 0v44q36 2 50 16.5t14 50.5v224q0 33 -16 43.5
t-47 7.5v45l163 27q50 7 50 -40v-307q0 -36 14 -50.5t48 -16.5v-44h-276z" />
    <glyph glyph-name="eth" unicode="&#xf0;" horiz-adv-x="611" 
d="M534 101q0 -24 14 -32t48 0v-44q-47 -30 -110 -30q-43 0 -69 20t-32 54q-52 -75 -153 -75q-84 0 -143 59.5t-59 166.5q0 110 67 175t153 65q29 0 56 -8t39.5 -15.5t22.5 -9.5t13 8.5t3 39.5v33v9l-76 -21l-9 33l77 22q-14 36 -52.5 55t-98.5 15v45q15 0 45 1t46.5 0.5
t42.5 -2t42.5 -6.5t36 -14t34 -24t26.5 -36l58 16l9 -33l-53 -15q22 -61 22 -162v-290zM299 75q34 0 59.5 27t25.5 85v44q0 86 -35.5 130t-76.5 44t-62 -37t-21 -96q0 -78 31.5 -137.5t78.5 -59.5z" />
    <glyph glyph-name="ntilde" unicode="&#xf1;" horiz-adv-x="626" 
d="M402 526q-46 0 -113 35.5t-92 35.5q-21 0 -35.5 -12t-14.5 -34h-40q0 61 32 94.5t90 33.5q47 0 114 -36t91 -36q51 0 51 46h39q0 -61 -31 -94t-91 -33zM507 -5q-49 0 -76 25.5t-27 68.5v159q0 116 -76 116q-43 0 -66.5 -30t-23.5 -86v-137q0 -36 14 -50.5t48 -16.5v-44
h-276v44q36 2 50 16.5t14 50.5v224q0 33 -16 43.5t-47 7.5v45l163 27q50 7 50 -32q0 -16 6 -24.5t14 -8t14 8.5q56 62 138 62q64 0 104 -39.5t40 -146.5v-176q0 -46 52 -37v-45q-12 -11 -42 -18t-57 -7z" />
    <glyph glyph-name="ograve" unicode="&#xf2;" horiz-adv-x="551" 
d="M330 585l-91 112q-60 73 -108 24q-53 -55 39 -111l124 -73q19 -13 38 6q17 18 -2 42zM278 -6q-102 0 -175 61t-73 175q0 113 71.5 171.5t172.5 58.5q102 0 174.5 -61t72.5 -175q0 -113 -71 -171.5t-172 -58.5zM293 40q31 0 49.5 37.5t18.5 106.5q0 94 -29 162t-73 68
q-32 0 -50 -37t-18 -107q0 -94 29 -162t73 -68z" />
    <glyph glyph-name="oacute" unicode="&#xf3;" horiz-adv-x="551" 
d="M239 585q-20 -24 -2 -42q19 -19 38 -6l123 73q92 56 40 111q-48 50 -109 -24zM278 -6q-102 0 -175 61t-73 175q0 113 71.5 171.5t172.5 58.5q102 0 174.5 -61t72.5 -175q0 -113 -71 -171.5t-172 -58.5zM293 40q31 0 49.5 37.5t18.5 106.5q0 94 -29 162t-73 68
q-32 0 -50 -37t-18 -107q0 -94 29 -162t73 -68z" />
    <glyph glyph-name="ocircumflex" unicode="&#xf4;" horiz-adv-x="551" 
d="M277 751l161 -180l-29 -28l-132 89l-132 -89l-29 28zM278 -6q-102 0 -175 61t-73 175q0 113 71.5 171.5t172.5 58.5q102 0 174.5 -61t72.5 -175q0 -113 -71 -171.5t-172 -58.5zM293 40q31 0 49.5 37.5t18.5 106.5q0 94 -29 162t-73 68q-32 0 -50 -37t-18 -107
q0 -94 29 -162t73 -68z" />
    <glyph glyph-name="otilde" unicode="&#xf5;" horiz-adv-x="551" 
d="M364 526q-46 0 -113 35.5t-92 35.5q-21 0 -35.5 -12t-14.5 -34h-40q0 61 32 94.5t90 33.5q47 0 114 -36t91 -36q51 0 51 46h39q0 -61 -31 -94t-91 -33zM278 -6q-102 0 -175 61t-73 175q0 113 71.5 171.5t172.5 58.5q102 0 174.5 -61t72.5 -175q0 -113 -71 -171.5
t-172 -58.5zM293 40q31 0 49.5 37.5t18.5 106.5q0 94 -29 162t-73 68q-32 0 -50 -37t-18 -107q0 -94 29 -162t73 -68z" />
    <glyph glyph-name="odieresis" unicode="&#xf6;" horiz-adv-x="551" 
d="M158 498q-36 0 -61.5 24.5t-25.5 59.5q0 37 25.5 62t61.5 25q35 0 60 -25t25 -62q0 -35 -25 -59.5t-60 -24.5zM396 498q-36 0 -61.5 24.5t-25.5 59.5q0 37 25.5 62t61.5 25t60.5 -25t24.5 -62q0 -35 -25 -59.5t-60 -24.5zM278 -6q-102 0 -175 61t-73 175
q0 113 71.5 171.5t172.5 58.5q102 0 174.5 -61t72.5 -175q0 -113 -71 -171.5t-172 -58.5zM293 40q31 0 49.5 37.5t18.5 106.5q0 94 -29 162t-73 68q-32 0 -50 -37t-18 -107q0 -94 29 -162t73 -68z" />
    <glyph glyph-name="divide" unicode="&#xf7;" horiz-adv-x="470" 
d="M237 336q-30 0 -50 20t-20 49t20 48.5t50 19.5q29 0 48.5 -19.5t19.5 -48.5t-19.5 -49t-48.5 -20zM50 276h370v-49h-370v49zM237 30q-30 0 -50 20t-20 49t20 48.5t50 19.5q29 0 48.5 -19.5t19.5 -48.5t-19.5 -49t-48.5 -20z" />
    <glyph glyph-name="oslash" unicode="&#xf8;" horiz-adv-x="551" 
d="M443 404q78 -65 78 -180q0 -113 -71 -171.5t-172 -58.5q-81 0 -143 37l-26 -32l-23 20l24 30q-80 63 -80 181q0 113 71.5 171.5t172.5 58.5q83 0 144 -38l24 29l23 -20zM191 270q0 -60 12 -109l137 166q-14 40 -35 63.5t-46 23.5q-32 0 -50 -37t-18 -107zM293 40
q31 0 49.5 37.5t18.5 106.5q0 57 -11 107l-137 -166q30 -85 80 -85z" />
    <glyph glyph-name="ugrave" unicode="&#xf9;" horiz-adv-x="631" 
d="M382 585l-91 112q-60 73 -108 24q-51 -55 39 -111l124 -73q19 -13 38 6q18 18 -2 42zM234 -6q-66 0 -106 39.5t-40 146.5v155q0 33 -16 43.5t-47 7.5v45l163 27q50 7 50 -40v-208q0 -55 19.5 -85.5t56.5 -30.5q44 0 67 30t23 86v125q0 33 -16 43.5t-47 7.5v45l162 27
q51 7 51 -40v-316q0 -46 52 -37v-45q-30 -25 -98 -25q-18 0 -33 4t-23.5 8t-16 13.5t-10 13.5t-6.5 14l-4 11q-5 20 -14 20q-7 0 -16 -12q-57 -73 -151 -73z" />
    <glyph glyph-name="uacute" unicode="&#xfa;" horiz-adv-x="631" 
d="M282 585q-20 -24 -2 -42q18 -19 37 -6l124 73q92 56 40 111q-48 50 -109 -24zM234 -6q-66 0 -106 39.5t-40 146.5v155q0 33 -16 43.5t-47 7.5v45l163 27q50 7 50 -40v-208q0 -55 19.5 -85.5t56.5 -30.5q44 0 67 30t23 86v125q0 33 -16 43.5t-47 7.5v45l162 27
q51 7 51 -40v-316q0 -46 52 -37v-45q-30 -25 -98 -25q-18 0 -33 4t-23.5 8t-16 13.5t-10 13.5t-6.5 14l-4 11q-5 20 -14 20q-7 0 -16 -12q-57 -73 -151 -73z" />
    <glyph glyph-name="ucircumflex" unicode="&#xfb;" horiz-adv-x="631" 
d="M312 751l161 -180l-28 -28l-133 89l-132 -89l-28 28zM234 -6q-66 0 -106 39.5t-40 146.5v155q0 33 -16 43.5t-47 7.5v45l163 27q50 7 50 -40v-208q0 -55 19.5 -85.5t56.5 -30.5q44 0 67 30t23 86v125q0 33 -16 43.5t-47 7.5v45l162 27q51 7 51 -40v-316q0 -46 52 -37v-45
q-30 -25 -98 -25q-18 0 -33 4t-23.5 8t-16 13.5t-10 13.5t-6.5 14l-4 11q-5 20 -14 20q-7 0 -16 -12q-57 -73 -151 -73z" />
    <glyph glyph-name="udieresis" unicode="&#xfc;" horiz-adv-x="631" 
d="M155 498q-36 0 -61.5 24.5t-25.5 59.5q0 37 25.5 62t61.5 25t60.5 -25t24.5 -62q0 -35 -25 -59.5t-60 -24.5zM394 498q-37 0 -62 24.5t-25 59.5q0 37 25 62t62 25q35 0 60 -25t25 -62q0 -35 -25 -59.5t-60 -24.5zM234 -6q-66 0 -106 39.5t-40 146.5v155q0 33 -16 43.5
t-47 7.5v45l163 27q50 7 50 -40v-208q0 -55 19.5 -85.5t56.5 -30.5q44 0 67 30t23 86v125q0 33 -16 43.5t-47 7.5v45l162 27q51 7 51 -40v-316q0 -46 52 -37v-45q-30 -25 -98 -25q-18 0 -33 4t-23.5 8t-16 13.5t-10 13.5t-6.5 14l-4 11q-5 20 -14 20q-7 0 -16 -12
q-57 -73 -151 -73z" />
    <glyph glyph-name="yacute" unicode="&#xfd;" horiz-adv-x="574" 
d="M248 585q-20 -24 -2 -42q19 -19 38 -6l123 73q92 56 40 111q-48 50 -109 -24zM161 -198q-54 0 -89 23.5t-35 61.5q0 26 16 45.5t50 19.5q29 0 43.5 -16.5t16.5 -36t10 -36t25 -16.5q26 0 34 25q16 48 -9 114l-131 341q-13 34 -31.5 51.5t-50.5 28.5v44h264v-44
q-37 -10 -42.5 -27.5t10.5 -52.5l75 -189q7 -21 16.5 -21t16.5 21l37 98q34 100 26 130t-58 41v44h209v-44q-44 -10 -62 -26.5t-33 -53.5l-141 -373q-33 -86 -70.5 -119t-96.5 -33z" />
    <glyph glyph-name="thorn" unicode="&#xfe;" horiz-adv-x="609" 
d="M9 -190v44q36 2 50 16.5t14 50.5v608q0 33 -16 44t-47 8v45l163 27q50 7 50 -40v-183q0 -9 4 -13t9.5 -2.5t11.5 6.5q43 39 127 39q85 0 144.5 -60t59.5 -167q0 -110 -66.5 -174.5t-152.5 -64.5q-23 0 -47 5.5t-39 11t-27.5 8.5t-18 -1.5t-5.5 -19.5v-77q0 -36 14 -50.5
t48 -16.5v-44h-276zM338 49q41 0 61.5 37t20.5 101q0 82 -28.5 137t-79.5 55q-37 0 -63 -32.5t-26 -109.5v-60q0 -67 36 -97.5t79 -30.5z" />
    <glyph glyph-name="ydieresis" unicode="&#xff;" horiz-adv-x="574" 
d="M167 498q-36 0 -61.5 24.5t-25.5 59.5q0 37 25.5 62t61.5 25q35 0 60 -25t25 -62q0 -35 -25 -59.5t-60 -24.5zM405 498q-36 0 -61.5 24.5t-25.5 59.5q0 37 25.5 62t61.5 25t60.5 -25t24.5 -62q0 -35 -25 -59.5t-60 -24.5zM161 -198q-54 0 -89 23.5t-35 61.5q0 26 16 45.5
t50 19.5q29 0 43.5 -16.5t16.5 -36t10 -36t25 -16.5q26 0 34 25q16 48 -9 114l-131 341q-13 34 -31.5 51.5t-50.5 28.5v44h264v-44q-37 -10 -42.5 -27.5t10.5 -52.5l75 -189q7 -21 16.5 -21t16.5 21l37 98q34 100 26 130t-58 41v44h209v-44q-44 -10 -62 -26.5t-33 -53.5
l-141 -373q-33 -86 -70.5 -119t-96.5 -33z" />
    <glyph glyph-name="Amacron" unicode="&#x100;" horiz-adv-x="734" 
d="M228 750q-23 0 -23 19v50q0 19 23 19h277q23 0 23 -19v-50q0 -19 -23 -19h-277zM617 173q6 -13 16 -35t14 -31t12.5 -23.5t15 -20.5t16.5 -13t23 -10v-40h-298v42q75 10 38 88q-16 33 -59 33h-144q-39 0 -54 -26q-17 -38 0.5 -63t68.5 -32v-42h-246v42q43 8 64.5 33
t43.5 75l160 355q29 64 29 116l88 8zM388 218q8 0 12.5 5.5t1.5 15.5l-73 152q-8 23 -18 1l-69 -153q-3 -10 1.5 -15.5t12.5 -5.5h132zM192 127l1 3l-1 -1v-2z" />
    <glyph glyph-name="amacron" unicode="&#x101;" horiz-adv-x="543" 
d="M116 649q0 19 23 19h277q23 0 23 -19v-50q0 -19 -23 -19h-277q-23 0 -23 19v50zM164 -6q-58 0 -96 27.5t-38 82.5q0 62 57.5 97t188.5 58q29 5 37.5 13.5t8.5 33.5v6q0 56 -15 79.5t-48 23.5q-53 0 -53 -71q0 -33 -23.5 -50t-55.5 -17q-33 0 -51 19t-18 45
q0 54 72.5 86.5t168.5 32.5q91 0 132 -40.5t41 -154.5v-163q0 -46 51 -37v-45q-30 -25 -98 -25q-46 0 -70 20t-30 45q-2 11 -7 12.5t-13 -7.5q-58 -71 -141 -71zM231 77q42 0 66.5 29.5t24.5 76.5v7q0 17 -9 23.5t-31 4.5q-56 -3 -79 -31t-23 -57q0 -53 51 -53z" />
    <glyph glyph-name="Abreve" unicode="&#x102;" horiz-adv-x="734" 
d="M354 705q-63 0 -109 37t-46 108q0 11 10 11h39q6 0 10 -13q15 -53 96 -53q82 0 97 53q3 13 10 13h39q10 0 10 -11q0 -71 -46.5 -108t-109.5 -37zM617 173q6 -13 16 -35t14 -31t12.5 -23.5t15 -20.5t16.5 -13t23 -10v-40h-298v42q75 10 38 88q-16 33 -59 33h-144
q-39 0 -54 -26q-17 -38 0.5 -63t68.5 -32v-42h-246v42q43 8 64.5 33t43.5 75l160 355q29 64 29 116l88 8zM388 218q8 0 12.5 5.5t1.5 15.5l-73 152q-8 23 -18 1l-69 -153q-3 -10 1.5 -15.5t12.5 -5.5h132zM192 127l1 3l-1 -1v-2z" />
    <glyph glyph-name="abreve" unicode="&#x103;" horiz-adv-x="543" 
d="M266 535q-63 0 -109 37t-46 108q0 11 10 11h39q6 0 10 -13q15 -53 96 -53q82 0 97 53q3 13 10 13h39q10 0 10 -11q0 -71 -46.5 -108t-109.5 -37zM164 -6q-58 0 -96 27.5t-38 82.5q0 62 57.5 97t188.5 58q29 5 37.5 13.5t8.5 33.5v6q0 56 -15 79.5t-48 23.5q-53 0 -53 -71
q0 -33 -23.5 -50t-55.5 -17q-33 0 -51 19t-18 45q0 54 72.5 86.5t168.5 32.5q91 0 132 -40.5t41 -154.5v-163q0 -46 51 -37v-45q-30 -25 -98 -25q-46 0 -70 20t-30 45q-2 11 -7 12.5t-13 -7.5q-58 -71 -141 -71zM231 77q42 0 66.5 29.5t24.5 76.5v7q0 17 -9 23.5t-31 4.5
q-56 -3 -79 -31t-23 -57q0 -53 51 -53z" />
    <glyph glyph-name="Aogonek" unicode="&#x104;" horiz-adv-x="734" 
d="M609 0q-100 -64 -100 -116q0 -25 15 -42.5t44 -17.5q49 0 62 56h55q-3 -17 -11 -35.5t-26.5 -41.5t-57 -38t-90.5 -15q-57 0 -97 25.5t-40 82.5q0 56 51.5 94t111.5 48h-110v42q75 10 38 88q-16 33 -59 33h-144q-39 0 -54 -26q-17 -38 0.5 -63t68.5 -32v-42h-246v42
q43 8 64.5 33t43.5 75l160 355q29 64 29 116l88 8l212 -456q6 -13 16 -35t14 -31t12.5 -23.5t15 -20.5t16.5 -13t23 -10v-40h-105zM388 218q8 0 12.5 5.5t1.5 15.5l-73 152q-8 23 -18 1l-69 -153q-3 -10 1.5 -15.5t12.5 -5.5h132zM192 127l1 3l-1 -1v-2z" />
    <glyph glyph-name="aogonek" unicode="&#x105;" horiz-adv-x="543" 
d="M440 -4q-94 -20 -94 -93q0 -60 52 -60q48 0 73 59h38q-3 -17 -11 -36t-26 -42.5t-55 -39t-86 -15.5q-131 0 -131 100q0 108 158 144q-27 19 -33 47q-2 11 -7 12.5t-13 -7.5q-58 -71 -141 -71q-58 0 -96 27.5t-38 82.5q0 62 57.5 97t188.5 58q29 5 37.5 13.5t8.5 33.5v6
q0 56 -15 79.5t-48 23.5q-53 0 -53 -71q0 -33 -23.5 -50t-55.5 -17q-33 0 -51 19t-18 45q0 54 72.5 86.5t168.5 32.5q91 0 132 -40.5t41 -154.5v-163q0 -46 51 -37v-45q-25 -20 -83 -24zM322 183v7q0 17 -9 23.5t-31 4.5q-56 -3 -79 -31t-23 -57q0 -53 51 -53
q42 0 66.5 29.5t24.5 76.5z" />
    <glyph glyph-name="Cacute" unicode="&#x106;" horiz-adv-x="673" 
d="M316 755q-20 -24 -2 -42q19 -19 38 -6l123 73q92 56 40 111q-48 50 -109 -24zM373 -10q-142 0 -242.5 87.5t-100.5 232.5q0 100 50.5 176t131 113.5t175.5 37.5q122 0 189.5 -50t67.5 -119q0 -38 -22.5 -67t-68.5 -29q-44 0 -68.5 26t-24.5 63q0 135 -103 135
q-60 0 -101 -64.5t-41 -172.5q0 -130 72.5 -203.5t167.5 -73.5q91 0 154 70l29 -25q-27 -50 -94 -93.5t-171 -43.5z" />
    <glyph glyph-name="cacute" unicode="&#x107;" horiz-adv-x="518" 
d="M249 585q-20 -24 -2 -42q19 -19 38 -6l123 73q92 56 40 111q-48 50 -109 -24zM290 -6q-68 0 -125 23.5t-96 78t-39 130.5q0 58 23.5 104.5t62 74t83 41.5t91.5 14q81 0 137 -39.5t56 -90.5q0 -75 -67 -75q-36 0 -55.5 22t-19.5 46v7q0 14 -0.5 22t-3.5 21.5t-8.5 20.5
t-18 12.5t-29.5 5.5q-88 0 -88 -139q0 -92 45.5 -146t121.5 -54q54 0 91 50l32 -27q-18 -38 -67.5 -70t-125.5 -32z" />
    <glyph glyph-name="Cdotaccent" unicode="&#x10a;" horiz-adv-x="673" 
d="M354 668q-36 0 -61.5 24.5t-25.5 59.5q0 37 25.5 62t61.5 25q35 0 60 -25t25 -62q0 -35 -25 -59.5t-60 -24.5zM373 -10q-142 0 -242.5 87.5t-100.5 232.5q0 100 50.5 176t131 113.5t175.5 37.5q122 0 189.5 -50t67.5 -119q0 -38 -22.5 -67t-68.5 -29q-44 0 -68.5 26
t-24.5 63q0 135 -103 135q-60 0 -101 -64.5t-41 -172.5q0 -130 72.5 -203.5t167.5 -73.5q91 0 154 70l29 -25q-27 -50 -94 -93.5t-171 -43.5z" />
    <glyph glyph-name="cdotaccent" unicode="&#x10b;" horiz-adv-x="518" 
d="M287 498q-36 0 -61.5 24.5t-25.5 59.5q0 37 25.5 62t61.5 25q35 0 60 -25t25 -62q0 -35 -25 -59.5t-60 -24.5zM290 -6q-68 0 -125 23.5t-96 78t-39 130.5q0 58 23.5 104.5t62 74t83 41.5t91.5 14q81 0 137 -39.5t56 -90.5q0 -75 -67 -75q-36 0 -55.5 22t-19.5 46v7
q0 14 -0.5 22t-3.5 21.5t-8.5 20.5t-18 12.5t-29.5 5.5q-88 0 -88 -139q0 -92 45.5 -146t121.5 -54q54 0 91 50l32 -27q-18 -38 -67.5 -70t-125.5 -32z" />
    <glyph glyph-name="Ccaron" unicode="&#x10c;" horiz-adv-x="673" 
d="M354 673l-161 180l29 28l132 -88l132 88l29 -28zM373 -10q-142 0 -242.5 87.5t-100.5 232.5q0 100 50.5 176t131 113.5t175.5 37.5q122 0 189.5 -50t67.5 -119q0 -38 -22.5 -67t-68.5 -29q-44 0 -68.5 26t-24.5 63q0 135 -103 135q-60 0 -101 -64.5t-41 -172.5
q0 -130 72.5 -203.5t167.5 -73.5q91 0 154 70l29 -25q-27 -50 -94 -93.5t-171 -43.5z" />
    <glyph glyph-name="ccaron" unicode="&#x10d;" horiz-adv-x="518" 
d="M287 503l-161 180l29 28l132 -88l132 88l29 -28zM290 -6q-68 0 -125 23.5t-96 78t-39 130.5q0 58 23.5 104.5t62 74t83 41.5t91.5 14q81 0 137 -39.5t56 -90.5q0 -75 -67 -75q-36 0 -55.5 22t-19.5 46v7q0 14 -0.5 22t-3.5 21.5t-8.5 20.5t-18 12.5t-29.5 5.5
q-88 0 -88 -139q0 -92 45.5 -146t121.5 -54q54 0 91 50l32 -27q-18 -38 -67.5 -70t-125.5 -32z" />
    <glyph glyph-name="Dcaron" unicode="&#x10e;" horiz-adv-x="737" 
d="M333 673l-161 180l29 28l132 -88l132 88l29 -28zM30 0v42q76 8 76 67v402q0 60 -76 68v42h308q182 0 270.5 -75.5t88.5 -229.5q0 -82 -27 -143.5t-64.5 -93t-88 -50.5t-84.5 -23t-68 -4q-19 0 -89 3.5t-104 3.5q-63 0 -142 -9zM337 52q84 0 128.5 73t44.5 191
q0 126 -47.5 191t-114.5 65h-9q-64 0 -64 -61v-402q0 -57 62 -57z" />
    <glyph glyph-name="dcaron" unicode="&#x10f;" horiz-adv-x="669" 
d="M637 660q32 0 45 -22.5t1 -59.5l-24 -67q-7 -21 -18 -29.5t-31 -8.5q-36 0 -36 40l-3 75q-1 72 66 72zM534 101q0 -24 14 -32t48 0v-44q-47 -30 -110 -30q-43 0 -69 20t-32 54q-52 -75 -153 -75q-84 0 -143 59t-59 165q0 112 67 177t153 65q29 0 56 -8t39.5 -15.5
t22.5 -9.5t13 8.5t3 39.5v54q0 33 -16 44t-47 8v45l163 27q50 7 50 -40v-512zM299 75q34 0 59.5 27t25.5 85v44q0 86 -35.5 130t-76.5 44t-62 -37t-21 -96q0 -78 31.5 -137.5t78.5 -59.5z" />
    <glyph glyph-name="Dcroat" unicode="&#x110;" horiz-adv-x="737" 
d="M338 621q182 0 270.5 -75.5t88.5 -229.5q0 -82 -27 -143.5t-64.5 -93t-88 -50.5t-84.5 -23t-68 -4q-19 0 -89 3.5t-104 3.5q-63 0 -142 -9v42q76 8 76 67v179h-75v45h75v178q0 60 -76 68v42h308zM337 52q84 0 128.5 73t44.5 191q0 126 -47.5 191t-114.5 65h-9
q-64 0 -64 -61v-178h94v-45h-94v-179q0 -57 62 -57z" />
    <glyph glyph-name="dcroat" unicode="&#x111;" horiz-adv-x="611" 
d="M596 498h-62v-397q0 -24 14 -32t48 0v-44q-47 -30 -110 -30q-43 0 -69 20t-32 54q-52 -75 -153 -75q-84 0 -143 59t-59 165q0 112 67 177t153 65q29 0 56 -8t39.5 -15.5t22.5 -9.5t13 8.5t3 39.5v23h-126v45h125q-6 43 -62 38v45l163 27q50 7 50 -40v-70h62v-45zM299 75
q34 0 59.5 27t25.5 85v44q0 86 -35.5 130t-76.5 44t-62 -37t-21 -96q0 -78 31.5 -137.5t78.5 -59.5z" />
    <glyph glyph-name="Emacron" unicode="&#x112;" horiz-adv-x="620" 
d="M175 819q0 19 23 19h277q23 0 23 -19v-50q0 -19 -23 -19h-277q-23 0 -23 19v50zM30 0v42q76 8 76 67v403q0 59 -76 67v42h508q13 0 14 -10q7 -68 21 -133h-25q-28 48 -55 68.5t-69 20.5h-85q-64 0 -64 -61v-105q0 -60 64 -60h40q59 0 78.5 15t25.5 57h22v-198h-22
q-6 41 -26 56t-78 15h-40q-64 0 -64 -60v-113q0 -59 53 -61l108 1q79 1 115 52l24 35h25q-20 -39 -30 -126q-2 -14 -16 -14h-524z" />
    <glyph glyph-name="emacron" unicode="&#x113;" horiz-adv-x="527" 
d="M133 580q-23 0 -23 19v50q0 19 23 19h277q23 0 23 -19v-50q0 -19 -23 -19h-277zM347 73q62 0 105 50l30 -27q-18 -37 -71 -69.5t-132 -32.5q-103 0 -176 59.5t-73 170.5q0 115 77 175.5t183 60.5q85 0 143.5 -39.5t58.5 -107.5q0 -26 -9.5 -45t-22 -29t-37.5 -16
t-43.5 -8t-52.5 -4l-104 -5q-21 -3 -16 -31q36 -102 140 -102zM276 412q-81 0 -85 -128q3 -35 39 -35l26 -1q56 -1 78.5 18.5t22.5 56.5q0 33 -22.5 61t-58.5 28z" />
    <glyph glyph-name="Edotaccent" unicode="&#x116;" horiz-adv-x="620" 
d="M325 668q-36 0 -61.5 24.5t-25.5 59.5q0 37 25.5 62t61.5 25q35 0 60 -25t25 -62q0 -35 -25 -59.5t-60 -24.5zM30 0v42q76 8 76 67v403q0 59 -76 67v42h508q13 0 14 -10q7 -68 21 -133h-25q-28 48 -55 68.5t-69 20.5h-85q-64 0 -64 -61v-105q0 -60 64 -60h40
q59 0 78.5 15t25.5 57h22v-198h-22q-6 41 -26 56t-78 15h-40q-64 0 -64 -60v-113q0 -59 53 -61l108 1q79 1 115 52l24 35h25q-20 -39 -30 -126q-2 -14 -16 -14h-524z" />
    <glyph glyph-name="edotaccent" unicode="&#x117;" horiz-adv-x="527" 
d="M260 498q-36 0 -61.5 24.5t-25.5 59.5q0 37 25.5 62t61.5 25q35 0 60 -25t25 -62q0 -35 -25 -59.5t-60 -24.5zM347 73q62 0 105 50l30 -27q-18 -37 -71 -69.5t-132 -32.5q-103 0 -176 59.5t-73 170.5q0 115 77 175.5t183 60.5q85 0 143.5 -39.5t58.5 -107.5
q0 -26 -9.5 -45t-22 -29t-37.5 -16t-43.5 -8t-52.5 -4l-104 -5q-21 -3 -16 -31q36 -102 140 -102zM276 412q-81 0 -85 -128q3 -35 39 -35l26 -1q56 -1 78.5 18.5t22.5 56.5q0 33 -22.5 61t-58.5 28z" />
    <glyph glyph-name="Eogonek" unicode="&#x118;" horiz-adv-x="620" 
d="M575 140h25q-20 -39 -30 -126q-2 -14 -16 -14h-86q-100 -64 -100 -116q0 -25 15 -42.5t44 -17.5q49 0 62 56h55q-3 -17 -11 -35.5t-26.5 -41.5t-57 -38t-90.5 -15q-57 0 -97 25.5t-40 82.5q0 56 51.5 94t111.5 48h-355v42q76 8 76 67v403q0 59 -76 67v42h508q13 0 14 -10
q7 -68 21 -133h-25q-28 48 -55 68.5t-69 20.5h-85q-64 0 -64 -61v-105q0 -60 64 -60h40q59 0 78.5 15t25.5 57h22v-198h-22q-6 41 -26 56t-78 15h-40q-64 0 -64 -60v-113q0 -59 53 -61l108 1q79 1 115 52z" />
    <glyph glyph-name="eogonek" unicode="&#x119;" horiz-adv-x="527" 
d="M347 73q62 0 105 50l30 -27q-14 -27 -47 -54t-83 -39q-65 -27 -65 -93q0 -28 14.5 -46.5t42.5 -18.5q23 0 34 15.5t17 43.5h54q-3 -17 -11 -36t-26 -42.5t-54 -39t-85 -15.5q-55 0 -93.5 28t-38.5 80q0 77 79 121q-83 15 -136.5 72.5t-53.5 151.5q0 115 77 175.5
t183 60.5q85 0 143.5 -39.5t58.5 -107.5q0 -26 -9.5 -45t-22 -29t-37.5 -16t-43.5 -8t-52.5 -4l-104 -5q-21 -3 -16 -31q36 -102 140 -102zM276 412q-81 0 -85 -128q3 -35 39 -35l26 -1q56 -1 78.5 18.5t22.5 56.5q0 33 -22.5 61t-58.5 28z" />
    <glyph glyph-name="Ecaron" unicode="&#x11a;" horiz-adv-x="620" 
d="M325 673l-161 180l29 28l132 -88l132 88l29 -28zM30 0v42q76 8 76 67v403q0 59 -76 67v42h508q13 0 14 -10q7 -68 21 -133h-25q-28 48 -55 68.5t-69 20.5h-85q-64 0 -64 -61v-105q0 -60 64 -60h40q59 0 78.5 15t25.5 57h22v-198h-22q-6 41 -26 56t-78 15h-40
q-64 0 -64 -60v-113q0 -59 53 -61l108 1q79 1 115 52l24 35h25q-20 -39 -30 -126q-2 -14 -16 -14h-524z" />
    <glyph glyph-name="ecaron" unicode="&#x11b;" horiz-adv-x="527" 
d="M422 683l-161 -180l-161 180l29 28l132 -88l132 88zM347 73q62 0 105 50l30 -27q-18 -37 -71 -69.5t-132 -32.5q-103 0 -176 59.5t-73 170.5q0 115 77 175.5t183 60.5q85 0 143.5 -39.5t58.5 -107.5q0 -26 -9.5 -45t-22 -29t-37.5 -16t-43.5 -8t-52.5 -4l-104 -5
q-21 -3 -16 -31q36 -102 140 -102zM276 412q-81 0 -85 -128q3 -35 39 -35l26 -1q56 -1 78.5 18.5t22.5 56.5q0 33 -22.5 61t-58.5 28z" />
    <glyph glyph-name="Gbreve" unicode="&#x11e;" horiz-adv-x="711" 
d="M355 705q-63 0 -109 37t-46 108q0 11 10 11h39q6 0 10 -13q15 -53 96 -53q82 0 97 53q3 13 10 13h39q10 0 10 -11q0 -71 -46.5 -108t-109.5 -37zM366 -10q-137 0 -236.5 87.5t-99.5 232.5q0 150 105.5 238.5t256.5 88.5q120 0 187 -50t67 -116q0 -35 -22.5 -61.5
t-67.5 -26.5q-43 0 -67 25t-24 58q0 54 -24 92t-78 38q-64 0 -106 -62.5t-42 -165.5q0 -137 71 -229.5t151 -92.5q47 0 47 39v109q0 35 -17.5 48.5t-69.5 17.5v28l299 1v-29q-38 -5 -50.5 -18t-12.5 -48v-194q-29 18 -61 20t-57.5 -5.5t-68 -16t-80.5 -8.5z" />
    <glyph glyph-name="gbreve" unicode="&#x11f;" horiz-adv-x="560" 
d="M257 535q-63 0 -109 37t-46 108q0 11 10 11h39q6 0 10 -13q15 -53 96 -53q82 0 97 53q3 13 10 13h39q10 0 10 -11q0 -71 -46.5 -108t-109.5 -37zM487 354q-17 3 -22.5 -7t-4.5 -39v-12q0 -69 -49 -115.5t-140 -46.5q-15 0 -34.5 1.5t-28.5 1.5q-37 0 -37 -23
q0 -20 66 -33l101 -19q87 -16 132.5 -38.5t45.5 -65.5q0 -72 -87.5 -120.5t-205.5 -48.5q-90 0 -149 30t-59 84q0 61 78 85q24 8 24 10q1 3 -23 10q-54 16 -54 69q0 68 96 83q-87 42 -87 137q0 71 51 117t150 46q112 0 169 -59q7 57 63 57q26 0 44.5 -13t18.5 -43
q0 -26 -17 -39.5t-41 -8.5zM269 180q20 0 32 8.5t16.5 26.5t5.5 30t1 35q0 47 -21.5 90.5t-63.5 43.5q-24 0 -37 -17.5t-15.5 -36.5t-2.5 -47q0 -48 20.5 -90.5t64.5 -42.5zM250 -32q-53 9 -76.5 -11t-23.5 -51q0 -34 32.5 -57t85.5 -23t82 20t29 51q0 33 -22 45.5t-85 22.5
z" />
    <glyph glyph-name="Gdotaccent" unicode="&#x120;" horiz-adv-x="711" 
d="M355 668q-36 0 -61.5 24.5t-25.5 59.5q0 37 25.5 62t61.5 25q35 0 60 -25t25 -62q0 -35 -25 -59.5t-60 -24.5zM366 -10q-137 0 -236.5 87.5t-99.5 232.5q0 150 105.5 238.5t256.5 88.5q120 0 187 -50t67 -116q0 -35 -22.5 -61.5t-67.5 -26.5q-43 0 -67 25t-24 58
q0 54 -24 92t-78 38q-64 0 -106 -62.5t-42 -165.5q0 -137 71 -229.5t151 -92.5q47 0 47 39v109q0 35 -17.5 48.5t-69.5 17.5v28l299 1v-29q-38 -5 -50.5 -18t-12.5 -48v-194q-29 18 -61 20t-57.5 -5.5t-68 -16t-80.5 -8.5z" />
    <glyph glyph-name="gdotaccent" unicode="&#x121;" horiz-adv-x="560" 
d="M257 498q-36 0 -61.5 24.5t-25.5 59.5q0 37 25.5 62t61.5 25q35 0 60 -25t25 -62q0 -35 -25 -59.5t-60 -24.5zM487 354q-17 3 -22.5 -7t-4.5 -39v-12q0 -69 -49 -115.5t-140 -46.5q-15 0 -34.5 1.5t-28.5 1.5q-37 0 -37 -23q0 -20 66 -33l101 -19q87 -16 132.5 -38.5
t45.5 -65.5q0 -72 -87.5 -120.5t-205.5 -48.5q-90 0 -149 30t-59 84q0 61 78 85q24 8 24 10q1 3 -23 10q-54 16 -54 69q0 68 96 83q-87 42 -87 137q0 71 51 117t150 46q112 0 169 -59q7 57 63 57q26 0 44.5 -13t18.5 -43q0 -26 -17 -39.5t-41 -8.5zM269 180q20 0 32 8.5
t16.5 26.5t5.5 30t1 35q0 47 -21.5 90.5t-63.5 43.5q-24 0 -37 -17.5t-15.5 -36.5t-2.5 -47q0 -48 20.5 -90.5t64.5 -42.5zM250 -32q-53 9 -76.5 -11t-23.5 -51q0 -34 32.5 -57t85.5 -23t82 20t29 51q0 33 -22 45.5t-85 22.5z" />
    <glyph glyph-name="uni0122" unicode="&#x122;" horiz-adv-x="711" 
d="M366 -10q-137 0 -236.5 87.5t-99.5 232.5q0 150 105.5 238.5t256.5 88.5q120 0 187 -50t67 -116q0 -35 -22.5 -61.5t-67.5 -26.5q-43 0 -67 25t-24 58q0 54 -24 92t-78 38q-64 0 -106 -62.5t-42 -165.5q0 -137 71 -229.5t151 -92.5q47 0 47 39v109q0 35 -17.5 48.5
t-69.5 17.5v28l299 1v-29q-38 -5 -50.5 -18t-12.5 -48v-194q-29 18 -61 20t-57.5 -5.5t-68 -16t-80.5 -8.5zM333 -330l-25 28q55 48 55 83q0 15 -18 15q-34 0 -55.5 22.5t-21.5 55.5q0 37 24 61t62 24q43 0 65.5 -29t22.5 -77q0 -107 -109 -183z" />
    <glyph glyph-name="uni0123" unicode="&#x123;" horiz-adv-x="560" 
d="M284 492q-42 0 -65 29t-23 78q0 106 109 182l26 -28q-56 -47 -56 -83q0 -15 18 -15q34 0 55.5 -22.5t21.5 -55.5q0 -37 -23.5 -61t-62.5 -24zM487 354q-17 3 -22.5 -7t-4.5 -39v-12q0 -69 -49 -115.5t-140 -46.5q-15 0 -34.5 1.5t-28.5 1.5q-37 0 -37 -23q0 -20 66 -33
l101 -19q87 -16 132.5 -38.5t45.5 -65.5q0 -72 -87.5 -120.5t-205.5 -48.5q-90 0 -149 30t-59 84q0 61 78 85q24 8 24 10q1 3 -23 10q-54 16 -54 69q0 68 96 83q-87 42 -87 137q0 71 51 117t150 46q112 0 169 -59q7 57 63 57q26 0 44.5 -13t18.5 -43q0 -26 -17 -39.5
t-41 -8.5zM269 180q20 0 32 8.5t16.5 26.5t5.5 30t1 35q0 47 -21.5 90.5t-63.5 43.5q-24 0 -37 -17.5t-15.5 -36.5t-2.5 -47q0 -48 20.5 -90.5t64.5 -42.5zM250 -32q-53 9 -76.5 -11t-23.5 -51q0 -34 32.5 -57t85.5 -23t82 20t29 51q0 33 -22 45.5t-85 22.5z" />
    <glyph glyph-name="Hbar" unicode="&#x126;" horiz-adv-x="772" 
d="M742 579q-76 -8 -76 -67v-403q0 -59 76 -67v-42h-321v42q75 8 75 67v132q0 32 -47 32h-126q-20 0 -34 -8t-14 -24v-132q0 -59 76 -67v-42h-321v42q76 8 76 67v403q0 59 -76 67v42h321v-42q-76 -8 -76 -67q0 -32 49 -32h124q48 0 48 32q0 59 -75 67v42h321v-42zM496 369
v15q0 32 -47 32h-126q-20 0 -34 -8t-14 -24v-15q0 -32 49 -32h124q48 0 48 32z" />
    <glyph glyph-name="hbar" unicode="&#x127;" horiz-adv-x="616" 
d="M544 102q0 -46 52 -37v-45q-12 -11 -42 -18t-57 -7q-49 0 -76 25.5t-27 68.5v159q0 114 -76 114q-44 0 -67 -29.5t-23 -84.5v-137q0 -36 14 -50.5t48 -16.5v-44h-276v44q36 2 50 16.5t14 50.5v378h-63v48h63q-2 29 -18 38t-45 6v45l163 27q50 7 50 -40v-76h145v-48h-145
v-63q0 -16 6 -24.5t14 -8t14 8.5q54 62 138 62q64 0 104 -39.5t40 -146.5v-176z" />
    <glyph glyph-name="Imacron" unicode="&#x12a;" horiz-adv-x="381" 
d="M41 819q0 19 23 19h277q23 0 23 -19v-50q0 -19 -23 -19h-277q-23 0 -23 19v50zM30 0v42q76 8 76 67v403q0 59 -76 67v42h321v-42q-76 -8 -76 -67v-403q0 -59 76 -67v-42h-321z" />
    <glyph glyph-name="imacron" unicode="&#x12b;" 
d="M4 649q0 19 23 19h277q23 0 23 -19v-50q0 -19 -23 -19h-277q-23 0 -23 19v50zM24 0v44q36 2 50 16.5t14 50.5v224q0 33 -16 43.5t-47 7.5v45l163 27q50 7 50 -40v-307q0 -36 14 -50.5t48 -16.5v-44h-276z" />
    <glyph glyph-name="Iogonek" unicode="&#x12e;" horiz-adv-x="381" 
d="M351 579q-76 -8 -76 -67v-403q0 -59 76 -67v-42h-86q-100 -64 -100 -116q0 -25 15 -42.5t44 -17.5q49 0 62 56h55q-3 -17 -11 -35.5t-26.5 -41.5t-57 -38t-90.5 -15q-57 0 -97 25.5t-40 82.5q0 56 51.5 94t111.5 48h-152v42q76 8 76 67v403q0 59 -76 67v42h321v-42z" />
    <glyph glyph-name="iogonek" unicode="&#x12f;" 
d="M154 498q-36 0 -61.5 24.5t-25.5 59.5q0 37 25.5 62t61.5 25q35 0 60 -25t25 -62q0 -35 -25 -59.5t-60 -24.5zM213 0q-100 -64 -100 -116q0 -25 15 -42.5t44 -17.5q49 0 62 56h55q-3 -17 -11 -35.5t-26.5 -41.5t-57 -38t-90.5 -15q-57 0 -97 25.5t-40 82.5q0 56 51.5 94
t111.5 48h-106v44q36 2 50 16.5t14 50.5v224q0 33 -16 43.5t-47 7.5v45l163 27q50 7 50 -40v-307q0 -36 14 -50.5t48 -16.5v-44h-87z" />
    <glyph glyph-name="Idotaccent" unicode="&#x130;" horiz-adv-x="381" 
d="M191 668q-36 0 -61.5 24.5t-25.5 59.5q0 37 25.5 62t61.5 25q35 0 60 -25t25 -62q0 -35 -25 -59.5t-60 -24.5zM30 0v42q76 8 76 67v403q0 59 -76 67v42h321v-42q-76 -8 -76 -67v-403q0 -59 76 -67v-42h-321z" />
    <glyph glyph-name="dotlessi" unicode="&#x131;" 
d="M24 0v44q36 2 50 16.5t14 50.5v224q0 33 -16 43.5t-47 7.5v45l163 27q50 7 50 -40v-307q0 -36 14 -50.5t48 -16.5v-44h-276z" />
    <glyph glyph-name="IJ" unicode="&#x132;" horiz-adv-x="902" 
d="M30 0v42q76 8 76 67v403q0 59 -76 67v42h321v-42q-76 -8 -76 -67v-403q0 -59 76 -67v-42h-321zM568 -10q-76 0 -129 30.5t-53 89.5q0 40 24 61.5t58 21.5q69 0 69 -82q0 -77 51 -77q39 0 39 68v410q0 60 -86 67v42h331v-42q-75 -8 -75 -67v-343q0 -51 -22.5 -88.5
t-59 -56t-73 -26.5t-74.5 -8z" />
    <glyph glyph-name="ij" unicode="&#x133;" horiz-adv-x="644" 
d="M151 498q-36 0 -61.5 24.5t-25.5 59.5q0 37 25.5 62t61.5 25t60.5 -25t24.5 -62q0 -35 -25 -59.5t-60 -24.5zM492 498q-37 0 -62 24.5t-25 59.5q0 37 25 62t62 25q35 0 60 -25t25 -62q0 -35 -25 -59.5t-60 -24.5zM24 0v44q36 2 50 16.5t14 50.5v224q0 33 -16 43.5
t-47 7.5v45l163 27q50 7 50 -40v-307q0 -36 14 -50.5t48 -16.5v-44h-276zM385 -202q-55 0 -97 21.5t-42 68.5q0 30 17 48t44 18q35 0 54 -16t21.5 -34.5t6.5 -34.5t14 -16q11 0 18 16t7 36v430q0 33 -16 43.5t-47 7.5v45l163 27q50 7 50 -40v-454q0 -80 -55.5 -123
t-137.5 -43z" />
    <glyph glyph-name="uni0136" unicode="&#x136;" horiz-adv-x="775" 
d="M607 147q37 -52 71.5 -75t76.5 -30v-42h-355v42q22 7 32.5 15t13.5 23.5t-14 36.5l-48 83q-54 73 -76 45l-19 -21q-4 -5 -6.5 -10t-3.5 -8.5t-2 -10t-1 -9.5t-0.5 -12.5t-0.5 -13.5v-51q0 -59 76 -67v-42h-321v42q76 8 76 67v403q0 59 -76 67v42h321v-42q-76 -8 -76 -67
v-231l227 235q22 23 9.5 42t-49.5 21v42h255v-42q-36 -2 -81.5 -22.5t-68.5 -44.5l-86 -89q-22 -22 -24 -39.5t17 -45.5zM397 -41q43 0 65.5 -29t22.5 -77q0 -107 -109 -183l-25 28q55 48 55 83q0 15 -18 15q-34 0 -55.5 22.5t-21.5 55.5q0 37 24 61t62 24z" />
    <glyph glyph-name="uni0137" unicode="&#x137;" horiz-adv-x="607" 
d="M510 98q34 -51 97 -54v-44h-290v44q16 1 22 10.5t4 19.5t-8 20l-42 74q-18 27 -25 29q-5 0 -10 -4q-20 -18 -25 -27t-5 -34v-21q0 -36 14 -50.5t48 -16.5v-44h-276v44q36 2 50 16.5t14 50.5v418q0 33 -16 44t-47 8v45l163 27q50 7 50 -40v-317q0 -24 13.5 -33t27.5 4
l99 83q10 10 11 22t-13 23t-39 12v44h242v-44q-37 -2 -66 -16.5t-64 -44.5l-61 -51zM308 -41q43 0 65.5 -29t22.5 -77q0 -107 -109 -183l-25 28q55 48 55 83q0 15 -18 15q-34 0 -55.5 22.5t-21.5 55.5q0 37 24 61t62 24z" />
    <glyph glyph-name="Lacute" unicode="&#x139;" horiz-adv-x="638" 
d="M160 755q-20 -24 -2 -42q19 -19 38 -6l123 73q92 56 40 111q-48 50 -109 -24zM30 0v42q76 8 76 67v403q0 59 -76 67v42h321v-42q-76 -8 -76 -67v-403q0 -67 87 -61l67 3q50 2 77.5 17t50.5 50l23 39h38l-14 -59q-14 -56 -10 -98h-564z" />
    <glyph glyph-name="lacute" unicode="&#x13a;" horiz-adv-x="300" 
d="M105 755q-20 -24 -2 -42q19 -19 38 -6l123 73q92 56 40 111q-48 50 -109 -24zM175 -5q-48 0 -75 25t-27 67v442q0 33 -16 44t-47 8v45l163 27q50 7 50 -40v-512q0 -24 14 -32t48 0v-44q-47 -30 -110 -30z" />
    <glyph glyph-name="uni013B" unicode="&#x13b;" horiz-adv-x="638" 
d="M30 0v42q76 8 76 67v403q0 59 -76 67v42h321v-42q-76 -8 -76 -67v-403q0 -67 87 -61l67 3q50 2 77.5 17t50.5 50l23 39h38l-14 -59q-14 -56 -10 -98h-564zM285 -330l-25 28q55 48 55 83q0 15 -18 15q-34 0 -55.5 22.5t-21.5 55.5q0 37 24 61t62 24q43 0 65.5 -29
t22.5 -77q0 -107 -109 -183z" />
    <glyph glyph-name="uni013C" unicode="&#x13c;" horiz-adv-x="300" 
d="M175 -5q-48 0 -75 25t-27 67v442q0 33 -16 44t-47 8v45l163 27q50 7 50 -40v-512q0 -24 14 -32t48 0v-44q-47 -30 -110 -30zM138 -330l-25 28q55 48 55 83q0 15 -18 15q-34 0 -55.5 22.5t-21.5 55.5q0 37 24 61t62 24q43 0 65.5 -29t22.5 -77q0 -107 -109 -183z" />
    <glyph glyph-name="Lcaron" unicode="&#x13d;" horiz-adv-x="638" 
d="M460 336l-26 27q56 49 56 84q0 15 -18 15q-35 0 -56.5 22t-21.5 56q0 37 24 60.5t62 23.5q43 0 66 -29t23 -77q0 -106 -109 -182zM30 0v42q76 8 76 67v403q0 59 -76 67v42h321v-42q-76 -8 -76 -67v-403q0 -67 87 -61l67 3q50 2 77.5 17t50.5 50l23 39h38l-14 -59
q-14 -56 -10 -98h-564z" />
    <glyph glyph-name="lcaron" unicode="&#x13e;" horiz-adv-x="357" 
d="M298 473q-36 0 -36 40v75q0 72 63 72q32 0 45 -22.5t1 -59.5l-24 -67q-7 -21 -18 -29.5t-31 -8.5zM175 -5q-48 0 -75 25t-27 67v442q0 33 -16 44t-47 8v45l163 27q50 7 50 -40v-512q0 -24 14 -32t48 0v-44q-47 -30 -110 -30z" />
    <glyph glyph-name="Ldot" unicode="&#x13f;" horiz-adv-x="638" 
d="M30 0v42q76 8 76 67v403q0 59 -76 67v42h321v-42q-76 -8 -76 -67v-403q0 -67 87 -61l67 3q50 2 77.5 17t50.5 50l23 39h38l-14 -59q-14 -56 -10 -98h-564zM447 262q-32 0 -55 23t-23 56q0 32 23 55t55 23t55 -23t23 -55q0 -33 -23 -56t-55 -23z" />
    <glyph glyph-name="ldot" unicode="&#x140;" horiz-adv-x="405" 
d="M175 -5q-48 0 -75 25t-27 67v442q0 33 -16 44t-47 8v45l163 27q50 7 50 -40v-512q0 -24 14 -32t48 0v-44q-47 -30 -110 -30zM356 279q-32 0 -55 23t-23 56q0 32 23 55t55 23t55.5 -23t23.5 -55q0 -33 -23.5 -56t-55.5 -23z" />
    <glyph glyph-name="Lslash" unicode="&#x141;" horiz-adv-x="633" 
d="M613 157l-14 -59q-14 -56 -10 -98h-564v42q76 8 76 67v129l-71 -38v51l71 38v223q0 59 -76 67v42h321v-42q-75 -8 -75 -67v-132l76 41v-51l-76 -41v-220q0 -66 87 -61l66 3q50 2 77.5 17t50.5 50l24 39h37z" />
    <glyph glyph-name="lslash" unicode="&#x142;" horiz-adv-x="302" 
d="M287 360l-62 -36v-223q0 -24 14 -32t48 0v-44q-47 -30 -110 -30q-48 0 -75 25t-27 67v151l-65 -38v51l65 38v240q0 33 -16 44t-47 8v45l162 27q51 7 51 -40v-238l62 36v-51z" />
    <glyph glyph-name="Nacute" unicode="&#x143;" horiz-adv-x="743" 
d="M371 707q-19 -13 -38 6q-18 18 2 42l90 112q61 74 109 24q52 -55 -40 -111zM485 621h228v-42q-75 -8 -75 -67v-512h-68l-389 425v-316q0 -59 78 -67v-42h-229v42q76 8 76 67v403q0 59 -76 67v42h190l342 -372v263q0 59 -77 67v42z" />
    <glyph glyph-name="nacute" unicode="&#x144;" horiz-adv-x="626" 
d="M277 585q-20 -24 -2 -42q19 -19 38 -6l123 73q92 56 40 111q-48 50 -109 -24zM507 -5q-49 0 -76 25.5t-27 68.5v159q0 116 -76 116q-43 0 -66.5 -30t-23.5 -86v-137q0 -36 14 -50.5t48 -16.5v-44h-276v44q36 2 50 16.5t14 50.5v224q0 33 -16 43.5t-47 7.5v45l163 27
q50 7 50 -32q0 -16 6 -24.5t14 -8t14 8.5q56 62 138 62q64 0 104 -39.5t40 -146.5v-176q0 -46 52 -37v-45q-12 -11 -42 -18t-57 -7z" />
    <glyph glyph-name="uni0145" unicode="&#x145;" horiz-adv-x="743" 
d="M485 621h228v-42q-75 -8 -75 -67v-512h-68l-389 425v-316q0 -59 78 -67v-42h-229v42q76 8 76 67v403q0 59 -76 67v42h190l342 -372v263q0 59 -77 67v42zM372 -41q43 0 65.5 -29t22.5 -77q0 -107 -109 -183l-25 28q55 48 55 83q0 15 -18 15q-34 0 -55.5 22.5t-21.5 55.5
q0 37 24 61t62 24z" />
    <glyph glyph-name="uni0146" unicode="&#x146;" horiz-adv-x="626" 
d="M507 -5q-49 0 -76 25.5t-27 68.5v159q0 116 -76 116q-43 0 -66.5 -30t-23.5 -86v-137q0 -36 14 -50.5t48 -16.5v-44h-276v44q36 2 50 16.5t14 50.5v224q0 33 -16 43.5t-47 7.5v45l163 27q50 7 50 -32q0 -16 6 -24.5t14 -8t14 8.5q56 62 138 62q64 0 104 -39.5t40 -146.5
v-176q0 -46 52 -37v-45q-12 -11 -42 -18t-57 -7zM293 -330l-25 28q55 48 55 83q0 15 -18 15q-34 0 -55.5 22.5t-21.5 55.5q0 37 24 61t62 24q43 0 65.5 -29t22.5 -77q0 -107 -109 -183z" />
    <glyph glyph-name="Ncaron" unicode="&#x147;" horiz-adv-x="743" 
d="M534 853l-161 -180l-161 180l29 28l132 -88l132 88zM485 621h228v-42q-75 -8 -75 -67v-512h-68l-389 425v-316q0 -59 78 -67v-42h-229v42q76 8 76 67v403q0 59 -76 67v42h190l342 -372v263q0 59 -77 67v42z" />
    <glyph glyph-name="ncaron" unicode="&#x148;" horiz-adv-x="626" 
d="M315 503l-161 180l29 28l132 -88l132 88l29 -28zM507 -5q-49 0 -76 25.5t-27 68.5v159q0 116 -76 116q-43 0 -66.5 -30t-23.5 -86v-137q0 -36 14 -50.5t48 -16.5v-44h-276v44q36 2 50 16.5t14 50.5v224q0 33 -16 43.5t-47 7.5v45l163 27q50 7 50 -32q0 -16 6 -24.5t14 -8
t14 8.5q56 62 138 62q64 0 104 -39.5t40 -146.5v-176q0 -46 52 -37v-45q-12 -11 -42 -18t-57 -7z" />
    <glyph glyph-name="Eng" unicode="&#x14a;" horiz-adv-x="743" 
d="M485 621h228v-42q-75 -8 -75 -67v-554q0 -105 -47 -148t-139 -43q-75 0 -124.5 31t-49.5 89q0 37 20.5 57.5t56.5 20.5q59 0 59 -63q0 -30 5 -43.5t20 -13.5q29 0 29 46v220l-287 314v-316q0 -59 78 -67v-42h-229v42q76 8 76 67v403q0 59 -76 67v42h190l342 -372v263
q0 59 -77 67v42z" />
    <glyph glyph-name="eng" unicode="&#x14b;" horiz-adv-x="619" 
d="M361 -208q-56 0 -98 22t-42 69q0 30 17.5 48t44.5 18q35 0 54 -16t21.5 -34.5t6.5 -34.5t13 -16q12 0 19 16t7 36v348q0 116 -76 116q-43 0 -66.5 -30t-23.5 -86v-137q0 -36 14 -50.5t48 -16.5v-44h-276v44q36 2 50 16.5t14 50.5v224q0 33 -16 43.5t-47 7.5v45l163 27
q50 7 50 -32q0 -16 6 -24.5t14 -8t14 8.5q56 62 138 62q64 0 104 -39.5t40 -146.5v-319q0 -81 -56 -124t-137 -43z" />
    <glyph glyph-name="Omacron" unicode="&#x14c;" horiz-adv-x="729" 
d="M206 819q0 19 23 19h277q23 0 23 -19v-50q0 -19 -23 -19h-277q-23 0 -23 19v50zM356 -10q-83 0 -155.5 35t-121.5 109t-49 174q0 152 101 240.5t243 88.5q82 0 154.5 -34.5t121.5 -108.5t49 -172q0 -103 -49 -180t-126 -114.5t-168 -37.5zM392 48q50 0 85 52t35 160
q0 135 -50.5 227t-124.5 92q-50 0 -84.5 -51.5t-34.5 -158.5q0 -137 50 -229t124 -92z" />
    <glyph glyph-name="omacron" unicode="&#x14d;" horiz-adv-x="551" 
d="M127 649q0 19 23 19h277q23 0 23 -19v-50q0 -19 -23 -19h-277q-23 0 -23 19v50zM278 -6q-102 0 -175 61t-73 175q0 113 71.5 171.5t172.5 58.5q102 0 174.5 -61t72.5 -175q0 -113 -71 -171.5t-172 -58.5zM293 40q31 0 49.5 37.5t18.5 106.5q0 94 -29 162t-73 68
q-32 0 -50 -37t-18 -107q0 -94 29 -162t73 -68z" />
    <glyph glyph-name="Ohungarumlaut" unicode="&#x150;" horiz-adv-x="729" 
d="M216 755q-20 -24 -2 -42q18 -19 37 -6l124 73q92 56 40 111q-49 49 -109 -24zM449 755q-20 -24 -2 -42q19 -19 38 -6l123 73q92 56 40 111q-48 50 -109 -24zM356 -10q-83 0 -155.5 35t-121.5 109t-49 174q0 152 101 240.5t243 88.5q82 0 154.5 -34.5t121.5 -108.5
t49 -172q0 -103 -49 -180t-126 -114.5t-168 -37.5zM392 48q50 0 85 52t35 160q0 135 -50.5 227t-124.5 92q-50 0 -84.5 -51.5t-34.5 -158.5q0 -137 50 -229t124 -92z" />
    <glyph glyph-name="ohungarumlaut" unicode="&#x151;" horiz-adv-x="551" 
d="M137 585q-20 -24 -2 -42q18 -19 37 -6l124 73q92 56 40 111q-49 49 -109 -24zM370 585q-20 -24 -2 -42q19 -19 38 -6l123 73q92 56 40 111q-48 50 -109 -24zM278 -6q-102 0 -175 61t-73 175q0 113 71.5 171.5t172.5 58.5q102 0 174.5 -61t72.5 -175q0 -113 -71 -171.5
t-172 -58.5zM293 40q31 0 49.5 37.5t18.5 106.5q0 94 -29 162t-73 68q-32 0 -50 -37t-18 -107q0 -94 29 -162t73 -68z" />
    <glyph glyph-name="OE" unicode="&#x152;" horiz-adv-x="1028" 
d="M982 140h26q-20 -39 -30 -126q-2 -14 -16 -14h-520q-40 -10 -86 -10q-83 0 -155.5 35t-121.5 109t-49 174q0 152 101 240.5t243 88.5q49 0 102 -16h470q12 0 13 -10q7 -68 22 -133h-26q-27 48 -54 68.5t-70 20.5h-84q-64 0 -64 -61v-105q0 -60 64 -60h40q59 0 78.5 15
t25.5 57h22v-198h-22q-6 41 -26 56t-78 15h-40q-64 0 -64 -60v-113q0 -59 52 -61l108 1q80 1 115 52zM218 369q0 -137 50 -229t124 -92q80 0 121 86v275q-27 79 -73.5 124.5t-102.5 45.5q-50 0 -84.5 -51.5t-34.5 -158.5z" />
    <glyph glyph-name="oe" unicode="&#x153;" horiz-adv-x="855" 
d="M675 74q63 0 106 50l29 -27q-18 -37 -70.5 -69.5t-132.5 -32.5q-96 0 -165 51q-65 -52 -164 -52q-102 0 -175 61t-73 175q0 113 71.5 171.5t172.5 58.5q100 0 168 -55q72 56 177 56q85 0 143 -39t58 -108q0 -26 -9.5 -45t-21.5 -29t-37 -16t-43.5 -8t-52.5 -4l-105 -5
q-22 -3 -16 -33q39 -100 140 -100zM293 40q31 0 49.5 37.5t18.5 106.5v8q-2 20 -2 33v5q-7 79 -34.5 131.5t-65.5 52.5q-32 0 -50 -37t-18 -107q0 -94 29 -162t73 -68zM605 413q-82 0 -86 -128q3 -35 39 -35l27 -1q55 -1 78 18.5t23 56.5q0 33 -23 61t-58 28z" />
    <glyph glyph-name="Racute" unicode="&#x154;" horiz-adv-x="724" 
d="M323 755q-20 -24 -2 -42q19 -19 38 -6l123 73q92 56 40 111q-48 50 -109 -24zM30 0v42q76 8 76 67v403q0 59 -76 67v42h366q113 0 182 -44t69 -126q0 -60 -40.5 -103.5t-120.5 -50.5q-5 0 -5 -6.5t5 -7.5q49 -12 76.5 -38t53.5 -94q2 -4 13 -30t18 -39t23 -26.5t34 -13.5
v-42h-75q-65 0 -105 18.5t-64 53.5t-53 106q-24 50 -39.5 67t-43.5 17q-26 0 -37.5 -12.5t-11.5 -40.5v-100q0 -60 86 -67v-42h-331zM330 326h24q63 0 91 38.5t28 86.5q0 43 -24 74.5t-72 31.5h-54q-48 0 -48 -51v-127q0 -28 12.5 -40.5t42.5 -12.5z" />
    <glyph glyph-name="racute" unicode="&#x155;" horiz-adv-x="519" 
d="M241 585q-20 -24 -2 -42q19 -19 38 -6l123 73q92 56 40 111q-48 50 -109 -24zM24 0v44q36 2 50 16.5t14 50.5v224q0 33 -16 43.5t-47 7.5v45l163 27q50 7 50 -32q0 -16 5 -24t12 -7t13 9q21 26 53.5 43t69.5 17q45 0 79 -28t34 -73q0 -41 -21.5 -62.5t-57.5 -21.5
q-30 0 -50 16t-20 45q0 22 -10.5 34t-26.5 12q-34 0 -57 -39t-23 -110v-126q0 -36 15 -50.5t54 -16.5v-44h-283z" />
    <glyph glyph-name="uni0156" unicode="&#x156;" horiz-adv-x="724" 
d="M30 0v42q76 8 76 67v403q0 59 -76 67v42h366q113 0 182 -44t69 -126q0 -60 -40.5 -103.5t-120.5 -50.5q-5 0 -5 -6.5t5 -7.5q49 -12 76.5 -38t53.5 -94q2 -4 13 -30t18 -39t23 -26.5t34 -13.5v-42h-75q-65 0 -105 18.5t-64 53.5t-53 106q-24 50 -39.5 67t-43.5 17
q-26 0 -37.5 -12.5t-11.5 -40.5v-100q0 -60 86 -67v-42h-331zM330 326h24q63 0 91 38.5t28 86.5q0 43 -24 74.5t-72 31.5h-54q-48 0 -48 -51v-127q0 -28 12.5 -40.5t42.5 -12.5zM362 -330l-25 28q55 48 55 83q0 15 -18 15q-34 0 -55.5 22.5t-21.5 55.5q0 37 24 61t62 24
q43 0 65.5 -29t22.5 -77q0 -107 -109 -183z" />
    <glyph glyph-name="uni0157" unicode="&#x157;" horiz-adv-x="519" 
d="M24 0v44q36 2 50 16.5t14 50.5v224q0 33 -16 43.5t-47 7.5v45l163 27q50 7 50 -32q0 -16 5 -24t12 -7t13 9q21 26 53.5 43t69.5 17q45 0 79 -28t34 -73q0 -41 -21.5 -62.5t-57.5 -21.5q-30 0 -50 16t-20 45q0 22 -10.5 34t-26.5 12q-34 0 -57 -39t-23 -110v-126
q0 -36 15 -50.5t54 -16.5v-44h-283zM166 -330l-26 28q56 47 56 83q0 15 -18 15q-34 0 -55.5 22.5t-21.5 55.5q0 37 23.5 61t62.5 24q42 0 65 -29t23 -77q0 -107 -109 -183z" />
    <glyph glyph-name="Rcaron" unicode="&#x158;" horiz-adv-x="724" 
d="M360 673l-161 180l29 28l132 -88l132 88l29 -28zM30 0v42q76 8 76 67v403q0 59 -76 67v42h366q113 0 182 -44t69 -126q0 -60 -40.5 -103.5t-120.5 -50.5q-5 0 -5 -6.5t5 -7.5q49 -12 76.5 -38t53.5 -94q2 -4 13 -30t18 -39t23 -26.5t34 -13.5v-42h-75q-65 0 -105 18.5
t-64 53.5t-53 106q-24 50 -39.5 67t-43.5 17q-26 0 -37.5 -12.5t-11.5 -40.5v-100q0 -60 86 -67v-42h-331zM330 326h24q63 0 91 38.5t28 86.5q0 43 -24 74.5t-72 31.5h-54q-48 0 -48 -51v-127q0 -28 12.5 -40.5t42.5 -12.5z" />
    <glyph glyph-name="rcaron" unicode="&#x159;" horiz-adv-x="519" 
d="M272 503l-161 180l28 28l133 -88l132 88l29 -28zM24 0v44q36 2 50 16.5t14 50.5v224q0 33 -16 43.5t-47 7.5v45l163 27q50 7 50 -32q0 -16 5 -24t12 -7t13 9q21 26 53.5 43t69.5 17q45 0 79 -28t34 -73q0 -41 -21.5 -62.5t-57.5 -21.5q-30 0 -50 16t-20 45q0 22 -10.5 34
t-26.5 12q-34 0 -57 -39t-23 -110v-126q0 -36 15 -50.5t54 -16.5v-44h-283z" />
    <glyph glyph-name="Sacute" unicode="&#x15a;" horiz-adv-x="593" 
d="M236 755q-20 -24 -2 -42q19 -19 38 -6l123 73q92 56 40 111q-48 50 -109 -24zM295 -10q-65 0 -134 17t-101 39q-16 38 -21.5 76t5 65.5t37.5 27.5q11 0 15.5 -6t11.5 -23q26 -68 80.5 -102.5t117.5 -35.5q94 -1 94 76q0 41 -41.5 65t-121.5 47q-86 25 -144 78.5
t-58 134.5q0 91 69.5 139.5t172.5 48.5q63 0 129.5 -15.5t98.5 -37.5q16 -38 21.5 -76t-5 -65.5t-37.5 -27.5q-11 0 -15.5 6t-11.5 23q-24 65 -75.5 99.5t-110.5 34.5q-47 0 -70 -22t-23 -47q0 -45 34 -69t106 -44q38 -11 66 -21t63 -28.5t57.5 -40.5t38 -55.5t15.5 -74.5
q0 -52 -24.5 -90.5t-65 -58t-83.5 -28.5t-90 -9z" />
    <glyph glyph-name="sacute" unicode="&#x15b;" horiz-adv-x="461" 
d="M192 585q-20 -24 -2 -42q19 -19 38 -6l123 73q92 56 40 111q-48 50 -109 -24zM228 -6q-86 0 -144.5 32t-58.5 88q0 27 15 43t42 16q31 0 46.5 -15.5t15.5 -37.5q0 -37 28.5 -57.5t64.5 -20.5t50 19t14 41q0 25 -19 38t-72 28q-174 51 -174 156q0 63 57 99.5t138 36.5
q44 0 84 -10t69.5 -34.5t29.5 -59.5q0 -52 -56 -52q-26 0 -39.5 11.5t-13.5 25.5q0 71 -79 71q-23 0 -40 -14t-17 -33q0 -42 77 -63q2 -1 22 -6.5t25.5 -7.5t24.5 -8.5t26.5 -10t23 -12t22.5 -15.5l18 -18t15.5 -22t8.5 -25.5t4 -30.5q0 -76 -60 -114t-148 -38z" />
    <glyph glyph-name="Scedilla" unicode="&#x15e;" horiz-adv-x="593" 
d="M558 176q0 -47 -19.5 -82.5t-53 -56t-71 -31.5t-80.5 -14l-16 -35q43 -2 73.5 -28.5t30.5 -66.5q0 -52 -46 -80.5t-108 -28.5q-55 0 -92 25.5t-37 58.5q0 36 33.5 49.5t61.5 -17.5q0 -20 11.5 -44t34.5 -24q21 0 31.5 18.5t10.5 44.5q0 47 -32 47q-5 0 -19.5 -3.5
t-24.5 -3.5q-20 0 -29 13t-2 30l23 46q-121 13 -178 53q-16 38 -21.5 76t5 65.5t37.5 27.5q11 0 15.5 -6t11.5 -23q26 -68 80.5 -102.5t117.5 -35.5q94 -1 94 76q0 41 -41.5 65t-121.5 47q-86 25 -144 78.5t-58 134.5q0 91 69.5 139.5t172.5 48.5q63 0 129.5 -15.5
t98.5 -37.5q16 -38 21.5 -76t-5 -65.5t-37.5 -27.5q-11 0 -15.5 6t-11.5 23q-24 65 -75.5 99.5t-110.5 34.5q-47 0 -70 -22t-23 -47q0 -45 34 -69t106 -44q38 -11 66 -21t63 -28.5t57.5 -40.5t38 -55.5t15.5 -74.5z" />
    <glyph glyph-name="scedilla" unicode="&#x15f;" horiz-adv-x="461" 
d="M436 146q0 -64 -43 -100.5t-111 -47.5l-19 -41q43 -2 73.5 -28.5t30.5 -66.5q0 -52 -46 -80.5t-108 -28.5q-55 0 -92 25.5t-37 58.5q0 36 33.5 49.5t61.5 -17.5q0 -20 11.5 -44t34.5 -24q21 0 31.5 18.5t10.5 44.5q0 47 -32 47q-5 0 -19.5 -3.5t-24.5 -3.5q-20 0 -29 13
t-2 30l24 49q-71 8 -115 39t-44 79q0 27 15 43t42 16q31 0 46.5 -15.5t15.5 -37.5q0 -37 28.5 -57.5t64.5 -20.5t50 19t14 41q0 25 -19 38t-72 28q-174 51 -174 156q0 63 57 99.5t138 36.5q44 0 84 -10t69.5 -34.5t29.5 -59.5q0 -52 -56 -52q-26 0 -39.5 11.5t-13.5 25.5
q0 71 -79 71q-23 0 -40 -14t-17 -33q0 -42 77 -63q2 -1 22 -6.5t25.5 -7.5t24.5 -8.5t26.5 -10t23 -12t22.5 -15.5l18 -18t15.5 -22t8.5 -25.5t4 -30.5z" />
    <glyph glyph-name="Scaron" unicode="&#x160;" horiz-adv-x="593" 
d="M273 673l-161 180l29 28l132 -88l132 88l29 -28zM295 -10q-65 0 -134 17t-101 39q-16 38 -21.5 76t5 65.5t37.5 27.5q11 0 15.5 -6t11.5 -23q26 -68 80.5 -102.5t117.5 -35.5q94 -1 94 76q0 41 -41.5 65t-121.5 47q-86 25 -144 78.5t-58 134.5q0 91 69.5 139.5
t172.5 48.5q63 0 129.5 -15.5t98.5 -37.5q16 -38 21.5 -76t-5 -65.5t-37.5 -27.5q-11 0 -15.5 6t-11.5 23q-24 65 -75.5 99.5t-110.5 34.5q-47 0 -70 -22t-23 -47q0 -45 34 -69t106 -44q38 -11 66 -21t63 -28.5t57.5 -40.5t38 -55.5t15.5 -74.5q0 -52 -24.5 -90.5t-65 -58
t-83.5 -28.5t-90 -9z" />
    <glyph glyph-name="scaron" unicode="&#x161;" horiz-adv-x="461" 
d="M229 503l-161 180l29 28l132 -88l132 88l29 -28zM228 -6q-86 0 -144.5 32t-58.5 88q0 27 15 43t42 16q31 0 46.5 -15.5t15.5 -37.5q0 -37 28.5 -57.5t64.5 -20.5t50 19t14 41q0 25 -19 38t-72 28q-174 51 -174 156q0 63 57 99.5t138 36.5q44 0 84 -10t69.5 -34.5
t29.5 -59.5q0 -52 -56 -52q-26 0 -39.5 11.5t-13.5 25.5q0 71 -79 71q-23 0 -40 -14t-17 -33q0 -42 77 -63q2 -1 22 -6.5t25.5 -7.5t24.5 -8.5t26.5 -10t23 -12t22.5 -15.5l18 -18t15.5 -22t8.5 -25.5t4 -30.5q0 -76 -60 -114t-148 -38z" />
    <glyph glyph-name="uni0162" unicode="&#x162;" horiz-adv-x="680" 
d="M632 624l23 -170h-43q-24 65 -47.5 89t-73.5 24q-42 0 -54 -11.5t-12 -56.5v-390q0 -60 95 -67v-42h-128l-20 -43q43 -2 73.5 -28.5t30.5 -66.5q0 -52 -46 -80.5t-108 -28.5q-55 0 -92 25.5t-37 58.5q0 36 33.5 49.5t61.5 -17.5q0 -20 11.5 -44t34.5 -24q21 0 31.5 18.5
t10.5 44.5q0 47 -32 47q-5 0 -19.5 -3.5t-24.5 -3.5q-20 0 -29 13t-2 30l26 53h-136v42q96 7 96 67v390q0 45 -12.5 56.5t-54.5 11.5q-50 0 -73.5 -24t-47.5 -89h-42l23 170l57 -3h470z" />
    <glyph glyph-name="uni0163" unicode="&#x163;" horiz-adv-x="374" 
d="M256 -43q43 -2 73.5 -28.5t30.5 -66.5q0 -52 -46 -80.5t-108 -28.5q-55 0 -92 25.5t-37 58.5q0 36 33.5 49.5t61.5 -17.5q0 -20 11.5 -44t34.5 -24q21 0 31.5 18.5t10.5 44.5q0 47 -32 47q-5 0 -19.5 -3.5t-24.5 -3.5q-20 0 -29 13t-2 30l26 53h10q-103 23 -103 162v206
q0 18 -7 25t-24 7h-40v36q74 9 109 39t50 87h62v-83q0 -28 32 -28h87v-51h-87q-17 0 -24.5 -6.5t-7.5 -25.5v-235q0 -38 8.5 -58t34.5 -20q33 0 53 17l22 -40q-35 -28 -79 -35z" />
    <glyph glyph-name="Tcaron" unicode="&#x164;" horiz-adv-x="680" 
d="M338 673l-161 180l29 28l132 -88l132 88l29 -28zM159 0v42q96 7 96 67v390q0 45 -12.5 56.5t-54.5 11.5q-50 0 -73.5 -24t-47.5 -89h-42l23 170l57 -3h470l57 3l23 -170h-43q-24 65 -47.5 89t-73.5 24q-42 0 -54 -11.5t-12 -56.5v-390q0 -60 95 -67v-42h-361z" />
    <glyph glyph-name="tcaron" unicode="&#x165;" horiz-adv-x="364" 
d="M296 483q-40 0 -37 40l3 75q1 72 70 72q35 0 53 -22.5t0 -59.5l-40 -67q-9 -22 -19 -30t-30 -8zM240 -5q-80 0 -117 41t-37 126v206q0 18 -7 25t-24 7h-40v36q74 9 109 39t50 87h62v-83q0 -28 32 -28h87v-51h-87q-17 0 -24.5 -6.5t-7.5 -25.5v-235q0 -38 8.5 -58
t34.5 -20q33 0 53 17l22 -40q-44 -37 -114 -37z" />
    <glyph glyph-name="Tbar" unicode="&#x166;" horiz-adv-x="680" 
d="M632 624l23 -170h-43q-24 65 -47.5 89t-73.5 24q-42 0 -54 -11.5t-12 -56.5v-95h105l1 -64h-106v-231q0 -60 95 -67v-42h-361v42q96 7 96 67v231h-104l1 64h103v95q0 45 -12.5 56.5t-54.5 11.5q-50 0 -73.5 -24t-47.5 -89h-42l23 170l57 -3h470z" />
    <glyph glyph-name="tbar" unicode="&#x167;" horiz-adv-x="374" 
d="M268 400q-17 0 -24.5 -6.5t-7.5 -25.5v-37h119v-52h-119v-146q0 -38 8.5 -58t34.5 -20q33 0 53 17l22 -40q-44 -37 -114 -37q-80 0 -117 41t-37 126v117h-71v52h71v37q0 18 -7 25t-24 7h-40v36q74 9 109 39t50 87h62v-83q0 -28 32 -28h87v-51h-87z" />
    <glyph glyph-name="Umacron" unicode="&#x16a;" horiz-adv-x="752" 
d="M243 819q0 19 23 19h277q23 0 23 -19v-50q0 -19 -23 -19h-277q-23 0 -23 19v50zM382 -10q-129 0 -205 70t-76 213v239q0 59 -76 67v42h321v-42q-76 -8 -76 -67v-228q0 -212 149 -212q71 0 113.5 51.5t42.5 154.5v234q0 29 -21 46t-59 21v42h232v-42q-38 -4 -59.5 -21
t-21.5 -46v-261q0 -120 -67 -190.5t-197 -70.5z" />
    <glyph glyph-name="umacron" unicode="&#x16b;" horiz-adv-x="631" 
d="M158 649q0 19 23 19h277q23 0 23 -19v-50q0 -19 -23 -19h-277q-23 0 -23 19v50zM234 -6q-66 0 -106 39.5t-40 146.5v155q0 33 -16 43.5t-47 7.5v45l163 27q50 7 50 -40v-208q0 -55 19.5 -85.5t56.5 -30.5q44 0 67 30t23 86v125q0 33 -16 43.5t-47 7.5v45l162 27
q51 7 51 -40v-316q0 -46 52 -37v-45q-30 -25 -98 -25q-18 0 -33 4t-23.5 8t-16 13.5t-10 13.5t-6.5 14l-4 11q-5 20 -14 20q-7 0 -16 -12q-57 -73 -151 -73z" />
    <glyph glyph-name="ubreve" unicode="&#x16d;" horiz-adv-x="631" 
d="M328 535q-63 0 -109 37t-46 108q0 11 10 11h39q6 0 10 -13q15 -53 96 -53t96 53q4 13 10 13h39q10 0 10 -11q0 -71 -46 -108t-109 -37zM234 -6q-66 0 -106 39.5t-40 146.5v155q0 33 -16 43.5t-47 7.5v45l163 27q50 7 50 -40v-208q0 -55 19.5 -85.5t56.5 -30.5q44 0 67 30
t23 86v125q0 33 -16 43.5t-47 7.5v45l162 27q51 7 51 -40v-316q0 -46 52 -37v-45q-30 -25 -98 -25q-18 0 -33 4t-23.5 8t-16 13.5t-10 13.5t-6.5 14l-4 11q-5 20 -14 20q-7 0 -16 -12q-57 -73 -151 -73z" />
    <glyph glyph-name="Uring" unicode="&#x16e;" horiz-adv-x="752" 
d="M392 702q-46 0 -79 31t-33 75t33.5 76t78.5 32q46 0 79.5 -32t33.5 -76q0 -45 -33.5 -75.5t-79.5 -30.5zM392 768q19 0 30 11.5t11 28.5t-11 29.5t-30 12.5t-29.5 -12.5t-10.5 -29.5t10.5 -28.5t29.5 -11.5zM382 -10q-129 0 -205 70t-76 213v239q0 59 -76 67v42h321v-42
q-76 -8 -76 -67v-228q0 -212 149 -212q71 0 113.5 51.5t42.5 154.5v234q0 29 -21 46t-59 21v42h232v-42q-38 -4 -59.5 -21t-21.5 -46v-261q0 -120 -67 -190.5t-197 -70.5z" />
    <glyph glyph-name="uring" unicode="&#x16f;" horiz-adv-x="631" 
d="M285 532q-46 0 -79 30.5t-33 75.5q0 44 33 76t79 32t79 -32t33 -76q0 -45 -33 -75.5t-79 -30.5zM285 598q19 0 29.5 11.5t10.5 28.5t-10.5 29.5t-29.5 12.5t-29.5 -12.5t-10.5 -29.5t10.5 -28.5t29.5 -11.5zM234 -6q-66 0 -106 39.5t-40 146.5v155q0 33 -16 43.5t-47 7.5
v45l163 27q50 7 50 -40v-208q0 -55 19.5 -85.5t56.5 -30.5q44 0 67 30t23 86v125q0 33 -16 43.5t-47 7.5v45l162 27q51 7 51 -40v-316q0 -46 52 -37v-45q-30 -25 -98 -25q-18 0 -33 4t-23.5 8t-16 13.5t-10 13.5t-6.5 14l-4 11q-5 20 -14 20q-7 0 -16 -12q-57 -73 -151 -73z
" />
    <glyph glyph-name="Uhungarumlaut" unicode="&#x170;" horiz-adv-x="752" 
d="M253 755q-20 -24 -2 -42q18 -19 37 -6l124 73q92 56 40 111q-49 49 -109 -24zM486 755q-20 -24 -2 -42q19 -19 38 -6l123 73q92 56 40 111q-48 50 -109 -24zM382 -10q-129 0 -205 70t-76 213v239q0 59 -76 67v42h321v-42q-76 -8 -76 -67v-228q0 -212 149 -212
q71 0 113.5 51.5t42.5 154.5v234q0 29 -21 46t-59 21v42h232v-42q-38 -4 -59.5 -21t-21.5 -46v-261q0 -120 -67 -190.5t-197 -70.5z" />
    <glyph glyph-name="uhungarumlaut" unicode="&#x171;" horiz-adv-x="631" 
d="M145 585q-20 -24 -2 -42q19 -19 38 -6l124 73q90 56 39 111q-48 50 -109 -24zM378 585q-19 -24 -2 -42q19 -19 38 -6l124 73q92 56 39 111q-48 49 -108 -24zM234 -6q-66 0 -106 39.5t-40 146.5v155q0 33 -16 43.5t-47 7.5v45l163 27q50 7 50 -40v-208q0 -55 19.5 -85.5
t56.5 -30.5q44 0 67 30t23 86v125q0 33 -16 43.5t-47 7.5v45l162 27q51 7 51 -40v-316q0 -46 52 -37v-45q-30 -25 -98 -25q-18 0 -33 4t-23.5 8t-16 13.5t-10 13.5t-6.5 14l-4 11q-5 20 -14 20q-7 0 -16 -12q-57 -73 -151 -73z" />
    <glyph glyph-name="Uogonek" unicode="&#x172;" horiz-adv-x="752" 
d="M495 621h232v-42q-38 -4 -59.5 -21t-21.5 -46v-261q0 -98 -44 -163.5t-131 -87.5q-101 -63 -101 -116q0 -25 15 -42.5t44 -17.5q49 0 62 56h55q-3 -17 -11 -35.5t-26.5 -41.5t-57 -38t-90.5 -15q-57 0 -97 25.5t-40 82.5q0 47 37.5 81.5t89.5 51.5q-116 8 -183 78
t-67 204v239q0 59 -76 67v42h321v-42q-76 -8 -76 -67v-228q0 -212 149 -212q71 0 113.5 51.5t42.5 154.5v234q0 29 -21 46t-59 21v42z" />
    <glyph glyph-name="uogonek" unicode="&#x173;" horiz-adv-x="631" 
d="M497 -5q-86 -10 -86 -86q0 -29 14.5 -47.5t41.5 -18.5q11 0 19.5 3t13 5t8.5 10.5t5 11t3 15t3 14.5h54q-2 -16 -5 -27.5t-15 -33.5t-29.5 -36t-52 -25t-79.5 -11q-53 0 -90 27t-37 82q0 64 49 98t121 45q-6 6 -20 38q-5 20 -14 20q-7 0 -16 -12q-57 -73 -151 -73
q-66 0 -106 39.5t-40 146.5v155q0 33 -16 43.5t-47 7.5v45l163 27q50 7 50 -40v-208q0 -55 19.5 -85.5t56.5 -30.5q44 0 67 30t23 86v125q0 33 -16 43.5t-47 7.5v45l162 27q51 7 51 -40v-316q0 -46 52 -37v-45q-30 -25 -98 -25h-11z" />
    <glyph glyph-name="Wcircumflex" unicode="&#x174;" horiz-adv-x="1059" 
d="M531 921l161 -180l-29 -28l-132 89l-132 -89l-29 28zM305 0l-191 448q-4 9 -11.5 28t-10 25t-9 20t-10 19t-10 13.5t-12 12.5t-14 8t-17.5 7v40h294v-42q-75 -10 -42 -88l106 -253q10 -24 20 0l39 103q4 11 16.5 37t16 38t4 34t-9.5 45q-17 40 -32 59t-43 27v40h294v-42
q-75 -10 -42 -88l107 -253q10 -24 20 0l94 246q32 80 -70 95v42h247v-42q-43 -8 -66 -33.5t-43 -74.5l-139 -355q-30 -79 -30 -116h-86l-156 364l-97 -248q-31 -78 -31 -116h-86z" />
    <glyph glyph-name="wcircumflex" unicode="&#x175;" horiz-adv-x="852" 
d="M353 751l161 -180l-28 -28l-133 89l-132 -89l-28 28zM201 0l-109 327q-10 33 -29.5 51t-52.5 29v44h262v-44q-36 -10 -40.5 -27.5t8.5 -52.5l59 -193q5 -18 16.5 -18t17.5 18l33 115q18 64 9 101q-11 40 -57 57v44h262v-44q-36 -10 -40.5 -27.5t8.5 -52.5l59 -193
q5 -18 16.5 -18t17.5 18l29 102q28 102 20.5 131t-56.5 40v44h208v-44q-45 -10 -65 -27.5t-31 -52.5l-109 -327h-128l-89 270l-91 -270h-128z" />
    <glyph glyph-name="Ycircumflex" unicode="&#x176;" horiz-adv-x="697" 
d="M349 921l161 -180l-29 -28l-132 89l-132 -89l-29 28zM171 0v42q95 7 95 67v107q0 56 -21 85l-113 170q-28 42 -40 58.5t-33 32.5t-44 17v42h313v-42q-35 -3 -44.5 -21.5t15.5 -63.5l95 -147q7 -14 14 0l104 152q20 25 9 50.5t-56 29.5v42h217v-42q-17 -2 -31.5 -9.5
t-30 -26t-20.5 -24.5t-21 -29l-122 -183q-21 -31 -21 -91v-107q0 -60 96 -67v-42h-361z" />
    <glyph glyph-name="ycircumflex" unicode="&#x177;" horiz-adv-x="574" 
d="M286 751l161 -180l-29 -28l-132 89l-132 -89l-29 28zM161 -198q-54 0 -89 23.5t-35 61.5q0 26 16 45.5t50 19.5q29 0 43.5 -16.5t16.5 -36t10 -36t25 -16.5q26 0 34 25q16 48 -9 114l-131 341q-13 34 -31.5 51.5t-50.5 28.5v44h264v-44q-37 -10 -42.5 -27.5t10.5 -52.5
l75 -189q7 -21 16.5 -21t16.5 21l37 98q34 100 26 130t-58 41v44h209v-44q-44 -10 -62 -26.5t-33 -53.5l-141 -373q-33 -86 -70.5 -119t-96.5 -33z" />
    <glyph glyph-name="Ydieresis" unicode="&#x178;" horiz-adv-x="697" 
d="M231 668q-36 0 -61.5 24.5t-25.5 59.5q0 37 25.5 62t61.5 25q35 0 60 -25t25 -62q0 -35 -25 -59.5t-60 -24.5zM469 668q-36 0 -61.5 24.5t-25.5 59.5q0 37 25.5 62t61.5 25t60.5 -25t24.5 -62q0 -35 -25 -59.5t-60 -24.5zM171 0v42q95 7 95 67v107q0 56 -21 85l-113 170
q-28 42 -40 58.5t-33 32.5t-44 17v42h313v-42q-35 -3 -44.5 -21.5t15.5 -63.5l95 -147q7 -14 14 0l104 152q20 25 9 50.5t-56 29.5v42h217v-42q-17 -2 -31.5 -9.5t-30 -26t-20.5 -24.5t-21 -29l-122 -183q-21 -31 -21 -91v-107q0 -60 96 -67v-42h-361z" />
    <glyph glyph-name="Zacute" unicode="&#x179;" horiz-adv-x="638" 
d="M295 755q-20 -24 -2 -42q19 -19 38 -6l123 73q92 56 40 111q-48 50 -109 -24zM15 0l380 569l-172 -1q-49 0 -77.5 -24.5t-60.5 -82.5h-43l41 160h535l-379 -569h189q15 0 27 1t23 5t18 6.5t16 12t13 13t12.5 18t11.5 19.5t13 25.5t14 27.5h42l-47 -180h-556z" />
    <glyph glyph-name="zacute" unicode="&#x17a;" horiz-adv-x="474" 
d="M199 585q-20 -24 -2 -42q19 -19 38 -6l123 73q92 56 40 111q-48 50 -109 -24zM15 0l253 399h-104q-65 0 -84 -85h-44l18 137h405l-253 -399h115q65 0 84 85h44l-18 -137h-416z" />
    <glyph glyph-name="Zdotaccent" unicode="&#x17b;" horiz-adv-x="638" 
d="M333 668q-36 0 -61.5 24.5t-25.5 59.5q0 37 25.5 62t61.5 25q35 0 60 -25t25 -62q0 -35 -25 -59.5t-60 -24.5zM15 0l380 569l-172 -1q-49 0 -77.5 -24.5t-60.5 -82.5h-43l41 160h535l-379 -569h189q15 0 27 1t23 5t18 6.5t16 12t13 13t12.5 18t11.5 19.5t13 25.5t14 27.5
h42l-47 -180h-556z" />
    <glyph glyph-name="zdotaccent" unicode="&#x17c;" horiz-adv-x="474" 
d="M237 498q-36 0 -61.5 24.5t-25.5 59.5q0 37 25.5 62t61.5 25q35 0 60 -25t25 -62q0 -35 -25 -59.5t-60 -24.5zM15 0l253 399h-104q-65 0 -84 -85h-44l18 137h405l-253 -399h115q65 0 84 85h44l-18 -137h-416z" />
    <glyph glyph-name="Zcaron" unicode="&#x17d;" horiz-adv-x="638" 
d="M333 673l-161 180l29 28l132 -88l132 88l29 -28zM15 0l380 569l-172 -1q-49 0 -77.5 -24.5t-60.5 -82.5h-43l41 160h535l-379 -569h189q15 0 27 1t23 5t18 6.5t16 12t13 13t12.5 18t11.5 19.5t13 25.5t14 27.5h42l-47 -180h-556z" />
    <glyph glyph-name="zcaron" unicode="&#x17e;" horiz-adv-x="474" 
d="M237 503l-161 180l29 28l132 -88l132 88l29 -28zM15 0l253 399h-104q-65 0 -84 -85h-44l18 137h405l-253 -399h115q65 0 84 85h44l-18 -137h-416z" />
    <glyph glyph-name="florin" unicode="&#x192;" horiz-adv-x="493" 
d="M344 672q67 0 118 -29t51 -79q0 -29 -18.5 -49t-52.5 -20q-36 0 -52.5 20.5t-17.5 44.5t-10.5 44.5t-32.5 20.5q-42 0 -42 -94v-52q0 -28 32 -28h94v-51h-94q-17 0 -24.5 -6.5t-7.5 -25.5v-389q0 -91 -59.5 -143.5t-147.5 -52.5q-67 0 -118.5 29t-51.5 79q0 29 18.5 49
t52.5 20q36 0 52.5 -20.5t18 -44.5t11 -44.5t32.5 -20.5q42 0 42 94v444q0 18 -6.5 25t-24.5 7h-40v36q71 -4 71 43v-3q0 91 59.5 143.5t147.5 52.5z" />
    <glyph glyph-name="uni0218" unicode="&#x218;" horiz-adv-x="593" 
d="M295 -10q-65 0 -134 17t-101 39q-16 38 -21.5 76t5 65.5t37.5 27.5q11 0 15.5 -6t11.5 -23q26 -68 80.5 -102.5t117.5 -35.5q94 -1 94 76q0 41 -41.5 65t-121.5 47q-86 25 -144 78.5t-58 134.5q0 91 69.5 139.5t172.5 48.5q63 0 129.5 -15.5t98.5 -37.5q16 -38 21.5 -76
t-5 -65.5t-37.5 -27.5q-11 0 -15.5 6t-11.5 23q-24 65 -75.5 99.5t-110.5 34.5q-47 0 -70 -22t-23 -47q0 -45 34 -69t106 -44q38 -11 66 -21t63 -28.5t57.5 -40.5t38 -55.5t15.5 -74.5q0 -52 -24.5 -90.5t-65 -58t-83.5 -28.5t-90 -9zM261 -330l-25 28q55 48 55 83
q0 15 -18 15q-34 0 -55.5 22.5t-21.5 55.5q0 37 24 61t62 24q43 0 65.5 -29t22.5 -77q0 -107 -109 -183z" />
    <glyph glyph-name="uni0219" unicode="&#x219;" horiz-adv-x="461" 
d="M228 -6q-86 0 -144.5 32t-58.5 88q0 27 15 43t42 16q31 0 46.5 -15.5t15.5 -37.5q0 -37 28.5 -57.5t64.5 -20.5t50 19t14 41q0 25 -19 38t-72 28q-174 51 -174 156q0 63 57 99.5t138 36.5q44 0 84 -10t69.5 -34.5t29.5 -59.5q0 -52 -56 -52q-26 0 -39.5 11.5t-13.5 25.5
q0 71 -79 71q-23 0 -40 -14t-17 -33q0 -42 77 -63q2 -1 22 -6.5t25.5 -7.5t24.5 -8.5t26.5 -10t23 -12t22.5 -15.5l18 -18t15.5 -22t8.5 -25.5t4 -30.5q0 -76 -60 -114t-148 -38zM207 -330l-25 28q55 48 55 83q0 15 -18 15q-34 0 -55.5 22.5t-21.5 55.5q0 37 24 61t62 24
q43 0 65.5 -29t22.5 -77q0 -107 -109 -183z" />
    <glyph glyph-name="uni021A" unicode="&#x21a;" horiz-adv-x="680" 
d="M159 0v42q96 7 96 67v390q0 45 -12.5 56.5t-54.5 11.5q-50 0 -73.5 -24t-47.5 -89h-42l23 170l57 -3h470l57 3l23 -170h-43q-24 65 -47.5 89t-73.5 24q-42 0 -54 -11.5t-12 -56.5v-390q0 -60 95 -67v-42h-361zM316 -330l-25 28q55 48 55 83q0 15 -18 15q-34 0 -55.5 22.5
t-21.5 55.5q0 37 24 61t62 24q43 0 65.5 -29t22.5 -77q0 -107 -109 -183z" />
    <glyph glyph-name="uni021B" unicode="&#x21b;" horiz-adv-x="374" 
d="M240 -5q-80 0 -117 41t-37 126v206q0 18 -7 25t-24 7h-40v36q74 9 109 39t50 87h62v-83q0 -28 32 -28h87v-51h-87q-17 0 -24.5 -6.5t-7.5 -25.5v-235q0 -38 8.5 -58t34.5 -20q33 0 53 17l22 -40q-44 -37 -114 -37zM200 -330l-25 28q55 48 55 83q0 15 -18 15
q-34 0 -55.5 22.5t-21.5 55.5q0 37 24 61t62 24q43 0 65.5 -29t22.5 -77q0 -107 -109 -183z" />
    <glyph glyph-name="uni0237" unicode="&#x237;" horiz-adv-x="318" 
d="M60 -208q-55 0 -97 22t-42 69q0 30 17 48t44 18q35 0 54 -16t21.5 -34.5t6.5 -34.5t14 -16q11 0 18 16t7 36v435q0 33 -16 43.5t-47 7.5v45l163 27q50 7 50 -40v-459q0 -81 -55.5 -124t-137.5 -43z" />
    <glyph glyph-name="circumflex" unicode="&#x2c6;" horiz-adv-x="352" 
d="M176 751l161 -180l-29 -28l-132 89l-132 -89l-29 28z" />
    <glyph glyph-name="caron" unicode="&#x2c7;" horiz-adv-x="352" 
d="M176 503l-161 180l29 28l132 -88l132 88l29 -28z" />
    <glyph glyph-name="breve" unicode="&#x2d8;" horiz-adv-x="411" 
d="M205 535q-63 0 -109 37t-46 108q0 11 10 11h39q6 0 10 -13q15 -53 96 -53q82 0 97 53q3 13 10 13h39q10 0 10 -11q0 -71 -46.5 -108t-109.5 -37z" />
    <glyph glyph-name="dotaccent" unicode="&#x2d9;" horiz-adv-x="272" 
d="M137 498q-36 0 -61.5 24.5t-25.5 59.5q0 37 25.5 62t61.5 25q35 0 60 -25t25 -62q0 -35 -25 -59.5t-60 -24.5z" />
    <glyph glyph-name="ring" unicode="&#x2da;" 
d="M162 532q-46 0 -79 31t-33 75t33.5 76t78.5 32q46 0 79.5 -32t33.5 -76q0 -45 -33.5 -75.5t-79.5 -30.5zM162 598q19 0 30 11.5t11 28.5t-11 29.5t-30 12.5t-29.5 -12.5t-10.5 -29.5t10.5 -28.5t29.5 -11.5z" />
    <glyph glyph-name="ogonek" unicode="&#x2db;" horiz-adv-x="400" 
d="M360 -95q-3 -17 -11 -35.5t-26.5 -41.5t-57 -38t-90.5 -15q-57 0 -97 25.5t-40 82.5q0 58 54.5 96.5t115.5 46.5h78q-102 -64 -102 -117q0 -25 15 -42.5t44 -17.5q49 0 62 56h55z" />
    <glyph glyph-name="tilde" unicode="&#x2dc;" horiz-adv-x="517" 
d="M345 526q-46 0 -113 35.5t-92 35.5q-21 0 -35.5 -12t-14.5 -34h-40q0 61 32 94.5t90 33.5q47 0 114 -36t91 -36q51 0 51 46h39q0 -61 -31 -94t-91 -33z" />
    <glyph glyph-name="hungarumlaut" unicode="&#x2dd;" horiz-adv-x="555" 
d="M64 585q-20 -24 -2 -42q18 -19 37 -6l124 73q92 56 40 111q-49 49 -109 -24zM297 585q-20 -24 -2 -42q19 -19 38 -6l123 73q92 56 40 111q-48 50 -109 -24z" />
    <glyph glyph-name="acutecomb" unicode="&#x301;" horiz-adv-x="0" 
d="M-268 585q-20 -24 -2 -42q19 -19 38 -6l123 73q92 56 40 111q-48 50 -109 -24z" />
    <glyph glyph-name="uni0326" unicode="&#x326;" horiz-adv-x="0" 
d="M-159 -330l-25 28q55 48 55 83q0 15 -18 15q-34 0 -55.5 22.5t-21.5 55.5q0 37 24 61t62 24q43 0 65.5 -29t22.5 -77q0 -107 -109 -183z" />
    <glyph glyph-name="uni0394" unicode="&#x394;" horiz-adv-x="682" 
d="M20 0l301 634l341 -634h-642zM135 116h338l-176 316z" />
    <glyph glyph-name="uni03A9" unicode="&#x3a9;" horiz-adv-x="810" 
d="M678 136h92l-43 -113q-9 -23 -30 -23h-237v183q55 5 87 50t32 120q0 98 -44 148.5t-130 50.5q-173 0 -173 -199q0 -75 32 -120t88 -50v-183h-239q-21 0 -30 23l-43 113h92l17 -27q6 -10 13.5 -14t14 -4.5t19.5 0.5t22 0l42 -3h3q-90 29 -143.5 95.5t-53.5 159.5
q0 119 93.5 206.5t245.5 87.5t245.5 -87.5t93.5 -206.5q0 -88 -54.5 -157t-143.5 -98h4l52 3q6 1 16.5 0t16 -0.5t13 5t13.5 13.5z" />
    <glyph glyph-name="uni03BC" unicode="&#x3bc;" horiz-adv-x="631" 
d="M554 102q0 -46 52 -37v-45q-30 -25 -98 -25q-18 0 -33 4t-23.5 8t-16 13.5t-10 13.5t-6.5 14l-4 11q-5 20 -14 20q-7 0 -16 -12q-57 -73 -151 -73q-35 0 -59 9q7 -45 26.5 -73.5t33.5 -41t13 -21.5q-5 -36 -44.5 -56t-77.5 -8.5t-38 52.5v316v9v155q0 33 -16 43.5
t-47 7.5v45l163 27q50 7 50 -40v-208q0 -55 19.5 -85.5t56.5 -30.5q44 0 67 30t23 86v125q0 33 -16 43.5t-47 7.5v45l162 27q51 7 51 -40v-316z" />
    <glyph glyph-name="pi" unicode="&#x3c0;" horiz-adv-x="745" 
d="M658 138q54 -19 30 -97q-10 -37 -70.5 -47.5t-111.5 8.5q-41 14 -67 46.5t-26 81.5v215h-94v-229q0 -54 -42 -88t-85 -34q-60 0 -88 10l-13 75q40 -9 71.5 14t31.5 69v183h-35q-80 0 -60 -81l-36 52q-12 33 -12 58q0 35 26 56t75 21h486v-106h-73q-15 0 -21.5 -7
t-6.5 -24v-188q0 -48 24 -58q8 -3 12.5 2.5t10.5 19.5t11 21q23 40 63 27z" />
    <glyph glyph-name="uni0400" unicode="&#x400;" horiz-adv-x="620" 
d="M378 755l-91 112q-60 73 -108 24q-53 -55 39 -111l124 -73q19 -13 38 6q17 18 -2 42zM30 0v42q76 8 76 67v403q0 59 -76 67v42h508q13 0 14 -10q7 -68 21 -133h-25q-28 48 -55 68.5t-69 20.5h-85q-64 0 -64 -61v-105q0 -60 64 -60h40q59 0 78.5 15t25.5 57h22v-198h-22
q-6 41 -26 56t-78 15h-40q-64 0 -64 -60v-113q0 -59 53 -61l108 1q79 1 115 52l24 35h25q-20 -39 -30 -126q-2 -14 -16 -14h-524z" />
    <glyph glyph-name="uni0401" unicode="&#x401;" horiz-adv-x="620" 
d="M207 668q-36 0 -61.5 24.5t-25.5 59.5q0 37 25.5 62t61.5 25q35 0 60 -25t25 -62q0 -35 -25 -59.5t-60 -24.5zM445 668q-36 0 -61.5 24.5t-25.5 59.5q0 37 25.5 62t61.5 25t60.5 -25t24.5 -62q0 -35 -25 -59.5t-60 -24.5zM30 0v42q76 8 76 67v403q0 59 -76 67v42h508
q13 0 14 -10q7 -68 21 -133h-25q-28 48 -55 68.5t-69 20.5h-85q-64 0 -64 -61v-105q0 -60 64 -60h40q59 0 78.5 15t25.5 57h22v-198h-22q-6 41 -26 56t-78 15h-40q-64 0 -64 -60v-113q0 -59 53 -61l108 1q79 1 115 52l24 35h25q-20 -39 -30 -126q-2 -14 -16 -14h-524z" />
    <glyph glyph-name="uni0403" unicode="&#x403;" horiz-adv-x="601" 
d="M298 755q-20 -24 -2 -42q19 -19 38 -6l123 73q92 56 40 111q-48 50 -109 -24zM30 0v42q76 8 76 67v403q0 59 -76 67v42h515l31 -156h-42q-52 107 -116 107h-67q-40 0 -58 -12t-18 -48v-403q0 -60 86 -67v-42h-331z" />
    <glyph glyph-name="uni0404" unicode="&#x404;" horiz-adv-x="673" 
d="M455 82q91 0 154 70l29 -25q-27 -50 -94 -93.5t-171 -43.5q-142 0 -242.5 87.5t-100.5 232.5q0 100 50.5 176t131 113.5t175.5 37.5q122 0 189.5 -50t67.5 -119q0 -38 -22.5 -67t-68.5 -29q-44 0 -68.5 26t-24.5 63q0 135 -103 135q-58 0 -98.5 -60t-43.5 -163
q3 -33 41 -33h174v-65h-165q-37 0 -31 -31q28 -78 89.5 -120t131.5 -42z" />
    <glyph glyph-name="uni0405" unicode="&#x405;" horiz-adv-x="593" 
d="M295 -10q-65 0 -134 17t-101 39q-16 38 -21.5 76t5 65.5t37.5 27.5q11 0 15.5 -6t11.5 -23q26 -68 80.5 -102.5t117.5 -35.5q94 -1 94 76q0 41 -41.5 65t-121.5 47q-86 25 -144 78.5t-58 134.5q0 91 69.5 139.5t172.5 48.5q63 0 129.5 -15.5t98.5 -37.5q16 -38 21.5 -76
t-5 -65.5t-37.5 -27.5q-11 0 -15.5 6t-11.5 23q-24 65 -75.5 99.5t-110.5 34.5q-47 0 -70 -22t-23 -47q0 -45 34 -69t106 -44q38 -11 66 -21t63 -28.5t57.5 -40.5t38 -55.5t15.5 -74.5q0 -52 -24.5 -90.5t-65 -58t-83.5 -28.5t-90 -9z" />
    <glyph glyph-name="uni0406" unicode="&#x406;" horiz-adv-x="381" 
d="M30 0v42q76 8 76 67v403q0 59 -76 67v42h321v-42q-76 -8 -76 -67v-403q0 -59 76 -67v-42h-321z" />
    <glyph glyph-name="uni0407" unicode="&#x407;" horiz-adv-x="381" 
d="M73 668q-36 0 -61.5 24.5t-25.5 59.5q0 37 25.5 62t61.5 25q35 0 60 -25t25 -62q0 -35 -25 -59.5t-60 -24.5zM311 668q-36 0 -61.5 24.5t-25.5 59.5q0 37 25.5 62t61.5 25t60.5 -25t24.5 -62q0 -35 -25 -59.5t-60 -24.5zM30 0v42q76 8 76 67v403q0 59 -76 67v42h321v-42
q-76 -8 -76 -67v-403q0 -59 76 -67v-42h-321z" />
    <glyph glyph-name="uni0408" unicode="&#x408;" horiz-adv-x="496" 
d="M162 -10q-76 0 -129 30.5t-53 89.5q0 40 24 61.5t58 21.5q69 0 69 -82q0 -77 51 -77q39 0 39 68v410q0 60 -86 67v42h331v-42q-75 -8 -75 -67v-343q0 -51 -22.5 -88.5t-59 -56t-73 -26.5t-74.5 -8z" />
    <glyph glyph-name="uni040D" unicode="&#x40d;" horiz-adv-x="777" 
d="M299 780q-92 56 -39 111q48 49 108 -24l91 -112q19 -24 2 -42q-19 -19 -38 -6zM747 579q-76 -8 -76 -67v-403q0 -59 76 -67v-42h-321v42q76 8 76 67v287l-227 -274v-13q0 -59 76 -67v-42h-321v42q76 8 76 67v403q0 59 -76 67v42h321v-42q-76 -8 -76 -67v-316l227 275v41
q0 59 -76 67v42h321v-42z" />
    <glyph glyph-name="uni040E" unicode="&#x40e;" horiz-adv-x="679" 
d="M362 705q-63 0 -109 37t-46 108q0 11 10 11h39q6 0 10 -13q15 -53 96 -53q82 0 97 53q3 13 10 13h39q10 0 10 -11q0 -71 -46.5 -108t-109.5 -37zM441 621h223v-42q-10 -1 -18 -4t-16 -10t-12.5 -10.5t-12 -15t-9 -14.5t-9.5 -18t-9 -16l-170 -327q-49 -94 -99.5 -136.5
t-119.5 -42.5q-63 0 -104 30.5t-41 75.5q0 30 19.5 47t49.5 17t43 -16.5t14 -35.5t10.5 -35.5t31.5 -16.5q12 0 20 1.5t28.5 16.5t41.5 45l-185 352q-6 12 -16 31.5t-14.5 28t-12.5 20.5t-15.5 17.5t-18.5 10t-25 5.5v42h310v-42q-35 -7 -44 -34t15 -75l99 -190l109 211
q15 28 -7.5 54t-55.5 34v42z" />
    <glyph glyph-name="uni0410" unicode="&#x410;" horiz-adv-x="734" 
d="M617 173q6 -13 16 -35t14 -31t12.5 -23.5t15 -20.5t16.5 -13t23 -10v-40h-298v42q75 10 38 88q-16 33 -59 33h-144q-39 0 -54 -26q-17 -38 0.5 -63t68.5 -32v-42h-246v42q43 8 64.5 33t43.5 75l160 355q29 64 29 116l88 8zM388 218q8 0 12.5 5.5t1.5 15.5l-73 152
q-8 23 -18 1l-69 -153q-3 -10 1.5 -15.5t12.5 -5.5h132zM192 127l1 3l-1 -1v-2z" />
    <glyph glyph-name="uni0411" unicode="&#x411;" horiz-adv-x="678" 
d="M643 200q0 -92 -71.5 -145.5t-210.5 -54.5h-331v42q76 8 76 67v403q0 59 -76 67v42h515l31 -156h-42q-52 107 -116 107h-67q-40 0 -58 -12t-18 -48v-53q0 -28 12.5 -40.5t42.5 -12.5h22q143 0 217 -55.5t74 -150.5zM352 64q69 0 98 36t29 102q0 140 -127 140h-22
q-30 0 -42.5 -12.5t-12.5 -40.5v-174q0 -51 48 -51h29z" />
    <glyph glyph-name="uni0412" unicode="&#x412;" horiz-adv-x="703" 
d="M30 0v42q76 8 76 67v402q0 60 -76 68v42h309q295 0 295 -149q0 -109 -149 -132q183 -26 183 -162q0 -84 -67.5 -131t-175.5 -47q-21 0 -98.5 5.5t-155 5.5t-141.5 -11zM339 361h26q48 0 68.5 29.5t20.5 71.5q0 53 -27.5 81.5t-77.5 28.5h-10q-64 0 -64 -61v-90
q0 -60 64 -60zM320 54h35q133 0 133 125q0 134 -168 134q-20 0 -32.5 -15.5t-12.5 -44.5v-161q0 -38 45 -38z" />
    <glyph glyph-name="uni0413" unicode="&#x413;" horiz-adv-x="601" 
d="M30 0v42q76 8 76 67v403q0 59 -76 67v42h515l31 -156h-42q-52 107 -116 107h-67q-40 0 -58 -12t-18 -48v-403q0 -60 86 -67v-42h-331z" />
    <glyph glyph-name="uni0414" unicode="&#x414;" horiz-adv-x="751" 
d="M25 -115v158q0 10 10 11q83 12 114.5 129t31.5 332q0 31 -17.5 45t-61.5 19v42h617v-42q-41 -6 -60 -20t-19 -46v-397q0 -26 15.5 -44t45.5 -18q13 0 17.5 -6.5t0.5 -26.5l-20 -136h-42q0 75 -44.5 95t-183.5 20h-150q-129 0 -170.5 -23.5t-41.5 -91.5h-42zM130 54h282
q26 0 42 18.5t16 44.5v394q0 34 -14 45t-44 11h-132q-23 0 -37 -12.5t-14 -37.5q0 -389 -99 -463z" />
    <glyph glyph-name="uni0415" unicode="&#x415;" horiz-adv-x="620" 
d="M30 0v42q76 8 76 67v403q0 59 -76 67v42h508q13 0 14 -10q7 -68 21 -133h-25q-28 48 -55 68.5t-69 20.5h-85q-64 0 -64 -61v-105q0 -60 64 -60h40q59 0 78.5 15t25.5 57h22v-198h-22q-6 41 -26 56t-78 15h-40q-64 0 -64 -60v-113q0 -59 53 -61l108 1q79 1 115 52l24 35
h25q-20 -39 -30 -126q-2 -14 -16 -14h-524z" />
    <glyph glyph-name="uni0416" unicode="&#x416;" horiz-adv-x="1160" 
d="M992 147q37 -52 71 -75t77 -30v-42h-355v42q22 7 32.5 15t13 23.5t-13.5 36.5l-69 116q-20 31 -37 41t-38 10h-8v-175q0 -59 76 -67v-42h-321v42q75 8 75 67v175h-8q-20 0 -37 -10t-37 -41l-69 -116q-17 -21 -14 -36.5t13 -23.5t32 -15v-42h-355v42q43 7 77 30t71 75
l126 183q19 24 16.5 46t-28.5 52l-75 83q-11 12 -21 12.5t-19.5 -7.5t-19.5 -17.5t-26.5 -18t-34.5 -8.5q-33 0 -55 22t-22 53q0 36 30.5 58.5t73.5 22.5q66 0 137 -83l109 -126q36 -42 63 -56.5t64 -14.5h9v164q0 59 -75 67v42h321v-42q-76 -8 -76 -67v-164h10
q36 0 63 14.5t64 56.5l109 126q71 83 137 83q43 0 73.5 -22.5t30.5 -58.5q0 -31 -22 -53t-56 -22q-18 0 -34.5 8.5t-26.5 18t-19.5 17.5t-19.5 7.5t-21 -12.5l-75 -83q-26 -30 -28.5 -52t16.5 -46z" />
    <glyph glyph-name="uni0417" unicode="&#x417;" horiz-adv-x="615" 
d="M296 -12q-104 0 -182.5 46t-78.5 125q0 39 20.5 58.5t52.5 19.5q29 0 45.5 -12t20 -26.5t6 -35.5t5.5 -29q5 -15 12.5 -29t21 -31t35.5 -27.5t49 -10.5q58 0 87.5 45.5t29.5 108.5q0 58 -26.5 92t-72.5 34q-37 0 -64 -19l-15 42q84 29 120 63t36 80q0 99 -93 99
q-58 0 -110 -36t-76 -101q-7 -17 -11.5 -23t-14.5 -6q-28 0 -38.5 27.5t-5 65.5t21.5 76q31 22 100.5 37.5t134.5 15.5q99 0 167 -38t68 -103q0 -50 -38 -80.5t-84 -40.5q57 1 106.5 -41.5t49.5 -122.5q0 -100 -81 -161.5t-198 -61.5z" />
    <glyph glyph-name="uni0418" unicode="&#x418;" horiz-adv-x="777" 
d="M747 579q-76 -8 -76 -67v-403q0 -59 76 -67v-42h-321v42q76 8 76 67v287l-227 -274v-13q0 -59 76 -67v-42h-321v42q76 8 76 67v403q0 59 -76 67v42h321v-42q-76 -8 -76 -67v-316l227 275v41q0 59 -76 67v42h321v-42z" />
    <glyph glyph-name="uni0419" unicode="&#x419;" horiz-adv-x="777" 
d="M406 705q-63 0 -109 37t-46 108q0 11 10 11h39q6 0 10 -13q15 -53 96 -53q82 0 97 53q3 13 10 13h39q10 0 10 -11q0 -71 -46.5 -108t-109.5 -37zM747 579q-76 -8 -76 -67v-403q0 -59 76 -67v-42h-321v42q76 8 76 67v287l-227 -274v-13q0 -59 76 -67v-42h-321v42
q76 8 76 67v403q0 59 -76 67v42h321v-42q-76 -8 -76 -67v-316l227 275v41q0 59 -76 67v42h321v-42z" />
    <glyph glyph-name="uni041A" unicode="&#x41a;" horiz-adv-x="771" 
d="M602 147q38 -53 72 -75.5t77 -29.5v-42h-356v42q22 7 32.5 15t13 23.5t-13.5 36.5l-69 116q-20 31 -37 41t-38 10h-8v-175q0 -59 76 -67v-42h-321v42q76 8 76 67v403q0 59 -76 67v42h321v-42q-76 -8 -76 -67v-164h10q37 0 64 14.5t63 56.5l109 126q71 83 137 83
q43 0 73.5 -22.5t30.5 -58.5q0 -31 -22 -53t-55 -22q-23 0 -43 12.5t-29 23.5t-23.5 15.5t-25.5 -12.5l-75 -83q-26 -29 -29 -51.5t16 -46.5z" />
    <glyph glyph-name="uni041B" unicode="&#x41b;" horiz-adv-x="783" 
d="M138 -11q-59 0 -91 26t-32 67q0 29 17.5 45t44.5 16q23 0 34.5 -15t13.5 -33t9.5 -33t22.5 -15q22 0 27.5 39t5.5 177v249q0 31 -18 47t-66 20v42h647v-42q-76 -8 -76 -67v-403q0 -59 76 -67v-42h-321v42q76 8 76 67v403q0 55 -78 55h-90q-39 0 -56.5 -13t-17.5 -42v-227
q0 -18 0.5 -53.5t0.5 -51.5t-1.5 -45t-4.5 -42.5t-9 -34.5t-15.5 -30.5t-23 -20t-32.5 -14.5t-43 -4z" />
    <glyph glyph-name="uni041C" unicode="&#x41c;" horiz-adv-x="908" 
d="M878 579q-76 -8 -76 -67v-403q0 -59 76 -67v-42h-321v42q75 8 75 67v363l-198 -419h-47l-206 414v-358q0 -59 79 -67v-42h-230v42q76 8 76 67v403q0 59 -76 67v42h243l185 -371l174 371h246v-42z" />
    <glyph glyph-name="uni041D" unicode="&#x41d;" horiz-adv-x="772" 
d="M742 579q-76 -8 -76 -67v-403q0 -59 76 -67v-42h-321v42q75 8 75 67v132q0 32 -47 32h-126q-20 0 -34 -8t-14 -24v-132q0 -59 76 -67v-42h-321v42q76 8 76 67v403q0 59 -76 67v42h321v-42q-76 -8 -76 -67v-143q0 -32 49 -32h124q48 0 48 32v143q0 59 -75 67v42h321v-42z
" />
    <glyph glyph-name="uni041E" unicode="&#x41e;" horiz-adv-x="729" 
d="M356 -10q-83 0 -155.5 35t-121.5 109t-49 174q0 152 101 240.5t243 88.5q82 0 154.5 -34.5t121.5 -108.5t49 -172q0 -103 -49 -180t-126 -114.5t-168 -37.5zM392 48q50 0 85 52t35 160q0 135 -50.5 227t-124.5 92q-50 0 -84.5 -51.5t-34.5 -158.5q0 -137 50 -229t124 -92
z" />
    <glyph glyph-name="uni041F" unicode="&#x41f;" horiz-adv-x="772" 
d="M742 579q-76 -8 -76 -67v-403q0 -59 76 -67v-42h-321v42q75 8 75 67v403q0 18 -8 32q-12 13 -39 13h-126q-27 0 -40 -13q-8 -14 -8 -32v-403q0 -59 76 -67v-42h-321v42q76 8 76 67v403q0 59 -76 67v42h712v-42z" />
    <glyph glyph-name="uni0420" unicode="&#x420;" horiz-adv-x="668" 
d="M30 0v42q76 8 76 67v403q0 59 -76 67v42h322q144 0 217.5 -53t73.5 -147q0 -95 -74 -150.5t-217 -55.5h-22q-30 0 -42.5 -12.5t-12.5 -40.5v-53q0 -60 86 -67v-42h-331zM330 279h22q127 0 127 140q0 66 -29 102t-98 36h-29q-48 0 -48 -51v-174q0 -28 12.5 -40.5
t42.5 -12.5z" />
    <glyph glyph-name="uni0421" unicode="&#x421;" horiz-adv-x="673" 
d="M373 -10q-142 0 -242.5 87.5t-100.5 232.5q0 100 50.5 176t131 113.5t175.5 37.5q122 0 189.5 -50t67.5 -119q0 -38 -22.5 -67t-68.5 -29q-44 0 -68.5 26t-24.5 63q0 135 -103 135q-60 0 -101 -64.5t-41 -172.5q0 -130 72.5 -203.5t167.5 -73.5q91 0 154 70l29 -25
q-27 -50 -94 -93.5t-171 -43.5z" />
    <glyph glyph-name="uni0422" unicode="&#x422;" horiz-adv-x="680" 
d="M159 0v42q96 7 96 67v390q0 45 -12.5 56.5t-54.5 11.5q-50 0 -73.5 -24t-47.5 -89h-42l23 170l57 -3h470l57 3l23 -170h-43q-24 65 -47.5 89t-73.5 24q-42 0 -54 -11.5t-12 -56.5v-390q0 -60 95 -67v-42h-361z" />
    <glyph glyph-name="uni0423" unicode="&#x423;" horiz-adv-x="679" 
d="M441 621h223v-42q-10 -1 -18 -4t-16 -10t-12.5 -10.5t-12 -15t-9 -14.5t-9.5 -18t-9 -16l-170 -327q-49 -94 -99.5 -136.5t-119.5 -42.5q-63 0 -104 30.5t-41 75.5q0 30 19.5 47t49.5 17t43 -16.5t14 -35.5t10.5 -35.5t31.5 -16.5q12 0 20 1.5t28.5 16.5t41.5 45
l-185 352q-6 12 -16 31.5t-14.5 28t-12.5 20.5t-15.5 17.5t-18.5 10t-25 5.5v42h310v-42q-35 -7 -44 -34t15 -75l99 -190l109 211q15 28 -7.5 54t-55.5 34v42z" />
    <glyph glyph-name="uni0424" unicode="&#x424;" horiz-adv-x="828" 
d="M253 0v42q33 4 54.5 17.5t21.5 33.5q0 36 -55 36h-17q-107 0 -167 47.5t-60 134.5t60 134.5t167 47.5h17q55 0 55 35q0 20 -21.5 33.5t-54.5 17.5v42h321v-42q-33 -4 -54 -17.5t-21 -33.5q0 -35 55 -35h17q107 0 167 -47.5t60 -134.5t-60 -134.5t-167 -47.5h-17
q-55 0 -55 -36q0 -20 21 -33.5t54 -17.5v-42h-321zM257 193h17q30 0 42.5 12.5t12.5 40.5v130q0 28 -12.5 40.5t-42.5 12.5h-17q-42 0 -66.5 -35t-24.5 -83t24.5 -83t66.5 -35zM554 193h17q42 0 66.5 35t24.5 83t-24.5 83t-66.5 35h-17q-30 0 -42.5 -12.5t-12.5 -40.5v-130
q0 -28 12.5 -40.5t42.5 -12.5z" />
    <glyph glyph-name="uni0425" unicode="&#x425;" horiz-adv-x="723" 
d="M572 140q28 -37 63 -66t68 -32v-42h-335v42q38 3 48.5 28t-6.5 44l-88 123q-150 -167 -85 -192q7 -2 16 -3v-42h-233v42q94 8 265 227l8 10l-143 200q-27 37 -63.5 67t-69.5 33v42h335v-42q-38 -3 -48.5 -28t6.5 -44l86 -121q152 167 85 190q-6 2 -15 3v42h233v-42
q-96 -8 -267 -227l-6 -8z" />
    <glyph glyph-name="uni0426" unicode="&#x426;" horiz-adv-x="772" 
d="M727 54q13 0 17.5 -6.5t0.5 -26.5l-3 -20v-1l-17 -115h-42q0 75 -47 95t-200 20h-406v42q76 8 76 67v403q0 59 -76 67v42h321v-42q-76 -8 -76 -67v-396q0 -24 16.5 -43t43.5 -19h103q26 0 42 19t16 43v396q0 59 -75 67v42h321v-42q-76 -8 -76 -67v-396q0 -26 15.5 -44
t45.5 -18z" />
    <glyph glyph-name="uni0427" unicode="&#x427;" horiz-adv-x="777" 
d="M426 0v42q76 8 76 67v85q0 37 -17 37q-6 0 -12 -7q-21 -25 -70.5 -50t-106.5 -25q-79 0 -135.5 45t-56.5 145v173q0 60 -74 67v42h311v-42q-68 -8 -68 -67v-142q0 -56 33.5 -90t93.5 -34q49 0 75.5 32t26.5 88v146q0 59 -76 67v42h321v-42q-76 -8 -76 -67v-403
q0 -59 76 -67v-42h-321z" />
    <glyph glyph-name="uni0428" unicode="&#x428;" horiz-adv-x="1064" 
d="M1034 579q-75 -8 -75 -67v-403q0 -59 75 -67v-42h-1004v42q76 8 76 67v403q0 59 -76 67v42h321v-42q-76 -8 -76 -67v-396q0 -24 15 -43t34 -19h61q28 0 45 19t17 43v396q0 59 -75 67v42h321v-42q-76 -8 -76 -67v-396q0 -24 15 -43t34 -19h61q28 0 45 19t17 43v396
q0 59 -75 67v42h320v-42z" />
    <glyph glyph-name="uni0429" unicode="&#x429;" horiz-adv-x="1055" 
d="M1010 54q13 0 17.5 -6.5t0.5 -26.5l-3 -20v-1l-17 -115h-42q0 75 -47 95t-200 20h-699v42q76 8 76 67v403q0 59 -76 67v42h321v-42q-75 -8 -75 -67v-396q0 -24 15 -43t33 -19h62q28 0 45 19t17 43v396q0 59 -76 67v42h321v-42q-76 -8 -76 -67v-396q0 -24 15 -43t34 -19
h62q28 0 44 18.5t17 42.5v1v396q0 59 -75 67v42h321v-42q-76 -8 -76 -67v-396q0 -26 15.5 -44t45.5 -18z" />
    <glyph glyph-name="uni042A" unicode="&#x42a;" horiz-adv-x="784" 
d="M468 406q143 0 217 -55.5t74 -150.5q0 -94 -73.5 -147t-217.5 -53h-322v42q76 8 76 67v403q0 20 -15.5 40t-43.5 20q-54 0 -106 -107h-42l31 156h421v-42q-75 -8 -75 -67v-53q0 -28 12.5 -40.5t42.5 -12.5h21zM468 64q70 0 99 36t29 102q0 140 -128 140h-21
q-30 0 -42.5 -12.5t-12.5 -40.5v-174q0 -51 47 -51h29z" />
    <glyph glyph-name="uni042B" unicode="&#x42b;" horiz-adv-x="970" 
d="M352 406q143 0 217 -55.5t74 -150.5q0 -94 -73.5 -147t-217.5 -53h-322v42q76 8 76 67v403q0 59 -76 67v42h321v-42q-76 -8 -76 -67v-53q0 -28 12.5 -40.5t42.5 -12.5h22zM940 579q-75 -8 -75 -67v-403q0 -59 75 -67v-42h-321v42q76 8 76 67v403q0 59 -76 67v42h321v-42z
M352 64q69 0 98 36t29 102q0 140 -127 140h-22q-30 0 -42.5 -12.5t-12.5 -40.5v-174q0 -51 48 -51h29z" />
    <glyph glyph-name="uni042C" unicode="&#x42c;" horiz-adv-x="687" 
d="M352 406q143 0 217 -55.5t74 -150.5q0 -94 -73.5 -147t-217.5 -53h-322v42q76 8 76 67v403q0 59 -76 67v42h321v-42q-76 -8 -76 -67v-53q0 -28 12.5 -40.5t42.5 -12.5h22zM352 64q69 0 98 36t29 102q0 140 -127 140h-22q-30 0 -42.5 -12.5t-12.5 -40.5v-174q0 -51 48 -51
h29z" />
    <glyph glyph-name="uni042D" unicode="&#x42d;" horiz-adv-x="673" 
d="M286 637q95 0 175.5 -37.5t131 -113.5t50.5 -176q0 -145 -100.5 -232.5t-242.5 -87.5q-104 0 -171 43.5t-94 93.5l30 25q63 -70 153 -70q70 0 131.5 42t89.5 120q6 31 -31 31h-165v65h174q38 0 41 33q-3 103 -43.5 163t-98.5 60q-103 0 -103 -135q0 -37 -24 -63t-69 -26
q-46 0 -68.5 29t-22.5 67q0 69 67.5 119t189.5 50z" />
    <glyph glyph-name="uni042E" unicode="&#x42e;" horiz-adv-x="1047" 
d="M691 637q83 0 155.5 -34.5t121.5 -108.5t49 -172q0 -103 -49 -180t-126 -114.5t-169 -37.5q-121 0 -216 75.5t-107 207.5h-75v-164q0 -59 76 -67v-42h-321v42q76 8 76 67v403q0 59 -76 67v42h321v-42q-76 -8 -76 -67v-175h74q10 139 108.5 219.5t233.5 80.5zM710 48
q50 0 84.5 52t34.5 160q0 135 -50 227t-124 92q-50 0 -85 -51.5t-35 -158.5q0 -136 50.5 -228.5t124.5 -92.5z" />
    <glyph glyph-name="uni042F" unicode="&#x42f;" horiz-adv-x="724" 
d="M694 0h-331v42q86 7 86 67v100q0 28 -11.5 40.5t-37.5 12.5q-28 0 -43.5 -17t-39.5 -67q-29 -71 -53 -106t-64 -53.5t-105 -18.5h-75v42q18 0 34 13.5t23 26.5t18 39t13 30q26 68 54 94t77 38q5 1 5 7.5t-5 6.5q-80 7 -121 50t-41 104q0 82 69 126t182 44h366v-42
q-76 -8 -76 -67v-403q0 -59 76 -67v-42zM394 326q30 0 42.5 12.5t12.5 40.5v127q0 51 -48 51h-54q-48 0 -72 -31.5t-24 -74.5q0 -48 28 -86.5t91 -38.5h24z" />
    <glyph glyph-name="uni0430" unicode="&#x430;" horiz-adv-x="543" 
d="M164 -6q-58 0 -96 27.5t-38 82.5q0 62 57.5 97t188.5 58q29 5 37.5 13.5t8.5 33.5v6q0 56 -15 79.5t-48 23.5q-53 0 -53 -71q0 -33 -23.5 -50t-55.5 -17q-33 0 -51 19t-18 45q0 54 72.5 86.5t168.5 32.5q91 0 132 -40.5t41 -154.5v-163q0 -46 51 -37v-45q-30 -25 -98 -25
q-46 0 -70 20t-30 45q-2 11 -7 12.5t-13 -7.5q-58 -71 -141 -71zM231 77q42 0 66.5 29.5t24.5 76.5v7q0 17 -9 23.5t-31 4.5q-56 -3 -79 -31t-23 -57q0 -53 51 -53z" />
    <glyph glyph-name="uni0431" unicode="&#x431;" horiz-adv-x="560" 
d="M286 -6q-34 0 -65 6t-67 26t-62 52.5t-43.5 91.5t-18.5 137q-1 314 279 314h37q38 0 53 3.5t26 15.5h45q0 -66 -39.5 -103.5t-117.5 -37.5h-53q-33 0 -50 -0.5t-40.5 -2.5t-34.5 -6.5t-23 -12.5t-16.5 -20.5t-4.5 -30.5q0 -51 38 -51q13 0 33 13.5t39.5 29t52.5 29
t68 13.5q83 0 145.5 -62t62.5 -165q0 -111 -72 -175t-172 -64zM299 49q34 0 53 36.5t19 99.5q0 93 -34.5 146t-78.5 53q-37 0 -60.5 -39t-23.5 -104q0 -89 39 -140.5t86 -51.5z" />
    <glyph glyph-name="uni0432" unicode="&#x432;" horiz-adv-x="559" 
d="M30 0v45q32 4 43 14.5t11 34.5v266q0 23 -12 32t-42 14v45h280q106 0 152 -26t46 -82q0 -37 -23 -65t-69 -37q118 -20 118 -118q0 -57 -56 -90t-171 -33q-47 0 -91 2t-55 2q-82 0 -131 -4zM259 266h32q45 0 58.5 17t13.5 51t-14 52t-58 18h-32q-25 0 -25 -25v-88
q0 -25 25 -25zM266 49h43q79 0 79 85q0 46 -24.5 67t-89.5 21h-15q-25 0 -25 -25v-113q0 -35 32 -35z" />
    <glyph glyph-name="uni0433" unicode="&#x433;" horiz-adv-x="507" 
d="M30 0v45q28 3 41 12t13 30v273q0 23 -12 32t-42 14v45h416l26 -127h-45q-28 52 -47 66t-74 14h-47q-25 0 -25 -25v-292q0 -21 13 -30t39 -12v-45h-256z" />
    <glyph glyph-name="uni0434" unicode="&#x434;" horiz-adv-x="669" 
d="M20 -110v148q0 10 10 11q42 6 71.5 34.5t44 75.5t20 97.5t5.5 114.5q0 18 -15 23.5t-64 11.5v45h534v-45q-61 -9 -71 -17q-8 -6 -8 -17v-277q0 -47 72 -47q13 0 11 -12l-24 -146h-45v7q0 30 -0.5 42t-7.5 27t-16 19t-34.5 9t-54 5.5t-82.5 0.5h-117q-85 0 -123.5 -10
t-49.5 -31t-11 -69h-45zM127 48h212q58 0 58 47v274q0 19 -8.5 27t-27.5 8h-108q-18 0 -24.5 -7t-6.5 -26q0 -265 -95 -323z" />
    <glyph glyph-name="uni0435" unicode="&#x435;" horiz-adv-x="527" 
d="M347 73q62 0 105 50l30 -27q-18 -37 -71 -69.5t-132 -32.5q-103 0 -176 59.5t-73 170.5q0 115 77 175.5t183 60.5q85 0 143.5 -39.5t58.5 -107.5q0 -26 -9.5 -45t-22 -29t-37.5 -16t-43.5 -8t-52.5 -4l-104 -5q-21 -3 -16 -31q36 -102 140 -102zM276 412q-81 0 -85 -128
q3 -35 39 -35l26 -1q56 -1 78.5 18.5t22.5 56.5q0 33 -22.5 61t-58.5 28z" />
    <glyph glyph-name="uni0436" unicode="&#x436;" horiz-adv-x="916" 
d="M793 107q30 -35 51.5 -47t51.5 -15v-45h-265v45q16 2 23.5 5.5t7.5 13t-12 24.5l-78 99q-12 14 -29 14h-10v-114q0 -21 13 -30t39 -12v-45h-256v45q27 3 40.5 12t13.5 30v114h-10q-17 0 -29 -14l-78 -99q-12 -15 -12 -24.5t7.5 -13t23.5 -5.5v-45h-265v45q30 3 51.5 15
t51.5 47l123 153q16 20 0 36l-51 57q-7 9 -17 7t-16.5 -8t-21 -12.5t-30.5 -6.5q-28 0 -45 18t-17 46q0 27 17.5 43.5t48.5 16.5q23 0 44 -11.5t30 -20.5t34 -36l101 -115q25 -30 45 -30h15v120q0 21 -13.5 30t-40.5 12v45h256v-45q-26 -3 -39 -12t-13 -30v-120h15
q20 0 45 30l101 115q41 45 61 56q21 12 47 12q31 0 48.5 -16.5t17.5 -43.5q0 -28 -17 -46t-45 -18q-16 0 -30.5 6.5t-21.5 12.5t-16.5 8t-16.5 -7l-51 -57q-16 -16 0 -36z" />
    <glyph glyph-name="uni0437" unicode="&#x437;" horiz-adv-x="488" 
d="M219 -8q-91 0 -140 37.5t-49 84.5q0 63 64 63q16 0 26 -3.5t16 -12t9 -15t6.5 -20t6.5 -20.5q12 -33 28.5 -51t47.5 -18q37 0 59.5 27t22.5 74q0 39 -18.5 56t-45.5 17q-32 0 -56 -11l-18 49q63 25 90 50t27 55q0 61 -55 61q-36 0 -71 -26t-46 -73q-1 -8 -7 -15t-17 -7
q-65 0 -33 127q86 39 175 39q84 0 133 -28t49 -79q0 -59 -85 -96q46 6 85.5 -26t39.5 -82q0 -70 -72 -113.5t-172 -43.5z" />
    <glyph glyph-name="uni0438" unicode="&#x438;" horiz-adv-x="633" 
d="M603 406q-26 -3 -39 -12t-13 -30v-277q0 -21 13 -30t39 -12v-45h-256v45q27 3 40.5 12t13.5 30v194l-167 -166v-28q0 -21 13 -30t39 -12v-45h-256v45q28 3 41 12t13 30v277q0 21 -13 30t-41 12v45h256v-45q-26 -3 -39 -12t-13 -30v-195l167 171v24q0 21 -13.5 30
t-40.5 12v45h256v-45z" />
    <glyph glyph-name="uni0439" unicode="&#x439;" horiz-adv-x="633" 
d="M317 535q-63 0 -109 37t-46 108q0 11 10 11h39q6 0 10 -13q15 -53 96 -53q82 0 97 53q3 13 10 13h39q10 0 10 -11q0 -71 -46.5 -108t-109.5 -37zM603 406q-26 -3 -39 -12t-13 -30v-277q0 -21 13 -30t39 -12v-45h-256v45q27 3 40.5 12t13.5 30v194l-167 -166v-28
q0 -21 13 -30t39 -12v-45h-256v45q28 3 41 12t13 30v277q0 21 -13 30t-41 12v45h256v-45q-26 -3 -39 -12t-13 -30v-195l167 171v24q0 21 -13.5 30t-40.5 12v45h256v-45z" />
    <glyph glyph-name="uni043A" unicode="&#x43a;" horiz-adv-x="612" 
d="M494 107q30 -35 51.5 -47t51.5 -15v-45h-265v45q16 2 23.5 5.5t7.5 13t-12 24.5l-78 99q-12 14 -29 14h-10v-114q0 -21 13 -30t39 -12v-45h-256v45q28 3 41 12t13 30v277q0 21 -13 30t-41 12v45h256v-45q-26 -3 -39 -12t-13 -30v-120h15q20 0 45 30l101 115q41 45 61 56
q22 12 47 12q31 0 48.5 -16.5t17.5 -43.5q0 -28 -17 -46t-45 -18q-16 0 -30.5 6.5t-21.5 12.5t-16.5 8t-16.5 -7l-51 -57q-16 -16 0 -36z" />
    <glyph glyph-name="uni043B" unicode="&#x43b;" horiz-adv-x="653" 
d="M135 -11q-51 0 -83 24.5t-32 63.5q0 60 54 60q25 0 35.5 -15t10.5 -33t6.5 -33t23.5 -15q35 0 46.5 41.5t11.5 151.5v130q0 21 -21.5 29t-71.5 13v45h508v-45q-26 -3 -39 -12t-13 -30v-277q0 -21 13 -30t39 -12v-45h-256v45q27 3 40.5 12t13.5 30v277q0 40 -54 40h-53
q-54 0 -54 -40v-141q0 -105 -10 -143q-23 -91 -115 -91z" />
    <glyph glyph-name="uni043C" unicode="&#x43c;" horiz-adv-x="717" 
d="M687 406q-26 -3 -39 -12t-13 -30v-277q0 -21 13 -30t39 -12v-45h-256v45q28 3 41 12t13 30v235l-120 -278h-100l-129 275v-232q0 -21 13 -30t40 -12v-45h-159v45q28 3 41 12t13 30v277q0 21 -13 30t-41 12v45h194l135 -287l126 287h202v-45z" />
    <glyph glyph-name="uni043D" unicode="&#x43d;" horiz-adv-x="648" 
d="M618 406q-26 -3 -39 -12t-13 -30v-277q0 -21 13 -30t39 -12v-45h-256v45q28 3 41 12t13 30v111h-182v-111q0 -21 13 -30t39 -12v-45h-256v45q28 3 41 12t13 30v277q0 21 -13 30t-41 12v45h256v-45q-26 -3 -39 -12t-13 -30v-118h182v118q0 21 -13 30t-41 12v45h256v-45z
" />
    <glyph glyph-name="uni043E" unicode="&#x43e;" horiz-adv-x="551" 
d="M278 -6q-102 0 -175 61t-73 175q0 113 71.5 171.5t172.5 58.5q102 0 174.5 -61t72.5 -175q0 -113 -71 -171.5t-172 -58.5zM293 40q31 0 49.5 37.5t18.5 106.5q0 94 -29 162t-73 68q-32 0 -50 -37t-18 -107q0 -94 29 -162t73 -68z" />
    <glyph glyph-name="uni043F" unicode="&#x43f;" horiz-adv-x="653" 
d="M30 0v45q28 3 41 12t13 30v277q0 21 -13 30t-41 12v45h593v-45q-26 -3 -39 -12t-13 -30v-277q0 -21 13 -30t39 -12v-45h-256v45q27 3 40.5 12t13.5 30v277q0 40 -54 40h-81q-52 0 -52 -40v-277q0 -21 13 -30t39 -12v-45h-256z" />
    <glyph glyph-name="uni0440" unicode="&#x440;" horiz-adv-x="624" 
d="M390 460q85 0 144.5 -60t59.5 -167q0 -110 -66.5 -174.5t-152.5 -64.5q-23 0 -47 5.5t-39 11t-27.5 8.5t-18 -1.5t-5.5 -19.5v-77q0 -36 14 -50.5t48 -16.5v-44h-276v44q36 2 50 16.5t14 50.5v414q0 33 -16 43.5t-47 7.5v45l163 27q43 6 49 -28h1q0 -9 4 -13t9.5 -2.5
t11.5 6.5q43 39 127 39zM353 49q41 0 61.5 37t20.5 101q0 82 -28.5 137t-79.5 55q-37 0 -63 -32.5t-26 -109.5v-60q0 -67 36 -97.5t79 -30.5z" />
    <glyph glyph-name="uni0441" unicode="&#x441;" horiz-adv-x="518" 
d="M290 -6q-68 0 -125 23.5t-96 78t-39 130.5q0 58 23.5 104.5t62 74t83 41.5t91.5 14q81 0 137 -39.5t56 -90.5q0 -75 -67 -75q-36 0 -55.5 22t-19.5 46v7q0 14 -0.5 22t-3.5 21.5t-8.5 20.5t-18 12.5t-29.5 5.5q-88 0 -88 -139q0 -92 45.5 -146t121.5 -54q54 0 91 50
l32 -27q-18 -38 -67.5 -70t-125.5 -32z" />
    <glyph glyph-name="uni0442" unicode="&#x442;" horiz-adv-x="543" 
d="M138 0v45q31 3 45 12t14 30v249q0 41 -13 54.5t-44 13.5q-29 0 -45.5 -15t-29.5 -64h-45l16 126h471l16 -126h-46q-13 50 -29 64.5t-44 14.5q-31 0 -44 -13.5t-13 -54.5v-249q0 -21 14 -30t45 -12v-45h-268z" />
    <glyph glyph-name="uni0443" unicode="&#x443;" horiz-adv-x="574" 
d="M161 -198q-54 0 -89 23.5t-35 61.5q0 26 16 45.5t50 19.5q29 0 43.5 -16.5t16.5 -36t10 -36t25 -16.5q26 0 34 25q16 48 -9 114l-131 341q-13 34 -31.5 51.5t-50.5 28.5v44h264v-44q-37 -10 -42.5 -27.5t10.5 -52.5l75 -189q7 -21 16.5 -21t16.5 21l37 98q34 100 26 130
t-58 41v44h209v-44q-44 -10 -62 -26.5t-33 -53.5l-141 -373q-33 -86 -70.5 -119t-96.5 -33z" />
    <glyph glyph-name="uni0444" unicode="&#x444;" horiz-adv-x="920" 
d="M686 460q85 0 144.5 -60t59.5 -167q0 -110 -66.5 -174.5t-152.5 -64.5q-23 0 -47 5.5t-39 11t-27.5 8.5t-18 -1.5t-5.5 -19.5v-77q0 -36 14 -50.5t48 -16.5v-44h-276v44q36 2 50 16.5t14 50.5v147q-52 -74 -152 -74q-84 0 -143 59.5t-59 166.5q0 110 67 175t153 65
q29 0 56 -8t39.5 -15.5t22.5 -9.5t13 8.5t3 39.5v55q0 33 -16 43.5t-47 7.5v45l163 27q50 7 50 -40v-183q0 -9 4 -13t9.5 -2.5t11.5 6.5q43 39 127 39zM299 75q34 0 59.5 27t25.5 85v44q0 86 -35.5 130t-76.5 44t-62 -37t-21 -96q0 -78 31.5 -137.5t78.5 -59.5zM649 49
q41 0 61.5 37t20.5 101q0 82 -28.5 137t-79.5 55q-37 0 -63 -32.5t-26 -109.5v-60q0 -67 36 -97.5t79 -30.5z" />
    <glyph glyph-name="uni0445" unicode="&#x445;" horiz-adv-x="521" 
d="M506 407q-69 -20 -136 -90l-58 -63l90 -119q31 -43 51 -60t53 -31v-44h-246v44q34 7 34 23q0 13 -38 65q-1 2 -2 3l-23 30q-34 -37 -49.5 -56.5t-19 -33.5t4.5 -19.5t29 -11.5v-44h-181v44q71 20 136 90l57 62l-90 120q-31 43 -51 60t-53 31v44h247v-44q-13 -3 -21 -6
t-10.5 -9t-2.5 -11t6 -15.5t11 -18t17 -24.5q2 -2 3 -3.5t2 -3.5l24 -32q33 37 49 57t19.5 34t-4.5 20t-29 12v44h181v-44z" />
    <glyph glyph-name="uni0446" unicode="&#x446;" horiz-adv-x="693" 
d="M585 -110q0 63 -9 78q-14 25 -82 30q-34 2 -116 2h-348v45q28 3 41 12t13 30v277q0 21 -13 30t-41 12v45h256v-45q-26 -3 -39 -12t-13 -30v-277q0 -39 52 -39h92q22 0 32.5 18.5t10.5 38.5v259q0 21 -13.5 30t-40.5 12v45h256v-45q-26 -3 -39 -12t-13 -30v-258
q0 -23 18.5 -40.5t54.5 -17.5q12 0 10 -12l-24 -146h-45z" />
    <glyph glyph-name="uni0447" unicode="&#x447;" horiz-adv-x="625" 
d="M595 429q-32 -5 -43 -14.5t-11 -36.5v-305q0 -27 11 -36.5t43 -14.5v-22h-239v22q32 5 43 14.5t11 36.5v106q0 14 -3 14l-20 -24q-57 -71 -152 -71q-72 0 -116.5 48t-44.5 149v83q0 27 -11 36.5t-43 14.5v22h239v-22q-32 -5 -43 -14.5t-11 -36.5v-83q0 -57 24 -90t65 -33
q46 0 81 26t35 77v103q0 27 -11 36.5t-43 14.5v22h239v-22z" />
    <glyph glyph-name="uni0448" unicode="&#x448;" horiz-adv-x="915" 
d="M30 0v45q28 3 41 12t13 30v277q0 21 -13 30t-41 12v45h256v-45q-26 -3 -39 -12t-13 -30v-277q0 -39 52 -39h44q53 0 53 39v277q0 21 -13 30t-40 12v45h255v-45q-27 -3 -39.5 -12t-12.5 -30v-277q0 -39 52 -39h44q52 0 52 39v277q0 21 -13 30t-39 12v45h256v-45
q-27 -3 -40.5 -12t-13.5 -30v-277q0 -21 13.5 -30t40.5 -12v-45h-855z" />
    <glyph glyph-name="uni0449" unicode="&#x449;" horiz-adv-x="953" 
d="M904 48q12 0 10 -12l-24 -146h-45q0 63 -9 78q-14 25 -82 30q-34 2 -116 2h-608v45q28 3 41 12t13 30v277q0 21 -13 30t-41 12v45h256v-45q-26 -3 -39 -12t-13 -30v-277q0 -39 52 -39h44q53 0 53 39v277q0 21 -13 30t-40 12v45h255v-45q-27 -3 -39.5 -12t-12.5 -30v-277
q0 -39 52 -39h44q14 0 20 1q32 11 32 56v259q0 21 -13 30t-39 12v45h256v-45q-27 -3 -40.5 -12t-13.5 -30v-258q0 -23 18.5 -40.5t54.5 -17.5z" />
    <glyph glyph-name="uni044A" unicode="&#x44a;" horiz-adv-x="651" 
d="M368 346q258 0 258 -171q0 -82 -63 -128.5t-195 -46.5h-250v45q28 3 41 12t13 30v272q0 28 -20 39q-3 1 -19 6h-6q-25 0 -38.5 -12.5t-28.5 -48.5h-45l22 108h338v-45q-26 -3 -39 -12t-14 -29q0 -8 6 -13.5t14 -5.5h26zM369 48q59 0 81.5 34t22.5 93t-22 91.5t-81 32.5
h-28q-8 0 -14 -6t-6 -14v-192q0 -39 47 -39z" />
    <glyph glyph-name="uni044B" unicode="&#x44b;" horiz-adv-x="851" 
d="M280 346q258 0 258 -171q0 -82 -63.5 -128.5t-194.5 -46.5h-250v45q28 3 41 12t13 30v277q0 21 -13 30t-41 12v45h256v-45q-26 -3 -38.5 -12t-13.5 -29q0 -8 6 -13.5t14 -5.5h26zM821 406q-27 -3 -39.5 -12t-12.5 -30v-277q0 -21 12.5 -30t39.5 -12v-45h-256v45
q27 3 40.5 12t13.5 30v277q0 21 -13.5 30t-40.5 12v45h256v-45zM281 48q59 0 81 34t22 93t-21.5 91.5t-80.5 32.5h-28q-8 0 -14 -6t-6 -14v-192q0 -39 47 -39z" />
    <glyph glyph-name="uni044C" unicode="&#x44c;" horiz-adv-x="582" 
d="M280 346q258 0 258 -171q0 -82 -63.5 -128.5t-194.5 -46.5h-250v45q28 3 41 12t13 30v277q0 21 -13 30t-41 12v45h256v-45q-26 -3 -38.5 -12t-13.5 -29q0 -8 6 -13.5t14 -5.5h26zM281 48q59 0 81 34t22 93t-21.5 91.5t-80.5 32.5h-28q-8 0 -14 -6t-6 -14v-192
q0 -39 47 -39z" />
    <glyph glyph-name="uni044D" unicode="&#x44d;" horiz-adv-x="518" 
d="M228 460q47 0 91.5 -14t83 -41.5t62 -74t23.5 -104.5q0 -76 -39 -130.5t-96 -78t-125 -23.5q-76 0 -125.5 32t-67.5 70l32 27q37 -50 91 -50q59 0 100.5 33.5t57.5 93.5h-111v44h119q1 9 1 29q0 139 -88 139q-17 0 -29.5 -5.5t-18 -12.5t-9 -20.5t-3.5 -21v-22.5v-7
q0 -24 -19.5 -46t-55.5 -22q-67 0 -67 75q0 51 56 90.5t137 39.5z" />
    <glyph glyph-name="uni044E" unicode="&#x44e;" horiz-adv-x="825" 
d="M547 460q102 0 175 -61t73 -175q0 -113 -71.5 -171.5t-172.5 -58.5q-93 0 -163 51t-82 148h-72v-106q0 -21 13 -30t39 -12v-45h-256v45q28 3 41 12t13 30v277q0 21 -13 30t-41 12v45h256v-45q-26 -3 -39 -12t-13 -30v-101h72q11 97 80 147t161 50zM567 40q30 0 48.5 37.5
t18.5 106.5q0 94 -29 162t-73 68q-32 0 -49.5 -37t-17.5 -107q0 -94 28.5 -162t73.5 -68z" />
    <glyph glyph-name="uni044F" unicode="&#x44f;" horiz-adv-x="539" 
d="M509 406q-26 -3 -39 -12t-13 -30v-277q0 -21 13 -30t39 -12v-45h-256v45q27 3 40.5 12t13.5 30v102h-25q-26 0 -39.5 -14.5t-25.5 -59.5q-15 -57 -48.5 -86t-100.5 -29h-53v45l15 3t10.5 4.5t7 5t5 9.5t5 12.5t5.5 19t7 24.5q10 31 33 54.5t56 28.5q-64 15 -92 40.5
t-28 71.5q0 64 56.5 98.5t139.5 34.5h274v-45zM229 237h78v127q0 38 -48 40q-83 -4 -83 -83q0 -32 12.5 -58t40.5 -26z" />
    <glyph glyph-name="uni0450" unicode="&#x450;" horiz-adv-x="527" 
d="M153 610q-92 56 -39 111q48 49 108 -24l91 -112q19 -24 2 -42q-19 -19 -38 -6zM347 73q62 0 105 50l30 -27q-18 -37 -71 -69.5t-132 -32.5q-103 0 -176 59.5t-73 170.5q0 115 77 175.5t183 60.5q85 0 143.5 -39.5t58.5 -107.5q0 -26 -9.5 -45t-22 -29t-37.5 -16t-43.5 -8
t-52.5 -4l-104 -5q-21 -3 -16 -31q36 -102 140 -102zM276 412q-81 0 -85 -128q3 -35 39 -35l26 -1q56 -1 78.5 18.5t22.5 56.5q0 33 -22.5 61t-58.5 28z" />
    <glyph glyph-name="uni0451" unicode="&#x451;" horiz-adv-x="527" 
d="M142 498q-36 0 -61.5 24.5t-25.5 59.5q0 37 25.5 62t61.5 25q35 0 60 -25t25 -62q0 -35 -25 -59.5t-60 -24.5zM380 498q-36 0 -61.5 24.5t-25.5 59.5q0 37 25.5 62t61.5 25t60.5 -25t24.5 -62q0 -35 -25 -59.5t-60 -24.5zM347 73q62 0 105 50l30 -27q-18 -37 -71 -69.5
t-132 -32.5q-103 0 -176 59.5t-73 170.5q0 115 77 175.5t183 60.5q85 0 143.5 -39.5t58.5 -107.5q0 -26 -9.5 -45t-22 -29t-37.5 -16t-43.5 -8t-52.5 -4l-104 -5q-21 -3 -16 -31q36 -102 140 -102zM276 412q-81 0 -85 -128q3 -35 39 -35l26 -1q56 -1 78.5 18.5t22.5 56.5
q0 33 -22.5 61t-58.5 28z" />
    <glyph glyph-name="uni0453" unicode="&#x453;" horiz-adv-x="507" 
d="M195 585q-20 -24 -2 -42q19 -19 38 -6l123 73q92 56 40 111q-48 50 -109 -24zM30 0v45q28 3 41 12t13 30v273q0 23 -12 32t-42 14v45h416l26 -127h-45q-28 52 -47 66t-74 14h-47q-25 0 -25 -25v-292q0 -21 13 -30t39 -12v-45h-256z" />
    <glyph glyph-name="uni0454" unicode="&#x454;" horiz-adv-x="518" 
d="M360 73q54 0 91 50l32 -27q-18 -38 -67.5 -70t-125.5 -32q-68 0 -125 23.5t-96 78t-39 130.5q0 58 23.5 104.5t62 74t83 41.5t91.5 14q81 0 137 -39.5t56 -90.5q0 -75 -67 -75q-36 0 -55.5 22t-19.5 46v7q0 14 -0.5 22t-3.5 21.5t-8.5 20.5t-18 12.5t-29.5 5.5
q-88 0 -88 -139q0 -20 1 -29h119v-44h-111q16 -60 57.5 -93.5t100.5 -33.5z" />
    <glyph glyph-name="uni0455" unicode="&#x455;" horiz-adv-x="461" 
d="M228 -6q-86 0 -144.5 32t-58.5 88q0 27 15 43t42 16q31 0 46.5 -15.5t15.5 -37.5q0 -37 28.5 -57.5t64.5 -20.5t50 19t14 41q0 25 -19 38t-72 28q-174 51 -174 156q0 63 57 99.5t138 36.5q44 0 84 -10t69.5 -34.5t29.5 -59.5q0 -52 -56 -52q-26 0 -39.5 11.5t-13.5 25.5
q0 71 -79 71q-23 0 -40 -14t-17 -33q0 -42 77 -63q2 -1 22 -6.5t25.5 -7.5t24.5 -8.5t26.5 -10t23 -12t22.5 -15.5l18 -18t15.5 -22t8.5 -25.5t4 -30.5q0 -76 -60 -114t-148 -38z" />
    <glyph glyph-name="uni0456" unicode="&#x456;" 
d="M151 498q-36 0 -61.5 24.5t-25.5 59.5q0 37 25.5 62t61.5 25t60.5 -25t24.5 -62q0 -35 -25 -59.5t-60 -24.5zM24 0v44q36 2 50 16.5t14 50.5v224q0 33 -16 43.5t-47 7.5v45l163 27q50 7 50 -40v-307q0 -36 14 -50.5t48 -16.5v-44h-276z" />
    <glyph glyph-name="uni0457" unicode="&#x457;" 
d="M36 498q-36 0 -61.5 24.5t-25.5 59.5q0 37 25.5 62t61.5 25q35 0 60 -25t25 -62q0 -35 -25 -59.5t-60 -24.5zM274 498q-36 0 -61.5 24.5t-25.5 59.5q0 37 25.5 62t61.5 25t60.5 -25t24.5 -62q0 -35 -25 -59.5t-60 -24.5zM24 0v44q36 2 50 16.5t14 50.5v224q0 33 -16 43.5
t-47 7.5v45l163 27q50 7 50 -40v-307q0 -36 14 -50.5t48 -16.5v-44h-276z" />
    <glyph glyph-name="uni0458" unicode="&#x458;" horiz-adv-x="318" 
d="M167 498q-37 0 -62 24.5t-25 59.5q0 37 25 62t62 25q35 0 60 -25t25 -62q0 -35 -25 -59.5t-60 -24.5zM60 -202q-55 0 -97 21.5t-42 68.5q0 30 17 48t44 18q35 0 54 -16t21.5 -34.5t6.5 -34.5t14 -16q11 0 18 16t7 36v430q0 33 -16 43.5t-47 7.5v45l163 27q50 7 50 -40
v-454q0 -80 -55.5 -123t-137.5 -43z" />
    <glyph glyph-name="uni045E" unicode="&#x45e;" horiz-adv-x="574" 
d="M285 535q-63 0 -109 37t-46 108q0 11 10 11h39q6 0 10 -13q15 -53 96 -53q82 0 97 53q3 13 10 13h39q10 0 10 -11q0 -71 -46.5 -108t-109.5 -37zM161 -198q-54 0 -89 23.5t-35 61.5q0 26 16 45.5t50 19.5q29 0 43.5 -16.5t16.5 -36t10 -36t25 -16.5q26 0 34 25
q16 48 -9 114l-131 341q-13 34 -31.5 51.5t-50.5 28.5v44h264v-44q-37 -10 -42.5 -27.5t10.5 -52.5l75 -189q7 -21 16.5 -21t16.5 21l37 98q34 100 26 130t-58 41v44h209v-44q-44 -10 -62 -26.5t-33 -53.5l-141 -373q-33 -86 -70.5 -119t-96.5 -33z" />
    <glyph glyph-name="uni0490" unicode="&#x490;" horiz-adv-x="591" 
d="M30 0v42q76 8 76 67v403q0 59 -76 67v42h368q86 0 126 66h42l-21 -115h-194q-40 0 -58 -12t-18 -48v-403q0 -60 86 -67v-42h-331z" />
    <glyph glyph-name="uni0491" unicode="&#x491;" horiz-adv-x="487" 
d="M30 0v45q28 3 41 12t13 30v273q0 23 -12 32t-42 14v45h276q54 0 74 11.5t42 49.5h45l-21 -108h-187q-25 0 -25 -25v-292q0 -21 13 -30t39 -12v-45h-256z" />
    <glyph glyph-name="uni04E8" unicode="&#x4e8;" horiz-adv-x="729" 
d="M374 637q82 0 154.5 -34.5t121.5 -108.5t49 -172q0 -103 -49 -180t-126 -114.5t-168 -37.5q-83 0 -155.5 35t-121.5 109t-49 174q0 152 101 240.5t243 88.5zM337 579q-50 0 -84.5 -51.5t-34.5 -158.5v-22h288q-15 103 -61.5 167.5t-107.5 64.5zM392 48q50 0 85 52t35 160
v22h-288q15 -104 61 -169t107 -65z" />
    <glyph glyph-name="uni04E9" unicode="&#x4e9;" horiz-adv-x="551" 
d="M274 460q102 0 174.5 -61t72.5 -175q0 -113 -71 -171.5t-172 -58.5q-102 0 -175 61t-73 175q0 113 71.5 171.5t172.5 58.5zM259 414q-32 0 -50 -37t-18 -107v-14h165q-10 70 -36 114t-61 44zM293 40q31 0 49.5 37.5t18.5 106.5v14h-165q10 -70 36 -114t61 -44z" />
    <glyph glyph-name="Wgrave" unicode="&#x1e80;" horiz-adv-x="1059" 
d="M584 755l-91 112q-60 73 -108 24q-53 -55 39 -111l124 -73q19 -13 38 6q17 18 -2 42zM305 0l-191 448q-4 9 -11.5 28t-10 25t-9 20t-10 19t-10 13.5t-12 12.5t-14 8t-17.5 7v40h294v-42q-75 -10 -42 -88l106 -253q10 -24 20 0l39 103q4 11 16.5 37t16 38t4 34t-9.5 45
q-17 40 -32 59t-43 27v40h294v-42q-75 -10 -42 -88l107 -253q10 -24 20 0l94 246q32 80 -70 95v42h247v-42q-43 -8 -66 -33.5t-43 -74.5l-139 -355q-30 -79 -30 -116h-86l-156 364l-97 -248q-31 -78 -31 -116h-86z" />
    <glyph glyph-name="wgrave" unicode="&#x1e81;" horiz-adv-x="852" 
d="M486 585l-90 112q-60 73 -109 24q-52 -55 40 -111l124 -73q19 -13 37 6q18 18 -2 42zM201 0l-109 327q-10 33 -29.5 51t-52.5 29v44h262v-44q-36 -10 -40.5 -27.5t8.5 -52.5l59 -193q5 -18 16.5 -18t17.5 18l33 115q18 64 9 101q-11 40 -57 57v44h262v-44
q-36 -10 -40.5 -27.5t8.5 -52.5l59 -193q5 -18 16.5 -18t17.5 18l29 102q28 102 20.5 131t-56.5 40v44h208v-44q-45 -10 -65 -27.5t-31 -52.5l-109 -327h-128l-89 270l-91 -270h-128z" />
    <glyph glyph-name="Wacute" unicode="&#x1e82;" horiz-adv-x="1059" 
d="M494 755q-20 -24 -2 -42q19 -19 38 -6l123 73q92 56 40 111q-48 50 -109 -24zM305 0l-191 448q-4 9 -11.5 28t-10 25t-9 20t-10 19t-10 13.5t-12 12.5t-14 8t-17.5 7v40h294v-42q-75 -10 -42 -88l106 -253q10 -24 20 0l39 103q4 11 16.5 37t16 38t4 34t-9.5 45
q-17 40 -32 59t-43 27v40h294v-42q-75 -10 -42 -88l107 -253q10 -24 20 0l94 246q32 80 -70 95v42h247v-42q-43 -8 -66 -33.5t-43 -74.5l-139 -355q-30 -79 -30 -116h-86l-156 364l-97 -248q-31 -78 -31 -116h-86z" />
    <glyph glyph-name="wacute" unicode="&#x1e83;" horiz-adv-x="852" 
d="M386 585q-19 -24 -2 -42q19 -19 38 -6l124 73q92 56 39 111q-48 49 -108 -24zM201 0l-109 327q-10 33 -29.5 51t-52.5 29v44h262v-44q-36 -10 -40.5 -27.5t8.5 -52.5l59 -193q5 -18 16.5 -18t17.5 18l33 115q18 64 9 101q-11 40 -57 57v44h262v-44q-36 -10 -40.5 -27.5
t8.5 -52.5l59 -193q5 -18 16.5 -18t17.5 18l29 102q28 102 20.5 131t-56.5 40v44h208v-44q-45 -10 -65 -27.5t-31 -52.5l-109 -327h-128l-89 270l-91 -270h-128z" />
    <glyph glyph-name="Wdieresis" unicode="&#x1e84;" horiz-adv-x="1059" 
d="M413 668q-36 0 -61.5 24.5t-25.5 59.5q0 37 25.5 62t61.5 25q35 0 60 -25t25 -62q0 -35 -25 -59.5t-60 -24.5zM651 668q-36 0 -61.5 24.5t-25.5 59.5q0 37 25.5 62t61.5 25t60.5 -25t24.5 -62q0 -35 -25 -59.5t-60 -24.5zM305 0l-191 448q-4 9 -11.5 28t-10 25t-9 20
t-10 19t-10 13.5t-12 12.5t-14 8t-17.5 7v40h294v-42q-75 -10 -42 -88l106 -253q10 -24 20 0l39 103q4 11 16.5 37t16 38t4 34t-9.5 45q-17 40 -32 59t-43 27v40h294v-42q-75 -10 -42 -88l107 -253q10 -24 20 0l94 246q32 80 -70 95v42h247v-42q-43 -8 -66 -33.5t-43 -74.5
l-139 -355q-30 -79 -30 -116h-86l-156 364l-97 -248q-31 -78 -31 -116h-86z" />
    <glyph glyph-name="wdieresis" unicode="&#x1e85;" horiz-adv-x="852" 
d="M260 498q-37 0 -62 24.5t-25 59.5q0 37 25 62t62 25q35 0 60 -25t25 -62q0 -35 -25 -59.5t-60 -24.5zM498 498q-36 0 -61.5 24.5t-25.5 59.5q0 37 25.5 62t61.5 25t60.5 -25t24.5 -62q0 -35 -25 -59.5t-60 -24.5zM201 0l-109 327q-10 33 -29.5 51t-52.5 29v44h262v-44
q-36 -10 -40.5 -27.5t8.5 -52.5l59 -193q5 -18 16.5 -18t17.5 18l33 115q18 64 9 101q-11 40 -57 57v44h262v-44q-36 -10 -40.5 -27.5t8.5 -52.5l59 -193q5 -18 16.5 -18t17.5 18l29 102q28 102 20.5 131t-56.5 40v44h208v-44q-45 -10 -65 -27.5t-31 -52.5l-109 -327h-128
l-89 270l-91 -270h-128z" />
    <glyph glyph-name="uni1EBC" unicode="&#x1ebc;" horiz-adv-x="620" 
d="M412 696q-46 0 -113 35.5t-92 35.5q-21 0 -35.5 -12t-14.5 -34h-40q0 61 32 94.5t90 33.5q47 0 114 -36t91 -36q51 0 51 46h39q0 -61 -31 -94t-91 -33zM30 0v42q76 8 76 67v403q0 59 -76 67v42h508q13 0 14 -10q7 -68 21 -133h-25q-28 48 -55 68.5t-69 20.5h-85
q-64 0 -64 -61v-105q0 -60 64 -60h40q59 0 78.5 15t25.5 57h22v-198h-22q-6 41 -26 56t-78 15h-40q-64 0 -64 -60v-113q0 -59 53 -61l108 1q79 1 115 52l24 35h25q-20 -39 -30 -126q-2 -14 -16 -14h-524z" />
    <glyph glyph-name="uni1EBD" unicode="&#x1ebd;" horiz-adv-x="527" 
d="M142 597q-21 0 -35.5 -12t-14.5 -34h-40q0 61 32 94.5t90 33.5q47 0 114 -36t91 -36q51 0 51 46h39q0 -61 -31 -94t-91 -33q-46 0 -113 35.5t-92 35.5zM347 73q62 0 105 50l30 -27q-18 -37 -71 -69.5t-132 -32.5q-103 0 -176 59.5t-73 170.5q0 115 77 175.5t183 60.5
q85 0 143.5 -39.5t58.5 -107.5q0 -26 -9.5 -45t-22 -29t-37.5 -16t-43.5 -8t-52.5 -4l-104 -5q-21 -3 -16 -31q36 -102 140 -102zM276 412q-81 0 -85 -128q3 -35 39 -35l26 -1q56 -1 78.5 18.5t22.5 56.5q0 33 -22.5 61t-58.5 28z" />
    <glyph glyph-name="Ygrave" unicode="&#x1ef2;" horiz-adv-x="697" 
d="M402 755l-91 112q-60 73 -108 24q-53 -55 39 -111l124 -73q19 -13 38 6q17 18 -2 42zM171 0v42q95 7 95 67v107q0 56 -21 85l-113 170q-28 42 -40 58.5t-33 32.5t-44 17v42h313v-42q-35 -3 -44.5 -21.5t15.5 -63.5l95 -147q7 -14 14 0l104 152q20 25 9 50.5t-56 29.5v42
h217v-42q-17 -2 -31.5 -9.5t-30 -26t-20.5 -24.5t-21 -29l-122 -183q-21 -31 -21 -91v-107q0 -60 96 -67v-42h-361z" />
    <glyph glyph-name="ygrave" unicode="&#x1ef3;" horiz-adv-x="574" 
d="M338 585l-91 112q-60 73 -108 24q-53 -55 39 -111l124 -73q19 -13 38 6q17 18 -2 42zM161 -198q-54 0 -89 23.5t-35 61.5q0 26 16 45.5t50 19.5q29 0 43.5 -16.5t16.5 -36t10 -36t25 -16.5q26 0 34 25q16 48 -9 114l-131 341q-13 34 -31.5 51.5t-50.5 28.5v44h264v-44
q-37 -10 -42.5 -27.5t10.5 -52.5l75 -189q7 -21 16.5 -21t16.5 21l37 98q34 100 26 130t-58 41v44h209v-44q-44 -10 -62 -26.5t-33 -53.5l-141 -373q-33 -86 -70.5 -119t-96.5 -33z" />
    <glyph glyph-name="endash" unicode="&#x2013;" horiz-adv-x="682" 
d="M50 296h582v-91h-582v91z" />
    <glyph glyph-name="emdash" unicode="&#x2014;" horiz-adv-x="919" 
d="M50 296h819v-91h-819v91z" />
    <glyph glyph-name="uni2015" unicode="&#x2015;" horiz-adv-x="919" 
d="M50 296h819v-91h-819v91z" />
    <glyph glyph-name="quoteleft" unicode="&#x2018;" horiz-adv-x="234" 
d="M139 636l26 -28q-56 -47 -56 -83q0 -15 18 -15q34 0 55.5 -22.5t21.5 -55.5q0 -37 -23.5 -60.5t-62.5 -23.5q-42 0 -65 28.5t-23 77.5q0 106 109 182z" />
    <glyph glyph-name="quoteright" unicode="&#x2019;" horiz-adv-x="234" 
d="M95 349l-25 27q55 49 55 84q0 15 -18 15q-34 0 -55.5 22.5t-21.5 55.5q0 36 24 60t62 24q43 0 65.5 -29t22.5 -77q0 -108 -109 -182z" />
    <glyph glyph-name="quotesinglbase" unicode="&#x201a;" horiz-adv-x="234" 
d="M95 -137l-25 28q55 48 55 83q0 15 -18 15q-34 0 -55.5 22.5t-21.5 56.5q0 36 24 60t62 24q43 0 65.5 -29t22.5 -77q0 -107 -109 -183z" />
    <glyph glyph-name="quotedblleft" unicode="&#x201c;" horiz-adv-x="449" 
d="M139 637l26 -28q-56 -47 -56 -83q0 -15 18 -15q34 0 55.5 -22.5t21.5 -55.5q0 -37 -23.5 -60.5t-62.5 -23.5q-42 0 -65 28.5t-23 77.5q0 106 109 182zM353 637l26 -28q-56 -47 -56 -83q0 -15 18 -15q35 0 56.5 -22.5t21.5 -55.5q0 -37 -24 -60.5t-63 -23.5
q-42 0 -65 28.5t-23 77.5q0 106 109 182z" />
    <glyph glyph-name="quotedblright" unicode="&#x201d;" horiz-adv-x="449" 
d="M95 349l-25 27q55 49 55 84q0 15 -18 15q-34 0 -55.5 22.5t-21.5 55.5q0 36 24 60t62 24q43 0 65.5 -29t22.5 -77q0 -108 -109 -182zM310 349l-26 27q55 49 55 84q0 15 -18 15q-34 0 -55.5 22.5t-21.5 55.5q0 36 24 60t62 24q43 0 66 -29t23 -77q0 -106 -109 -182z" />
    <glyph glyph-name="quotedblbase" unicode="&#x201e;" horiz-adv-x="452" 
d="M95 -137l-25 28q55 48 55 83q0 15 -18 15q-34 0 -55.5 22.5t-21.5 56.5q0 36 24 60t62 24q43 0 65.5 -29t22.5 -77q0 -107 -109 -183zM313 -137l-25 28q55 48 55 83q0 15 -18 15q-34 0 -55.5 22.5t-21.5 56.5q0 36 24 60t62 24q43 0 65.5 -29t22.5 -77q0 -107 -109 -183z
" />
    <glyph glyph-name="dagger" unicode="&#x2020;" horiz-adv-x="511" 
d="M386 520q33 0 54 -19.5t21 -49.5t-21 -49.5t-54 -19.5q-19 0 -50 17t-43 20l2 -26l50 -48l-67 -224h-45l-67 224l50 48l2 26q-12 -3 -43 -20t-51 -17q-33 0 -53.5 19.5t-20.5 49.5t20.5 49.5t53.5 19.5q20 0 52 -18t44 -21q-3 20 -21 52t-18 47q0 30 20.5 49.5t53.5 19.5
t54 -19.5t21 -49.5q0 -15 -18 -47t-21 -52q12 3 44 21t51 18z" />
    <glyph glyph-name="daggerdbl" unicode="&#x2021;" horiz-adv-x="511" 
d="M386 220q33 0 54 -19.5t21 -49.5t-21 -49.5t-54 -19.5q-19 0 -51 18.5t-46 22.5q4 -20 22.5 -52.5t18.5 -48.5q0 -30 -21 -49.5t-54 -19.5t-53.5 19.5t-20.5 49.5q0 16 18.5 48.5t22.5 52.5q-14 -4 -46.5 -22.5t-51.5 -18.5q-33 0 -53.5 19.5t-20.5 49.5t20.5 49.5
t53.5 19.5q19 0 51.5 -18.5t46.5 -22.5v23l-57 100l57 98v23q-14 -4 -46.5 -22.5t-51.5 -18.5q-33 0 -53.5 19.5t-20.5 49.5t20.5 49.5t53.5 19.5q19 0 51.5 -18.5t46.5 -22.5q-4 20 -22.5 52.5t-18.5 48.5q0 30 20.5 49.5t53.5 19.5t54 -19.5t21 -49.5q0 -16 -18.5 -48.5
t-22.5 -52.5q14 4 46 22.5t51 18.5q33 0 54 -19.5t21 -49.5t-21 -49.5t-54 -19.5q-19 0 -51 18.5t-46 22.5v-23l57 -99l-57 -99v-23q14 4 46 22.5t51 18.5z" />
    <glyph glyph-name="bullet" unicode="&#x2022;" horiz-adv-x="442" 
d="M221 130q-67 0 -114 47t-47 114t47 114t114 47t114 -47t47 -114t-47 -114t-114 -47z" />
    <glyph glyph-name="ellipsis" unicode="&#x2026;" horiz-adv-x="664" 
d="M118 -6q-32 0 -55 23.5t-23 55.5t23 55.5t55 23.5t55.5 -23.5t23.5 -55.5t-23.5 -55.5t-55.5 -23.5zM332 -6q-32 0 -55 23.5t-23 55.5t23 55.5t55 23.5t55 -23.5t23 -55.5t-23 -55.5t-55 -23.5zM546 -6q-32 0 -55 23.5t-23 55.5t23 55.5t55 23.5t55 -23.5t23 -55.5
t-23 -55.5t-55 -23.5z" />
    <glyph glyph-name="perthousand" unicode="&#x2030;" horiz-adv-x="1056" 
d="M545 621h67l-421 -621h-121l432 565q-25 -20 -54.5 -24.5t-49.5 0t-56 16.5q8 -20 8 -49q0 -76 -49.5 -125t-124.5 -49q-64 0 -95 33t-31 86q0 75 49.5 125t125.5 50q45 0 92 -11.5t75 -20.5t68.5 -5t84.5 30zM191 378q29 0 44 35.5t15 87.5q0 83 -41 83q-29 0 -44 -35.5
t-15 -87.5q0 -83 41 -83zM547 283q64 0 94.5 -33t30.5 -86q0 -76 -49.5 -125.5t-124.5 -49.5q-65 0 -95.5 33t-30.5 87q0 75 50 124.5t125 49.5zM882 283q63 0 93.5 -33t30.5 -86q0 -76 -49 -125.5t-124 -49.5q-65 0 -95.5 33t-30.5 87q0 75 49.5 124.5t125.5 49.5zM512 33
q29 0 44 35.5t15 87.5q0 83 -40 83q-29 0 -44 -35.5t-15 -87.5q0 -83 40 -83zM847 33q29 0 44 35.5t15 87.5q0 83 -40 83q-29 0 -44 -35.5t-15 -87.5q0 -83 40 -83z" />
    <glyph glyph-name="guilsinglleft" unicode="&#x2039;" horiz-adv-x="308" 
d="M50 257l180 161l28 -28l-88 -133l88 -132l-28 -29z" />
    <glyph glyph-name="guilsinglright" unicode="&#x203a;" horiz-adv-x="308" 
d="M258 257l-179 -161l-29 29l89 132l-89 133l29 28z" />
    <glyph glyph-name="fraction" unicode="&#x2044;" horiz-adv-x="199" 
d="M-145 -5l432 641h87l-432 -641h-87z" />
    <glyph glyph-name="Euro" unicode="&#x20ac;" horiz-adv-x="744" 
d="M525 82q91 0 154 70l30 -25q-27 -50 -94 -93.5t-171 -43.5q-123 0 -217 67t-119 182h-78v33h73q-2 24 -2 38q0 15 1 23h-72v33h75q14 84 66 146.5t126.5 93.5t160.5 31q122 0 189 -50t67 -119q0 -38 -22.5 -67t-68.5 -29q-44 0 -68.5 26t-24.5 63q0 135 -102 135
q-59 0 -100 -62.5t-42 -167.5h150v-33h-149q1 -23 9 -61h140v-33h-129q29 -75 89.5 -116t128.5 -41z" />
    <glyph glyph-name="trademark" unicode="&#x2122;" horiz-adv-x="648" 
d="M38 621h227l8 -61h-23q-15 31 -34 31q-28 0 -28 -26v-111q0 -20 8.5 -27.5t27.5 -9.5v-23h-145v23q19 2 27.5 9.5t8.5 27.5v111q0 26 -28 26q-19 0 -34 -31h-23zM618 598q-17 -2 -21.5 -7.5t-4.5 -26.5v-113q0 -21 4.5 -26.5t21.5 -7.5v-23h-125v23q17 2 22 8t5 26v90
l-59 -123h-40l-66 128v-95q0 -20 5 -26t22 -8v-23h-84v23q18 2 22.5 7.5t4.5 26.5v113q0 20 -5 26t-22 8v23h96l69 -132l63 132h92v-23z" />
    <glyph glyph-name="oneeighth" unicode="&#x215b;" horiz-adv-x="683" 
d="M32 392v42q29 2 29 18v125l-31 -10v48l56 25q10 4 21 2.5t19 -7t7 -10.5v-173q0 -16 29 -18v-42h-130zM47 -5l432 641h87l-432 -641h-87zM535 -11q-109 0 -109 80q0 25 16.5 45.5t37.5 16.5q-40 8 -40 50q0 25 25.5 44t69.5 19q42 0 68.5 -18.5t26.5 -43.5q0 -20 -12 -33
t-28 -16q23 -3 40 -23t17 -46q0 -34 -28 -54.5t-84 -20.5zM551 155q8 -1 13.5 9t5.5 17q0 26 -34 26q-16 0 -22.5 -8t-6.5 -17q0 -21 25 -24zM535 27q17 0 26.5 11t9.5 27q0 27 -33 33l-32 6q-8 1 -11.5 -10t-3.5 -26t12 -28t32 -13z" />
    <glyph glyph-name="threeeighths" unicode="&#x215c;" horiz-adv-x="730" 
d="M139 383q-49 0 -76.5 23.5t-27.5 55.5q0 11 7.5 18.5t21.5 7.5q15 0 21 -5.5t8 -20t3 -17.5q3 -8 15.5 -16t24.5 -8q23 0 37 15.5t12 28.5q1 27 -17.5 32.5t-44.5 -8.5l-19 35l24 11q32 12 32 44q0 10 -8 17t-24 7q-12 0 -17.5 -17t-0.5 -35l-58 6q-12 5 -12 14
q-1 31 24.5 51t71.5 20q47 0 73 -19t26 -42q0 -31 -36 -43q55 -15 55 -66q0 -39 -30.5 -64t-84.5 -25zM128 -5l432 641h87l-432 -641h-87zM577 -11q-108 0 -108 80q0 25 16 45.5t37 16.5q-39 8 -39 50q0 25 25 44t69 19q42 0 69 -18.5t27 -43.5q0 -20 -12 -33t-29 -16
q23 -3 40.5 -23t17.5 -46q0 -34 -28 -54.5t-85 -20.5zM593 155q8 -1 13.5 9t5.5 17q0 26 -34 26q-16 0 -22.5 -8t-6.5 -17q0 -21 25 -24zM577 27q18 0 27.5 11t9.5 27q0 28 -34 33l-32 6q-14 3 -14 -36q0 -15 12 -28t31 -13z" />
    <glyph glyph-name="fiveeighths" unicode="&#x215d;" horiz-adv-x="732" 
d="M146 389q-106 0 -111 78q-1 12 8 22.5t28 10.5t26.5 -6.5t10.5 -23.5t4 -19q3 -9 13 -17t21 -8q12 0 23.5 15.5t11.5 41.5q0 14 -14.5 29t-26.5 15q-14 0 -32.5 -5t-19.5 -5h-39l10 125h134l7 5h30l-3 -49l-12 -10h-106l-3 -33q20 20 58 20q33 0 64 -27t31 -67
q0 -42 -31 -67t-82 -25zM136 -5l432 641h87l-432 -641h-87zM585 -11q-109 0 -109 80q0 25 16.5 45.5t37.5 16.5q-40 8 -40 50q0 25 25.5 44t69.5 19q42 0 68.5 -18.5t26.5 -43.5q0 -20 -12 -33t-28 -16q23 -3 40 -23t17 -46q0 -34 -28 -54.5t-84 -20.5zM601 155q8 -1 13.5 9
t5.5 17q0 26 -34 26q-16 0 -22.5 -8t-6.5 -17q0 -21 25 -24zM585 27q17 0 26.5 11t9.5 27q0 27 -33 33l-32 6q-8 1 -11.5 -10t-3.5 -26t12 -28t32 -13z" />
    <glyph glyph-name="seveneighths" unicode="&#x215e;" horiz-adv-x="697" 
d="M98 390q-14 0 -21 10t1 27l89 159h-76l-6 -17h-50l13 57q3 14 21 14h182l-125 -250h-28zM111 -5l432 641h87l-432 -641h-87zM560 -11q-109 0 -109 80q0 25 16.5 45.5t37.5 16.5q-40 8 -40 50q0 25 25.5 44t69.5 19q42 0 68.5 -18.5t26.5 -43.5q0 -20 -12 -33t-28 -16
q23 -3 40 -23t17 -46q0 -34 -28 -54.5t-84 -20.5zM576 155q8 -1 13.5 9t5.5 17q0 26 -34 26q-16 0 -22.5 -8t-6.5 -17q0 -21 25 -24zM560 27q17 0 26.5 11t9.5 27q0 27 -33 33l-32 6q-8 1 -11.5 -10t-3.5 -26t12 -28t32 -13z" />
    <glyph glyph-name="partialdiff" unicode="&#x2202;" horiz-adv-x="578" 
d="M283 -10q-107 0 -177.5 57t-70.5 160q0 100 63.5 151t147.5 51q29 0 56 -7.5t42 -15t32 -18.5t19 -12q0 231 -159 231q-36 0 -94 -26l-24 36q51 40 141 40q135 0 211.5 -94.5t77.5 -242.5q1 -144 -68 -227t-197 -83zM279 38q63 0 90.5 54t27.5 123q0 50 -26 90.5
t-79 40.5t-82 -45t-29 -118q0 -36 7 -66t30.5 -54.5t60.5 -24.5z" />
    <glyph glyph-name="emptyset" unicode="&#x2205;" horiz-adv-x="561" 
d="M448 404q78 -65 78 -180q0 -113 -71 -171.5t-172 -58.5q-81 0 -143 37l-26 -32l-23 20l24 30q-80 63 -80 181q0 113 71.5 171.5t172.5 58.5q83 0 144 -38l24 29l23 -20zM196 270q0 -60 12 -109l137 166q-14 40 -35 63.5t-46 23.5q-32 0 -50 -37t-18 -107zM298 40
q31 0 49.5 37.5t18.5 106.5q0 57 -11 107l-137 -166q30 -85 80 -85z" />
    <glyph glyph-name="product" unicode="&#x220f;" horiz-adv-x="579" 
d="M529 800v-1000h-48v952h-383v-952h-48v1000h479z" />
    <glyph glyph-name="summation" unicode="&#x2211;" horiz-adv-x="530" 
d="M480 800v-48h-364l318 -453l-318 -451h364v-48h-430v48l316 452l-316 452v48h430z" />
    <glyph glyph-name="minus" unicode="&#x2212;" horiz-adv-x="470" 
d="M50 276h370v-49h-370v49z" />
    <glyph glyph-name="radical" unicode="&#x221a;" horiz-adv-x="812" 
d="M246 -200l-137 336q-4 10 -8.5 18.5t-7.5 14t-9.5 11t-8.5 8t-12 6.5t-12 5t-15 6t-16 6v40l220 -2l114 -290l312 841h126v-40q-57 -12 -70 -25.5t-37 -74.5l-327 -860h-112z" />
    <glyph glyph-name="infinity" unicode="&#x221e;" horiz-adv-x="729" 
d="M233 30q-76 0 -129.5 65t-53.5 160q0 86 48.5 143t112.5 57q78 0 135 -88q64 90 152 90q76 0 128.5 -65t52.5 -160q0 -86 -47.5 -143t-112.5 -57q-79 0 -134 88q-62 -90 -152 -90zM190 147q61 0 92 81l35 93q-44 53 -102 53q-46 0 -79.5 -30.5t-33.5 -89.5q0 -53 25 -80
t63 -27zM515 113q47 0 80 30t33 90q0 53 -25 80t-62 27q-61 0 -93 -83l-34 -91q22 -26 50 -39.5t51 -13.5z" />
    <glyph glyph-name="integral" unicode="&#x222b;" horiz-adv-x="493" 
d="M344 672q67 0 118 -29t51 -79q0 -29 -18.5 -49t-52.5 -20q-36 0 -52.5 20.5t-17.5 44.5t-10.5 44.5t-32.5 20.5q-42 0 -42 -94v-552q0 -91 -59.5 -143.5t-147.5 -52.5q-67 0 -118.5 29t-51.5 79q0 29 18.5 49t52.5 20q36 0 52.5 -20.5t18 -44.5t11 -44.5t32.5 -20.5
q42 0 42 94v552q0 91 59.5 143.5t147.5 52.5z" />
    <glyph glyph-name="approxequal" unicode="&#x2248;" horiz-adv-x="556" 
d="M507 389h-45q0 -45 -54 -45q-27 0 -100 35.5t-123 35.5q-65 0 -100 -33t-35 -93h45q0 21 16 33t38 12q28 0 100.5 -35.5t122.5 -35.5q65 0 100 33t35 93zM507 219h-45q0 -45 -54 -45q-27 0 -100 35.5t-123 35.5q-65 0 -100 -33t-35 -93h45q0 21 16 33t38 12
q28 0 100.5 -35.5t122.5 -35.5q65 0 100 33t35 93z" />
    <glyph glyph-name="notequal" unicode="&#x2260;" horiz-adv-x="470" 
d="M420 317h-133l-55 -131h188v-49h-208l-57 -136h-55l57 136h-107v49h127l55 131h-182v49h202l55 131h55l-55 -131h113v-49z" />
    <glyph glyph-name="lessequal" unicode="&#x2264;" horiz-adv-x="480" 
d="M50 367l380 155v-50l-335 -140l335 -139v-51l-380 156v69zM430 48v-48h-370v48h370z" />
    <glyph glyph-name="greaterequal" unicode="&#x2265;" horiz-adv-x="480" 
d="M430 367v-69l-380 -156v51l335 139l-335 140v50zM50 48h370v-48h-370v48z" />
    <glyph glyph-name="lozenge" unicode="&#x25ca;" horiz-adv-x="412" 
d="M377 310l-142 -310h-58l-142 310l142 311h58zM302 310l-96 219l-96 -219l96 -219z" />
    <glyph glyph-name="i.loclTRK" 
d="M151 498q-36 0 -61.5 24.5t-25.5 59.5q0 37 25.5 62t61.5 25t60.5 -25t24.5 -62q0 -35 -25 -59.5t-60 -24.5zM24 0v44q36 2 50 16.5t14 50.5v224q0 33 -16 43.5t-47 7.5v45l163 27q50 7 50 -40v-307q0 -36 14 -50.5t48 -16.5v-44h-276z" />
    <glyph glyph-name="f_b" horiz-adv-x="985" 
d="M751 460q85 0 144.5 -60t59.5 -167q0 -110 -66 -174.5t-150 -64.5q-50 0 -109 26.5t-71 26.5q-18 0 -45 -26.5t-41 -26.5q-11 0 -17.5 7t-6.5 18v447q0 67 -31 118t-93 51q-44 0 -64 -27.5t-20 -68.5v-41q0 -18 8.5 -32.5t23.5 -14.5h91v-51h-91q-17 0 -24.5 -6.5
t-7.5 -25.5v-257q0 -36 14.5 -50.5t50.5 -16.5v-44h-279v44q36 2 50 16.5t14 50.5v257q0 18 -6.5 25t-24.5 7h-40v36q71 -4 71 43v5q0 92 71.5 145t183.5 53q36 0 69.5 -5t68 -19.5t59 -37t40.5 -60t16 -85.5v-45q0 -9 4 -13t9.5 -2.5t11.5 6.5q43 39 127 39zM715 49
q41 0 61 37t20 101q0 82 -28.5 137t-78.5 55q-38 0 -64 -32.5t-26 -109.5v-60q0 -67 36 -97.5t80 -30.5z" />
    <glyph glyph-name="f_h" horiz-adv-x="987" 
d="M915 102q0 -46 52 -37v-45q-12 -11 -42 -18t-57 -7q-49 0 -76 25.5t-27 68.5v159q0 114 -76 114q-44 0 -67 -29.5t-23 -84.5v-137q0 -36 14 -50.5t48 -16.5v-44h-276v44q36 2 50 16.5t14 50.5v355q0 67 -31 118t-93 51q-44 0 -64 -27.5t-20 -68.5v-41q0 -18 8.5 -32.5
t23.5 -14.5h91v-51h-91q-17 0 -24.5 -6.5t-7.5 -25.5v-257q0 -36 14.5 -50.5t50.5 -16.5v-44h-279v44q36 2 50 16.5t14 50.5v257q0 18 -6.5 25t-24.5 7h-40v36q71 -4 71 43v5q0 92 71.5 145t183.5 53q36 0 69.5 -5t68 -19.5t59 -37t40.5 -60t16 -85.5v-49q0 -16 6 -24.5
t14 -8t14 8.5q56 62 138 62q64 0 104 -39.5t40 -146.5v-176z" />
    <glyph glyph-name="f_j" horiz-adv-x="675" 
d="M27 0v44q36 2 50 16.5t14 50.5v257q0 18 -6.5 25t-24.5 7h-40v36q71 -4 71 43v-3q0 91 62 143.5t159 52.5q82 0 137.5 -29t55.5 -79q0 -29 -19 -49t-53 -20q-29 0 -45 13.5t-22 32.5t-11 38t-18 32.5t-38 13.5q-58 0 -58 -94v-52q0 -28 32 -28h75v-51h-75
q-17 0 -24.5 -6.5t-7.5 -25.5v-257q0 -36 14.5 -50.5t50.5 -16.5v-44h-279zM416 -208q-55 0 -97 22t-42 69q0 30 17 48t44 18q35 0 54 -16t22 -34.5t7 -34.5t13 -16q12 0 19 16t7 36v435q0 33 -16.5 43.5t-47.5 7.5v45l163 27q51 7 51 -40v-459q0 -81 -56 -124t-138 -43z
" />
    <glyph glyph-name="f_k" horiz-adv-x="978" 
d="M881 98q34 -51 97 -54v-44h-290v44q16 1 22.5 10.5t4.5 20t-9 19.5l-42 74q-18 27 -25 29q-5 1 -10 -4q-20 -18 -25 -27t-5 -34v-21q0 -36 14 -50.5t48 -16.5v-44h-276v44q36 2 50 16.5t14 50.5v355q0 67 -31 118t-93 51q-44 0 -64 -27.5t-20 -68.5v-41q0 -18 8.5 -32.5
t23.5 -14.5h91v-51h-91q-17 0 -24.5 -6.5t-7.5 -25.5v-257q0 -36 14.5 -50.5t50.5 -16.5v-44h-279v44q36 2 50 16.5t14 50.5v257q0 18 -6.5 25t-24.5 7h-40v36q71 -4 71 43v5q0 92 71.5 145t183.5 53q36 0 69.5 -5t68 -19.5t59 -37t40.5 -60t16 -85.5v-179q0 -24 13.5 -33
t27.5 4l99 83q19 13 8 34t-48 23v44h241v-44q-37 -2 -66 -16.5t-64 -44.5l-61 -51z" />
    <glyph glyph-name="zero.osf" horiz-adv-x="551" 
d="M278 -6q-102 0 -175 61t-73 175q0 113 71.5 171.5t172.5 58.5q102 0 174.5 -61t72.5 -175q0 -113 -71 -171.5t-172 -58.5zM293 40q31 0 49.5 37.5t18.5 106.5q0 94 -29 162t-73 68q-32 0 -50 -37t-18 -107q0 -94 29 -162t73 -68z" />
    <glyph glyph-name="one.osf" horiz-adv-x="372" 
d="M32 0v44q46 2 63.5 16.5t17.5 50.5v188q0 25 -8 35t-29 7l-46 -8v45l182 78q17 7 34 1.5t17 -17.5v-329q0 -36 17.5 -50.5t61.5 -16.5v-44h-310z" />
    <glyph glyph-name="two.osf" horiz-adv-x="558" 
d="M40 0q42 40 88 83t72.5 67t54.5 51t42 42.5t26.5 33t17 31t4.5 28.5q0 76 -76 76q-30 0 -50 -14.5t-20 -42.5q0 -17 7 -41t7 -37q0 -32 -25 -51t-58 -19q-37 0 -60.5 26t-23.5 67q0 71 67.5 115.5t177.5 44.5q101 0 152.5 -39t51.5 -95q0 -31 -17.5 -60t-43.5 -50
t-60.5 -41t-63 -31.5t-57.5 -23.5t-37 -16l111 2q63 1 83.5 13t63.5 66h44l-13 -54q-22 -96 -11 -131h-454z" />
    <glyph glyph-name="three.osf" horiz-adv-x="613" 
d="M294 -187q-109 0 -184 45.5t-75 125.5q0 39 20.5 58.5t52.5 19.5q24 0 39 -7t21.5 -20t9 -25.5t4 -28t4.5 -23.5q8 -20 12.5 -29.5t18 -29t35 -29t49.5 -9.5q58 0 87.5 45.5t29.5 107.5q0 57 -27 91t-73 34q-36 0 -63 -19l-15 42q82 28 110.5 60t28.5 86q0 104 -97 104
q-48 0 -63 -26t-15 -73q0 -33 -18.5 -52t-52.5 -19q-32 0 -48.5 21.5t-16.5 50.5q0 55 56 100.5t173 45.5q108 0 164.5 -40t56.5 -105q0 -48 -29.5 -77.5t-71.5 -39.5q57 1 106.5 -41.5t49.5 -121.5q0 -99 -81 -160.5t-198 -61.5z" />
    <glyph glyph-name="four.osf" horiz-adv-x="603" 
d="M563 0h-104v-56q0 -36 17.5 -50.5t61.5 -16.5v-44h-310v44q46 2 63.5 16.5t17.5 50.5v56h-263l-21 76l288 394l146 -16v-343h104v-111zM149 111h160v278l-178 -243q-10 -14 -4.5 -24.5t22.5 -10.5z" />
    <glyph glyph-name="five.osf" horiz-adv-x="590" 
d="M281 -180q-104 0 -175 45.5t-71 125.5q0 39 21 59.5t53 20.5q30 0 46 -12.5t19.5 -27t5 -36.5t4.5 -30q18 -54 38 -73q25 -24 63 -24q49 0 78.5 40.5t29.5 116.5q0 82 -36.5 131.5t-97.5 49.5q-38 0 -76.5 -19t-60.5 -57h-36l24 325h300l82 14l-15 -147h-332l-8 -117
q67 57 171 57q33 0 65.5 -6.5t66 -22.5t58.5 -39.5t41 -61.5t16 -85q0 -109 -76.5 -168t-197.5 -59z" />
    <glyph glyph-name="six.osf" horiz-adv-x="578" 
d="M300 -10q-128 0 -197 83t-68 227q1 148 77.5 242.5t211.5 94.5q92 0 141 -40l-23 -36q-58 26 -95 26q-159 0 -159 -231q2 1 19.5 12t32 18.5t42 15t56.5 7.5q52 0 98 -19.5t79 -67t33 -115.5q0 -103 -70.5 -160t-177.5 -57zM304 38q37 0 60.5 24.5t30.5 54.5t7 66
q0 73 -29 118t-82 45t-79 -40.5t-26 -90.5q0 -69 27.5 -123t90.5 -54z" />
    <glyph glyph-name="seven.osf" horiz-adv-x="557" 
d="M123 -170l300 489h-166q-79 0 -114.5 -13t-71.5 -47h-36l66 200l88 -8h343l-319 -621h-90z" />
    <glyph glyph-name="eight.osf" horiz-adv-x="610" 
d="M431 348q66 -27 105 -66.5t39 -105.5q0 -88 -76 -137t-194 -49q-120 0 -195 50t-75 136q0 94 100 149q-62 55 -62 135q0 59 37.5 100.5t88.5 59t108 17.5q88 0 155.5 -41.5t67.5 -114.5q0 -86 -99 -133zM313 589q-51 0 -72.5 -27t-21.5 -63q0 -75 90 -108l45 -16
q61 38 61 105q0 14 -2.5 28t-11 34.5t-31.5 33.5t-57 13zM307 38q63 0 88 34.5t25 69.5q0 31 -20 53.5t-78 43.5l-92 31q-19 6 -35 15q-36 -36 -36 -90q0 -59 37.5 -108t110.5 -49z" />
    <glyph glyph-name="nine.osf" horiz-adv-x="578" 
d="M278 458q128 0 197 -83t68 -227q-1 -148 -77.5 -242.5t-211.5 -94.5q-90 0 -141 40l24 36q58 -26 94 -26q159 0 159 231q-2 -1 -19 -12t-32 -18.5t-42 -15t-56 -7.5q-84 0 -147.5 51t-63.5 151q0 103 70.5 160t177.5 57zM274 410q-37 0 -60.5 -24.5t-30.5 -54.5t-7 -66
q0 -73 29 -118t82 -45t79 40.5t26 90.5q0 69 -27.5 123t-90.5 54z" />
    <glyph glyph-name="zero.tf" horiz-adv-x="600" 
d="M291 -10q-128 0 -206 93.5t-78 230.5q0 136 78 229.5t206 93.5t206 -93.5t78 -229.5q0 -137 -78 -230.5t-206 -93.5zM291 52q125 0 125 262q0 48 -5.5 90t-18 82.5t-38.5 64.5t-63 24t-63 -24t-38.5 -64.5t-18 -82.5t-5.5 -90q0 -262 125 -262z" />
    <glyph glyph-name="one.tf" horiz-adv-x="600" 
d="M138 0v44q53 2 72 16.5t19 50.5v355q0 24 -8.5 34.5t-28.5 6.5l-48 -7v44l184 81q17 7 34 1.5t17 -17.5v-498q0 -36 19 -50.5t70 -16.5v-44h-330z" />
    <glyph glyph-name="two.tf" horiz-adv-x="600" 
d="M47 0q0 70 34.5 132t83.5 106t97.5 83.5t83 84t34.5 89.5q0 38 -21 66t-63 28q-38 0 -61 -25t-23 -65q0 -15 6.5 -39.5t6.5 -38.5q0 -31 -23.5 -47t-54.5 -16q-42 0 -67.5 27.5t-25.5 75.5q0 81 70.5 128.5t181.5 47.5q106 0 173.5 -45t67.5 -129q0 -54 -32 -95t-84 -69
t-106.5 -52t-110.5 -57t-85 -70h217q80 0 117.5 14t47.5 53h44l-18 -124q-7 -47 5 -63h-495z" />
    <glyph glyph-name="three.tf" horiz-adv-x="600" 
d="M285 -10q-109 0 -184 45.5t-75 125.5q0 39 20.5 58.5t52.5 19.5q29 0 45.5 -12t20.5 -26t6.5 -35.5t5.5 -29.5q7 -20 12 -30t18.5 -29.5t35 -29t49.5 -9.5q58 0 87.5 45.5t29.5 107.5q0 57 -27 91t-73 34q-36 0 -63 -19l-15 42q82 28 110.5 60t28.5 86q0 104 -97 104
q-48 0 -63.5 -26t-15.5 -73q0 -33 -18 -52t-52 -19q-32 0 -48.5 21.5t-16.5 50.5q0 55 56 100.5t173 45.5q108 0 164.5 -40t56.5 -105q0 -48 -29.5 -77.5t-71.5 -39.5q57 1 106.5 -41.5t49.5 -121.5q0 -99 -81 -160.5t-198 -61.5z" />
    <glyph glyph-name="four.tf" horiz-adv-x="600" 
d="M570 167h-105v-56q0 -36 17.5 -50.5t61.5 -16.5v-44h-310v44q46 2 63.5 16.5t17.5 50.5v56h-262l-21 76l288 394l145 -16v-343h105v-111zM156 278h159v278l-178 -243q-10 -14 -4.5 -24.5t23.5 -10.5z" />
    <glyph glyph-name="five.tf" horiz-adv-x="600" 
d="M292 -12q-104 0 -175.5 45.5t-71.5 125.5q0 39 21 59.5t54 20.5q29 0 45.5 -12.5t19.5 -26.5t5 -36t4 -30q18 -56 40 -76q24 -22 61 -22q49 0 78.5 40.5t29.5 116.5q0 82 -36 131.5t-98 49.5q-38 0 -76 -19t-60 -57h-37l24 325h300l82 14l-14 -146h-332l-9 -118
q67 57 171 57q33 0 65.5 -6.5t66 -22.5t58.5 -39.5t41 -61.5t16 -85q0 -109 -76.5 -168t-196.5 -59z" />
    <glyph glyph-name="six.tf" horiz-adv-x="600" 
d="M307 -10q-128 0 -197 83t-68 227q1 148 77.5 242.5t211.5 94.5q90 0 141 -40l-23 -36q-58 26 -95 26q-159 0 -159 -231q2 1 19.5 12t32 18.5t42 15t56.5 7.5q52 0 98 -19.5t79 -67t33 -115.5q0 -103 -70.5 -160t-177.5 -57zM311 38q37 0 60.5 24.5t30.5 54.5t7 66
q0 73 -29 118t-82 45t-79 -40.5t-26 -90.5q0 -69 27.5 -123t90.5 -54z" />
    <glyph glyph-name="seven.tf" horiz-adv-x="600" 
d="M141 0l299 489h-165q-80 0 -115 -13t-72 -47h-35l66 200l88 -8h343l-319 -621h-90z" />
    <glyph glyph-name="eight.tf" horiz-adv-x="600" 
d="M426 348q66 -27 105 -66.5t39 -105.5q0 -88 -76 -137t-194 -49q-120 0 -195 50t-75 136q0 94 100 149q-62 55 -62 135q0 59 37.5 100.5t88.5 59t108 17.5q88 0 155.5 -41.5t67.5 -114.5q0 -86 -99 -133zM308 589q-51 0 -72.5 -27t-21.5 -63q0 -75 90 -108l45 -16
q61 38 61 105q0 14 -2.5 28t-11 34.5t-31.5 33.5t-57 13zM302 38q63 0 88 34.5t25 69.5q0 31 -20 53.5t-78 43.5l-92 31q-19 6 -35 15q-36 -36 -36 -90q0 -59 37.5 -108t110.5 -49z" />
    <glyph glyph-name="nine.tf" horiz-adv-x="600" 
d="M292 634q128 0 197 -83t68 -227q-1 -148 -77.5 -242.5t-211.5 -94.5q-90 0 -141 40l23 36q58 -26 95 -26q159 0 159 231q-2 -1 -19 -12t-32 -18.5t-42.5 -15t-56.5 -7.5q-52 0 -98 19.5t-79 67t-33 115.5q0 103 70.5 160t177.5 57zM288 586q-37 0 -60.5 -24.5
t-30.5 -54.5t-7 -66q0 -73 29 -118t82 -45t79 40.5t26 90.5q0 69 -27.5 123t-90.5 54z" />
    <glyph glyph-name="zero.dnom" horiz-adv-x="308" 
d="M154 -11q-50 0 -84.5 38.5t-34.5 88.5t34.5 89t84.5 39q49 0 84 -39.5t35 -88.5q0 -50 -35 -88.5t-84 -38.5zM154 46q24 0 35.5 21.5t11.5 48.5t-11.5 49t-35.5 22q-25 0 -36.5 -22t-11.5 -49t11.5 -48.5t36.5 -21.5z" />
    <glyph glyph-name="one.dnom" horiz-adv-x="192" 
d="M32 -6v42q29 2 29 18v125l-31 -10v48l56 25q10 4 21 2.5t19 -7t7 -10.5v-173q0 -16 29 -18v-42h-130z" />
    <glyph glyph-name="two.dnom" horiz-adv-x="301" 
d="M40 -6q16 77 105 132q46 28 46 55q0 12 -10 19.5t-24 7.5q-29 0 -34 -17q-4 -8 -0.5 -20.5t2.5 -17.5q-11 -24 -42.5 -18t-31.5 30q1 35 27 59t76 24q46 0 69.5 -20t23.5 -56q0 -22 -13.5 -42t-26.5 -29.5t-35 -22.5l-10.5 -6t-7 -4.5t-4.5 -3.5t-2 -3t-1 -3.5t-1 -5
t-2 -7.5h53q16 0 21 8l9 13h34l-10 -58q-3 -14 -21 -14h-190z" />
    <glyph glyph-name="three.dnom" horiz-adv-x="294" 
d="M139 -11q-49 0 -76.5 23.5t-27.5 55.5q0 11 7.5 18.5t21.5 7.5q15 0 21 -5.5t8 -20t3 -17.5q3 -8 15.5 -16t24.5 -8q23 0 37 15.5t12 28.5q1 27 -17.5 32.5t-44.5 -8.5l-19 35l24 11q32 12 32 44q0 10 -8 17t-24 7q-12 0 -17.5 -17t-0.5 -35l-58 6q-12 5 -12 14
q-1 31 24.5 51t71.5 20q47 0 73 -19t26 -42q0 -31 -36 -43q55 -15 55 -66q0 -39 -30.5 -64t-84.5 -25z" />
    <glyph glyph-name="four.dnom" horiz-adv-x="273" 
d="M233 55h-35v-20q0 -18 25 -18v-23h-124v23q24 0 24 18v20h-98v39l126 151q9 11 28 7t19 -16v-142h35v-39zM70 94h53v62z" />
    <glyph glyph-name="five.dnom" horiz-adv-x="294" 
d="M146 -11q-106 0 -111 78q-1 12 8 22.5t28 10.5t26.5 -6.5t10.5 -23.5t4 -19q3 -9 13 -17t21 -8q12 0 23.5 15.5t11.5 41.5q0 14 -14.5 29t-26.5 15q-14 0 -32.5 -5t-19.5 -5h-39l10 125h134l7 5h30l-3 -49l-12 -10h-106l-3 -33q20 20 58 20q33 0 64 -27t31 -67
q0 -42 -31 -67t-82 -25z" />
    <glyph glyph-name="six.dnom" horiz-adv-x="279" 
d="M146 -11q-111 0 -111 125q0 55 30 94.5t90 39.5q34 0 59 -17q9 -7 -3 -29q-7 -6 -12.5 -4.5t-19 6.5t-22.5 5q-22 0 -30 -14t-12 -44q15 8 47 8q33 0 60 -24.5t27 -60.5q0 -33 -27.5 -59t-75.5 -26zM146 29q16 0 22.5 10.5t6.5 36.5q0 18 -7.5 29t-18.5 11q-36 0 -36 -11
q-1 -40 8.5 -58t24.5 -18z" />
    <glyph glyph-name="seven.dnom" horiz-adv-x="276" 
d="M98 -8q-14 0 -21 10t1 27l89 159h-76l-6 -17h-50l13 57q3 14 21 14h182l-125 -250h-28z" />
    <glyph glyph-name="eight.dnom" horiz-adv-x="291" 
d="M144 -11q-109 0 -109 80q0 25 16.5 45.5t37.5 16.5q-40 8 -40 50q0 25 25.5 44t69.5 19q42 0 68.5 -18.5t26.5 -43.5q0 -20 -12 -33t-28 -16q23 -3 40 -23t17 -46q0 -34 -28 -54.5t-84 -20.5zM160 155q8 -1 13.5 9t5.5 17q0 26 -34 26q-16 0 -22.5 -8t-6.5 -17
q0 -21 25 -24zM144 27q17 0 26.5 11t9.5 27q0 27 -33 33l-32 6q-8 1 -11.5 -10t-3.5 -26t12 -28t32 -13z" />
    <glyph glyph-name="nine.dnom" horiz-adv-x="279" 
d="M134 248q110 0 110 -125q0 -55 -30 -94.5t-89 -39.5q-35 0 -60 17q-8 6 4 29q7 6 12.5 4.5t19 -6.5t22.5 -5q16 0 24.5 8.5t11.5 19t5 30.5q-15 -8 -47 -8t-59.5 24.5t-27.5 60.5q0 33 27.5 59t76.5 26zM134 208q-16 0 -23 -10.5t-7 -36.5q0 -18 7.5 -29t19.5 -11
q35 0 35 11q1 40 -8.5 58t-23.5 18z" />
    <glyph glyph-name="zero.numr" horiz-adv-x="308" 
d="M154 388q-50 0 -84.5 38.5t-34.5 88.5t34.5 89t84.5 39q49 0 84 -39.5t35 -88.5q0 -50 -35 -88.5t-84 -38.5zM154 445q24 0 35.5 21.5t11.5 48.5t-11.5 49t-35.5 22q-25 0 -36.5 -22t-11.5 -49t11.5 -48.5t36.5 -21.5z" />
    <glyph glyph-name="one.numr" horiz-adv-x="192" 
d="M32 392v42q29 2 29 18v125l-31 -10v48l56 25q10 4 21 2.5t19 -7t7 -10.5v-173q0 -16 29 -18v-42h-130z" />
    <glyph glyph-name="two.numr" horiz-adv-x="301" 
d="M40 387q16 77 105 132q46 28 46 55q0 12 -10 19.5t-24 7.5q-29 0 -34 -17q-4 -8 -0.5 -20.5t2.5 -17.5q-11 -24 -42.5 -18t-31.5 30q1 35 27 59t76 24q46 0 69.5 -20t23.5 -56q0 -22 -13.5 -42t-26.5 -29.5t-35 -22.5l-10.5 -6t-7 -4.5t-4.5 -3.5t-2 -3t-1 -3.5t-1 -5
t-2 -7.5h53q16 0 21 8l9 13h34l-10 -58q-3 -14 -21 -14h-190z" />
    <glyph glyph-name="three.numr" horiz-adv-x="294" 
d="M139 383q-49 0 -76.5 23.5t-27.5 55.5q0 11 7.5 18.5t21.5 7.5q15 0 21 -5.5t8 -20t3 -17.5q3 -8 15.5 -16t24.5 -8q23 0 37 15.5t12 28.5q1 27 -17.5 32.5t-44.5 -8.5l-19 35l24 11q32 12 32 44q0 10 -8 17t-24 7q-12 0 -17.5 -17t-0.5 -35l-58 6q-12 5 -12 14
q-1 31 24.5 51t71.5 20q47 0 73 -19t26 -42q0 -31 -36 -43q55 -15 55 -66q0 -39 -30.5 -64t-84.5 -25z" />
    <glyph glyph-name="four.numr" horiz-adv-x="273" 
d="M233 446h-35v-20q0 -18 25 -18v-23h-124v23q24 0 24 18v20h-98v39l126 151q9 11 28 7t19 -16v-142h35v-39zM70 485h53v62z" />
    <glyph glyph-name="five.numr" horiz-adv-x="294" 
d="M146 389q-106 0 -111 78q-1 12 8 22.5t28 10.5t26.5 -6.5t10.5 -23.5t4 -19q3 -9 13 -17t21 -8q12 0 23.5 15.5t11.5 41.5q0 14 -14.5 29t-26.5 15q-14 0 -32.5 -5t-19.5 -5h-39l10 125h134l7 5h30l-3 -49l-12 -10h-106l-3 -33q20 20 58 20q33 0 64 -27t31 -67
q0 -42 -31 -67t-82 -25z" />
    <glyph glyph-name="six.numr" horiz-adv-x="279" 
d="M146 382q-111 0 -111 125q0 55 30 94.5t90 39.5q34 0 59 -17q9 -7 -3 -29q-7 -6 -12.5 -4.5t-19 6.5t-22.5 5q-22 0 -30 -14t-12 -44q15 8 47 8q33 0 60 -24.5t27 -60.5q0 -33 -27.5 -59t-75.5 -26zM146 422q16 0 22.5 10.5t6.5 36.5q0 18 -7.5 29t-18.5 11
q-36 0 -36 -11q-1 -40 8.5 -58t24.5 -18z" />
    <glyph glyph-name="seven.numr" horiz-adv-x="276" 
d="M98 390q-14 0 -21 10t1 27l89 159h-76l-6 -17h-50l13 57q3 14 21 14h182l-125 -250h-28z" />
    <glyph glyph-name="eight.numr" horiz-adv-x="291" 
d="M144 387q-109 0 -109 80q0 25 16.5 45.5t37.5 16.5q-40 8 -40 50q0 25 25.5 44t69.5 19q42 0 68.5 -18.5t26.5 -43.5q0 -20 -12 -33t-28 -16q23 -3 40 -23t17 -46q0 -34 -28 -54.5t-84 -20.5zM160 553q8 -1 13.5 9t5.5 17q0 26 -34 26q-16 0 -22.5 -8t-6.5 -17
q0 -21 25 -24zM144 425q17 0 26.5 11t9.5 27q0 27 -33 33l-32 6q-8 1 -11.5 -10t-3.5 -26t12 -28t32 -13z" />
    <glyph glyph-name="nine.numr" horiz-adv-x="279" 
d="M134 642q110 0 110 -125q0 -55 -30 -94.5t-89 -39.5q-35 0 -60 17q-8 6 4 29q7 6 12.5 4.5t19 -6.5t22.5 -5q16 0 24.5 8.5t11.5 19t5 30.5q-15 -8 -47 -8t-59.5 24.5t-27.5 60.5q0 33 27.5 59t76.5 26zM134 602q-16 0 -23 -10.5t-7 -36.5q0 -18 7.5 -29t19.5 -11
q35 0 35 11q1 40 -8.5 58t-23.5 18z" />
    </font>
</defs>
</svg>
