<?xml version="1.0" standalone="no"?>
<!DOCTYPE svg PUBLIC "-//W3C//DTD SVG 1.1//EN" "http://www.w3.org/Graphics/SVG/1.1/DTD/svg11.dtd" >
<svg xmlns="http://www.w3.org/2000/svg" xmlns:xlink="http://www.w3.org/1999/xlink" version="1.1">
<metadata>
Created by FontForge 20190801 at Thu Mar 29 13:00:53 2018
 By Jimmy Wärting
Copyright (c) 2018 by Connary Fagen. All rights reserved.
</metadata>
<defs>
<font id="QuincyCF-Bold" horiz-adv-x="600" >
  <font-face 
    font-family="Quincy CF"
    font-weight="700"
    font-stretch="normal"
    units-per-em="1000"
    panose-1="0 0 8 0 0 0 0 0 0 0"
    ascent="800"
    descent="-200"
    x-height="451"
    cap-height="621"
    bbox="-257.452 -312 1056 907"
    underline-thickness="50"
    underline-position="-100"
    unicode-range="U+0020-FB02"
  />
<missing-glyph horiz-adv-x="515" 
d="M422 800v-1030h-326v1030h326zM343 731h-170v-34h67v-38h-68v-34h171v34h-68v38h68v34zM275 598h-103v-107h171v35h-68v72zM240 563v-37h-34v37h34zM343 463h-171v-34h68v-38h-68v-34h103v72h68v34zM343 401h-34v-68h-137v-35h171v103zM343 276h-103v-58h35v24h34v-49
h-103v83h-34v-117h171v117zM343 98h-171v-117h171v117zM309 64v-49h-103v49h103zM343 -43h-171v-34h72l-72 -48v-34h171v34h-105l72 48h33v34z" />
    <glyph glyph-name="fi" unicode="fi" horiz-adv-x="645" 
d="M24 0v34q36 3 50 16t14 45v288q0 15 -6 21t-21 6h-41v29q34 1 51 9t17 30v4q0 90 58 140t147 50q77 0 126 -28t49 -72q0 -25 -16.5 -40.5t-42.5 -15.5q-24 0 -37.5 12.5t-19.5 30t-12 34.5t-20.5 29.5t-40.5 12.5q-40 0 -55.5 -30t-15.5 -85v-42q0 -27 27 -27h90v-41h-90
q-27 0 -27 -27v-288q0 -32 14.5 -45t51.5 -16v-34h-250zM373 0v34q36 3 50 16t14 45v249q0 34 -14.5 45.5t-49.5 8.5v34l140 26q44 8 44 -35v-328q0 -32 14 -45t49 -16v-34h-247z" />
    <glyph glyph-name="fl" unicode="fl" horiz-adv-x="620" 
d="M510 -5q-88 0 -88 85v393q0 73 -31.5 122.5t-94.5 49.5q-88 0 -88 -116v-41q0 -37 27 -37h98v-41h-98q-27 0 -27 -27v-288q0 -32 14.5 -45t51.5 -16v-34h-250v34q36 3 50 16t14 45v288q0 15 -6 21t-21 6h-41v29q34 1 51 9t17 30v13q0 90 64 140.5t165 50.5
q43 0 80.5 -9.5t71.5 -31t53.5 -62.5t19.5 -97v-393q0 -25 14 -33t49 0v-34q-43 -27 -95 -27z" />
    <glyph glyph-name="f_f" unicode="ff" horiz-adv-x="735" 
d="M603 672q63 0 107.5 -28.5t44.5 -71.5q0 -25 -16.5 -40.5t-42.5 -15.5q-29 0 -43 18.5t-16 41t-13 41t-36 18.5q-32 0 -43.5 -29.5t-11.5 -85.5v-42q0 -27 27 -27h100v-41h-100q-27 0 -27 -27v-288q0 -32 14.5 -45t51.5 -16v-34h-250v34q36 3 50 16t14 45v288q0 15 -6 21
t-21 6h-151q-27 0 -27 -27v-288q0 -32 14.5 -45t51.5 -16v-34h-250v34q36 3 50 16t14 45v288q0 15 -6 21t-21 6h-41v29q34 1 51 9t17 30v13q0 90 62.5 140.5t159.5 50.5q102 0 158 -59q54 49 135 49zM401 451q12 9 12 27v4v3q0 60 -29.5 110t-89.5 50q-86 0 -86 -116v-41
q0 -37 27 -37h166z" />
    <glyph glyph-name=".notdef" horiz-adv-x="515" 
d="M422 800v-1030h-326v1030h326zM343 731h-170v-34h67v-38h-68v-34h171v34h-68v38h68v34zM275 598h-103v-107h171v35h-68v72zM240 563v-37h-34v37h34zM343 463h-171v-34h68v-38h-68v-34h103v72h68v34zM343 401h-34v-68h-137v-35h171v103zM343 276h-103v-58h35v24h34v-49
h-103v83h-34v-117h171v117zM343 98h-171v-117h171v117zM309 64v-49h-103v49h103zM343 -43h-171v-34h72l-72 -48v-34h171v34h-105l72 48h33v34z" />
    <glyph glyph-name=".null" horiz-adv-x="0" 
 />
    <glyph glyph-name="nonmarkingreturn" horiz-adv-x="333" 
 />
    <glyph glyph-name="space" unicode=" " horiz-adv-x="180" 
 />
    <glyph glyph-name="exclam" unicode="!" horiz-adv-x="238" 
d="M93 202q-2 88 -25 201t-23 154q0 36 20.5 58t53.5 22t53.5 -22t20.5 -58q0 -41 -23 -154t-25 -201h-52zM119 -6q-28 0 -48 20.5t-20 48.5t20 48t48 20t48 -20t20 -48t-20 -48.5t-48 -20.5z" />
    <glyph glyph-name="quotedbl" unicode="&#x22;" horiz-adv-x="335" 
d="M56 459q4 -25 34 -25q29 0 33 25l20 134q5 33 -9.5 50t-43.5 17t-44 -17t-10 -50zM212 459q4 -25 34 -25q29 0 33 25l20 134q5 33 -9.5 50t-43.5 17t-44 -17t-10 -50z" />
    <glyph glyph-name="numbersign" unicode="#" horiz-adv-x="540" 
d="M515 431h-117l-57 -221h105v-40h-115l-52 -200h-42l52 200h-115l-52 -200h-42l52 200h-107v40h117l57 221h-105v40h115l52 201h42l-52 -201h115l52 201h42l-52 -201h107v-40zM299 210l57 221h-115l-57 -221h115z" />
    <glyph glyph-name="dollar" unicode="$" horiz-adv-x="499" 
d="M464 219q0 -53 -31.5 -89t-75 -50.5t-96.5 -17.5v-62h-27v62q-109 3 -179 46q-20 46 -18 93t31 47q12 0 19 -20q19 -54 58 -85t89 -38v177q-4 2 -13 4.5t-13 3.5q-173 55 -173 178q0 72 55.5 113.5t143.5 43.5v64h27v-65q99 -5 157 -43q20 -46 18 -92.5t-30 -46.5
q-8 0 -11.5 4t-7.5 15q-17 49 -51 79.5t-75 39.5v-179h1q34 -11 55 -18.5t52.5 -23.5t49 -33.5t31.5 -45t14 -61.5zM137 509q0 -37 24.5 -60t72.5 -39v174h-9q-45 0 -66.5 -22.5t-21.5 -52.5zM261 103q45 0 68.5 21t23.5 57q0 34 -23.5 55t-68.5 37v-170z" />
    <glyph glyph-name="percent" unicode="%" horiz-adv-x="684" 
d="M530 621h52l-414 -621h-102l433 579q-29 -23 -62.5 -28t-56 0t-61.5 18q12 -25 12 -58q0 -70 -48.5 -119t-116.5 -49q-58 0 -87 33t-29 84q0 70 48.5 119t117.5 49q45 0 91 -11.5t73 -20.5t66.5 -5t83.5 30zM183 379q31 0 46.5 35t15.5 88q0 90 -47 90q-31 0 -46.5 -35
t-15.5 -88q0 -90 47 -90zM519 274q57 0 86 -33t29 -84q0 -70 -48.5 -119t-116.5 -49q-58 0 -87 33t-29 84q0 70 48.5 119t117.5 49zM486 25q31 0 46.5 35t15.5 88q0 90 -47 90q-31 0 -46.5 -35t-15.5 -88q0 -90 47 -90z" />
    <glyph glyph-name="ampersand" unicode="&#x26;" horiz-adv-x="781" 
d="M339 -15q-127 0 -213 54.5t-86 150.5q0 40 16.5 74t41.5 54t51.5 31t49.5 11q-42 9 -69 45t-27 82q0 66 57.5 108t146.5 42q75 0 122.5 -29.5t47.5 -77.5q0 -28 -16.5 -44.5t-41.5 -16.5q-24 0 -40 15.5t-16 42.5q0 30 -18 52t-48 22q-38 0 -57.5 -26.5t-19.5 -67.5
q0 -48 25 -93t82 -63l-14 -33q-64 15 -103 -23.5t-39 -104.5q0 -71 45.5 -119.5t128.5 -48.5q85 0 128.5 49.5t43.5 112.5q0 40 -18 65.5t-52 25.5q-36 0 -49.5 -25t6.5 -47h-34q-25 20 -25 47q0 22 16 38.5t52 38.5l110 69q30 19 43.5 28.5t30 24.5t22.5 29t6 32
q0 36 -25.5 53t-65.5 4l-14 28q38 26 91 26q52 0 91 -30t39 -82q0 -28 -14 -53t-31 -42t-53.5 -38t-58.5 -31.5t-68 -31.5q-13 -6 -20 -9q74 -6 110 -40.5t37 -84.5q1 -85 -88.5 -139.5t-215.5 -54.5z" />
    <glyph glyph-name="quotesingle" unicode="'" horiz-adv-x="179" 
d="M56 459q4 -25 34 -25q29 0 33 25l20 134q5 33 -9.5 50t-43.5 17t-44 -17t-10 -50z" />
    <glyph glyph-name="parenleft" unicode="(" horiz-adv-x="340" 
d="M167 296q-1 -133 37.5 -251t102.5 -193q15 -18 -5 -18h-28q-11 0 -19 7q-103 75 -156.5 193.5t-53.5 261.5t53.5 261.5t156.5 193.5q8 7 19 7h26q10 0 13.5 -4t-1.5 -9q-67 -75 -106.5 -194t-38.5 -255z" />
    <glyph glyph-name="parenright" unicode=")" horiz-adv-x="340" 
d="M173 296q1 136 -38.5 255t-106.5 194q-5 5 -1.5 9t13.5 4h26q11 0 19 -7q103 -75 156.5 -193.5t53.5 -261.5t-53.5 -261.5t-156.5 -193.5q-8 -7 -19 -7h-28q-20 0 -5 18q64 75 102.5 193t37.5 251z" />
    <glyph glyph-name="asterisk" unicode="*" horiz-adv-x="329" 
d="M154 520q2 -6 6 -8.5t7.5 0t5.5 8.5l31 78q-4 34 -40 39q-36 -5 -40 -39zM139 508l-55 67q-32 14 -54 -14q-14 -34 13 -54l80 -18q11 -2 17 5t-1 14zM190 508q-7 -7 -1 -14t17 -5l80 18q27 21 13 54q-23 27 -54 14zM124 473l-81 -17q-27 -21 -13 -55q22 -28 54 -14l54 67
q7 7 1.5 14t-15.5 5zM205 473q-10 2 -15.5 -5t1.5 -14l54 -67q31 -13 54 14q13 33 -13 55zM154 444l-30 -78q4 -34 40 -39q36 5 40 39l-30 78q-4 10 -10 10t-10 -10z" />
    <glyph glyph-name="plus" unicode="+" horiz-adv-x="470" 
d="M420 271v-39h-165v-166h-39v166h-166v39h166v166h39v-166h165z" />
    <glyph glyph-name="comma" unicode="," horiz-adv-x="209" 
d="M86 -119l-20 22q47 41 47 74q0 16 -17 16q-29 0 -47.5 19t-18.5 48q0 31 20.5 51t52.5 20q37 0 56.5 -25.5t19.5 -66.5q0 -49 -26.5 -90t-66.5 -68z" />
    <glyph glyph-name="hyphen" unicode="-" horiz-adv-x="370" 
d="M50 287h270v-63h-270v63z" />
    <glyph glyph-name="period" unicode="." horiz-adv-x="216" 
d="M108 -6q-28 0 -48 20.5t-20 48.5t20 48t48 20t48 -20t20 -48t-20 -48.5t-48 -20.5z" />
    <glyph glyph-name="slash" unicode="/" horiz-adv-x="410" 
d="M35 0l267 641h73l-267 -641h-73z" />
    <glyph glyph-name="zero" unicode="0" horiz-adv-x="606" 
d="M303 -10q-124 0 -196 94t-72 230q0 135 72 229t196 94t196 -94t72 -229q0 -136 -72 -230t-196 -94zM303 37q71 0 103 77t32 200q0 78 -12 137t-43.5 99t-79.5 40q-71 0 -103.5 -77t-32.5 -199q0 -79 12 -138.5t43.5 -99t80.5 -39.5z" />
    <glyph glyph-name="one" unicode="1" horiz-adv-x="357" 
d="M30 0v34q52 3 70.5 16t18.5 45v387q0 28 -8.5 38t-30.5 6l-45 -7v33l162 73q17 7 29.5 1.5t12.5 -17.5v-514q0 -32 18.5 -45t69.5 -16v-34h-297z" />
    <glyph glyph-name="two" unicode="2" horiz-adv-x="565" 
d="M40 0q0 67 35.5 126t86 102t100.5 83t85.5 85.5t35.5 92.5q0 44 -25.5 76.5t-75.5 32.5q-46 0 -73.5 -29.5t-27.5 -73.5q0 -18 7 -39.5t7 -33.5q0 -28 -19.5 -41.5t-44.5 -13.5q-36 0 -57.5 26t-21.5 70q0 75 64 124.5t173 49.5q103 0 165.5 -46t62.5 -127
q0 -54 -32 -96.5t-83.5 -72.5t-105.5 -56.5t-108 -62.5t-81 -77h236q70 0 102.5 14.5t45.5 55.5h34l-17 -106q-8 -47 4 -63h-472z" />
    <glyph glyph-name="three" unicode="3" horiz-adv-x="585" 
d="M278 -10q-102 0 -172.5 47.5t-70.5 125.5q0 71 63 71q31 0 42.5 -13.5t16 -46t9.5 -46.5q8 -19 15.5 -33.5t21.5 -31t35 -25.5t48 -9q61 0 96 48.5t35 116.5q0 60 -30 94t-78 34q-36 0 -71 -19l-13 35q86 29 118.5 59.5t32.5 85.5q0 54 -27 84.5t-78 30.5q-90 0 -90 -108
q0 -65 -58 -65q-29 0 -44 19t-15 46q0 56 55 101.5t165 45.5q102 0 155.5 -39.5t53.5 -103.5q0 -51 -33 -81.5t-80 -44.5q58 4 111.5 -39.5t53.5 -123.5q0 -94 -77.5 -154.5t-189.5 -60.5z" />
    <glyph glyph-name="four" unicode="4" horiz-adv-x="580" 
d="M540 167h-103v-72q0 -32 17 -45t61 -16v-34h-277v34q45 3 62 16t17 45v72h-273l-19 65l293 405l119 -16v-362h103v-92zM125 259h192v316l-207 -286q-9 -13 -4.5 -21.5t19.5 -8.5z" />
    <glyph glyph-name="five" unicode="5" horiz-adv-x="570" 
d="M272 -10q-100 0 -168.5 47t-68.5 126q0 72 63 72q31 0 42.5 -13.5t15.5 -47t9 -46.5q7 -19 14.5 -33t20.5 -31t33 -26t45 -9q56 0 90.5 44t34.5 120q0 82 -41 135.5t-111 53.5q-41 0 -78 -19t-59 -54h-30l24 314h294l77 14l-13 -123h-330l-11 -145q65 60 169 60
q57 0 109.5 -20t92 -70.5t39.5 -123.5q0 -104 -74 -164.5t-189 -60.5z" />
    <glyph glyph-name="six" unicode="6" horiz-adv-x="553" 
d="M285 -10q-124 0 -187.5 84t-62.5 219q1 147 73 245.5t206 98.5q82 0 128 -37l-19 -29q-49 24 -87 24q-49 0 -85 -23t-54.5 -62t-27 -82t-8.5 -93q18 23 60.5 46t98.5 23q83 0 143 -53t60 -146q0 -96 -66.5 -155.5t-171.5 -59.5zM291 29q58 0 84 46.5t26 110.5
q0 73 -32 119t-88 46q-55 0 -88 -41t-33 -94q0 -74 33 -130.5t98 -56.5z" />
    <glyph glyph-name="seven" unicode="7" horiz-adv-x="532" 
d="M111 0l305 512h-187q-69 0 -102.5 -12.5t-60.5 -48.5h-31l57 178l82 -8h333l-317 -621h-79z" />
    <glyph glyph-name="eight" unicode="8" horiz-adv-x="580" 
d="M407 349q138 -54 138 -170q0 -85 -73.5 -137t-186.5 -52q-112 0 -181 51t-69 133q0 100 106 157q-69 53 -69 136q0 79 66 124.5t155 45.5q87 0 147.5 -42.5t60.5 -111.5q0 -83 -94 -134zM294 598q-56 0 -80.5 -29t-24.5 -69q0 -80 101 -113l56 -18q61 41 61 114
q0 18 -4.5 35.5t-15.5 36.5t-35 31t-58 12zM289 29q47 0 77.5 22t41 48.5t10.5 53.5q0 38 -24 63t-86 45l-83 26q-16 5 -36 14q-52 -43 -52 -111q0 -63 39 -112t113 -49z" />
    <glyph glyph-name="nine" unicode="9" horiz-adv-x="553" 
d="M268 637q124 0 187.5 -84t62.5 -219q-1 -147 -73 -245.5t-206 -98.5q-82 0 -128 37l19 29q49 -24 87 -24q49 0 85 23t54.5 62t27 82t8.5 93q-18 -23 -60.5 -46t-98.5 -23q-83 0 -143 53t-60 146q0 96 66.5 155.5t171.5 59.5zM262 598q-58 0 -84 -47t-26 -110
q0 -73 32 -119t88 -46q55 0 88 41t33 94q0 74 -33 130.5t-98 56.5z" />
    <glyph glyph-name="colon" unicode=":" horiz-adv-x="217" 
d="M108 314q-28 0 -48 20.5t-20 48.5t20 48t48 20t48 -20t20 -48t-20 -48.5t-48 -20.5zM109 -6q-28 0 -48 20.5t-20 48.5t20 48t48 20t48 -20t20 -48t-20 -48.5t-48 -20.5z" />
    <glyph glyph-name="semicolon" unicode=";" horiz-adv-x="209" 
d="M104 313q-28 0 -48 20.5t-20 48.5t20 48t48 20t48 -20t20 -48t-20 -48.5t-48 -20.5zM86 -119l-20 22q47 41 47 74q0 16 -17 16q-29 0 -47.5 19t-18.5 48q0 31 20.5 51t52.5 20q37 0 56.5 -25.5t19.5 -66.5q0 -49 -26.5 -90t-66.5 -68z" />
    <glyph glyph-name="less" unicode="&#x3c;" horiz-adv-x="475" 
d="M50 278l375 164v-43l-333 -148l333 -148v-43l-375 164v54z" />
    <glyph glyph-name="equal" unicode="=" horiz-adv-x="470" 
d="M50 361h370v-39h-370v39zM50 181h370v-39h-370v39z" />
    <glyph glyph-name="greater" unicode="&#x3e;" horiz-adv-x="475" 
d="M425 278v-54l-375 -164v43l333 148l-333 148v43z" />
    <glyph glyph-name="question" unicode="?" horiz-adv-x="487" 
d="M35 466q0 -47 23 -74t55 -27q25 0 44 16t19 39q0 14 -14.5 42t-14.5 50q0 35 25 56.5t64 21.5q45 0 73.5 -28t28.5 -69q0 -28 -15 -53.5t-35 -46.5t-39.5 -46.5t-30 -65.5t-4.5 -91h49q3 40 24 71.5t48 53t53.5 43t45 52.5t18.5 71q0 71 -55.5 113.5t-146.5 42.5
q-98 0 -156.5 -48.5t-58.5 -122.5zM239 -6q-28 0 -48 20.5t-20 48.5t20 48t48 20t48 -20t20 -48t-20 -48.5t-48 -20.5z" />
    <glyph glyph-name="at" unicode="@" horiz-adv-x="748" 
d="M500 -64q-50 -19 -125 -19q-147 0 -246 95.5t-99 236.5q0 140 99.5 235.5t245.5 95.5q147 0 245 -91t98 -231q0 -93 -43 -146t-115 -53q-83 0 -108 69q-17 -28 -52 -48.5t-78 -20.5q-47 0 -82 25t-35 74q0 45 43 76t154 47q32 6 32 27q0 95 -60 95q-47 0 -47 -59
q0 -22 -16 -34.5t-38 -12.5t-35.5 12.5t-13.5 34.5q0 42 54 67.5t119 25.5q138 0 138 -136v-166q0 -17 8 -27.5t22 -10.5q49 0 49 138q0 127 -65.5 218.5t-173.5 91.5q-110 0 -174.5 -77.5t-64.5 -199.5q0 -81 29 -152t88.5 -117.5t138.5 -46.5q55 0 99 12zM363 109
q28 0 49.5 19.5t21.5 53.5v38q0 33 -30 28q-48 -8 -70.5 -31t-22.5 -49q0 -27 14 -43t38 -16z" />
    <glyph glyph-name="A" unicode="A" horiz-adv-x="725" 
d="M609 150q34 -75 48 -91q18 -20 48 -27v-32h-267v33q42 6 50 27t-9 52l-16 35q-17 27 -55 27h-165q-41 0 -57 -30l-11 -26q-31 -71 67 -85v-33h-222v33q39 8 60 29t40 64l174 396q25 56 25 99l75 7zM406 219q9 0 14 6t0 17l-87 194q-9 23 -19 0l-86 -197q-3 -10 1.5 -15
t13.5 -5h163zM183 137v1v-1z" />
    <glyph glyph-name="B" unicode="B" horiz-adv-x="665" 
d="M30 0v33q69 9 69 60v435q0 51 -69 60v33h301q265 0 265 -147q0 -111 -148 -138q182 -27 182 -162q0 -80 -63 -127t-164 -47q-18 0 -93.5 4.5t-149.5 4.5t-130 -9zM298 355h46q58 0 84 31t26 81q0 114 -118 114h-38q-33 0 -48 -12.5t-15 -40.5v-120q0 -28 15 -40.5
t48 -12.5zM276 44h73q139 0 139 129q0 73 -47.5 108t-152.5 35q-53 0 -53 -53v-179q0 -40 41 -40z" />
    <glyph glyph-name="C" unicode="C" horiz-adv-x="659" 
d="M365 -10q-138 0 -236.5 87.5t-98.5 232.5q0 149 102.5 238t245.5 89q113 0 179.5 -50.5t66.5 -114.5q0 -33 -19.5 -57t-57.5 -24q-35 0 -55.5 21.5t-20.5 55.5q0 53 -29.5 92.5t-92.5 39.5q-75 0 -124 -65t-49 -175q0 -133 77 -212t183 -79q96 0 165 77l23 -19
q-27 -50 -93 -93.5t-166 -43.5z" />
    <glyph glyph-name="D" unicode="D" horiz-adv-x="696" 
d="M30 0v33q69 9 69 60v435q0 51 -69 60v33h276q350 0 350 -305q0 -75 -23 -132.5t-57 -91t-80.5 -55t-87 -28.5t-81.5 -7q-19 0 -81 3t-91 3q-56 0 -125 -8zM308 42q101 0 150.5 76t49.5 198q0 126 -51.5 195.5t-144.5 69.5h-14q-33 0 -48 -12.5t-15 -40.5v-435
q0 -51 73 -51z" />
    <glyph glyph-name="E" unicode="E" horiz-adv-x="596" 
d="M30 0v33q69 9 69 60v435q0 51 -69 60v33h485q13 0 14 -11q6 -60 21 -123h-23q-23 47 -51.5 68t-74.5 21h-103q-33 0 -48 -12.5t-15 -40.5v-133q0 -28 15 -40.5t48 -12.5h65q52 0 70.5 15.5t24.5 55.5h19v-187h-19q-7 39 -25 55t-70 16h-65q-33 0 -48 -12.5t-15 -40.5
v-142q0 -28 16 -40.5t54 -12.5l111 1q80 1 113 51l24 36h23q-21 -41 -30 -118q-2 -14 -16 -14h-500z" />
    <glyph glyph-name="F" unicode="F" horiz-adv-x="570" 
d="M30 0v33q69 9 69 60v435q0 51 -69 60v33h485q13 0 14 -11q6 -60 21 -123h-23q-23 47 -51.5 68t-74.5 21h-103q-33 0 -48 -12.5t-15 -40.5v-133q0 -28 15 -40.5t48 -12.5h65q51 0 69.5 14t25.5 47h19v-167h-19q-7 32 -25.5 46.5t-69.5 14.5h-65q-33 0 -48 -12.5t-15 -40.5
v-146q0 -28 18.5 -41.5t60.5 -18.5v-33h-284z" />
    <glyph glyph-name="G" unicode="G" horiz-adv-x="690" 
d="M360 -10q-134 0 -232 87.5t-98 232.5q0 100 50 176t129 113.5t172 37.5q113 0 179 -49.5t66 -111.5q0 -32 -19.5 -54t-56.5 -22q-34 0 -54.5 20t-20.5 49q0 53 -30 92t-94 39q-76 0 -125.5 -64t-49.5 -172q0 -138 77 -231.5t176 -93.5q62 0 62 49v113q0 34 -16.5 45.5
t-70.5 16.5v23l271 1v-24q-39 -5 -51 -16.5t-12 -45.5v-201q-26 17 -54.5 19t-53 -5t-65.5 -15.5t-79 -8.5z" />
    <glyph glyph-name="H" unicode="H" horiz-adv-x="737" 
d="M707 588q-69 -9 -69 -60v-435q0 -51 69 -60v-33h-274v33q69 9 69 60v155q0 33 -42 33h-183q-42 0 -42 -33v-155q0 -51 69 -60v-33h-274v33q69 9 69 60v435q0 51 -69 60v33h274v-33q-69 -9 -69 -60v-164q0 -33 43 -33h181q43 0 43 33v164q0 51 -69 60v33h274v-33z" />
    <glyph glyph-name="I" unicode="I" horiz-adv-x="334" 
d="M30 0v33q69 9 69 60v435q0 51 -69 60v33h274v-33q-69 -9 -69 -60v-435q0 -51 69 -60v-33h-274z" />
    <glyph glyph-name="J" unicode="J" horiz-adv-x="423" 
d="M135 -10q-68 0 -111.5 28t-43.5 76q0 33 19 51.5t48 18.5q58 0 58 -68q0 -70 45 -70q38 0 38 67v435q0 28 -18.5 41.5t-60.5 18.5v33h284v-33q-69 -9 -69 -60v-375q0 -45 -17 -78t-45.5 -51t-60 -26t-66.5 -8z" />
    <glyph glyph-name="K" unicode="K" horiz-adv-x="718" 
d="M562 128q37 -49 67.5 -68.5t68.5 -26.5v-33h-299v33q66 15 28 66l-95 128q-41 54 -66 26l-15 -16q-16 -18 -16 -62v-82q0 -51 69 -60v-33h-274v33q69 9 69 60v435q0 51 -69 60v33h274v-33q-69 -9 -69 -60v-250l240 247q23 26 10.5 43.5t-45.5 19.5v33h226v-33
q-33 -2 -72 -20t-67 -47l-117 -120q-17 -19 -16.5 -34t16.5 -37z" />
    <glyph glyph-name="L" unicode="L" horiz-adv-x="606" 
d="M30 0v33q69 9 69 60v435q0 51 -69 60v33h274v-33q-69 -9 -69 -60v-435q0 -59 74 -55l105 5q47 2 73.5 17.5t46.5 47.5l21 35h31l-17 -61q-13 -47 -10 -82h-529z" />
    <glyph glyph-name="M" unicode="M" horiz-adv-x="870" 
d="M840 588q-69 -9 -69 -60v-435q0 -51 69 -60v-33h-274v33q69 9 69 60v411l-214 -446h-40l-223 442v-407q0 -51 70 -60v-33h-198v33q69 9 69 60v435q0 51 -69 60v33h205l206 -407l194 407h205v-33z" />
    <glyph glyph-name="N" unicode="N" horiz-adv-x="704" 
d="M477 621h197v-33q-69 -9 -69 -60v-528h-54l-393 465v-372q0 -51 69 -60v-33h-197v33q69 9 69 60v435q0 51 -69 60v33h165l351 -415v322q0 51 -69 60v33z" />
    <glyph glyph-name="O" unicode="O" horiz-adv-x="717" 
d="M351 -10q-132 0 -226.5 87.5t-94.5 230.5q0 147 98 238t238 91q132 0 226.5 -87t94.5 -229q0 -148 -98 -239.5t-238 -91.5zM382 37q64 0 109.5 57t45.5 176q0 137 -58.5 228.5t-143.5 91.5q-64 0 -109.5 -56.5t-45.5 -174.5q0 -139 58.5 -230.5t143.5 -91.5z" />
    <glyph glyph-name="P" unicode="P" horiz-adv-x="631" 
d="M30 0v33q69 9 69 60v435q0 51 -69 60v33h300q135 0 205.5 -51t70.5 -144q0 -94 -71 -148t-205 -54h-40q-30 0 -42.5 -12.5t-12.5 -40.5v-78q0 -28 18.5 -41.5t60.5 -18.5v-33h-284zM290 274h40q141 0 141 150q0 147 -141 147h-51q-44 0 -44 -47v-197q0 -28 12.5 -40.5
t42.5 -12.5z" />
    <glyph glyph-name="Q" unicode="Q" horiz-adv-x="717" 
d="M627 21q28 0 44 -19t16 -48q0 -50 -45 -84t-113 -34q-87 0 -153 56l-120 102q-42 31 -62.5 19t-20.5 -45q0 -25 -17 -40t-41 -15q-26 0 -42.5 17.5t-16.5 44.5q0 32 23 55t61 34q-110 92 -110 244q0 147 98 238t238 91q132 0 226.5 -87t94.5 -229q0 -138 -86 -227.5
t-214 -101.5l84 -71q23 -20 40.5 -29.5t28 -7.5t17 6.5t9 18.5t3 23.5t0.5 26.5q0 27 15.5 44.5t42.5 17.5zM335 590q-64 0 -109.5 -56.5t-45.5 -174.5q0 -139 58.5 -230.5t143.5 -91.5q64 0 109.5 57t45.5 176q0 137 -58.5 228.5t-143.5 91.5z" />
    <glyph glyph-name="R" unicode="R" horiz-adv-x="677" 
d="M30 0v33q69 9 69 60v435q0 51 -69 60v33h326q113 0 178.5 -44t65.5 -125q0 -61 -38 -101.5t-114 -52.5q-5 -1 -5 -5.5t5 -6.5q46 -12 73 -40.5t47 -86.5q30 -82 45 -102q19 -24 44 -24v-33h-54q-83 0 -122 37t-74 133q-21 56 -45.5 78t-67.5 22q-33 0 -46 -12.5
t-13 -40.5v-124q0 -28 18.5 -41.5t60.5 -18.5v-33h-284zM290 320h44q67 0 97 38t30 93q0 52 -27.5 86t-87.5 34h-67q-44 0 -44 -47v-151q0 -28 12.5 -40.5t42.5 -12.5z" />
    <glyph glyph-name="S" unicode="S" horiz-adv-x="563" 
d="M272 -10q-62 0 -120.5 15t-93.5 38q-23 53 -21 106.5t35 53.5q9 0 13 -4.5t9 -17.5q25 -70 79 -107t121 -37q53 0 79.5 24t26.5 66q0 21 -10 39t-22.5 29t-38.5 23t-43 17.5t-52 16.5q-199 62 -199 205q0 84 65.5 132t168.5 48q58 0 115 -14t91 -36q23 -53 21 -106.5
t-35 -53.5q-9 0 -13 4.5t-9 17.5q-24 68 -75 104.5t-111 36.5q-52 0 -76.5 -26t-24.5 -60q0 -49 35 -76t108 -49q40 -12 64 -20.5t60.5 -27t56.5 -38.5t36 -52t16 -71q0 -49 -23 -85.5t-61.5 -56t-81.5 -29t-90 -9.5z" />
    <glyph glyph-name="T" unicode="T" horiz-adv-x="642" 
d="M164 0v33q49 5 69 18.5t20 41.5v424q0 38 -13 48.5t-60 10.5q-51 0 -74.5 -22t-46.5 -84h-34l20 154l57 -3h438l57 3l20 -154h-34q-23 62 -46.5 84t-74.5 22q-47 0 -60 -10.5t-13 -48.5v-424q0 -28 20 -41.5t69 -18.5v-33h-314z" />
    <glyph glyph-name="U" unicode="U" horiz-adv-x="710" 
d="M359 -10q-121 0 -193 68.5t-72 205.5v264q0 51 -69 60v33h274v-33q-69 -9 -69 -60v-250q0 -114 42 -168.5t117 -54.5t121 53t46 164v256q0 50 -73 60v33h202v-33q-73 -10 -73 -60v-274q0 -124 -65 -194t-188 -70z" />
    <glyph glyph-name="V" unicode="V" horiz-adv-x="725" 
d="M328 0l-212 471q-34 75 -48 91q-19 20 -48 27v32h267v-33q-42 -6 -50 -27t9 -52l146 -324q10 -23 19 0l139 318q31 71 -67 85v33h222v-33q-39 -8 -60 -29t-40 -64l-174 -396q-25 -56 -25 -99h-78z" />
    <glyph glyph-name="W" unicode="W" horiz-adv-x="1040" 
d="M307 0l-193 471q-26 65 -42.5 87.5t-51.5 30.5v32h262v-33q-42 -6 -50.5 -27t7.5 -52l127 -317q10 -24 20 0l64 168q12 31 17 49t5.5 42t-9.5 47q-20 46 -35.5 65t-47.5 26v32h262v-33q-42 -6 -50.5 -27t7.5 -52l127 -317q10 -24 20 0l119 311q28 72 -67 85v33h222v-33
q-40 -8 -61.5 -29.5t-38.5 -63.5l-154 -396q-26 -66 -26 -99h-73l-154 375l-107 -276q-26 -66 -26 -99h-73z" />
    <glyph glyph-name="X" unicode="X" horiz-adv-x="702" 
d="M557 131q68 -92 125 -98v-33h-286v33q36 4 45 22.5t-10 43.5l-109 151q-153 -177 -113 -209q9 -7 27 -8v-33h-216v33q40 4 96.5 49.5t152.5 167.5l27 35l-147 204q-67 93 -126 99v33h286v-33q-36 -4 -45 -22.5t10 -43.5l107 -147q149 174 108 205q-9 7 -26 8v33h216v-33
q-40 -4 -96.5 -49.5t-152.5 -167.5l-24 -31z" />
    <glyph glyph-name="Y" unicode="Y" horiz-adv-x="671" 
d="M180 0v33q49 5 69 18.5t20 41.5v134q0 41 -21 73l-121 186q-34 53 -57 75.5t-55 26.5v33h274v-33q-74 -10 -29 -79l110 -172q7 -12 14 0l112 173q21 32 9.5 53t-52.5 25v33h203v-33q-32 -3 -56 -25t-50 -62l-127 -196q-18 -28 -18 -78v-134q0 -28 20 -41.5t69 -18.5v-33
h-314z" />
    <glyph glyph-name="Z" unicode="Z" horiz-adv-x="610" 
d="M15 0l395 580l-189 -1q-58 0 -87.5 -24t-56.5 -79h-34l32 145h515l-395 -580l212 1q33 0 55 6t39.5 23.5t27 32.5t27.5 51h34l-38 -155h-537z" />
    <glyph glyph-name="bracketleft" unicode="[" horiz-adv-x="297" 
d="M154 690v-787l97 -19q21 -4 21 -16v-34l-227 14v897l227 14v-34q0 -13 -21 -16z" />
    <glyph glyph-name="backslash" unicode="\" horiz-adv-x="410" 
d="M375 0h-73l-267 641h73z" />
    <glyph glyph-name="bracketright" unicode="]" horiz-adv-x="297" 
d="M143 690l-97 19q-21 3 -21 16v34l227 -14v-897l-227 -14v34q0 12 21 16l97 19v787z" />
    <glyph glyph-name="asciicircum" unicode="^" horiz-adv-x="434" 
d="M199 681q9 10 19.5 9t16.5 -9l142 -191q11 -15 5.5 -27t-20.5 -12h-12q-14 0 -35 21l-98 101l-98 -101q-19 -21 -36 -21h-12q-14 0 -19.5 12t5.5 27z" />
    <glyph glyph-name="underscore" unicode="_" horiz-adv-x="612" 
d="M50 -20h512v-59h-512v59z" />
    <glyph glyph-name="grave" unicode="`" horiz-adv-x="308" 
d="M242 573l-94 109q-50 57 -89 17q-20 -26 -10 -48.5t43 -42.5l121 -72q21 -13 34 2t-5 35z" />
    <glyph glyph-name="a" unicode="a" horiz-adv-x="520" 
d="M162 -6q-57 0 -94.5 27.5t-37.5 82.5q0 62 60 99.5t203 58.5q21 3 28.5 10.5t7.5 27.5v13q0 110 -84 110q-64 0 -64 -72q0 -30 -18.5 -45.5t-45.5 -15.5t-42 16t-15 40q0 51 67.5 82.5t155.5 31.5t127 -40t39 -142v-189q0 -49 51 -38v-34q-28 -22 -83 -22
q-40 0 -61.5 19.5t-24.5 48.5q-1 9 -6 10t-12 -7q-58 -72 -151 -72zM222 61q46 0 76.5 30.5t30.5 75.5v30q0 18 -8.5 25t-31.5 5q-75 -7 -105.5 -35.5t-30.5 -62.5q0 -30 17.5 -49t51.5 -19z" />
    <glyph glyph-name="b" unicode="b" horiz-adv-x="580" 
d="M93 -6q-19 0 -19 20v526q0 34 -14.5 45.5t-49.5 8.5v34l140 26q44 8 44 -35v-198q0 -11 7 -13t15 6q18 18 53.5 32t79.5 14q85 0 143 -61t58 -165q0 -111 -65 -175.5t-151 -64.5q-37 0 -72.5 12.5t-60.5 25.5t-37 13q-16 0 -37.5 -25.5t-33.5 -25.5zM322 37
q49 0 75.5 41.5t26.5 111.5q0 85 -35.5 142.5t-93.5 57.5q-41 0 -71 -30t-30 -99v-88q0 -69 39.5 -102.5t88.5 -33.5z" />
    <glyph glyph-name="c" unicode="c" horiz-adv-x="503" 
d="M280 -6q-102 0 -176 61.5t-74 169.5q0 75 38.5 130t95 80t120.5 25q78 0 129.5 -38.5t51.5 -86.5q0 -27 -14 -45t-43 -18q-28 0 -45 17.5t-17 40.5q0 92 -77 92q-53 0 -82 -42t-29 -112q0 -94 50.5 -149.5t129.5 -55.5q65 0 105 52l25 -21q-19 -36 -67.5 -68t-120.5 -32z
" />
    <glyph glyph-name="d" unicode="d" horiz-adv-x="583" 
d="M505 89q0 -25 14.5 -33t48.5 0v-34q-43 -27 -95 -27q-82 0 -88 75q-58 -76 -155 -76q-84 0 -142 60.5t-58 164.5q0 111 65.5 176t153.5 65q28 0 54 -7t39.5 -13.5t24.5 -9t14.5 5.5t3.5 32v72q0 34 -14.5 45.5t-49.5 8.5v34l140 26q44 8 44 -35v-530zM288 64
q38 0 67.5 26t29.5 82v86q0 78 -39.5 118.5t-87.5 40.5q-49 0 -75.5 -41.5t-26.5 -109.5q0 -83 37 -142.5t95 -59.5z" />
    <glyph glyph-name="e" unicode="e" horiz-adv-x="505" 
d="M329 63q69 0 112 52l24 -21q-19 -36 -69.5 -68t-124.5 -32q-100 0 -170.5 61t-70.5 170q0 111 73.5 173t175.5 62q82 0 136.5 -40.5t54.5 -106.5q0 -23 -8 -39.5t-21.5 -26.5t-37 -16t-46.5 -8.5t-59 -3.5l-110 -4q-26 -1 -16 -39q19 -54 60 -83.5t97 -29.5zM264 422
q-49 0 -75.5 -35t-30.5 -95q-1 -22 7.5 -32t27.5 -10h53q62 0 87 18t25 55q0 40 -25.5 69.5t-68.5 29.5z" />
    <glyph glyph-name="f" unicode="f" horiz-adv-x="410" 
d="M278 672q63 0 107.5 -28.5t44.5 -71.5q0 -25 -16.5 -40.5t-42.5 -15.5q-29 0 -43 18.5t-16 41t-13 41t-36 18.5q-32 0 -43.5 -29.5t-11.5 -85.5v-42q0 -27 27 -27h100v-41h-100q-27 0 -27 -27v-288q0 -32 14.5 -45t51.5 -16v-34h-250v34q36 3 50 16t14 45v288q0 15 -6 21
t-21 6h-41v29q34 1 51 9t17 30v4q0 90 54 140t136 50z" />
    <glyph glyph-name="g" unicode="g" horiz-adv-x="537" 
d="M468 369q-18 4 -23.5 -9t-4.5 -54v-5q0 -70 -48.5 -115t-135.5 -45q-17 0 -40.5 2.5t-33.5 2.5q-38 0 -38 -25q0 -22 57 -33l127 -23q82 -15 124 -37t42 -65q0 -71 -84.5 -118t-194.5 -47q-87 0 -143.5 31.5t-56.5 86.5q0 60 74 88q21 8 21 10q0 3 -15 7
q-28 7 -42.5 26.5t-14.5 42.5q0 62 90 77q-81 42 -81 133q0 71 50.5 115.5t143.5 44.5q113 0 166 -64q4 62 60 62q24 0 39.5 -12t15.5 -36q0 -23 -16 -34.5t-38 -6.5zM259 177q67 0 67 104q0 56 -26 99.5t-72 43.5q-67 0 -67 -104q0 -56 25.5 -99.5t72.5 -43.5zM228 -10
q-51 8 -76.5 -13t-25.5 -54q0 -40 36.5 -66t96.5 -26q56 0 90 23.5t34 63.5q0 29 -21.5 41.5t-76.5 21.5z" />
    <glyph glyph-name="h" unicode="h" horiz-adv-x="585" 
d="M514 89q0 -49 51 -38v-34q-28 -22 -84 -22q-42 0 -64.5 21.5t-22.5 61.5v182q0 57 -23.5 89.5t-68.5 32.5q-48 0 -75.5 -33t-27.5 -89v-165q0 -32 14 -45t49 -16v-34h-247v34q36 3 50 16t14 45v445q0 34 -14.5 45.5t-49.5 8.5v34l140 26q44 8 44 -35v-192q0 -37 17 -37
q7 1 12 7q60 65 141 65q145 0 145 -176v-197z" />
    <glyph glyph-name="i" unicode="i" horiz-adv-x="297" 
d="M138 528q-29 0 -50 20.5t-21 49.5q0 30 21 50.5t50 20.5t49.5 -20.5t20.5 -50.5q0 -29 -20.5 -49.5t-49.5 -20.5zM25 0v34q36 3 50 16t14 45v249q0 34 -14.5 45.5t-49.5 8.5v34l140 26q44 8 44 -35v-328q0 -32 14 -45t49 -16v-34h-247z" />
    <glyph glyph-name="j" unicode="j" horiz-adv-x="280" 
d="M144 528q-29 0 -50 20.5t-21 49.5q0 30 21 50.5t50 20.5t49.5 -20.5t20.5 -50.5q0 -29 -20.5 -49.5t-49.5 -20.5zM50 -201q-48 0 -84 19.5t-36 58.5q0 25 14.5 40t37.5 15q26 0 41.5 -14t20 -30.5t10.5 -30.5t16 -14q11 0 18 15.5t7 36.5v449q0 34 -14.5 45.5t-49.5 8.5
v34l140 26q44 8 44 -35v-470q0 -73 -47 -113.5t-118 -40.5z" />
    <glyph glyph-name="k" unicode="k" horiz-adv-x="565" 
d="M475 85q19 -26 37.5 -37t52.5 -14v-34h-246v34q47 5 19 46l-75 113q-17 25 -31 13q-19 -16 -26 -27.5t-7 -33.5v-50q0 -32 14 -45t49 -16v-34h-247v34q36 3 50 16t14 45v445q0 34 -14.5 45.5t-49.5 8.5v34l140 26q44 8 44 -35v-337q0 -20 11 -27t23 4l124 108q9 10 10 20
t-12 19t-37 11v34h207v-34q-35 -3 -57 -15t-54 -39l-82 -71z" />
    <glyph glyph-name="l" unicode="l" horiz-adv-x="272" 
d="M162 -5q-88 0 -88 85v460q0 34 -14.5 45.5t-49.5 8.5v34l140 26q44 8 44 -35v-530q0 -25 14 -33t49 0v-34q-43 -27 -95 -27z" />
    <glyph glyph-name="m" unicode="m" horiz-adv-x="866" 
d="M795 89q0 -49 51 -38v-34q-28 -22 -84 -22q-42 0 -64.5 21.5t-22.5 61.5v182q0 58 -20.5 91t-61.5 33q-42 0 -66.5 -34t-24.5 -90v-165q0 -32 14 -45t49 -16v-34h-247v34q36 3 50 16t14 45v165q0 58 -20.5 91t-61.5 33q-42 0 -66.5 -34t-24.5 -90v-165q0 -32 14 -45
t49 -16v-34h-247v34q36 3 50 16t14 45v249q0 34 -14.5 45.5t-49.5 8.5v34l140 26q21 4 32.5 -4.5t11.5 -26.5q0 -37 17 -37q7 1 12 7q18 19 28.5 29t39 23t61.5 13q74 0 108 -55q17 -29 34 -11q61 66 147 66q139 0 139 -176v-197z" />
    <glyph glyph-name="n" unicode="n" horiz-adv-x="595" 
d="M491 -5q-42 0 -64.5 21.5t-22.5 61.5v182q0 57 -23.5 90.5t-68.5 33.5q-48 0 -75.5 -34t-27.5 -90v-165q0 -32 14 -45t49 -16v-34h-247v34q36 3 50 16t14 45v249q0 34 -14.5 45.5t-49.5 8.5v34l140 26q21 4 32.5 -4.5t11.5 -26.5q0 -37 17 -37q7 1 12 7q60 65 141 65
q145 0 145 -176v-197q0 -49 51 -38v-34q-28 -22 -84 -22z" />
    <glyph glyph-name="o" unicode="o" horiz-adv-x="541" 
d="M271 -6q-99 0 -170 62t-71 172t70.5 171t169.5 61t170 -62t71 -172t-70.5 -171t-169.5 -61zM290 32q42 0 67.5 40.5t25.5 116.5q0 96 -37.5 164.5t-94.5 68.5q-43 0 -68 -40t-25 -117q0 -96 37.5 -164.5t94.5 -68.5z" />
    <glyph glyph-name="p" unicode="p" horiz-adv-x="595" 
d="M364 460q85 0 143 -61t58 -165q0 -111 -65.5 -175.5t-152.5 -64.5q-25 0 -50 6t-39.5 12t-26.5 9.5t-17 -1t-5 -20.5v-95q0 -32 14 -45t49 -16v-34h-247v34q36 3 50 16t14 45v439q0 34 -14.5 45.5t-49.5 8.5v34l140 26q44 8 44 -35v-2q0 -11 7 -13t15 6q18 18 53.5 32
t79.5 14zM337 37q49 0 75.5 41.5t26.5 111.5q0 85 -35.5 142.5t-93.5 57.5q-42 0 -71.5 -30t-29.5 -99v-88q0 -69 39.5 -102.5t88.5 -33.5z" />
    <glyph glyph-name="q" unicode="q" horiz-adv-x="569" 
d="M322 -190v34q36 3 50 16t14 45v127q0 11 -7 13t-15 -6q-18 -17 -53.5 -31t-79.5 -14q-85 0 -143 60.5t-58 164.5q0 111 65 176t151 65q37 0 72.5 -13t60.5 -26t37 -13q16 0 37.5 25.5t33.5 25.5q19 0 19 -20v-534q0 -32 14 -45t49 -16v-34h-247zM287 64q40 0 69.5 29.5
t29.5 98.5v66q0 77 -40 118t-88 41q-49 0 -75.5 -41.5t-26.5 -109.5q0 -83 37 -142.5t94 -59.5z" />
    <glyph glyph-name="r" unicode="r" horiz-adv-x="481" 
d="M25 0v34q36 3 50 16t14 45v249q0 34 -14.5 45.5t-49.5 8.5v34l140 26q21 4 32.5 -4.5t11.5 -26.5q0 -37 15 -35q6 2 11 8q52 62 127 62q47 0 75.5 -27t28.5 -65q0 -32 -18 -50.5t-47 -18.5q-25 0 -41.5 13.5t-16.5 36.5q0 21 -12 34t-31 13q-38 0 -64.5 -40.5
t-26.5 -110.5v-152q0 -32 14.5 -45t53.5 -16v-34h-252z" />
    <glyph glyph-name="s" unicode="s" horiz-adv-x="442" 
d="M214 -6q-79 0 -134 31t-55 86q0 26 13 40t36 14q25 0 38.5 -13t13.5 -31q0 -43 31 -66t72 -23q39 0 57.5 20t18.5 48q0 31 -24 46.5t-81 32.5q-163 48 -163 149q0 60 53 96t132 36q69 0 122 -26.5t53 -76.5q0 -49 -50 -49q-45 0 -45 36q0 35 -24 56.5t-65 21.5
q-31 0 -49 -15.5t-18 -41.5q0 -31 23 -48t67 -30q89 -27 119 -46q62 -38 62 -103q0 -69 -58 -106.5t-145 -37.5z" />
    <glyph glyph-name="t" unicode="t" horiz-adv-x="342" 
d="M220 -5q-137 0 -137 153v235q0 15 -6 21t-21 6h-41v29q64 9 96 37t45 83h47v-81q0 -27 27 -27h88v-41h-88q-27 0 -27 -27v-257q0 -83 50 -83q32 0 52 16l17 -31q-37 -33 -102 -33z" />
    <glyph glyph-name="u" unicode="u" 
d="M235 -6q-146 0 -146 176v174q0 34 -14.5 45.5t-49.5 8.5v34l140 26q44 8 44 -35v-227q0 -57 23.5 -90.5t68.5 -33.5q48 0 75.5 34t27.5 90v148q0 34 -14.5 45.5t-49.5 8.5v34l140 26q44 8 44 -35v-334q0 -49 51 -38v-34q-28 -22 -83 -22q-67 0 -83 62q-3 17 -12 17
q-6 0 -14 -10q-57 -70 -148 -70z" />
    <glyph glyph-name="v" unicode="v" horiz-adv-x="550" 
d="M220 0l-129 332q-16 39 -32 56.5t-49 28.5v34h236v-34q-38 -11 -43.5 -27.5t12.5 -57.5l82 -209q4 -10 9 -14t10 0t9 14l43 112q28 73 32 110t-8.5 50.5t-46.5 21.5v34h195v-34q-44 -11 -62 -27.5t-34 -57.5l-130 -332h-94z" />
    <glyph glyph-name="w" unicode="w" horiz-adv-x="810" 
d="M210 0l-119 332q-14 39 -31 56t-50 29v34h234v-34q-38 -11 -43 -27.5t11 -57.5l72 -209q3 -10 8.5 -14t11.5 0t9 14l35 110q23 69 7 120q-16 47 -64 64v34h234v-34q-38 -11 -43 -27.5t11 -57.5l72 -209q3 -10 9 -14t11.5 0t8.5 14l36 112q25 76 28.5 112t-8 49t-45.5 21
v34h195v-34q-45 -11 -64 -28t-33 -57l-119 -332h-93l-94 263l-94 -263h-93z" />
    <glyph glyph-name="x" unicode="x" horiz-adv-x="510" 
d="M495 417q-43 -12 -72.5 -33t-65.5 -63l-60 -70l93 -126q31 -43 52 -61t53 -30v-34h-227v34q20 5 29 11t6 18.5t-10 24t-26 37.5l-36 49q-34 -41 -50.5 -65t-19.5 -39.5t5.5 -22.5t29.5 -13v-34h-181v34q43 12 72.5 33t65.5 63l60 70l-93 126q-31 43 -52 61t-53 30v34h227
v-34q-20 -5 -29 -11t-6 -18.5t10 -24t26 -37.5l36 -49q34 41 50.5 64.5t19.5 39.5t-5.5 23t-29.5 13v34h181v-34z" />
    <glyph glyph-name="y" unicode="y" horiz-adv-x="552" 
d="M143 -198q-47 0 -76 20.5t-29 54.5q0 24 15.5 41t43.5 17q25 0 37.5 -14.5t14 -31.5t8.5 -31.5t22 -14.5q28 0 45 47q20 52 -7 120l-126 322q-16 39 -32 56.5t-49 28.5v34h236v-34q-39 -11 -44.5 -27.5t12.5 -57.5l84 -209q4 -10 9 -14t10 0t9 14l43 112q28 73 32.5 110
t-8 50.5t-46.5 21.5v34h195v-34q-44 -11 -62 -27.5t-34 -57.5l-153 -391q-29 -76 -62 -107.5t-88 -31.5z" />
    <glyph glyph-name="z" unicode="z" horiz-adv-x="460" 
d="M15 0l271 408h-130q-36 0 -55.5 -21t-30.5 -61h-34l18 125h391l-271 -408h138q36 0 55.5 21t30.5 61h34l-18 -125h-399z" />
    <glyph glyph-name="braceleft" unicode="{" horiz-adv-x="289" 
d="M218 43q0 -61 1.5 -88t12 -55t32.5 -39l-38 -27q-48 19 -75 53.5t-34.5 69.5t-7.5 86v175q0 22 -12 32.5t-52 28.5v33q40 18 52 28.5t12 32.5v175q0 51 7.5 86t34.5 69.5t75 53.5l38 -27q-31 -16 -38.5 -55t-7.5 -127v-150q0 -79 -84 -101v-3q84 -22 84 -101v-150z" />
    <glyph glyph-name="bar" unicode="|" horiz-adv-x="239" 
d="M100 800h39v-1015h-39v1015z" />
    <glyph glyph-name="braceright" unicode="}" horiz-adv-x="289" 
d="M71 43v150q0 79 84 101v3q-84 22 -84 101v150q0 61 -1.5 88t-12 55t-32.5 39l38 27q48 -19 75 -53.5t34.5 -69.5t7.5 -86v-175q0 -22 12 -32.5t52 -28.5v-33q-40 -18 -52 -28.5t-12 -32.5v-175q0 -51 -7.5 -86t-34.5 -69.5t-75 -53.5l-38 27q31 16 38.5 55t7.5 127z" />
    <glyph glyph-name="asciitilde" unicode="~" horiz-adv-x="507" 
d="M457 300h-34q0 -24 -14 -36t-35 -12q-24 0 -92 35.5t-115 35.5q-54 0 -85.5 -32.5t-31.5 -90.5h34q0 23 14.5 35.5t34.5 12.5q24 0 92 -35.5t115 -35.5q54 0 85.5 32.5t31.5 90.5z" />
    <glyph glyph-name="exclamdown" unicode="&#xa1;" horiz-adv-x="238" 
d="M119 456q28 0 48 -20.5t20 -48.5t-20 -48t-48 -20t-48 20t-20 48t20 48.5t48 20.5zM93 248h52q2 -88 25 -201t23 -154q0 -36 -20.5 -58t-53.5 -22t-53.5 22t-20.5 58q0 41 23 154t25 201z" />
    <glyph glyph-name="cent" unicode="&#xa2;" horiz-adv-x="503" 
d="M443 115l25 -21q-19 -36 -67.5 -68t-120.5 -32q-40 0 -79 11l-18 -66h-26l20 73q-66 25 -106.5 80t-40.5 133q0 75 38.5 130t95 80t120.5 25h15l16 59h26l-17 -62q63 -10 102 -45.5t39 -76.5q0 -27 -14 -45t-43 -18q-28 0 -45 17.5t-17 40.5q0 62 -34 82l-85 -311
q46 -38 111 -38t105 52zM158 268q0 -91 48 -147l82 299q-12 2 -19 2q-53 0 -82 -42t-29 -112z" />
    <glyph glyph-name="sterling" unicode="&#xa3;" horiz-adv-x="560" 
d="M503 63q-8 -47 4 -63h-465v73q47 27 69.5 52t22.5 58q0 23 -9 47h-85v27h75q-6 15 -21 47.5t-24 53.5t-17 50.5t-8 55.5q0 80 64.5 126.5t167.5 46.5q108 0 170 -49.5t62 -124.5q0 -44 -21.5 -70t-57.5 -26q-25 0 -44.5 13.5t-19.5 41.5q0 12 7 33.5t7 39.5
q0 44 -28 73.5t-74 29.5q-49 0 -74 -32.5t-25 -76.5q0 -42 36 -119.5t41 -112.5h162v-27h-161q-3 -46 -34 -76.5t-81 -54.5h196q70 0 102.5 14.5t45.5 55.5h34z" />
    <glyph glyph-name="currency" unicode="&#xa4;" horiz-adv-x="575" 
d="M495 228q0 -69 -41 -124l71 -70l-46 -46l-71 70q-57 -39 -122 -39q-66 0 -120 38l-70 -69l-46 46l70 69q-41 55 -41 125q0 68 40 122l-69 68l46 47l69 -69q54 40 121 40q69 0 123 -41l70 70l46 -47l-70 -69q40 -54 40 -121zM146 228q0 -59 40.5 -102t99.5 -43
q58 0 100 43t42 102t-42 101.5t-100 42.5q-59 0 -99.5 -42.5t-40.5 -101.5z" />
    <glyph glyph-name="yen" unicode="&#xa5;" horiz-adv-x="671" 
d="M453 621h203v-33q-32 -3 -56 -25t-50 -62l-127 -196q-9 -15 -14 -32h130v-27h-134v-19v-42h134v-27h-134v-65q0 -28 20 -41.5t69 -18.5v-33h-314v33q49 5 69 18.5t20 41.5v65h-136v27h136v42q0 13 -1 19h-135v27h129q-4 12 -14 27l-121 186q-34 53 -57 75.5t-55 26.5v33
h274v-33q-74 -10 -29 -79l110 -172q7 -12 14 0l112 173q21 32 9.5 53t-52.5 25v33z" />
    <glyph glyph-name="brokenbar" unicode="&#xa6;" horiz-adv-x="239" 
d="M100 451v349h39v-349h-39zM100 -215v349h39v-349h-39z" />
    <glyph glyph-name="section" unicode="&#xa7;" horiz-adv-x="517" 
d="M406 96q76 -48 76 -133q0 -44 -20.5 -77t-55.5 -51t-74 -26.5t-82 -8.5q-118 0 -194 48q-22 49 -19.5 97t31.5 48q8 0 11.5 -4t8.5 -16q24 -64 73 -97t109 -33q48 0 72 21.5t24 59.5q0 20 -9 36t-20 26t-35.5 21t-39 16t-47.5 15q-180 56 -180 186q0 81 73 115
q-73 53 -73 135q0 76 59.5 119.5t152.5 43.5q53 0 104.5 -12.5t82.5 -32.5q21 -49 19 -97t-32 -48q-8 0 -11.5 3.5t-8.5 15.5q-22 62 -68 95t-100 33q-47 0 -69.5 -23.5t-22.5 -54.5q0 -44 32 -68t98 -45q36 -11 57.5 -19t54.5 -24.5t51.5 -34.5t33 -47.5t14.5 -64.5
q0 -83 -76 -117zM141 266q0 -44 32 -68t98 -45q53 -17 80 -28q15 19 15 49q0 20 -9 36t-20 26t-35.5 21t-39 16t-47.5 15q-29 8 -60 23q-14 -20 -14 -45z" />
    <glyph glyph-name="dieresis" unicode="&#xa8;" horiz-adv-x="456" 
d="M121 528q-29 0 -50 20.5t-21 49.5q0 30 21 50.5t50 20.5t49.5 -20.5t20.5 -50.5q0 -29 -20.5 -49.5t-49.5 -20.5zM336 528q-29 0 -50 20.5t-21 49.5q0 30 21 50.5t50 20.5t49.5 -20.5t20.5 -50.5q0 -29 -20.5 -49.5t-49.5 -20.5z" />
    <glyph glyph-name="copyright" unicode="&#xa9;" horiz-adv-x="720" 
d="M360 -10q-141 0 -235.5 92.5t-94.5 231.5q0 138 94.5 230.5t235.5 92.5t235.5 -92.5t94.5 -230.5q0 -139 -94.5 -231.5t-235.5 -92.5zM360 24q125 0 209.5 83t84.5 207q0 123 -84.5 206t-209.5 83t-209.5 -83t-84.5 -206q0 -124 84.5 -207t209.5 -83zM371 123
q-80 0 -138 50t-58 136q0 89 60 137.5t140 48.5q63 0 104.5 -30.5t41.5 -69.5q0 -22 -11.5 -37.5t-35.5 -15.5q-25 0 -38 14.5t-13 34.5q0 70 -60 70q-41 0 -61.5 -32.5t-20.5 -86.5q0 -74 38 -118t100 -44q48 0 81 42l22 -18q-15 -30 -53.5 -55.5t-97.5 -25.5z" />
    <glyph glyph-name="ordfeminine" unicode="&#xaa;" horiz-adv-x="358" 
d="M130 326q-42 -1 -71 18t-29 59q0 39 39 64t144 41v9q0 81 -46 81q-36 0 -36 -34q0 -44 -48 -44q-18 0 -27.5 10t-9.5 24q0 33 43.5 53t97.5 20q55 0 80.5 -26t25.5 -83v-110q0 -24 7 -31.5t28 0.5v-33q-26 -20 -62.5 -11.5t-44.5 46.5q-29 -51 -91 -53zM149 370
q27 0 45.5 22t18.5 52v33q-43 -7 -66.5 -21t-28.5 -25t-5 -27q0 -34 36 -34zM54 229v41h249v-41h-249z" />
    <glyph glyph-name="guillemotleft" unicode="&#xab;" horiz-adv-x="460" 
d="M50 274l162 144l22 -21l-84 -123l84 -123l-22 -21zM226 274l162 144l22 -21l-84 -123l84 -123l-22 -21z" />
    <glyph glyph-name="logicalnot" unicode="&#xac;" horiz-adv-x="539" 
d="M489 381v-238h-39v199h-400v39h439z" />
    <glyph glyph-name="uni00AD" unicode="&#xad;" horiz-adv-x="370" 
d="M50 287h270v-63h-270v63z" />
    <glyph glyph-name="registered" unicode="&#xae;" horiz-adv-x="720" 
d="M360 -10q-141 0 -235.5 92.5t-94.5 231.5q0 138 94.5 230.5t235.5 92.5t235.5 -92.5t94.5 -230.5q0 -139 -94.5 -231.5t-235.5 -92.5zM360 24q125 0 209.5 83t84.5 207q0 123 -84.5 206t-209.5 83t-209.5 -83t-84.5 -206q0 -124 84.5 -207t209.5 -83zM499 222
q10 -37 20.5 -55.5t29.5 -18.5v-23h-32q-50 0 -73.5 23t-42.5 80q-11 34 -26 47t-41 13q-21 0 -29 -7.5t-8 -24.5v-71q0 -31 40 -37v-23h-162v23q39 6 39 37v257q0 31 -39 37v23h197q68 0 108 -27t40 -76q0 -70 -93 -94q-3 -1 -3 -3.5t3 -3.5q54 -13 72 -76zM357 320
q41 0 59.5 22.5t18.5 55.5q0 32 -17 52t-53 20h-41q-27 0 -27 -28v-90q0 -17 7.5 -24.5t26.5 -7.5h26z" />
    <glyph glyph-name="macron" unicode="&#xaf;" horiz-adv-x="439" 
d="M58 632q0 17 20 17h283q20 0 20 -17v-32q0 -17 -20 -17h-283q-20 0 -20 17v32z" />
    <glyph glyph-name="degree" unicode="&#xb0;" horiz-adv-x="308" 
d="M154 397q-51 0 -87.5 35.5t-36.5 84.5t36.5 84.5t87.5 35.5t87.5 -35.5t36.5 -84.5t-36.5 -84.5t-87.5 -35.5zM154 446q31 0 49.5 20.5t18.5 50.5t-18.5 50.5t-49.5 20.5t-49.5 -20.5t-18.5 -50.5t18.5 -50.5t49.5 -20.5z" />
    <glyph glyph-name="plusminus" unicode="&#xb1;" horiz-adv-x="470" 
d="M255 372h165v-39h-165v-166h-39v166h-166v39h166v166h39v-166zM50 0v39h370v-39h-370z" />
    <glyph glyph-name="uni00B2" unicode="&#xb2;" horiz-adv-x="296" 
d="M40 387q15 75 100 127q46 28 46 56q0 16 -10.5 26t-25.5 10q-30 0 -36 -22q-3 -10 0 -21.5t2 -16.5q-7 -15 -23.5 -17.5t-30 6t-13.5 21.5q0 36 26 60.5t74 24.5q45 0 69 -20.5t24 -55.5q0 -17 -6 -30.5t-20.5 -25.5t-22 -16.5t-26.5 -16.5q-25 -14 -33.5 -21.5
t-12.5 -21.5h75q16 0 21 8l9 13h30l-10 -53q-3 -14 -21 -14h-185z" />
    <glyph glyph-name="uni00B3" unicode="&#xb3;" horiz-adv-x="287" 
d="M138 383q-47 0 -75 23.5t-28 55.5q0 25 27 25q15 0 21 -5.5t8 -20t3 -17.5q10 -28 43 -28q21 0 34.5 15.5t12.5 33.5q1 31 -19.5 37t-46.5 -8l-15 30l24 11q36 13 36 44q0 29 -32 29q-19 0 -26.5 -18.5t-1.5 -38.5l-48 6q-12 5 -12 14q-1 31 23.5 51t68.5 20t68.5 -19.5
t24.5 -41.5q0 -29 -30 -43q49 -16 49 -66q0 -38 -30 -63.5t-79 -25.5z" />
    <glyph glyph-name="acute" unicode="&#xb4;" horiz-adv-x="307" 
d="M60 573q-18 -20 -5 -35t34 -2l121 72q33 20 43 42.5t-10 48.5q-39 40 -89 -17z" />
    <glyph glyph-name="paragraph" unicode="&#xb6;" horiz-adv-x="826" 
d="M796 588q-69 -9 -69 -60v-528q0 -51 69 -60v-33h-514v33q69 9 69 60v151q0 28 -12.5 40.5t-42.5 12.5h-35q-110 0 -170.5 59t-60.5 153q0 93 60 149t171 56h535v-33zM591 0v528q0 28 -14.5 44t-37.5 16t-37.5 -16t-14.5 -44v-528q0 -28 14.5 -44t37.5 -16t37.5 16
t14.5 44z" />
    <glyph glyph-name="periodcentered" unicode="&#xb7;" horiz-adv-x="236" 
d="M118 230q-28 0 -48 20.5t-20 48.5t20 48t48 20t48 -20t20 -48t-20 -48.5t-48 -20.5z" />
    <glyph glyph-name="cedilla" unicode="&#xb8;" horiz-adv-x="285" 
d="M134 -230q-53 0 -86 22t-33 53q0 30 27.5 41.5t51.5 -13.5q0 -24 10.5 -45.5t34.5 -21.5t37 20t13 46q0 49 -39 49q-8 0 -22.5 -4t-22.5 -4q-16 0 -22.5 11t0.5 25l25 51h78l-21 -45q41 3 73 -21t32 -64q0 -47 -40.5 -73.5t-95.5 -26.5z" />
    <glyph glyph-name="uni00B9" unicode="&#xb9;" horiz-adv-x="183" 
d="M32 392v33q29 2 29 18v143l-31 -10v39l56 25q13 6 26 0t12 -15v-182q0 -16 29 -18v-33h-121z" />
    <glyph glyph-name="ordmasculine" unicode="&#xba;" horiz-adv-x="356" 
d="M178 327q-61 0 -104.5 42t-43.5 108q0 67 43 108t105 42t105 -41t43 -109t-43 -108.5t-105 -41.5zM187 360q26 0 42 25.5t16 72.5q0 56 -22 96.5t-54 40.5q-25 0 -41.5 -26.5t-16.5 -73.5q0 -55 22 -95t54 -40zM54 229v41h249v-41h-249z" />
    <glyph glyph-name="guillemotright" unicode="&#xbb;" horiz-adv-x="460" 
d="M234 274l-162 -144l-22 21l84 123l-84 123l22 21zM410 274l-162 -144l-22 21l84 123l-84 123l22 21z" />
    <glyph glyph-name="onequarter" unicode="&#xbc;" horiz-adv-x="628" 
d="M32 425q29 2 29 18v143l-31 -10v39l56 25q13 6 26 0t12 -15v-182q0 -16 29 -18v-33h-121v33zM465 636h73l-432 -641h-73zM588 60h-35v-25q0 -18 25 -18v-23h-114v23q24 0 24 18v25h-100v35l123 150q9 11 25.5 7t16.5 -16v-141h35v-35zM433 95h55v67z" />
    <glyph glyph-name="onehalf" unicode="&#xbd;" horiz-adv-x="659" 
d="M32 392v33q29 2 29 18v143l-31 -10v39l56 25q13 6 26 0t12 -15v-182q0 -16 29 -18v-33h-121zM33 -5l432 641h73l-432 -641h-73zM403 -6q15 75 100 127q46 28 46 56q0 16 -10.5 26t-25.5 10q-30 0 -36 -22q-3 -10 0 -21.5t2 -16.5q-7 -15 -23.5 -17.5t-30 6t-13.5 21.5
q0 36 26 60.5t74 24.5q45 0 69 -20.5t24 -55.5q0 -17 -6 -30.5t-20.5 -25.5t-22 -16.5t-26.5 -16.5q-25 -14 -33.5 -21.5t-12.5 -21.5h75q16 0 21 8l9 13h30l-10 -53q-3 -14 -21 -14h-185z" />
    <glyph glyph-name="threequarters" unicode="&#xbe;" horiz-adv-x="705" 
d="M247 472q0 -38 -30 -63.5t-79 -25.5q-47 0 -75 23.5t-28 55.5q0 25 27 25q15 0 21 -5.5t8 -20t3 -17.5q10 -28 43 -28q21 0 34.5 15.5t12.5 33.5q1 31 -19.5 37t-46.5 -8l-15 30l24 11q36 13 36 44q0 29 -32 29q-19 0 -26.5 -18.5t-1.5 -38.5l-48 6q-12 5 -12 14
q-1 31 23.5 51t68.5 20t68.5 -19.5t24.5 -41.5q0 -29 -30 -43q49 -16 49 -66zM562 636h73l-432 -641h-73zM665 60h-35v-25q0 -18 25 -18v-23h-114v23q24 0 24 18v25h-100v35l123 150q9 11 25.5 7t16.5 -16v-141h35v-35zM510 95h55v67z" />
    <glyph glyph-name="questiondown" unicode="&#xbf;" horiz-adv-x="487" 
d="M248 559q28 0 48 -20.5t20 -48.5t-20 -48t-48 -20t-48 20t-20 48t20 48.5t48 20.5zM452 87q0 47 -23 74t-55 27q-25 0 -44 -16t-19 -39q0 -14 14.5 -42t14.5 -50q0 -35 -25 -56.5t-64 -21.5q-45 0 -73.5 28t-28.5 69q0 28 15 53.5t35 46.5t39.5 46.5t30 65.5t4.5 91h-49
q-3 -40 -24 -71.5t-48 -53t-53.5 -43t-45 -52.5t-18.5 -71q0 -71 55.5 -113.5t146.5 -42.5q98 0 156.5 48.5t58.5 122.5z" />
    <glyph glyph-name="Agrave" unicode="&#xc0;" horiz-adv-x="725" 
d="M247 778q-33 20 -43 42.5t10 48.5q39 40 89 -17l94 -109q18 -20 5 -35t-34 -2zM609 150q34 -75 48 -91q18 -20 48 -27v-32h-267v33q42 6 50 27t-9 52l-16 35q-17 27 -55 27h-165q-41 0 -57 -30l-11 -26q-31 -71 67 -85v-33h-222v33q39 8 60 29t40 64l174 396q25 56 25 99
l75 7zM406 219q9 0 14 6t0 17l-87 194q-9 23 -19 0l-86 -197q-3 -10 1.5 -15t13.5 -5h163zM183 137v1v-1z" />
    <glyph glyph-name="Aacute" unicode="&#xc1;" horiz-adv-x="725" 
d="M350 706q-21 -13 -34 2t5 35l94 109q50 57 89 17q20 -26 10 -48.5t-43 -42.5zM609 150q34 -75 48 -91q18 -20 48 -27v-32h-267v33q42 6 50 27t-9 52l-16 35q-17 27 -55 27h-165q-41 0 -57 -30l-11 -26q-31 -71 67 -85v-33h-222v33q39 8 60 29t40 64l174 396q25 56 25 99
l75 7zM406 219q9 0 14 6t0 17l-87 194q-9 23 -19 0l-86 -197q-3 -10 1.5 -15t13.5 -5h163zM183 137v1v-1z" />
    <glyph glyph-name="Acircumflex" unicode="&#xc2;" horiz-adv-x="725" 
d="M351 794l-123 -84l-21 22l144 162l144 -162l-21 -22zM609 150q34 -75 48 -91q18 -20 48 -27v-32h-267v33q42 6 50 27t-9 52l-16 35q-17 27 -55 27h-165q-41 0 -57 -30l-11 -26q-31 -71 67 -85v-33h-222v33q39 8 60 29t40 64l174 396q25 56 25 99l75 7zM406 219q9 0 14 6
t0 17l-87 194q-9 23 -19 0l-86 -197q-3 -10 1.5 -15t13.5 -5h163zM183 137v1v-1z" />
    <glyph glyph-name="Atilde" unicode="&#xc3;" horiz-adv-x="725" 
d="M237 774q-19 0 -33 -12t-14 -34h-32q0 56 30 87t81 31q45 0 110 -34t87 -34q47 0 47 46h32q0 -56 -29.5 -87t-81.5 -31q-45 0 -110 34t-87 34zM609 150q34 -75 48 -91q18 -20 48 -27v-32h-267v33q42 6 50 27t-9 52l-16 35q-17 27 -55 27h-165q-41 0 -57 -30l-11 -26
q-31 -71 67 -85v-33h-222v33q39 8 60 29t40 64l174 396q25 56 25 99l75 7zM406 219q9 0 14 6t0 17l-87 194q-9 23 -19 0l-86 -197q-3 -10 1.5 -15t13.5 -5h163zM183 137v1v-1z" />
    <glyph glyph-name="Adieresis" unicode="&#xc4;" horiz-adv-x="725" 
d="M244 698q-29 0 -50 20.5t-21 49.5q0 30 21 50.5t50 20.5t49.5 -20.5t20.5 -50.5q0 -29 -20.5 -49.5t-49.5 -20.5zM459 698q-29 0 -50 20.5t-21 49.5q0 30 21 50.5t50 20.5t49.5 -20.5t20.5 -50.5q0 -29 -20.5 -49.5t-49.5 -20.5zM609 150q34 -75 48 -91q18 -20 48 -27
v-32h-267v33q42 6 50 27t-9 52l-16 35q-17 27 -55 27h-165q-41 0 -57 -30l-11 -26q-31 -71 67 -85v-33h-222v33q39 8 60 29t40 64l174 396q25 56 25 99l75 7zM406 219q9 0 14 6t0 17l-87 194q-9 23 -19 0l-86 -197q-3 -10 1.5 -15t13.5 -5h163zM183 137v1v-1z" />
    <glyph glyph-name="Aring" unicode="&#xc5;" horiz-adv-x="725" 
d="M351 710q-43 0 -72.5 28.5t-29.5 69.5t29.5 70t72.5 29t72.5 -29t29.5 -70t-29.5 -69.5t-72.5 -28.5zM351 854q-20 0 -32 -13.5t-12 -32.5q0 -20 12 -32.5t32 -12.5t32 12.5t12 32.5q0 19 -12 32.5t-32 13.5zM609 150q34 -75 48 -91q18 -20 48 -27v-32h-267v33
q42 6 50 27t-9 52l-16 35q-17 27 -55 27h-165q-41 0 -57 -30l-11 -26q-31 -71 67 -85v-33h-222v33q39 8 60 29t40 64l174 396q25 56 25 99l75 7zM406 219q9 0 14 6t0 17l-87 194q-9 23 -19 0l-86 -197q-3 -10 1.5 -15t13.5 -5h163zM183 137v1v-1z" />
    <glyph glyph-name="AE" unicode="&#xc6;" horiz-adv-x="970" 
d="M927 132h23q-21 -41 -30 -118q-2 -14 -16 -14h-500v33q69 9 69 60v88h-201q-20 0 -33 -7t-26 -27l-31 -49q-18 -33 -6 -46.5t59 -19.5v-32h-215v32q39 8 59 20.5t42 47.5l266 419q35 56 17 69v33h485q13 0 14 -11q6 -60 21 -123h-23q-23 47 -51.5 68t-74.5 21h-103
q-33 0 -48 -12.5t-15 -40.5v-133q0 -28 15 -40.5t48 -12.5h65q52 0 70.5 15.5t24.5 55.5h19v-187h-19q-7 39 -25 55t-70 16h-65q-33 0 -48 -12.5t-15 -40.5v-142q0 -28 16 -40.5t54 -12.5l111 1q80 1 113 51zM300 226h173v302q0 22 -12 36q5 -17 -17 -52l-165 -260
q-8 -14 -1.5 -20t22.5 -6z" />
    <glyph glyph-name="Ccedilla" unicode="&#xc7;" horiz-adv-x="659" 
d="M436 69q96 0 165 77l23 -19q-25 -48 -89 -91t-160 -46l-16 -35q41 3 73 -21t32 -64q0 -47 -40.5 -73.5t-95.5 -26.5q-53 0 -86 22t-33 53q0 30 27.5 41.5t51.5 -13.5q0 -24 10.5 -45.5t34.5 -21.5t37 20t13 46q0 49 -39 49q-8 0 -22.5 -4t-22.5 -4q-16 0 -22.5 11t0.5 25
l23 47q-116 20 -193 103.5t-77 210.5q0 149 102.5 238t245.5 89q113 0 179.5 -50.5t66.5 -114.5q0 -33 -19.5 -57t-57.5 -24q-35 0 -55.5 21.5t-20.5 55.5q0 53 -29.5 92.5t-92.5 39.5q-75 0 -124 -65t-49 -175q0 -133 77 -212t183 -79z" />
    <glyph glyph-name="Egrave" unicode="&#xc8;" horiz-adv-x="596" 
d="M353 743l-94 109q-50 57 -89 17q-20 -26 -10 -48.5t43 -42.5l121 -72q21 -13 34 2t-5 35zM30 0v33q69 9 69 60v435q0 51 -69 60v33h485q13 0 14 -11q6 -60 21 -123h-23q-23 47 -51.5 68t-74.5 21h-103q-33 0 -48 -12.5t-15 -40.5v-133q0 -28 15 -40.5t48 -12.5h65
q52 0 70.5 15.5t24.5 55.5h19v-187h-19q-7 39 -25 55t-70 16h-65q-33 0 -48 -12.5t-15 -40.5v-142q0 -28 16 -40.5t54 -12.5l111 1q80 1 113 51l24 36h23q-21 -41 -30 -118q-2 -14 -16 -14h-500z" />
    <glyph glyph-name="Eacute" unicode="&#xc9;" horiz-adv-x="596" 
d="M277 743q-18 -20 -5 -35t34 -2l121 72q33 20 43 42.5t-10 48.5q-39 40 -89 -17zM30 0v33q69 9 69 60v435q0 51 -69 60v33h485q13 0 14 -11q6 -60 21 -123h-23q-23 47 -51.5 68t-74.5 21h-103q-33 0 -48 -12.5t-15 -40.5v-133q0 -28 15 -40.5t48 -12.5h65q52 0 70.5 15.5
t24.5 55.5h19v-187h-19q-7 39 -25 55t-70 16h-65q-33 0 -48 -12.5t-15 -40.5v-142q0 -28 16 -40.5t54 -12.5l111 1q80 1 113 51l24 36h23q-21 -41 -30 -118q-2 -14 -16 -14h-500z" />
    <glyph glyph-name="Ecircumflex" unicode="&#xca;" horiz-adv-x="596" 
d="M307 894l144 -162l-21 -22l-123 84l-123 -84l-21 22zM30 0v33q69 9 69 60v435q0 51 -69 60v33h485q13 0 14 -11q6 -60 21 -123h-23q-23 47 -51.5 68t-74.5 21h-103q-33 0 -48 -12.5t-15 -40.5v-133q0 -28 15 -40.5t48 -12.5h65q52 0 70.5 15.5t24.5 55.5h19v-187h-19
q-7 39 -25 55t-70 16h-65q-33 0 -48 -12.5t-15 -40.5v-142q0 -28 16 -40.5t54 -12.5l111 1q80 1 113 51l24 36h23q-21 -41 -30 -118q-2 -14 -16 -14h-500z" />
    <glyph glyph-name="Edieresis" unicode="&#xcb;" horiz-adv-x="596" 
d="M200 698q-29 0 -50 20.5t-21 49.5q0 30 21 50.5t50 20.5t49.5 -20.5t20.5 -50.5q0 -29 -20.5 -49.5t-49.5 -20.5zM415 698q-29 0 -50 20.5t-21 49.5q0 30 21 50.5t50 20.5t49.5 -20.5t20.5 -50.5q0 -29 -20.5 -49.5t-49.5 -20.5zM30 0v33q69 9 69 60v435q0 51 -69 60v33
h485q13 0 14 -11q6 -60 21 -123h-23q-23 47 -51.5 68t-74.5 21h-103q-33 0 -48 -12.5t-15 -40.5v-133q0 -28 15 -40.5t48 -12.5h65q52 0 70.5 15.5t24.5 55.5h19v-187h-19q-7 39 -25 55t-70 16h-65q-33 0 -48 -12.5t-15 -40.5v-142q0 -28 16 -40.5t54 -12.5l111 1
q80 1 113 51l24 36h23q-21 -41 -30 -118q-2 -14 -16 -14h-500z" />
    <glyph glyph-name="Igrave" unicode="&#xcc;" horiz-adv-x="334" 
d="M213 743l-94 109q-50 57 -89 17q-20 -26 -10 -48.5t43 -42.5l121 -72q21 -13 34 2t-5 35zM30 0v33q69 9 69 60v435q0 51 -69 60v33h274v-33q-69 -9 -69 -60v-435q0 -51 69 -60v-33h-274z" />
    <glyph glyph-name="Iacute" unicode="&#xcd;" horiz-adv-x="334" 
d="M137 743q-18 -20 -5 -35t34 -2l121 72q33 20 43 42.5t-10 48.5q-39 40 -89 -17zM30 0v33q69 9 69 60v435q0 51 -69 60v33h274v-33q-69 -9 -69 -60v-435q0 -51 69 -60v-33h-274z" />
    <glyph glyph-name="Icircumflex" unicode="&#xce;" horiz-adv-x="334" 
d="M167 894l144 -162l-21 -22l-123 84l-123 -84l-21 22zM30 0v33q69 9 69 60v435q0 51 -69 60v33h274v-33q-69 -9 -69 -60v-435q0 -51 69 -60v-33h-274z" />
    <glyph glyph-name="Idieresis" unicode="&#xcf;" horiz-adv-x="334" 
d="M60 698q-29 0 -50 20.5t-21 49.5q0 30 21 50.5t50 20.5t49.5 -20.5t20.5 -50.5q0 -29 -20.5 -49.5t-49.5 -20.5zM275 698q-29 0 -50 20.5t-21 49.5q0 30 21 50.5t50 20.5t49.5 -20.5t20.5 -50.5q0 -29 -20.5 -49.5t-49.5 -20.5zM30 0v33q69 9 69 60v435q0 51 -69 60v33
h274v-33q-69 -9 -69 -60v-435q0 -51 69 -60v-33h-274z" />
    <glyph glyph-name="Eth" unicode="&#xd0;" horiz-adv-x="696" 
d="M306 621q350 0 350 -305q0 -75 -23 -132.5t-57 -91t-80.5 -55t-87 -28.5t-81.5 -7q-19 0 -81 3t-91 3q-56 0 -125 -8v33q69 9 69 60v200h-68v35h68v200q0 51 -69 60v33h276zM308 42q101 0 150.5 76t49.5 198q0 126 -51.5 195.5t-144.5 69.5h-14q-33 0 -48 -12.5
t-15 -40.5v-200h106v-35h-106v-200q0 -51 73 -51z" />
    <glyph glyph-name="Ntilde" unicode="&#xd1;" horiz-adv-x="704" 
d="M238 774q-19 0 -33 -12t-14 -34h-32q0 56 30 87t81 31q45 0 110 -34t87 -34q47 0 47 46h32q0 -56 -29.5 -87t-81.5 -31q-45 0 -110 34t-87 34zM477 621h197v-33q-69 -9 -69 -60v-528h-54l-393 465v-372q0 -51 69 -60v-33h-197v33q69 9 69 60v435q0 51 -69 60v33h165
l351 -415v322q0 51 -69 60v33z" />
    <glyph glyph-name="Ograve" unicode="&#xd2;" horiz-adv-x="717" 
d="M395 743l-94 109q-50 57 -89 17q-20 -26 -10 -48.5t43 -42.5l121 -72q21 -13 34 2t-5 35zM351 -10q-132 0 -226.5 87.5t-94.5 230.5q0 147 98 238t238 91q132 0 226.5 -87t94.5 -229q0 -148 -98 -239.5t-238 -91.5zM382 37q64 0 109.5 57t45.5 176q0 137 -58.5 228.5
t-143.5 91.5q-64 0 -109.5 -56.5t-45.5 -174.5q0 -139 58.5 -230.5t143.5 -91.5z" />
    <glyph glyph-name="Oacute" unicode="&#xd3;" horiz-adv-x="717" 
d="M319 743q-18 -20 -5 -35t34 -2l121 72q33 20 43 42.5t-10 48.5q-39 40 -89 -17zM351 -10q-132 0 -226.5 87.5t-94.5 230.5q0 147 98 238t238 91q132 0 226.5 -87t94.5 -229q0 -148 -98 -239.5t-238 -91.5zM382 37q64 0 109.5 57t45.5 176q0 137 -58.5 228.5t-143.5 91.5
q-64 0 -109.5 -56.5t-45.5 -174.5q0 -139 58.5 -230.5t143.5 -91.5z" />
    <glyph glyph-name="Ocircumflex" unicode="&#xd4;" horiz-adv-x="717" 
d="M349 894l144 -162l-21 -22l-123 84l-123 -84l-21 22zM351 -10q-132 0 -226.5 87.5t-94.5 230.5q0 147 98 238t238 91q132 0 226.5 -87t94.5 -229q0 -148 -98 -239.5t-238 -91.5zM382 37q64 0 109.5 57t45.5 176q0 137 -58.5 228.5t-143.5 91.5q-64 0 -109.5 -56.5
t-45.5 -174.5q0 -139 58.5 -230.5t143.5 -91.5z" />
    <glyph glyph-name="Otilde" unicode="&#xd5;" horiz-adv-x="717" 
d="M432 706q-45 0 -110 34t-87 34q-19 0 -33 -12t-14 -34h-32q0 56 30 87t81 31q45 0 110 -34t87 -34q47 0 47 46h32q0 -56 -29.5 -87t-81.5 -31zM351 -10q-132 0 -226.5 87.5t-94.5 230.5q0 147 98 238t238 91q132 0 226.5 -87t94.5 -229q0 -148 -98 -239.5t-238 -91.5z
M382 37q64 0 109.5 57t45.5 176q0 137 -58.5 228.5t-143.5 91.5q-64 0 -109.5 -56.5t-45.5 -174.5q0 -139 58.5 -230.5t143.5 -91.5z" />
    <glyph glyph-name="Odieresis" unicode="&#xd6;" horiz-adv-x="717" 
d="M242 698q-29 0 -50 20.5t-21 49.5q0 30 21 50.5t50 20.5t49.5 -20.5t20.5 -50.5q0 -29 -20.5 -49.5t-49.5 -20.5zM457 698q-29 0 -50 20.5t-21 49.5q0 30 21 50.5t50 20.5t49.5 -20.5t20.5 -50.5q0 -29 -20.5 -49.5t-49.5 -20.5zM351 -10q-132 0 -226.5 87.5t-94.5 230.5
q0 147 98 238t238 91q132 0 226.5 -87t94.5 -229q0 -148 -98 -239.5t-238 -91.5zM382 37q64 0 109.5 57t45.5 176q0 137 -58.5 228.5t-143.5 91.5q-64 0 -109.5 -56.5t-45.5 -174.5q0 -139 58.5 -230.5t143.5 -91.5z" />
    <glyph glyph-name="multiply" unicode="&#xd7;" horiz-adv-x="390" 
d="M340 369l-117 -117l117 -118l-28 -27l-117 117l-117 -117l-27 27l117 117l-118 118l28 27l117 -117l118 118z" />
    <glyph glyph-name="Oslash" unicode="&#xd8;" horiz-adv-x="717" 
d="M581 560q106 -91 106 -239t-98 -239.5t-238 -91.5q-107 0 -191 59l-40 -48l-19 16l39 47q-110 92 -110 244q0 147 98 238t238 91q109 0 196 -62l35 43l19 -16zM180 359q0 -112 40 -197l267 323q-60 105 -152 105q-64 0 -109.5 -56.5t-45.5 -174.5zM382 37q64 0 109.5 57
t45.5 176q0 108 -38 190l-266 -322q59 -101 149 -101z" />
    <glyph glyph-name="Ugrave" unicode="&#xd9;" horiz-adv-x="710" 
d="M417 743l-94 109q-50 57 -89 17q-20 -26 -10 -48.5t43 -42.5l121 -72q21 -13 34 2t-5 35zM359 -10q-121 0 -193 68.5t-72 205.5v264q0 51 -69 60v33h274v-33q-69 -9 -69 -60v-250q0 -114 42 -168.5t117 -54.5t121 53t46 164v256q0 50 -73 60v33h202v-33q-73 -10 -73 -60
v-274q0 -124 -65 -194t-188 -70z" />
    <glyph glyph-name="Uacute" unicode="&#xda;" horiz-adv-x="710" 
d="M341 743q-18 -20 -5 -35t34 -2l121 72q33 20 43 42.5t-10 48.5q-39 40 -89 -17zM359 -10q-121 0 -193 68.5t-72 205.5v264q0 51 -69 60v33h274v-33q-69 -9 -69 -60v-250q0 -114 42 -168.5t117 -54.5t121 53t46 164v256q0 50 -73 60v33h202v-33q-73 -10 -73 -60v-274
q0 -124 -65 -194t-188 -70z" />
    <glyph glyph-name="Ucircumflex" unicode="&#xdb;" horiz-adv-x="710" 
d="M371 894l144 -162l-21 -22l-123 84l-123 -84l-21 22zM359 -10q-121 0 -193 68.5t-72 205.5v264q0 51 -69 60v33h274v-33q-69 -9 -69 -60v-250q0 -114 42 -168.5t117 -54.5t121 53t46 164v256q0 50 -73 60v33h202v-33q-73 -10 -73 -60v-274q0 -124 -65 -194t-188 -70z" />
    <glyph glyph-name="Udieresis" unicode="&#xdc;" horiz-adv-x="710" 
d="M264 698q-29 0 -50 20.5t-21 49.5q0 30 21 50.5t50 20.5t49.5 -20.5t20.5 -50.5q0 -29 -20.5 -49.5t-49.5 -20.5zM479 698q-29 0 -50 20.5t-21 49.5q0 30 21 50.5t50 20.5t49.5 -20.5t20.5 -50.5q0 -29 -20.5 -49.5t-49.5 -20.5zM359 -10q-121 0 -193 68.5t-72 205.5v264
q0 51 -69 60v33h274v-33q-69 -9 -69 -60v-250q0 -114 42 -168.5t117 -54.5t121 53t46 164v256q0 50 -73 60v33h202v-33q-73 -10 -73 -60v-274q0 -124 -65 -194t-188 -70z" />
    <glyph glyph-name="Yacute" unicode="&#xdd;" horiz-adv-x="671" 
d="M306 743q-18 -20 -5 -35t34 -2l121 72q33 20 43 42.5t-10 48.5q-39 40 -89 -17zM180 0v33q49 5 69 18.5t20 41.5v134q0 41 -21 73l-121 186q-34 53 -57 75.5t-55 26.5v33h274v-33q-74 -10 -29 -79l110 -172q7 -12 14 0l112 173q21 32 9.5 53t-52.5 25v33h203v-33
q-32 -3 -56 -25t-50 -62l-127 -196q-18 -28 -18 -78v-134q0 -28 20 -41.5t69 -18.5v-33h-314z" />
    <glyph glyph-name="Thorn" unicode="&#xde;" horiz-adv-x="620" 
d="M330 497q132 0 198.5 -50t66.5 -136t-66.5 -136t-198.5 -50h-40q-51 0 -54 -41q4 -43 68 -51v-33h-274v33q69 9 69 60v435q0 51 -69 60v33h274v-33q-63 -8 -68 -50q4 -41 54 -41h40zM330 175q74 0 102 35.5t28 100.5t-28 100.5t-102 35.5h-40q-30 0 -42.5 -12.5
t-12.5 -40.5v-166q0 -28 12.5 -40.5t42.5 -12.5h40z" />
    <glyph glyph-name="germandbls" unicode="&#xdf;" horiz-adv-x="595" 
d="M408 344q64 -13 108 -53.5t44 -109.5q0 -90 -77.5 -136t-200.5 -46v38q151 8 151 147q0 132 -151 132v37q45 0 76 34.5t31 93.5q0 49 -23.5 84t-76.5 35q-50 0 -68 -35t-18 -109v-376q0 -85 -88 -85q-52 0 -95 27v34q34 -8 48.5 0t14.5 33v365q0 86 63 134.5t158 48.5
q92 0 145 -44.5t53 -111.5q0 -46 -25.5 -81.5t-68.5 -55.5z" />
    <glyph glyph-name="agrave" unicode="&#xe0;" horiz-adv-x="520" 
d="M301 573l-94 109q-50 57 -89 17q-20 -26 -10 -48.5t43 -42.5l121 -72q21 -13 34 2t-5 35zM162 -6q-57 0 -94.5 27.5t-37.5 82.5q0 62 60 99.5t203 58.5q21 3 28.5 10.5t7.5 27.5v13q0 110 -84 110q-64 0 -64 -72q0 -30 -18.5 -45.5t-45.5 -15.5t-42 16t-15 40
q0 51 67.5 82.5t155.5 31.5t127 -40t39 -142v-189q0 -49 51 -38v-34q-28 -22 -83 -22q-40 0 -61.5 19.5t-24.5 48.5q-1 9 -6 10t-12 -7q-58 -72 -151 -72zM222 61q46 0 76.5 30.5t30.5 75.5v30q0 18 -8.5 25t-31.5 5q-75 -7 -105.5 -35.5t-30.5 -62.5q0 -30 17.5 -49
t51.5 -19z" />
    <glyph glyph-name="aacute" unicode="&#xe1;" horiz-adv-x="520" 
d="M225 573q-18 -20 -5 -35t34 -2l121 72q33 20 43 42.5t-10 48.5q-39 40 -89 -17zM162 -6q-57 0 -94.5 27.5t-37.5 82.5q0 62 60 99.5t203 58.5q21 3 28.5 10.5t7.5 27.5v13q0 110 -84 110q-64 0 -64 -72q0 -30 -18.5 -45.5t-45.5 -15.5t-42 16t-15 40q0 51 67.5 82.5
t155.5 31.5t127 -40t39 -142v-189q0 -49 51 -38v-34q-28 -22 -83 -22q-40 0 -61.5 19.5t-24.5 48.5q-1 9 -6 10t-12 -7q-58 -72 -151 -72zM222 61q46 0 76.5 30.5t30.5 75.5v30q0 18 -8.5 25t-31.5 5q-75 -7 -105.5 -35.5t-30.5 -62.5q0 -30 17.5 -49t51.5 -19z" />
    <glyph glyph-name="acircumflex" unicode="&#xe2;" horiz-adv-x="520" 
d="M255 724l144 -162l-21 -22l-123 84l-123 -84l-21 22zM162 -6q-57 0 -94.5 27.5t-37.5 82.5q0 62 60 99.5t203 58.5q21 3 28.5 10.5t7.5 27.5v13q0 110 -84 110q-64 0 -64 -72q0 -30 -18.5 -45.5t-45.5 -15.5t-42 16t-15 40q0 51 67.5 82.5t155.5 31.5t127 -40t39 -142
v-189q0 -49 51 -38v-34q-28 -22 -83 -22q-40 0 -61.5 19.5t-24.5 48.5q-1 9 -6 10t-12 -7q-58 -72 -151 -72zM222 61q46 0 76.5 30.5t30.5 75.5v30q0 18 -8.5 25t-31.5 5q-75 -7 -105.5 -35.5t-30.5 -62.5q0 -30 17.5 -49t51.5 -19z" />
    <glyph glyph-name="atilde" unicode="&#xe3;" horiz-adv-x="520" 
d="M338 536q-45 0 -110 34t-87 34q-19 0 -33 -12t-14 -34h-32q0 56 30 87t81 31q45 0 110 -34t87 -34q47 0 47 46h32q0 -56 -29.5 -87t-81.5 -31zM162 -6q-57 0 -94.5 27.5t-37.5 82.5q0 62 60 99.5t203 58.5q21 3 28.5 10.5t7.5 27.5v13q0 110 -84 110q-64 0 -64 -72
q0 -30 -18.5 -45.5t-45.5 -15.5t-42 16t-15 40q0 51 67.5 82.5t155.5 31.5t127 -40t39 -142v-189q0 -49 51 -38v-34q-28 -22 -83 -22q-40 0 -61.5 19.5t-24.5 48.5q-1 9 -6 10t-12 -7q-58 -72 -151 -72zM222 61q46 0 76.5 30.5t30.5 75.5v30q0 18 -8.5 25t-31.5 5
q-75 -7 -105.5 -35.5t-30.5 -62.5q0 -30 17.5 -49t51.5 -19z" />
    <glyph glyph-name="adieresis" unicode="&#xe4;" horiz-adv-x="520" 
d="M148 528q-29 0 -50 20.5t-21 49.5q0 30 21 50.5t50 20.5t49.5 -20.5t20.5 -50.5q0 -29 -20.5 -49.5t-49.5 -20.5zM363 528q-29 0 -50 20.5t-21 49.5q0 30 21 50.5t50 20.5t49.5 -20.5t20.5 -50.5q0 -29 -20.5 -49.5t-49.5 -20.5zM162 -6q-57 0 -94.5 27.5t-37.5 82.5
q0 62 60 99.5t203 58.5q21 3 28.5 10.5t7.5 27.5v13q0 110 -84 110q-64 0 -64 -72q0 -30 -18.5 -45.5t-45.5 -15.5t-42 16t-15 40q0 51 67.5 82.5t155.5 31.5t127 -40t39 -142v-189q0 -49 51 -38v-34q-28 -22 -83 -22q-40 0 -61.5 19.5t-24.5 48.5q-1 9 -6 10t-12 -7
q-58 -72 -151 -72zM222 61q46 0 76.5 30.5t30.5 75.5v30q0 18 -8.5 25t-31.5 5q-75 -7 -105.5 -35.5t-30.5 -62.5q0 -30 17.5 -49t51.5 -19z" />
    <glyph glyph-name="aring" unicode="&#xe5;" horiz-adv-x="520" 
d="M255 540q-43 0 -72.5 28.5t-29.5 69.5t29.5 70t72.5 29t72.5 -29t29.5 -70t-29.5 -69.5t-72.5 -28.5zM255 593q20 0 32 12.5t12 32.5q0 19 -12 32.5t-32 13.5t-32 -13.5t-12 -32.5q0 -20 12 -32.5t32 -12.5zM162 -6q-57 0 -94.5 27.5t-37.5 82.5q0 62 60 99.5t203 58.5
q21 3 28.5 10.5t7.5 27.5v13q0 110 -84 110q-64 0 -64 -72q0 -30 -18.5 -45.5t-45.5 -15.5t-42 16t-15 40q0 51 67.5 82.5t155.5 31.5t127 -40t39 -142v-189q0 -49 51 -38v-34q-28 -22 -83 -22q-40 0 -61.5 19.5t-24.5 48.5q-1 9 -6 10t-12 -7q-58 -72 -151 -72zM222 61
q46 0 76.5 30.5t30.5 75.5v30q0 18 -8.5 25t-31.5 5q-75 -7 -105.5 -35.5t-30.5 -62.5q0 -30 17.5 -49t51.5 -19z" />
    <glyph glyph-name="ae" unicode="&#xe6;" horiz-adv-x="804" 
d="M628 63q69 0 112 52l24 -21q-19 -36 -69.5 -68t-124.5 -32q-117 0 -186 77q-35 31 -61 1q-25 -31 -68.5 -54.5t-92.5 -23.5q-57 0 -94.5 27.5t-37.5 82.5q0 63 60 101t203 58q21 3 28.5 10.5t7.5 26.5v13q0 110 -84 110q-64 0 -64 -72q0 -30 -18.5 -45.5t-45.5 -15.5
t-42 16t-15 40q0 51 67.5 82.5t155.5 31.5q98 0 131 -53q70 53 164 53q82 0 136.5 -40.5t54.5 -106.5q0 -23 -8 -39.5t-21.5 -26.5t-37 -16t-46.5 -8.5t-59 -3.5l-110 -4q-26 -1 -16 -39q19 -54 60 -83.5t97 -29.5zM563 422q-49 0 -75.5 -35t-30.5 -95q-1 -22 7 -32t28 -10
h53q62 0 87 18t25 55q0 40 -25.5 69.5t-68.5 29.5zM329 167v29q0 18 -8.5 25t-31.5 5q-74 -7 -104.5 -34t-30.5 -56q0 -30 20 -49t51 -19q49 0 76.5 28.5t27.5 70.5z" />
    <glyph glyph-name="ccedilla" unicode="&#xe7;" horiz-adv-x="503" 
d="M468 94q-15 -30 -53 -59t-94 -38l-20 -42q41 3 73 -21t32 -64q0 -47 -40.5 -73.5t-95.5 -26.5q-53 0 -86 22t-33 53q0 30 27.5 41.5t51.5 -13.5q0 -24 10.5 -45.5t34.5 -21.5t37 20t13 46q0 49 -39 49q-8 0 -22.5 -4t-22.5 -4q-16 0 -22.5 11t0.5 25l23 47
q-90 11 -151 71t-61 158q0 75 38.5 130t95 80t120.5 25q78 0 129.5 -38.5t51.5 -86.5q0 -27 -14 -45t-43 -18q-28 0 -45 17.5t-17 40.5q0 92 -77 92q-53 0 -82 -42t-29 -112q0 -94 50.5 -149.5t129.5 -55.5q65 0 105 52z" />
    <glyph glyph-name="egrave" unicode="&#xe8;" horiz-adv-x="505" 
d="M147 608q-33 20 -43 42.5t10 48.5q39 40 89 -17l94 -109q18 -20 5 -35t-34 -2zM329 63q69 0 112 52l24 -21q-19 -36 -69.5 -68t-124.5 -32q-100 0 -170.5 61t-70.5 170q0 111 73.5 173t175.5 62q82 0 136.5 -40.5t54.5 -106.5q0 -23 -8 -39.5t-21.5 -26.5t-37 -16
t-46.5 -8.5t-59 -3.5l-110 -4q-26 -1 -16 -39q19 -54 60 -83.5t97 -29.5zM264 422q-49 0 -75.5 -35t-30.5 -95q-1 -22 7.5 -32t27.5 -10h53q62 0 87 18t25 55q0 40 -25.5 69.5t-68.5 29.5z" />
    <glyph glyph-name="eacute" unicode="&#xe9;" horiz-adv-x="505" 
d="M250 536q-21 -13 -34 2t5 35l94 109q50 57 89 17q20 -26 10 -48.5t-43 -42.5zM329 63q69 0 112 52l24 -21q-19 -36 -69.5 -68t-124.5 -32q-100 0 -170.5 61t-70.5 170q0 111 73.5 173t175.5 62q82 0 136.5 -40.5t54.5 -106.5q0 -23 -8 -39.5t-21.5 -26.5t-37 -16
t-46.5 -8.5t-59 -3.5l-110 -4q-26 -1 -16 -39q19 -54 60 -83.5t97 -29.5zM264 422q-49 0 -75.5 -35t-30.5 -95q-1 -22 7.5 -32t27.5 -10h53q62 0 87 18t25 55q0 40 -25.5 69.5t-68.5 29.5z" />
    <glyph glyph-name="ecircumflex" unicode="&#xea;" horiz-adv-x="505" 
d="M251 624l-123 -84l-21 22l144 162l144 -162l-21 -22zM329 63q69 0 112 52l24 -21q-19 -36 -69.5 -68t-124.5 -32q-100 0 -170.5 61t-70.5 170q0 111 73.5 173t175.5 62q82 0 136.5 -40.5t54.5 -106.5q0 -23 -8 -39.5t-21.5 -26.5t-37 -16t-46.5 -8.5t-59 -3.5l-110 -4
q-26 -1 -16 -39q19 -54 60 -83.5t97 -29.5zM264 422q-49 0 -75.5 -35t-30.5 -95q-1 -22 7.5 -32t27.5 -10h53q62 0 87 18t25 55q0 40 -25.5 69.5t-68.5 29.5z" />
    <glyph glyph-name="edieresis" unicode="&#xeb;" horiz-adv-x="505" 
d="M144 528q-29 0 -50 20.5t-21 49.5q0 30 21 50.5t50 20.5t49.5 -20.5t20.5 -50.5q0 -29 -20.5 -49.5t-49.5 -20.5zM359 528q-29 0 -50 20.5t-21 49.5q0 30 21 50.5t50 20.5t49.5 -20.5t20.5 -50.5q0 -29 -20.5 -49.5t-49.5 -20.5zM329 63q69 0 112 52l24 -21
q-19 -36 -69.5 -68t-124.5 -32q-100 0 -170.5 61t-70.5 170q0 111 73.5 173t175.5 62q82 0 136.5 -40.5t54.5 -106.5q0 -23 -8 -39.5t-21.5 -26.5t-37 -16t-46.5 -8.5t-59 -3.5l-110 -4q-26 -1 -16 -39q19 -54 60 -83.5t97 -29.5zM264 422q-49 0 -75.5 -35t-30.5 -95
q-1 -22 7.5 -32t27.5 -10h53q62 0 87 18t25 55q0 40 -25.5 69.5t-68.5 29.5z" />
    <glyph glyph-name="igrave" unicode="&#xec;" horiz-adv-x="297" 
d="M185 573l-94 109q-50 57 -89 17q-20 -26 -10 -48.5t43 -42.5l121 -72q21 -13 34 2t-5 35zM25 0v34q36 3 50 16t14 45v249q0 34 -14.5 45.5t-49.5 8.5v34l140 26q44 8 44 -35v-328q0 -32 14 -45t49 -16v-34h-247z" />
    <glyph glyph-name="iacute" unicode="&#xed;" horiz-adv-x="297" 
d="M109 573q-18 -20 -5 -35t34 -2l121 72q33 20 43 42.5t-10 48.5q-39 40 -89 -17zM25 0v34q36 3 50 16t14 45v249q0 34 -14.5 45.5t-49.5 8.5v34l140 26q44 8 44 -35v-328q0 -32 14 -45t49 -16v-34h-247z" />
    <glyph glyph-name="icircumflex" unicode="&#xee;" horiz-adv-x="297" 
d="M139 724l144 -162l-21 -22l-123 84l-123 -84l-21 22zM25 0v34q36 3 50 16t14 45v249q0 34 -14.5 45.5t-49.5 8.5v34l140 26q44 8 44 -35v-328q0 -32 14 -45t49 -16v-34h-247z" />
    <glyph glyph-name="idieresis" unicode="&#xef;" horiz-adv-x="297" 
d="M32 528q-29 0 -50 20.5t-21 49.5q0 30 21 50.5t50 20.5t49.5 -20.5t20.5 -50.5q0 -29 -20.5 -49.5t-49.5 -20.5zM247 528q-29 0 -50 20.5t-21 49.5q0 30 21 50.5t50 20.5t49.5 -20.5t20.5 -50.5q0 -29 -20.5 -49.5t-49.5 -20.5zM25 0v34q36 3 50 16t14 45v249
q0 34 -14.5 45.5t-49.5 8.5v34l140 26q44 8 44 -35v-328q0 -32 14 -45t49 -16v-34h-247z" />
    <glyph glyph-name="eth" unicode="&#xf0;" horiz-adv-x="583" 
d="M505 89q0 -25 14.5 -33t48.5 0v-34q-43 -27 -95 -27q-82 0 -88 75q-58 -76 -155 -76q-84 0 -142 60.5t-58 164.5q0 111 65.5 176t153.5 65q28 0 54 -7t39.5 -13.5t24.5 -9t14.5 5.5t3.5 32v32q0 10 -2 26l-91 -26l-7 26l91 26q-28 74 -135 69v35h25h26.5t25 -0.5t26.5 -2
t24 -4t25 -6.5t22 -10t21.5 -14t18 -18t16.5 -23l71 20l7 -26l-66 -19q22 -53 22 -143v-321zM288 64q38 0 67.5 26t29.5 82v86q0 78 -39.5 118.5t-87.5 40.5q-49 0 -75.5 -41.5t-26.5 -109.5q0 -83 37 -142.5t95 -59.5z" />
    <glyph glyph-name="ntilde" unicode="&#xf1;" horiz-adv-x="595" 
d="M382 536q-45 0 -110 34t-87 34q-19 0 -33 -12t-14 -34h-32q0 56 30 87t81 31q45 0 110 -34t87 -34q47 0 47 46h32q0 -56 -29.5 -87t-81.5 -31zM491 -5q-42 0 -64.5 21.5t-22.5 61.5v182q0 57 -23.5 90.5t-68.5 33.5q-48 0 -75.5 -34t-27.5 -90v-165q0 -32 14 -45t49 -16
v-34h-247v34q36 3 50 16t14 45v249q0 34 -14.5 45.5t-49.5 8.5v34l140 26q21 4 32.5 -4.5t11.5 -26.5q0 -37 17 -37q7 1 12 7q60 65 141 65q145 0 145 -176v-197q0 -49 51 -38v-34q-28 -22 -84 -22z" />
    <glyph glyph-name="ograve" unicode="&#xf2;" horiz-adv-x="541" 
d="M317 573l-94 109q-50 57 -89 17q-20 -26 -10 -48.5t43 -42.5l121 -72q21 -13 34 2t-5 35zM271 -6q-99 0 -170 62t-71 172t70.5 171t169.5 61t170 -62t71 -172t-70.5 -171t-169.5 -61zM290 32q42 0 67.5 40.5t25.5 116.5q0 96 -37.5 164.5t-94.5 68.5q-43 0 -68 -40
t-25 -117q0 -96 37.5 -164.5t94.5 -68.5z" />
    <glyph glyph-name="oacute" unicode="&#xf3;" horiz-adv-x="541" 
d="M241 573q-18 -20 -5 -35t34 -2l121 72q33 20 43 42.5t-10 48.5q-39 40 -89 -17zM271 -6q-99 0 -170 62t-71 172t70.5 171t169.5 61t170 -62t71 -172t-70.5 -171t-169.5 -61zM290 32q42 0 67.5 40.5t25.5 116.5q0 96 -37.5 164.5t-94.5 68.5q-43 0 -68 -40t-25 -117
q0 -96 37.5 -164.5t94.5 -68.5z" />
    <glyph glyph-name="ocircumflex" unicode="&#xf4;" horiz-adv-x="541" 
d="M271 724l144 -162l-21 -22l-123 84l-123 -84l-21 22zM271 -6q-99 0 -170 62t-71 172t70.5 171t169.5 61t170 -62t71 -172t-70.5 -171t-169.5 -61zM290 32q42 0 67.5 40.5t25.5 116.5q0 96 -37.5 164.5t-94.5 68.5q-43 0 -68 -40t-25 -117q0 -96 37.5 -164.5t94.5 -68.5z
" />
    <glyph glyph-name="otilde" unicode="&#xf5;" horiz-adv-x="541" 
d="M354 536q-45 0 -110 34t-87 34q-19 0 -33 -12t-14 -34h-32q0 56 30 87t81 31q45 0 110 -34t87 -34q47 0 47 46h32q0 -56 -29.5 -87t-81.5 -31zM271 -6q-99 0 -170 62t-71 172t70.5 171t169.5 61t170 -62t71 -172t-70.5 -171t-169.5 -61zM290 32q42 0 67.5 40.5
t25.5 116.5q0 96 -37.5 164.5t-94.5 68.5q-43 0 -68 -40t-25 -117q0 -96 37.5 -164.5t94.5 -68.5z" />
    <glyph glyph-name="odieresis" unicode="&#xf6;" horiz-adv-x="541" 
d="M164 528q-29 0 -50 20.5t-21 49.5q0 30 21 50.5t50 20.5t49.5 -20.5t20.5 -50.5q0 -29 -20.5 -49.5t-49.5 -20.5zM379 528q-29 0 -50 20.5t-21 49.5q0 30 21 50.5t50 20.5t49.5 -20.5t20.5 -50.5q0 -29 -20.5 -49.5t-49.5 -20.5zM271 -6q-99 0 -170 62t-71 172t70.5 171
t169.5 61t170 -62t71 -172t-70.5 -171t-169.5 -61zM290 32q42 0 67.5 40.5t25.5 116.5q0 96 -37.5 164.5t-94.5 68.5q-43 0 -68 -40t-25 -117q0 -96 37.5 -164.5t94.5 -68.5z" />
    <glyph glyph-name="divide" unicode="&#xf7;" horiz-adv-x="470" 
d="M236 347q-24 0 -41 17t-17 41q0 23 17 40t41 17q23 0 40 -17t17 -40q0 -24 -17 -41t-40 -17zM50 271h370v-39h-370v39zM236 41q-24 0 -41 17t-17 41q0 23 17 40t41 17q23 0 40 -17t17 -40q0 -24 -17 -41t-40 -17z" />
    <glyph glyph-name="oslash" unicode="&#xf8;" horiz-adv-x="541" 
d="M433 404q78 -65 78 -178q0 -110 -70.5 -171t-169.5 -61q-80 0 -142 41l-28 -34l-19 16l27 32q-79 66 -79 179q0 110 70.5 171t169.5 61q81 0 143 -41l27 32l19 -16zM158 265q0 -71 22 -129l171 207q-39 79 -100 79q-43 0 -68 -40t-25 -117zM290 32q42 0 67.5 40.5
t25.5 116.5q0 68 -21 128l-171 -207q38 -78 99 -78z" />
    <glyph glyph-name="ugrave" unicode="&#xf9;" 
d="M362 573l-94 109q-50 57 -89 17q-20 -26 -10 -48.5t43 -42.5l121 -72q21 -13 34 2t-5 35zM235 -6q-146 0 -146 176v174q0 34 -14.5 45.5t-49.5 8.5v34l140 26q44 8 44 -35v-227q0 -57 23.5 -90.5t68.5 -33.5q48 0 75.5 34t27.5 90v148q0 34 -14.5 45.5t-49.5 8.5v34
l140 26q44 8 44 -35v-334q0 -49 51 -38v-34q-28 -22 -83 -22q-67 0 -83 62q-3 17 -12 17q-6 0 -14 -10q-57 -70 -148 -70z" />
    <glyph glyph-name="uacute" unicode="&#xfa;" 
d="M264 573q-18 -20 -5 -35t34 -2l121 72q33 20 43 42.5t-10 48.5q-39 40 -89 -17zM235 -6q-146 0 -146 176v174q0 34 -14.5 45.5t-49.5 8.5v34l140 26q44 8 44 -35v-227q0 -57 23.5 -90.5t68.5 -33.5q48 0 75.5 34t27.5 90v148q0 34 -14.5 45.5t-49.5 8.5v34l140 26
q44 8 44 -35v-334q0 -49 51 -38v-34q-28 -22 -83 -22q-67 0 -83 62q-3 17 -12 17q-6 0 -14 -10q-57 -70 -148 -70z" />
    <glyph glyph-name="ucircumflex" unicode="&#xfb;" 
d="M289 724l144 -162l-21 -22l-123 84l-123 -84l-21 22zM235 -6q-146 0 -146 176v174q0 34 -14.5 45.5t-49.5 8.5v34l140 26q44 8 44 -35v-227q0 -57 23.5 -90.5t68.5 -33.5q48 0 75.5 34t27.5 90v148q0 34 -14.5 45.5t-49.5 8.5v34l140 26q44 8 44 -35v-334q0 -49 51 -38
v-34q-28 -22 -83 -22q-67 0 -83 62q-3 17 -12 17q-6 0 -14 -10q-57 -70 -148 -70z" />
    <glyph glyph-name="udieresis" unicode="&#xfc;" 
d="M156 528q-29 0 -50 20.5t-21 49.5q0 30 21 50.5t50 20.5t49.5 -20.5t20.5 -50.5q0 -29 -20.5 -49.5t-49.5 -20.5zM371 528q-29 0 -50 20.5t-21 49.5q0 30 21 50.5t50 20.5t49.5 -20.5t20.5 -50.5q0 -29 -20.5 -49.5t-49.5 -20.5zM235 -6q-146 0 -146 176v174
q0 34 -14.5 45.5t-49.5 8.5v34l140 26q44 8 44 -35v-227q0 -57 23.5 -90.5t68.5 -33.5q48 0 75.5 34t27.5 90v148q0 34 -14.5 45.5t-49.5 8.5v34l140 26q44 8 44 -35v-334q0 -49 51 -38v-34q-28 -22 -83 -22q-67 0 -83 62q-3 17 -12 17q-6 0 -14 -10q-57 -70 -148 -70z" />
    <glyph glyph-name="yacute" unicode="&#xfd;" horiz-adv-x="552" 
d="M246 573q-18 -20 -5 -35t34 -2l121 72q33 20 43 42.5t-10 48.5q-39 40 -89 -17zM143 -198q-47 0 -76 20.5t-29 54.5q0 24 15.5 41t43.5 17q25 0 37.5 -14.5t14 -31.5t8.5 -31.5t22 -14.5q28 0 45 47q20 52 -7 120l-126 322q-16 39 -32 56.5t-49 28.5v34h236v-34
q-39 -11 -44.5 -27.5t12.5 -57.5l84 -209q4 -10 9 -14t10 0t9 14l43 112q28 73 32.5 110t-8 50.5t-46.5 21.5v34h195v-34q-44 -11 -62 -27.5t-34 -57.5l-153 -391q-29 -76 -62 -107.5t-88 -31.5z" />
    <glyph glyph-name="thorn" unicode="&#xfe;" horiz-adv-x="580" 
d="M10 -190v34q36 3 50 16t14 45v635q0 34 -14.5 45.5t-49.5 8.5v34l140 26q44 8 44 -35v-198q0 -11 7 -13t15 6q18 18 53.5 32t79.5 14q85 0 143 -61t58 -165q0 -111 -65.5 -175.5t-152.5 -64.5q-25 0 -50 6t-39.5 12t-26.5 9.5t-17 -1t-5 -20.5v-95q0 -32 14 -45t49 -16
v-34h-247zM322 37q49 0 75.5 41.5t26.5 111.5q0 85 -35.5 142.5t-93.5 57.5q-41 0 -71 -30t-30 -99v-88q0 -69 39.5 -102.5t88.5 -33.5z" />
    <glyph glyph-name="ydieresis" unicode="&#xff;" horiz-adv-x="552" 
d="M169 528q-29 0 -50 20.5t-21 49.5q0 30 21 50.5t50 20.5t49.5 -20.5t20.5 -50.5q0 -29 -20.5 -49.5t-49.5 -20.5zM384 528q-29 0 -50 20.5t-21 49.5q0 30 21 50.5t50 20.5t49.5 -20.5t20.5 -50.5q0 -29 -20.5 -49.5t-49.5 -20.5zM143 -198q-47 0 -76 20.5t-29 54.5
q0 24 15.5 41t43.5 17q25 0 37.5 -14.5t14 -31.5t8.5 -31.5t22 -14.5q28 0 45 47q20 52 -7 120l-126 322q-16 39 -32 56.5t-49 28.5v34h236v-34q-39 -11 -44.5 -27.5t12.5 -57.5l84 -209q4 -10 9 -14t10 0t9 14l43 112q28 73 32.5 110t-8 50.5t-46.5 21.5v34h195v-34
q-44 -11 -62 -27.5t-34 -57.5l-153 -391q-29 -76 -62 -107.5t-88 -31.5z" />
    <glyph glyph-name="Amacron" unicode="&#x100;" horiz-adv-x="725" 
d="M221 753q-20 0 -20 17v32q0 17 20 17h283q20 0 20 -17v-32q0 -17 -20 -17h-283zM609 150q34 -75 48 -91q18 -20 48 -27v-32h-267v33q42 6 50 27t-9 52l-16 35q-17 27 -55 27h-165q-41 0 -57 -30l-11 -26q-31 -71 67 -85v-33h-222v33q39 8 60 29t40 64l174 396
q25 56 25 99l75 7zM406 219q9 0 14 6t0 17l-87 194q-9 23 -19 0l-86 -197q-3 -10 1.5 -15t13.5 -5h163zM183 137v1v-1z" />
    <glyph glyph-name="amacron" unicode="&#x101;" horiz-adv-x="520" 
d="M105 632q0 17 20 17h283q20 0 20 -17v-32q0 -17 -20 -17h-283q-20 0 -20 17v32zM162 -6q-57 0 -94.5 27.5t-37.5 82.5q0 62 60 99.5t203 58.5q21 3 28.5 10.5t7.5 27.5v13q0 110 -84 110q-64 0 -64 -72q0 -30 -18.5 -45.5t-45.5 -15.5t-42 16t-15 40q0 51 67.5 82.5
t155.5 31.5t127 -40t39 -142v-189q0 -49 51 -38v-34q-28 -22 -83 -22q-40 0 -61.5 19.5t-24.5 48.5q-1 9 -6 10t-12 -7q-58 -72 -151 -72zM222 61q46 0 76.5 30.5t30.5 75.5v30q0 18 -8.5 25t-31.5 5q-75 -7 -105.5 -35.5t-30.5 -62.5q0 -30 17.5 -49t51.5 -19z" />
    <glyph glyph-name="Abreve" unicode="&#x102;" horiz-adv-x="725" 
d="M351 716q-62 0 -103.5 36t-41.5 98q0 11 9 11h27q7 0 10 -11q14 -58 99 -58t99 58q3 11 10 11h27q9 0 9 -11q0 -62 -41.5 -98t-103.5 -36zM609 150q34 -75 48 -91q18 -20 48 -27v-32h-267v33q42 6 50 27t-9 52l-16 35q-17 27 -55 27h-165q-41 0 -57 -30l-11 -26
q-31 -71 67 -85v-33h-222v33q39 8 60 29t40 64l174 396q25 56 25 99l75 7zM406 219q9 0 14 6t0 17l-87 194q-9 23 -19 0l-86 -197q-3 -10 1.5 -15t13.5 -5h163zM183 137v1v-1z" />
    <glyph glyph-name="abreve" unicode="&#x103;" horiz-adv-x="520" 
d="M255 546q-62 0 -103.5 36t-41.5 98q0 11 9 11h27q7 0 10 -11q14 -58 99 -58t99 58q3 11 10 11h27q9 0 9 -11q0 -62 -41.5 -98t-103.5 -36zM162 -6q-57 0 -94.5 27.5t-37.5 82.5q0 62 60 99.5t203 58.5q21 3 28.5 10.5t7.5 27.5v13q0 110 -84 110q-64 0 -64 -72
q0 -30 -18.5 -45.5t-45.5 -15.5t-42 16t-15 40q0 51 67.5 82.5t155.5 31.5t127 -40t39 -142v-189q0 -49 51 -38v-34q-28 -22 -83 -22q-40 0 -61.5 19.5t-24.5 48.5q-1 9 -6 10t-12 -7q-58 -72 -151 -72zM222 61q46 0 76.5 30.5t30.5 75.5v30q0 18 -8.5 25t-31.5 5
q-75 -7 -105.5 -35.5t-30.5 -62.5q0 -30 17.5 -49t51.5 -19z" />
    <glyph glyph-name="Aogonek" unicode="&#x104;" horiz-adv-x="725" 
d="M604 0q-89 -59 -89 -114q0 -25 15.5 -41t41.5 -16q52 0 70 55h42q-4 -17 -12 -33t-25 -36.5t-49 -33t-74 -12.5q-51 0 -87.5 24t-36.5 74t44 85t97 48h-103v33q42 6 50 27t-9 52l-16 35q-17 27 -55 27h-165q-41 0 -57 -30l-11 -26q-31 -71 67 -85v-33h-222v33q39 8 60 29
t40 64l174 396q25 56 25 99l75 7l215 -478q34 -75 48 -91q18 -20 48 -27v-32h-101zM406 219q9 0 14 6t0 17l-87 194q-9 23 -19 0l-86 -197q-3 -10 1.5 -15t13.5 -5h163zM183 137v1v-1z" />
    <glyph glyph-name="aogonek" unicode="&#x105;" horiz-adv-x="520" 
d="M443 -3q-49 -12 -77 -34t-28 -62q0 -57 52 -57q46 0 70 58h31q-3 -16 -11.5 -33t-25 -38t-46.5 -34t-70 -13q-48 0 -81.5 21t-33.5 70q0 96 142 133q-31 17 -34 55q-1 9 -6 10t-12 -7q-58 -72 -151 -72q-57 0 -94.5 27.5t-37.5 82.5q0 62 60 99.5t203 58.5
q21 3 28.5 10.5t7.5 27.5v13q0 110 -84 110q-64 0 -64 -72q0 -30 -18.5 -45.5t-45.5 -15.5t-42 16t-15 40q0 51 67.5 82.5t155.5 31.5t127 -40t39 -142v-189q0 -49 51 -38v-34q-19 -15 -57 -20zM329 167v30q0 18 -8.5 25t-31.5 5q-75 -7 -105.5 -35.5t-30.5 -62.5
q0 -30 17.5 -49t51.5 -19q46 0 76.5 30.5t30.5 75.5z" />
    <glyph glyph-name="Cacute" unicode="&#x106;" horiz-adv-x="659" 
d="M317 743q-18 -20 -5 -35t34 -2l121 72q33 20 43 42.5t-10 48.5q-39 40 -89 -17zM365 -10q-138 0 -236.5 87.5t-98.5 232.5q0 149 102.5 238t245.5 89q113 0 179.5 -50.5t66.5 -114.5q0 -33 -19.5 -57t-57.5 -24q-35 0 -55.5 21.5t-20.5 55.5q0 53 -29.5 92.5t-92.5 39.5
q-75 0 -124 -65t-49 -175q0 -133 77 -212t183 -79q96 0 165 77l23 -19q-27 -50 -93 -93.5t-166 -43.5z" />
    <glyph glyph-name="cacute" unicode="&#x107;" horiz-adv-x="503" 
d="M248 573q-18 -20 -5 -35t34 -2l121 72q33 20 43 42.5t-10 48.5q-39 40 -89 -17zM280 -6q-102 0 -176 61.5t-74 169.5q0 75 38.5 130t95 80t120.5 25q78 0 129.5 -38.5t51.5 -86.5q0 -27 -14 -45t-43 -18q-28 0 -45 17.5t-17 40.5q0 92 -77 92q-53 0 -82 -42t-29 -112
q0 -94 50.5 -149.5t129.5 -55.5q65 0 105 52l25 -21q-19 -36 -67.5 -68t-120.5 -32z" />
    <glyph glyph-name="Cdotaccent" unicode="&#x10a;" horiz-adv-x="659" 
d="M347 698q-29 0 -50 20.5t-21 49.5q0 30 21 50.5t50 20.5t49.5 -20.5t20.5 -50.5q0 -29 -20.5 -49.5t-49.5 -20.5zM365 -10q-138 0 -236.5 87.5t-98.5 232.5q0 149 102.5 238t245.5 89q113 0 179.5 -50.5t66.5 -114.5q0 -33 -19.5 -57t-57.5 -24q-35 0 -55.5 21.5
t-20.5 55.5q0 53 -29.5 92.5t-92.5 39.5q-75 0 -124 -65t-49 -175q0 -133 77 -212t183 -79q96 0 165 77l23 -19q-27 -50 -93 -93.5t-166 -43.5z" />
    <glyph glyph-name="cdotaccent" unicode="&#x10b;" horiz-adv-x="503" 
d="M278 528q-29 0 -50 20.5t-21 49.5q0 30 21 50.5t50 20.5t49.5 -20.5t20.5 -50.5q0 -29 -20.5 -49.5t-49.5 -20.5zM280 -6q-102 0 -176 61.5t-74 169.5q0 75 38.5 130t95 80t120.5 25q78 0 129.5 -38.5t51.5 -86.5q0 -27 -14 -45t-43 -18q-28 0 -45 17.5t-17 40.5
q0 92 -77 92q-53 0 -82 -42t-29 -112q0 -94 50.5 -149.5t129.5 -55.5q65 0 105 52l25 -21q-19 -36 -67.5 -68t-120.5 -32z" />
    <glyph glyph-name="Ccaron" unicode="&#x10c;" horiz-adv-x="659" 
d="M347 686l-144 162l21 22l123 -84l123 84l21 -22zM365 -10q-138 0 -236.5 87.5t-98.5 232.5q0 149 102.5 238t245.5 89q113 0 179.5 -50.5t66.5 -114.5q0 -33 -19.5 -57t-57.5 -24q-35 0 -55.5 21.5t-20.5 55.5q0 53 -29.5 92.5t-92.5 39.5q-75 0 -124 -65t-49 -175
q0 -133 77 -212t183 -79q96 0 165 77l23 -19q-27 -50 -93 -93.5t-166 -43.5z" />
    <glyph glyph-name="ccaron" unicode="&#x10d;" horiz-adv-x="503" 
d="M278 516l-144 162l21 22l123 -84l123 84l21 -22zM280 -6q-102 0 -176 61.5t-74 169.5q0 75 38.5 130t95 80t120.5 25q78 0 129.5 -38.5t51.5 -86.5q0 -27 -14 -45t-43 -18q-28 0 -45 17.5t-17 40.5q0 92 -77 92q-53 0 -82 -42t-29 -112q0 -94 50.5 -149.5t129.5 -55.5
q65 0 105 52l25 -21q-19 -36 -67.5 -68t-120.5 -32z" />
    <glyph glyph-name="Dcaron" unicode="&#x10e;" horiz-adv-x="696" 
d="M325 686l-144 162l21 22l123 -84l123 84l21 -22zM30 0v33q69 9 69 60v435q0 51 -69 60v33h276q350 0 350 -305q0 -75 -23 -132.5t-57 -91t-80.5 -55t-87 -28.5t-81.5 -7q-19 0 -81 3t-91 3q-56 0 -125 -8zM308 42q101 0 150.5 76t49.5 198q0 126 -51.5 195.5t-144.5 69.5
h-14q-33 0 -48 -12.5t-15 -40.5v-435q0 -51 73 -51z" />
    <glyph glyph-name="dcaron" unicode="&#x10f;" horiz-adv-x="626" 
d="M596 660q27 0 38.5 -19t1.5 -50l-28 -84q-10 -29 -36 -29q-28 0 -28 30v94q0 58 52 58zM505 89q0 -25 14.5 -33t48.5 0v-34q-43 -27 -95 -27q-82 0 -88 75q-58 -76 -155 -76q-84 0 -142 60.5t-58 164.5q0 111 65.5 176t153.5 65q28 0 54 -7t39.5 -13.5t24.5 -9t14.5 5.5
t3.5 32v72q0 34 -14.5 45.5t-49.5 8.5v34l140 26q44 8 44 -35v-530zM288 64q38 0 67.5 26t29.5 82v86q0 78 -39.5 118.5t-87.5 40.5q-49 0 -75.5 -41.5t-26.5 -109.5q0 -83 37 -142.5t95 -59.5z" />
    <glyph glyph-name="Dcroat" unicode="&#x110;" horiz-adv-x="696" 
d="M306 621q350 0 350 -305q0 -75 -23 -132.5t-57 -91t-80.5 -55t-87 -28.5t-81.5 -7q-19 0 -81 3t-91 3q-56 0 -125 -8v33q69 9 69 60v200h-68v35h68v200q0 51 -69 60v33h276zM308 42q101 0 150.5 76t49.5 198q0 126 -51.5 195.5t-144.5 69.5h-14q-33 0 -48 -12.5
t-15 -40.5v-200h106v-35h-106v-200q0 -51 73 -51z" />
    <glyph glyph-name="dcroat" unicode="&#x111;" horiz-adv-x="583" 
d="M568 503h-63v-414q0 -25 14.5 -33t48.5 0v-34q-43 -27 -95 -27q-82 0 -88 75q-58 -76 -155 -76q-84 0 -142 60.5t-58 164.5q0 111 65.5 176t153.5 65q28 0 54 -7t39.5 -13.5t24.5 -9t14.5 5.5t3.5 32v35h-127v35h127v2q0 34 -14.5 45.5t-49.5 8.5v34l140 26q44 8 44 -35
v-81h63v-35zM288 64q38 0 67.5 26t29.5 82v86q0 78 -39.5 118.5t-87.5 40.5q-49 0 -75.5 -41.5t-26.5 -109.5q0 -83 37 -142.5t95 -59.5z" />
    <glyph glyph-name="Emacron" unicode="&#x112;" horiz-adv-x="596" 
d="M157 802q0 17 20 17h283q20 0 20 -17v-32q0 -17 -20 -17h-283q-20 0 -20 17v32zM30 0v33q69 9 69 60v435q0 51 -69 60v33h485q13 0 14 -11q6 -60 21 -123h-23q-23 47 -51.5 68t-74.5 21h-103q-33 0 -48 -12.5t-15 -40.5v-133q0 -28 15 -40.5t48 -12.5h65q52 0 70.5 15.5
t24.5 55.5h19v-187h-19q-7 39 -25 55t-70 16h-65q-33 0 -48 -12.5t-15 -40.5v-142q0 -28 16 -40.5t54 -12.5l111 1q80 1 113 51l24 36h23q-21 -41 -30 -118q-2 -14 -16 -14h-500z" />
    <glyph glyph-name="emacron" unicode="&#x113;" horiz-adv-x="505" 
d="M121 583q-20 0 -20 17v32q0 17 20 17h283q20 0 20 -17v-32q0 -17 -20 -17h-283zM329 63q69 0 112 52l24 -21q-19 -36 -69.5 -68t-124.5 -32q-100 0 -170.5 61t-70.5 170q0 111 73.5 173t175.5 62q82 0 136.5 -40.5t54.5 -106.5q0 -23 -8 -39.5t-21.5 -26.5t-37 -16
t-46.5 -8.5t-59 -3.5l-110 -4q-26 -1 -16 -39q19 -54 60 -83.5t97 -29.5zM264 422q-49 0 -75.5 -35t-30.5 -95q-1 -22 7.5 -32t27.5 -10h53q62 0 87 18t25 55q0 40 -25.5 69.5t-68.5 29.5z" />
    <glyph glyph-name="Edotaccent" unicode="&#x116;" horiz-adv-x="596" 
d="M307 698q-29 0 -50 20.5t-21 49.5q0 30 21 50.5t50 20.5t49.5 -20.5t20.5 -50.5q0 -29 -20.5 -49.5t-49.5 -20.5zM30 0v33q69 9 69 60v435q0 51 -69 60v33h485q13 0 14 -11q6 -60 21 -123h-23q-23 47 -51.5 68t-74.5 21h-103q-33 0 -48 -12.5t-15 -40.5v-133
q0 -28 15 -40.5t48 -12.5h65q52 0 70.5 15.5t24.5 55.5h19v-187h-19q-7 39 -25 55t-70 16h-65q-33 0 -48 -12.5t-15 -40.5v-142q0 -28 16 -40.5t54 -12.5l111 1q80 1 113 51l24 36h23q-21 -41 -30 -118q-2 -14 -16 -14h-500z" />
    <glyph glyph-name="edotaccent" unicode="&#x117;" horiz-adv-x="505" 
d="M251 528q-29 0 -50 20.5t-21 49.5q0 30 21 50.5t50 20.5t49.5 -20.5t20.5 -50.5q0 -29 -20.5 -49.5t-49.5 -20.5zM329 63q69 0 112 52l24 -21q-19 -36 -69.5 -68t-124.5 -32q-100 0 -170.5 61t-70.5 170q0 111 73.5 173t175.5 62q82 0 136.5 -40.5t54.5 -106.5
q0 -23 -8 -39.5t-21.5 -26.5t-37 -16t-46.5 -8.5t-59 -3.5l-110 -4q-26 -1 -16 -39q19 -54 60 -83.5t97 -29.5zM264 422q-49 0 -75.5 -35t-30.5 -95q-1 -22 7.5 -32t27.5 -10h53q62 0 87 18t25 55q0 40 -25.5 69.5t-68.5 29.5z" />
    <glyph glyph-name="Eogonek" unicode="&#x118;" horiz-adv-x="596" 
d="M553 132h23q-21 -41 -30 -118q-2 -14 -16 -14h-85q-89 -59 -89 -114q0 -25 15.5 -41t41.5 -16q52 0 70 55h42q-4 -17 -12 -33t-25 -36.5t-49 -33t-74 -12.5q-51 0 -87.5 24t-36.5 74t44 85t97 48h-352v33q69 9 69 60v435q0 51 -69 60v33h485q13 0 14 -11q6 -60 21 -123
h-23q-23 47 -51.5 68t-74.5 21h-103q-33 0 -48 -12.5t-15 -40.5v-133q0 -28 15 -40.5t48 -12.5h65q52 0 70.5 15.5t24.5 55.5h19v-187h-19q-7 39 -25 55t-70 16h-65q-33 0 -48 -12.5t-15 -40.5v-142q0 -28 16 -40.5t54 -12.5l111 1q80 1 113 51z" />
    <glyph glyph-name="eogonek" unicode="&#x119;" horiz-adv-x="505" 
d="M329 63q69 0 112 52l24 -21q-29 -55 -100 -83q-32 -14 -49.5 -24t-33 -31.5t-15.5 -50.5q0 -27 14.5 -43.5t39.5 -16.5q41 0 60 58h42q-4 -16 -12.5 -33t-25 -38t-47.5 -34t-71 -13q-47 0 -81 24.5t-34 72.5q0 72 83 114q-88 11 -146.5 71t-58.5 158q0 111 73.5 173
t175.5 62q82 0 136.5 -40.5t54.5 -106.5q0 -23 -8 -39.5t-21.5 -26.5t-37 -16t-46.5 -8.5t-59 -3.5l-110 -4q-26 -1 -16 -39q19 -54 60 -83.5t97 -29.5zM264 422q-49 0 -75.5 -35t-30.5 -95q-1 -22 7.5 -32t27.5 -10h53q62 0 87 18t25 55q0 40 -25.5 69.5t-68.5 29.5z" />
    <glyph glyph-name="Ecaron" unicode="&#x11a;" horiz-adv-x="596" 
d="M307 686l-144 162l21 22l123 -84l123 84l21 -22zM30 0v33q69 9 69 60v435q0 51 -69 60v33h485q13 0 14 -11q6 -60 21 -123h-23q-23 47 -51.5 68t-74.5 21h-103q-33 0 -48 -12.5t-15 -40.5v-133q0 -28 15 -40.5t48 -12.5h65q52 0 70.5 15.5t24.5 55.5h19v-187h-19
q-7 39 -25 55t-70 16h-65q-33 0 -48 -12.5t-15 -40.5v-142q0 -28 16 -40.5t54 -12.5l111 1q80 1 113 51l24 36h23q-21 -41 -30 -118q-2 -14 -16 -14h-500z" />
    <glyph glyph-name="ecaron" unicode="&#x11b;" horiz-adv-x="505" 
d="M395 678l-144 -162l-144 162l21 22l123 -84l123 84zM329 63q69 0 112 52l24 -21q-19 -36 -69.5 -68t-124.5 -32q-100 0 -170.5 61t-70.5 170q0 111 73.5 173t175.5 62q82 0 136.5 -40.5t54.5 -106.5q0 -23 -8 -39.5t-21.5 -26.5t-37 -16t-46.5 -8.5t-59 -3.5l-110 -4
q-26 -1 -16 -39q19 -54 60 -83.5t97 -29.5zM264 422q-49 0 -75.5 -35t-30.5 -95q-1 -22 7.5 -32t27.5 -10h53q62 0 87 18t25 55q0 40 -25.5 69.5t-68.5 29.5z" />
    <glyph glyph-name="Gbreve" unicode="&#x11e;" horiz-adv-x="690" 
d="M345 716q-62 0 -103.5 36t-41.5 98q0 11 9 11h27q7 0 10 -11q14 -58 99 -58t99 58q3 11 10 11h27q9 0 9 -11q0 -62 -41.5 -98t-103.5 -36zM360 -10q-134 0 -232 87.5t-98 232.5q0 100 50 176t129 113.5t172 37.5q113 0 179 -49.5t66 -111.5q0 -32 -19.5 -54t-56.5 -22
q-34 0 -54.5 20t-20.5 49q0 53 -30 92t-94 39q-76 0 -125.5 -64t-49.5 -172q0 -138 77 -231.5t176 -93.5q62 0 62 49v113q0 34 -16.5 45.5t-70.5 16.5v23l271 1v-24q-39 -5 -51 -16.5t-12 -45.5v-201q-26 17 -54.5 19t-53 -5t-65.5 -15.5t-79 -8.5z" />
    <glyph glyph-name="gbreve" unicode="&#x11f;" horiz-adv-x="537" 
d="M255 546q-62 0 -103.5 36t-41.5 98q0 11 9 11h27q7 0 10 -11q14 -58 99 -58t99 58q3 11 10 11h27q9 0 9 -11q0 -62 -41.5 -98t-103.5 -36zM468 369q-18 4 -23.5 -9t-4.5 -54v-5q0 -70 -48.5 -115t-135.5 -45q-17 0 -40.5 2.5t-33.5 2.5q-38 0 -38 -25q0 -22 57 -33
l127 -23q82 -15 124 -37t42 -65q0 -71 -84.5 -118t-194.5 -47q-87 0 -143.5 31.5t-56.5 86.5q0 60 74 88q21 8 21 10q0 3 -15 7q-28 7 -42.5 26.5t-14.5 42.5q0 62 90 77q-81 42 -81 133q0 71 50.5 115.5t143.5 44.5q113 0 166 -64q4 62 60 62q24 0 39.5 -12t15.5 -36
q0 -23 -16 -34.5t-38 -6.5zM259 177q67 0 67 104q0 56 -26 99.5t-72 43.5q-67 0 -67 -104q0 -56 25.5 -99.5t72.5 -43.5zM228 -10q-51 8 -76.5 -13t-25.5 -54q0 -40 36.5 -66t96.5 -26q56 0 90 23.5t34 63.5q0 29 -21.5 41.5t-76.5 21.5z" />
    <glyph glyph-name="Gdotaccent" unicode="&#x120;" horiz-adv-x="690" 
d="M345 698q-29 0 -50 20.5t-21 49.5q0 30 21 50.5t50 20.5t49.5 -20.5t20.5 -50.5q0 -29 -20.5 -49.5t-49.5 -20.5zM360 -10q-134 0 -232 87.5t-98 232.5q0 100 50 176t129 113.5t172 37.5q113 0 179 -49.5t66 -111.5q0 -32 -19.5 -54t-56.5 -22q-34 0 -54.5 20t-20.5 49
q0 53 -30 92t-94 39q-76 0 -125.5 -64t-49.5 -172q0 -138 77 -231.5t176 -93.5q62 0 62 49v113q0 34 -16.5 45.5t-70.5 16.5v23l271 1v-24q-39 -5 -51 -16.5t-12 -45.5v-201q-26 17 -54.5 19t-53 -5t-65.5 -15.5t-79 -8.5z" />
    <glyph glyph-name="gdotaccent" unicode="&#x121;" horiz-adv-x="537" 
d="M255 528q-29 0 -50 20.5t-21 49.5q0 30 21 50.5t50 20.5t49.5 -20.5t20.5 -50.5q0 -29 -20.5 -49.5t-49.5 -20.5zM468 369q-18 4 -23.5 -9t-4.5 -54v-5q0 -70 -48.5 -115t-135.5 -45q-17 0 -40.5 2.5t-33.5 2.5q-38 0 -38 -25q0 -22 57 -33l127 -23q82 -15 124 -37
t42 -65q0 -71 -84.5 -118t-194.5 -47q-87 0 -143.5 31.5t-56.5 86.5q0 60 74 88q21 8 21 10q0 3 -15 7q-28 7 -42.5 26.5t-14.5 42.5q0 62 90 77q-81 42 -81 133q0 71 50.5 115.5t143.5 44.5q113 0 166 -64q4 62 60 62q24 0 39.5 -12t15.5 -36q0 -23 -16 -34.5t-38 -6.5z
M259 177q67 0 67 104q0 56 -26 99.5t-72 43.5q-67 0 -67 -104q0 -56 25.5 -99.5t72.5 -43.5zM228 -10q-51 8 -76.5 -13t-25.5 -54q0 -40 36.5 -66t96.5 -26q56 0 90 23.5t34 63.5q0 29 -21.5 41.5t-76.5 21.5z" />
    <glyph glyph-name="uni0122" unicode="&#x122;" horiz-adv-x="690" 
d="M360 -10q-134 0 -232 87.5t-98 232.5q0 100 50 176t129 113.5t172 37.5q113 0 179 -49.5t66 -111.5q0 -32 -19.5 -54t-56.5 -22q-34 0 -54.5 20t-20.5 49q0 53 -30 92t-94 39q-76 0 -125.5 -64t-49.5 -172q0 -138 77 -231.5t176 -93.5q62 0 62 49v113q0 34 -16.5 45.5
t-70.5 16.5v23l271 1v-24q-39 -5 -51 -16.5t-12 -45.5v-201q-26 17 -54.5 19t-53 -5t-65.5 -15.5t-79 -8.5zM328 -312l-20 22q47 41 47 74q0 16 -17 16q-29 0 -47.5 19t-18.5 48q0 31 20.5 51t52.5 20q37 0 56.5 -25.5t19.5 -66.5q0 -49 -26.5 -90t-66.5 -68z" />
    <glyph glyph-name="uni0123" unicode="&#x123;" horiz-adv-x="537" 
d="M273 514q-37 0 -56.5 25.5t-19.5 66.5q0 49 26.5 90t66.5 68l20 -22q-47 -41 -47 -74q0 -16 17 -16q29 0 47.5 -19t18.5 -48q0 -31 -20.5 -51t-52.5 -20zM468 369q-18 4 -23.5 -9t-4.5 -54v-5q0 -70 -48.5 -115t-135.5 -45q-17 0 -40.5 2.5t-33.5 2.5q-38 0 -38 -25
q0 -22 57 -33l127 -23q82 -15 124 -37t42 -65q0 -71 -84.5 -118t-194.5 -47q-87 0 -143.5 31.5t-56.5 86.5q0 60 74 88q21 8 21 10q0 3 -15 7q-28 7 -42.5 26.5t-14.5 42.5q0 62 90 77q-81 42 -81 133q0 71 50.5 115.5t143.5 44.5q113 0 166 -64q4 62 60 62q24 0 39.5 -12
t15.5 -36q0 -23 -16 -34.5t-38 -6.5zM259 177q67 0 67 104q0 56 -26 99.5t-72 43.5q-67 0 -67 -104q0 -56 25.5 -99.5t72.5 -43.5zM228 -10q-51 8 -76.5 -13t-25.5 -54q0 -40 36.5 -66t96.5 -26q56 0 90 23.5t34 63.5q0 29 -21.5 41.5t-76.5 21.5z" />
    <glyph glyph-name="Hbar" unicode="&#x126;" horiz-adv-x="737" 
d="M707 588q-69 -9 -69 -60v-435q0 -51 69 -60v-33h-274v33q69 9 69 60v155q0 33 -42 33h-183q-42 0 -42 -33v-155q0 -51 69 -60v-33h-274v33q69 9 69 60v435q0 51 -69 60v33h274v-33q-69 -9 -69 -60v-29q0 -33 43 -33h181q43 0 43 33v29q0 51 -69 60v33h274v-33zM502 364
v19q0 33 -42 33h-183q-42 0 -42 -33v-19q0 -33 43 -33h181q43 0 43 33z" />
    <glyph glyph-name="hbar" unicode="&#x127;" horiz-adv-x="585" 
d="M514 89q0 -49 51 -38v-34q-28 -22 -84 -22q-42 0 -64.5 21.5t-22.5 61.5v182q0 57 -23.5 89.5t-68.5 32.5q-48 0 -75.5 -33t-27.5 -89v-165q0 -32 14 -45t49 -16v-34h-247v34q36 3 50 16t14 45v405h-64v39h64v1q0 34 -14.5 45.5t-49.5 8.5v34l140 26q44 8 44 -35v-80h161
v-39h-161v-73q0 -37 17 -37q7 1 12 7q60 65 141 65q145 0 145 -176v-197z" />
    <glyph glyph-name="Imacron" unicode="&#x12a;" horiz-adv-x="334" 
d="M17 802q0 17 20 17h283q20 0 20 -17v-32q0 -17 -20 -17h-283q-20 0 -20 17v32zM30 0v33q69 9 69 60v435q0 51 -69 60v33h274v-33q-69 -9 -69 -60v-435q0 -51 69 -60v-33h-274z" />
    <glyph glyph-name="imacron" unicode="&#x12b;" horiz-adv-x="297" 
d="M-11 632q0 17 20 17h283q20 0 20 -17v-32q0 -17 -20 -17h-283q-20 0 -20 17v32zM25 0v34q36 3 50 16t14 45v249q0 34 -14.5 45.5t-49.5 8.5v34l140 26q44 8 44 -35v-328q0 -32 14 -45t49 -16v-34h-247z" />
    <glyph glyph-name="Iogonek" unicode="&#x12e;" horiz-adv-x="334" 
d="M304 588q-69 -9 -69 -60v-435q0 -51 69 -60v-33h-87q-89 -59 -89 -114q0 -25 15.5 -41t41.5 -16q52 0 70 55h42q-4 -17 -12 -33t-25 -36.5t-49 -33t-74 -12.5q-51 0 -87.5 24t-36.5 74t44 85t97 48h-124v33q69 9 69 60v435q0 51 -69 60v33h274v-33z" />
    <glyph glyph-name="iogonek" unicode="&#x12f;" horiz-adv-x="297" 
d="M139 528q-29 0 -50 20.5t-21 49.5q0 30 21 50.5t50 20.5t49.5 -20.5t20.5 -50.5q0 -29 -20.5 -49.5t-49.5 -20.5zM181 0q-89 -59 -89 -114q0 -25 15.5 -41t41.5 -16q52 0 70 55h42q-4 -17 -12 -33t-25 -36.5t-49 -33t-74 -12.5q-51 0 -87.5 24t-36.5 74t44 85t97 48h-93
v34q36 3 50 16t14 45v249q0 34 -14.5 45.5t-49.5 8.5v34l140 26q44 8 44 -35v-328q0 -32 14 -45t49 -16v-34h-91z" />
    <glyph glyph-name="Idotaccent" unicode="&#x130;" horiz-adv-x="334" 
d="M167 698q-29 0 -50 20.5t-21 49.5q0 30 21 50.5t50 20.5t49.5 -20.5t20.5 -50.5q0 -29 -20.5 -49.5t-49.5 -20.5zM30 0v33q69 9 69 60v435q0 51 -69 60v33h274v-33q-69 -9 -69 -60v-435q0 -51 69 -60v-33h-274z" />
    <glyph glyph-name="dotlessi" unicode="&#x131;" horiz-adv-x="297" 
d="M25 0v34q36 3 50 16t14 45v249q0 34 -14.5 45.5t-49.5 8.5v34l140 26q44 8 44 -35v-328q0 -32 14 -45t49 -16v-34h-247z" />
    <glyph glyph-name="IJ" unicode="&#x132;" horiz-adv-x="782" 
d="M30 0v33q69 9 69 60v435q0 51 -69 60v33h274v-33q-69 -9 -69 -60v-435q0 -51 69 -60v-33h-274zM494 -10q-68 0 -111.5 28t-43.5 76q0 33 19 51.5t48 18.5q58 0 58 -68q0 -70 45 -70q38 0 38 67v435q0 28 -18.5 41.5t-60.5 18.5v33h284v-33q-69 -9 -69 -60v-375
q0 -45 -17 -78t-45.5 -51t-60 -26t-66.5 -8z" />
    <glyph glyph-name="ij" unicode="&#x133;" horiz-adv-x="577" 
d="M138 528q-29 0 -50 20.5t-21 49.5q0 30 21 50.5t50 20.5t49.5 -20.5t20.5 -50.5q0 -29 -20.5 -49.5t-49.5 -20.5zM441 528q-29 0 -50 20.5t-21 49.5q0 30 21 50.5t50 20.5t49.5 -20.5t20.5 -50.5q0 -29 -20.5 -49.5t-49.5 -20.5zM25 0v34q36 3 50 16t14 45v249
q0 34 -14.5 45.5t-49.5 8.5v34l140 26q44 8 44 -35v-328q0 -32 14 -45t49 -16v-34h-247zM347 -201q-48 0 -84 19.5t-36 58.5q0 25 14.5 40t37.5 15q26 0 41.5 -14t20 -30.5t10.5 -30.5t16 -14q11 0 18 15.5t7 36.5v449q0 34 -14.5 45.5t-49.5 8.5v34l140 26q44 8 44 -35
v-470q0 -73 -47 -113.5t-118 -40.5z" />
    <glyph glyph-name="uni0136" unicode="&#x136;" horiz-adv-x="718" 
d="M562 128q37 -49 67.5 -68.5t68.5 -26.5v-33h-299v33q66 15 28 66l-95 128q-41 54 -66 26l-15 -16q-16 -18 -16 -62v-82q0 -51 69 -60v-33h-274v33q69 9 69 60v435q0 51 -69 60v33h274v-33q-69 -9 -69 -60v-250l240 247q23 26 10.5 43.5t-45.5 19.5v33h226v-33
q-33 -2 -72 -20t-67 -47l-117 -120q-17 -19 -16.5 -34t16.5 -37zM365 -62q37 0 56.5 -25.5t19.5 -66.5q0 -49 -26.5 -90t-66.5 -68l-20 22q47 41 47 74q0 16 -17 16q-29 0 -47.5 19t-18.5 48q0 31 20.5 51t52.5 20z" />
    <glyph glyph-name="uni0137" unicode="&#x137;" horiz-adv-x="565" 
d="M475 85q19 -26 37.5 -37t52.5 -14v-34h-246v34q47 5 19 46l-75 113q-17 25 -31 13q-19 -16 -26 -27.5t-7 -33.5v-50q0 -32 14 -45t49 -16v-34h-247v34q36 3 50 16t14 45v445q0 34 -14.5 45.5t-49.5 8.5v34l140 26q44 8 44 -35v-337q0 -20 11 -27t23 4l124 108q9 10 10 20
t-12 19t-37 11v34h207v-34q-35 -3 -57 -15t-54 -39l-82 -71zM292 -62q37 0 56.5 -25.5t19.5 -66.5q0 -49 -26.5 -90t-66.5 -68l-20 22q47 41 47 74q0 16 -17 16q-29 0 -47.5 19t-18.5 48q0 31 20.5 51t52.5 20z" />
    <glyph glyph-name="Lacute" unicode="&#x139;" horiz-adv-x="606" 
d="M142 743q-18 -20 -5 -35t34 -2l121 72q33 20 43 42.5t-10 48.5q-39 40 -89 -17zM30 0v33q69 9 69 60v435q0 51 -69 60v33h274v-33q-69 -9 -69 -60v-435q0 -59 74 -55l105 5q47 2 73.5 17.5t46.5 47.5l21 35h31l-17 -61q-13 -47 -10 -82h-529z" />
    <glyph glyph-name="lacute" unicode="&#x13a;" horiz-adv-x="272" 
d="M98 743q-18 -20 -5 -35t34 -2l121 72q33 20 43 42.5t-10 48.5q-39 40 -89 -17zM162 -5q-88 0 -88 85v460q0 34 -14.5 45.5t-49.5 8.5v34l140 26q44 8 44 -35v-530q0 -25 14 -33t49 0v-34q-43 -27 -95 -27z" />
    <glyph glyph-name="uni013B" unicode="&#x13b;" horiz-adv-x="606" 
d="M30 0v33q69 9 69 60v435q0 51 -69 60v33h274v-33q-69 -9 -69 -60v-435q0 -59 74 -55l105 5q47 2 73.5 17.5t46.5 47.5l21 35h31l-17 -61q-13 -47 -10 -82h-529zM290 -312l-20 22q47 41 47 74q0 16 -17 16q-29 0 -47.5 19t-18.5 48q0 31 20.5 51t52.5 20q37 0 56.5 -25.5
t19.5 -66.5q0 -49 -26.5 -90t-66.5 -68z" />
    <glyph glyph-name="uni013C" unicode="&#x13c;" horiz-adv-x="272" 
d="M162 -5q-88 0 -88 85v460q0 34 -14.5 45.5t-49.5 8.5v34l140 26q44 8 44 -35v-530q0 -25 14 -33t49 0v-34q-43 -27 -95 -27zM139 -312l-20 22q47 41 47 74q0 16 -17 16q-29 0 -47.5 19t-18.5 48q0 31 20.5 51t52.5 20q37 0 56.5 -25.5t19.5 -66.5q0 -49 -26.5 -90
t-66.5 -68z" />
    <glyph glyph-name="Lcaron" unicode="&#x13d;" horiz-adv-x="606" 
d="M410 377l-20 22q47 41 47 74q0 16 -17 16q-29 0 -47.5 19t-18.5 48q0 31 20.5 51t52.5 20q37 0 56.5 -25.5t19.5 -66.5q0 -49 -26.5 -90t-66.5 -68zM30 0v33q69 9 69 60v435q0 51 -69 60v33h274v-33q-69 -9 -69 -60v-435q0 -59 74 -55l105 5q47 2 73.5 17.5t46.5 47.5
l21 35h31l-17 -61q-13 -47 -10 -82h-529z" />
    <glyph glyph-name="lcaron" unicode="&#x13e;" horiz-adv-x="315" 
d="M261 478q-28 0 -28 30v94q0 58 52 58q27 0 38.5 -19t1.5 -50l-28 -84q-10 -29 -36 -29zM162 -5q-88 0 -88 85v460q0 34 -14.5 45.5t-49.5 8.5v34l140 26q44 8 44 -35v-530q0 -25 14 -33t49 0v-34q-43 -27 -95 -27z" />
    <glyph glyph-name="Ldot" unicode="&#x13f;" horiz-adv-x="606" 
d="M30 0v33q69 9 69 60v435q0 51 -69 60v33h274v-33q-69 -9 -69 -60v-435q0 -59 74 -55l105 5q47 2 73.5 17.5t46.5 47.5l21 35h31l-17 -61q-13 -47 -10 -82h-529zM400 271q-28 0 -48 20.5t-20 48.5t20 48t48 20t48 -20t20 -48t-20 -48.5t-48 -20.5z" />
    <glyph glyph-name="ldot" unicode="&#x140;" horiz-adv-x="356" 
d="M162 -5q-88 0 -88 85v460q0 34 -14.5 45.5t-49.5 8.5v34l140 26q44 8 44 -35v-530q0 -25 14 -33t49 0v-34q-43 -27 -95 -27zM318 286q-28 0 -48 20.5t-20 48.5t20 48t48 20t48 -20t20 -48t-20 -48.5t-48 -20.5z" />
    <glyph glyph-name="Lslash" unicode="&#x141;" horiz-adv-x="606" 
d="M586 143l-17 -61q-13 -47 -10 -82h-529v33q69 9 69 60v163l-69 -37v40l69 37v232q0 51 -69 60v33h274v-33q-69 -9 -69 -60v-158l83 45v-40l-83 -45v-237q0 -59 74 -55l105 5q47 2 73.5 17.5t46.5 47.5l21 35h31z" />
    <glyph glyph-name="lslash" unicode="&#x142;" horiz-adv-x="273" 
d="M258 365l-63 -37v-239q0 -25 14.5 -33t48.5 0v-34q-43 -27 -95 -27q-88 0 -88 85v177l-65 -38v40l65 38v243q0 34 -14.5 45.5t-49.5 8.5v34l140 26q44 8 44 -35v-251l63 37v-40z" />
    <glyph glyph-name="Nacute" unicode="&#x143;" horiz-adv-x="704" 
d="M351 706q-21 -13 -34 2t5 35l94 109q50 57 89 17q20 -26 10 -48.5t-43 -42.5zM477 621h197v-33q-69 -9 -69 -60v-528h-54l-393 465v-372q0 -51 69 -60v-33h-197v33q69 9 69 60v435q0 51 -69 60v33h165l351 -415v322q0 51 -69 60v33z" />
    <glyph glyph-name="nacute" unicode="&#x144;" horiz-adv-x="595" 
d="M269 573q-18 -20 -5 -35t34 -2l121 72q33 20 43 42.5t-10 48.5q-39 40 -89 -17zM491 -5q-42 0 -64.5 21.5t-22.5 61.5v182q0 57 -23.5 90.5t-68.5 33.5q-48 0 -75.5 -34t-27.5 -90v-165q0 -32 14 -45t49 -16v-34h-247v34q36 3 50 16t14 45v249q0 34 -14.5 45.5t-49.5 8.5
v34l140 26q21 4 32.5 -4.5t11.5 -26.5q0 -37 17 -37q7 1 12 7q60 65 141 65q145 0 145 -176v-197q0 -49 51 -38v-34q-28 -22 -84 -22z" />
    <glyph glyph-name="uni0145" unicode="&#x145;" horiz-adv-x="704" 
d="M477 621h197v-33q-69 -9 -69 -60v-528h-54l-393 465v-372q0 -51 69 -60v-33h-197v33q69 9 69 60v435q0 51 -69 60v33h165l351 -415v322q0 51 -69 60v33zM352 -62q37 0 56.5 -25.5t19.5 -66.5q0 -49 -26.5 -90t-66.5 -68l-20 22q47 41 47 74q0 16 -17 16q-29 0 -47.5 19
t-18.5 48q0 31 20.5 51t52.5 20z" />
    <glyph glyph-name="uni0146" unicode="&#x146;" horiz-adv-x="595" 
d="M491 -5q-42 0 -64.5 21.5t-22.5 61.5v182q0 57 -23.5 90.5t-68.5 33.5q-48 0 -75.5 -34t-27.5 -90v-165q0 -32 14 -45t49 -16v-34h-247v34q36 3 50 16t14 45v249q0 34 -14.5 45.5t-49.5 8.5v34l140 26q21 4 32.5 -4.5t11.5 -26.5q0 -37 17 -37q7 1 12 7q60 65 141 65
q145 0 145 -176v-197q0 -49 51 -38v-34q-28 -22 -84 -22zM282 -312l-20 22q47 41 47 74q0 16 -17 16q-29 0 -47.5 19t-18.5 48q0 31 20.5 51t52.5 20q37 0 56.5 -25.5t19.5 -66.5q0 -49 -26.5 -90t-66.5 -68z" />
    <glyph glyph-name="Ncaron" unicode="&#x147;" horiz-adv-x="704" 
d="M496 848l-144 -162l-144 162l21 22l123 -84l123 84zM477 621h197v-33q-69 -9 -69 -60v-528h-54l-393 465v-372q0 -51 69 -60v-33h-197v33q69 9 69 60v435q0 51 -69 60v33h165l351 -415v322q0 51 -69 60v33z" />
    <glyph glyph-name="ncaron" unicode="&#x148;" horiz-adv-x="595" 
d="M299 516l-144 162l21 22l123 -84l123 84l21 -22zM491 -5q-42 0 -64.5 21.5t-22.5 61.5v182q0 57 -23.5 90.5t-68.5 33.5q-48 0 -75.5 -34t-27.5 -90v-165q0 -32 14 -45t49 -16v-34h-247v34q36 3 50 16t14 45v249q0 34 -14.5 45.5t-49.5 8.5v34l140 26q21 4 32.5 -4.5
t11.5 -26.5q0 -37 17 -37q7 1 12 7q60 65 141 65q145 0 145 -176v-197q0 -49 51 -38v-34q-28 -22 -84 -22z" />
    <glyph glyph-name="Eng" unicode="&#x14a;" horiz-adv-x="704" 
d="M477 621h197v-33q-69 -9 -69 -60v-558q0 -92 -42 -131t-124 -39q-65 0 -105.5 28.5t-40.5 74.5q0 67 65 67q51 0 51 -56q0 -55 30 -55q31 0 31 51v186l-312 369v-372q0 -51 69 -60v-33h-197v33q69 9 69 60v435q0 51 -69 60v33h165l351 -415v322q0 51 -69 60v33z" />
    <glyph glyph-name="eng" unicode="&#x14b;" horiz-adv-x="589" 
d="M359 -201q-48 0 -84 19.5t-36 58.5q0 25 14.5 40t37.5 15q26 0 41.5 -14t20 -30.5t10.5 -30.5t16 -14q11 0 18 15.5t7 36.5v365q0 57 -23.5 90.5t-68.5 33.5q-48 0 -75.5 -34t-27.5 -90v-165q0 -32 14 -45t49 -16v-34h-247v34q36 3 50 16t14 45v249q0 34 -14.5 45.5
t-49.5 8.5v34l140 26q21 4 32.5 -4.5t11.5 -26.5q0 -37 17 -37q7 1 12 7q60 65 141 65q145 0 145 -176v-333q0 -73 -47 -113.5t-118 -40.5z" />
    <glyph glyph-name="Omacron" unicode="&#x14c;" horiz-adv-x="717" 
d="M199 802q0 17 20 17h283q20 0 20 -17v-32q0 -17 -20 -17h-283q-20 0 -20 17v32zM351 -10q-132 0 -226.5 87.5t-94.5 230.5q0 147 98 238t238 91q132 0 226.5 -87t94.5 -229q0 -148 -98 -239.5t-238 -91.5zM382 37q64 0 109.5 57t45.5 176q0 137 -58.5 228.5t-143.5 91.5
q-64 0 -109.5 -56.5t-45.5 -174.5q0 -139 58.5 -230.5t143.5 -91.5z" />
    <glyph glyph-name="omacron" unicode="&#x14d;" horiz-adv-x="541" 
d="M121 632q0 17 20 17h283q20 0 20 -17v-32q0 -17 -20 -17h-283q-20 0 -20 17v32zM271 -6q-99 0 -170 62t-71 172t70.5 171t169.5 61t170 -62t71 -172t-70.5 -171t-169.5 -61zM290 32q42 0 67.5 40.5t25.5 116.5q0 96 -37.5 164.5t-94.5 68.5q-43 0 -68 -40t-25 -117
q0 -96 37.5 -164.5t94.5 -68.5z" />
    <glyph glyph-name="Ohungarumlaut" unicode="&#x150;" horiz-adv-x="717" 
d="M227 743q-18 -20 -5 -35t34 -2l121 72q33 20 43 42.5t-10 48.5q-39 40 -89 -17zM434 743q-18 -20 -5 -35t34 -2l121 72q33 20 43 42.5t-10 48.5q-39 40 -89 -17zM351 -10q-132 0 -226.5 87.5t-94.5 230.5q0 147 98 238t238 91q132 0 226.5 -87t94.5 -229
q0 -148 -98 -239.5t-238 -91.5zM382 37q64 0 109.5 57t45.5 176q0 137 -58.5 228.5t-143.5 91.5q-64 0 -109.5 -56.5t-45.5 -174.5q0 -139 58.5 -230.5t143.5 -91.5z" />
    <glyph glyph-name="ohungarumlaut" unicode="&#x151;" horiz-adv-x="541" 
d="M149 573q-18 -20 -5 -35t34 -2l121 72q33 20 43 42.5t-10 48.5q-39 40 -89 -17zM356 573q-18 -20 -5 -35t34 -2l121 72q33 20 43 42.5t-10 48.5q-39 40 -89 -17zM271 -6q-99 0 -170 62t-71 172t70.5 171t169.5 61t170 -62t71 -172t-70.5 -171t-169.5 -61zM290 32
q42 0 67.5 40.5t25.5 116.5q0 96 -37.5 164.5t-94.5 68.5q-43 0 -68 -40t-25 -117q0 -96 37.5 -164.5t94.5 -68.5z" />
    <glyph glyph-name="OE" unicode="&#x152;" horiz-adv-x="1000" 
d="M957 132h23q-21 -41 -30 -118q-2 -14 -16 -14h-498q-39 -10 -85 -10q-132 0 -226.5 87.5t-94.5 230.5q0 147 98 238t238 91q51 0 104 -16h449q13 0 14 -11q6 -60 21 -123h-23q-23 47 -51.5 68t-74.5 21h-103q-33 0 -48 -12.5t-15 -40.5v-133q0 -28 15 -40.5t48 -12.5h65
q52 0 70.5 15.5t24.5 55.5h19v-187h-19q-7 39 -25 55t-70 16h-65q-33 0 -48 -12.5t-15 -40.5v-142q0 -28 16 -40.5t54 -12.5l111 1q80 1 113 51zM180 359q0 -139 58.5 -230.5t143.5 -91.5q79 0 121 75v339q-27 65 -71.5 102t-96.5 37q-64 0 -109.5 -56.5t-45.5 -174.5z" />
    <glyph glyph-name="oe" unicode="&#x153;" horiz-adv-x="857" 
d="M681 64q69 0 112 52l24 -21q-19 -36 -69.5 -68t-124.5 -32q-109 0 -176 66q-69 -67 -176 -67q-99 0 -170 62t-71 172t70.5 171t169.5 61q110 0 177 -69q71 70 184 70q82 0 136.5 -40.5t54.5 -106.5q0 -23 -8 -39.5t-21.5 -26.5t-37 -16t-46.5 -8.5t-59 -3.5l-110 -4
q-26 -1 -16 -39q19 -54 60 -83.5t97 -29.5zM616 423q-49 0 -75.5 -35t-30.5 -95q-1 -23 7.5 -32.5t27.5 -9.5h53q62 0 87 18t25 55q0 40 -25.5 69.5t-68.5 29.5zM290 32q42 0 67.5 40.5t25.5 116.5v18q-1 3 -1 8q-5 87 -41.5 147t-89.5 60q-43 0 -68 -40t-25 -117
q0 -96 37.5 -164.5t94.5 -68.5z" />
    <glyph glyph-name="Racute" unicode="&#x154;" horiz-adv-x="677" 
d="M305 743q-18 -20 -5 -35t34 -2l121 72q33 20 43 42.5t-10 48.5q-39 40 -89 -17zM30 0v33q69 9 69 60v435q0 51 -69 60v33h326q113 0 178.5 -44t65.5 -125q0 -61 -38 -101.5t-114 -52.5q-5 -1 -5 -5.5t5 -6.5q46 -12 73 -40.5t47 -86.5q30 -82 45 -102q19 -24 44 -24v-33
h-54q-83 0 -122 37t-74 133q-21 56 -45.5 78t-67.5 22q-33 0 -46 -12.5t-13 -40.5v-124q0 -28 18.5 -41.5t60.5 -18.5v-33h-284zM290 320h44q67 0 97 38t30 93q0 52 -27.5 86t-87.5 34h-67q-44 0 -44 -47v-151q0 -28 12.5 -40.5t42.5 -12.5z" />
    <glyph glyph-name="racute" unicode="&#x155;" horiz-adv-x="481" 
d="M212 573q-18 -20 -5 -35t34 -2l121 72q33 20 43 42.5t-10 48.5q-39 40 -89 -17zM25 0v34q36 3 50 16t14 45v249q0 34 -14.5 45.5t-49.5 8.5v34l140 26q21 4 32.5 -4.5t11.5 -26.5q0 -37 15 -35q6 2 11 8q52 62 127 62q47 0 75.5 -27t28.5 -65q0 -32 -18 -50.5t-47 -18.5
q-25 0 -41.5 13.5t-16.5 36.5q0 21 -12 34t-31 13q-38 0 -64.5 -40.5t-26.5 -110.5v-152q0 -32 14.5 -45t53.5 -16v-34h-252z" />
    <glyph glyph-name="uni0156" unicode="&#x156;" horiz-adv-x="677" 
d="M30 0v33q69 9 69 60v435q0 51 -69 60v33h326q113 0 178.5 -44t65.5 -125q0 -61 -38 -101.5t-114 -52.5q-5 -1 -5 -5.5t5 -6.5q46 -12 73 -40.5t47 -86.5q30 -82 45 -102q19 -24 44 -24v-33h-54q-83 0 -122 37t-74 133q-21 56 -45.5 78t-67.5 22q-33 0 -46 -12.5
t-13 -40.5v-124q0 -28 18.5 -41.5t60.5 -18.5v-33h-284zM290 320h44q67 0 97 38t30 93q0 52 -27.5 86t-87.5 34h-67q-44 0 -44 -47v-151q0 -28 12.5 -40.5t42.5 -12.5zM342 -312l-20 22q47 41 47 74q0 16 -17 16q-29 0 -47.5 19t-18.5 48q0 31 20.5 51t52.5 20
q37 0 56.5 -25.5t19.5 -66.5q0 -49 -26.5 -90t-66.5 -68z" />
    <glyph glyph-name="uni0157" unicode="&#x157;" horiz-adv-x="481" 
d="M25 0v34q36 3 50 16t14 45v249q0 34 -14.5 45.5t-49.5 8.5v34l140 26q21 4 32.5 -4.5t11.5 -26.5q0 -37 15 -35q6 2 11 8q52 62 127 62q47 0 75.5 -27t28.5 -65q0 -32 -18 -50.5t-47 -18.5q-25 0 -41.5 13.5t-16.5 36.5q0 21 -12 34t-31 13q-38 0 -64.5 -40.5
t-26.5 -110.5v-152q0 -32 14.5 -45t53.5 -16v-34h-252zM149 -312l-20 22q47 41 47 74q0 16 -17 16q-29 0 -47.5 19t-18.5 48q0 31 20.5 51t52.5 20q37 0 56.5 -25.5t19.5 -66.5q0 -49 -26.5 -90t-66.5 -68z" />
    <glyph glyph-name="Rcaron" unicode="&#x158;" horiz-adv-x="677" 
d="M335 686l-144 162l21 22l123 -84l123 84l21 -22zM30 0v33q69 9 69 60v435q0 51 -69 60v33h326q113 0 178.5 -44t65.5 -125q0 -61 -38 -101.5t-114 -52.5q-5 -1 -5 -5.5t5 -6.5q46 -12 73 -40.5t47 -86.5q30 -82 45 -102q19 -24 44 -24v-33h-54q-83 0 -122 37t-74 133
q-21 56 -45.5 78t-67.5 22q-33 0 -46 -12.5t-13 -40.5v-124q0 -28 18.5 -41.5t60.5 -18.5v-33h-284zM290 320h44q67 0 97 38t30 93q0 52 -27.5 86t-87.5 34h-67q-44 0 -44 -47v-151q0 -28 12.5 -40.5t42.5 -12.5z" />
    <glyph glyph-name="rcaron" unicode="&#x159;" horiz-adv-x="481" 
d="M237 516l-144 162l21 22l123 -84l123 84l21 -22zM25 0v34q36 3 50 16t14 45v249q0 34 -14.5 45.5t-49.5 8.5v34l140 26q21 4 32.5 -4.5t11.5 -26.5q0 -37 15 -35q6 2 11 8q52 62 127 62q47 0 75.5 -27t28.5 -65q0 -32 -18 -50.5t-47 -18.5q-25 0 -41.5 13.5t-16.5 36.5
q0 21 -12 34t-31 13q-38 0 -64.5 -40.5t-26.5 -110.5v-152q0 -32 14.5 -45t53.5 -16v-34h-252z" />
    <glyph glyph-name="Sacute" unicode="&#x15a;" horiz-adv-x="563" 
d="M232 743q-18 -20 -5 -35t34 -2l121 72q33 20 43 42.5t-10 48.5q-39 40 -89 -17zM272 -10q-62 0 -120.5 15t-93.5 38q-23 53 -21 106.5t35 53.5q9 0 13 -4.5t9 -17.5q25 -70 79 -107t121 -37q53 0 79.5 24t26.5 66q0 21 -10 39t-22.5 29t-38.5 23t-43 17.5t-52 16.5
q-199 62 -199 205q0 84 65.5 132t168.5 48q58 0 115 -14t91 -36q23 -53 21 -106.5t-35 -53.5q-9 0 -13 4.5t-9 17.5q-24 68 -75 104.5t-111 36.5q-52 0 -76.5 -26t-24.5 -60q0 -49 35 -76t108 -49q40 -12 64 -20.5t60.5 -27t56.5 -38.5t36 -52t16 -71q0 -49 -23 -85.5
t-61.5 -56t-81.5 -29t-90 -9.5z" />
    <glyph glyph-name="sacute" unicode="&#x15b;" horiz-adv-x="442" 
d="M189 573q-18 -20 -5 -35t34 -2l121 72q33 20 43 42.5t-10 48.5q-39 40 -89 -17zM214 -6q-79 0 -134 31t-55 86q0 26 13 40t36 14q25 0 38.5 -13t13.5 -31q0 -43 31 -66t72 -23q39 0 57.5 20t18.5 48q0 31 -24 46.5t-81 32.5q-163 48 -163 149q0 60 53 96t132 36
q69 0 122 -26.5t53 -76.5q0 -49 -50 -49q-45 0 -45 36q0 35 -24 56.5t-65 21.5q-31 0 -49 -15.5t-18 -41.5q0 -31 23 -48t67 -30q89 -27 119 -46q62 -38 62 -103q0 -69 -58 -106.5t-145 -37.5z" />
    <glyph glyph-name="Scedilla" unicode="&#x15e;" horiz-adv-x="563" 
d="M528 170q0 -84 -62 -127t-153 -51l-17 -37q41 3 73 -21t32 -64q0 -47 -40.5 -73.5t-95.5 -26.5q-53 0 -86 22t-33 53q0 30 27.5 41.5t51.5 -13.5q0 -24 10.5 -45.5t34.5 -21.5t37 20t13 46q0 49 -39 49q-8 0 -22.5 -4t-22.5 -4q-16 0 -22.5 11t0.5 25l21 42
q-112 9 -177 52q-23 53 -21 106.5t35 53.5q9 0 13 -4.5t9 -17.5q25 -70 79 -107t121 -37q53 0 79.5 24t26.5 66q0 21 -10 39t-22.5 29t-38.5 23t-43 17.5t-52 16.5q-199 62 -199 205q0 84 65.5 132t168.5 48q58 0 115 -14t91 -36q23 -53 21 -106.5t-35 -53.5q-9 0 -13 4.5
t-9 17.5q-24 68 -75 104.5t-111 36.5q-52 0 -76.5 -26t-24.5 -60q0 -49 35 -76t108 -49q40 -12 64 -20.5t60.5 -27t56.5 -38.5t36 -52t16 -71z" />
    <glyph glyph-name="scedilla" unicode="&#x15f;" horiz-adv-x="442" 
d="M417 138q0 -59 -43.5 -95t-112.5 -46l-20 -42q41 3 73 -21t32 -64q0 -47 -40.5 -73.5t-95.5 -26.5q-53 0 -86 22t-33 53q0 30 27.5 41.5t51.5 -13.5q0 -24 10.5 -45.5t34.5 -21.5t37 20t13 46q0 49 -39 49q-8 0 -22.5 -4t-22.5 -4q-16 0 -22.5 11t0.5 25l23 46
q-68 6 -112.5 36.5t-44.5 79.5q0 26 13 40t36 14q25 0 38.5 -13t13.5 -31q0 -43 31 -66t72 -23q39 0 57.5 20t18.5 48q0 31 -24 46.5t-81 32.5q-163 48 -163 149q0 60 53 96t132 36q69 0 122 -26.5t53 -76.5q0 -49 -50 -49q-45 0 -45 36q0 35 -24 56.5t-65 21.5
q-31 0 -49 -15.5t-18 -41.5q0 -31 23 -48t67 -30q89 -27 119 -46q62 -38 62 -103z" />
    <glyph glyph-name="Scaron" unicode="&#x160;" horiz-adv-x="563" 
d="M262 686l-144 162l21 22l123 -84l123 84l21 -22zM272 -10q-62 0 -120.5 15t-93.5 38q-23 53 -21 106.5t35 53.5q9 0 13 -4.5t9 -17.5q25 -70 79 -107t121 -37q53 0 79.5 24t26.5 66q0 21 -10 39t-22.5 29t-38.5 23t-43 17.5t-52 16.5q-199 62 -199 205q0 84 65.5 132
t168.5 48q58 0 115 -14t91 -36q23 -53 21 -106.5t-35 -53.5q-9 0 -13 4.5t-9 17.5q-24 68 -75 104.5t-111 36.5q-52 0 -76.5 -26t-24.5 -60q0 -49 35 -76t108 -49q40 -12 64 -20.5t60.5 -27t56.5 -38.5t36 -52t16 -71q0 -49 -23 -85.5t-61.5 -56t-81.5 -29t-90 -9.5z" />
    <glyph glyph-name="scaron" unicode="&#x161;" horiz-adv-x="442" 
d="M219 516l-144 162l21 22l123 -84l123 84l21 -22zM214 -6q-79 0 -134 31t-55 86q0 26 13 40t36 14q25 0 38.5 -13t13.5 -31q0 -43 31 -66t72 -23q39 0 57.5 20t18.5 48q0 31 -24 46.5t-81 32.5q-163 48 -163 149q0 60 53 96t132 36q69 0 122 -26.5t53 -76.5q0 -49 -50 -49
q-45 0 -45 36q0 35 -24 56.5t-65 21.5q-31 0 -49 -15.5t-18 -41.5q0 -31 23 -48t67 -30q89 -27 119 -46q62 -38 62 -103q0 -69 -58 -106.5t-145 -37.5z" />
    <glyph glyph-name="uni0162" unicode="&#x162;" horiz-adv-x="642" 
d="M597 624l20 -154h-34q-23 62 -46.5 84t-74.5 22q-47 0 -60 -10.5t-13 -48.5v-424q0 -28 20 -41.5t69 -18.5v-33h-115l-21 -45q41 3 73 -21t32 -64q0 -47 -40.5 -73.5t-95.5 -26.5q-53 0 -86 22t-33 53q0 30 27.5 41.5t51.5 -13.5q0 -24 10.5 -45.5t34.5 -21.5t37 20
t13 46q0 49 -39 49q-8 0 -22.5 -4t-22.5 -4q-16 0 -22.5 11t0.5 25l25 51h-121v33q49 5 69 18.5t20 41.5v424q0 38 -13 48.5t-60 10.5q-51 0 -74.5 -22t-46.5 -84h-34l20 154l57 -3h438z" />
    <glyph glyph-name="uni0163" unicode="&#x163;" horiz-adv-x="342" 
d="M223 -45q41 3 73 -21t32 -64q0 -47 -40.5 -73.5t-95.5 -26.5q-53 0 -86 22t-33 53q0 30 27.5 41.5t51.5 -13.5q0 -24 10.5 -45.5t34.5 -21.5t37 20t13 46q0 49 -39 49q-8 0 -22.5 -4t-22.5 -4q-16 0 -22.5 11t0.5 25l25 51h8q-91 23 -91 148v235q0 15 -6 21t-21 6h-41v29
q64 9 96 37t45 83h47v-81q0 -27 27 -27h88v-41h-88q-27 0 -27 -27v-257q0 -83 50 -83q32 0 52 16l17 -31q-31 -27 -80 -32z" />
    <glyph glyph-name="Tcaron" unicode="&#x164;" horiz-adv-x="642" 
d="M320 686l-144 162l21 22l123 -84l123 84l21 -22zM164 0v33q49 5 69 18.5t20 41.5v424q0 38 -13 48.5t-60 10.5q-51 0 -74.5 -22t-46.5 -84h-34l20 154l57 -3h438l57 3l20 -154h-34q-23 62 -46.5 84t-74.5 22q-47 0 -60 -10.5t-13 -48.5v-424q0 -28 20 -41.5t69 -18.5v-33
h-314z" />
    <glyph glyph-name="tcaron" unicode="&#x165;" horiz-adv-x="343" 
d="M266 488q-30 0 -29 30l3 94q1 58 54 58q29 0 43 -18.5t1 -50.5l-36 -84q-12 -29 -36 -29zM220 -5q-137 0 -137 153v235q0 15 -6 21t-21 6h-41v29q64 9 96 37t45 83h47v-81q0 -27 27 -27h88v-41h-88q-27 0 -27 -27v-257q0 -83 50 -83q32 0 52 16l17 -31q-37 -33 -102 -33z
" />
    <glyph glyph-name="Tbar" unicode="&#x166;" horiz-adv-x="642" 
d="M597 624l20 -154h-34q-23 62 -46.5 84t-74.5 22q-47 0 -60 -10.5t-13 -48.5v-110h108l1 -50h-109v-264q0 -28 20 -41.5t69 -18.5v-33h-314v33q49 5 69 18.5t20 41.5v264h-108l1 50h107v110q0 38 -13 48.5t-60 10.5q-51 0 -74.5 -22t-46.5 -84h-34l20 154l57 -3h438z" />
    <glyph glyph-name="tbar" unicode="&#x167;" horiz-adv-x="342" 
d="M305 59l17 -31q-37 -33 -102 -33q-137 0 -137 153v151h-68v41h68v43q0 15 -6 21t-21 6h-41v29q64 9 96 37t45 83h47v-81q0 -27 27 -27h88v-41h-88q-27 0 -27 -27v-43h115v-41h-115v-173q0 -83 50 -83q32 0 52 16z" />
    <glyph glyph-name="Umacron" unicode="&#x16a;" horiz-adv-x="710" 
d="M221 802q0 17 20 17h283q20 0 20 -17v-32q0 -17 -20 -17h-283q-20 0 -20 17v32zM359 -10q-121 0 -193 68.5t-72 205.5v264q0 51 -69 60v33h274v-33q-69 -9 -69 -60v-250q0 -114 42 -168.5t117 -54.5t121 53t46 164v256q0 50 -73 60v33h202v-33q-73 -10 -73 -60v-274
q0 -124 -65 -194t-188 -70z" />
    <glyph glyph-name="umacron" unicode="&#x16b;" 
d="M139 632q0 17 20 17h283q20 0 20 -17v-32q0 -17 -20 -17h-283q-20 0 -20 17v32zM235 -6q-146 0 -146 176v174q0 34 -14.5 45.5t-49.5 8.5v34l140 26q44 8 44 -35v-227q0 -57 23.5 -90.5t68.5 -33.5q48 0 75.5 34t27.5 90v148q0 34 -14.5 45.5t-49.5 8.5v34l140 26
q44 8 44 -35v-334q0 -49 51 -38v-34q-28 -22 -83 -22q-67 0 -83 62q-3 17 -12 17q-6 0 -14 -10q-57 -70 -148 -70z" />
    <glyph glyph-name="ubreve" unicode="&#x16d;" 
d="M299 546q-62 0 -103.5 36t-41.5 98q0 11 9 11h27q7 0 10 -11q14 -58 99 -58t99 58q3 11 10 11h27q9 0 9 -11q0 -62 -41.5 -98t-103.5 -36zM235 -6q-146 0 -146 176v174q0 34 -14.5 45.5t-49.5 8.5v34l140 26q44 8 44 -35v-227q0 -57 23.5 -90.5t68.5 -33.5q48 0 75.5 34
t27.5 90v148q0 34 -14.5 45.5t-49.5 8.5v34l140 26q44 8 44 -35v-334q0 -49 51 -38v-34q-28 -22 -83 -22q-67 0 -83 62q-3 17 -12 17q-6 0 -14 -10q-57 -70 -148 -70z" />
    <glyph glyph-name="Uring" unicode="&#x16e;" horiz-adv-x="710" 
d="M371 710q-43 0 -72.5 28.5t-29.5 69.5t29.5 70t72.5 29t72.5 -29t29.5 -70t-29.5 -69.5t-72.5 -28.5zM371 763q20 0 32 12.5t12 32.5q0 19 -12 32.5t-32 13.5t-32 -13.5t-12 -32.5q0 -20 12 -32.5t32 -12.5zM359 -10q-121 0 -193 68.5t-72 205.5v264q0 51 -69 60v33h274
v-33q-69 -9 -69 -60v-250q0 -114 42 -168.5t117 -54.5t121 53t46 164v256q0 50 -73 60v33h202v-33q-73 -10 -73 -60v-274q0 -124 -65 -194t-188 -70z" />
    <glyph glyph-name="uring" unicode="&#x16f;" 
d="M256 540q-43 0 -72.5 28.5t-29.5 69.5t29.5 70t72.5 29t72.5 -29t29.5 -70t-29.5 -69.5t-72.5 -28.5zM256 593q20 0 32 12.5t12 32.5q0 19 -12 32.5t-32 13.5t-32 -13.5t-12 -32.5q0 -20 12 -32.5t32 -12.5zM235 -6q-146 0 -146 176v174q0 34 -14.5 45.5t-49.5 8.5v34
l140 26q44 8 44 -35v-227q0 -57 23.5 -90.5t68.5 -33.5q48 0 75.5 34t27.5 90v148q0 34 -14.5 45.5t-49.5 8.5v34l140 26q44 8 44 -35v-334q0 -49 51 -38v-34q-28 -22 -83 -22q-67 0 -83 62q-3 17 -12 17q-6 0 -14 -10q-57 -70 -148 -70z" />
    <glyph glyph-name="Uhungarumlaut" unicode="&#x170;" horiz-adv-x="710" 
d="M249 743q-18 -20 -5 -35t34 -2l121 72q33 20 43 42.5t-10 48.5q-39 40 -89 -17zM456 743q-18 -20 -5 -35t34 -2l121 72q33 20 43 42.5t-10 48.5q-39 40 -89 -17zM359 -10q-121 0 -193 68.5t-72 205.5v264q0 51 -69 60v33h274v-33q-69 -9 -69 -60v-250q0 -114 42 -168.5
t117 -54.5t121 53t46 164v256q0 50 -73 60v33h202v-33q-73 -10 -73 -60v-274q0 -124 -65 -194t-188 -70z" />
    <glyph glyph-name="uhungarumlaut" unicode="&#x171;" 
d="M132 573q-18 -20 -5 -35t34 -2l121 72q33 20 43 42.5t-10 48.5q-39 40 -89 -17zM339 573q-18 -20 -5 -35t34 -2l121 72q33 20 43 42.5t-10 48.5q-39 40 -89 -17zM235 -6q-146 0 -146 176v174q0 34 -14.5 45.5t-49.5 8.5v34l140 26q44 8 44 -35v-227q0 -57 23.5 -90.5
t68.5 -33.5q48 0 75.5 34t27.5 90v148q0 34 -14.5 45.5t-49.5 8.5v34l140 26q44 8 44 -35v-334q0 -49 51 -38v-34q-28 -22 -83 -22q-67 0 -83 62q-3 17 -12 17q-6 0 -14 -10q-57 -70 -148 -70z" />
    <glyph glyph-name="Uogonek" unicode="&#x172;" horiz-adv-x="710" 
d="M483 621h202v-33q-73 -10 -73 -60v-274q0 -100 -42 -165.5t-124 -87.5q-91 -58 -91 -115q0 -25 15.5 -41t41.5 -16q52 0 70 55h42q-4 -17 -12 -33t-25 -36.5t-49 -33t-74 -12.5q-51 0 -87.5 24t-36.5 74q0 42 32 74t77 49q-117 3 -186 71t-69 203v264q0 51 -69 60v33h274
v-33q-69 -9 -69 -60v-250q0 -114 42 -168.5t117 -54.5t121 53t46 164v256q0 50 -73 60v33z" />
    <glyph glyph-name="uogonek" unicode="&#x173;" 
d="M504 -5q-56 -9 -85 -29t-29 -61q0 -28 14.5 -44.5t39.5 -16.5q27 0 39 14.5t21 43.5h42q-29 -118 -157 -118q-47 0 -80.5 24t-33.5 74q0 55 45.5 87t113.5 44q-17 13 -25 44q-3 17 -12 17q-6 0 -14 -10q-57 -70 -148 -70q-146 0 -146 176v174q0 34 -14.5 45.5t-49.5 8.5
v34l140 26q44 8 44 -35v-227q0 -57 23.5 -90.5t68.5 -33.5q48 0 75.5 34t27.5 90v148q0 34 -14.5 45.5t-49.5 8.5v34l140 26q44 8 44 -35v-334q0 -49 51 -38v-34q-25 -19 -71 -22z" />
    <glyph glyph-name="Wcircumflex" unicode="&#x174;" horiz-adv-x="1040" 
d="M520 894l144 -162l-21 -22l-123 84l-123 -84l-21 22zM307 0l-193 471q-26 65 -42.5 87.5t-51.5 30.5v32h262v-33q-42 -6 -50.5 -27t7.5 -52l127 -317q10 -24 20 0l64 168q12 31 17 49t5.5 42t-9.5 47q-20 46 -35.5 65t-47.5 26v32h262v-33q-42 -6 -50.5 -27t7.5 -52
l127 -317q10 -24 20 0l119 311q28 72 -67 85v33h222v-33q-40 -8 -61.5 -29.5t-38.5 -63.5l-154 -396q-26 -66 -26 -99h-73l-154 375l-107 -276q-26 -66 -26 -99h-73z" />
    <glyph glyph-name="wcircumflex" unicode="&#x175;" horiz-adv-x="810" 
d="M345 724l144 -162l-21 -22l-123 84l-123 -84l-21 22zM210 0l-119 332q-14 39 -31 56t-50 29v34h234v-34q-38 -11 -43 -27.5t11 -57.5l72 -209q3 -10 8.5 -14t11.5 0t9 14l35 110q23 69 7 120q-16 47 -64 64v34h234v-34q-38 -11 -43 -27.5t11 -57.5l72 -209q3 -10 9 -14
t11.5 0t8.5 14l36 112q25 76 28.5 112t-8 49t-45.5 21v34h195v-34q-45 -11 -64 -28t-33 -57l-119 -332h-93l-94 263l-94 -263h-93z" />
    <glyph glyph-name="Ycircumflex" unicode="&#x176;" horiz-adv-x="671" 
d="M336 894l144 -162l-21 -22l-123 84l-123 -84l-21 22zM180 0v33q49 5 69 18.5t20 41.5v134q0 41 -21 73l-121 186q-34 53 -57 75.5t-55 26.5v33h274v-33q-74 -10 -29 -79l110 -172q7 -12 14 0l112 173q21 32 9.5 53t-52.5 25v33h203v-33q-32 -3 -56 -25t-50 -62l-127 -196
q-18 -28 -18 -78v-134q0 -28 20 -41.5t69 -18.5v-33h-314z" />
    <glyph glyph-name="ycircumflex" unicode="&#x177;" horiz-adv-x="552" 
d="M276 724l144 -162l-21 -22l-123 84l-123 -84l-21 22zM143 -198q-47 0 -76 20.5t-29 54.5q0 24 15.5 41t43.5 17q25 0 37.5 -14.5t14 -31.5t8.5 -31.5t22 -14.5q28 0 45 47q20 52 -7 120l-126 322q-16 39 -32 56.5t-49 28.5v34h236v-34q-39 -11 -44.5 -27.5t12.5 -57.5
l84 -209q4 -10 9 -14t10 0t9 14l43 112q28 73 32.5 110t-8 50.5t-46.5 21.5v34h195v-34q-44 -11 -62 -27.5t-34 -57.5l-153 -391q-29 -76 -62 -107.5t-88 -31.5z" />
    <glyph glyph-name="Ydieresis" unicode="&#x178;" horiz-adv-x="671" 
d="M229 698q-29 0 -50 20.5t-21 49.5q0 30 21 50.5t50 20.5t49.5 -20.5t20.5 -50.5q0 -29 -20.5 -49.5t-49.5 -20.5zM444 698q-29 0 -50 20.5t-21 49.5q0 30 21 50.5t50 20.5t49.5 -20.5t20.5 -50.5q0 -29 -20.5 -49.5t-49.5 -20.5zM180 0v33q49 5 69 18.5t20 41.5v134
q0 41 -21 73l-121 186q-34 53 -57 75.5t-55 26.5v33h274v-33q-74 -10 -29 -79l110 -172q7 -12 14 0l112 173q21 32 9.5 53t-52.5 25v33h203v-33q-32 -3 -56 -25t-50 -62l-127 -196q-18 -28 -18 -78v-134q0 -28 20 -41.5t69 -18.5v-33h-314z" />
    <glyph glyph-name="Zacute" unicode="&#x179;" horiz-adv-x="610" 
d="M286 743q-18 -20 -5 -35t34 -2l121 72q33 20 43 42.5t-10 48.5q-39 40 -89 -17zM15 0l395 580l-189 -1q-58 0 -87.5 -24t-56.5 -79h-34l32 145h515l-395 -580l212 1q33 0 55 6t39.5 23.5t27 32.5t27.5 51h34l-38 -155h-537z" />
    <glyph glyph-name="zacute" unicode="&#x17a;" horiz-adv-x="460" 
d="M200 573q-18 -20 -5 -35t34 -2l121 72q33 20 43 42.5t-10 48.5q-39 40 -89 -17zM15 0l271 408h-130q-36 0 -55.5 -21t-30.5 -61h-34l18 125h391l-271 -408h138q36 0 55.5 21t30.5 61h34l-18 -125h-399z" />
    <glyph glyph-name="Zdotaccent" unicode="&#x17b;" horiz-adv-x="610" 
d="M316 698q-29 0 -50 20.5t-21 49.5q0 30 21 50.5t50 20.5t49.5 -20.5t20.5 -50.5q0 -29 -20.5 -49.5t-49.5 -20.5zM15 0l395 580l-189 -1q-58 0 -87.5 -24t-56.5 -79h-34l32 145h515l-395 -580l212 1q33 0 55 6t39.5 23.5t27 32.5t27.5 51h34l-38 -155h-537z" />
    <glyph glyph-name="zdotaccent" unicode="&#x17c;" horiz-adv-x="460" 
d="M230 528q-29 0 -50 20.5t-21 49.5q0 30 21 50.5t50 20.5t49.5 -20.5t20.5 -50.5q0 -29 -20.5 -49.5t-49.5 -20.5zM15 0l271 408h-130q-36 0 -55.5 -21t-30.5 -61h-34l18 125h391l-271 -408h138q36 0 55.5 21t30.5 61h34l-18 -125h-399z" />
    <glyph glyph-name="Zcaron" unicode="&#x17d;" horiz-adv-x="610" 
d="M316 686l-144 162l21 22l123 -84l123 84l21 -22zM15 0l395 580l-189 -1q-58 0 -87.5 -24t-56.5 -79h-34l32 145h515l-395 -580l212 1q33 0 55 6t39.5 23.5t27 32.5t27.5 51h34l-38 -155h-537z" />
    <glyph glyph-name="zcaron" unicode="&#x17e;" horiz-adv-x="460" 
d="M230 516l-144 162l21 22l123 -84l123 84l21 -22zM15 0l271 408h-130q-36 0 -55.5 -21t-30.5 -61h-34l18 125h391l-271 -408h138q36 0 55.5 21t30.5 61h34l-18 -125h-399z" />
    <glyph glyph-name="florin" unicode="&#x192;" horiz-adv-x="454" 
d="M322 672q63 0 107.5 -28.5t44.5 -71.5q0 -25 -16.5 -40.5t-42.5 -15.5q-29 0 -43 18.5t-16 41t-13 41t-36 18.5q-32 0 -43.5 -29.5t-11.5 -85.5v-42q0 -27 27 -27h100v-41h-100q-27 0 -27 -27v-409q0 -90 -54 -140t-136 -50q-63 0 -107.5 28.5t-44.5 71.5q0 25 16.5 40.5
t42.5 15.5q29 0 43 -18.5t16 -41t13 -41t36 -18.5q32 0 43.5 29.5t11.5 85.5v447q0 15 -6 21t-21 6h-41v29q34 1 51 9t17 30v4q0 90 54 140t136 50z" />
    <glyph glyph-name="uni0218" unicode="&#x218;" horiz-adv-x="563" 
d="M272 -10q-62 0 -120.5 15t-93.5 38q-23 53 -21 106.5t35 53.5q9 0 13 -4.5t9 -17.5q25 -70 79 -107t121 -37q53 0 79.5 24t26.5 66q0 21 -10 39t-22.5 29t-38.5 23t-43 17.5t-52 16.5q-199 62 -199 205q0 84 65.5 132t168.5 48q58 0 115 -14t91 -36q23 -53 21 -106.5
t-35 -53.5q-9 0 -13 4.5t-9 17.5q-24 68 -75 104.5t-111 36.5q-52 0 -76.5 -26t-24.5 -60q0 -49 35 -76t108 -49q40 -12 64 -20.5t60.5 -27t56.5 -38.5t36 -52t16 -71q0 -49 -23 -85.5t-61.5 -56t-81.5 -29t-90 -9.5zM257 -312l-20 22q47 41 47 74q0 16 -17 16
q-29 0 -47.5 19t-18.5 48q0 31 20.5 51t52.5 20q37 0 56.5 -25.5t19.5 -66.5q0 -49 -26.5 -90t-66.5 -68z" />
    <glyph glyph-name="uni0219" unicode="&#x219;" horiz-adv-x="442" 
d="M214 -6q-79 0 -134 31t-55 86q0 26 13 40t36 14q25 0 38.5 -13t13.5 -31q0 -43 31 -66t72 -23q39 0 57.5 20t18.5 48q0 31 -24 46.5t-81 32.5q-163 48 -163 149q0 60 53 96t132 36q69 0 122 -26.5t53 -76.5q0 -49 -50 -49q-45 0 -45 36q0 35 -24 56.5t-65 21.5
q-31 0 -49 -15.5t-18 -41.5q0 -31 23 -48t67 -30q89 -27 119 -46q62 -38 62 -103q0 -69 -58 -106.5t-145 -37.5zM202 -312l-20 22q47 41 47 74q0 16 -17 16q-29 0 -47.5 19t-18.5 48q0 31 20.5 51t52.5 20q37 0 56.5 -25.5t19.5 -66.5q0 -49 -26.5 -90t-66.5 -68z" />
    <glyph glyph-name="uni021A" unicode="&#x21a;" horiz-adv-x="642" 
d="M164 0v33q49 5 69 18.5t20 41.5v424q0 38 -13 48.5t-60 10.5q-51 0 -74.5 -22t-46.5 -84h-34l20 154l57 -3h438l57 3l20 -154h-34q-23 62 -46.5 84t-74.5 22q-47 0 -60 -10.5t-13 -48.5v-424q0 -28 20 -41.5t69 -18.5v-33h-314zM303 -312l-20 22q47 41 47 74q0 16 -17 16
q-29 0 -47.5 19t-18.5 48q0 31 20.5 51t52.5 20q37 0 56.5 -25.5t19.5 -66.5q0 -49 -26.5 -90t-66.5 -68z" />
    <glyph glyph-name="uni021B" unicode="&#x21b;" horiz-adv-x="342" 
d="M220 -5q-137 0 -137 153v235q0 15 -6 21t-21 6h-41v29q64 9 96 37t45 83h47v-81q0 -27 27 -27h88v-41h-88q-27 0 -27 -27v-257q0 -83 50 -83q32 0 52 16l17 -31q-37 -33 -102 -33zM184 -312l-20 22q47 41 47 74q0 16 -17 16q-29 0 -47.5 19t-18.5 48q0 31 20.5 51
t52.5 20q37 0 56.5 -25.5t19.5 -66.5q0 -49 -26.5 -90t-66.5 -68z" />
    <glyph glyph-name="uni0237" unicode="&#x237;" horiz-adv-x="280" 
d="M50 -201q-48 0 -84 19.5t-36 58.5q0 25 14.5 40t37.5 15q26 0 41.5 -14t20 -30.5t10.5 -30.5t16 -14q11 0 18 15.5t7 36.5v449q0 34 -14.5 45.5t-49.5 8.5v34l140 26q44 8 44 -35v-470q0 -73 -47 -113.5t-118 -40.5z" />
    <glyph glyph-name="circumflex" unicode="&#x2c6;" horiz-adv-x="318" 
d="M159 724l144 -162l-21 -22l-123 84l-123 -84l-21 22z" />
    <glyph glyph-name="caron" unicode="&#x2c7;" horiz-adv-x="318" 
d="M159 516l-144 162l21 22l123 -84l123 84l21 -22z" />
    <glyph glyph-name="breve" unicode="&#x2d8;" horiz-adv-x="390" 
d="M195 546q-62 0 -103.5 36t-41.5 98q0 11 9 11h27q7 0 10 -11q14 -58 99 -58t99 58q3 11 10 11h27q9 0 9 -11q0 -62 -41.5 -98t-103.5 -36z" />
    <glyph glyph-name="dotaccent" unicode="&#x2d9;" horiz-adv-x="241" 
d="M121 528q-29 0 -50 20.5t-21 49.5q0 30 21 50.5t50 20.5t49.5 -20.5t20.5 -50.5q0 -29 -20.5 -49.5t-49.5 -20.5z" />
    <glyph glyph-name="ring" unicode="&#x2da;" horiz-adv-x="304" 
d="M152 540q-43 0 -72.5 28.5t-29.5 69.5t29.5 70t72.5 29t72.5 -29t29.5 -70t-29.5 -69.5t-72.5 -28.5zM152 593q20 0 32 12.5t12 32.5q0 19 -12 32.5t-32 13.5t-32 -13.5t-12 -32.5q0 -20 12 -32.5t32 -12.5z" />
    <glyph glyph-name="ogonek" unicode="&#x2db;" horiz-adv-x="361" 
d="M321 -95q-4 -17 -12 -33t-25 -36.5t-49 -33t-74 -12.5q-51 0 -87.5 24t-36.5 74q0 51 45.5 86.5t99.5 47.5h61q-91 -58 -91 -115q0 -25 15.5 -41t41.5 -16q52 0 70 55h42z" />
    <glyph glyph-name="tilde" unicode="&#x2dc;" horiz-adv-x="487" 
d="M326 536q-45 0 -110 34t-87 34q-19 0 -33 -12t-14 -34h-32q0 56 30 87t81 31q45 0 110 -34t87 -34q47 0 47 46h32q0 -56 -29.5 -87t-81.5 -31z" />
    <glyph glyph-name="hungarumlaut" unicode="&#x2dd;" horiz-adv-x="514" 
d="M60 573q-18 -20 -5 -35t34 -2l121 72q33 20 43 42.5t-10 48.5q-39 40 -89 -17zM267 573q-18 -20 -5 -35t34 -2l121 72q33 20 43 42.5t-10 48.5q-39 40 -89 -17z" />
    <glyph glyph-name="acutecomb" unicode="&#x301;" horiz-adv-x="0" 
d="M-247 573q-18 -20 -5 -35t34 -2l121 72q33 20 43 42.5t-10 48.5q-39 40 -89 -17z" />
    <glyph glyph-name="uni0326" unicode="&#x326;" horiz-adv-x="0" 
d="M-143 -312l-20 22q47 41 47 74q0 16 -17 16q-29 0 -47.5 19t-18.5 48q0 31 20.5 51t52.5 20q37 0 56.5 -25.5t19.5 -66.5q0 -49 -26.5 -90t-66.5 -68z" />
    <glyph glyph-name="uni0394" unicode="&#x394;" horiz-adv-x="644" 
d="M20 0l292 634l312 -634h-604zM116 97h348l-176 363z" />
    <glyph glyph-name="uni03A9" unicode="&#x3a9;" horiz-adv-x="754" 
d="M650 127h64l-34 -104q-8 -23 -30 -23h-209v155q55 5 87 57.5t32 140.5q0 104 -48.5 161t-134.5 57t-134.5 -57t-48.5 -161q0 -89 32 -141t88 -57v-155h-210q-22 0 -30 23l-34 104h64l17 -27q6 -10 11.5 -15.5t18 -8t16 -3t23.5 -1.5l53 -3q14 0 15 12q-88 25 -144.5 96
t-56.5 166q0 118 90.5 206t229.5 88t229.5 -88t90.5 -206q0 -89 -57 -162t-143 -99q1 -13 14 -13l53 3q43 3 55 11q8 7 14 17z" />
    <glyph glyph-name="uni03BC" unicode="&#x3bc;" 
d="M524 89q0 -49 51 -38v-34q-28 -22 -83 -22q-67 0 -83 62q-3 17 -12 17q-6 0 -14 -10q-57 -70 -148 -70q-47 0 -80 19q4 -38 16 -66.5t23.5 -40t19.5 -21.5t7 -18q-5 -36 -37.5 -56t-63.5 -8.5t-31 52.5v489q0 34 -14.5 45.5t-49.5 8.5v34l140 26q44 8 44 -35v-227
q0 -57 23.5 -90.5t68.5 -33.5q48 0 75.5 34t27.5 90v148q0 34 -14.5 45.5t-49.5 8.5v34l140 26q44 8 44 -35v-334z" />
    <glyph glyph-name="pi" unicode="&#x3c0;" horiz-adv-x="734" 
d="M645 120q42 -17 24 -79q-10 -35 -61.5 -46.5t-101.5 7.5q-84 31 -84 128v234h-112v-248q0 -55 -38 -88.5t-80 -33.5q-52 0 -79 10l-13 56q40 -9 71.5 14t31.5 69v221h-44q-33 0 -47 -21.5t-4 -59.5l-36 33q-12 33 -12 58q0 35 24.5 56t67.5 21h477v-87h-73
q-15 0 -21.5 -7t-6.5 -24v-226q0 -44 24 -54q8 -3 13.5 5t12 23.5t9.5 20.5q21 33 58 18z" />
    <glyph glyph-name="uni0400" unicode="&#x400;" horiz-adv-x="596" 
d="M353 743l-94 109q-50 57 -89 17q-20 -26 -10 -48.5t43 -42.5l121 -72q21 -13 34 2t-5 35zM30 0v33q69 9 69 60v435q0 51 -69 60v33h485q13 0 14 -11q6 -60 21 -123h-23q-23 47 -51.5 68t-74.5 21h-103q-33 0 -48 -12.5t-15 -40.5v-133q0 -28 15 -40.5t48 -12.5h65
q52 0 70.5 15.5t24.5 55.5h19v-187h-19q-7 39 -25 55t-70 16h-65q-33 0 -48 -12.5t-15 -40.5v-142q0 -28 16 -40.5t54 -12.5l111 1q80 1 113 51l24 36h23q-21 -41 -30 -118q-2 -14 -16 -14h-500z" />
    <glyph glyph-name="uni0401" unicode="&#x401;" horiz-adv-x="596" 
d="M200 698q-29 0 -50 20.5t-21 49.5q0 30 21 50.5t50 20.5t49.5 -20.5t20.5 -50.5q0 -29 -20.5 -49.5t-49.5 -20.5zM415 698q-29 0 -50 20.5t-21 49.5q0 30 21 50.5t50 20.5t49.5 -20.5t20.5 -50.5q0 -29 -20.5 -49.5t-49.5 -20.5zM30 0v33q69 9 69 60v435q0 51 -69 60v33
h485q13 0 14 -11q6 -60 21 -123h-23q-23 47 -51.5 68t-74.5 21h-103q-33 0 -48 -12.5t-15 -40.5v-133q0 -28 15 -40.5t48 -12.5h65q52 0 70.5 15.5t24.5 55.5h19v-187h-19q-7 39 -25 55t-70 16h-65q-33 0 -48 -12.5t-15 -40.5v-142q0 -28 16 -40.5t54 -12.5l111 1
q80 1 113 51l24 36h23q-21 -41 -30 -118q-2 -14 -16 -14h-500z" />
    <glyph glyph-name="uni0403" unicode="&#x403;" horiz-adv-x="570" 
d="M268 743q-18 -20 -5 -35t34 -2l121 72q33 20 43 42.5t-10 48.5q-39 40 -89 -17zM30 0v33q69 9 69 60v435q0 51 -69 60v33h484l31 -137h-34q-27 55 -50.5 76t-55.5 21h-101q-36 0 -52.5 -11t-16.5 -42v-435q0 -28 18.5 -41.5t60.5 -18.5v-33h-284z" />
    <glyph glyph-name="uni0404" unicode="&#x404;" horiz-adv-x="659" 
d="M436 69q96 0 165 77l23 -19q-27 -50 -93 -93.5t-166 -43.5q-138 0 -236.5 87.5t-98.5 232.5q0 149 102.5 238t245.5 89q113 0 179.5 -50.5t66.5 -114.5q0 -33 -19.5 -57t-57.5 -24q-35 0 -55.5 21.5t-20.5 55.5q0 53 -29.5 92.5t-92.5 39.5q-73 0 -121.5 -61.5
t-51.5 -165.5q3 -41 38 -41h195v-50h-187q-36 0 -28 -37q29 -83 95.5 -129.5t146.5 -46.5z" />
    <glyph glyph-name="uni0405" unicode="&#x405;" horiz-adv-x="563" 
d="M272 -10q-62 0 -120.5 15t-93.5 38q-23 53 -21 106.5t35 53.5q9 0 13 -4.5t9 -17.5q25 -70 79 -107t121 -37q53 0 79.5 24t26.5 66q0 21 -10 39t-22.5 29t-38.5 23t-43 17.5t-52 16.5q-199 62 -199 205q0 84 65.5 132t168.5 48q58 0 115 -14t91 -36q23 -53 21 -106.5
t-35 -53.5q-9 0 -13 4.5t-9 17.5q-24 68 -75 104.5t-111 36.5q-52 0 -76.5 -26t-24.5 -60q0 -49 35 -76t108 -49q40 -12 64 -20.5t60.5 -27t56.5 -38.5t36 -52t16 -71q0 -49 -23 -85.5t-61.5 -56t-81.5 -29t-90 -9.5z" />
    <glyph glyph-name="uni0406" unicode="&#x406;" horiz-adv-x="334" 
d="M30 0v33q69 9 69 60v435q0 51 -69 60v33h274v-33q-69 -9 -69 -60v-435q0 -51 69 -60v-33h-274z" />
    <glyph glyph-name="uni0407" unicode="&#x407;" horiz-adv-x="334" 
d="M60 698q-29 0 -50 20.5t-21 49.5q0 30 21 50.5t50 20.5t49.5 -20.5t20.5 -50.5q0 -29 -20.5 -49.5t-49.5 -20.5zM275 698q-29 0 -50 20.5t-21 49.5q0 30 21 50.5t50 20.5t49.5 -20.5t20.5 -50.5q0 -29 -20.5 -49.5t-49.5 -20.5zM30 0v33q69 9 69 60v435q0 51 -69 60v33
h274v-33q-69 -9 -69 -60v-435q0 -51 69 -60v-33h-274z" />
    <glyph glyph-name="uni0408" unicode="&#x408;" horiz-adv-x="423" 
d="M135 -10q-68 0 -111.5 28t-43.5 76q0 33 19 51.5t48 18.5q58 0 58 -68q0 -70 45 -70q38 0 38 67v435q0 28 -18.5 41.5t-60.5 18.5v33h284v-33q-69 -9 -69 -60v-375q0 -45 -17 -78t-45.5 -51t-60 -26t-66.5 -8z" />
    <glyph glyph-name="uni040D" unicode="&#x40d;" horiz-adv-x="730" 
d="M270 778q-33 20 -43 42.5t10 48.5q39 40 89 -17l94 -109q18 -20 5 -35t-34 -2zM700 588q-69 -9 -69 -60v-435q0 -51 69 -60v-33h-274v33q69 9 69 60v336l-260 -310v-26q0 -51 69 -60v-33h-274v33q69 9 69 60v435q0 51 -69 60v33h274v-33q-69 -9 -69 -60v-349l260 310v39
q0 51 -69 60v33h274v-33z" />
    <glyph glyph-name="uni040E" unicode="&#x40e;" horiz-adv-x="665" 
d="M353 716q-62 0 -103.5 36t-41.5 98q0 11 9 11h27q7 0 10 -11q14 -58 99 -58t99 58q3 11 10 11h27q9 0 9 -11q0 -62 -41.5 -98t-103.5 -36zM446 621h204v-33q-31 -4 -48 -22.5t-36 -55.5l-177 -346q-50 -97 -95.5 -138t-108.5 -41q-54 0 -89 25.5t-35 64.5q0 27 17 42.5
t44 15.5q25 0 37 -14t13 -31.5t10 -31.5t28 -14q43 0 95 78l-193 365q-4 8 -13.5 26t-12 23t-10 17t-12 15.5t-12.5 9.5t-17 8.5t-20 3.5v33h270v-33q-74 -10 -31 -92l125 -237l127 251q15 29 -5 51t-55 27v33z" />
    <glyph glyph-name="uni0410" unicode="&#x410;" horiz-adv-x="725" 
d="M609 150q34 -75 48 -91q18 -20 48 -27v-32h-267v33q42 6 50 27t-9 52l-16 35q-17 27 -55 27h-165q-41 0 -57 -30l-11 -26q-31 -71 67 -85v-33h-222v33q39 8 60 29t40 64l174 396q25 56 25 99l75 7zM406 219q9 0 14 6t0 17l-87 194q-9 23 -19 0l-86 -197q-3 -10 1.5 -15
t13.5 -5h163zM183 137v1v-1z" />
    <glyph glyph-name="uni0411" unicode="&#x411;" horiz-adv-x="641" 
d="M330 397q134 0 205 -54t71 -148q0 -93 -70.5 -144t-205.5 -51h-300v33q69 9 69 60v435q0 51 -69 60v33h484l31 -137h-34q-27 55 -50.5 76t-55.5 21h-101q-36 0 -52.5 -11t-16.5 -42v-78q0 -28 12.5 -40.5t42.5 -12.5h40zM330 50q141 0 141 147q0 150 -141 150h-40
q-30 0 -42.5 -12.5t-12.5 -40.5v-197q0 -47 44 -47h51z" />
    <glyph glyph-name="uni0412" unicode="&#x412;" horiz-adv-x="665" 
d="M30 0v33q69 9 69 60v435q0 51 -69 60v33h301q265 0 265 -147q0 -111 -148 -138q182 -27 182 -162q0 -80 -63 -127t-164 -47q-18 0 -93.5 4.5t-149.5 4.5t-130 -9zM298 355h46q58 0 84 31t26 81q0 114 -118 114h-38q-33 0 -48 -12.5t-15 -40.5v-120q0 -28 15 -40.5
t48 -12.5zM276 44h73q139 0 139 129q0 73 -47.5 108t-152.5 35q-53 0 -53 -53v-179q0 -40 41 -40z" />
    <glyph glyph-name="uni0413" unicode="&#x413;" horiz-adv-x="570" 
d="M30 0v33q69 9 69 60v435q0 51 -69 60v33h484l31 -137h-34q-27 55 -50.5 76t-55.5 21h-101q-36 0 -52.5 -11t-16.5 -42v-435q0 -28 18.5 -41.5t60.5 -18.5v-33h-284z" />
    <glyph glyph-name="uni0414" unicode="&#x414;" horiz-adv-x="725" 
d="M25 -115v149q0 10 10 11q83 12 114.5 136t31.5 348q0 30 -17 42.5t-62 16.5v33h590v-33q-40 -4 -59.5 -17t-19.5 -43v-431q0 -52 66 -52q19 0 15 -23l-22 -137h-33q0 76 -38.5 95.5t-174.5 19.5h-156q-129 0 -170.5 -23.5t-41.5 -91.5h-33zM116 45h303q27 0 42.5 14
t15.5 39v429q0 31 -13.5 40t-44.5 9h-146q-51 0 -51 -46q0 -421 -106 -485z" />
    <glyph glyph-name="uni0415" unicode="&#x415;" horiz-adv-x="596" 
d="M30 0v33q69 9 69 60v435q0 51 -69 60v33h485q13 0 14 -11q6 -60 21 -123h-23q-23 47 -51.5 68t-74.5 21h-103q-33 0 -48 -12.5t-15 -40.5v-133q0 -28 15 -40.5t48 -12.5h65q52 0 70.5 15.5t24.5 55.5h19v-187h-19q-7 39 -25 55t-70 16h-65q-33 0 -48 -12.5t-15 -40.5
v-142q0 -28 16 -40.5t54 -12.5l111 1q80 1 113 51l24 36h23q-21 -41 -30 -118q-2 -14 -16 -14h-500z" />
    <glyph glyph-name="uni0416" unicode="&#x416;" horiz-adv-x="1076" 
d="M920 128q36 -50 67 -69t69 -26v-33h-299v33q65 14 28 66l-101 142q-21 29 -36.5 39t-35.5 10h-6v-197q0 -51 69 -60v-33h-274v33q69 9 69 60v197h-6q-20 0 -35.5 -10t-36.5 -39l-101 -142q-37 -52 28 -66v-33h-299v33q38 7 69 26t67 69l144 196q16 22 16 38.5t-19 41.5
l-105 125q-11 16 -24 12.5t-21 -13.5t-25.5 -21t-36.5 -11q-27 0 -46 19t-19 45q0 30 24 49t62 19q28 0 53.5 -14.5t36.5 -26.5t36 -42l122 -146q29 -34 53.5 -47t55.5 -13h7v189q0 51 -69 60v33h274v-33q-69 -9 -69 -60v-189h7q31 0 55.5 13t53.5 47l122 146q25 30 36 42
t36.5 26.5t53.5 14.5q38 0 62 -19t24 -49q0 -26 -19 -45t-46 -19q-19 0 -36.5 11t-25.5 21t-21 13.5t-24 -12.5l-105 -125q-19 -25 -19 -41.5t16 -38.5z" />
    <glyph glyph-name="uni0417" unicode="&#x417;" horiz-adv-x="589" 
d="M282 -12q-101 0 -174 47.5t-73 125.5q0 71 63 71q31 0 42.5 -13.5t16 -46t9.5 -46.5q36 -99 123 -99q61 0 96.5 49t35.5 117q0 61 -30 95t-78 34q-36 0 -71 -19l-13 35q89 30 127.5 62t38.5 86q0 105 -101 105q-60 0 -111 -37t-75 -105q-5 -13 -9 -17.5t-13 -4.5
q-33 0 -35 53.5t21 106.5q34 22 93.5 36t118.5 14q100 0 164 -40t64 -103q0 -52 -39 -82.5t-89 -43.5q35 2 71.5 -13.5t65 -55.5t28.5 -95q0 -95 -77.5 -155.5t-189.5 -60.5z" />
    <glyph glyph-name="uni0418" unicode="&#x418;" horiz-adv-x="730" 
d="M700 588q-69 -9 -69 -60v-435q0 -51 69 -60v-33h-274v33q69 9 69 60v336l-260 -310v-26q0 -51 69 -60v-33h-274v33q69 9 69 60v435q0 51 -69 60v33h274v-33q-69 -9 -69 -60v-349l260 310v39q0 51 -69 60v33h274v-33z" />
    <glyph glyph-name="uni0419" unicode="&#x419;" horiz-adv-x="730" 
d="M374 716q-62 0 -103.5 36t-41.5 98q0 11 9 11h27q7 0 10 -11q15 -58 99 -58t99 58q3 11 10 11h27q9 0 9 -11q0 -62 -41.5 -98t-103.5 -36zM700 588q-69 -9 -69 -60v-435q0 -51 69 -60v-33h-274v33q69 9 69 60v336l-260 -310v-26q0 -51 69 -60v-33h-274v33q69 9 69 60v435
q0 51 -69 60v33h274v-33q-69 -9 -69 -60v-349l260 310v39q0 51 -69 60v33h274v-33z" />
    <glyph glyph-name="uni041A" unicode="&#x41a;" horiz-adv-x="705" 
d="M549 128q36 -50 67 -69t69 -26v-33h-299v33q65 14 28 66l-101 142q-21 29 -36.5 39t-35.5 10h-6v-197q0 -51 69 -60v-33h-274v33q69 9 69 60v435q0 51 -69 60v33h274v-33q-69 -9 -69 -60v-189h7q31 0 55.5 13t53.5 47l122 146q25 30 36 42t36.5 26.5t53.5 14.5
q38 0 62 -19t24 -49q0 -26 -18.5 -45t-46.5 -19q-19 0 -36.5 11t-25.5 21t-21 13.5t-24 -12.5l-105 -125q-19 -25 -19 -41.5t16 -38.5z" />
    <glyph glyph-name="uni041B" unicode="&#x41b;" horiz-adv-x="750" 
d="M124 -11q-50 0 -79.5 22.5t-29.5 59.5q0 26 15.5 41t40.5 15q22 0 32 -14t10 -31t6.5 -31t23.5 -14q32 0 41 43t9 155v293q0 29 -18 42.5t-63 17.5v33h608v-33q-69 -9 -69 -60v-435q0 -51 69 -60v-33h-274v33q69 9 69 60v435q0 27 -17 37.5t-53 10.5h-128
q-34 0 -49.5 -10.5t-15.5 -37.5v-271v-30q1 -122 -16 -167q-27 -71 -112 -71z" />
    <glyph glyph-name="uni041C" unicode="&#x41c;" horiz-adv-x="870" 
d="M840 588q-69 -9 -69 -60v-435q0 -51 69 -60v-33h-274v33q69 9 69 60v411l-214 -446h-40l-223 442v-407q0 -51 70 -60v-33h-198v33q69 9 69 60v435q0 51 -69 60v33h205l206 -407l194 407h205v-33z" />
    <glyph glyph-name="uni041D" unicode="&#x41d;" horiz-adv-x="737" 
d="M707 588q-69 -9 -69 -60v-435q0 -51 69 -60v-33h-274v33q69 9 69 60v155q0 33 -42 33h-183q-42 0 -42 -33v-155q0 -51 69 -60v-33h-274v33q69 9 69 60v435q0 51 -69 60v33h274v-33q-69 -9 -69 -60v-164q0 -33 43 -33h181q43 0 43 33v164q0 51 -69 60v33h274v-33z" />
    <glyph glyph-name="uni041E" unicode="&#x41e;" horiz-adv-x="717" 
d="M351 -10q-132 0 -226.5 87.5t-94.5 230.5q0 147 98 238t238 91q132 0 226.5 -87t94.5 -229q0 -148 -98 -239.5t-238 -91.5zM382 37q64 0 109.5 57t45.5 176q0 137 -58.5 228.5t-143.5 91.5q-64 0 -109.5 -56.5t-45.5 -174.5q0 -139 58.5 -230.5t143.5 -91.5z" />
    <glyph glyph-name="uni041F" unicode="&#x41f;" horiz-adv-x="737" 
d="M707 588q-69 -9 -69 -60v-435q0 -51 69 -60v-33h-274v33q69 9 69 60v435q0 20 -9 32q-10 11 -33 11h-183q-23 0 -33 -11q-9 -12 -9 -32v-435q0 -51 69 -60v-33h-274v33q69 9 69 60v435q0 51 -69 60v33h677v-33z" />
    <glyph glyph-name="uni0420" unicode="&#x420;" horiz-adv-x="631" 
d="M30 0v33q69 9 69 60v435q0 51 -69 60v33h300q135 0 205.5 -51t70.5 -144q0 -94 -71 -148t-205 -54h-40q-30 0 -42.5 -12.5t-12.5 -40.5v-78q0 -28 18.5 -41.5t60.5 -18.5v-33h-284zM290 274h40q141 0 141 150q0 147 -141 147h-51q-44 0 -44 -47v-197q0 -28 12.5 -40.5
t42.5 -12.5z" />
    <glyph glyph-name="uni0421" unicode="&#x421;" horiz-adv-x="659" 
d="M365 -10q-138 0 -236.5 87.5t-98.5 232.5q0 149 102.5 238t245.5 89q113 0 179.5 -50.5t66.5 -114.5q0 -33 -19.5 -57t-57.5 -24q-35 0 -55.5 21.5t-20.5 55.5q0 53 -29.5 92.5t-92.5 39.5q-75 0 -124 -65t-49 -175q0 -133 77 -212t183 -79q96 0 165 77l23 -19
q-27 -50 -93 -93.5t-166 -43.5z" />
    <glyph glyph-name="uni0422" unicode="&#x422;" horiz-adv-x="642" 
d="M164 0v33q49 5 69 18.5t20 41.5v424q0 38 -13 48.5t-60 10.5q-51 0 -74.5 -22t-46.5 -84h-34l20 154l57 -3h438l57 3l20 -154h-34q-23 62 -46.5 84t-74.5 22q-47 0 -60 -10.5t-13 -48.5v-424q0 -28 20 -41.5t69 -18.5v-33h-314z" />
    <glyph glyph-name="uni0423" unicode="&#x423;" horiz-adv-x="665" 
d="M446 621h204v-33q-31 -4 -48 -22.5t-36 -55.5l-177 -346q-50 -97 -95.5 -138t-108.5 -41q-54 0 -89 25.5t-35 64.5q0 27 17 42.5t44 15.5q25 0 37 -14t13 -31.5t10 -31.5t28 -14q43 0 95 78l-193 365q-4 8 -13.5 26t-12 23t-10 17t-12 15.5t-12.5 9.5t-17 8.5t-20 3.5v33
h270v-33q-74 -10 -31 -92l125 -237l127 251q15 29 -5 51t-55 27v33z" />
    <glyph glyph-name="uni0424" unicode="&#x424;" horiz-adv-x="790" 
d="M258 0v33q69 10 69 52q0 44 -55 44h-19q-105 0 -164 47.5t-59 134.5t59 134.5t164 47.5h19q55 0 55 43q0 42 -69 52v33h274v-33q-69 -10 -69 -52q0 -43 55 -43h19q105 0 164 -47.5t59 -134.5t-59 -134.5t-164 -47.5h-19q-55 0 -55 -44q0 -42 69 -52v-33h-274zM253 179h19
q30 0 42.5 12.5t12.5 40.5v158q0 28 -12.5 40.5t-42.5 12.5h-19q-50 0 -76.5 -37t-26.5 -95t26.5 -95t76.5 -37zM518 179h19q50 0 76.5 37t26.5 95t-26.5 95t-76.5 37h-19q-30 0 -42.5 -12.5t-12.5 -40.5v-158q0 -28 12.5 -40.5t42.5 -12.5z" />
    <glyph glyph-name="uni0425" unicode="&#x425;" horiz-adv-x="702" 
d="M557 131q68 -92 125 -98v-33h-286v33q36 4 45 22.5t-10 43.5l-109 151q-153 -177 -113 -209q9 -7 27 -8v-33h-216v33q40 4 96.5 49.5t152.5 167.5l27 35l-147 204q-67 93 -126 99v33h286v-33q-36 -4 -45 -22.5t10 -43.5l107 -147q149 174 108 205q-9 7 -26 8v33h216v-33
q-40 -4 -96.5 -49.5t-152.5 -167.5l-24 -31z" />
    <glyph glyph-name="uni0426" unicode="&#x426;" horiz-adv-x="745" 
d="M704 45q19 0 15 -23l-22 -137h-33q0 76 -40 95.5t-182 19.5h-412v33q69 9 69 60v435q0 51 -69 60v33h274v-33q-69 -9 -69 -60v-431q0 -24 16 -38t44 -14h149q27 0 42.5 14t15.5 38v431q0 51 -69 60v33h274v-33q-69 -9 -69 -60v-431q0 -52 66 -52z" />
    <glyph glyph-name="uni0427" unicode="&#x427;" horiz-adv-x="730" 
d="M426 0v33q69 9 69 60v101q0 37 -17 37q-6 0 -12 -7q-20 -24 -70 -47t-109 -23q-77 0 -132.5 44.5t-55.5 140.5v189q0 51 -69 60v33h273v-33q-35 -5 -51.5 -18.5t-16.5 -41.5v-163q0 -59 35.5 -95t104.5 -36q56 0 88 35t32 92v167q0 51 -69 60v33h274v-33q-69 -9 -69 -60
v-435q0 -51 69 -60v-33h-274z" />
    <glyph glyph-name="uni0428" unicode="&#x428;" horiz-adv-x="980" 
d="M950 588q-69 -9 -69 -60v-435q0 -51 69 -60v-33h-920v33q69 9 69 60v435q0 51 -69 60v33h274v-33q-69 -9 -69 -60v-431q0 -24 16 -38t44 -14h67q28 0 44 14t16 38v431q0 51 -69 60v33h274v-33q-69 -9 -69 -60v-431q0 -24 16 -38t44 -14h67q28 0 44 14t16 38v431
q0 51 -69 60v33h274v-33z" />
    <glyph glyph-name="uni0429" unicode="&#x429;" horiz-adv-x="983" 
d="M942 45q19 0 15 -23l-22 -137h-33q0 76 -40 95.5t-182 19.5h-655v33q69 9 69 60v435q0 51 -69 60v33h274v-33q-69 -9 -69 -60v-431q0 -24 16 -38t44 -14h67q28 0 44 14t16 38v431q0 51 -69 60v33h274v-33q-69 -9 -69 -60v-431q0 -24 16 -38t44 -14h67q58 0 60 51v1v431
q0 51 -69 60v33h274v-33q-69 -9 -69 -60v-431q0 -52 66 -52z" />
    <glyph glyph-name="uni042A" unicode="&#x42a;" horiz-adv-x="738" 
d="M437 397q134 0 205 -54t71 -148q0 -93 -70.5 -144t-205.5 -51h-300v33q69 9 69 60v435q0 22 -15.5 37.5t-40.5 15.5q-30 0 -52 -21t-49 -76h-34l31 137h365v-33q-69 -9 -69 -60v-78q0 -28 12.5 -40.5t42.5 -12.5h40zM437 50q141 0 141 147q0 150 -141 150h-40
q-30 0 -42.5 -12.5t-12.5 -40.5v-197q0 -47 44 -47h51z" />
    <glyph glyph-name="uni042B" unicode="&#x42b;" horiz-adv-x="913" 
d="M330 397q134 0 205 -54t71 -148q0 -93 -70.5 -144t-205.5 -51h-300v33q69 9 69 60v435q0 51 -69 60v33h274v-33q-69 -9 -69 -60v-78q0 -28 12.5 -40.5t42.5 -12.5h40zM883 588q-69 -9 -69 -60v-435q0 -51 69 -60v-33h-274v33q69 9 69 60v435q0 51 -69 60v33h274v-33z
M330 50q141 0 141 147q0 150 -141 150h-40q-30 0 -42.5 -12.5t-12.5 -40.5v-197q0 -47 44 -47h51z" />
    <glyph glyph-name="uni042C" unicode="&#x42c;" horiz-adv-x="641" 
d="M330 397q134 0 205 -54t71 -148q0 -93 -70.5 -144t-205.5 -51h-300v33q69 9 69 60v435q0 51 -69 60v33h274v-33q-69 -9 -69 -60v-78q0 -28 12.5 -40.5t42.5 -12.5h40zM330 50q141 0 141 147q0 150 -141 150h-40q-30 0 -42.5 -12.5t-12.5 -40.5v-197q0 -47 44 -47h51z" />
    <glyph glyph-name="uni042D" unicode="&#x42d;" horiz-adv-x="659" 
d="M281 637q143 0 245.5 -89t102.5 -238q0 -145 -98.5 -232.5t-236.5 -87.5q-100 0 -166 43.5t-93 93.5l23 19q69 -77 165 -77q80 0 146.5 46.5t95.5 129.5q8 37 -28 37h-187v50h195q35 0 38 41q-3 104 -51.5 165.5t-121.5 61.5q-63 0 -92.5 -39.5t-29.5 -92.5
q0 -34 -20.5 -55.5t-55.5 -21.5q-38 0 -57.5 24t-19.5 57q0 64 66.5 114.5t179.5 50.5z" />
    <glyph glyph-name="uni042E" unicode="&#x42e;" horiz-adv-x="1016" 
d="M665 637q132 0 226.5 -87t94.5 -229q0 -148 -98 -239.5t-238 -91.5q-125 0 -218 80t-102 212h-95v-189q0 -51 69 -60v-33h-274v33q69 9 69 60v435q0 51 -69 60v33h274v-33q-69 -9 -69 -60v-196h95q9 137 105 221t230 84zM681 37q64 0 109.5 57t45.5 176
q0 137 -58.5 228.5t-143.5 91.5q-64 0 -109.5 -56.5t-45.5 -174.5q0 -139 58.5 -230.5t143.5 -91.5z" />
    <glyph glyph-name="uni042F" unicode="&#x42f;" horiz-adv-x="677" 
d="M647 0h-284v33q42 5 60.5 18.5t18.5 41.5v124q0 28 -13 40.5t-46 12.5q-43 0 -67.5 -22t-45.5 -78q-35 -96 -74 -133t-122 -37h-54v33q21 0 37 17.5t24.5 36.5t22.5 58q3 9 5 14q20 58 47 86.5t73 40.5q5 2 5 6.5t-5 5.5q-76 12 -114 52.5t-38 101.5q0 81 65.5 125
t178.5 44h326v-33q-69 -9 -69 -60v-435q0 -51 69 -60v-33zM387 320q30 0 42.5 12.5t12.5 40.5v151q0 47 -44 47h-67q-60 0 -87.5 -34t-27.5 -86q0 -55 30 -93t97 -38h44z" />
    <glyph glyph-name="uni0430" unicode="&#x430;" horiz-adv-x="520" 
d="M162 -6q-57 0 -94.5 27.5t-37.5 82.5q0 62 60 99.5t203 58.5q21 3 28.5 10.5t7.5 27.5v13q0 110 -84 110q-64 0 -64 -72q0 -30 -18.5 -45.5t-45.5 -15.5t-42 16t-15 40q0 51 67.5 82.5t155.5 31.5t127 -40t39 -142v-189q0 -49 51 -38v-34q-28 -22 -83 -22
q-40 0 -61.5 19.5t-24.5 48.5q-1 9 -6 10t-12 -7q-58 -72 -151 -72zM222 61q46 0 76.5 30.5t30.5 75.5v30q0 18 -8.5 25t-31.5 5q-75 -7 -105.5 -35.5t-30.5 -62.5q0 -30 17.5 -49t51.5 -19z" />
    <glyph glyph-name="uni0431" unicode="&#x431;" horiz-adv-x="538" 
d="M273 -6q-32 0 -62 7t-64 28t-58.5 54t-41 91.5t-17.5 135.5q-1 311 266 311h46q38 0 53 3.5t26 15.5h34q0 -64 -37.5 -93t-117.5 -29h-53q-82 0 -123 -20.5t-41 -72.5q0 -50 37 -50q12 0 31 13.5t38 29t51.5 29t68.5 13.5q83 0 141 -61t58 -165q0 -112 -68 -176t-167 -64
zM284 37q44 0 71 41.5t27 111.5q0 90 -39 146t-92 56q-45 0 -72.5 -42t-27.5 -113q0 -89 40 -144.5t93 -55.5z" />
    <glyph glyph-name="uni0432" unicode="&#x432;" horiz-adv-x="519" 
d="M30 0v34q32 5 43 15t11 35v287q0 24 -12 33t-42 13v34h251q188 0 188 -107q0 -38 -25 -64.5t-72 -36.5q58 -10 90 -40.5t32 -77.5q0 -125 -211 -125q-48 0 -89 2t-49 2q-68 0 -115 -4zM229 263h42q44 0 62 18.5t18 54.5q0 75 -80 75h-42q-25 0 -25 -25v-98q0 -25 25 -25z
M236 41h47q93 0 93 89q0 48 -30 71.5t-102 23.5h-15q-25 0 -25 -25v-122q0 -37 32 -37z" />
    <glyph glyph-name="uni0433" unicode="&#x433;" horiz-adv-x="477" 
d="M30 0v34q30 4 42 13t12 33v291q0 24 -12 33t-42 13v34h394l23 -118h-34q-23 49 -43.5 63.5t-76.5 14.5h-64q-25 0 -25 -25v-306q0 -23 12 -32.5t41 -13.5v-34h-227z" />
    <glyph glyph-name="uni0434" unicode="&#x434;" horiz-adv-x="630" 
d="M20 -110v140q0 10 10 11q141 20 141 339q0 18 -17 25.5t-62 11.5v34h504v-34q-41 -4 -60 -11.5t-19 -24.5v-295q0 -46 72 -46q13 0 11 -12l-24 -138h-34q0 30 -0.5 44t-7.5 29.5t-15 20.5t-31 10t-48.5 5.5t-73.5 0.5h-136q-61 0 -94.5 -4t-52.5 -18t-24 -33t-5 -55h-34z
M114 40h225q58 0 58 46v292q0 18 -8 25.5t-28 7.5h-117q-18 0 -24.5 -6.5t-6.5 -24.5q0 -282 -99 -340z" />
    <glyph glyph-name="uni0435" unicode="&#x435;" horiz-adv-x="505" 
d="M329 63q69 0 112 52l24 -21q-19 -36 -69.5 -68t-124.5 -32q-100 0 -170.5 61t-70.5 170q0 111 73.5 173t175.5 62q82 0 136.5 -40.5t54.5 -106.5q0 -23 -8 -39.5t-21.5 -26.5t-37 -16t-46.5 -8.5t-59 -3.5l-110 -4q-26 -1 -16 -39q19 -54 60 -83.5t97 -29.5zM264 422
q-49 0 -75.5 -35t-30.5 -95q-1 -22 7.5 -32t27.5 -10h53q62 0 87 18t25 55q0 40 -25.5 69.5t-68.5 29.5z" />
    <glyph glyph-name="uni0436" unicode="&#x436;" horiz-adv-x="852" 
d="M733 99q50 -58 99 -65v-34h-227v34q45 8 18 40l-97 113q-12 14 -30 14h-10v-121q0 -23 12 -32.5t41 -13.5v-34h-227v34q30 4 42 13t12 33v121h-10q-18 0 -30 -14l-97 -113q-27 -32 18 -40v-34h-227v34q49 7 99 65l129 150q16 19 0 37l-75 85q-7 11 -16.5 9.5t-15.5 -7.5
t-18.5 -12.5t-27.5 -6.5q-23 0 -38 14.5t-15 37.5t15.5 37t43.5 14q21 0 39.5 -10t28.5 -20t30 -32l105 -121q25 -30 49 -30h13v127q0 24 -12 33t-42 13v34h227v-34q-29 -4 -41 -13.5t-12 -32.5v-127h13q24 0 49 30l105 121q20 22 30 32t28.5 20t39.5 10q28 0 43.5 -14
t15.5 -37t-15 -37.5t-38 -14.5q-15 0 -27.5 6.5t-18.5 12.5t-15.5 7.5t-16.5 -9.5l-75 -85q-16 -18 0 -37z" />
    <glyph glyph-name="uni0437" unicode="&#x437;" horiz-adv-x="464" 
d="M213 -8q-87 0 -135 38.5t-48 90.5q0 53 52 53q17 0 27 -7t13 -14.5t7.5 -25.5t8.5 -28q26 -70 88 -70q42 0 67.5 30t25.5 78q0 40 -20 60.5t-51 20.5q-25 0 -56 -13l-14 37q64 24 90 51t26 65q0 65 -62 65q-39 0 -72.5 -26t-45.5 -74q-6 -24 -23 -24q-32 0 -34 46t11 76
q81 39 165 39q78 0 122 -29t44 -77q0 -63 -79 -97q46 2 82.5 -28.5t36.5 -79.5q0 -69 -66.5 -113t-159.5 -44z" />
    <glyph glyph-name="uni0438" unicode="&#x438;" horiz-adv-x="605" 
d="M575 417q-29 -4 -41 -13.5t-12 -32.5v-291q0 -23 12 -32.5t41 -13.5v-34h-227v34q30 4 42 13t12 33v223l-198 -200v-23q0 -23 12 -32.5t41 -13.5v-34h-227v34q30 4 42 13t12 33v291q0 24 -12 33t-42 13v34h227v-34q-29 -4 -41 -13.5t-12 -32.5v-224l198 203v21
q0 24 -12 33t-42 13v34h227v-34z" />
    <glyph glyph-name="uni0439" unicode="&#x439;" horiz-adv-x="605" 
d="M303 546q-62 0 -103.5 36t-41.5 98q0 11 9 11h27q7 0 10 -11q14 -58 99 -58t99 58q3 11 10 11h27q9 0 9 -11q0 -62 -41.5 -98t-103.5 -36zM575 417q-29 -4 -41 -13.5t-12 -32.5v-291q0 -23 12 -32.5t41 -13.5v-34h-227v34q30 4 42 13t12 33v223l-198 -200v-23
q0 -23 12 -32.5t41 -13.5v-34h-227v34q30 4 42 13t12 33v291q0 24 -12 33t-42 13v34h227v-34q-29 -4 -41 -13.5t-12 -32.5v-224l198 203v21q0 24 -12 33t-42 13v34h227v-34z" />
    <glyph glyph-name="uni043A" unicode="&#x43a;" horiz-adv-x="565" 
d="M451 99q50 -58 99 -65v-34h-227v34q45 8 18 40l-97 113q-12 14 -30 14h-10v-121q0 -23 12 -32.5t41 -13.5v-34h-227v34q30 4 42 13t12 33v291q0 24 -12 33t-42 13v34h227v-34q-29 -4 -41 -13.5t-12 -32.5v-127h13q24 0 49 30l105 121q20 22 30 32t28.5 20t39.5 10
q28 0 43.5 -14t15.5 -37t-15 -37.5t-38 -14.5q-15 0 -27.5 6.5t-18.5 12.5t-15.5 7.5t-16.5 -9.5l-75 -85q-16 -18 0 -37z" />
    <glyph glyph-name="uni043B" unicode="&#x43b;" horiz-adv-x="625" 
d="M123 -11q-46 0 -74.5 21t-28.5 57q0 23 12.5 39t38.5 16q23 0 32 -14t8.5 -31t6 -31t24.5 -14q36 0 47.5 45.5t11.5 147.5v146q0 23 -20 32t-68 14v34h482v-34q-29 -4 -41 -13.5t-12 -32.5v-291q0 -23 12 -32.5t41 -13.5v-34h-227v34q30 4 42 13t12 33v291q0 24 -12.5 32
t-41.5 8h-71q-29 0 -41.5 -8t-12.5 -32v-149v-48t-2 -45t-6.5 -45.5t-13 -36t-21 -32.5t-32 -18t-45.5 -8z" />
    <glyph glyph-name="uni043C" unicode="&#x43c;" horiz-adv-x="677" 
d="M647 417q-29 -4 -41 -13.5t-12 -32.5v-291q0 -23 12 -32.5t41 -13.5v-34h-227v34q30 4 42 13t12 33v271l-138 -310h-66l-144 303v-264q0 -23 12 -32.5t41 -13.5v-34h-149v34q30 4 42 13t12 33v291q0 24 -12 33t-42 13v34h167l142 -300l135 300h173v-34z" />
    <glyph glyph-name="uni043D" unicode="&#x43d;" horiz-adv-x="620" 
d="M590 417q-29 -4 -41 -13.5t-12 -32.5v-291q0 -23 12 -32.5t41 -13.5v-34h-227v34q30 4 42 13t12 33v123h-213v-123q0 -23 12 -32.5t41 -13.5v-34h-227v34q30 4 42 13t12 33v291q0 24 -12 33t-42 13v34h227v-34q-29 -4 -41 -13.5t-12 -32.5v-128h213v128q0 24 -12 33
t-42 13v34h227v-34z" />
    <glyph glyph-name="uni043E" unicode="&#x43e;" horiz-adv-x="541" 
d="M271 -6q-99 0 -170 62t-71 172t70.5 171t169.5 61t170 -62t71 -172t-70.5 -171t-169.5 -61zM290 32q42 0 67.5 40.5t25.5 116.5q0 96 -37.5 164.5t-94.5 68.5q-43 0 -68 -40t-25 -117q0 -96 37.5 -164.5t94.5 -68.5z" />
    <glyph glyph-name="uni043F" unicode="&#x43f;" horiz-adv-x="625" 
d="M30 0v34q30 4 42 13t12 33v291q0 24 -12 33t-42 13v34h565v-34q-29 -4 -41 -13.5t-12 -32.5v-291q0 -23 12 -32.5t41 -13.5v-34h-227v34q30 4 42 13t12 33v291q0 24 -12.5 32t-41.5 8h-111q-29 0 -41 -8t-12 -32v-291q0 -23 12 -32.5t41 -13.5v-34h-227z" />
    <glyph glyph-name="uni0440" unicode="&#x440;" horiz-adv-x="595" 
d="M364 460q85 0 143 -61t58 -165q0 -111 -65.5 -175.5t-152.5 -64.5q-25 0 -50 6t-39.5 12t-26.5 9.5t-17 -1t-5 -20.5v-95q0 -32 14 -45t49 -16v-34h-247v34q36 3 50 16t14 45v439q0 34 -14.5 45.5t-49.5 8.5v34l140 26q44 8 44 -35v-2q0 -11 7 -13t15 6q18 18 53.5 32
t79.5 14zM337 37q49 0 75.5 41.5t26.5 111.5q0 85 -35.5 142.5t-93.5 57.5q-42 0 -71.5 -30t-29.5 -99v-88q0 -69 39.5 -102.5t88.5 -33.5z" />
    <glyph glyph-name="uni0441" unicode="&#x441;" horiz-adv-x="503" 
d="M280 -6q-102 0 -176 61.5t-74 169.5q0 75 38.5 130t95 80t120.5 25q78 0 129.5 -38.5t51.5 -86.5q0 -27 -14 -45t-43 -18q-28 0 -45 17.5t-17 40.5q0 92 -77 92q-53 0 -82 -42t-29 -112q0 -94 50.5 -149.5t129.5 -55.5q65 0 105 52l25 -21q-19 -36 -67.5 -68t-120.5 -32z
" />
    <glyph glyph-name="uni0442" unicode="&#x442;" horiz-adv-x="505" 
d="M134 0v34q33 4 46 13t13 33v276q0 34 -13 44.5t-46 10.5t-49.5 -15t-30.5 -62h-34l14 117h437l14 -117h-34q-14 49 -30 63t-49 14t-46 -10.5t-13 -44.5v-276q0 -24 13 -33t46 -13v-34h-238z" />
    <glyph glyph-name="uni0443" unicode="&#x443;" horiz-adv-x="552" 
d="M143 -198q-47 0 -76 20.5t-29 54.5q0 24 15.5 41t43.5 17q25 0 37.5 -14.5t14 -31.5t8.5 -31.5t22 -14.5q28 0 45 47q20 52 -7 120l-126 322q-16 39 -32 56.5t-49 28.5v34h236v-34q-39 -11 -44.5 -27.5t12.5 -57.5l84 -209q4 -10 9 -14t10 0t9 14l43 112q28 73 32.5 110
t-8 50.5t-46.5 21.5v34h195v-34q-44 -11 -62 -27.5t-34 -57.5l-153 -391q-29 -76 -62 -107.5t-88 -31.5z" />
    <glyph glyph-name="uni0444" unicode="&#x444;" horiz-adv-x="891" 
d="M660 460q85 0 143 -61t58 -165q0 -111 -65.5 -175.5t-152.5 -64.5q-25 0 -50 6t-39.5 12t-26.5 9.5t-17 -1t-5 -20.5v-95q0 -32 14 -45t49 -16v-34h-247v34q36 3 50 16t14 45v165q-58 -76 -155 -76q-84 0 -142 60.5t-58 164.5q0 111 65.5 176t153.5 65q28 0 54 -7
t39.5 -13.5t24.5 -9t14.5 5.5t3.5 32v72q0 34 -14.5 45.5t-49.5 8.5v34l140 26q44 8 44 -35v-198q0 -11 7 -13t15 6q18 18 53.5 32t79.5 14zM288 64q38 0 67.5 26t29.5 82v86q0 78 -39.5 118.5t-87.5 40.5q-49 0 -75.5 -41.5t-26.5 -109.5q0 -83 37 -142.5t95 -59.5zM633 37
q49 0 75.5 41.5t26.5 111.5q0 85 -35.5 142.5t-93.5 57.5q-42 0 -71.5 -30t-29.5 -99v-88q0 -69 39.5 -102.5t88.5 -33.5z" />
    <glyph glyph-name="uni0445" unicode="&#x445;" horiz-adv-x="510" 
d="M495 417q-43 -12 -72.5 -33t-65.5 -63l-60 -70l93 -126q31 -43 52 -61t53 -30v-34h-227v34q20 5 29 11t6 18.5t-10 24t-26 37.5l-36 49q-34 -41 -50.5 -65t-19.5 -39.5t5.5 -22.5t29.5 -13v-34h-181v34q43 12 72.5 33t65.5 63l60 70l-93 126q-31 43 -52 61t-53 30v34h227
v-34q-20 -5 -29 -11t-6 -18.5t10 -24t26 -37.5l36 -49q34 41 50.5 64.5t19.5 39.5t-5.5 23t-29.5 13v34h181v-34z" />
    <glyph glyph-name="uni0446" unicode="&#x446;" horiz-adv-x="655" 
d="M567 -110q0 30 -0.5 44t-8 29.5t-16.5 20.5t-34.5 10t-53 5.5t-80.5 0.5h-344v34q30 4 42 13t12 33v291q0 24 -12 33t-42 13v34h227v-34q-29 -4 -41 -13.5t-12 -32.5v-291q0 -24 12 -32t41 -8h117q24 0 36 13.5t12 33.5v284q0 24 -12 33t-42 13v34h227v-34
q-29 -4 -41 -13.5t-12 -32.5v-284q0 -47 72 -47q12 0 11 -12l-24 -138h-34z" />
    <glyph glyph-name="uni0447" unicode="&#x447;" horiz-adv-x="595" 
d="M565 429q-32 -5 -43 -14.5t-11 -36.5v-305q0 -27 11 -36.5t43 -14.5v-22h-218v22q32 5 43 14.5t11 36.5v106q0 15 -4 14q-2 0 -24 -23q-61 -65 -146 -65q-67 0 -110 45.5t-43 144.5v83q0 27 -11 36.5t-43 14.5v22h218v-22q-32 -5 -43 -14.5t-11 -36.5v-83q0 -58 26 -93.5
t70 -35.5q48 0 84.5 31.5t36.5 84.5v96q0 27 -11 36.5t-43 14.5v22h218v-22z" />
    <glyph glyph-name="uni0448" unicode="&#x448;" horiz-adv-x="840" 
d="M30 0v34q30 4 42 13t12 33v291q0 24 -12 33t-42 13v34h227v-34q-29 -4 -41 -13.5t-12 -32.5v-291q0 -24 12 -32t41 -8h50q29 0 41 8t12 32v291q0 23 -12 32.5t-41 13.5v34h226v-34q-29 -4 -41 -13.5t-12 -32.5v-291q0 -24 12 -32t41 -8h50q29 0 41 8t12 32v291
q0 23 -12 32.5t-41 13.5v34h227v-34q-30 -4 -42 -13t-12 -33v-291q0 -24 12 -33t42 -13v-34h-780z" />
    <glyph glyph-name="uni0449" unicode="&#x449;" horiz-adv-x="869" 
d="M828 40q12 0 11 -12l-24 -138h-34q0 30 -0.5 44t-8 29.5t-16.5 20.5t-34.5 10t-53 5.5t-80.5 0.5h-558v34q30 4 42 13t12 33v291q0 24 -12 33t-42 13v34h227v-34q-29 -4 -41 -13.5t-12 -32.5v-291q0 -24 12 -32t41 -8h50q29 0 41 8t12 32v291q0 23 -12 32.5t-41 13.5v34
h226v-34q-29 -4 -41 -13.5t-12 -32.5v-291q0 -24 12 -32t41 -8h50h12q41 4 41 47v284q0 23 -12 32.5t-41 13.5v34h227v-34q-30 -4 -42 -13t-12 -33v-284q0 -47 72 -47z" />
    <glyph glyph-name="uni044A" unicode="&#x44a;" horiz-adv-x="605" 
d="M341 335q117 0 178 -44t61 -123t-61 -123.5t-178 -44.5h-231v34q30 4 42 13t12 33v288q0 43 -45 43q-26 0 -41 -12.5t-29 -45.5h-34l18 98h304v-34q-29 -4 -41 -13.5t-12 -32.5v-16q0 -8 6 -14t14 -6h37zM341 40q114 0 114 128q0 127 -113 127h-38q-8 0 -14 -6t-6 -14
v-195q0 -23 13.5 -31.5t43.5 -8.5z" />
    <glyph glyph-name="uni044B" unicode="&#x44b;" horiz-adv-x="785" 
d="M30 0v34q30 4 42 13t12 33v291q0 24 -12 33t-42 13v34h227v-34q-29 -4 -41 -13.5t-12 -32.5v-16q0 -8 6 -14t14 -6h37q117 0 178 -44t61 -123t-61 -123.5t-178 -44.5h-231zM528 0v34q30 4 42 13t12 33v291q0 24 -12 33t-42 13v34h227v-34q-29 -4 -41 -13.5t-12 -32.5
v-291q0 -23 12 -32.5t41 -13.5v-34h-227zM261 40q114 0 114 128q0 127 -113 127h-38q-8 0 -14 -6t-6 -14v-195q0 -23 13.5 -31.5t43.5 -8.5z" />
    <glyph glyph-name="uni044C" unicode="&#x44c;" horiz-adv-x="535" 
d="M30 0v34q30 4 42 13t12 33v291q0 24 -12 33t-42 13v34h227v-34q-29 -4 -41 -13.5t-12 -32.5v-16q0 -8 6 -14t14 -6h37q117 0 178 -44t61 -123t-61 -123.5t-178 -44.5h-231zM261 40q114 0 114 128q0 127 -113 127h-38q-8 0 -14 -6t-6 -14v-195q0 -23 13.5 -31.5t43.5 -8.5
z" />
    <glyph glyph-name="uni044D" unicode="&#x44d;" horiz-adv-x="503" 
d="M219 460q64 0 120.5 -25t95 -80t38.5 -130q0 -108 -74 -169.5t-176 -61.5q-72 0 -120.5 32t-67.5 68l25 21q40 -52 105 -52t111.5 38t62.5 106h-130v36h135q1 8 1 25q0 70 -29 112t-82 42q-77 0 -77 -92q0 -23 -17 -40.5t-45 -17.5q-29 0 -43 18t-14 45q0 48 51.5 86.5
t129.5 38.5z" />
    <glyph glyph-name="uni044E" unicode="&#x44e;" horiz-adv-x="795" 
d="M524 460q99 0 170 -62t71 -172t-70.5 -171t-169.5 -61q-93 0 -162 55t-78 153h-81v-122q0 -23 12 -32.5t41 -13.5v-34h-227v34q30 4 42 13t12 33v291q0 24 -12 33t-42 13v34h227v-34q-29 -4 -41 -13.5t-12 -32.5v-117h81q9 98 77.5 152t161.5 54zM544 32q42 0 67.5 40.5
t25.5 116.5q0 96 -37.5 164.5t-94.5 68.5q-43 0 -68 -40t-25 -117q0 -96 37.5 -164.5t94.5 -68.5z" />
    <glyph glyph-name="uni044F" unicode="&#x44f;" horiz-adv-x="523" 
d="M493 417q-29 -4 -41 -13.5t-12 -32.5v-291q0 -23 12 -32.5t41 -13.5v-34h-227v34q30 4 42 13t12 33v113h-47q-31 0 -46 -16t-27 -62q-15 -58 -47.5 -86.5t-98.5 -28.5h-39v34q28 5 39 21t25 66q21 75 89 85q-122 24 -122 114q0 61 50.5 96t130.5 35h266v-34zM235 233h85
v138q0 24 -12.5 32t-41.5 8h-12q-93 0 -93 -89q0 -37 17.5 -63t56.5 -26z" />
    <glyph glyph-name="uni0450" unicode="&#x450;" horiz-adv-x="505" 
d="M147 608q-33 20 -43 42.5t10 48.5q39 40 89 -17l94 -109q18 -20 5 -35t-34 -2zM329 63q69 0 112 52l24 -21q-19 -36 -69.5 -68t-124.5 -32q-100 0 -170.5 61t-70.5 170q0 111 73.5 173t175.5 62q82 0 136.5 -40.5t54.5 -106.5q0 -23 -8 -39.5t-21.5 -26.5t-37 -16
t-46.5 -8.5t-59 -3.5l-110 -4q-26 -1 -16 -39q19 -54 60 -83.5t97 -29.5zM264 422q-49 0 -75.5 -35t-30.5 -95q-1 -22 7.5 -32t27.5 -10h53q62 0 87 18t25 55q0 40 -25.5 69.5t-68.5 29.5z" />
    <glyph glyph-name="uni0451" unicode="&#x451;" horiz-adv-x="505" 
d="M144 528q-29 0 -50 20.5t-21 49.5q0 30 21 50.5t50 20.5t49.5 -20.5t20.5 -50.5q0 -29 -20.5 -49.5t-49.5 -20.5zM359 528q-29 0 -50 20.5t-21 49.5q0 30 21 50.5t50 20.5t49.5 -20.5t20.5 -50.5q0 -29 -20.5 -49.5t-49.5 -20.5zM329 63q69 0 112 52l24 -21
q-19 -36 -69.5 -68t-124.5 -32q-100 0 -170.5 61t-70.5 170q0 111 73.5 173t175.5 62q82 0 136.5 -40.5t54.5 -106.5q0 -23 -8 -39.5t-21.5 -26.5t-37 -16t-46.5 -8.5t-59 -3.5l-110 -4q-26 -1 -16 -39q19 -54 60 -83.5t97 -29.5zM264 422q-49 0 -75.5 -35t-30.5 -95
q-1 -22 7.5 -32t27.5 -10h53q62 0 87 18t25 55q0 40 -25.5 69.5t-68.5 29.5z" />
    <glyph glyph-name="uni0453" unicode="&#x453;" horiz-adv-x="477" 
d="M191 573q-18 -20 -5 -35t34 -2l121 72q33 20 43 42.5t-10 48.5q-39 40 -89 -17zM30 0v34q30 4 42 13t12 33v291q0 24 -12 33t-42 13v34h394l23 -118h-34q-23 49 -43.5 63.5t-76.5 14.5h-64q-25 0 -25 -25v-306q0 -23 12 -32.5t41 -13.5v-34h-227z" />
    <glyph glyph-name="uni0454" unicode="&#x454;" horiz-adv-x="503" 
d="M443 115l25 -21q-19 -36 -67.5 -68t-120.5 -32q-102 0 -176 61.5t-74 169.5q0 75 38.5 130t95 80t120.5 25q78 0 129.5 -38.5t51.5 -86.5q0 -27 -14 -45t-43 -18q-28 0 -45 17.5t-17 40.5q0 92 -77 92q-53 0 -82 -42t-29 -112q0 -17 1 -25h135v-36h-130q16 -68 62.5 -106
t111.5 -38t105 52z" />
    <glyph glyph-name="uni0455" unicode="&#x455;" horiz-adv-x="442" 
d="M214 -6q-79 0 -134 31t-55 86q0 26 13 40t36 14q25 0 38.5 -13t13.5 -31q0 -43 31 -66t72 -23q39 0 57.5 20t18.5 48q0 31 -24 46.5t-81 32.5q-163 48 -163 149q0 60 53 96t132 36q69 0 122 -26.5t53 -76.5q0 -49 -50 -49q-45 0 -45 36q0 35 -24 56.5t-65 21.5
q-31 0 -49 -15.5t-18 -41.5q0 -31 23 -48t67 -30q89 -27 119 -46q62 -38 62 -103q0 -69 -58 -106.5t-145 -37.5z" />
    <glyph glyph-name="uni0456" unicode="&#x456;" horiz-adv-x="297" 
d="M138 528q-29 0 -50 20.5t-21 49.5q0 30 21 50.5t50 20.5t49.5 -20.5t20.5 -50.5q0 -29 -20.5 -49.5t-49.5 -20.5zM25 0v34q36 3 50 16t14 45v249q0 34 -14.5 45.5t-49.5 8.5v34l140 26q44 8 44 -35v-328q0 -32 14 -45t49 -16v-34h-247z" />
    <glyph glyph-name="uni0457" unicode="&#x457;" horiz-adv-x="297" 
d="M32 528q-29 0 -50 20.5t-21 49.5q0 30 21 50.5t50 20.5t49.5 -20.5t20.5 -50.5q0 -29 -20.5 -49.5t-49.5 -20.5zM247 528q-29 0 -50 20.5t-21 49.5q0 30 21 50.5t50 20.5t49.5 -20.5t20.5 -50.5q0 -29 -20.5 -49.5t-49.5 -20.5zM25 0v34q36 3 50 16t14 45v249
q0 34 -14.5 45.5t-49.5 8.5v34l140 26q44 8 44 -35v-328q0 -32 14 -45t49 -16v-34h-247z" />
    <glyph glyph-name="uni0458" unicode="&#x458;" horiz-adv-x="280" 
d="M144 528q-29 0 -50 20.5t-21 49.5q0 30 21 50.5t50 20.5t49.5 -20.5t20.5 -50.5q0 -29 -20.5 -49.5t-49.5 -20.5zM50 -201q-48 0 -84 19.5t-36 58.5q0 25 14.5 40t37.5 15q26 0 41.5 -14t20 -30.5t10.5 -30.5t16 -14q11 0 18 15.5t7 36.5v449q0 34 -14.5 45.5t-49.5 8.5
v34l140 26q44 8 44 -35v-470q0 -73 -47 -113.5t-118 -40.5z" />
    <glyph glyph-name="uni045E" unicode="&#x45e;" horiz-adv-x="552" 
d="M276 546q-62 0 -103.5 36t-41.5 98q0 11 9 11h27q7 0 10 -11q15 -58 99 -58t99 58q3 11 10 11h27q9 0 9 -11q0 -62 -41.5 -98t-103.5 -36zM143 -198q-47 0 -76 20.5t-29 54.5q0 24 15.5 41t43.5 17q25 0 37.5 -14.5t14 -31.5t8.5 -31.5t22 -14.5q28 0 45 47q20 52 -7 120
l-126 322q-16 39 -32 56.5t-49 28.5v34h236v-34q-39 -11 -44.5 -27.5t12.5 -57.5l84 -209q4 -10 9 -14t10 0t9 14l43 112q28 73 32.5 110t-8 50.5t-46.5 21.5v34h195v-34q-44 -11 -62 -27.5t-34 -57.5l-153 -391q-29 -76 -62 -107.5t-88 -31.5z" />
    <glyph glyph-name="uni0490" unicode="&#x490;" horiz-adv-x="560" 
d="M30 0v33q69 9 69 60v435q0 51 -69 60v33h355q44 0 69.5 13t46.5 44h34l-21 -97h-210q-36 0 -52.5 -11t-16.5 -42v-435q0 -28 18.5 -41.5t60.5 -18.5v-33h-284z" />
    <glyph glyph-name="uni0491" unicode="&#x491;" horiz-adv-x="462" 
d="M30 0v34q30 4 42 13t12 33v291q0 24 -12 33t-42 13v34h263q55 0 76 11.5t39 46.5h34l-18 -98h-195q-25 0 -25 -25v-306q0 -23 12 -32.5t41 -13.5v-34h-227z" />
    <glyph glyph-name="uni04E8" unicode="&#x4e8;" horiz-adv-x="717" 
d="M366 637q132 0 226.5 -87t94.5 -229q0 -148 -98 -239.5t-238 -91.5q-132 0 -226.5 87.5t-94.5 230.5q0 147 98 238t238 91zM335 590q-64 0 -109.5 -56.5t-45.5 -174.5v-20h353q-15 112 -70 181.5t-128 69.5zM382 37q64 0 109.5 57t45.5 176v19h-353q15 -112 70 -182
t128 -70z" />
    <glyph glyph-name="uni04E9" unicode="&#x4e9;" horiz-adv-x="541" 
d="M270 460q99 0 170 -62t71 -172t-70.5 -171t-169.5 -61t-170 62t-71 172t70.5 171t169.5 61zM251 422q-43 0 -68 -40t-25 -117v-16h221q-12 76 -46.5 124.5t-81.5 48.5zM290 32q42 0 67.5 40.5t25.5 116.5v16h-221q12 -76 46.5 -124.5t81.5 -48.5z" />
    <glyph glyph-name="Wgrave" unicode="&#x1e80;" horiz-adv-x="1040" 
d="M566 743l-94 109q-50 57 -89 17q-20 -26 -10 -48.5t43 -42.5l121 -72q21 -13 34 2t-5 35zM307 0l-193 471q-26 65 -42.5 87.5t-51.5 30.5v32h262v-33q-42 -6 -50.5 -27t7.5 -52l127 -317q10 -24 20 0l64 168q12 31 17 49t5.5 42t-9.5 47q-20 46 -35.5 65t-47.5 26v32h262
v-33q-42 -6 -50.5 -27t7.5 -52l127 -317q10 -24 20 0l119 311q28 72 -67 85v33h222v-33q-40 -8 -61.5 -29.5t-38.5 -63.5l-154 -396q-26 -66 -26 -99h-73l-154 375l-107 -276q-26 -66 -26 -99h-73z" />
    <glyph glyph-name="wgrave" unicode="&#x1e81;" horiz-adv-x="810" 
d="M475 573l-94 109q-50 57 -89 17q-20 -26 -10 -48.5t43 -42.5l121 -72q21 -13 34 2t-5 35zM210 0l-119 332q-14 39 -31 56t-50 29v34h234v-34q-38 -11 -43 -27.5t11 -57.5l72 -209q3 -10 8.5 -14t11.5 0t9 14l35 110q23 69 7 120q-16 47 -64 64v34h234v-34
q-38 -11 -43 -27.5t11 -57.5l72 -209q3 -10 9 -14t11.5 0t8.5 14l36 112q25 76 28.5 112t-8 49t-45.5 21v34h195v-34q-45 -11 -64 -28t-33 -57l-119 -332h-93l-94 263l-94 -263h-93z" />
    <glyph glyph-name="Wacute" unicode="&#x1e82;" horiz-adv-x="1040" 
d="M490 743q-18 -20 -5 -35t34 -2l121 72q33 20 43 42.5t-10 48.5q-39 40 -89 -17zM307 0l-193 471q-26 65 -42.5 87.5t-51.5 30.5v32h262v-33q-42 -6 -50.5 -27t7.5 -52l127 -317q10 -24 20 0l64 168q12 31 17 49t5.5 42t-9.5 47q-20 46 -35.5 65t-47.5 26v32h262v-33
q-42 -6 -50.5 -27t7.5 -52l127 -317q10 -24 20 0l119 311q28 72 -67 85v33h222v-33q-40 -8 -61.5 -29.5t-38.5 -63.5l-154 -396q-26 -66 -26 -99h-73l-154 375l-107 -276q-26 -66 -26 -99h-73z" />
    <glyph glyph-name="wacute" unicode="&#x1e83;" horiz-adv-x="810" 
d="M377 573q-18 -20 -5 -35t34 -2l121 72q33 20 43 42.5t-10 48.5q-39 40 -89 -17zM210 0l-119 332q-14 39 -31 56t-50 29v34h234v-34q-38 -11 -43 -27.5t11 -57.5l72 -209q3 -10 8.5 -14t11.5 0t9 14l35 110q23 69 7 120q-16 47 -64 64v34h234v-34q-38 -11 -43 -27.5
t11 -57.5l72 -209q3 -10 9 -14t11.5 0t8.5 14l36 112q25 76 28.5 112t-8 49t-45.5 21v34h195v-34q-45 -11 -64 -28t-33 -57l-119 -332h-93l-94 263l-94 -263h-93z" />
    <glyph glyph-name="Wdieresis" unicode="&#x1e84;" horiz-adv-x="1040" 
d="M413 698q-29 0 -50 20.5t-21 49.5q0 30 21 50.5t50 20.5t49.5 -20.5t20.5 -50.5q0 -29 -20.5 -49.5t-49.5 -20.5zM628 698q-29 0 -50 20.5t-21 49.5q0 30 21 50.5t50 20.5t49.5 -20.5t20.5 -50.5q0 -29 -20.5 -49.5t-49.5 -20.5zM307 0l-193 471q-26 65 -42.5 87.5
t-51.5 30.5v32h262v-33q-42 -6 -50.5 -27t7.5 -52l127 -317q10 -24 20 0l64 168q12 31 17 49t5.5 42t-9.5 47q-20 46 -35.5 65t-47.5 26v32h262v-33q-42 -6 -50.5 -27t7.5 -52l127 -317q10 -24 20 0l119 311q28 72 -67 85v33h222v-33q-40 -8 -61.5 -29.5t-38.5 -63.5
l-154 -396q-26 -66 -26 -99h-73l-154 375l-107 -276q-26 -66 -26 -99h-73z" />
    <glyph glyph-name="wdieresis" unicode="&#x1e85;" horiz-adv-x="810" 
d="M269 528q-29 0 -50 20.5t-21 49.5q0 30 21 50.5t50 20.5t49.5 -20.5t20.5 -50.5q0 -29 -20.5 -49.5t-49.5 -20.5zM484 528q-29 0 -50 20.5t-21 49.5q0 30 21 50.5t50 20.5t49.5 -20.5t20.5 -50.5q0 -29 -20.5 -49.5t-49.5 -20.5zM210 0l-119 332q-14 39 -31 56t-50 29v34
h234v-34q-38 -11 -43 -27.5t11 -57.5l72 -209q3 -10 8.5 -14t11.5 0t9 14l35 110q23 69 7 120q-16 47 -64 64v34h234v-34q-38 -11 -43 -27.5t11 -57.5l72 -209q3 -10 9 -14t11.5 0t8.5 14l36 112q25 76 28.5 112t-8 49t-45.5 21v34h195v-34q-45 -11 -64 -28t-33 -57
l-119 -332h-93l-94 263l-94 -263h-93z" />
    <glyph glyph-name="uni1EBC" unicode="&#x1ebc;" horiz-adv-x="596" 
d="M390 706q-45 0 -110 34t-87 34q-19 0 -33 -12t-14 -34h-32q0 56 30 87t81 31q45 0 110 -34t87 -34q47 0 47 46h32q0 -56 -29.5 -87t-81.5 -31zM30 0v33q69 9 69 60v435q0 51 -69 60v33h485q13 0 14 -11q6 -60 21 -123h-23q-23 47 -51.5 68t-74.5 21h-103q-33 0 -48 -12.5
t-15 -40.5v-133q0 -28 15 -40.5t48 -12.5h65q52 0 70.5 15.5t24.5 55.5h19v-187h-19q-7 39 -25 55t-70 16h-65q-33 0 -48 -12.5t-15 -40.5v-142q0 -28 16 -40.5t54 -12.5l111 1q80 1 113 51l24 36h23q-21 -41 -30 -118q-2 -14 -16 -14h-500z" />
    <glyph glyph-name="uni1EBD" unicode="&#x1ebd;" horiz-adv-x="505" 
d="M137 604q-19 0 -33 -12t-14 -34h-32q0 56 30 87t81 31q45 0 110 -34t87 -34q47 0 47 46h32q0 -56 -29.5 -87t-81.5 -31q-45 0 -110 34t-87 34zM329 63q69 0 112 52l24 -21q-19 -36 -69.5 -68t-124.5 -32q-100 0 -170.5 61t-70.5 170q0 111 73.5 173t175.5 62
q82 0 136.5 -40.5t54.5 -106.5q0 -23 -8 -39.5t-21.5 -26.5t-37 -16t-46.5 -8.5t-59 -3.5l-110 -4q-26 -1 -16 -39q19 -54 60 -83.5t97 -29.5zM264 422q-49 0 -75.5 -35t-30.5 -95q-1 -22 7.5 -32t27.5 -10h53q62 0 87 18t25 55q0 40 -25.5 69.5t-68.5 29.5z" />
    <glyph glyph-name="Ygrave" unicode="&#x1ef2;" horiz-adv-x="671" 
d="M382 743l-94 109q-50 57 -89 17q-20 -26 -10 -48.5t43 -42.5l121 -72q21 -13 34 2t-5 35zM180 0v33q49 5 69 18.5t20 41.5v134q0 41 -21 73l-121 186q-34 53 -57 75.5t-55 26.5v33h274v-33q-74 -10 -29 -79l110 -172q7 -12 14 0l112 173q21 32 9.5 53t-52.5 25v33h203
v-33q-32 -3 -56 -25t-50 -62l-127 -196q-18 -28 -18 -78v-134q0 -28 20 -41.5t69 -18.5v-33h-314z" />
    <glyph glyph-name="ygrave" unicode="&#x1ef3;" horiz-adv-x="552" 
d="M322 573l-94 109q-50 57 -89 17q-20 -26 -10 -48.5t43 -42.5l121 -72q21 -13 34 2t-5 35zM143 -198q-47 0 -76 20.5t-29 54.5q0 24 15.5 41t43.5 17q25 0 37.5 -14.5t14 -31.5t8.5 -31.5t22 -14.5q28 0 45 47q20 52 -7 120l-126 322q-16 39 -32 56.5t-49 28.5v34h236v-34
q-39 -11 -44.5 -27.5t12.5 -57.5l84 -209q4 -10 9 -14t10 0t9 14l43 112q28 73 32.5 110t-8 50.5t-46.5 21.5v34h195v-34q-44 -11 -62 -27.5t-34 -57.5l-153 -391q-29 -76 -62 -107.5t-88 -31.5z" />
    <glyph glyph-name="endash" unicode="&#x2013;" horiz-adv-x="682" 
d="M50 287h582v-63h-582v63z" />
    <glyph glyph-name="emdash" unicode="&#x2014;" horiz-adv-x="919" 
d="M50 287h819v-63h-819v63z" />
    <glyph glyph-name="uni2015" unicode="&#x2015;" horiz-adv-x="919" 
d="M50 287h819v-63h-819v63z" />
    <glyph glyph-name="quoteleft" unicode="&#x2018;" horiz-adv-x="209" 
d="M123 637l20 -22q-47 -41 -47 -74q0 -16 17 -16q29 0 47.5 -19t18.5 -48q0 -31 -20.5 -51t-52.5 -20q-37 0 -56.5 25.5t-19.5 66.5q0 49 26.5 90t66.5 68z" />
    <glyph glyph-name="quoteright" unicode="&#x2019;" horiz-adv-x="209" 
d="M86 387l-20 22q47 41 47 74q0 16 -17 16q-29 0 -47.5 19t-18.5 48q0 31 20.5 51t52.5 20q37 0 56.5 -25.5t19.5 -66.5q0 -49 -26.5 -90t-66.5 -68z" />
    <glyph glyph-name="quotesinglbase" unicode="&#x201a;" horiz-adv-x="209" 
d="M86 -119l-20 22q47 41 47 74q0 16 -17 16q-29 0 -47.5 19t-18.5 48q0 31 20.5 51t52.5 20q37 0 56.5 -25.5t19.5 -66.5q0 -49 -26.5 -90t-66.5 -68z" />
    <glyph glyph-name="quotedblleft" unicode="&#x201c;" horiz-adv-x="396" 
d="M123 637l20 -22q-47 -41 -47 -74q0 -16 17 -16q29 0 47.5 -19t18.5 -48q0 -31 -20.5 -51t-52.5 -20q-37 0 -56.5 25.5t-19.5 66.5q0 49 26.5 90t66.5 68zM310 637l20 -22q-47 -41 -47 -74q0 -16 17 -16q29 0 47.5 -19t18.5 -48q0 -31 -20.5 -51t-52.5 -20
q-37 0 -56.5 25.5t-19.5 66.5q0 49 26.5 90t66.5 68z" />
    <glyph glyph-name="quotedblright" unicode="&#x201d;" horiz-adv-x="396" 
d="M86 387l-20 22q47 41 47 74q0 16 -17 16q-29 0 -47.5 19t-18.5 48q0 31 20.5 51t52.5 20q37 0 56.5 -25.5t19.5 -66.5q0 -49 -26.5 -90t-66.5 -68zM273 387l-20 22q47 41 47 74q0 16 -17 16q-29 0 -47.5 19t-18.5 48q0 31 20.5 51t52.5 20q37 0 56.5 -25.5t19.5 -66.5
q0 -49 -26.5 -90t-66.5 -68z" />
    <glyph glyph-name="quotedblbase" unicode="&#x201e;" horiz-adv-x="397" 
d="M86 -119l-20 22q47 41 47 74q0 16 -17 16q-29 0 -47.5 19t-18.5 48q0 31 20.5 51t52.5 20q37 0 56.5 -25.5t19.5 -66.5q0 -49 -26.5 -90t-66.5 -68zM274 -119l-20 22q47 41 47 74q0 16 -17 16q-29 0 -47.5 19t-18.5 48q0 31 20.5 51t52.5 20q37 0 56.5 -25.5t19.5 -66.5
q0 -49 -26.5 -90t-66.5 -68z" />
    <glyph glyph-name="dagger" unicode="&#x2020;" horiz-adv-x="494" 
d="M378 514q28 0 47 -18.5t19 -44.5t-19 -44.5t-47 -18.5q-16 0 -48.5 17.5t-53.5 20.5l2 -33l50 -49l-65 -217h-32l-65 217l50 49l2 33q-21 -3 -53.5 -20.5t-48.5 -17.5q-28 0 -47 18.5t-19 44.5t19 44.5t47 18.5q16 0 49 -18t55 -21q-1 25 -20 58.5t-19 46.5q0 26 19 44.5
t47 18.5t47 -18.5t19 -44.5q0 -13 -19 -46.5t-20 -58.5q22 3 55 21t49 18z" />
    <glyph glyph-name="daggerdbl" unicode="&#x2021;" horiz-adv-x="494" 
d="M378 214q28 0 47 -18.5t19 -44.5t-19 -44.5t-47 -18.5q-16 0 -50 19t-56 22q2 -25 21.5 -59t19.5 -48q0 -26 -19 -44.5t-47 -18.5t-47 18.5t-19 44.5q0 14 19.5 48t21.5 59q-22 -3 -56 -22t-50 -19q-28 0 -47 18.5t-19 44.5t19 44.5t47 18.5q16 0 50 -19t56 -22v30
l-56 99l56 97v30q-22 -3 -56 -22t-50 -19q-28 0 -47 18.5t-19 44.5t19 44.5t47 18.5q16 0 50 -19t56 -22q-2 25 -21.5 59t-19.5 48q0 26 19 44.5t47 18.5t47 -18.5t19 -44.5q0 -14 -19.5 -48t-21.5 -59q22 3 56 22t50 19q28 0 47 -18.5t19 -44.5t-19 -44.5t-47 -18.5
q-16 0 -50 19t-56 22v-30l56 -98l-56 -98v-30q22 3 56 22t50 19z" />
    <glyph glyph-name="bullet" unicode="&#x2022;" horiz-adv-x="376" 
d="M188 164q-53 0 -90.5 37.5t-37.5 90.5t37.5 90.5t90.5 37.5t90.5 -37.5t37.5 -90.5t-37.5 -90.5t-90.5 -37.5z" />
    <glyph glyph-name="ellipsis" unicode="&#x2026;" horiz-adv-x="606" 
d="M108 -6q-28 0 -48 20.5t-20 48.5t20 48t48 20t48 -20t20 -48t-20 -48.5t-48 -20.5zM303 -6q-28 0 -48 20.5t-20 48.5t20 48t48 20t48 -20t20 -48t-20 -48.5t-48 -20.5zM498 -6q-28 0 -48 20.5t-20 48.5t20 48t48 20t48 -20t20 -48t-20 -48.5t-48 -20.5z" />
    <glyph glyph-name="perthousand" unicode="&#x2030;" horiz-adv-x="1000" 
d="M530 621h52l-414 -621h-102l433 579q-29 -23 -62.5 -28t-56 0t-61.5 18q12 -25 12 -58q0 -70 -48.5 -119t-116.5 -49q-58 0 -87 33t-29 84q0 70 48.5 119t117.5 49q45 0 91 -11.5t73 -20.5t66.5 -5t83.5 30zM183 379q31 0 46.5 35t15.5 88q0 90 -47 90q-31 0 -46.5 -35
t-15.5 -88q0 -90 47 -90zM519 274q57 0 86 -33t29 -84q0 -70 -48.5 -119t-116.5 -49q-58 0 -87 33t-29 84q0 70 48.5 119t117.5 49zM835 274q57 0 86 -33t29 -84q0 -70 -48.5 -119t-116.5 -49q-58 0 -87 33t-29 84q0 70 48.5 119t117.5 49zM486 25q31 0 46.5 35t15.5 88
q0 90 -47 90q-31 0 -46.5 -35t-15.5 -88q0 -90 47 -90zM802 25q31 0 46.5 35t15.5 88q0 90 -47 90q-31 0 -46.5 -35t-15.5 -88q0 -90 47 -90z" />
    <glyph glyph-name="guilsinglleft" unicode="&#x2039;" horiz-adv-x="284" 
d="M50 274l162 144l22 -21l-84 -123l84 -123l-22 -21z" />
    <glyph glyph-name="guilsinglright" unicode="&#x203a;" horiz-adv-x="284" 
d="M234 274l-162 -144l-22 21l84 123l-84 123l22 21z" />
    <glyph glyph-name="fraction" unicode="&#x2044;" horiz-adv-x="180" 
d="M-150 -5l432 641h73l-432 -641h-73z" />
    <glyph glyph-name="Euro" unicode="&#x20ac;" horiz-adv-x="725" 
d="M502 69q96 0 165 77l23 -19q-27 -50 -93 -93.5t-166 -43.5q-120 0 -213.5 69t-115.5 186h-72v27h68q-2 24 -2 38q0 15 1 23h-67v27h69q18 128 117 202.5t228 74.5q113 0 179.5 -50.5t66.5 -114.5q0 -33 -19.5 -57t-57.5 -24q-35 0 -55.5 21.5t-20.5 55.5q0 53 -29.5 92.5
t-92.5 39.5q-75 0 -124 -65t-49 -175h194v-27h-193q1 -23 9 -61h184v-27h-176q29 -83 95.5 -129.5t146.5 -46.5z" />
    <glyph glyph-name="trademark" unicode="&#x2122;" horiz-adv-x="625" 
d="M38 621h223l8 -61h-20q-5 11 -8.5 17t-11.5 11.5t-19 5.5q-28 0 -28 -26v-117q0 -20 8.5 -27.5t27.5 -9.5v-20h-137v20q19 2 27.5 9.5t8.5 27.5v117q0 26 -28 26q-11 0 -19 -5.5t-11.5 -11.5t-8.5 -17h-20zM595 601q-17 -2 -21.5 -9t-4.5 -28v-113q0 -21 4.5 -28t21.5 -9
v-20h-118v20q17 2 22 9t5 28v96l-62 -129h-29l-66 128v-95q0 -21 5.5 -28t21.5 -9v-20h-82v20q17 2 22 9t5 28v113q0 21 -5 28t-22 9v20h86l69 -132l63 132h85v-20z" />
    <glyph glyph-name="oneeighth" unicode="&#x215b;" horiz-adv-x="645" 
d="M32 392v33q29 2 29 18v143l-31 -10v39l56 25q13 6 26 0t12 -15v-182q0 -16 29 -18v-33h-121zM33 -5l432 641h73l-432 -641h-73zM502 -11q-50 0 -77 22t-27 58q0 22 14 40.5t35 21.5q-35 14 -35 50q0 25 24 44t66 19q40 0 65.5 -18.5t25.5 -43.5q0 -35 -36 -49
q23 -6 38 -25t15 -44q0 -31 -29 -53t-79 -22zM518 149q8 -1 15 10.5t7 21.5q0 31 -37 31q-16 0 -23.5 -9.5t-7.5 -20.5q0 -24 26 -29zM502 22q40 0 40 43q0 30 -37 38l-29 6q-8 1 -14.5 -12t-6.5 -29q0 -18 12.5 -32t34.5 -14z" />
    <glyph glyph-name="threeeighths" unicode="&#x215c;" horiz-adv-x="729" 
d="M138 383q-47 0 -75 23.5t-28 55.5q0 25 27 25q15 0 21 -5.5t8 -20t3 -17.5q10 -28 43 -28q21 0 34.5 15.5t12.5 33.5q1 31 -19.5 37t-46.5 -8l-15 30l24 11q36 13 36 44q0 29 -32 29q-19 0 -26.5 -18.5t-1.5 -38.5l-48 6q-12 5 -12 14q-1 31 23.5 51t68.5 20t68.5 -19.5
t24.5 -41.5q0 -29 -30 -43q49 -16 49 -66q0 -38 -30 -63.5t-79 -25.5zM132 -5l432 641h73l-432 -641h-73zM581 -11q-50 0 -77 22t-27 58q0 22 14 40.5t35 21.5q-35 14 -35 50q0 25 24 44t66 19q40 0 65.5 -18.5t25.5 -43.5q0 -35 -36 -49q23 -6 38 -25t15 -44q0 -31 -29 -53
t-79 -22zM597 149q8 -1 15 10.5t7 21.5q0 31 -37 31q-16 0 -23.5 -9.5t-7.5 -20.5q0 -24 26 -29zM581 22q40 0 40 43q0 30 -37 38l-29 6q-8 1 -14.5 -12t-6.5 -29q0 -18 12.5 -32t34.5 -14z" />
    <glyph glyph-name="fiveeighths" unicode="&#x215d;" horiz-adv-x="723" 
d="M141 389q-49 0 -76.5 20.5t-29.5 57.5q-1 11 7 20t24 9q13 0 20.5 -5t9.5 -10.5t4 -16t3 -14.5q9 -29 38 -29q15 0 27.5 15.5t12.5 40.5q0 21 -14.5 37.5t-32.5 16.5q-15 0 -51 -14h-34l10 125h133l7 5h26l-3 -44l-12 -10h-110l-3 -38q22 16 57 16q34 0 65 -25t31 -65
q0 -42 -30 -67t-79 -25zM131 -5l432 641h73l-432 -641h-73zM580 -11q-50 0 -77 22t-27 58q0 22 14 40.5t35 21.5q-35 14 -35 50q0 25 24 44t66 19q40 0 65.5 -18.5t25.5 -43.5q0 -35 -36 -49q23 -6 38 -25t15 -44q0 -31 -29 -53t-79 -22zM596 149q8 -1 15 10.5t7 21.5
q0 31 -37 31q-16 0 -23.5 -9.5t-7.5 -20.5q0 -24 26 -29zM580 22q40 0 40 43q0 30 -37 38l-29 6q-8 1 -14.5 -12t-6.5 -29q0 -18 12.5 -32t34.5 -14z" />
    <glyph glyph-name="seveneighths" unicode="&#x215e;" horiz-adv-x="688" 
d="M97 390q-13 0 -19 9t1 22l93 170h-91l-6 -17h-40l12 52q3 14 21 14h176l-125 -250h-22zM106 -5l432 641h73l-432 -641h-73zM555 -11q-50 0 -77 22t-27 58q0 22 14 40.5t35 21.5q-35 14 -35 50q0 25 24 44t66 19q40 0 65.5 -18.5t25.5 -43.5q0 -35 -36 -49q23 -6 38 -25
t15 -44q0 -31 -29 -53t-79 -22zM571 149q8 -1 15 10.5t7 21.5q0 31 -37 31q-16 0 -23.5 -9.5t-7.5 -20.5q0 -24 26 -29zM555 22q40 0 40 43q0 30 -37 38l-29 6q-8 1 -14.5 -12t-6.5 -29q0 -18 12.5 -32t34.5 -14z" />
    <glyph glyph-name="partialdiff" unicode="&#x2202;" horiz-adv-x="553" 
d="M273 -10q-105 0 -171.5 59.5t-66.5 155.5q0 93 60 146t143 53q56 0 98.5 -23t60.5 -46q0 50 -8.5 93t-27 82t-54.5 62t-85 23q-38 0 -87 -24l-19 29q46 37 128 37q134 0 206 -98.5t73 -245.5q1 -135 -62.5 -219t-187.5 -84zM267 29q65 0 98 56.5t33 130.5q0 53 -33 94
t-88 41q-56 0 -88 -46t-32 -119q0 -64 26 -110.5t84 -46.5z" />
    <glyph glyph-name="emptyset" unicode="&#x2205;" horiz-adv-x="551" 
d="M438 404q78 -65 78 -178q0 -110 -70.5 -171t-169.5 -61q-80 0 -142 41l-28 -34l-19 16l27 32q-79 66 -79 179q0 110 70.5 171t169.5 61q81 0 143 -41l27 32l19 -16zM163 265q0 -71 22 -129l171 207q-40 79 -100 79q-43 0 -68 -40t-25 -117zM295 32q42 0 67.5 40.5
t25.5 116.5q0 68 -21 128l-171 -207q38 -78 99 -78z" />
    <glyph glyph-name="product" unicode="&#x220f;" horiz-adv-x="570" 
d="M520 800v-1000h-39v961h-392v-961h-39v1000h470z" />
    <glyph glyph-name="summation" unicode="&#x2211;" horiz-adv-x="530" 
d="M480 800v-39h-377l317 -462l-317 -460h377v-39h-430v39l316 461l-316 461v39h430z" />
    <glyph glyph-name="minus" unicode="&#x2212;" horiz-adv-x="470" 
d="M50 271h370v-39h-370v39z" />
    <glyph glyph-name="radical" unicode="&#x221a;" horiz-adv-x="765" 
d="M247 -200l-138 334q-16 40 -33.5 55.5t-55.5 29.5v32l177 -2l124 -309l311 860h113v-32q-51 -12 -66.5 -28t-36.5 -71l-322 -869h-73z" />
    <glyph glyph-name="infinity" unicode="&#x221e;" horiz-adv-x="711" 
d="M222 46q-73 0 -122.5 60t-49.5 154q0 87 45 141t108 54q80 0 137 -90q59 91 150 91q73 0 122 -60t49 -154q0 -87 -44.5 -141t-107.5 -54q-80 0 -137 90q-58 -91 -150 -91zM185 149q70 0 102 86l32 87q-46 58 -112 58q-46 0 -80.5 -29.5t-34.5 -90.5q0 -56 27 -83.5
t66 -27.5zM505 122q46 0 80.5 29.5t34.5 90.5q0 56 -27 83.5t-66 27.5q-70 0 -102 -87l-32 -86q46 -58 112 -58z" />
    <glyph glyph-name="integral" unicode="&#x222b;" horiz-adv-x="454" 
d="M322 672q63 0 107.5 -28.5t44.5 -71.5q0 -25 -16.5 -40.5t-42.5 -15.5q-29 0 -43 18.5t-16 41t-13 41t-36 18.5q-32 0 -43.5 -29.5t-11.5 -85.5v-546q0 -90 -54 -140t-136 -50q-63 0 -107.5 28.5t-44.5 71.5q0 25 16.5 40.5t42.5 15.5q29 0 43 -18.5t16 -41t13 -41
t36 -18.5q32 0 43.5 29.5t11.5 85.5v546q0 90 54 140t136 50z" />
    <glyph glyph-name="approxequal" unicode="&#x2248;" horiz-adv-x="540" 
d="M490 389h-36q0 -24 -15 -36t-38 -12q-26 0 -99.5 35.5t-124.5 35.5q-59 0 -93 -32.5t-34 -90.5h37q0 23 15.5 35.5t37.5 12.5q25 0 99 -35.5t125 -35.5q58 0 92 32t34 91zM490 219h-36q0 -24 -15 -36t-38 -12q-26 0 -99.5 35.5t-124.5 35.5q-59 0 -93 -32.5t-34 -90.5h37
q0 23 15.5 35.5t37.5 12.5q25 0 99 -35.5t125 -35.5q58 0 92 32t34 91z" />
    <glyph glyph-name="notequal" unicode="&#x2260;" horiz-adv-x="470" 
d="M420 322h-132l-58 -141h190v-39h-207l-59 -142h-44l59 142h-119v39h136l58 141h-194v39h211l56 135h44l-56 -135h115v-39z" />
    <glyph glyph-name="lessequal" unicode="&#x2264;" horiz-adv-x="475" 
d="M50 350l375 164v-43l-333 -148l333 -148v-43l-375 164v54zM425 39v-39h-370v39h370z" />
    <glyph glyph-name="greaterequal" unicode="&#x2265;" horiz-adv-x="475" 
d="M425 350v-54l-375 -164v43l333 148l-333 148v43zM50 39h370v-39h-370v39z" />
    <glyph glyph-name="lozenge" unicode="&#x25ca;" horiz-adv-x="412" 
d="M377 310l-142 -310h-58l-142 310l142 311h58zM312 310l-106 242l-106 -242l106 -242z" />
    <glyph glyph-name="i.loclTRK" horiz-adv-x="297" 
d="M138 528q-29 0 -50 20.5t-21 49.5q0 30 21 50.5t50 20.5t49.5 -20.5t20.5 -50.5q0 -29 -20.5 -49.5t-49.5 -20.5zM25 0v34q36 3 50 16t14 45v249q0 34 -14.5 45.5t-49.5 8.5v34l140 26q44 8 44 -35v-328q0 -32 14 -45t49 -16v-34h-247z" />
    <glyph glyph-name="f_b" horiz-adv-x="928" 
d="M697 460q85 0 143 -61t58 -165q0 -111 -65 -175.5t-151 -64.5q-37 0 -72.5 12.5t-60.5 25.5t-37 13q-16 0 -37.5 -25.5t-33.5 -25.5q-19 0 -19 20v459q0 73 -31.5 122.5t-94.5 49.5q-88 0 -88 -116v-41q0 -37 27 -37h98v-41h-98q-27 0 -27 -27v-288q0 -32 14.5 -45
t51.5 -16v-34h-250v34q36 3 50 16t14 45v288q0 15 -6 21t-21 6h-41v29q34 1 51 9t17 30v13q0 90 64 140.5t165 50.5q43 0 80.5 -9.5t71.5 -31t53.5 -62.5t19.5 -97v-61q0 -11 7 -13t15 6q18 18 53.5 32t79.5 14zM670 37q49 0 75.5 41.5t26.5 111.5q0 85 -35.5 142.5
t-93.5 57.5q-41 0 -71 -30t-30 -99v-88q0 -69 39.5 -102.5t88.5 -33.5z" />
    <glyph glyph-name="f_h" horiz-adv-x="928" 
d="M857 89q0 -49 51 -38v-34q-28 -22 -84 -22q-42 0 -64.5 21.5t-22.5 61.5v182q0 57 -23.5 89.5t-68.5 32.5q-48 0 -75.5 -33t-27.5 -89v-165q0 -32 14 -45t49 -16v-34h-247v34q36 3 50 16t14 45v378q0 73 -31.5 122.5t-94.5 49.5q-88 0 -88 -116v-41q0 -37 27 -37h98v-41
h-98q-27 0 -27 -27v-288q0 -32 14.5 -45t51.5 -16v-34h-250v34q36 3 50 16t14 45v288q0 15 -6 21t-21 6h-41v29q34 1 51 9t17 30v13q0 90 64 140.5t165 50.5q43 0 80.5 -9.5t71.5 -31t53.5 -62.5t19.5 -97v-55q0 -37 17 -37q7 1 12 7q60 65 141 65q145 0 145 -176v-197z" />
    <glyph glyph-name="f_j" horiz-adv-x="622" 
d="M24 0v34q36 3 50 16t14 45v288q0 15 -6 21t-21 6h-41v29q34 1 51 9t17 30v4q0 90 58 140t147 50q77 0 126 -28t49 -72q0 -25 -16.5 -40.5t-42.5 -15.5q-24 0 -37.5 12.5t-19.5 30t-12 34.5t-20.5 29.5t-40.5 12.5q-40 0 -55.5 -30t-15.5 -85v-42q0 -27 27 -27h90v-41h-90
q-27 0 -27 -27v-288q0 -32 14.5 -45t51.5 -16v-34h-250zM392 -201q-48 0 -84 19.5t-36 58.5q0 25 14.5 40t37.5 15q26 0 41.5 -14t20 -30.5t10.5 -30.5t16 -14q11 0 18 15.5t7 36.5v449q0 34 -14.5 45.5t-49.5 8.5v34l140 26q44 8 44 -35v-470q0 -73 -47 -113.5t-118 -40.5z
" />
    <glyph glyph-name="f_k" horiz-adv-x="908" 
d="M818 85q19 -26 37.5 -37t52.5 -14v-34h-246v34q47 5 19 46l-75 113q-17 25 -31 13q-19 -16 -26 -27.5t-7 -33.5v-50q0 -32 14 -45t49 -16v-34h-247v34q36 3 50 16t14 45v378q0 73 -31.5 122.5t-94.5 49.5q-88 0 -88 -116v-41q0 -37 27 -37h98v-41h-98q-27 0 -27 -27v-288
q0 -32 14.5 -45t51.5 -16v-34h-250v34q36 3 50 16t14 45v288q0 15 -6 21t-21 6h-41v29q34 1 51 9t17 30v13q0 90 64 140.5t165 50.5q43 0 80.5 -9.5t71.5 -31t53.5 -62.5t19.5 -97v-200q0 -20 11 -27t23 4l124 108q9 10 10 20t-12 19t-37 11v34h207v-34q-35 -3 -57 -15
t-54 -39l-82 -71z" />
    <glyph glyph-name="zero.osf" horiz-adv-x="541" 
d="M271 -6q-99 0 -170 62t-71 172t70.5 171t169.5 61t170 -62t71 -172t-70.5 -171t-169.5 -61zM290 32q42 0 67.5 40.5t25.5 116.5q0 96 -37.5 164.5t-94.5 68.5q-43 0 -68 -40t-25 -117q0 -96 37.5 -164.5t94.5 -68.5z" />
    <glyph glyph-name="one.osf" horiz-adv-x="341" 
d="M34 0v34q45 3 62 16t17 45v225q0 25 -8.5 34.5t-30.5 5.5l-44 -8v34l161 70q17 7 29.5 1.5t12.5 -17.5v-345q0 -32 17 -45t61 -16v-34h-277z" />
    <glyph glyph-name="two.osf" horiz-adv-x="530" 
d="M40 0q202 177 230 204q70 69 77 114q1 7 1 15q0 39 -22.5 63.5t-65.5 24.5q-41 0 -64.5 -21t-23.5 -53q0 -17 7 -38t7 -33q0 -28 -20 -43.5t-47 -15.5q-33 0 -53 24.5t-20 61.5q0 66 61 111.5t167 45.5q97 0 147.5 -38.5t50.5 -94.5q0 -46 -37.5 -89t-80 -67t-97 -50.5
t-65.5 -33.5l130 3q58 1 79.5 12t54.5 55h34l-10 -42q-20 -82 -10 -115h-430z" />
    <glyph glyph-name="three.osf" horiz-adv-x="585" 
d="M278 -187q-102 0 -172.5 47.5t-70.5 125.5q0 71 63 71q31 0 42.5 -13.5t16 -46t9.5 -46.5q8 -19 15.5 -33.5t21.5 -31t35 -25.5t48 -9q61 0 96 48.5t35 116.5q0 60 -30 94t-78 34q-36 0 -71 -19l-13 35q86 29 118.5 59.5t32.5 85.5q0 54 -27 84.5t-78 30.5
q-90 0 -90 -108q0 -65 -58 -65q-29 0 -44 19t-15 46q0 56 55 101.5t165 45.5q102 0 155.5 -39.5t53.5 -103.5q0 -51 -33 -81.5t-80 -44.5q58 4 111.5 -39.5t53.5 -123.5q0 -94 -77.5 -154.5t-189.5 -60.5z" />
    <glyph glyph-name="four.osf" horiz-adv-x="580" 
d="M540 0h-103v-72q0 -32 17 -45t61 -16v-34h-277v34q45 3 62 16t17 45v72h-273l-19 65l293 405l119 -16v-362h103v-92zM125 92h192v316l-207 -286q-9 -13 -4.5 -21.5t19.5 -8.5z" />
    <glyph glyph-name="five.osf" horiz-adv-x="570" 
d="M272 -180q-100 0 -168.5 47t-68.5 126q0 72 63 72q31 0 42.5 -13.5t15.5 -47t9 -46.5q7 -19 14.5 -33t20.5 -31t33 -26t45 -9q56 0 90.5 44t34.5 120q0 82 -41 135.5t-111 53.5q-41 0 -78 -19t-59 -54h-30l24 314h294l77 14l-13 -123h-330l-11 -145q65 60 169 60
q57 0 109.5 -20t92 -70.5t39.5 -123.5q0 -104 -74 -164.5t-189 -60.5z" />
    <glyph glyph-name="six.osf" horiz-adv-x="553" 
d="M285 -10q-124 0 -187.5 84t-62.5 219q1 147 73 245.5t206 98.5q82 0 128 -37l-19 -29q-49 24 -87 24q-49 0 -85 -23t-54.5 -62t-27 -82t-8.5 -93q18 23 60.5 46t98.5 23q83 0 143 -53t60 -146q0 -96 -66.5 -155.5t-171.5 -59.5zM291 29q58 0 84 46.5t26 110.5
q0 73 -32 119t-88 46q-55 0 -88 -41t-33 -94q0 -74 33 -130.5t98 -56.5z" />
    <glyph glyph-name="seven.osf" horiz-adv-x="532" 
d="M111 -170l305 512h-187q-69 0 -102.5 -12.5t-60.5 -48.5h-31l57 178l82 -8h333l-317 -621h-79z" />
    <glyph glyph-name="eight.osf" horiz-adv-x="580" 
d="M407 349q138 -54 138 -170q0 -85 -73.5 -137t-186.5 -52q-112 0 -181 51t-69 133q0 100 106 157q-69 53 -69 136q0 79 66 124.5t155 45.5q87 0 147.5 -42.5t60.5 -111.5q0 -83 -94 -134zM294 598q-56 0 -80.5 -29t-24.5 -69q0 -80 101 -113l56 -18q61 41 61 114
q0 18 -4.5 35.5t-15.5 36.5t-35 31t-58 12zM289 29q47 0 77.5 22t41 48.5t10.5 53.5q0 38 -24 63t-86 45l-83 26q-16 5 -36 14q-52 -43 -52 -111q0 -63 39 -112t113 -49z" />
    <glyph glyph-name="nine.osf" horiz-adv-x="553" 
d="M268 458q124 0 187.5 -84t62.5 -219q-1 -147 -73 -245.5t-206 -98.5q-82 0 -128 37l19 29q49 -24 87 -24q49 0 85 23t54.5 62t27 82t8.5 93q-18 -23 -60.5 -46t-98.5 -23q-83 0 -143 53t-60 146q0 96 66.5 155.5t171.5 59.5zM262 419q-58 0 -84 -46.5t-26 -110.5
q0 -73 32 -119t88 -46q55 0 88 41t33 94q0 74 -33 130.5t-98 56.5z" />
    <glyph glyph-name="zero.tf" 
d="M297 -10q-124 0 -196 94t-72 230q0 135 72 229t196 94t196 -94t72 -229q0 -136 -72 -230t-196 -94zM297 37q71 0 103 77t32 200q0 78 -12 137t-43.5 99t-79.5 40q-71 0 -103.5 -77t-32.5 -199q0 -79 12 -138.5t43.5 -99t80.5 -39.5z" />
    <glyph glyph-name="one.tf" 
d="M154 0v34q52 3 70.5 16t18.5 45v387q0 28 -8.5 38t-30.5 6l-45 -7v33l162 73q17 7 29.5 1.5t12.5 -17.5v-514q0 -32 18.5 -45t69.5 -16v-34h-297z" />
    <glyph glyph-name="two.tf" 
d="M58 0q0 67 35.5 126t86 102t100.5 83t85.5 85.5t35.5 92.5q0 44 -25.5 76.5t-75.5 32.5q-46 0 -73.5 -29.5t-27.5 -73.5q0 -18 7 -39.5t7 -33.5q0 -28 -19.5 -41.5t-44.5 -13.5q-36 0 -57.5 26t-21.5 70q0 75 64 124.5t173 49.5q103 0 165.5 -46t62.5 -127
q0 -54 -32 -96.5t-83.5 -72.5t-105.5 -56.5t-108 -62.5t-81 -77h236q70 0 102.5 14.5t45.5 55.5h34l-17 -106q-8 -47 4 -63h-472z" />
    <glyph glyph-name="three.tf" 
d="M283 -10q-102 0 -172.5 47.5t-70.5 125.5q0 71 63 71q31 0 42.5 -13.5t16 -46t9.5 -46.5q8 -19 15.5 -33.5t21.5 -31t35 -25.5t48 -9q61 0 96 48.5t35 116.5q0 60 -30 94t-78 34q-36 0 -71 -19l-13 35q86 29 118.5 59.5t32.5 85.5q0 54 -27 84.5t-78 30.5q-90 0 -90 -108
q0 -65 -58 -65q-29 0 -44 19t-15 46q0 56 55 101.5t165 45.5q102 0 155.5 -39.5t53.5 -103.5q0 -51 -33 -81.5t-80 -44.5q58 4 111.5 -39.5t53.5 -123.5q0 -94 -77.5 -154.5t-189.5 -60.5z" />
    <glyph glyph-name="four.tf" 
d="M558 167h-103v-72q0 -32 17 -45t61 -16v-34h-277v34q45 3 62 16t17 45v72h-273l-19 65l293 405l119 -16v-362h103v-92zM143 259h192v316l-207 -286q-9 -13 -4.5 -21.5t19.5 -8.5z" />
    <glyph glyph-name="five.tf" 
d="M286 -11q-100 0 -168.5 47t-68.5 126q0 72 63 72q31 0 42.5 -13.5t15.5 -47t9 -46.5q7 -19 14.5 -33t20.5 -31t33 -26t45 -9q56 0 90.5 44t34.5 120q0 82 -41 135.5t-111 53.5q-41 0 -78 -19t-59 -54h-30l24 314h294l77 14l-13 -123h-330l-11 -145q65 60 169 60
q57 0 109.5 -20t92 -70.5t39.5 -123.5q0 -104 -74 -164.5t-189 -60.5z" />
    <glyph glyph-name="six.tf" 
d="M305 -10q-124 0 -187.5 84t-62.5 219q1 147 73 245.5t206 98.5q82 0 128 -37l-19 -29q-49 24 -87 24q-49 0 -85 -23t-54.5 -62t-27 -82t-8.5 -93q18 23 60.5 46t98.5 23q83 0 143 -53t60 -146q0 -96 -66.5 -155.5t-171.5 -59.5zM311 29q58 0 84 46.5t26 110.5
q0 73 -32 119t-88 46q-55 0 -88 -41t-33 -94q0 -74 33 -130.5t98 -56.5z" />
    <glyph glyph-name="seven.tf" 
d="M140 0l305 512h-187q-69 0 -102.5 -12.5t-60.5 -48.5h-31l57 178l82 -8h333l-317 -621h-79z" />
    <glyph glyph-name="eight.tf" 
d="M417 349q138 -54 138 -170q0 -85 -73.5 -137t-186.5 -52q-112 0 -181 51t-69 133q0 100 106 157q-69 53 -69 136q0 79 66 124.5t155 45.5q87 0 147.5 -42.5t60.5 -111.5q0 -83 -94 -134zM304 598q-56 0 -80.5 -29t-24.5 -69q0 -80 101 -113l56 -18q61 41 61 114
q0 18 -4.5 35.5t-15.5 36.5t-35 31t-58 12zM299 29q47 0 77.5 22t41 48.5t10.5 53.5q0 38 -24 63t-86 45l-83 26q-16 5 -36 14q-52 -43 -52 -111q0 -63 39 -112t113 -49z" />
    <glyph glyph-name="nine.tf" 
d="M294 634q124 0 187.5 -84t62.5 -219q-1 -147 -73 -245.5t-206 -98.5q-82 0 -128 37l19 29q49 -24 87 -24q49 0 85 23t54.5 62t27 82t8.5 93q-18 -23 -60.5 -46t-98.5 -23q-83 0 -143 53t-60 146q0 96 66.5 155.5t171.5 59.5zM288 595q-58 0 -84 -46.5t-26 -110.5
q0 -73 32 -119t88 -46q55 0 88 41t33 94q0 74 -33 130.5t-98 56.5z" />
    <glyph glyph-name="zero.dnom" horiz-adv-x="289" 
d="M145 -11q-49 0 -79.5 38t-30.5 89t30.5 89.5t79.5 38.5q48 0 78.5 -38.5t30.5 -89.5t-30.5 -89t-78.5 -38zM145 37q47 0 47 79q0 80 -47 80q-48 0 -48 -80q0 -79 48 -79z" />
    <glyph glyph-name="one.dnom" horiz-adv-x="183" 
d="M32 -6v33q29 2 29 18v143l-31 -10v39l56 25q13 6 26 0t12 -15v-182q0 -16 29 -18v-33h-121z" />
    <glyph glyph-name="two.dnom" horiz-adv-x="296" 
d="M40 -6q15 75 100 127q46 28 46 56q0 16 -10.5 26t-25.5 10q-30 0 -36 -22q-3 -10 0 -21.5t2 -16.5q-7 -15 -23.5 -17.5t-30 6t-13.5 21.5q0 36 26 60.5t74 24.5q45 0 69 -20.5t24 -55.5q0 -17 -6 -30.5t-20.5 -25.5t-22 -16.5t-26.5 -16.5q-25 -14 -33.5 -21.5
t-12.5 -21.5h75q16 0 21 8l9 13h30l-10 -53q-3 -14 -21 -14h-185z" />
    <glyph glyph-name="three.dnom" horiz-adv-x="287" 
d="M138 -11q-47 0 -75 23.5t-28 55.5q0 25 27 25q15 0 21 -5.5t8 -20t3 -17.5q10 -28 43 -28q21 0 34.5 15.5t12.5 33.5q1 31 -19.5 37t-46.5 -8l-15 30l24 11q36 13 36 44q0 29 -32 29q-19 0 -26.5 -18.5t-1.5 -38.5l-48 6q-12 5 -12 14q-1 31 23.5 51t68.5 20t68.5 -19.5
t24.5 -41.5q0 -29 -30 -43q49 -16 49 -66q0 -38 -30 -63.5t-79 -25.5z" />
    <glyph glyph-name="four.dnom" horiz-adv-x="265" 
d="M225 60h-35v-25q0 -18 25 -18v-23h-114v23q24 0 24 18v25h-100v35l123 150q9 11 25.5 7t16.5 -16v-141h35v-35zM70 95h55v67z" />
    <glyph glyph-name="five.dnom" horiz-adv-x="285" 
d="M141 -11q-49 0 -76.5 20.5t-29.5 57.5q-1 11 7 20t24 9q13 0 20.5 -5t9.5 -10.5t4 -16t3 -14.5q9 -29 38 -29q15 0 27.5 15.5t12.5 40.5q0 21 -14.5 37.5t-32.5 16.5q-15 0 -51 -14h-34l10 125h133l7 5h26l-3 -44l-12 -10h-110l-3 -38q22 16 57 16q34 0 65 -25t31 -65
q0 -42 -30 -67t-79 -25z" />
    <glyph glyph-name="six.dnom" horiz-adv-x="269" 
d="M140 -11q-55 0 -80 34.5t-25 87.5q0 54 29 95.5t85 41.5q34 0 57 -16q8 -6 -2 -25q-7 -6 -12.5 -4.5t-18.5 6.5t-22 5q-39 0 -46 -67q18 10 47 10q35 0 61 -23.5t26 -59.5q0 -33 -26.5 -59t-72.5 -26zM140 24q34 0 34 52q0 21 -8.5 33t-22.5 12q-17 0 -28.5 -5.5
t-11.5 -10.5q-1 -41 9.5 -61t27.5 -20z" />
    <glyph glyph-name="seven.dnom" horiz-adv-x="269" 
d="M97 -8q-13 0 -19 9t1 22l93 170h-91l-6 -17h-40l12 52q3 14 21 14h176l-125 -250h-22z" />
    <glyph glyph-name="eight.dnom" horiz-adv-x="282" 
d="M139 -11q-50 0 -77 22t-27 58q0 22 14 40.5t35 21.5q-35 14 -35 50q0 25 24 44t66 19q40 0 65.5 -18.5t25.5 -43.5q0 -35 -36 -49q23 -6 38 -25t15 -44q0 -31 -29 -53t-79 -22zM155 149q8 -1 15 10.5t7 21.5q0 31 -37 31q-16 0 -23.5 -9.5t-7.5 -20.5q0 -24 26 -29z
M139 22q40 0 40 43q0 30 -37 38l-29 6q-8 1 -14.5 -12t-6.5 -29q0 -18 12.5 -32t34.5 -14z" />
    <glyph glyph-name="nine.dnom" horiz-adv-x="269" 
d="M129 248q55 0 80 -34.5t25 -87.5q0 -54 -29 -95.5t-85 -41.5q-34 0 -57 16q-8 6 2 25q7 6 12.5 4.5t18.5 -6.5t22 -5q39 0 46 67q-18 -10 -47 -10q-35 0 -61 23.5t-26 59.5q0 33 26.5 59t72.5 26zM129 213q-34 0 -34 -52q0 -21 8.5 -33t22.5 -12q17 0 28.5 5.5t11.5 10.5
q1 41 -9.5 61t-27.5 20z" />
    <glyph glyph-name="zero.numr" horiz-adv-x="289" 
d="M145 388q-49 0 -79.5 38t-30.5 89t30.5 89.5t79.5 38.5q48 0 78.5 -38.5t30.5 -89.5t-30.5 -89t-78.5 -38zM145 436q47 0 47 79q0 80 -47 80q-48 0 -48 -80q0 -79 48 -79z" />
    <glyph glyph-name="one.numr" horiz-adv-x="183" 
d="M32 392v33q29 2 29 18v143l-31 -10v39l56 25q13 6 26 0t12 -15v-182q0 -16 29 -18v-33h-121z" />
    <glyph glyph-name="two.numr" horiz-adv-x="296" 
d="M40 387q15 75 100 127q46 28 46 56q0 16 -10.5 26t-25.5 10q-30 0 -36 -22q-3 -10 0 -21.5t2 -16.5q-7 -15 -23.5 -17.5t-30 6t-13.5 21.5q0 36 26 60.5t74 24.5q45 0 69 -20.5t24 -55.5q0 -17 -6 -30.5t-20.5 -25.5t-22 -16.5t-26.5 -16.5q-25 -14 -33.5 -21.5
t-12.5 -21.5h75q16 0 21 8l9 13h30l-10 -53q-3 -14 -21 -14h-185z" />
    <glyph glyph-name="three.numr" horiz-adv-x="287" 
d="M138 383q-47 0 -75 23.5t-28 55.5q0 25 27 25q15 0 21 -5.5t8 -20t3 -17.5q10 -28 43 -28q21 0 34.5 15.5t12.5 33.5q1 31 -19.5 37t-46.5 -8l-15 30l24 11q36 13 36 44q0 29 -32 29q-19 0 -26.5 -18.5t-1.5 -38.5l-48 6q-12 5 -12 14q-1 31 23.5 51t68.5 20t68.5 -19.5
t24.5 -41.5q0 -29 -30 -43q49 -16 49 -66q0 -38 -30 -63.5t-79 -25.5z" />
    <glyph glyph-name="four.numr" horiz-adv-x="265" 
d="M225 451h-35v-25q0 -18 25 -18v-23h-114v23q24 0 24 18v25h-100v35l123 150q9 11 25.5 7t16.5 -16v-141h35v-35zM70 486h55v67z" />
    <glyph glyph-name="five.numr" horiz-adv-x="285" 
d="M141 389q-49 0 -76.5 20.5t-29.5 57.5q-1 11 7 20t24 9q13 0 20.5 -5t9.5 -10.5t4 -16t3 -14.5q9 -29 38 -29q15 0 27.5 15.5t12.5 40.5q0 21 -14.5 37.5t-32.5 16.5q-15 0 -51 -14h-34l10 125h133l7 5h26l-3 -44l-12 -10h-110l-3 -38q22 16 57 16q34 0 65 -25t31 -65
q0 -42 -30 -67t-79 -25z" />
    <glyph glyph-name="six.numr" horiz-adv-x="269" 
d="M140 382q-55 0 -80 34.5t-25 87.5q0 54 29 95.5t85 41.5q34 0 57 -16q8 -6 -2 -25q-7 -6 -12.5 -4.5t-18.5 6.5t-22 5q-39 0 -46 -67q18 10 47 10q35 0 61 -23.5t26 -59.5q0 -33 -26.5 -59t-72.5 -26zM140 417q34 0 34 52q0 21 -8.5 33t-22.5 12q-17 0 -28.5 -5.5
t-11.5 -10.5q-1 -41 9.5 -61t27.5 -20z" />
    <glyph glyph-name="seven.numr" horiz-adv-x="269" 
d="M97 390q-13 0 -19 9t1 22l93 170h-91l-6 -17h-40l12 52q3 14 21 14h176l-125 -250h-22z" />
    <glyph glyph-name="eight.numr" horiz-adv-x="282" 
d="M139 387q-50 0 -77 22t-27 58q0 22 14 40.5t35 21.5q-35 14 -35 50q0 25 24 44t66 19q40 0 65.5 -18.5t25.5 -43.5q0 -35 -36 -49q23 -6 38 -25t15 -44q0 -31 -29 -53t-79 -22zM155 547q8 -1 15 10.5t7 21.5q0 31 -37 31q-16 0 -23.5 -9.5t-7.5 -20.5q0 -24 26 -29z
M139 420q40 0 40 43q0 30 -37 38l-29 6q-8 1 -14.5 -12t-6.5 -29q0 -18 12.5 -32t34.5 -14z" />
    <glyph glyph-name="nine.numr" horiz-adv-x="269" 
d="M129 642q55 0 80 -34.5t25 -87.5q0 -54 -29 -95.5t-85 -41.5q-34 0 -57 16q-8 6 2 25q7 6 12.5 4.5t18.5 -6.5t22 -5q39 0 46 67q-18 -10 -47 -10q-35 0 -61 23.5t-26 59.5q0 33 26.5 59t72.5 26zM129 607q-34 0 -34 -52q0 -21 8.5 -33t22.5 -12q17 0 28.5 5.5t11.5 10.5
q1 41 -9.5 61t-27.5 20z" />
    </font>
</defs>
</svg>
