<svg width="94" height="90" viewBox="0 0 94 90" fill="none" xmlns="http://www.w3.org/2000/svg">
<path d="M44.997 84.739C66.5333 84.739 83.992 67.2804 83.992 45.744C83.992 24.2077 66.5333 6.74902 44.997 6.74902C23.4606 6.74902 6.00195 24.2077 6.00195 45.744C6.00195 67.2804 23.4606 84.739 44.997 84.739Z" fill="#F5EEE6"/>
<path d="M77.322 61.1309H13.645V88.4209H77.322V61.1309Z" fill="white"/>
<path d="M13.645 61.136H12.129V89.936H78.839V59.616H12.129V61.136H13.645V62.652H75.806V86.906H15.161V61.136H13.645Z" fill="#342616"/>
<path d="M77.323 44.4541H13.645L1.51599 59.6151V61.1311H89.452V59.6151L77.323 44.4541Z" fill="white"/>
<path d="M77.323 44.458V42.938H12.917L0 59.083V62.647H90.967V59.083L78.052 42.938H77.323V44.458L76.139 45.405L87.939 60.151V61.135H89.455V59.619H1.51601L2.7 60.566L14.374 45.97H77.323V44.458L76.139 45.405L77.323 44.458Z" fill="#342616"/>
<path d="M52.878 21.712C52.878 8.06697 40.81 -3.17803 18.193 3.49397V7.70097C28.806 5.34197 38.915 12.615 38.915 21.712H32.094L45.694 38.623L59.294 21.712H52.878Z" fill="#F5EEE6"/>
<path d="M52.878 21.713H54.394C54.4462 18.8944 53.9349 16.0937 52.8902 13.4753C51.8454 10.8569 50.2882 8.47351 48.31 6.46501C44.277 2.46501 38.297 -0.00698517 30.72 1.48272e-05C26.326 0.0575464 21.9629 0.744875 17.764 2.04102L16.677 2.36101V9.59101L18.522 9.18201C19.7499 8.90859 21.004 8.77043 22.262 8.77001C26.1803 8.75086 29.9768 10.1302 32.969 12.66C34.3184 13.7587 35.4133 15.137 36.1781 16.7C36.943 18.263 37.3595 19.9734 37.399 21.713H38.915V20.197H28.929L45.697 41.041L62.465 20.194H52.877V21.71V23.226H56.135L45.697 36.205L35.259 23.229H40.432V21.713C40.3924 19.5378 39.8819 17.3971 38.9358 15.438C37.9896 13.479 36.6301 11.7483 34.951 10.365C31.4077 7.36044 26.9076 5.72055 22.262 5.74101C20.782 5.74159 19.3066 5.90423 17.862 6.22601L18.191 7.70601H19.707V3.49902H18.193L18.622 4.95301C22.5431 3.73952 26.6178 3.09429 30.722 3.03701C37.661 3.04501 42.762 5.24602 46.177 8.62402C47.8712 10.3501 49.2029 12.3977 50.0937 14.6463C50.9845 16.8949 51.4164 19.299 51.364 21.717V23.233H52.88L52.878 21.713Z" fill="#342616"/>
<path d="M54.5801 79.325H37.9031V88.422H54.5801V79.325Z" fill="#F5EEE6"/>
<path d="M37.903 88.4221H39.419V80.8411H53.064V86.9061H37.903V88.4221V89.9381H56.097V77.8091H36.387V89.9381H37.903V88.4221Z" fill="#342616"/>
<path d="M77.322 30.808V23.228H74.29V30.809" fill="#342616"/>
<path d="M82.524 32.5379L86.1349 26.284L83.509 24.7729L79.8979 31.0269" fill="#342616"/>
<path d="M86.043 37.1711L92.298 33.5601L90.782 30.9341L84.527 34.5451" fill="#342616"/>
<path d="M86.4189 42.938H93.9999V39.906H86.4189" fill="#342616"/>
<path d="M71.391 31.0219L67.779 24.7729L65.153 26.2889L68.764 32.543" fill="#342616"/>
<path d="M18.194 83.8731H21.226V80.8411H18.194" fill="#342616"/>
<path d="M24.2581 83.8731H27.2901V80.8411H24.2581" fill="#342616"/>
</svg>
