<svg width="10" height="9" viewBox="0 0 10 9" fill="none" xmlns="http://www.w3.org/2000/svg">
<path fill-rule="evenodd" clip-rule="evenodd" d="M3.72274 8.80272C3.64901 8.80294 3.57596 8.78849 3.50785 8.76027C3.43974 8.73205 3.37791 8.6906 3.32593 8.63831L0.527342 5.82727C0.423478 5.72131 0.365318 5.57884 0.365318 5.43046C0.365318 5.28208 0.423478 5.13961 0.527342 5.03365C0.579223 4.98114 0.641008 4.93946 0.709122 4.911C0.777236 4.88254 0.850331 4.86789 0.92415 4.86789C0.99797 4.86789 1.07106 4.88254 1.13918 4.911C1.20729 4.93946 1.26908 4.98114 1.32096 5.03365L3.6632 7.38613L8.31145 1.15805C8.35533 1.09902 8.41043 1.04923 8.47361 1.01156C8.53678 0.973893 8.60681 0.949093 8.67961 0.938558C8.7524 0.928023 8.82655 0.931971 8.89782 0.950183C8.96908 0.968395 9.03604 1.0005 9.09486 1.04467C9.21333 1.13475 9.29161 1.26784 9.31282 1.41515C9.33404 1.56247 9.29649 1.71221 9.20823 1.83206L4.17055 8.57766C4.12263 8.6421 4.06136 8.69543 3.99091 8.73398C3.92047 8.77253 3.84253 8.79537 3.76242 8.80099C3.74939 8.80213 3.73578 8.80272 3.72274 8.80272Z" fill="white"/>
</svg>
