<svg width="24" height="15" viewBox="0 0 24 15" fill="none" xmlns="http://www.w3.org/2000/svg">
<path d="M23.9753 0.861389H0V14.6472H23.9753V0.861389Z" fill="#D80027"/>
<path d="M7.3477 5.14185L7.94956 6.9942H9.89726L8.32153 8.13903L8.92343 9.99146L7.3477 8.84659L5.77197 9.99146L6.37383 8.13903L4.7981 6.9942H6.7458L7.3477 5.14185Z" fill="#FFDA44"/>
<path d="M11.141 11.3028L10.5501 10.8735L9.95923 11.3028L10.1849 10.6082L9.59399 10.1789H10.3244L10.5501 9.48419L10.7759 10.1789H11.5062L10.9153 10.6082L11.141 11.3028Z" fill="#FFDA44"/>
<path d="M12.6827 9.1811H11.9523L11.7266 9.87568L11.5009 9.18114L10.7705 9.1811L11.3615 8.75175L11.1357 8.05713L11.7266 8.48639L12.3175 8.05713L12.0918 8.75175L12.6827 9.1811Z" fill="#FFDA44"/>
<path d="M12.6827 6.5585L12.0918 6.98784L12.3175 7.68243L11.7266 7.25317L11.1357 7.68251L11.3615 6.9878L10.7705 6.55858L11.501 6.5585L11.7266 5.86383L11.9523 6.5585H12.6827Z" fill="#FFDA44"/>
<path d="M11.1412 4.43681L10.9156 5.13148L11.5064 5.56074L10.7761 5.56078L10.5503 6.25549L10.3246 5.56074L9.59424 5.56082L10.1851 5.13144L9.95944 4.43677L10.5503 4.86611L11.1412 4.43681Z" fill="#FFDA44"/>
</svg>
