<svg width="116" height="90" viewBox="0 0 116 90" fill="none" xmlns="http://www.w3.org/2000/svg">
<path d="M82.2005 64.545C99.6611 64.545 113.816 50.3904 113.816 32.9297C113.816 15.4691 99.6611 1.31445 82.2005 1.31445C64.7399 1.31445 50.5852 15.4691 50.5852 32.9297C50.5852 50.3904 64.7399 64.545 82.2005 64.545Z" fill="#F5EEE6"/>
<path d="M70.4581 8.53571H52.6988V10.3429L54.3522 9.61502C53.8059 8.3869 52.9426 7.32631 51.8509 6.54217C50.6879 5.69447 49.2879 5.23378 47.8488 5.22523H47.8375C46.9426 5.20764 46.0528 5.36395 45.2174 5.68547L45.8915 7.36009L47.5824 6.72602C46.8445 4.75216 45.5217 3.05055 43.7908 1.84864C42.0599 0.646734 40.0033 0.00178706 37.8961 0C36.4927 0.0428918 35.1134 0.376211 33.8453 0.978934C32.5773 1.58166 31.4479 2.44069 30.5285 3.50183C28.7414 5.34774 27.6816 7.77731 27.5444 10.3429H29.3503V8.53571H12.6466V12.1489H31.1563V10.3479C31.302 8.68815 32.0199 7.13063 33.1874 5.94186C33.7701 5.25127 34.4888 4.68809 35.2987 4.28744C36.1086 3.8868 36.9923 3.65726 37.8948 3.61314C39.2662 3.61469 40.6045 4.03456 41.731 4.81671C42.8575 5.59885 43.7186 6.70603 44.1994 7.99043L44.8497 9.72133L46.5644 9.03098C46.9718 8.88449 47.4035 8.81699 47.8363 8.83212H47.8475C48.5289 8.8413 49.1901 9.06491 49.7373 9.4712C50.305 9.88221 50.7548 10.4351 51.0417 11.0745L51.5144 12.1526H70.4581V8.53571Z" fill="#342616"/>
<path d="M113.815 17.5729H106.663V19.3788L108.172 18.3858C107.41 17.2443 106.419 16.2743 105.261 15.5381C103.921 14.6653 102.358 14.1944 100.759 14.1811C100.444 14.1812 100.129 14.2 99.816 14.2374L100.032 16.0308L101.594 15.1241C100.795 13.7445 99.6756 12.5777 98.3302 11.7223C96.9169 10.8192 95.2762 10.336 93.599 10.3291C92.3784 10.341 91.1724 10.5947 90.0505 11.0755C88.9287 11.5564 87.9133 12.2549 87.063 13.1306C85.3848 14.7778 84.4075 17.0096 84.3354 19.3601L86.1413 19.3776V17.5716H68.6497V21.1848H87.9347L87.951 19.3963C88.0174 17.9868 88.619 16.6556 89.6331 15.6744C90.1476 15.1378 90.7633 14.7085 91.4446 14.4112C92.126 14.1139 92.8594 13.9545 93.6027 13.9422C94.5971 13.9469 95.5692 14.2364 96.4042 14.7764C97.2564 15.3213 97.9657 16.0623 98.4728 16.9376L99.0706 17.9668L100.252 17.8243C100.421 17.8033 100.591 17.7929 100.761 17.793C101.675 17.8086 102.564 18.086 103.324 18.5922C104.05 19.0559 104.673 19.6643 105.154 20.3794L105.689 21.191H113.818V17.5779L113.815 17.5729Z" fill="#342616"/>
<path d="M112.007 71.7704C112.056 69.6893 112.854 61.8339 107.68 60.5695C107.228 59.7191 105.304 55.5344 103.659 51.94C102.914 50.3099 101.717 48.928 100.209 47.9589C98.7013 46.9898 96.947 46.4742 95.1547 46.4734H81.2949V80.7976H111.279C111.279 80.7976 113.812 79.0942 113.812 77.1895C113.812 75.3097 114.266 72.3732 112.007 71.7704Z" fill="#F5EEE6"/>
<path d="M81.2949 82.6081H111.832L112.291 82.2992C112.856 81.9044 113.38 81.454 113.856 80.9547C114.299 80.4978 114.682 79.9868 114.998 79.4339C115.394 78.7491 115.61 77.9742 115.623 77.1828C115.623 76.7263 115.659 76.0897 115.659 75.3906C115.694 74.4026 115.543 73.4169 115.216 72.484C114.999 71.9176 114.66 71.4054 114.225 70.9833C113.732 70.5184 113.13 70.1866 112.474 70.019L112.007 71.7699L113.812 71.8137C113.823 71.3635 113.886 70.4167 113.886 69.2974C113.935 67.3246 113.644 65.3581 113.025 63.4843C112.654 62.4262 112.067 61.4565 111.302 60.6366C110.434 59.7364 109.327 59.1044 108.11 58.8156L107.68 60.5666L109.275 59.7199C109.195 59.5698 108.987 59.1458 108.723 58.5943C107.923 56.9109 106.529 53.8831 105.3 51.1942C104.412 49.248 102.983 47.5981 101.183 46.4409C99.3842 45.2837 97.2902 44.668 95.1509 44.667H81.2949V48.2801H95.1509C96.5974 48.2801 98.0135 48.6957 99.2306 49.4775C100.448 50.2593 101.414 51.3744 102.016 52.6899C102.837 54.4871 103.732 56.4331 104.478 58.0415C104.853 58.8457 105.189 59.5623 105.463 60.1388C105.736 60.7154 105.942 61.1394 106.088 61.412L106.463 62.1274L107.251 62.3187C107.803 62.4441 108.306 62.7285 108.698 63.1367C109.346 63.8934 109.778 64.8105 109.949 65.7918C110.184 66.9438 110.295 68.1179 110.278 69.2936C110.278 70.2941 110.22 71.1258 110.205 71.7249L110.171 73.1469L111.547 73.5121L111.733 73.6009C111.844 73.7379 111.916 73.9027 111.94 74.0774C112.024 74.5111 112.061 74.9526 112.05 75.3943C112.05 75.9584 112.013 76.5699 112.013 77.1865C111.996 77.3614 111.938 77.5298 111.843 77.678C111.583 78.1053 111.258 78.4893 110.879 78.8161C110.702 78.9774 110.538 79.1075 110.425 79.1913L110.3 79.2851L110.275 79.3026L110.418 79.509L110.276 79.3014L110.419 79.5077L110.278 79.3001L111.287 80.8009V78.9949H81.2949V82.6081Z" fill="#342616"/>
<path d="M99.4019 60.7765L96.4479 54.4608C96.3423 54.2347 96.1744 54.0435 95.964 53.9094C95.7535 53.7754 95.5093 53.7042 95.2598 53.7041H88.5212V62.7363H98.1513C98.3833 62.7372 98.6117 62.6794 98.8154 62.5682C99.019 62.4571 99.1912 62.2963 99.316 62.1007C99.4409 61.9051 99.5142 61.6812 99.5292 61.4497C99.5442 61.2182 99.5004 60.9866 99.4019 60.7765Z" fill="white"/>
<path d="M99.402 60.7732L101.039 60.0078L98.0725 53.6682L98.085 53.6932C97.8333 53.1562 97.434 52.7018 96.9338 52.3831C96.4335 52.0645 95.8529 51.8947 95.2598 51.8936H86.7153V64.5389H98.1551C98.5817 64.5396 99.0041 64.4543 99.3971 64.2882C99.7901 64.1221 100.146 63.8786 100.443 63.5722C101.017 62.9776 101.339 62.1831 101.34 61.356C101.34 60.8891 101.238 60.4279 101.039 60.0053L99.402 60.7707L97.7674 61.5361L98.1563 61.3535H97.7286L97.7686 61.5361L98.1576 61.3535L97.8499 61.0571L97.7323 61.3535H98.1563L97.8487 61.0571L98.1588 61.3573V60.9233L97.8487 61.0571L98.1588 61.3573V60.9233H90.3297V55.5042H95.2598V55.0039L94.8096 55.214C94.8498 55.2996 94.9134 55.3721 94.9931 55.423C95.0728 55.4739 95.1652 55.5012 95.2598 55.5017V55.0014L94.8096 55.2115L97.7649 61.5311L99.402 60.7732Z" fill="#342616"/>
<path d="M23.4849 30.2146V80.7986H81.2964V30.2146H23.4849Z" fill="white"/>
<path d="M25.2931 44.667V32.0253H79.4902V78.9962H25.2931V64.5436H21.6787V82.6093H83.1033V28.4084H21.6787V44.667H25.2931Z" fill="#342616"/>
<path d="M25.2931 60.9303V50.0872H21.6787V60.9266" fill="#342616"/>
<path d="M39.7546 88.001C43.7504 88.001 46.9896 84.7758 46.9896 80.7973C46.9896 76.8187 43.7504 73.5935 39.7546 73.5935C35.7588 73.5935 32.5195 76.8187 32.5195 80.7973C32.5195 84.7758 35.7588 88.001 39.7546 88.001Z" fill="#F5EEE6"/>
<path d="M46.9897 80.7973H45.1825C45.1759 82.2322 44.6008 83.6061 43.5832 84.6178C42.5655 85.6296 41.1884 86.1968 39.7534 86.1951C38.3183 86.1971 36.941 85.63 35.9233 84.6182C34.9056 83.6064 34.3306 82.2323 34.3243 80.7973C34.33 79.3617 34.9049 77.9869 35.9229 76.9747C36.941 75.9625 38.319 75.3955 39.7547 75.3982C41.1895 75.3962 42.5667 75.9631 43.5843 76.9746C44.602 77.9862 45.1771 79.3599 45.1838 80.7948H48.7956C48.7897 78.4019 47.8339 76.1093 46.1384 74.4208C44.4428 72.7323 42.1463 71.7861 39.7534 71.7901C37.3603 71.7854 35.0634 72.7314 33.3677 74.4201C31.672 76.1087 30.7165 78.4017 30.7112 80.7948C30.7132 81.9802 30.9486 83.1536 31.4041 84.248C31.8596 85.3424 32.5262 86.3364 33.3659 87.1731C34.2055 88.0099 35.2018 88.6731 36.2978 89.1248C37.3938 89.5765 38.568 89.8079 39.7534 89.8057C42.1473 89.8094 44.4446 88.8622 46.1402 87.1724C47.8359 85.4826 48.791 83.1886 48.7956 80.7948L46.9897 80.7973Z" fill="#342616"/>
<path d="M93.9516 88.001C97.9474 88.001 101.187 84.7758 101.187 80.7973C101.187 76.8187 97.9474 73.5935 93.9516 73.5935C89.9558 73.5935 86.7166 76.8187 86.7166 80.7973C86.7166 84.7758 89.9558 88.001 93.9516 88.001Z" fill="#F5EEE6"/>
<path d="M101.187 80.7973H99.3795C99.3729 82.2322 98.7978 83.6061 97.7802 84.6178C96.7626 85.6296 95.3854 86.1968 93.9504 86.1951C92.5153 86.1971 91.138 85.63 90.1203 84.6182C89.1026 83.6064 88.5276 82.2323 88.5213 80.7973C88.527 79.3617 89.1019 77.9869 90.12 76.9747C91.138 75.9625 92.5161 75.3955 93.9517 75.3982C95.3866 75.3962 96.7637 75.9631 97.7814 76.9746C98.799 77.9862 99.3742 79.3599 99.3808 80.7948H102.993C102.987 78.4019 102.031 76.1093 100.335 74.4208C98.6399 72.7323 96.3433 71.7861 93.9504 71.7901C91.5574 71.7854 89.2604 72.7314 87.5647 74.4201C85.8691 76.1087 84.9135 78.4017 84.9082 80.7948C84.9102 81.9802 85.1456 83.1536 85.6011 84.248C86.0566 85.3424 86.7232 86.3364 87.5629 87.1731C88.4026 88.0099 89.3988 88.6731 90.4948 89.1248C91.5908 89.5765 92.765 89.8079 93.9504 89.8057C96.3443 89.8094 98.6416 88.8622 100.337 87.1724C102.033 85.4826 102.988 83.1886 102.993 80.7948L101.187 80.7973Z" fill="#342616"/>
<path d="M41.5518 57.3137H7.22632V60.9269H41.5518" fill="#342616"/>
<path d="M61.4234 42.8613H16.2585V46.4745H61.4234" fill="#342616"/>
<path d="M72.2628 28.4084H16.2585V32.0216H72.2628" fill="#342616"/>
<path d="M12.6466 28.4084H9.03223V32.0216H12.6466" fill="#342616"/>
<path d="M5.4203 28.4084H1.80591V32.0216H5.4203" fill="#342616"/>
<path d="M3.61439 57.3137H0V60.9269H3.61439" fill="#342616"/>
<path d="M12.6466 42.8613H9.03223V46.4745H12.6466" fill="#342616"/>
</svg>
