<svg width="24" height="15" viewBox="0 0 24 15" fill="none" xmlns="http://www.w3.org/2000/svg">
<path d="M23.9753 0.861389H0V14.6472H23.9753V0.861389Z" fill="#F0F0F0"/>
<path d="M23.9753 0.861389H0V5.65644H23.9753V0.861389Z" fill="#D80027"/>
<path d="M23.9753 10.4514H0V14.6471H23.9753V10.4514Z" fill="black"/>
<path d="M14.8465 7.06037H12.8753C12.8753 6.69751 12.5811 6.40332 12.2183 6.40332C11.8554 6.40332 11.5612 6.69751 11.5612 7.06037H9.59009C9.59009 7.42323 9.90617 7.71742 10.269 7.71742H10.2471C10.2471 8.08028 10.5413 8.37447 10.9042 8.37447C10.9042 8.73733 11.1984 9.03153 11.5612 9.03153H12.8753C13.2382 9.03153 13.5324 8.73733 13.5324 8.37447C13.8953 8.37447 14.1894 8.08028 14.1894 7.71742H14.1676C14.5304 7.71742 14.8465 7.42327 14.8465 7.06037Z" fill="#FF9811"/>
</svg>
