<svg width="93" height="90" viewBox="0 0 93 90" fill="none" xmlns="http://www.w3.org/2000/svg">
<path d="M46.238 78.788C67.9947 78.788 85.632 61.1507 85.632 39.394C85.632 17.6373 67.9947 0 46.238 0C24.4813 0 6.84399 17.6373 6.84399 39.394C6.84399 61.1507 24.4813 78.788 46.238 78.788Z" fill="#F5EEE6"/>
<path d="M46.239 25.478L17.802 42.206L46.239 58.912L74.678 42.206L46.239 25.478Z" fill="#F5EEE6"/>
<path d="M18.517 61.28V71.137L46.239 87.802L73.961 71.141V61.284L18.517 61.28Z" fill="#F5EEE6"/>
<path d="M72.501 61.28V70.312L46.239 86.095L19.976 70.312V61.28H17.058V71.962L46.239 89.502L75.42 71.962V61.28H72.502H72.501Z" fill="#342616"/>
<path d="M89.731 52.2422L61.294 68.9702L46.239 58.9112L74.676 42.2012L89.731 52.2422Z" fill="white"/>
<path d="M89.7309 52.2419L88.9909 50.9839L61.3429 67.2479L48.9839 58.9909L74.6269 43.9269L88.9209 53.4589L89.7299 52.2449L88.9899 50.9869L89.7299 52.2449L90.5389 51.0309L74.7239 40.4839L43.4929 58.8309L61.2439 70.6909L92.4769 52.3189L90.5399 51.0279L89.7309 52.2419Z" fill="#342616"/>
<path d="M2.74597 52.2422L31.183 68.9702L46.241 58.9112L17.801 42.2012L2.74597 52.2422Z" fill="white"/>
<path d="M2.746 52.2419L2.006 53.4999L31.232 70.6919L48.983 58.8319L17.752 40.4839L0 52.3189L2.006 53.4989L2.746 52.2409L3.55499 53.4549L17.85 43.9249L43.493 58.9889L31.134 67.2459L3.48599 50.9839L2.746 52.2419L3.55499 53.4559L2.746 52.2419Z" fill="#342616"/>
<path d="M89.731 32.1689L61.294 15.4409L46.239 25.4999L74.676 42.1999L89.731 32.1689Z" fill="white"/>
<path d="M89.7309 32.168L90.4709 30.91L61.2439 13.719L43.4929 25.58L74.7239 43.926L92.4759 32.091L90.4689 30.911L89.7289 32.169L88.9199 30.955L74.6249 40.485L48.9839 25.421L61.3429 17.163L88.9909 33.426L89.7309 32.168L88.9219 30.954L89.7309 32.168Z" fill="#342616"/>
<path d="M2.74597 32.1689L31.183 15.4409L46.241 25.4999L17.804 42.1999L2.74597 32.1689Z" fill="white"/>
<path d="M2.746 32.168L3.48599 33.426L31.134 17.162L43.493 25.42L17.85 40.484L3.55499 30.954L2.746 32.168L3.48599 33.426L2.746 32.168L1.937 33.382L17.752 43.926L48.983 25.58L31.233 13.719L0 32.091L1.937 33.382L2.746 32.168Z" fill="#342616"/>
<path d="M44.7791 64.198V87.543H47.6971V64.198" fill="#342616"/>
<path d="M53.534 30.6399V8.75391H38.944V30.6399H31.188L46.238 47.3669L61.293 30.6389L53.534 30.6399Z" fill="#F5EEE6"/>
<path d="M53.533 30.6399H54.992V7.29492H37.484V29.1809H27.907L46.238 49.5479L64.569 29.1809H53.533V30.6399V32.0989H58.016L46.238 45.1869L34.457 32.0989H40.4V10.2169H52.072V32.1029H53.531L53.533 30.6399Z" fill="#342616"/>
</svg>
