<svg width="98" height="90" viewBox="0 0 98 90" fill="none" xmlns="http://www.w3.org/2000/svg">
<path d="M63.991 90.001C82.4925 90.001 97.491 74.7787 97.491 56.001C97.491 37.2233 82.4925 22.001 63.991 22.001C45.4894 22.001 30.491 37.2233 30.491 56.001C30.491 74.7787 45.4894 90.001 63.991 90.001Z" fill="#F5EEE6"/>
<path d="M39.866 86.3049L78.312 66.2689V24.1859L39.866 4.7959L1.59802 24.1859V66.2679L39.866 86.3049Z" fill="white"/>
<path d="M1.59802 24.187L39.952 44.223V86.305L1.59802 66.269V24.187Z" fill="#E3E4E5"/>
<path d="M76.7141 7.991V0H73.514V7.991" fill="#342616"/>
<path d="M82.1979 9.81605L86.0049 3.22305L83.2369 1.62305L79.4299 8.21605" fill="#342616"/>
<path d="M85.911 14.6961L92.504 10.8891L90.9041 8.12109L84.311 11.9301" fill="#342616"/>
<path d="M86.304 20.7771H94.295V17.5771H86.304" fill="#342616"/>
<path d="M70.461 8.21703L66.654 1.62402L63.886 3.22402L67.693 9.81702" fill="#342616"/>
<path d="M39.866 86.304L40.605 87.721L79.911 67.237V23.202L39.865 3.00195L0 23.202V67.235L39.865 88.107L40.605 87.721L39.866 86.304L40.607 84.888L3.196 65.301V25.168L39.868 6.58595L76.714 25.17V65.299L39.128 84.887L39.867 86.304L40.608 84.888L39.866 86.304Z" fill="#342616"/>
<path d="M0.858032 25.603L39.958 46.025L79.232 25.605L77.757 22.769L39.957 42.421L2.33803 22.77L0.858032 25.603Z" fill="#342616"/>
<path d="M38.3569 44.751V86.305H41.5569V44.751" fill="#342616"/>
<path d="M53.282 11.502L15.9819 31.966V39.957L17.6089 40.149L20.3659 43.165L23.2739 43.753L25.5739 45.918V36.761L63.4509 16.619L53.282 11.502Z" fill="#F5EEE6"/>
<path d="M53.282 11.501L52.513 10.101L14.384 31.02V41.378L16.831 41.667L19.538 44.629L22.51 45.229L27.17 49.619V37.72L66.926 16.579L53.25 9.69702L52.513 10.097L53.282 11.497L52.563 12.924L59.971 16.652L23.971 35.795V45.92H25.571L26.671 44.756L24.038 42.276L21.194 41.702L18.387 38.631L17.58 38.531V32.907L54.05 12.899L53.281 11.499L52.562 12.926L53.282 11.501Z" fill="#342616"/>
<path d="M69.683 58.708L50.395 68.908L51.889 71.734L71.177 61.534" fill="#342616"/>
<path d="M65.527 39.9561V55.9381H68.727V39.9561" fill="#342616"/>
<path d="M64.5121 47.8309L67.612 42.7479L70.201 44.5029L71.994 41.8569L66.63 38.2209L61.78 46.1649L64.5081 47.8309H64.5121Z" fill="#342616"/>
<path d="M52.741 46.3491V62.3311H55.941V46.3491" fill="#342616"/>
<path d="M51.726 54.224L54.826 49.141L57.415 50.896L59.208 48.25L53.844 44.614L48.994 52.558L51.722 54.224H51.726Z" fill="#342616"/>
</svg>
