<svg width="87" height="91" viewBox="0 0 87 91" fill="none" xmlns="http://www.w3.org/2000/svg">
<path d="M86.207 44.6559C86.207 66.3729 69.321 80.7679 48.491 80.7679C27.661 80.7679 10.775 66.3679 10.775 44.6559C10.775 22.9439 27.661 5.33594 48.491 5.33594C69.321 5.33594 86.207 22.9379 86.207 44.6559Z" fill="#F5EEE6"/>
<path d="M78.51 60.7529H32.327V88.4629H78.51V60.7529Z" fill="white"/>
<path d="M32.327 88.4619V90.0009H80.052V59.2129H30.788V90.0019H32.327V88.4629H33.866V62.2929H76.966V86.9239H32.327V88.4629V88.4619Z" fill="#342616"/>
<path d="M61.5769 60.7529H47.7219V68.4499H61.5769V60.7529Z" fill="#F5EEE6"/>
<path d="M47.721 68.4499V69.9889H63.116V59.2129H46.182V69.9889H47.721V68.4499H49.26V62.2919H60.036V66.9099H47.721V68.4489V68.4499Z" fill="#342616"/>
<path d="M73.892 80.7649H70.813V83.8439H73.892" fill="#342616"/>
<path d="M67.734 80.7649H64.655V83.8439H67.734" fill="#342616"/>
<path d="M61.5771 80.7649H58.498V83.8439H61.5771" fill="#342616"/>
<path d="M42.496 38.72C39.885 35.175 35.9259 26.885 27.4879 26.885H13.245C7.71196 26.885 1.53796 32.785 1.53796 40.201V54.445C1.53796 57.945 5.56095 61.913 9.23795 62.81V90.001H30.7899V88.078L32.3289 90.001V43.761L42.266 54.261C42.7056 54.7309 43.2371 55.1055 43.8275 55.3616C44.4178 55.6177 45.0545 55.7499 45.698 55.7499C46.3415 55.7499 46.9781 55.6177 47.5685 55.3616C48.1588 55.1055 48.6903 54.7309 49.13 54.261L51.162 52.07C51.162 52.07 45.09 42.244 42.496 38.72Z" fill="#F5EEE6"/>
<path d="M21.5511 21.8489C25.5291 21.8489 29.2511 19.3859 29.2511 14.5689V8.72694C29.2511 3.90994 25.5321 1.54395 21.5511 1.54395C17.5701 1.54395 13.8511 3.90994 13.8511 8.72694V14.5719C13.8541 19.3859 17.5731 21.8489 21.5511 21.8489Z" fill="white"/>
<path d="M21.551 21.85V23.388C23.8579 23.4288 26.1044 22.6492 27.89 21.188C28.8327 20.368 29.5818 19.3491 30.0833 18.2047C30.5848 17.0603 30.8261 15.8189 30.79 14.57V8.72497C30.829 7.48042 30.5879 6.24301 30.0846 5.10411C29.5813 3.96522 28.8285 2.95394 27.882 2.14497C26.0869 0.714128 23.848 -0.0439561 21.553 0.00197065C19.2579 -0.0439561 17.019 0.714128 15.224 2.14497C14.2774 2.95394 13.5247 3.96522 13.0214 5.10411C12.518 6.24301 12.277 7.48042 12.316 8.72497V14.57C12.2799 15.8189 12.5213 17.0603 13.0228 18.2047C13.5242 19.349 14.2733 20.368 15.216 21.188C17.0016 22.6492 19.2481 23.4288 21.555 23.388V20.309C19.9808 20.3471 18.4436 19.8287 17.214 18.845C16.6087 18.3148 16.131 17.6548 15.8164 16.9143C15.5018 16.1737 15.3584 15.3717 15.397 14.568V8.72297C15.3555 7.92876 15.4967 7.13562 15.8098 6.40455C16.1229 5.67348 16.5995 5.02397 17.203 4.50597C18.4442 3.53982 19.9827 3.03534 21.555 3.07897C23.1273 3.03534 24.6658 3.53982 25.907 4.50597C26.5104 5.02397 26.987 5.67348 27.3001 6.40455C27.6132 7.13562 27.7545 7.92876 27.713 8.72297V14.568C27.7515 15.3717 27.6081 16.1737 27.2935 16.9142C26.9789 17.6548 26.5012 18.3148 25.896 18.845C24.6664 19.8286 23.1292 20.3471 21.555 20.309L21.551 21.85Z" fill="#342616"/>
<path d="M33.863 90.0019V47.6279L41.157 55.3279L41.171 55.3419C41.7589 55.9491 42.4615 56.4336 43.2381 56.7671C44.0147 57.1007 44.8498 57.2767 45.695 57.2849C46.5388 57.2764 47.3725 57.1008 48.148 56.7681C48.9235 56.4355 49.6253 55.9524 50.213 55.3469L50.233 55.3269L53.082 52.2559L52.466 51.2559C52.466 51.2559 50.944 48.7929 49.096 45.8859C47.248 42.9789 45.083 39.6409 43.731 37.8019C43.131 36.9939 42.393 35.8079 41.503 34.5019C40.0492 32.2421 38.2647 30.2132 36.209 28.4829C33.7531 26.4557 30.6694 25.3444 27.485 25.3389H13.246C11.5198 25.4181 9.82742 25.846 8.27103 26.5969C6.71463 27.3478 5.32641 28.406 4.19 29.7079C1.52191 32.5507 0.0254626 36.2961 0 40.1949V54.4389C0.0316362 55.7626 0.398753 57.0567 1.06699 58.1999C2.08646 59.9658 3.49727 61.4744 5.19098 62.6099C6.79966 63.7776 8.71611 64.4466 10.702 64.5339V61.4549C9.84809 61.4238 9.01097 61.2085 8.24799 60.8239C6.83098 60.1354 5.5815 59.1457 4.58698 57.9239C3.71521 56.9585 3.18501 55.7332 3.078 54.4369V40.2019C3.10356 37.0809 4.30599 34.0846 6.44498 31.8119C7.29514 30.8222 8.33478 30.0127 9.50262 29.431C10.6705 28.8493 11.9429 28.5072 13.245 28.4249H27.489C29.1695 28.4148 30.8266 28.8187 32.314 29.6009C34.4004 30.786 36.2054 32.4088 37.605 34.3579C39.061 36.2439 40.197 38.1909 41.255 39.6339C42.499 41.3199 44.669 44.6599 46.501 47.5439C47.418 48.9879 48.256 50.3229 48.864 51.2959C49.472 52.2689 49.848 52.8789 49.849 52.8799L51.159 52.0719L50.031 51.0249L47.999 53.2159L49.127 54.2629L48.04 53.1689C47.7384 53.4888 47.376 53.7452 46.974 53.9231C46.572 54.101 46.1385 54.1968 45.699 54.2049C45.2586 54.1975 44.8241 54.102 44.4212 53.9241C44.0183 53.7462 43.6551 53.4894 43.353 53.1689L42.263 54.2579L43.381 53.1989L30.787 39.8989V90.0049L33.863 90.0019Z" fill="#342616"/>
<path d="M9.23596 39.2009V90.0009H12.315V39.2009" fill="#342616"/>
<path d="M20.012 60.7529V90.0019H23.091V60.7529" fill="#342616"/>
</svg>
