<svg width="47" height="47" viewBox="0 0 47 47" fill="none" xmlns="http://www.w3.org/2000/svg">
<path d="M40.8381 10.0786L31.0464 0.286865C30.8628 0.103271 30.6143 0 30.3541 0H9.79161C7.63153 0 5.875 1.75653 5.875 3.9167V43.0834C5.875 45.2435 7.63153 47 9.7917 47H37.2084C39.3685 47 41.125 45.2435 41.125 43.0833V10.7708C41.125 10.5107 41.0217 10.2622 40.8381 10.0786ZM31.3333 3.34297L37.782 9.7917H33.2916C32.2121 9.7917 31.3333 8.91293 31.3333 7.83339V3.34297ZM39.1667 43.0833C39.1667 44.1628 38.2879 45.0416 37.2084 45.0416H9.7917C8.71217 45.0416 7.83339 44.1628 7.83339 43.0833V3.9167C7.83339 2.83717 8.71217 1.95839 9.7917 1.95839H29.375V7.83339C29.375 9.99347 31.1315 11.75 33.2917 11.75H39.1667V43.0833Z" fill="#232122"/>
<path d="M28.4924 28.7448C27.5859 28.0314 26.7244 27.2981 26.1506 26.7243C25.4048 25.9785 24.7402 25.2556 24.1627 24.5671C25.0635 21.7836 25.4584 20.3483 25.4584 19.5833C25.4584 16.3331 24.2841 15.6666 22.5209 15.6666C21.1812 15.6666 19.5834 16.3627 19.5834 19.677C19.5834 21.1381 20.3838 22.9119 21.9701 24.9735C21.5819 26.1582 21.1258 27.5247 20.6133 29.0652C20.3665 29.8043 20.0988 30.4889 19.8157 31.122C19.5853 31.2243 19.3615 31.3285 19.1454 31.4366C18.3671 31.8258 17.6279 32.1757 16.9423 32.5008C13.8154 33.9811 11.75 34.9603 11.75 36.8937C11.75 38.2975 13.2752 39.1666 14.6875 39.1666C16.5081 39.1666 19.2572 36.7349 21.2653 32.6385C23.3498 31.8161 25.9412 31.207 27.9866 30.8255C29.6255 32.0857 31.4357 33.2916 32.3125 33.2916C34.7403 33.2916 35.25 31.8878 35.25 30.7107C35.25 28.3957 32.6051 28.3957 31.3333 28.3957C30.9384 28.3958 29.879 28.5125 28.4924 28.7448ZM14.6875 37.2083C14.1281 37.2083 13.7494 36.9444 13.7083 36.8937C13.7083 36.1994 15.7785 35.2184 17.7809 34.2699C17.908 34.2096 18.0372 34.1493 18.1682 34.0872C16.6975 36.2196 15.2431 37.2083 14.6875 37.2083ZM21.5417 19.677C21.5417 17.625 22.1786 17.625 22.5209 17.625C23.2132 17.625 23.5001 17.625 23.5001 19.5833C23.5001 19.9964 23.2247 21.0291 22.7207 22.6413C21.9518 21.4575 21.5417 20.443 21.5417 19.677ZM22.2923 30.2012C22.3535 30.031 22.4128 29.8588 22.4702 29.6848C22.8336 28.5947 23.1606 27.6155 23.4523 26.7339C23.8587 27.1814 24.2966 27.6395 24.7662 28.1089C24.9497 28.2925 25.4049 28.7056 26.0112 29.2229C24.8042 29.4859 23.5201 29.8119 22.2923 30.2012ZM33.2917 30.7108C33.2917 31.1507 33.2917 31.3333 32.3833 31.3391C32.1165 31.2817 31.4997 30.9184 30.7386 30.4001C31.0149 30.3695 31.2186 30.3542 31.3333 30.3542C32.7801 30.3542 33.1904 30.4956 33.2917 30.7108Z" fill="#232122"/>
</svg>
