<svg width="109" height="91" viewBox="0 0 109 91" fill="none" xmlns="http://www.w3.org/2000/svg">
<path d="M108.432 44.32C108.432 66.037 91.546 80.432 70.716 80.432C49.886 80.432 33 66.032 33 44.32C33 22.608 49.886 5 70.716 5C91.546 5 108.432 22.602 108.432 44.32Z" fill="#F5EEE6"/>
<path d="M28.2603 33.3059C28.2603 33.3059 38.3596 28.0247 45.0818 28.2596C51.936 28.4991 61.9033 33.306 61.9033 33.306L62.5761 47.4361H28.2603V33.3059Z" fill="#F5EEE6"/>
<ellipse cx="71.4743" cy="42.6786" rx="9.25565" ry="10.7983" fill="white"/>
<ellipse cx="71.4743" cy="57.0765" rx="3.08522" ry="3.59942" fill="white"/>
<ellipse cx="45.2326" cy="12.4801" rx="9.25565" ry="10.7983" fill="white"/>
<ellipse cx="45.2327" cy="64.493" rx="3.08522" ry="3.59942" fill="white"/>
<ellipse cx="45.2326" cy="49.4872" rx="9.25565" ry="10.7983" fill="white"/>
<ellipse cx="19.3487" cy="42.6786" rx="9.25565" ry="10.7983" fill="white"/>
<ellipse cx="19.2339" cy="57.0914" rx="3.08522" ry="3.59942" fill="white"/>
<ellipse cx="45.2327" cy="26.8126" rx="3.08522" ry="3.59942" fill="white"/>
<path d="M54.5018 63.2558C54.5018 63.2558 64.6011 57.9746 71.3233 58.2095C78.1776 58.449 88.1449 63.256 88.1449 63.256L88.8177 77.386H54.5018V63.2558Z" fill="#F5EEE6"/>
<path d="M28.2603 70.8165C28.2603 70.8165 38.3596 63.9629 45.0818 64.2677C51.936 64.5785 61.9033 70.8166 61.9033 70.8166L62.5761 89.1537H28.2603V70.8165Z" fill="#F5EEE6"/>
<path d="M2.01868 63.2558C2.01868 63.2558 12.118 57.9746 18.8402 58.2095C25.6945 58.449 35.6617 63.256 35.6617 63.256L36.3346 77.386H2.01868V63.2558Z" fill="#F5EEE6"/>
<path d="M89.1745 70.9174C89.9068 70.9174 90.5001 70.3239 90.5001 69.5917V67.5601C90.5001 63.8952 88.1617 60.6623 84.6802 59.5152L76.3944 56.7889V53.9201C79.2796 52.1891 81.2153 49.031 81.2153 45.4285V39.7148C81.2153 34.258 76.7758 29.8186 71.319 29.8186C68.1048 29.8186 65.2447 31.3599 63.4358 33.741C62.4345 31.8619 60.7364 30.3964 58.6105 29.6982L50.3255 26.9705V24.1017C53.2108 22.3707 55.1464 19.2126 55.1464 15.6101V9.89628C55.1466 4.43943 50.7072 0 45.2503 0C39.7935 0 35.354 4.43943 35.354 9.89628V15.6099C35.354 19.2124 37.2897 22.3706 40.1749 24.1015V26.9703L31.8908 29.6978C29.7644 30.3964 28.0662 31.8619 27.0648 33.741C25.2559 31.3597 22.3958 29.8186 19.1816 29.8186C13.7248 29.8186 9.28536 34.258 9.28536 39.7148V45.4285C9.28536 49.031 11.221 52.1891 14.1062 53.9201V56.7889L5.81969 59.5153C2.33899 60.6623 0.000488281 63.8952 0.000488281 67.5601V69.5917C0.000488281 70.3239 0.593862 70.9174 1.32617 70.9174C2.05847 70.9174 2.65185 70.3239 2.65185 69.5917V67.5601C2.65185 65.0424 4.25839 62.8214 6.64885 62.0336L14.4104 59.4796C15.1198 61.4284 16.9906 62.8237 19.1815 62.8237C21.3722 62.8237 23.243 61.4282 23.9523 59.4796L31.7128 62.0333C33.414 62.5939 34.732 63.8853 35.3417 65.5219L31.89 66.6579C28.4084 67.8037 26.0692 71.0362 26.0692 74.7013V76.2421H10.1511V72.9252C10.1511 72.1931 9.55775 71.5995 8.82544 71.5995C8.09314 71.5995 7.49976 72.1931 7.49976 72.9252V76.2421H2.65185V75.7842C2.65185 75.0521 2.05847 74.4586 1.32617 74.4586C0.593862 74.4586 0.000488281 75.0521 0.000488281 75.7842V77.5677C0.000488281 78.2999 0.593862 78.8934 1.32617 78.8934H26.0692V89.1736C26.0692 89.9057 26.6625 90.4993 27.3948 90.4993H63.1056C63.8379 90.4993 64.4313 89.9057 64.4313 89.1736V87.4028C64.4313 86.6707 63.8379 86.0772 63.1056 86.0772C62.3733 86.0772 61.7799 86.6707 61.7799 87.4028V87.8483H56.9322V80.0678C56.9322 79.3356 56.3388 78.7421 55.6065 78.7421C54.8742 78.7421 54.2808 79.3356 54.2808 80.0678V87.8483H36.2198V80.0678C36.2198 79.3356 35.6264 78.7421 34.8941 78.7421C34.1618 78.7421 33.5684 79.3356 33.5684 80.0678V87.8483H28.7205V74.7016C28.7205 72.1841 30.3272 69.9636 32.7188 69.1767L40.4795 66.6226C41.189 68.571 43.0596 69.9663 45.2503 69.9663C47.441 69.9663 49.3117 68.5711 50.0212 66.6226L57.7819 69.1767C60.1734 69.9638 61.7801 72.1841 61.7801 74.7016V81.2137C61.7801 81.9458 62.3735 82.5394 63.1058 82.5394C63.8381 82.5394 64.4315 81.9458 64.4315 81.2137V78.8938H89.1745C89.9068 78.8938 90.5001 78.3002 90.5001 77.5681V75.7846C90.5001 75.0525 89.9068 74.4589 89.1745 74.4589C88.4422 74.4589 87.8488 75.0525 87.8488 75.7846V76.2424H83.0009V72.9256C83.0009 72.1934 82.4075 71.5999 81.6752 71.5999C80.9429 71.5999 80.3495 72.1934 80.3495 72.9256V76.2424H64.4313V74.7016C64.4313 71.0364 62.0921 67.804 58.6105 66.6583L55.1588 65.5223C55.7684 63.8858 57.0863 62.5945 58.7869 62.0338L66.5481 59.48C67.2575 61.4286 69.1283 62.8241 71.319 62.8241C73.5099 62.8241 75.3807 61.4286 76.09 59.48L83.8509 62.0338C86.2422 62.8214 87.8488 65.0424 87.8488 67.5601V69.5917C87.8488 70.3239 88.4422 70.9174 89.1745 70.9174ZM71.319 32.4697C75.3139 32.4697 78.5639 35.7198 78.5639 39.7147V45.4283C78.5639 49.4232 75.3137 52.6733 71.319 52.6733C67.3243 52.6733 64.0742 49.4232 64.0742 45.4283V39.7147C64.0742 35.7198 67.3243 32.4697 71.319 32.4697ZM38.0054 15.6099V9.89628C38.0054 5.90139 41.2554 2.65136 45.2503 2.65136C49.2452 2.65136 52.4952 5.90139 52.4952 9.89628V15.6099C52.4952 19.6048 49.245 22.8549 45.2503 22.8549C41.2556 22.8549 38.0054 19.6048 38.0054 15.6099ZM45.2503 25.5062C46.0864 25.5062 46.8982 25.4011 47.6744 25.2049V27.8946C47.674 27.9071 47.6742 27.9195 47.6744 27.9319C47.6733 29.2676 46.5864 30.354 45.2505 30.354C43.9146 30.354 42.8275 29.2676 42.8266 27.9319C42.8266 27.9193 42.8268 27.9069 42.8266 27.8946V25.2049C43.6024 25.4009 44.4143 25.5062 45.2503 25.5062ZM32.7191 32.2165L40.4793 29.6614C41.1886 31.61 43.0594 33.0053 45.2501 33.0053C47.4409 33.0053 49.3117 31.61 50.021 29.6614L57.782 32.2166C59.9981 32.9445 61.5348 34.8851 61.7495 37.1922C61.5369 37.9978 61.4225 38.8431 61.4225 39.7147V45.4283C61.4225 45.7642 61.4397 46.0961 61.4726 46.4235H55.1353C54.9076 41.1671 50.5615 36.9604 45.25 36.9604C39.9384 36.9604 35.5923 41.1671 35.3646 46.4235H29.0274C29.0602 46.0961 29.0774 45.7642 29.0774 45.4283V39.7147C29.0774 38.8431 28.963 37.998 28.7504 37.1922C28.9655 34.8853 30.5024 32.9447 32.7191 32.2165ZM45.2503 59.8153C41.2554 59.8153 38.0054 56.5653 38.0054 52.5704V46.8567C38.0054 42.8618 41.2556 39.6118 45.2503 39.6118C49.245 39.6118 52.4952 42.8618 52.4952 46.8567V52.5704C52.4952 56.5653 49.2452 59.8153 45.2503 59.8153ZM11.9365 45.4283V39.7147C11.9365 35.7198 15.1868 32.4697 19.1815 32.4697C23.1762 32.4697 26.4262 35.7198 26.4262 39.7147V45.4283C26.4262 49.4232 23.1762 52.6733 19.1815 52.6733C15.1868 52.6733 11.9365 49.4232 11.9365 45.4283ZM21.6053 57.7485C21.6053 59.0851 20.5181 60.1724 19.1815 60.1724C17.8448 60.1724 16.7574 59.0849 16.7574 57.7485V55.0232C17.5334 55.2194 18.3452 55.3246 19.1815 55.3246C20.0175 55.3246 20.8294 55.2194 21.6053 55.0232V57.7485ZM32.5422 59.5152L24.2569 56.7889V53.9199C26.1109 52.8076 27.5707 51.1052 28.3787 49.0748H35.354V52.5704C35.354 56.1729 37.2897 59.331 40.1749 61.062V63.9313L37.8596 64.6933C36.9887 62.2641 35.053 60.3427 32.5422 59.5152ZM45.2503 67.3148C43.9137 67.3148 42.8263 66.2273 42.8263 64.8907V64.8746C42.8263 64.872 42.8263 64.8693 42.8263 64.8668V62.1655C43.6022 62.3617 44.4141 62.4668 45.2503 62.4668C46.0866 62.4668 46.8982 62.3617 47.6744 62.1655V64.8668V64.8746V64.8907C47.6744 66.2273 46.587 67.3148 45.2503 67.3148ZM57.9579 59.5153C55.4476 60.3427 53.5119 62.2641 52.6412 64.6935L50.3257 63.9314V61.0621C53.2109 59.3312 55.1466 56.173 55.1466 52.5706V49.0748H62.122C62.9299 51.1054 64.3898 52.8078 66.2438 53.9199V56.7889L57.9579 59.5153ZM71.319 60.1725C69.9824 60.1725 68.8951 59.0851 68.8951 57.7487V55.0234C69.6711 55.2196 70.4829 55.3248 71.319 55.3248C72.1551 55.3248 72.9669 55.2196 73.743 55.0234V57.7487C73.743 59.0851 72.6556 60.1725 71.319 60.1725Z" fill="#342616"/>
<rect x="61.7869" y="81.1101" width="2.66531" height="6.66328" fill="#342616"/>
<rect x="87.838" y="69.2061" width="2.66176" height="6.65439" fill="#342616"/>
<rect y="69.2061" width="2.66176" height="6.65439" fill="#342616"/>
</svg>
